<svg width="33" height="48" viewBox="0 0 33 48" fill="none" xmlns="http://www.w3.org/2000/svg">
<path d="M28.5206 9.0144H4.52065C3.78427 9.0144 3.18732 9.61136 3.18732 10.3477V27.6811C3.18732 28.4174 3.78427 29.0144 4.52065 29.0144H28.5206C29.257 29.0144 29.854 28.4174 29.854 27.6811V10.3477C29.854 9.61136 29.257 9.0144 28.5206 9.0144Z" fill="#A3A3AF" stroke="#A3A3AF" stroke-width="2.66667" stroke-linecap="round" stroke-linejoin="round"/>
<path d="M9.854 6.34772V11.681" stroke="#A3A3AF" stroke-width="2.66667" stroke-linecap="round"/>
<path d="M17.1873 17.681H9.854" stroke="white" stroke-width="2.66667" stroke-linecap="round"/>
<path d="M23.1873 23.0144H9.854" stroke="white" stroke-width="2.66667" stroke-linecap="round"/>
<path d="M23.1873 6.34772V11.681" stroke="#A3A3AF" stroke-width="2.66667" stroke-linecap="round"/>
<g clip-path="url(#clip0_12110_144531)">
<path d="M2.89297 44.7659V44.833C2.89297 44.8906 2.89297 44.9194 2.94095 44.9194C2.97552 44.9288 3.01196 44.9288 3.04652 44.9194C3.21926 44.8139 3.45919 44.6699 3.75669 44.4684L4.02541 44.2956L4.10218 45.4568C3.74815 45.6859 3.38302 45.8973 3.00813 46.0902C2.81795 46.2004 2.60393 46.263 2.38433 46.2726C2.26639 46.2767 2.14978 46.2467 2.04844 46.1862C1.94659 46.109 1.86712 46.0061 1.81821 45.8881C1.7693 45.77 1.7527 45.641 1.77013 45.5144C1.76399 45.4346 1.76399 45.3544 1.77013 45.2745L2.28836 41.359H1.08875L1.20391 40.3321H2.797C2.88868 40.3249 2.98076 40.3394 3.0658 40.3744C3.15083 40.4094 3.22642 40.4639 3.28644 40.5336C3.39133 40.6954 3.43238 40.8903 3.40161 41.0806L2.89297 44.7659ZM1.95247 37.6641L4.10218 38.6238L3.96782 39.6795L1.81811 38.7198L1.95247 37.6641ZM10.1099 47.1459C9.18686 46.497 8.36258 45.718 7.66264 44.833L7.36514 47.453H6.32867L6.60698 44.9962C5.8639 45.7316 5.03594 46.3759 4.14057 46.9156L3.28644 46.3302C4.4506 45.7035 5.49899 44.8823 6.38625 43.9021H4.035L4.15017 42.9425H6.8469L6.92368 42.2515H4.52445L4.92752 38.6622C4.94429 38.444 5.03979 38.2394 5.19623 38.0864C5.3945 37.9389 5.642 37.8736 5.88721 37.9041H9.93712C10.4937 37.9041 10.772 38.144 10.772 38.6142C10.772 38.6142 10.772 38.739 10.772 38.8542L10.3498 42.2515H7.96015L7.88337 42.9712H10.868L10.7529 43.9309H8.04652C8.85525 44.979 9.8549 45.8647 10.9928 46.5413L10.1099 47.1459ZM7.13481 40.4281H5.74326L5.63769 41.3206H7.02925L7.13481 40.4281ZM7.32675 38.7294H5.9352L5.82963 39.5931H7.23078L7.32675 38.7294ZM8.06571 41.3206H9.39969L9.50525 40.4281H8.17128L8.06571 41.3206ZM9.61082 39.5931L9.72598 38.7678H8.36322L8.26725 39.6315L9.61082 39.5931Z" fill="#A3A3AF"/>
<path d="M14.8891 43.9405L14.3133 42.8753L13.8143 47.3666H12.7778L13.2385 43.144C12.8888 43.8077 12.4977 44.4487 12.0676 45.0634L11.1751 44.5163C11.5782 44.0077 11.9237 43.5567 12.202 43.1152C12.574 42.5542 12.9167 41.9745 13.2289 41.3781H11.9045L12.0196 40.3321H13.5647L13.7183 38.9693L12.202 39.1133L12.3363 38.1536C13.5511 38.0438 14.7589 37.8676 15.9544 37.6257L15.8296 38.6622C15.4937 38.7294 15.129 38.787 14.7452 38.835L14.582 40.3321H15.8296L15.7145 41.3494H14.4669V41.4837C14.9542 42.1033 15.3907 42.7612 15.772 43.4511L14.8891 43.9405ZM18.7279 46.263H21.2423L21.1271 47.2227H15.0619L15.177 46.263H17.5955L17.7394 45.0058H15.772L15.8872 44.0461H17.8066L17.9505 42.9137H15.8104L15.9256 41.954H21.2423L21.1271 42.9137H19.1118L18.9774 44.0461H20.9448L20.8296 45.0058H18.8431L18.7279 46.263ZM21.0504 41.215H16.1079L16.4438 38.8733C16.4486 38.5832 16.5499 38.3029 16.7317 38.0768C16.8328 37.9857 16.9512 37.9159 17.0798 37.8714C17.2083 37.8269 17.3445 37.8086 17.4803 37.8177H20.4553C21.0951 37.8177 21.383 38.1632 21.3191 38.8542L21.0504 41.215ZM17.3171 40.2553H20.0811L20.2826 38.787H17.4803L17.3171 40.2553Z" fill="#A3A3AF"/>
<path d="M31.1367 41.0614H27.9601L27.8546 41.9348H31.9909L31.8853 42.8945H27.7874C28.0721 43.4347 28.4271 43.9349 28.8431 44.382C29.2835 44.0633 29.7034 43.7171 30.1003 43.3455H31.5974L30.4074 44.4012C30.1194 44.6507 29.8315 44.881 29.5436 45.0922C30.2584 45.7238 31.0481 46.2653 31.8949 46.7044L30.9352 47.3954C29.2887 46.3918 27.9222 44.9889 26.9621 43.3167C26.6063 43.6427 26.2313 43.9472 25.8392 44.2284L25.6473 46.0327C25.6473 46.1478 25.6953 46.2054 25.7816 46.2054C25.8518 46.2139 25.9227 46.2139 25.9928 46.2054L26.1943 46.0902L26.7125 45.9271L27.2404 45.7639L27.6818 45.6296L27.5667 46.7044C27.4323 46.7044 27.2692 46.81 27.058 46.8676L26.655 46.9732L26.3862 47.0499C25.8872 47.1747 25.5033 47.2611 25.2154 47.309H25.0811C24.9857 47.3159 24.8901 47.3003 24.8018 47.2637C24.7135 47.227 24.6349 47.1703 24.5724 47.0979C24.5145 47.0168 24.4736 46.9249 24.4522 46.8276C24.4308 46.7302 24.4292 46.6296 24.4477 46.5317L24.63 44.9386C23.9938 45.268 23.3328 45.5472 22.653 45.7735L21.8661 44.9674C23.3122 44.4954 24.6707 43.7886 25.8872 42.8753H22.6051L22.701 41.9156H26.6358L26.7317 41.0423H23.6223L23.7279 40.0826H26.8469L26.9429 39.2764H23.3824L23.488 38.3167H27.058L27.1732 37.453H28.3632L28.248 38.3551H31.7989L31.6933 39.3148H28.1329L28.0369 40.1209H31.2423L31.1367 41.0614Z" fill="#A3A3AF"/>
</g>
<defs>
<clipPath id="clip0_12110_144531">
<rect width="30.8637" height="10" fill="white" transform="translate(1.08875 37.453)"/>
</clipPath>
</defs>
</svg>
