<svg width="33" height="48" viewBox="0 0 33 48" fill="none" xmlns="http://www.w3.org/2000/svg">
<path d="M28.2075 9.25536H4.20748C3.4711 9.25536 2.87415 9.85231 2.87415 10.5887V27.922C2.87415 28.6584 3.4711 29.2554 4.20748 29.2554H28.2075C28.9439 29.2554 29.5408 28.6584 29.5408 27.922V10.5887C29.5408 9.85231 28.9439 9.25536 28.2075 9.25536Z" fill="#3EBAD0" stroke="#3EBAD0" stroke-width="2.66667" stroke-linecap="round" stroke-linejoin="round"/>
<path d="M9.54083 6.58867V11.922" stroke="#3EBAD0" stroke-width="2.66667" stroke-linecap="round"/>
<path d="M16.8742 17.922H9.54083" stroke="white" stroke-width="2.66667" stroke-linecap="round"/>
<path d="M22.8742 23.2554H9.54083" stroke="white" stroke-width="2.66667" stroke-linecap="round"/>
<path d="M22.8741 6.58867V11.922" stroke="#3EBAD0" stroke-width="2.66667" stroke-linecap="round"/>
<g clip-path="url(#clip0_12110_144536)">
<path d="M2.5798 45.01V45.0771C2.5798 45.1347 2.5798 45.1635 2.62778 45.1635C2.66234 45.1729 2.69878 45.1729 2.73335 45.1635C2.90609 45.0579 3.14602 44.914 3.44352 44.7125L3.71223 44.5397L3.78901 45.7009C3.43498 45.93 3.06985 46.1414 2.69496 46.3343C2.50477 46.4445 2.29076 46.5071 2.07116 46.5167C1.95322 46.5208 1.83661 46.4908 1.73527 46.4303C1.63342 46.3531 1.55395 46.2502 1.50504 46.1321C1.45613 46.0141 1.43953 45.8851 1.45696 45.7585C1.45081 45.6787 1.45081 45.5985 1.45696 45.5186L1.97519 41.6031H0.775574L0.890737 40.5762H2.48383C2.57551 40.569 2.66759 40.5835 2.75263 40.6185C2.83766 40.6535 2.91325 40.708 2.97327 40.7777C3.07816 40.9395 3.11921 41.1344 3.08843 41.3247L2.5798 45.01ZM1.6393 37.9082L3.78901 38.8679L3.65465 39.9236L1.50494 38.9639L1.6393 37.9082ZM9.79669 47.39C8.87368 46.7411 8.04941 45.9621 7.34947 45.0771L7.05197 47.6971H6.0155L6.29381 45.2403C5.55072 45.9757 4.72277 46.62 3.8274 47.1597L2.97327 46.5743C4.13743 45.9476 5.18582 45.1264 6.07308 44.1462H3.72183L3.83699 43.1865H6.53373L6.61051 42.4956H4.21127L4.61435 38.9063C4.63112 38.6881 4.72662 38.4835 4.88306 38.3305C5.08132 38.183 5.32883 38.1177 5.57404 38.1482H9.62394C10.1806 38.1482 10.4589 38.3881 10.4589 38.8583C10.4589 38.8583 10.4589 38.9831 10.4589 39.0983L10.0366 42.4956H7.64698L7.5702 43.2153H10.5548L10.4397 44.175H7.73335C8.54208 45.2231 9.54173 46.1088 10.6796 46.7854L9.79669 47.39ZM6.82164 40.6721H5.43008L5.32452 41.5647H6.71607L6.82164 40.6721ZM7.01358 38.9735H5.62202L5.51646 39.8372H6.91761L7.01358 38.9735ZM7.75254 41.5647H9.08651L9.19208 40.6721H7.85811L7.75254 41.5647ZM9.29765 39.8372L9.41281 39.0119H8.05005L7.95408 39.8756L9.29765 39.8372Z" fill="#3EBAD0"/>
<path d="M14.576 44.1846L14.0001 43.1194L13.5011 47.6107H12.4646L12.9253 43.3881C12.5756 44.0518 12.1846 44.6929 11.7545 45.3075L10.8619 44.7605C11.265 44.2518 11.6105 43.8008 11.8888 43.3593C12.2608 42.7984 12.6035 42.2186 12.9157 41.6223H11.5913L11.7065 40.5762H13.2516L13.4051 39.2134L11.8888 39.3574L12.0232 38.3977C13.2379 38.2879 14.4457 38.1117 15.6412 37.8699L15.5164 38.9063C15.1806 38.9735 14.8159 39.0311 14.432 39.0791L14.2688 40.5762H15.5164L15.4013 41.5935H14.1537V41.7278C14.6411 42.3474 15.0775 43.0053 15.4589 43.6952L14.576 44.1846ZM18.4147 46.5071H20.9291L20.814 47.4668H14.7487L14.8639 46.5071H17.2823L17.4262 45.2499H15.4589L15.574 44.2902H17.4934L17.6374 43.1578H15.4973L15.6124 42.1981H20.9291L20.814 43.1578H18.7986L18.6642 44.2902H20.6316L20.5164 45.2499H18.5299L18.4147 46.5071ZM20.7372 41.4591H15.7948L16.1307 39.1175C16.1354 38.8273 16.2367 38.547 16.4186 38.3209C16.5197 38.2299 16.638 38.16 16.7666 38.1155C16.8952 38.071 17.0314 38.0527 17.1671 38.0618H20.1422C20.782 38.0618 21.0699 38.4073 21.0059 39.0983L20.7372 41.4591ZM17.004 40.4994H19.7679L19.9694 39.0311H17.1671L17.004 40.4994Z" fill="#3EBAD0"/>
<path d="M30.8236 41.3056H27.647L27.5414 42.1789H31.6777L31.5721 43.1386H27.4742C27.7589 43.6789 28.1139 44.1791 28.5299 44.6261C28.9703 44.3074 29.3902 43.9613 29.7871 43.5897H31.2842L30.0942 44.6453C29.8063 44.8949 29.5184 45.1252 29.2305 45.3363C29.9453 45.968 30.7349 46.5095 31.5817 46.9486L30.622 47.6396C28.9756 46.636 27.609 45.2331 26.6489 43.5609C26.2931 43.8869 25.9182 44.1913 25.526 44.4726L25.3341 46.2768C25.3341 46.392 25.3821 46.4496 25.4685 46.4496C25.5386 46.4581 25.6095 46.4581 25.6796 46.4496L25.8811 46.3344L26.3994 46.1712L26.9272 46.0081L27.3687 45.8737L27.2535 46.9486C27.1191 46.9486 26.956 47.0542 26.7449 47.1117L26.3418 47.2173L26.0731 47.2941C25.574 47.4188 25.1902 47.5052 24.9022 47.5532H24.7679C24.6725 47.56 24.5769 47.5445 24.4886 47.5078C24.4003 47.4712 24.3218 47.4144 24.2593 47.3421C24.2014 47.261 24.1605 47.169 24.139 47.0717C24.1176 46.9744 24.116 46.8738 24.1345 46.7759L24.3168 45.1828C23.6806 45.5122 23.0196 45.7913 22.3399 46.0177L21.5529 45.2116C22.999 44.7396 24.3576 44.0328 25.574 43.1194H22.2919L22.3879 42.1597H26.3226L26.4186 41.2864H23.3092L23.4147 40.3267H26.5337L26.6297 39.5206H23.0692L23.1748 38.5609H26.7449L26.86 37.6972H28.05L27.9349 38.5993H31.4857L31.3802 39.559H27.8197L27.7237 40.3651H30.9291L30.8236 41.3056Z" fill="#3EBAD0"/>
</g>
<defs>
<clipPath id="clip0_12110_144536">
<rect width="30.8637" height="10" fill="white" transform="translate(0.775574 37.6971)"/>
</clipPath>
</defs>
</svg>
