<svg width="33" height="48" viewBox="0 0 33 48" fill="none" xmlns="http://www.w3.org/2000/svg">
<path d="M12.1982 8.46673L16.6192 4.04567L21.0403 8.46673L16.6192 12.8878L12.1982 8.46673Z" fill="#FBDE71" stroke="#FBDE71" stroke-width="2.52632" stroke-linecap="round" stroke-linejoin="round"/>
<path d="M20.4087 17.3088L24.8298 12.8878L29.2508 17.3088L24.8298 21.7299L20.4087 17.3088Z" fill="#FBDE71" stroke="#FBDE71" stroke-width="2.52632" stroke-linecap="round" stroke-linejoin="round"/>
<path d="M12.1982 24.8878L16.6192 20.4667L21.0403 24.8878L16.6192 29.3088L12.1982 24.8878Z" fill="#FBDE71" stroke="#FBDE71" stroke-width="2.52632" stroke-linecap="round" stroke-linejoin="round"/>
<path d="M3.98761 16.6772L8.40867 12.2562L12.8297 16.6772L8.40867 21.0983L3.98761 16.6772Z" fill="#FBDE71" stroke="#FBDE71" stroke-width="2.52632" stroke-linecap="round" stroke-linejoin="round"/>
<g clip-path="url(#clip0_12110_144534)">
<path d="M1.02475 45.0054L3.08611 39.5404H4.31334L2.30951 45.0054H1.02475ZM7.17048 37.6804H6.01037L4.99407 46.1751C4.99001 46.2093 4.97456 46.2412 4.95021 46.2655C4.92586 46.2899 4.89403 46.3053 4.85984 46.3094H4.77355C4.23707 46.2099 3.70839 46.0721 3.19158 45.8971L3.04776 47.0476C3.66846 47.2739 4.31114 47.4346 4.96531 47.527H5.18582C5.42747 47.5365 5.66377 47.4543 5.84738 47.2969C6.03052 47.1277 6.14057 46.8939 6.15418 46.6449L7.17048 37.6804ZM10.6125 45.0917L9.25102 39.598H8.10049L9.37566 45.0917H10.6125Z" fill="#FBDE71"/>
<path d="M15.2146 46.156C14.9653 46.2327 14.4476 46.3861 13.671 46.597L13.4025 46.6641C12.7409 46.8463 12.089 46.9997 11.485 47.1339L11.5712 46.0313C13.0094 45.7054 14.2462 45.3698 15.2913 45.0246L15.2146 46.156ZM15.3105 44.133L14.716 44.248L13.9778 44.3918C13.5559 44.4685 13.0669 44.5452 12.5204 44.6219H12.3958C12.3009 44.6335 12.2047 44.618 12.1182 44.5773C12.0317 44.5366 11.9584 44.4723 11.9068 44.3918C11.8905 44.3225 11.8905 44.2503 11.9068 44.1809C11.9117 44.0241 11.973 43.8743 12.0794 43.7591C12.5817 43.1511 13.0521 42.5174 13.4888 41.8607C13.2587 41.8607 12.8464 41.9566 12.2424 42.0045C12.13 42.0398 12.0096 42.0398 11.8972 42.0045C11.8037 41.9669 11.7282 41.8948 11.6863 41.8032C11.6458 41.713 11.6325 41.6131 11.6479 41.5155C11.6548 41.3684 11.7086 41.2273 11.8013 41.1128C12.2194 40.5747 12.6036 40.0111 12.9519 39.4254C13.1724 39.0802 13.508 38.4666 13.9682 37.7092H15.2146C14.4476 39.0035 13.8148 40.039 13.2299 40.854C13.6007 40.8248 13.9691 40.7703 14.3325 40.691C14.5434 40.3938 14.7256 40.1157 14.8886 39.8664H16.0583C15.7515 40.4033 15.3392 41.0361 14.8311 41.784C14.4476 42.2921 14.0449 42.8482 13.5655 43.4331L14.5243 43.2701L15.483 43.0591L15.3105 44.133ZM21.3411 47.5558H14.8694L14.9845 46.5395H15.7419L16.624 38.946C16.6315 38.6878 16.7223 38.4389 16.8828 38.2365C17.0731 38.0871 17.3129 38.0152 17.554 38.0352H20.4878C20.7245 38.0149 20.9602 38.0833 21.1494 38.2269C21.2272 38.302 21.2874 38.3934 21.3255 38.4945C21.3637 38.5957 21.3788 38.704 21.3699 38.8118C21.375 38.9076 21.375 39.0036 21.3699 39.0994L20.5645 46.5395H21.5233L21.3411 47.5558ZM19.6537 44.5452H17.0554L16.8061 46.5395H19.4332L19.6537 44.5452ZM19.9413 41.8607H17.3239L17.1321 43.5865H19.7208L19.9413 41.8607ZM20.2481 39.0515H17.6978L17.4773 40.8923H20.0468L20.2481 39.0515Z" fill="#FBDE71"/>
<path d="M26.1638 37.7571C26.0487 37.9489 25.9432 38.1311 25.8569 38.3132L25.7515 38.4954L25.6268 38.7159L25.1187 39.5788L24.275 47.6421H23.1244L23.7477 41.8032C23.5175 42.1387 23.297 42.4551 23.0765 42.7619H21.7822C22.9556 41.162 24.0283 39.4905 24.9941 37.7571H26.1638ZM32.089 44.1426H29.3373L28.9921 47.6804H27.8704L28.2155 44.1426H25.1858L25.3104 43.0783H28.2731L28.5032 40.8252H27.0458L26.5473 42.3209H25.32C25.6077 41.6306 25.8665 40.9403 26.0966 40.2691C26.3267 39.598 26.5089 39.0419 26.6815 38.4475H27.7649L27.3718 39.7897H28.599L28.8291 37.6804H29.9893L29.7879 39.7897H31.9931L31.8685 40.8252H29.6633L29.4428 43.0783H32.2136L32.089 44.1426Z" fill="#FBDE71"/>
</g>
<defs>
<clipPath id="clip0_12110_144534">
<rect width="31.1889" height="10" fill="white" transform="translate(1.02475 37.6804)"/>
</clipPath>
</defs>
</svg>
