<svg width="33" height="48" viewBox="0 0 33 48" fill="none" xmlns="http://www.w3.org/2000/svg">
<path d="M12.5113 8.24246L16.9324 3.8214L21.3534 8.24246L16.9324 12.6635L12.5113 8.24246Z" fill="#A3A3AF" stroke="#A3A3AF" stroke-width="2.52632" stroke-linecap="round" stroke-linejoin="round"/>
<path d="M20.7219 17.0846L25.1429 12.6635L29.564 17.0846L25.1429 21.5056L20.7219 17.0846Z" fill="#A3A3AF" stroke="#A3A3AF" stroke-width="2.52632" stroke-linecap="round" stroke-linejoin="round"/>
<path d="M12.5113 24.6635L16.9324 20.2424L21.3534 24.6635L16.9324 29.0845L12.5113 24.6635Z" fill="#A3A3AF" stroke="#A3A3AF" stroke-width="2.52632" stroke-linecap="round" stroke-linejoin="round"/>
<path d="M4.30078 16.4529L8.72184 12.0319L13.1429 16.4529L8.72184 20.874L4.30078 16.4529Z" fill="#A3A3AF" stroke="#A3A3AF" stroke-width="2.52632" stroke-linecap="round" stroke-linejoin="round"/>
<g clip-path="url(#clip0_12110_144532)">
<path d="M1.33795 44.778L3.39931 39.313H4.62654L2.62271 44.778H1.33795ZM7.48368 37.4529H6.32357L5.30727 45.9477C5.30321 45.9819 5.28776 46.0137 5.26341 46.038C5.23906 46.0624 5.20723 46.0778 5.17304 46.0819H5.08675C4.55027 45.9824 4.02159 45.8446 3.50478 45.6696L3.36096 46.8202C3.98166 47.0464 4.62434 47.2071 5.27851 47.2995H5.49902C5.74067 47.309 5.97697 47.2268 6.16058 47.0694C6.34373 46.9003 6.45377 46.6664 6.46738 46.4175L7.48368 37.4529ZM10.9257 44.8643L9.56422 39.3705H8.41369L9.68886 44.8643H10.9257Z" fill="#A3A3AF"/>
<path d="M15.5278 45.9285C15.2785 46.0052 14.7608 46.1586 13.9842 46.3695L13.7157 46.4367C13.0541 46.6188 12.4022 46.7722 11.7982 46.9065L11.8844 45.8039C13.3226 45.4779 14.5594 45.1423 15.6045 44.7972L15.5278 45.9285ZM15.6237 43.9055L15.0292 44.0206L14.291 44.1644C13.8691 44.2411 13.3801 44.3178 12.8336 44.3945H12.709C12.6141 44.406 12.5179 44.3905 12.4314 44.3498C12.3449 44.3091 12.2716 44.2448 12.22 44.1644C12.2037 44.095 12.2037 44.0228 12.22 43.9534C12.2249 43.7966 12.2862 43.6469 12.3926 43.5316C12.8949 42.9236 13.3653 42.2899 13.802 41.6332C13.5719 41.6332 13.1596 41.7291 12.5556 41.777C12.4432 41.8124 12.3228 41.8124 12.2104 41.777C12.1169 41.7394 12.0414 41.6674 11.9995 41.5757C11.959 41.4856 11.9457 41.3856 11.9611 41.288C11.968 41.1409 12.0218 40.9998 12.1146 40.8854C12.5326 40.3472 12.9168 39.7836 13.2651 39.1979C13.4856 38.8528 13.8212 38.2392 14.2814 37.4817H15.5278C14.7608 38.7761 14.128 39.8115 13.5431 40.6265C13.9139 40.5973 14.2823 40.5428 14.6457 40.4635C14.8566 40.1663 15.0388 39.8882 15.2018 39.639H16.3715C16.0647 40.1759 15.6524 40.8087 15.1443 41.5565C14.7608 42.0647 14.3581 42.6207 13.8787 43.2056L14.8375 43.0426L15.7962 42.8317L15.6237 43.9055ZM21.6543 47.3283H15.1826L15.2977 46.312H16.0551L16.9372 38.7185C16.9447 38.4603 17.0355 38.2115 17.196 38.009C17.3863 37.8597 17.6261 37.7877 17.8672 37.8077H20.801C21.0377 37.7875 21.2734 37.8558 21.4626 37.9995C21.5404 38.0745 21.6006 38.1659 21.6387 38.267C21.6769 38.3682 21.692 38.4766 21.6831 38.5843C21.6882 38.6801 21.6882 38.7761 21.6831 38.8719L20.8777 46.312H21.8365L21.6543 47.3283ZM19.9669 44.3178H17.3686L17.1193 46.312H19.7464L19.9669 44.3178ZM20.2545 41.6332H17.6371L17.4453 43.359H20.034L20.2545 41.6332ZM20.5613 38.824H18.011L17.7905 40.6648H20.36L20.5613 38.824Z" fill="#A3A3AF"/>
<path d="M26.477 37.5297C26.3619 37.7214 26.2564 37.9036 26.1702 38.0857L26.0647 38.2679L25.94 38.4884L25.4319 39.3513L24.5882 47.4146H23.4376L24.0609 41.5757C23.8307 41.9113 23.6102 42.2276 23.3897 42.5345H22.0954C23.2688 40.9345 24.3416 39.263 25.3073 37.5297H26.477ZM32.4022 43.9151H29.6505L29.3053 47.453H28.1836L28.5287 43.9151H25.499L25.6237 42.8508H28.5863L28.8164 40.5977H27.359L26.8605 42.0934H25.6332C25.9209 41.4031 26.1797 40.7128 26.4098 40.0416C26.6399 39.3705 26.8221 38.8144 26.9947 38.22H28.0781L27.685 39.5623H28.9122L29.1423 37.453H30.3025L30.1011 39.5623H32.3063L32.1817 40.5977H29.9765L29.756 42.8508H32.5268L32.4022 43.9151Z" fill="#A3A3AF"/>
</g>
<defs>
<clipPath id="clip0_12110_144532">
<rect width="31.1889" height="10" fill="white" transform="translate(1.33795 37.4529)"/>
</clipPath>
</defs>
</svg>
