<svg width="312" height="15" viewBox="0 0 312 15" fill="none" xmlns="http://www.w3.org/2000/svg">
<line x1="0.5" y1="6.88086" x2="106.123" y2="6.88086" stroke="black" stroke-opacity="0.3"/>
<path d="M116.031 4.02086V4.91086H119.971C119.921 5.19086 119.861 5.47086 119.801 5.75086H116.541V12.4009H117.471V6.64086H123.571V11.0409C123.571 11.3009 123.441 11.4409 123.191 11.4409L122.301 11.4209L122.551 12.3409H123.501C124.161 12.3409 124.501 11.9709 124.501 11.2509V5.75086H120.771C120.831 5.48086 120.891 5.20086 120.951 4.91086H124.991V4.02086H121.101C121.141 3.77086 121.171 3.51086 121.201 3.23086L120.231 3.10086C120.201 3.41086 120.161 3.72086 120.121 4.02086H116.031ZM119.511 6.82086L118.661 7.13086C118.851 7.40086 119.011 7.69086 119.151 8.00086H118.191V8.83086H120.051V9.67086H117.901V10.5009H120.051V12.2509H120.971V10.5009H123.131V9.67086H120.971V8.83086H122.861V8.00086H121.881C122.061 7.72086 122.221 7.42086 122.371 7.10086L121.511 6.78086C121.351 7.20086 121.171 7.61086 120.971 8.00086H120.061C119.891 7.55086 119.711 7.16086 119.511 6.82086ZM130.991 5.07086C131.691 5.90086 132.831 6.66086 134.401 7.36086L135.041 6.55086C133.581 6.09086 132.501 5.58086 131.801 5.02086H134.621V4.13086H130.991V3.21086H130.071V4.13086H126.391V5.02086H129.221C128.491 5.63086 127.401 6.15086 125.961 6.57086L126.471 7.41086C128.091 6.79086 129.291 6.01086 130.071 5.07086V6.81086H130.991V5.07086ZM127.571 7.13086V8.00086H131.781C131.381 8.21086 130.861 8.46086 130.211 8.76086V9.33086H126.201V10.2309H130.211V11.1509C130.211 11.4009 130.081 11.5309 129.831 11.5309C129.401 11.5309 129.001 11.5209 128.641 11.5009L128.891 12.4009H130.171C130.801 12.4009 131.121 12.0909 131.121 11.4709V10.2309H134.831V9.33086H131.121V9.20086C131.921 8.81086 132.641 8.41086 133.291 8.00086V7.13086H127.571ZM136.341 3.50086V6.86086H137.741V10.9709C137.561 11.0209 137.371 11.0709 137.181 11.1209V7.82086H136.341V11.3309L135.871 11.4309L136.131 12.3509C137.511 12.0209 138.721 11.6609 139.771 11.2809V10.3209C139.411 10.4509 139.021 10.5809 138.621 10.7109V9.15086H139.551V8.25086H138.621V6.86086H139.581V5.67086L140.111 6.36086C140.381 6.14086 140.641 5.91086 140.881 5.66086C141.101 6.04086 141.351 6.39086 141.651 6.73086C141.011 7.20086 140.251 7.61086 139.371 7.96086L139.951 8.72086C140.851 8.34086 141.641 7.89086 142.301 7.37086C142.961 7.93086 143.751 8.36086 144.691 8.68086L145.221 7.90086C144.361 7.62086 143.611 7.24086 142.991 6.76086C143.591 6.14086 144.041 5.44086 144.351 4.65086V3.96086H141.991C142.071 3.76086 142.151 3.55086 142.221 3.34086L141.311 3.16086C141.011 4.12086 140.431 4.93086 139.581 5.59086V3.50086H136.341ZM141.431 4.96086C141.471 4.91086 141.511 4.86086 141.551 4.80086H143.341C143.081 5.29086 142.741 5.74086 142.321 6.16086C141.981 5.80086 141.681 5.40086 141.431 4.96086ZM138.681 5.98086H137.251V4.38086H138.681V5.98086ZM144.321 8.57086H140.321V12.3809H141.221V12.0009H143.411V12.3809H144.321V8.57086ZM141.221 11.1409V9.43086H143.411V11.1409H141.221ZM146.931 4.21086V5.14086H154.091V4.21086H146.931ZM146.011 10.5009V11.4509H155.001V10.5009H146.011ZM160.061 3.20086V6.39086H156.051V7.31086H160.061V12.4009H161.021V7.31086H164.991V6.39086H161.021V3.20086H160.061ZM166.931 4.21086V5.14086H174.091V4.21086H166.931ZM166.011 10.5009V11.4509H175.001V10.5009H166.011ZM177.471 3.48086V6.36086H183.551V3.48086H177.471ZM182.591 5.51086H178.431V4.33086H182.591V5.51086ZM178.171 7.93086L177.701 9.75086H182.721C182.661 10.5109 182.581 11.0009 182.471 11.2009C182.351 11.4009 182.031 11.5009 181.531 11.5009C181.111 11.5009 180.641 11.4709 180.101 11.4209L180.421 12.2809C180.811 12.3309 181.251 12.3609 181.741 12.3609C182.461 12.3609 182.951 12.2009 183.201 11.8909C183.451 11.5809 183.611 10.5809 183.691 8.89086H178.831L179.121 7.93086H185.051V7.02086H175.961V7.93086H178.171Z" fill="#292945" fill-opacity="0.4"/>
<line x1="205.877" y1="6.88086" x2="311.5" y2="6.88086" stroke="black" stroke-opacity="0.3"/>
</svg>
