<svg width="330" height="60" viewBox="0 0 330 60" fill="none" xmlns="http://www.w3.org/2000/svg">
<g clip-path="url(#clip0_12100_115972)">
<path d="M97.5813 0.184804L98.7347 2.88812H103.348L104.767 0.184804H107.57L106.036 2.88812H111.596L111.307 5.19865H101.861L100.938 7.28967H107.201C108.539 7.28967 109.22 7.90196 109.22 9.11499C109.236 9.27633 109.236 9.43886 109.22 9.6002L107.466 22.4121H90.4415L92.1255 9.24207C92.1325 8.96834 92.195 8.6989 92.3092 8.4501C92.4233 8.20129 92.5867 7.9783 92.7895 7.79465C92.9923 7.611 93.2302 7.47051 93.4888 7.38173C93.7474 7.29294 94.0213 7.25769 94.294 7.27812H98.1811L99.1961 5.16399H90.4069L90.6722 2.85346H96.1279L94.9745 0.150146L97.5813 0.184804ZM93.4289 20.1015H105.171L105.436 18.0105H93.6596L93.4289 20.1015ZM105.99 13.8631H94.2248L93.9595 15.9541H105.725L105.99 13.8631ZM106.567 9.6233H94.7784L94.4785 11.7143H106.278L106.567 9.6233Z" fill="#231815"/>
<path d="M120.662 2.01019C121.373 4.109 122.265 6.14215 123.326 8.08688C124.304 9.84463 125.464 11.4942 126.786 13.0083C128.324 11.4774 129.671 9.76685 130.8 7.91359C131.974 5.94682 132.978 3.88289 133.799 1.74448H136.833C135.056 6.68438 132.28 11.2035 128.678 15.0185C131.346 17.4356 134.265 19.5581 137.387 21.3493L134.814 23.2786C131.809 21.5546 129.044 19.4415 126.59 16.994C123.653 19.5292 120.342 21.5945 116.775 23.1169L114.525 21.0258C118.202 19.509 121.643 17.4745 124.745 14.9838C123.184 13.1457 121.816 11.1521 120.662 9.03419C119.458 6.81627 118.45 4.49686 117.651 2.10262L120.662 2.01019ZM127.363 0.265747L129.532 6.72367H126.613L124.399 0.265747H127.363Z" fill="#231815"/>
<path d="M161.182 10.6515L159.175 6.20377H161.609L164.677 12.7079H162.105L161.551 11.4602C160.787 13.3226 159.766 15.0686 158.518 16.6473C160.052 18.638 161.898 20.3664 163.985 21.7652L161.609 23.1053C159.863 21.8109 158.309 20.2744 156.995 18.542C155.246 20.412 153.18 21.957 150.893 23.1053L148.679 21.6959C151.259 20.3909 153.599 18.6564 155.599 16.5665C154.733 15.1447 153.962 13.6666 153.293 12.1418L152.947 12.7772H150.94L151.101 13.17L149.117 14.3253C148.783 13.3433 148.402 12.3267 147.964 11.31L146.487 23.1053H144.053L145.461 11.749C144.656 13.5093 143.69 15.1916 142.577 16.7744L140.593 15.6192C142.682 12.8623 144.404 9.84485 145.714 6.64277H142.704L143.027 4.33224H146.487L146.983 0.173296H149.417L148.921 4.33224H151.228L150.94 6.64277H148.633L148.517 7.49766C149.14 8.65293 149.855 10.2241 150.663 12.0263L154.123 6.24998H156.741L154.181 10.6977H155.334C155.871 12.0672 156.507 13.3954 157.237 14.6718C158.134 13.4499 158.863 12.1134 159.406 10.6977L161.182 10.6515ZM164.642 2.86506L164.354 5.17559H151.77L152.035 2.86506H157.087L156.165 0.161743H158.783L159.706 2.86506H164.642Z" fill="#231815"/>
<path d="M188.611 22.62H167.987L170.364 2.83039C170.454 2.2453 170.719 1.70144 171.125 1.27079C171.322 1.06317 171.56 0.899326 171.824 0.789869C172.089 0.680411 172.373 0.627782 172.659 0.635392H188.807C189.125 0.625103 189.441 0.686157 189.733 0.814085C190.024 0.942013 190.283 1.13358 190.491 1.37476C190.708 1.63259 190.865 1.93474 190.953 2.26003C191.041 2.58532 191.056 2.92588 190.999 3.25784L188.611 22.62ZM170.836 20.2402H186.281L188.346 3.01523H173.016L170.836 20.2402ZM186.419 9.40384L186.177 11.7144H183.005L182.498 15.8964C182.49 15.9694 182.49 16.0429 182.498 16.1159C182.495 16.1661 182.504 16.2163 182.524 16.2624C182.544 16.3086 182.575 16.3494 182.613 16.3816C182.743 16.4426 182.885 16.4704 183.028 16.4625H183.686C184.477 16.3998 185.254 16.2208 185.993 15.9311L185.704 18.3571C184.96 18.6013 184.18 18.7184 183.397 18.7037H182.129C181.823 18.7298 181.516 18.6896 181.227 18.586C180.938 18.4823 180.675 18.3176 180.456 18.103C180.262 17.8587 180.122 17.5755 180.047 17.2726C179.971 16.9697 179.961 16.654 180.018 16.347L180.595 11.7259H178.461C177.933 14.7101 176.333 17.3977 173.962 19.2813L171.921 18.1261C172.963 17.3072 173.87 16.3286 174.608 15.2264C175.299 14.1677 175.795 12.994 176.073 11.7606H173.016L173.282 9.45005L186.419 9.40384ZM174.758 5.08316H185.866L185.624 7.33592H174.516L174.758 5.08316Z" fill="#231815"/>
<path d="M196.408 12.5346H194.24L195.705 5.03695H197.792L196.408 12.5346ZM201.703 0.0577632L199.003 22.8858H196.547L199.188 0.0577632H201.703ZM210.642 13.3202C211.334 14.9165 212.213 16.425 213.26 17.8142C214.364 19.2515 215.595 20.5855 216.94 21.7998L214.54 23.1053C212.133 20.7348 210.178 17.9432 208.773 14.8682C208.06 16.4598 207.166 17.9638 206.109 19.3507C205.109 20.6501 203.946 21.8149 202.648 22.8164L200.053 21.7305C201.564 20.5618 202.941 19.229 204.159 17.7564C205.246 16.4197 206.122 14.9235 206.755 13.3202H202.868L203.133 10.8826H207.493C207.667 10.2318 207.783 9.56685 207.839 8.89553L208.173 5.88029H204.471L204.713 3.46579H208.416L208.842 0H211.461L211.08 3.46579H214.102C214.403 3.43759 214.707 3.47344 214.993 3.571C215.279 3.66856 215.542 3.82561 215.763 4.03187C216.135 4.45884 216.325 5.01435 216.294 5.57992C216.306 5.79153 216.306 6.0037 216.294 6.21532L215.682 10.8364H217.505L217.216 13.274L210.642 13.3202ZM203.525 5.10626L204.056 10.0161H201.991L201.576 5.10626H203.525ZM210.296 9.61179C210.248 10.0402 210.171 10.4647 210.065 10.8826H213.018L213.687 5.88029H210.746L210.296 9.61179Z" fill="#231815"/>
<path d="M225.717 18.0106V18.1723C225.717 18.2994 225.717 18.3572 225.821 18.3572C225.911 18.349 225.995 18.3126 226.063 18.2532C226.836 17.8142 227.828 17.0979 229.051 16.2892L229.362 19.0157C227.655 20.1132 226.513 20.8179 225.902 21.1413C225.465 21.4156 224.964 21.5709 224.448 21.5919C224.247 21.604 224.046 21.5661 223.863 21.4814C223.68 21.3967 223.52 21.268 223.399 21.1067C223.122 20.7171 222.987 20.2438 223.018 19.7666C223.002 19.6052 223.002 19.4427 223.018 19.2814L224.172 9.42698H221.265L221.646 6.93161H225.51C225.726 6.90777 225.945 6.93863 226.146 7.02137C226.348 7.10411 226.526 7.2361 226.663 7.40527C226.904 7.76467 226.999 8.20271 226.928 8.62985L225.717 18.0106ZM223.099 0.681641L228.278 2.87664L227.909 5.47598L222.753 3.28098L223.099 0.681641ZM228.947 9.84288H231.934L232.649 3.5698H229.189L229.535 1.06288H239.916C240.56 1.00606 241.202 1.18232 241.727 1.55964C241.918 1.77034 242.061 2.01979 242.146 2.29095C242.232 2.56211 242.258 2.84859 242.223 3.1308C242.223 3.3503 242.223 3.53514 242.223 3.65067L240.504 19.524C240.492 19.6044 240.492 19.6862 240.504 19.7666C240.504 19.9399 240.574 20.0207 240.712 20.0207C240.819 20.0174 240.925 19.9939 241.023 19.9514C241.937 19.6382 242.824 19.2519 243.676 18.7962L243.33 21.8461C242.813 22.0906 242.282 22.3028 241.739 22.4815C241.141 22.6696 240.532 22.8201 239.916 22.932L239.385 22.9898C239.147 23.0017 238.909 22.9554 238.692 22.8548C238.475 22.7542 238.285 22.6023 238.14 22.4121C237.844 21.9544 237.732 21.401 237.828 20.8641L239.57 3.53514H235.233L234.518 9.80822H237.609L237.344 12.2227H234.195L232.995 23.1053H230.423L231.646 12.2458H228.635L228.947 9.84288Z" fill="#231815"/>
<path d="M6.92066 47.3658L6.58616 50.2078H7.20902L7.47431 48.1052H8.4778L8.0741 51.2591H4.61377C4.44158 51.283 4.26692 51.283 4.09472 51.2591C4.04139 51.2448 3.99194 51.2187 3.95002 51.1827C3.9081 51.1467 3.87477 51.1017 3.8525 51.0511L3.12583 52.3797L2.34149 59.3113H1.15344L1.68403 54.6902L1.36106 55.1292H0C0.611325 54.2743 1.15344 53.5581 1.49948 52.9689L2.39916 51.5017L2.76826 50.8316H3.8525V50.6699C3.84343 50.6009 3.84343 50.531 3.8525 50.462L4.11779 48.1514H5.09822L4.83293 50.254H5.50192L5.83642 47.3658H6.92066ZM4.187 47.5276C3.49493 48.6135 3.03355 49.3182 2.79133 49.6648C2.27228 50.4042 1.85704 50.9703 1.53408 51.3631H0.0692066C0.680531 50.589 1.22265 49.9074 1.60329 49.3067C1.98392 48.706 2.39916 48.1514 2.75673 47.5276H4.187ZM7.23209 56.7697V56.8621C7.23209 56.9199 7.23209 56.9545 7.23209 56.9545C7.27276 56.9492 7.30987 56.9285 7.3359 56.8968C7.63644 56.698 7.92528 56.4819 8.20098 56.2498L8.0741 57.6015C7.91088 57.7044 7.74138 57.797 7.56659 57.8787L7.30129 58.0174C7.19562 58.0796 7.08345 58.1299 6.96679 58.1676C6.87897 58.1822 6.78933 58.1822 6.7015 58.1676C6.57706 58.1672 6.4558 58.1281 6.35453 58.0557C6.25326 57.9832 6.177 57.881 6.13632 57.7632C6.10679 57.6145 6.10679 57.4614 6.13632 57.3127L6.367 55.187H5.07515L4.98287 55.9379C4.86578 57.0821 4.50805 58.1885 3.93324 59.1842L2.7798 58.8607C3.07071 58.4337 3.30708 57.9718 3.4834 57.4859C3.65958 56.9564 3.78322 56.4108 3.8525 55.857L3.97938 54.9097C4.01577 54.6752 4.12946 54.4597 4.30234 54.2974C4.48215 54.1554 4.70827 54.0854 4.93674 54.101H6.6323C7.24362 54.101 7.52045 54.4245 7.45124 55.083L7.23209 56.7697ZM7.84341 52.1486L7.69346 53.3039H3.76022L3.89864 52.1486H7.84341ZM12.1227 50.2656C11.8686 52.0499 11.3839 53.7935 10.6809 55.4527C11.1222 56.6292 11.6786 57.7592 12.3418 58.8261L11.2922 59.2535C10.862 58.4437 10.477 57.6106 10.1388 56.7581C9.66839 57.6545 9.11623 58.5053 8.48934 59.2997L7.46278 58.8376C8.32569 57.8172 9.03666 56.6771 9.57358 55.4527C9.33327 54.6741 9.13308 53.8836 8.97379 53.0844L8.80077 53.5581H7.64733C7.97029 52.6454 8.27019 51.7096 8.54701 50.7739C8.82384 49.8381 9.1122 48.7175 9.4467 47.4467H10.6001C10.4387 48.0937 10.2772 48.6713 10.1272 49.1796H12.6879L12.5725 50.3349L12.1227 50.2656ZM9.63125 51.1089C9.79273 52.1602 9.98882 53.0844 10.1964 53.8931C10.603 52.7145 10.8965 51.4999 11.0731 50.2656H9.91961L9.63125 51.1089Z" fill="#231815"/>
<path d="M17.9937 47.3658C17.6477 48.0128 17.1632 48.8561 16.5634 49.8843L15.41 59.2766H14.1066L14.9255 52.5645C14.7256 52.8649 14.5295 53.1422 14.3373 53.3963H12.6879C13.3361 52.53 13.9405 51.6316 14.4988 50.7046C15.0409 49.815 15.6522 48.7059 16.425 47.3658H17.9937ZM23.9339 59.138H17.0133L17.3593 55.961C17.3574 55.7935 17.3919 55.6277 17.4604 55.4749C17.5288 55.3221 17.6296 55.186 17.7558 55.0762C17.882 54.9663 18.0305 54.8852 18.1911 54.8385C18.3517 54.7918 18.5205 54.7806 18.6858 54.8057H23.1957C23.9339 54.8057 24.2915 55.1061 24.2915 55.7068C24.2985 55.7798 24.2985 55.8533 24.2915 55.9263L23.9339 59.138ZM22.2384 48.5211H25.4449L25.2835 49.7919H17.4862L17.6361 48.5211H20.762L20.4159 47.3658H21.9154L22.2384 48.5211ZM17.7169 52.8071H24.5222L24.4068 53.9624H17.5785L17.7169 52.8071ZM17.936 50.693H24.6491L24.5222 51.8483H17.7976L17.936 50.693ZM18.5589 57.9712H22.6767L22.8958 55.9379H18.7665L18.5589 57.9712Z" fill="#231815"/>
<path d="M25.5256 53.5695C26.6099 52.4142 27.475 51.3976 28.1093 50.5658C28.8336 49.6133 29.4999 48.6179 30.1048 47.5852H31.7888C30.9814 48.9253 30.2432 50.0575 29.5742 50.9471C28.8402 51.9452 28.0467 52.8981 27.1981 53.8006L25.5256 53.5695ZM34.6494 58.1906C33.6574 58.3176 32.504 58.4447 31.189 58.5602C30.4278 58.6296 29.3666 58.6989 28.0055 58.7913C27.7649 58.8182 27.5214 58.7946 27.2904 58.722C27.206 58.7028 27.1264 58.6661 27.0569 58.6144C26.9874 58.5627 26.9294 58.497 26.8867 58.4216C26.8421 58.3359 26.8184 58.2409 26.8175 58.1443C26.8379 57.832 26.9688 57.5371 27.1866 57.3126C27.9017 56.4577 28.5938 55.545 29.2628 54.5861C29.9318 53.6273 30.6008 52.5875 31.0622 51.8482H32.7923C31.9465 53.1652 31.2544 54.2049 30.7161 54.9674C30.1394 55.7876 29.5627 56.5963 28.8591 57.405C30.6008 57.301 32.3194 57.1277 34.1073 56.8851L33.0692 54.3435H34.4533L36.5064 59.1263H35.03L34.6494 58.1906ZM34.3033 47.5621C35.3953 49.6183 36.6246 51.5983 37.9828 53.4886L36.3565 53.7659C35.0646 51.7442 33.865 49.6878 32.7808 47.5621H34.3033Z" fill="#231815"/>
<path d="M43.1964 51.3515C43.0638 52.0389 42.8905 52.7179 42.6773 53.3847L42.9196 53.7313L43.5886 54.7364C43.6808 54.8866 43.8308 55.1292 44.0384 55.4411L44.5344 56.2267L43.3809 56.8967L43.2079 56.6079C42.7004 55.6144 42.3774 55.0021 42.239 54.771C41.9293 55.6244 41.5432 56.4479 41.0856 57.2317C40.6845 57.9202 40.2002 58.5565 39.6438 59.1264L38.2596 58.7682C39.1691 57.7806 39.9271 56.6632 40.5089 55.4526C41.1299 54.1392 41.5722 52.7481 41.8238 51.3168L43.1964 51.3515ZM46.8067 47.5506C46.9761 47.5393 47.1449 47.5796 47.2911 47.6662C47.4546 47.7818 47.5954 47.9268 47.7063 48.0936L50.613 52.576L48.9751 52.7609L46.576 48.8792H43.6116L40.2897 52.6916L38.6057 52.5067L42.412 48.0474C42.5229 47.8901 42.6641 47.7565 42.8273 47.6546C42.9871 47.5718 43.167 47.5358 43.3463 47.5506H46.8067ZM47.7063 51.3515C47.6132 52.0453 47.4744 52.7322 47.2911 53.4078C47.5472 54.3878 47.9353 55.3283 48.4445 56.2036C48.989 57.1101 49.6353 57.9512 50.3708 58.7105L49.0213 59.2535C48.5182 58.6809 48.0702 58.062 47.6833 57.405C47.2531 56.7014 46.89 55.9588 46.599 55.1869C46.282 55.9633 45.896 56.7095 45.4456 57.4166C45.0533 58.046 44.5845 58.6242 44.0499 59.1379L42.6773 58.7798C43.6526 57.8116 44.4596 56.6871 45.065 55.4526C45.7125 54.1476 46.1486 52.7476 46.3568 51.3052L47.7063 51.3515Z" fill="#231815"/>
<path d="M63.1049 52.3912L62.9665 53.6158H55.3653L54.8693 54.771H60.2213C60.5137 54.7407 60.8066 54.8234 61.0402 55.0021C61.1306 55.1039 61.1996 55.2228 61.2432 55.3518C61.2868 55.4807 61.304 55.6172 61.294 55.753C61.3019 55.8607 61.3019 55.9688 61.294 56.0765C61.2132 56.8274 61.1094 57.5321 60.9941 58.1906C60.9525 58.5182 60.7973 58.8208 60.5558 59.0455C60.2928 59.2497 59.9653 59.3523 59.633 59.3343H59.3446C58.7815 59.2528 58.2232 59.141 57.6722 58.9993C57.1531 58.8953 56.5995 58.7451 55.9881 58.5719L56.1496 57.3588C57.1617 57.6544 58.1952 57.8707 59.2408 58.0058C59.4023 58.0058 59.5177 58.0058 59.5753 57.8902C59.6442 57.7915 59.6841 57.6755 59.6907 57.5552C59.685 57.4706 59.685 57.3857 59.6907 57.3011L59.8176 56.3306V55.9032H54.2118C53.6236 55.9032 53.3237 55.6837 53.3237 55.2447C53.3335 55.0576 53.3765 54.8738 53.4506 54.7017L53.9465 53.6158H51.6396L51.7781 52.3912H63.1049ZM61.7092 51.5132H53.1622L53.5198 48.5211C53.5215 48.3921 53.5509 48.2649 53.606 48.1483C53.6611 48.0316 53.7405 47.9282 53.8389 47.845C53.9373 47.7617 54.0524 47.7006 54.1765 47.6658C54.3005 47.6309 54.4306 47.6232 54.5579 47.6431H60.8903C61.6631 47.6431 62.0437 47.9434 62.0437 48.5557C62.052 48.6287 62.052 48.7023 62.0437 48.7752L61.7092 51.5132ZM54.6271 50.3579H60.5096L60.7172 48.8445H54.8347L54.6271 50.3579Z" fill="#231815"/>
<path d="M75.4121 49.2951L75.2506 50.5313H71.029L70.8214 52.2526V52.5068V52.7494H75.8966L75.7581 54.0317H70.8791C71.418 54.9199 72.0823 55.7254 72.8515 56.4231C73.7303 57.1959 74.6938 57.8664 75.7235 58.4217L74.4663 59.3806C73.5414 58.8262 72.689 58.1587 71.9287 57.3935C71.1738 56.6426 70.5151 55.8005 69.9679 54.8866C69.4799 55.807 68.8315 56.6326 68.0531 57.3242C67.1246 58.1173 66.1018 58.7924 65.008 59.3344L63.7393 58.491C64.9053 57.8979 66.0069 57.1855 67.0266 56.3653C67.8048 55.7384 68.4383 54.9502 68.8836 54.0548H64.4313L64.5928 52.7494H69.2873L69.3565 52.3912L69.5987 50.5313H65.4118L65.5502 49.2951H67.8571L67.1304 47.3658H68.5722L69.2066 49.2951H71.7095L72.5516 47.3658H74.0395L73.1744 49.3529L75.4121 49.2951Z" fill="#231815"/>
<path d="M80.072 54.2166C79.491 55.8841 78.8211 57.5192 78.065 59.1149H76.6117C77.3899 57.5185 78.0867 55.8836 78.6994 54.2166H80.072ZM77.5345 50.4735L80.1182 51.7905L79.9105 53.2346L77.3499 51.8945L77.5345 50.4735ZM78.3303 47.5276L80.8333 48.8792L80.6487 50.3349L78.1227 48.937L78.3303 47.5276ZM85.1241 52.9458H87.8924L87.754 54.1934H84.9857L84.6166 57.6592H88.3307L88.1807 58.9185H79.7837L79.9336 57.6361H83.2325L83.59 54.1703H81.0524L81.2024 52.9227H83.7284L84.0168 50.2425H81.2255L81.3754 48.9832H84.2013L83.6477 47.3658H85.0088L85.5624 49.041H88.5614L88.423 50.3002H85.4125L85.1241 52.9458Z" fill="#231815"/>
<path d="M99.6113 47.4467C99.1961 48.7405 98.8731 49.8958 98.6424 50.9124H97.0968C97.4397 49.7339 97.8519 48.5766 98.331 47.4467H99.6113ZM102.38 47.4467C101.964 48.7405 101.641 49.8958 101.411 50.9124H99.8651C100.208 49.7339 100.62 48.5766 101.099 47.4467H102.38Z" fill="#231815"/>
<path d="M114.064 49.6764H109.116L109 50.6352H112.461C112.754 50.6177 113.042 50.7127 113.268 50.901C113.365 51.0014 113.44 51.1212 113.488 51.2526C113.535 51.384 113.555 51.524 113.545 51.6634C113.552 51.7403 113.552 51.8176 113.545 51.8945L112.818 57.7632C112.799 58.1777 112.663 58.5783 112.426 58.9185C112.304 59.0347 112.159 59.1229 111.999 59.1768C111.84 59.2306 111.67 59.249 111.503 59.2304C110.879 59.2242 110.257 59.1545 109.646 59.0225L109.75 57.7632C109.935 57.7632 110.2 57.8672 110.546 57.9249C110.761 57.9391 110.977 57.9391 111.192 57.9249C111.274 57.9232 111.352 57.8901 111.411 57.8325C111.474 57.7411 111.507 57.6318 111.503 57.5206L112.184 51.8598H104.698L103.81 59.138H102.472L103.337 51.8829C103.351 51.5368 103.476 51.2045 103.694 50.9356C103.818 50.8301 103.961 50.7502 104.115 50.7006C104.27 50.6511 104.433 50.6328 104.594 50.6468H107.593L107.708 49.6879H103.095L103.233 48.5211H107.847L108.008 47.3658H109.358L109.208 48.5211H114.191L114.064 49.6764ZM108.493 56.608L108.251 58.7567H106.947L107.189 56.608H104.663L104.79 55.4527H107.27L107.385 54.4707H105.079L105.217 53.4079H106.37L106.117 52.2064H107.27L107.582 53.4887H109L109.462 52.2064H110.707L110.154 53.4887H111.215L111.088 54.5516H108.712L108.597 55.5336H111.134L111.007 56.6888L108.493 56.608Z" fill="#231815"/>
<path d="M117.813 58.6989L117.986 57.4627C118.553 57.6815 119.14 57.844 119.739 57.9479H119.82C119.923 57.9479 119.993 57.8786 120.016 57.7169L120.27 56.1111H114.975L115.102 54.9558H120.443V54.6092L122.288 53.454H117.455L117.582 52.2987H123.764C123.957 52.2869 124.148 52.3398 124.307 52.4489C124.364 52.4967 124.411 52.5567 124.443 52.6246C124.475 52.6925 124.491 52.7666 124.491 52.8417C124.488 53.0019 124.44 53.158 124.353 53.2922C124.253 53.4447 124.119 53.5714 123.961 53.6619L121.965 54.9212H126.706L126.579 56.0764H121.55L121.215 58.387C121.205 58.5061 121.171 58.622 121.116 58.7278C121.06 58.8336 120.984 58.927 120.891 59.0025C120.798 59.0779 120.692 59.134 120.577 59.1671C120.462 59.2003 120.342 59.21 120.223 59.1956H119.993C119.253 59.0917 118.524 58.9256 117.813 58.6989ZM122.426 47.1462L122.288 48.2437H127.029L126.867 49.399H123.107C123.662 49.9871 124.286 50.5068 124.964 50.9471C125.667 51.3894 126.404 51.7757 127.167 52.1023L126.141 52.9457C125.395 52.604 124.684 52.1899 124.018 51.7095C123.306 51.1888 122.656 50.588 122.08 49.9189L121.861 51.7904H120.546L120.765 49.838C120.102 50.5184 119.349 51.1053 118.528 51.5825C117.786 52.0198 117.015 52.4058 116.221 52.7377L115.137 51.9868C115.999 51.6571 116.839 51.2712 117.651 50.8315C118.354 50.442 119.015 49.9814 119.624 49.4568H116.163L116.336 48.3015H120.95L121.088 47.204L122.426 47.1462Z" fill="#231815"/>
<path d="M129.416 53.2692L128.92 57.405L129.624 57.2433L130.189 52.2525H128.263L128.667 48.8792C128.683 48.571 128.796 48.2759 128.989 48.0358C129.224 47.8501 129.522 47.7631 129.82 47.7932H131.712C132.484 47.7932 132.865 48.1976 132.75 49.0178L132.404 52.2525H131.366L131.193 53.8006H132.415L132.254 54.9559H131.1L130.858 56.9429L132.323 56.5155L132.138 57.7631C130.524 58.2715 128.874 58.6874 127.179 59.0455L127.329 57.7631L127.744 57.6823L128.286 53.2807L129.416 53.2692ZM129.601 51.1319H131.296L131.539 48.9138H129.832L129.601 51.1319ZM137.26 51.9868C138.082 52.5548 138.964 53.0312 139.89 53.4078L139.048 54.3667C138.088 53.9121 137.176 53.3625 136.325 52.7262C135.348 53.3626 134.304 53.8895 133.211 54.2974L132.311 53.35C133.356 52.9626 134.357 52.467 135.299 51.8713L134.861 51.4092L134.411 50.9586L134.065 51.5478H132.554C133.424 50.1841 134.195 48.7595 134.861 47.2849H136.268L136.049 47.7355L135.829 48.1976H138.229C138.484 48.1831 138.735 48.2656 138.932 48.4286C139.019 48.5021 139.088 48.5943 139.134 48.6984C139.18 48.8025 139.202 48.9156 139.197 49.0294C139.192 49.2734 139.125 49.512 139.001 49.7225C138.568 50.5804 137.977 51.3486 137.26 51.9868ZM138.413 59.0801H132.646L133.084 55.4411C133.104 55.1031 133.229 54.7799 133.442 54.5169C133.67 54.3146 133.968 54.2107 134.272 54.228H137.733C138.436 54.228 138.748 54.6208 138.678 55.3833L138.413 59.0801ZM134.157 57.9249H137.271L137.49 55.4526H134.388L134.157 57.9249ZM135.057 49.9998C135.435 50.4506 135.848 50.8716 136.291 51.259C136.859 50.7673 137.352 50.1952 137.756 49.5608V49.4915C137.756 49.4915 137.756 49.4337 137.64 49.4337H135.333L135.057 49.9998Z" fill="#231815"/>
<path d="M151.655 57.0353L151.493 58.4448H140.501L140.651 57.0353H151.655ZM151.516 48.6019L151.355 49.9651H141.873L142.023 48.6019H151.516Z" fill="#231815"/>
<path d="M159.913 52.1832L159.083 59.2072H157.641L158.472 52.1832H153.408L153.558 50.82H158.633L159.048 47.3542H160.49L160.075 50.82H164.942L164.781 52.1832H159.913Z" fill="#231815"/>
<path d="M177.1 57.0353L176.938 58.4448H165.946L166.096 57.0353H177.1ZM176.961 48.6019L176.8 49.9651H167.249L167.399 48.6019H176.961Z" fill="#231815"/>
<path d="M190.318 52.3912L190.18 53.6158H182.578L182.082 54.771H187.434C187.727 54.7407 188.02 54.8234 188.253 55.0021C188.344 55.1039 188.413 55.2228 188.456 55.3518C188.5 55.4808 188.517 55.6172 188.507 55.753C188.515 55.8607 188.515 55.9688 188.507 56.0765C188.426 56.8274 188.323 57.5321 188.207 58.1906C188.166 58.5182 188.011 58.8208 187.769 59.0455C187.506 59.2498 187.178 59.3523 186.846 59.3343H186.558C186.004 59.2711 185.453 59.1785 184.908 59.0571C184.389 58.9531 183.836 58.8029 183.224 58.6296L183.386 57.4166C184.398 57.7121 185.432 57.9284 186.477 58.0635C186.639 58.0635 186.754 58.0635 186.812 57.948C186.88 57.8493 186.92 57.7332 186.927 57.613C186.921 57.5284 186.921 57.4435 186.927 57.3588L187.054 56.3884V55.961H181.367C180.779 55.961 180.479 55.7415 180.479 55.3025C180.489 55.1154 180.532 54.9315 180.606 54.7595L181.102 53.6735H178.795L178.934 52.449L190.318 52.3912ZM188.922 51.5132H180.375L180.733 48.5557C180.735 48.4267 180.764 48.2996 180.819 48.183C180.874 48.0663 180.954 47.9629 181.052 47.8796C181.151 47.7964 181.266 47.7353 181.39 47.7004C181.514 47.6656 181.644 47.6579 181.771 47.6777H188.103C188.876 47.6777 189.257 47.9781 189.257 48.5904C189.265 48.6633 189.265 48.737 189.257 48.8099L188.922 51.5132ZM181.84 50.3579H187.723L187.93 48.8445H182.048L181.84 50.3579Z" fill="#231815"/>
<path d="M191.541 50.9124C191.956 49.6185 192.279 48.4633 192.51 47.4467H194.055C193.709 48.624 193.297 49.7811 192.821 50.9124H191.541ZM194.309 50.9124C194.724 49.6185 195.047 48.4633 195.278 47.4467H196.824C196.477 48.624 196.065 49.7811 195.589 50.9124H194.309Z" fill="#231815"/>
<path d="M203.675 57.9595C204.525 57.781 205.352 57.5098 206.143 57.1508C206.902 56.8093 207.614 56.3747 208.266 55.8569H205.959C205.699 55.8782 205.439 55.8387 205.197 55.7414C205.121 55.6978 205.059 55.6333 205.018 55.5555C204.977 55.4778 204.96 55.39 204.967 55.3024C204.958 55.1832 204.958 55.0635 204.967 54.9443L205.29 53.4078C205.315 53.1906 205.417 52.9897 205.578 52.8417C205.788 52.7097 206.035 52.649 206.282 52.6684H209.327L209.419 51.6749H205.474L205.601 50.5196H213.618C213.785 50.5011 213.954 50.5194 214.113 50.5732C214.273 50.6271 214.419 50.7153 214.54 50.8315C214.632 50.9425 214.698 51.073 214.732 51.2132C214.766 51.3533 214.767 51.4994 214.736 51.6402L214.54 53.789H210.676L210.596 54.7248H213.987C214.702 54.7248 215.048 55.0251 215.048 55.6374C215.036 55.9253 214.997 56.2115 214.933 56.4923L214.863 56.7811C214.803 57.1703 214.723 57.556 214.621 57.9364C214.599 58.038 214.557 58.1343 214.498 58.2195C214.438 58.3048 214.363 58.3774 214.275 58.4332C214.093 58.5494 213.879 58.606 213.664 58.5949C213.241 58.565 212.82 58.5032 212.406 58.4101C212.017 58.3438 211.632 58.2551 211.253 58.1443L211.38 56.9891C211.68 57.0815 211.991 57.1624 212.326 57.2317C212.66 57.301 212.902 57.3588 213.087 57.3934H213.214C213.266 57.4102 213.323 57.4102 213.375 57.3934C213.414 57.3459 213.441 57.2907 213.456 57.2317C213.55 56.8251 213.612 56.4118 213.641 55.9956H210.457L210.134 59.4613H208.773L209.015 56.8736C208.309 57.4461 207.534 57.9274 206.708 58.3061C205.969 58.654 205.196 58.925 204.402 59.1148L203.675 57.9595ZM210.596 48.0358L210.423 49.064H208.773L209.188 50.2192H207.92L207.539 49.064H206.755C206.432 49.5607 206.143 49.9882 205.878 50.3348H204.321C205.078 49.3766 205.753 48.3563 206.339 47.2849H207.816L207.389 48.0358H210.596ZM209.315 53.8121H206.639L206.409 54.7479H209.211L209.315 53.8121ZM213.133 47.2733L212.926 47.6546L212.706 48.0589H216.074L215.971 49.0871H214.194L214.621 50.2423H213.387L212.983 49.0871H212.153C211.947 49.4841 211.719 49.8697 211.472 50.2423H209.927C210.319 49.6416 210.63 49.1448 210.884 48.7289L211.541 47.5737L211.622 47.4235C211.644 47.3862 211.663 47.3476 211.68 47.308L213.133 47.2733ZM213.329 52.6915L213.433 51.698H210.872L210.78 52.6915H213.329Z" fill="#231815"/>
<path d="M228.382 51.9868L228.209 53.3962H216.963L217.147 51.9868H228.382Z" fill="#231815"/>
<path d="M233.561 58.2368H229.431L230.516 49.2257C230.519 48.878 230.636 48.541 230.85 48.2668C230.968 48.1609 231.107 48.0805 231.258 48.0308C231.409 47.9811 231.569 47.9631 231.727 47.978H233.561C233.705 47.9637 233.852 47.9811 233.989 48.0289C234.126 48.0768 234.252 48.154 234.356 48.2553C234.543 48.4859 234.634 48.7796 234.61 49.0755C234.617 49.1794 234.617 49.2836 234.61 49.3874L233.561 58.2368ZM230.781 57.0815H232.522L232.995 53.3731H231.277L230.781 57.0815ZM233.411 49.2604H231.727L231.358 52.3218H233.065L233.411 49.2604ZM240.447 47.4004L240.193 49.7109H241.416L241.254 50.8315H240.101L239.293 58.075C239.212 58.8259 238.843 59.2303 238.197 59.2303H237.898C237.449 59.157 237.006 59.0528 236.571 58.9184C236.175 58.8131 235.79 58.674 235.418 58.5025L235.591 57.2317C236.298 57.4881 237.022 57.6927 237.759 57.844H237.898C237.914 57.8513 237.932 57.8551 237.949 57.8551C237.967 57.8551 237.985 57.8513 238.001 57.844C238.028 57.7888 238.047 57.7306 238.059 57.6707L238.763 50.8315H234.841L235.014 49.5838H238.89L239.132 47.2733L240.447 47.4004ZM236.536 52.0214L237.24 55.4872H235.983L235.302 51.9868L236.536 52.0214Z" fill="#231815"/>
<path d="M242.223 59.1957L243.284 50.0229H244.645L243.561 59.1957H242.223ZM243.48 47.3658L246.076 48.2785L245.891 49.6764L243.376 48.7175L243.48 47.3658ZM250.297 56.7581H245.13L245.741 51.571C245.739 51.2297 245.849 50.8972 246.052 50.6237C246.171 50.5177 246.31 50.4373 246.461 50.3876C246.612 50.338 246.771 50.32 246.929 50.3349H249.847C250.539 50.3349 250.885 50.7046 250.885 51.4208C250.892 51.5208 250.892 51.6212 250.885 51.7212L250.297 56.7581ZM246.525 55.6029H249.144L249.317 54.0895H246.652L246.525 55.6029ZM252.731 47.8048C253.044 47.7831 253.355 47.8731 253.607 48.059C253.71 48.1655 253.789 48.2927 253.839 48.4321C253.889 48.5716 253.908 48.7201 253.896 48.8677C253.911 48.9982 253.911 49.13 253.896 49.2605L252.846 57.9249C252.829 58.3064 252.687 58.6717 252.443 58.9647C252.308 59.0768 252.15 59.1585 251.981 59.2043C251.812 59.2502 251.635 59.2591 251.462 59.2304C250.683 59.1888 249.91 59.0688 249.155 58.8723L249.282 57.5784C249.893 57.7297 250.514 57.8416 251.139 57.9134H251.231C251.263 57.9145 251.295 57.9089 251.325 57.897C251.355 57.8851 251.382 57.8671 251.404 57.8441C251.458 57.7745 251.486 57.6891 251.485 57.6015L252.477 49.0987H246.837L246.975 47.7933L252.731 47.8048ZM249.651 51.5826H246.975L246.837 52.9458H249.513L249.651 51.5826Z" fill="#231815"/>
<path d="M265.384 55.7183H261.543L261.474 56.2844H266.376L266.261 57.2895H261.382L261.266 58.2946C261.259 58.4573 261.217 58.6166 261.143 58.762C261.07 58.9073 260.966 59.0354 260.84 59.1379C260.64 59.2399 260.417 59.2877 260.194 59.2765C259.407 59.2649 258.628 59.1244 257.887 58.8606L258.025 57.7054C258.568 57.8894 259.129 58.0171 259.698 58.0866H259.801C259.94 58.0866 260.032 57.9826 260.055 57.7863L260.113 57.2317H254.911L255.026 56.2266H260.217L260.286 55.6606H256.064L256.168 54.7133H260.309L260.378 54.1125C258.74 54.1125 257.299 54.1818 256.076 54.1818L256.203 53.223C257.864 53.223 259.444 53.223 260.92 53.119C262.074 53.119 263.608 52.9919 265.476 52.8417L265.407 53.8584C264.162 53.9392 262.916 54.0085 261.67 54.0548L261.601 54.7133H265.43L265.384 55.7183ZM265.465 48.6712C265.802 48.6387 266.141 48.7244 266.422 48.9138C266.524 49.0091 266.602 49.1262 266.652 49.2562C266.702 49.3863 266.722 49.5259 266.711 49.6648C266.711 49.7918 266.711 49.8843 266.711 49.9536L266.538 51.2244H265.223L265.407 49.7341H256.987L256.826 51.2244H255.465L255.638 49.9189C255.649 49.5723 255.775 49.2392 255.995 48.9716C256.114 48.8621 256.254 48.7787 256.407 48.727C256.56 48.6752 256.722 48.6562 256.883 48.6712H257.944L257.472 47.516H258.752L259.213 48.6712H260.563L260.736 47.2849H262.051L261.878 48.6712H263.423L263.896 47.516H265.211L264.727 48.6712H265.465ZM264.484 52.6684H257.322L257.495 51.0049C257.498 50.8968 257.525 50.7907 257.572 50.6935C257.619 50.5963 257.687 50.51 257.769 50.4404C257.852 50.3707 257.948 50.3192 258.052 50.289C258.155 50.2589 258.264 50.2509 258.371 50.2655H263.746C263.987 50.251 264.225 50.3249 264.415 50.4734C264.492 50.5431 264.553 50.629 264.593 50.7248C264.632 50.8207 264.651 50.9242 264.646 51.028C264.653 51.0932 264.653 51.1591 264.646 51.2244L264.484 52.6684ZM263.412 51.1435H258.694L258.625 51.8251H263.354L263.412 51.1435Z" fill="#231815"/>
<path d="M267.333 58.7452L267.483 57.4975C267.779 57.6362 268.084 57.7559 268.395 57.8556H268.51C268.51 57.8556 268.591 57.8556 268.602 57.8556C268.609 57.7981 268.609 57.7399 268.602 57.6823L268.971 54.5747L267.495 54.979L267.68 53.6043C268.176 53.5003 268.66 53.3617 269.133 53.223L269.421 50.7623H267.979L268.129 49.6071H269.571L269.906 47.3658H271.163L270.898 49.5839H272.051L271.913 50.7392H270.759L270.505 52.7956L270.805 52.6916L271.082 52.5992L271.682 52.3912L271.532 53.7313C271.267 53.8353 270.875 53.974 270.379 54.1357L269.906 58.0751C269.885 58.3809 269.768 58.6722 269.571 58.9069C269.48 59.003 269.368 59.0769 269.244 59.123C269.12 59.169 268.988 59.186 268.856 59.1726C268.325 59.1352 267.807 58.9897 267.333 58.7452ZM279.306 50.8894H273.539L273.147 53.7891C272.898 55.6622 272.373 57.4881 271.59 59.2073L270.286 58.7567C271.119 57.1602 271.658 55.4267 271.878 53.6389L272.524 48.6713C272.536 48.3955 272.647 48.1332 272.835 47.9319C273.057 47.7751 273.326 47.7015 273.597 47.724H278.499C278.771 47.7002 279.044 47.7694 279.272 47.9204C279.358 48.0031 279.424 48.1042 279.466 48.2162C279.508 48.3282 279.525 48.4482 279.514 48.5673C279.521 48.648 279.521 48.7292 279.514 48.8099L279.306 50.8894ZM279.306 57.9827L279.191 59.034H272.616L272.743 57.9827H275.373L275.5 56.8968H273.366L273.481 55.857H275.558L275.673 54.9444C275.119 54.9444 274.612 55.0137 274.162 55.0137C274.088 55.0169 274.014 55.0053 273.945 54.9795C273.876 54.9537 273.812 54.9143 273.758 54.8635C273.708 54.8139 273.669 54.7543 273.643 54.6887C273.617 54.6231 273.605 54.5528 273.608 54.4823C273.611 54.3746 273.636 54.2687 273.681 54.1712C273.727 54.0737 273.792 53.9869 273.874 53.9162C274.28 53.5254 274.665 53.1128 275.027 52.6801H273.77L273.885 51.6288H279.306L279.179 52.6801H276.446C276.054 53.1553 275.638 53.6103 275.2 54.0433C276.01 54.0169 276.819 53.9475 277.622 53.8353L277.299 53.0613H278.36L279.329 55.187H278.176L277.98 54.748L276.907 54.8404L276.78 55.857H278.926L278.799 56.8968H276.653L276.526 57.9827H279.306ZM278.153 49.8959L278.28 48.8215H273.885L273.735 49.8959H278.153Z" fill="#231815"/>
<path d="M290.506 52.8187L289.445 50.5082H290.725L292.329 53.9162H290.991L290.691 53.2577C290.296 54.2395 289.76 55.158 289.099 55.9841C289.907 57.0222 290.877 57.9233 291.971 58.6528L290.725 59.3228C289.804 58.6465 288.984 57.8412 288.292 56.9314C287.382 57.9079 286.308 58.7173 285.12 59.3228L283.966 58.5834C285.314 57.8985 286.535 56.9882 287.576 55.8917C287.14 55.1485 286.755 54.3766 286.423 53.5811L286.238 53.9162H285.189L285.27 54.1241L284.231 54.748C284.058 54.2281 283.862 53.6967 283.643 53.1653L282.882 59.3459H281.555L282.294 53.3963C281.878 54.3221 281.372 55.2044 280.783 56.0303L279.745 55.4296C280.84 53.9858 281.744 52.4052 282.432 50.7276H280.852L281.025 49.5031H282.778L283.043 47.3312H284.312L284.047 49.5031H285.281L285.131 50.7276H283.897V51.1666C284.22 51.802 284.601 52.5992 285.05 53.4772L286.861 50.4504H288.234L286.884 52.7609H287.484C287.759 53.4794 288.091 54.1748 288.476 54.8404C288.954 54.2036 289.342 53.5039 289.63 52.7609L290.506 52.8187ZM292.305 48.7406L292.144 49.8959H285.569L285.708 48.7406H288.361L287.876 47.3658H289.237L289.722 48.7753L292.305 48.7406Z" fill="#231815"/>
<path d="M303.736 59.0918H292.974L294.22 48.6944C294.269 48.3863 294.409 48.1002 294.624 47.8742C294.726 47.7665 294.85 47.6819 294.987 47.6261C295.124 47.5703 295.272 47.5446 295.42 47.5507H303.863C304.028 47.5478 304.191 47.5803 304.343 47.6461C304.494 47.7118 304.629 47.8093 304.74 47.9319C304.858 48.0634 304.944 48.2204 304.992 48.3906C305.04 48.5609 305.048 48.7399 305.016 48.9139L303.736 59.0918ZM294.428 57.8441H302.502L303.586 48.833H295.512L294.428 57.8441ZM302.583 52.1717L302.456 53.327H300.795L300.541 55.522C300.533 55.5562 300.533 55.5918 300.541 55.626C300.538 55.6534 300.542 55.6812 300.555 55.7059C300.567 55.7306 300.586 55.751 300.61 55.7646C300.678 55.7875 300.751 55.7875 300.818 55.7646H301.164C301.579 55.7344 301.988 55.6409 302.375 55.4873L302.202 56.8505C301.812 56.9826 301.402 57.0452 300.991 57.0354H300.345C300.185 57.0472 300.025 57.0256 299.874 56.9719C299.723 56.9182 299.585 56.8336 299.468 56.7235C299.367 56.5947 299.293 56.4457 299.253 56.2863C299.214 56.1269 299.208 55.9609 299.238 55.7993L299.538 53.3617H298.384C298.119 54.9151 297.299 56.3191 296.077 57.3127L295.016 56.6888C295.563 56.26 296.042 55.7496 296.435 55.1754C296.796 54.6208 297.058 54.0069 297.208 53.3617H295.627L295.766 52.2064L302.583 52.1717ZM296.481 49.8612H302.248L302.121 51.0165H296.354L296.481 49.8612Z" fill="#231815"/>
<path d="M308.188 56.6773V56.7581C308.188 56.8274 308.188 56.8505 308.246 56.8505C308.287 56.8631 308.332 56.8631 308.373 56.8505C308.777 56.6195 309.296 56.2729 309.93 55.8224L310.103 57.2433C309.203 57.821 308.604 58.206 308.304 58.3986C308.076 58.5454 307.813 58.6291 307.542 58.6412C307.436 58.6487 307.33 58.6294 307.233 58.585C307.136 58.5406 307.052 58.4725 306.989 58.387C306.849 58.1796 306.78 57.9323 306.793 57.6823C306.785 57.5978 306.785 57.5127 306.793 57.4282L307.416 52.2757H305.893L306.043 50.9818H308.073C308.184 50.9725 308.296 50.9909 308.399 51.0352C308.501 51.0795 308.592 51.1485 308.661 51.236C308.726 51.3268 308.772 51.4301 308.796 51.5393C308.82 51.6486 308.821 51.7616 308.8 51.8714L308.188 56.6773ZM306.816 47.5853L309.538 48.7406L309.342 50.1038L306.643 48.9485L306.816 47.5853ZM309.884 52.3797H311.43L311.81 49.0872H310.011L310.172 47.8048H315.582C315.919 47.7712 316.257 47.8661 316.528 48.0705C316.636 48.1736 316.719 48.3 316.771 48.4401C316.823 48.5803 316.842 48.7305 316.828 48.8792C316.835 48.9715 316.835 49.0642 316.828 49.1565L315.928 57.4628C315.922 57.505 315.922 57.5478 315.928 57.5899C315.928 57.6823 315.963 57.7285 316.032 57.7285C316.089 57.7414 316.148 57.7414 316.205 57.7285C316.682 57.5572 317.145 57.3486 317.589 57.1047L317.404 58.699C317.136 58.8314 316.859 58.9434 316.574 59.034C316.32 59.1149 315.997 59.1957 315.617 59.2766H315.34C315.216 59.2821 315.093 59.2576 314.98 59.2054C314.868 59.1531 314.77 59.0745 314.694 58.9762C314.614 58.859 314.559 58.7271 314.532 58.5882C314.504 58.4493 314.504 58.3063 314.532 58.1675L315.444 49.1103H313.137L312.768 52.4028H314.405L314.267 53.662H312.629L311.983 59.3459H310.645L311.28 53.662H309.699L309.884 52.3797Z" fill="#231815"/>
<path d="M318.154 58.3408L319.504 55.3717H320.842L319.688 58.3408H318.154ZM328.731 54.6901H319.838L320.553 49.0062C320.559 48.8743 320.591 48.7449 320.649 48.6264C320.707 48.5079 320.79 48.4028 320.891 48.318C320.992 48.2331 321.109 48.1703 321.236 48.1337C321.363 48.097 321.495 48.0873 321.626 48.1051H323.587L324.002 47.2156H325.444L325.063 48.1051H328.293C329.089 48.1051 329.446 48.417 329.446 49.0524C329.454 49.1254 329.454 49.199 329.446 49.2719L328.731 54.6901ZM327.336 58.7798C326.498 59.0489 325.62 59.1701 324.74 59.1379H322.387C321.618 59.1379 321.234 58.8029 321.234 58.1328C321.226 58.0174 321.226 57.9016 321.234 57.7862L321.58 55.1522H322.964L322.676 57.6014C322.669 57.6474 322.669 57.6941 322.676 57.74C322.665 57.7617 322.66 57.7854 322.66 57.8093C322.66 57.8333 322.665 57.857 322.676 57.8787C322.739 57.9016 322.808 57.9016 322.872 57.8787H324.706C325.645 57.8741 326.577 57.73 327.474 57.4512L327.336 58.7798ZM321.292 53.5695H327.578L327.693 52.7839H321.43L321.292 53.5695ZM327.878 50.9933H321.626L321.522 51.7789H327.785L327.878 50.9933ZM328.131 49.2026H321.857L321.741 49.9882H328.016L328.131 49.2026ZM324.613 57.1739L323.875 55.1753H325.133L325.986 57.1739H324.613ZM327.37 55.4526H328.731L330 58.2945H328.547L327.37 55.4526Z" fill="#231815"/>
<path d="M262.639 34.4384H69.7833V35.8016H262.639V34.4384Z" fill="#231815"/>
</g>
<defs>
<clipPath id="clip0_12100_115972">
<rect width="330" height="59.3805" fill="white"/>
</clipPath>
</defs>
</svg>
