<svg width="140" height="140" viewBox="0 0 140 140" fill="none" xmlns="http://www.w3.org/2000/svg">
<path d="M93.7969 125.065C108.978 124.914 115.647 108.297 109.458 95.6491C98.6951 69.018 68.3718 66.7071 54.7195 73.4511C33.0692 84.2242 20.308 113.436 39.0583 123.11C41.7156 124.596 44.7173 125.362 47.7638 125.329L93.7969 125.065Z" fill="white"/>
<path d="M47.6558 126.406C44.4584 126.421 41.3119 125.608 38.5237 124.047C32.1836 120.777 28.8407 115.181 28.8893 107.887C28.9757 94.868 39.8738 79.6564 54.2281 72.4922C61.497 68.9048 74.4364 67.4127 86.9762 72.1744C94.5962 75.067 104.846 81.4124 110.441 95.2181C113.94 102.393 113.616 110.871 109.599 117.368C106.131 122.964 100.526 126.083 93.8077 126.148L47.7746 126.412L47.6558 126.406ZM70.4293 71.3018C64.3485 71.3018 58.9534 72.5569 55.1948 74.4152C41.7153 81.1269 31.1305 95.8322 31.0495 107.893C31.0063 114.33 33.9495 119.264 39.5551 122.156C42.0569 123.563 44.8867 124.286 47.7584 124.252L93.7861 123.988C99.7266 123.929 104.695 121.171 107.757 116.226C111.343 110.441 111.629 102.544 108.481 96.1231V96.0531C106.532 91.0477 103.542 86.5108 99.7075 82.7414C95.8734 78.9719 91.2822 76.0553 86.2364 74.1836C81.1866 72.2733 75.8301 71.2967 70.4293 71.3018Z" fill="#78DAB9"/>
<path d="M112.088 100.917L110.468 99.4951C121.885 86.5674 119.822 78.0027 118.968 75.7942C107.336 76.6507 104.49 83.9495 104.101 85.1453C104.082 85.2219 104.058 85.2974 104.031 85.3715L101.968 84.7413C101.968 84.709 102 84.6228 102.043 84.4935C102.67 82.048 101.142 72.6431 100.002 67.1326L99.8022 66.1631L100.747 65.883C118.401 60.6149 121.269 44.2128 121.501 42.6507C121.355 42.042 119.881 41.6865 118.515 41.6327L117.078 45.2955L112.185 42.7746L110.749 45.7857L106.553 44.0512C102.13 55.7131 90.6647 57.1029 87.2841 57.2591C86.2418 61.0781 80.836 69.6482 79.6587 71.4527L77.8387 70.2892C80.9386 65.4413 85.3075 57.9001 85.3021 56.2033V55.0721L86.4308 55.1206C87.0087 55.1206 100.612 55.5138 104.884 42.2898L105.246 41.1802L109.68 43.0062L111.186 39.8228L115.939 42.2683L117.019 39.4888H117.726C118.315 39.4619 123.461 39.338 123.667 42.6076V42.7046V42.8015C123.667 42.9847 121.242 61.4444 102.313 67.6605C103.188 71.9141 103.831 76.2117 104.241 80.5344C106.569 77.5502 111.1 74.022 119.6 73.6073L120.248 73.575L120.578 74.1136C120.821 74.5284 126.502 84.5689 112.088 100.917Z" fill="#78DAB9"/>
<path d="M29.8992 102.657C14.9185 86.7937 20.2703 76.5754 20.5025 76.1499L20.8157 75.5843H21.4692C29.9748 75.7082 34.6246 79.0855 37.0548 81.9835C37.3144 77.6506 37.8101 73.335 38.5399 69.0558C19.4116 63.4914 16.3766 45.1287 16.3334 44.9401V44.8432V44.7462C16.4252 41.4766 21.5772 41.4281 22.1658 41.4281H22.8679L24.0506 44.1699L28.7111 41.5628L30.3313 44.6924L34.6948 42.7209L35.0944 43.7982C39.8144 56.866 53.4018 56.0311 53.9959 55.9934L55.1246 55.9072L55.157 57.033C55.2056 58.7243 59.5691 65.6515 62.6528 70.0738L60.8814 71.3074C59.7095 69.6375 54.3307 61.8432 53.202 58.1588C49.816 58.121 38.3185 57.1138 33.5067 45.6135L29.3538 47.5095L27.8201 44.5361L23.0137 47.2294L21.453 43.6312C20.1137 43.712 18.6286 44.116 18.4935 44.7085C18.7852 46.4053 22.047 62.5111 40.025 67.219L40.9863 67.4667L40.8189 68.4417C39.863 73.9791 38.6587 83.4379 39.3716 85.8672L39.4526 86.1042L37.4112 86.8099C37.4112 86.7345 37.3572 86.659 37.3356 86.5836C36.9036 85.404 33.8091 78.2021 22.155 77.7443C21.3936 80.0066 19.6168 88.6251 31.4545 101.181L29.8992 102.657Z" fill="#78DAB9"/>
<path d="M21.5609 77.5666C21.5609 77.5666 21.7499 85.3825 28.4626 90.0041C34.0845 93.8771 33.323 95.4553 33.323 95.4553L38.3994 87.2893C38.3994 87.2893 35.2348 77.475 21.5609 77.5666Z" fill="#78DAB9"/>
<path d="M119.481 75.3634C119.481 75.3634 119.557 83.1793 113.001 88.0326C107.514 92.0941 108.351 93.64 108.351 93.64L103.021 85.6463C103.021 85.6463 105.813 75.7189 119.481 75.3634Z" fill="#78DAB9"/>
<path d="M107.552 93.9631C107.071 93.0797 107.077 90.9951 112.509 86.9606C114.294 85.6139 115.735 83.8661 116.714 81.8593C117.694 79.8525 118.185 77.6435 118.147 75.4118L120.308 75.2771C120.308 75.6111 120.745 83.5455 113.8 88.6842C109.588 91.8031 109.545 93.1497 109.545 93.1605C109.532 93.0748 109.503 92.9925 109.458 92.9181L107.552 93.9631Z" fill="#78DAB9"/>
<path opacity="0.36" d="M62.4097 109.266C62.2693 116.371 46.1005 116.641 45.717 109.547C45.8575 102.447 62.0263 102.172 62.4097 109.266Z" fill="#F2A0A8"/>
<path d="M56.3775 44.2237C48.3741 44.353 51.3875 31.1451 50.9771 27.3691C52.1463 28.2904 53.0024 29.5487 53.4289 30.9727C54.0283 33.2189 52.5648 19.8872 57.7492 18.4005C58.7267 18.115 55.9185 19.9465 57.4738 29.0551C58.5261 27.8933 59.2248 26.4564 59.4881 24.9129C61.3297 26.5288 62.4098 30.5472 62.1127 34.571C62.1019 34.571 57.9976 40.0491 56.3775 44.2237Z" fill="white"/>
<path d="M56.2587 45.0317C55.5036 45.0619 54.7505 44.9337 54.0481 44.6553C53.3458 44.3769 52.7098 43.9546 52.1814 43.4157C49.5298 40.6632 49.8592 35.0288 50.0968 30.9189C50.1989 29.7727 50.2242 28.621 50.1724 27.4715L49.9726 25.6508L51.4577 26.7282C51.9945 27.1465 52.4755 27.6316 52.8888 28.1718C53.0833 24.4012 53.8123 18.7022 57.5116 17.6356C57.6842 17.5654 57.8741 17.5489 58.0563 17.5883C58.2384 17.6277 58.4044 17.7212 58.5323 17.8565C58.669 18.0371 58.7474 18.2549 58.7571 18.481C58.7667 18.7071 58.7071 18.9308 58.5863 19.1223C58.2785 19.898 57.4252 22.0849 57.976 26.9328C58.3313 26.2793 58.5672 25.568 58.6727 24.8321L58.8617 23.3131L60.012 24.3204C62.0372 26.0925 63.2522 30.3372 62.912 34.6464V34.8834L62.7716 35.0719C62.7338 35.1258 58.7159 40.507 57.1552 44.5307L56.9608 45.0371H56.4207L56.2587 45.0317ZM51.798 29.4107C51.798 29.9116 51.7494 30.4503 51.717 31.0266C51.4901 34.8403 51.1769 40.0653 53.3371 42.3384C53.9989 43.0009 54.8895 43.3863 55.8267 43.4157C57.409 39.6828 60.5736 35.282 61.2973 34.2963C61.4755 31.3714 60.8977 28.468 59.85 26.6904C59.4313 27.7696 58.8202 28.7641 58.0462 29.6261L56.9338 30.7842L56.6637 29.2006C55.8861 24.6489 56.1669 21.8533 56.5557 20.1889C54.6764 22.5266 54.4982 28.0102 54.4388 30.0193C54.401 31.3768 54.3848 31.9423 53.6287 32.0285C53.2939 32.0662 52.851 31.9477 52.6458 31.1775C52.4682 30.5439 52.1813 29.946 51.798 29.4107Z" fill="#78DAB9"/>
<path d="M83.9195 47.8381C84.1788 51.2154 89.671 32.6318 86.6522 24.6381C82.6504 32.4433 83.5901 27.7031 83.5901 27.7031C84.2814 20.4689 82.3156 19.2462 80.8899 15.3625C79.2158 10.8593 80.4417 6.74398 77.9359 2.97339C78.1519 6.04911 76.3644 18.0558 75.5597 15.5887C74.755 13.1217 73.2429 12.3891 73.2429 12.3891C72.6219 17.6356 71.288 19.7148 71.288 19.7148C65.8173 26.8628 69.2142 32.4756 69.2142 32.4756C69.2142 32.4756 82.672 31.5599 83.9195 47.8381Z" fill="white"/>
<path d="M84.0817 49.0554C83.9769 49.0532 83.8731 49.0351 83.7738 49.0015C83.572 48.9034 83.4024 48.75 83.2847 48.5592C83.1671 48.3684 83.1064 48.1482 83.1096 47.9242C81.9431 32.6426 69.7976 33.2728 69.2575 33.3051L68.7661 33.3374L68.5123 32.9173C68.3611 32.6695 64.9048 26.7658 70.6022 19.2785C70.7318 19.063 71.8767 17 72.4276 12.3191L72.5626 11.1879L73.5887 11.6834C74.5268 12.2347 75.2789 13.0523 75.7488 14.032C76.4185 11.3064 77.2609 5.30576 77.1043 3.04879L76.8937 0L78.5894 2.54246C80.1232 4.8479 80.3608 7.29879 80.5984 9.69581C80.7044 11.5286 81.0512 13.3396 81.6299 15.0824C81.9701 15.9981 82.3481 16.7684 82.71 17.5171C83.79 19.7525 84.8323 21.8748 84.4651 26.9597C84.8269 26.3564 85.3076 25.4946 85.934 24.2665L86.7657 22.6505L87.4137 24.3634C90.1139 31.4575 86.2904 47.2294 84.7783 48.7538C84.595 48.9419 84.3446 49.0502 84.0817 49.0554ZM69.7112 31.6891C72.2061 31.7268 82.4075 32.6964 84.4597 45.5003C85.718 41.4065 87.5055 32.5241 86.4147 26.8197C84.7945 29.7446 84.1519 30.1432 83.3958 29.8846C82.7316 29.653 82.5318 28.9043 82.7856 27.59C83.277 22.3865 82.3805 20.5497 81.2518 18.2227C80.8281 17.3753 80.4478 16.5069 80.1124 15.621C79.4736 13.749 79.0921 11.7993 78.9783 9.82509C78.8944 8.76737 78.7502 7.71529 78.5462 6.67395C78.422 7.96134 78.2438 9.3403 78.0548 10.563C77.1367 16.4883 76.4833 16.6283 75.954 16.7307C75.7542 16.7684 75.0738 16.8222 74.7605 15.858C74.5566 15.1997 74.2426 14.5805 73.8317 14.0266C73.1458 18.3143 72.0225 20.0865 71.9577 20.1727L71.9199 20.2265C67.6374 25.8555 69.1009 30.3533 69.7112 31.6891Z" fill="#78DAB9"/>
<path d="M66.8003 39.0581C67.0919 35.1797 65.7634 36.2193 65.4016 39.2412C64.8701 44.0597 64.9445 48.9256 65.623 53.7257C65.623 54.5175 66.6707 57.7817 67.0379 55.7133C66.8651 50.2459 66.2603 44.5631 66.8003 39.0581Z" fill="#78DAB9"/>
<path d="M66.6977 56.6611H66.6599C65.893 56.6073 65.3637 54.1672 65.3529 53.7362C64.6707 48.9166 64.5963 44.0306 65.1315 39.1925C65.3097 37.7166 65.7796 36.2568 66.433 36.2568H66.4762C66.6706 36.2568 67.2755 36.3376 67.0703 39.0632C66.676 43.0547 66.8921 47.1916 67.1027 51.1938C67.1783 52.6697 67.2593 54.1995 67.3079 55.6808V55.7346C67.2593 56.0201 67.1405 56.6611 66.6977 56.6611ZM66.4114 36.8386C66.217 37.0163 65.8714 37.8297 65.6662 39.2733C65.1375 44.0687 65.2137 48.9113 65.893 53.6877C65.9897 54.5246 66.2522 55.3339 66.6652 56.0686C66.7115 55.9469 66.7441 55.8204 66.7625 55.6915C66.7193 54.221 66.6382 52.7074 66.5626 51.2422C66.352 47.2239 66.136 43.0924 66.5572 39.0363C66.649 37.458 66.4816 36.9732 66.4114 36.8386Z" fill="white"/>
<path d="M66.8003 39.0581C67.0919 35.1797 65.7634 36.2193 65.4016 39.2412C64.8701 44.0597 64.9445 48.9256 65.623 53.7257C65.623 54.5175 66.6707 57.7817 67.0379 55.7133C66.8651 50.2459 66.2603 44.5631 66.8003 39.0581Z" fill="#78DAB9"/>
<path d="M66.6977 56.6611H66.6599C65.893 56.6073 65.3637 54.1672 65.3529 53.7362C64.6707 48.9166 64.5963 44.0306 65.1315 39.1925C65.3097 37.7166 65.7796 36.2568 66.433 36.2568H66.4762C66.6706 36.2568 67.2755 36.3376 67.0703 39.0632C66.676 43.0547 66.8921 47.1916 67.1027 51.1938C67.1783 52.6697 67.2593 54.1995 67.3079 55.6808V55.7346C67.2593 56.0201 67.1405 56.6611 66.6977 56.6611ZM66.4114 36.8386C66.217 37.0163 65.8714 37.8297 65.6662 39.2733C65.1375 44.0687 65.2137 48.9113 65.893 53.6877C65.9897 54.5246 66.2522 55.3339 66.6652 56.0686C66.7115 55.9469 66.7441 55.8204 66.7625 55.6915C66.7193 54.221 66.6382 52.7074 66.5626 51.2422C66.352 47.2239 66.136 43.0924 66.5572 39.0363C66.649 37.458 66.4816 36.9732 66.4114 36.8386Z" fill="white"/>
<path d="M66.8003 39.0581C67.0919 35.1797 65.7634 36.2193 65.4016 39.2412C64.8701 44.0597 64.9445 48.9256 65.623 53.7257C65.623 54.5175 66.6707 57.7817 67.0379 55.7133C66.8651 50.2459 66.2603 44.5631 66.8003 39.0581Z" fill="#78DAB9"/>
<path d="M66.6977 56.6611H66.6599C65.893 56.6073 65.3637 54.1672 65.3529 53.7362C64.6707 48.9166 64.5963 44.0306 65.1315 39.1925C65.3097 37.7166 65.7796 36.2568 66.433 36.2568H66.4762C66.6706 36.2568 67.2755 36.3376 67.0703 39.0632C66.676 43.0547 66.8921 47.1916 67.1027 51.1938C67.1783 52.6697 67.2593 54.1995 67.3079 55.6808V55.7346C67.2593 56.0201 67.1405 56.6611 66.6977 56.6611ZM66.4114 36.8386C66.217 37.0163 65.8714 37.8297 65.6662 39.2733C65.1375 44.0687 65.2137 48.9113 65.893 53.6877C65.9897 54.5246 66.2522 55.3339 66.6652 56.0686C66.7115 55.9469 66.7441 55.8204 66.7625 55.6915C66.7193 54.221 66.6382 52.7074 66.5626 51.2422C66.352 47.2239 66.136 43.0924 66.5572 39.0363C66.649 37.458 66.4816 36.9732 66.4114 36.8386Z" fill="white"/>
<path d="M66.8003 39.0581C67.0919 35.1797 65.7634 36.2193 65.4016 39.2412C64.8701 44.0597 64.9445 48.9256 65.623 53.7257C65.623 54.5175 66.6707 57.7817 67.0379 55.7133C66.8651 50.2459 66.2603 44.5631 66.8003 39.0581Z" fill="#78DAB9"/>
<path d="M66.6977 56.6611H66.6599C65.893 56.6073 65.3637 54.1672 65.3529 53.7362C64.6707 48.9166 64.5963 44.0306 65.1315 39.1925C65.3097 37.7166 65.7796 36.2568 66.433 36.2568H66.4762C66.6706 36.2568 67.2755 36.3376 67.0703 39.0632C66.676 43.0547 66.8921 47.1916 67.1027 51.1938C67.1783 52.6697 67.2593 54.1995 67.3079 55.6808V55.7346C67.2593 56.0201 67.1405 56.6611 66.6977 56.6611ZM66.4114 36.8386C66.217 37.0163 65.8714 37.8297 65.6662 39.2733C65.1375 44.0687 65.2137 48.9113 65.893 53.6877C65.9897 54.5246 66.2522 55.3339 66.6652 56.0686C66.7115 55.9469 66.7441 55.8204 66.7625 55.6915C66.7193 54.221 66.6382 52.7074 66.5626 51.2422C66.352 47.2239 66.136 43.0924 66.5572 39.0363C66.649 37.458 66.4816 36.9732 66.4114 36.8386Z" fill="white"/>
<path d="M66.8003 39.0581C67.0919 35.1797 65.7634 36.2193 65.4016 39.2412C64.8701 44.0597 64.9445 48.9256 65.623 53.7257C65.623 54.5175 66.6707 57.7817 67.0379 55.7133C66.8651 50.2459 66.2603 44.5631 66.8003 39.0581Z" fill="#78DAB9"/>
<path d="M66.6977 56.6611H66.6599C65.893 56.6073 65.3637 54.1672 65.3529 53.7362C64.6707 48.9166 64.5963 44.0306 65.1315 39.1925C65.3097 37.7166 65.7796 36.2568 66.433 36.2568H66.4762C66.6706 36.2568 67.2755 36.3376 67.0703 39.0632C66.676 43.0547 66.8921 47.1916 67.1027 51.1938C67.1783 52.6697 67.2593 54.1995 67.3079 55.6808V55.7346C67.2593 56.0201 67.1405 56.6611 66.6977 56.6611ZM66.4114 36.8386C66.217 37.0163 65.8714 37.8297 65.6662 39.2733C65.1375 44.0687 65.2137 48.9113 65.893 53.6877C65.9897 54.5246 66.2522 55.3339 66.6652 56.0686C66.7115 55.9469 66.7441 55.8204 66.7625 55.6915C66.7193 54.221 66.6382 52.7074 66.5626 51.2422C66.352 47.2239 66.136 43.0924 66.5572 39.0363C66.649 37.458 66.4816 36.9732 66.4114 36.8386Z" fill="white"/>
<path d="M66.8003 39.0581C67.0919 35.1797 65.7634 36.2193 65.4016 39.2412C64.8701 44.0597 64.9445 48.9256 65.623 53.7257C65.623 54.5175 66.6707 57.7817 67.0379 55.7133C66.8651 50.2459 66.2603 44.5631 66.8003 39.0581Z" fill="#78DAB9"/>
<path d="M66.6977 56.6611H66.6599C65.893 56.6073 65.3637 54.1672 65.3529 53.7362C64.6707 48.9166 64.5963 44.0306 65.1315 39.1925C65.3097 37.7166 65.7796 36.2568 66.433 36.2568H66.4762C66.6706 36.2568 67.2755 36.3376 67.0703 39.0632C66.676 43.0547 66.8921 47.1916 67.1027 51.1938C67.1783 52.6697 67.2593 54.1995 67.3079 55.6808V55.7346C67.2593 56.0201 67.1405 56.6611 66.6977 56.6611ZM66.4114 36.8386C66.217 37.0163 65.8714 37.8297 65.6662 39.2733C65.1375 44.0687 65.2137 48.9113 65.893 53.6877C65.9897 54.5246 66.2522 55.3339 66.6652 56.0686C66.7115 55.9469 66.7441 55.8204 66.7625 55.6915C66.7193 54.221 66.6382 52.7074 66.5626 51.2422C66.352 47.2239 66.136 43.0924 66.5572 39.0363C66.649 37.458 66.4816 36.9732 66.4114 36.8386Z" fill="white"/>
<path d="M66.8003 39.0581C67.0919 35.1797 65.7634 36.2193 65.4016 39.2412C64.8701 44.0597 64.9445 48.9256 65.623 53.7257C65.623 54.5175 66.6707 57.7817 67.0379 55.7133C66.8651 50.2459 66.2603 44.5631 66.8003 39.0581Z" fill="#78DAB9"/>
<path d="M66.6977 56.6611H66.6599C65.893 56.6073 65.3637 54.1672 65.3529 53.7362C64.6707 48.9166 64.5963 44.0306 65.1315 39.1925C65.3097 37.7166 65.7796 36.2568 66.433 36.2568H66.4762C66.6706 36.2568 67.2755 36.3376 67.0703 39.0632C66.676 43.0547 66.8921 47.1916 67.1027 51.1938C67.1783 52.6697 67.2593 54.1995 67.3079 55.6808V55.7346C67.2593 56.0201 67.1405 56.6611 66.6977 56.6611ZM66.4114 36.8386C66.217 37.0163 65.8714 37.8297 65.6662 39.2733C65.1375 44.0687 65.2137 48.9113 65.893 53.6877C65.9897 54.5246 66.2522 55.3339 66.6652 56.0686C66.7115 55.9469 66.7441 55.8204 66.7625 55.6915C66.7193 54.221 66.6382 52.7074 66.5626 51.2422C66.352 47.2239 66.136 43.0924 66.5572 39.0363C66.649 37.458 66.4816 36.9732 66.4114 36.8386Z" fill="white"/>
<path d="M66.8003 39.0581C67.0919 35.1797 65.7634 36.2193 65.4016 39.2412C64.8701 44.0597 64.9445 48.9256 65.623 53.7257C65.623 54.5175 66.6707 57.7817 67.0379 55.7133C66.8651 50.2459 66.2603 44.5631 66.8003 39.0581Z" fill="#78DAB9"/>
<path d="M66.6977 56.6611H66.6599C65.893 56.6073 65.3637 54.1672 65.3529 53.7362C64.6707 48.9166 64.5963 44.0306 65.1315 39.1925C65.3097 37.7166 65.7796 36.2568 66.433 36.2568H66.4762C66.6706 36.2568 67.2755 36.3376 67.0703 39.0632C66.676 43.0547 66.8921 47.1916 67.1027 51.1938C67.1783 52.6697 67.2593 54.1995 67.3079 55.6808V55.7346C67.2593 56.0201 67.1405 56.6611 66.6977 56.6611ZM66.4114 36.8386C66.217 37.0163 65.8714 37.8297 65.6662 39.2733C65.1375 44.0687 65.2137 48.9113 65.893 53.6877C65.9897 54.5246 66.2522 55.3339 66.6652 56.0686C66.7115 55.9469 66.7441 55.8204 66.7625 55.6915C66.7193 54.221 66.6382 52.7074 66.5626 51.2422C66.352 47.2239 66.136 43.0924 66.5572 39.0363C66.649 37.458 66.4816 36.9732 66.4114 36.8386Z" fill="white"/>
<path d="M66.8003 39.0581C67.0919 35.1797 65.7634 36.2193 65.4016 39.2412C64.8701 44.0597 64.9445 48.9256 65.623 53.7257C65.623 54.5175 66.6707 57.7817 67.0379 55.7133C66.8651 50.2459 66.2603 44.5631 66.8003 39.0581Z" fill="#78DAB9"/>
<path d="M66.6977 56.6611H66.6599C65.893 56.6073 65.3637 54.1672 65.3529 53.7362C64.6707 48.9166 64.5963 44.0306 65.1315 39.1925C65.3097 37.7166 65.7796 36.2568 66.433 36.2568H66.4762C66.6706 36.2568 67.2755 36.3376 67.0703 39.0632C66.676 43.0547 66.8921 47.1916 67.1027 51.1938C67.1783 52.6697 67.2593 54.1995 67.3079 55.6808V55.7346C67.2593 56.0201 67.1405 56.6611 66.6977 56.6611ZM66.4114 36.8386C66.217 37.0163 65.8714 37.8297 65.6662 39.2733C65.1375 44.0687 65.2137 48.9113 65.893 53.6877C65.9897 54.5246 66.2522 55.3339 66.6652 56.0686C66.7115 55.9469 66.7441 55.8204 66.7625 55.6915C66.7193 54.221 66.6382 52.7074 66.5626 51.2422C66.352 47.2239 66.136 43.0924 66.5572 39.0363C66.649 37.458 66.4816 36.9732 66.4114 36.8386Z" fill="white"/>
<path d="M66.8003 39.0581C67.0919 35.1797 65.7634 36.2193 65.4016 39.2412C64.8701 44.0597 64.9445 48.9256 65.623 53.7257C65.623 54.5175 66.6707 57.7817 67.0379 55.7133C66.8651 50.2459 66.2603 44.5631 66.8003 39.0581Z" fill="#78DAB9"/>
<path d="M66.6977 56.6611H66.6599C65.893 56.6073 65.3637 54.1672 65.3529 53.7362C64.6707 48.9166 64.5963 44.0306 65.1315 39.1925C65.3097 37.7166 65.7796 36.2568 66.433 36.2568H66.4762C66.6706 36.2568 67.2755 36.3376 67.0703 39.0632C66.676 43.0547 66.8921 47.1916 67.1027 51.1938C67.1783 52.6697 67.2593 54.1995 67.3079 55.6808V55.7346C67.2593 56.0201 67.1405 56.6611 66.6977 56.6611ZM66.4114 36.8386C66.217 37.0163 65.8714 37.8297 65.6662 39.2733C65.1375 44.0687 65.2137 48.9113 65.893 53.6877C65.9897 54.5246 66.2522 55.3339 66.6652 56.0686C66.7115 55.9469 66.7441 55.8204 66.7625 55.6915C66.7193 54.221 66.6382 52.7074 66.5626 51.2422C66.352 47.2239 66.136 43.0924 66.5572 39.0363C66.649 37.458 66.4816 36.9732 66.4114 36.8386Z" fill="white"/>
<path d="M66.8003 39.0581C67.0919 35.1797 65.7634 36.2193 65.4016 39.2412C64.8701 44.0597 64.9445 48.9256 65.623 53.7257C65.623 54.5175 66.6707 57.7817 67.0379 55.7133C66.8651 50.2459 66.2603 44.5631 66.8003 39.0581Z" fill="#78DAB9"/>
<path d="M66.6977 56.6611H66.6599C65.893 56.6073 65.3637 54.1672 65.3529 53.7362C64.6707 48.9166 64.5963 44.0306 65.1315 39.1925C65.3097 37.7166 65.7796 36.2568 66.433 36.2568H66.4762C66.6706 36.2568 67.2755 36.3376 67.0703 39.0632C66.676 43.0547 66.8921 47.1916 67.1027 51.1938C67.1783 52.6697 67.2593 54.1995 67.3079 55.6808V55.7346C67.2593 56.0201 67.1405 56.6611 66.6977 56.6611ZM66.4114 36.8386C66.217 37.0163 65.8714 37.8297 65.6662 39.2733C65.1375 44.0687 65.2137 48.9113 65.893 53.6877C65.9897 54.5246 66.2522 55.3339 66.6652 56.0686C66.7115 55.9469 66.7441 55.8204 66.7625 55.6915C66.7193 54.221 66.6382 52.7074 66.5626 51.2422C66.352 47.2239 66.136 43.0924 66.5572 39.0363C66.649 37.458 66.4816 36.9732 66.4114 36.8386Z" fill="white"/>
<path d="M66.8003 39.0581C67.0919 35.1797 65.7634 36.2193 65.4016 39.2412C64.8701 44.0597 64.9445 48.9256 65.623 53.7257C65.623 54.5175 66.6707 57.7817 67.0379 55.7133C66.8651 50.2459 66.2603 44.5631 66.8003 39.0581Z" fill="#78DAB9"/>
<path d="M66.6977 56.6611H66.6599C65.893 56.6073 65.3637 54.1672 65.3529 53.7362C64.6707 48.9166 64.5963 44.0306 65.1315 39.1925C65.3097 37.7166 65.7796 36.2568 66.433 36.2568H66.4762C66.6706 36.2568 67.2755 36.3376 67.0703 39.0632C66.676 43.0547 66.8921 47.1916 67.1027 51.1938C67.1783 52.6697 67.2593 54.1995 67.3079 55.6808V55.7346C67.2593 56.0201 67.1405 56.6611 66.6977 56.6611ZM66.4114 36.8386C66.217 37.0163 65.8714 37.8297 65.6662 39.2733C65.1375 44.0687 65.2137 48.9113 65.893 53.6877C65.9897 54.5246 66.2522 55.3339 66.6652 56.0686C66.7115 55.9469 66.7441 55.8204 66.7625 55.6915C66.7193 54.221 66.6382 52.7074 66.5626 51.2422C66.352 47.2239 66.136 43.0924 66.5572 39.0363C66.649 37.458 66.4816 36.9732 66.4114 36.8386Z" fill="white"/>
<path d="M66.8003 39.0581C67.0919 35.1797 65.7634 36.2193 65.4016 39.2412C64.8701 44.0597 64.9445 48.9256 65.623 53.7257C65.623 54.5175 66.6707 57.7817 67.0379 55.7133C66.8651 50.2459 66.2603 44.5631 66.8003 39.0581Z" fill="#78DAB9"/>
<path d="M66.6977 56.6611H66.6599C65.893 56.6073 65.3637 54.1672 65.3529 53.7362C64.6707 48.9166 64.5963 44.0306 65.1315 39.1925C65.3097 37.7166 65.7796 36.2568 66.433 36.2568H66.4762C66.6706 36.2568 67.2755 36.3376 67.0703 39.0632C66.676 43.0547 66.8921 47.1916 67.1027 51.1938C67.1783 52.6697 67.2593 54.1995 67.3079 55.6808V55.7346C67.2593 56.0201 67.1405 56.6611 66.6977 56.6611ZM66.4114 36.8386C66.217 37.0163 65.8714 37.8297 65.6662 39.2733C65.1375 44.0687 65.2137 48.9113 65.893 53.6877C65.9897 54.5246 66.2522 55.3339 66.6652 56.0686C66.7115 55.9469 66.7441 55.8204 66.7625 55.6915C66.7193 54.221 66.6382 52.7074 66.5626 51.2422C66.352 47.2239 66.136 43.0924 66.5572 39.0363C66.649 37.458 66.4816 36.9732 66.4114 36.8386Z" fill="white"/>
<path d="M66.8003 39.0581C67.0919 35.1797 65.7634 36.2193 65.4016 39.2412C64.8701 44.0597 64.9445 48.9256 65.623 53.7257C65.623 54.5175 66.6707 57.7817 67.0379 55.7133C66.8651 50.2459 66.2603 44.5631 66.8003 39.0581Z" fill="#78DAB9"/>
<path d="M66.6977 56.6611H66.6599C65.893 56.6073 65.3637 54.1672 65.3529 53.7362C64.6707 48.9166 64.5963 44.0306 65.1315 39.1925C65.3097 37.7166 65.7796 36.2568 66.433 36.2568H66.4762C66.6706 36.2568 67.2755 36.3376 67.0703 39.0632C66.676 43.0547 66.8921 47.1916 67.1027 51.1938C67.1783 52.6697 67.2593 54.1995 67.3079 55.6808V55.7346C67.2593 56.0201 67.1405 56.6611 66.6977 56.6611ZM66.4114 36.8386C66.217 37.0163 65.8714 37.8297 65.6662 39.2733C65.1375 44.0687 65.2137 48.9113 65.893 53.6877C65.9897 54.5246 66.2522 55.3339 66.6652 56.0686C66.7115 55.9469 66.7441 55.8204 66.7625 55.6915C66.7193 54.221 66.6382 52.7074 66.5626 51.2422C66.352 47.2239 66.136 43.0924 66.5572 39.0363C66.649 37.458 66.4816 36.9732 66.4114 36.8386Z" fill="white"/>
<path d="M66.8003 39.0581C67.0919 35.1797 65.7634 36.2193 65.4016 39.2412C64.8701 44.0597 64.9445 48.9256 65.623 53.7257C65.623 54.5175 66.6707 57.7817 67.0379 55.7133C66.8651 50.2459 66.2603 44.5631 66.8003 39.0581Z" fill="#78DAB9"/>
<path d="M66.6977 56.6611H66.6599C65.893 56.6073 65.3637 54.1672 65.3529 53.7362C64.6707 48.9166 64.5963 44.0306 65.1315 39.1925C65.3097 37.7166 65.7796 36.2568 66.433 36.2568H66.4762C66.6706 36.2568 67.2755 36.3376 67.0703 39.0632C66.676 43.0547 66.8921 47.1916 67.1027 51.1938C67.1783 52.6697 67.2593 54.1995 67.3079 55.6808V55.7346C67.2593 56.0201 67.1405 56.6611 66.6977 56.6611ZM66.4114 36.8386C66.217 37.0163 65.8714 37.8297 65.6662 39.2733C65.1375 44.0687 65.2137 48.9113 65.893 53.6877C65.9897 54.5246 66.2522 55.3339 66.6652 56.0686C66.7115 55.9469 66.7441 55.8204 66.7625 55.6915C66.7193 54.221 66.6382 52.7074 66.5626 51.2422C66.352 47.2239 66.136 43.0924 66.5572 39.0363C66.649 37.458 66.4816 36.9732 66.4114 36.8386Z" fill="white"/>
<path d="M66.8003 39.0581C67.0919 35.1797 65.7634 36.2193 65.4016 39.2412C64.8701 44.0597 64.9445 48.9256 65.623 53.7257C65.623 54.5175 66.6707 57.7817 67.0379 55.7133C66.8651 50.2459 66.2603 44.5631 66.8003 39.0581Z" fill="#78DAB9"/>
<path d="M66.6977 56.6611H66.6599C65.893 56.6073 65.3637 54.1672 65.3529 53.7362C64.6707 48.9166 64.5963 44.0306 65.1315 39.1925C65.3097 37.7166 65.7796 36.2568 66.433 36.2568H66.4762C66.6706 36.2568 67.2755 36.3376 67.0703 39.0632C66.676 43.0547 66.8921 47.1916 67.1027 51.1938C67.1783 52.6697 67.2593 54.1995 67.3079 55.6808V55.7346C67.2593 56.0201 67.1405 56.6611 66.6977 56.6611ZM66.4114 36.8386C66.217 37.0163 65.8714 37.8297 65.6662 39.2733C65.1375 44.0687 65.2137 48.9113 65.893 53.6877C65.9897 54.5246 66.2522 55.3339 66.6652 56.0686C66.7115 55.9469 66.7441 55.8204 66.7625 55.6915C66.7193 54.221 66.6382 52.7074 66.5626 51.2422C66.352 47.2239 66.136 43.0924 66.5572 39.0363C66.649 37.458 66.4816 36.9732 66.4114 36.8386Z" fill="white"/>
<path d="M66.8003 39.0581C67.0919 35.1797 65.7634 36.2193 65.4016 39.2412C64.8701 44.0597 64.9445 48.9256 65.623 53.7257C65.623 54.5175 66.6707 57.7817 67.0379 55.7133C66.8651 50.2459 66.2603 44.5631 66.8003 39.0581Z" fill="#78DAB9"/>
<path d="M66.6977 56.6611H66.6599C65.893 56.6073 65.3637 54.1672 65.3529 53.7362C64.6707 48.9166 64.5963 44.0306 65.1315 39.1925C65.3097 37.7166 65.7796 36.2568 66.433 36.2568H66.4762C66.6706 36.2568 67.2755 36.3376 67.0703 39.0632C66.676 43.0547 66.8921 47.1916 67.1027 51.1938C67.1783 52.6697 67.2593 54.1995 67.3079 55.6808V55.7346C67.2593 56.0201 67.1405 56.6611 66.6977 56.6611ZM66.4114 36.8386C66.217 37.0163 65.8714 37.8297 65.6662 39.2733C65.1375 44.0687 65.2137 48.9113 65.893 53.6877C65.9897 54.5246 66.2522 55.3339 66.6652 56.0686C66.7115 55.9469 66.7441 55.8204 66.7625 55.6915C66.7193 54.221 66.6382 52.7074 66.5626 51.2422C66.352 47.2239 66.136 43.0924 66.5572 39.0363C66.649 37.458 66.4816 36.9732 66.4114 36.8386Z" fill="white"/>
<path d="M66.8003 39.0581C67.0919 35.1797 65.7634 36.2193 65.4016 39.2412C64.8701 44.0597 64.9445 48.9256 65.623 53.7257C65.623 54.5175 66.6707 57.7817 67.0379 55.7133C66.8651 50.2459 66.2603 44.5631 66.8003 39.0581Z" fill="#78DAB9"/>
<path d="M66.6977 56.6611H66.6599C65.893 56.6073 65.3637 54.1672 65.3529 53.7362C64.6707 48.9166 64.5963 44.0306 65.1315 39.1925C65.3097 37.7166 65.7796 36.2568 66.433 36.2568H66.4762C66.6706 36.2568 67.2755 36.3376 67.0703 39.0632C66.676 43.0547 66.8921 47.1916 67.1027 51.1938C67.1783 52.6697 67.2593 54.1995 67.3079 55.6808V55.7346C67.2593 56.0201 67.1405 56.6611 66.6977 56.6611ZM66.4114 36.8386C66.217 37.0163 65.8714 37.8297 65.6662 39.2733C65.1375 44.0687 65.2137 48.9113 65.893 53.6877C65.9897 54.5246 66.2522 55.3339 66.6652 56.0686C66.7115 55.9469 66.7441 55.8204 66.7625 55.6915C66.7193 54.221 66.6382 52.7074 66.5626 51.2422C66.352 47.2239 66.136 43.0924 66.5572 39.0363C66.649 37.458 66.4816 36.9732 66.4114 36.8386Z" fill="white"/>
<path d="M66.8003 39.0581C67.0919 35.1797 65.7634 36.2193 65.4016 39.2412C64.8701 44.0597 64.9445 48.9256 65.623 53.7257C65.623 54.5175 66.6707 57.7817 67.0379 55.7133C66.8651 50.2459 66.2603 44.5631 66.8003 39.0581Z" fill="#78DAB9"/>
<path d="M66.6977 56.6611H66.6599C65.893 56.6073 65.3637 54.1672 65.3529 53.7362C64.6707 48.9166 64.5963 44.0306 65.1315 39.1925C65.3097 37.7166 65.7796 36.2568 66.433 36.2568H66.4762C66.6706 36.2568 67.2755 36.3376 67.0703 39.0632C66.676 43.0547 66.8921 47.1916 67.1027 51.1938C67.1783 52.6697 67.2593 54.1995 67.3079 55.6808V55.7346C67.2593 56.0201 67.1405 56.6611 66.6977 56.6611ZM66.4114 36.8386C66.217 37.0163 65.8714 37.8297 65.6662 39.2733C65.1375 44.0687 65.2137 48.9113 65.893 53.6877C65.9897 54.5246 66.2522 55.3339 66.6652 56.0686C66.7115 55.9469 66.7441 55.8204 66.7625 55.6915C66.7193 54.221 66.6382 52.7074 66.5626 51.2422C66.352 47.2239 66.136 43.0924 66.5572 39.0363C66.649 37.458 66.4816 36.9732 66.4114 36.8386Z" fill="white"/>
<path d="M66.8003 39.0581C67.0919 35.1797 65.7634 36.2193 65.4016 39.2412C64.8701 44.0597 64.9445 48.9256 65.623 53.7257C65.623 54.5175 66.6707 57.7817 67.0379 55.7133C66.8651 50.2459 66.2603 44.5631 66.8003 39.0581Z" fill="#78DAB9"/>
<path d="M66.6977 56.6611H66.6599C65.893 56.6073 65.3637 54.1672 65.3529 53.7362C64.6707 48.9166 64.5963 44.0306 65.1315 39.1925C65.3097 37.7166 65.7796 36.2568 66.433 36.2568H66.4762C66.6706 36.2568 67.2755 36.3376 67.0703 39.0632C66.676 43.0547 66.8921 47.1916 67.1027 51.1938C67.1783 52.6697 67.2593 54.1995 67.3079 55.6808V55.7346C67.2593 56.0201 67.1405 56.6611 66.6977 56.6611ZM66.4114 36.8386C66.217 37.0163 65.8714 37.8297 65.6662 39.2733C65.1375 44.0687 65.2137 48.9113 65.893 53.6877C65.9897 54.5246 66.2522 55.3339 66.6652 56.0686C66.7115 55.9469 66.7441 55.8204 66.7625 55.6915C66.7193 54.221 66.6382 52.7074 66.5626 51.2422C66.352 47.2239 66.136 43.0924 66.5572 39.0363C66.649 37.458 66.4816 36.9732 66.4114 36.8386Z" fill="white"/>
<path d="M82.1644 38.18C77.9305 31.1344 67.3619 29.3029 61.0002 34.6518C49.2111 44.019 57.76 63.4268 72.7245 60.6096C82.6721 58.9721 87.8619 46.4699 82.1644 38.18Z" fill="#78DAB9"/>
<path d="M77.1475 35.7722C85.3939 42.236 81.943 46.9385 78.5786 54.7221C79.2745 54.3918 79.9427 54.0063 80.5767 53.5694C79.5615 55.1136 78.2033 56.4038 76.6074 57.34C77.8927 54.345 78.503 52.449 80.0907 48.3336C81.5758 44.1052 81.3436 41.6974 79.475 38.7563C79.3517 38.5153 79.1811 38.3015 78.9732 38.1275C78.7654 37.9536 78.5247 37.823 78.2654 37.7437C77.9305 37.5982 78.0925 38.2123 78.5462 39.7744L77.8981 39.6397C77.1367 36.4078 76.6182 35.4113 77.1475 35.7722Z" fill="white"/>
<path d="M64.2729 57.7171C61.7293 53.9465 59.2991 49.9174 58.111 45.4842C58.3378 48.2529 58.6024 50.8277 59.7311 53.1655C56.6421 47.7789 57.1551 42.8933 61.173 37.3182C58.9642 40.4424 60.6168 44.7624 61.47 47.9405C61.1218 43.6277 61.8859 39.2978 63.6896 35.3629C63.884 35.2497 63.9812 35.1905 64.1865 35.0828C61.5726 43.0064 61.7023 49.9928 64.4997 57.8141L64.2729 57.7171Z" fill="white"/>
<path d="M68.4421 53.9465C68.4421 55.4062 68.7013 58.6974 67.7076 58.9236C66.4601 58.6813 66.2333 58.7136 65.4395 57.0868C63.1497 51.7703 63.2793 45.1879 64.0408 39.4836C64.3756 37.6198 65.1208 35.0666 66.2819 34.2047C66.7194 34.0701 66.957 34.0054 67.3998 33.9085C67.6968 33.8438 67.8913 34.2424 68.0425 35.2066C68.215 36.4412 68.2711 37.6891 68.2099 38.9341C68.1181 43.949 68.1397 48.937 68.4421 53.9465Z" fill="white"/>
<path d="M71.2179 59.1067C70.7534 59.1444 70.505 59.1552 70.0352 59.1552C69.9758 57.2699 69.9434 56.2087 69.8948 53.9679C70.4834 53.9679 70.7804 53.9679 71.3637 53.9248C71.3313 56.1656 71.2989 57.2214 71.2179 59.1067Z" fill="white"/>
<path d="M72.3789 58.956C72.611 55.4956 73.2955 52.0803 74.4149 48.7969C75.6786 44.7031 75.8784 42.0799 75.3221 39.1711C75.1439 38.25 74.8361 36.8926 74.1934 36.4778C72.9676 36.1223 73.1566 36.6125 73.2592 38.9287C72.9784 38.9287 72.8379 38.9287 72.5517 38.8856C72.3573 35.1689 72.4599 33.7953 73.0918 33.9462C73.5292 34.0593 73.7452 34.1239 74.1718 34.2693C75.3329 35.1043 76.2078 37.5551 76.6344 39.365C78.3086 44.0082 74.3987 51.9911 73.8964 56.2573C74.724 56.108 75.5384 55.8937 76.332 55.6163C76.1363 56.38 75.8964 57.1318 75.6138 57.8679C74.602 58.4036 73.5093 58.7712 72.3789 58.956Z" fill="white"/>
<path d="M66.6977 56.6611H66.6599C65.893 56.6073 65.3637 54.1672 65.3529 53.7362C64.6707 48.9166 64.5963 44.0306 65.1315 39.1925C65.3097 37.7166 65.7796 36.2568 66.433 36.2568H66.4762C66.6706 36.2568 67.2755 36.3376 67.0703 39.0632C66.676 43.0547 66.8921 47.1916 67.1027 51.1938C67.1783 52.6697 67.2593 54.1995 67.3079 55.6808V55.7346C67.2593 56.0201 67.1405 56.6611 66.6977 56.6611ZM66.4114 36.8386C66.217 37.0163 65.8714 37.8297 65.6662 39.2733C65.1375 44.0687 65.2137 48.9113 65.893 53.6877C65.9897 54.5246 66.2522 55.3339 66.6652 56.0686C66.7115 55.9469 66.7441 55.8204 66.7625 55.6915C66.7193 54.221 66.6382 52.7074 66.5626 51.2422C66.352 47.2239 66.136 43.0924 66.5572 39.0363C66.649 37.458 66.4816 36.9732 66.4114 36.8386Z" fill="white"/>
<path d="M66.6977 56.6611H66.6599C65.893 56.6073 65.3637 54.1672 65.3529 53.7362C64.6707 48.9166 64.5963 44.0306 65.1315 39.1925C65.3097 37.7166 65.7796 36.2568 66.433 36.2568H66.4762C66.6706 36.2568 67.2755 36.3376 67.0703 39.0632C66.676 43.0547 66.8921 47.1916 67.1027 51.1938C67.1783 52.6697 67.2593 54.1995 67.3079 55.6808V55.7346C67.2593 56.0201 67.1405 56.6611 66.6977 56.6611ZM66.4114 36.8386C66.217 37.0163 65.8714 37.8297 65.6662 39.2733C65.1375 44.0687 65.2137 48.9113 65.893 53.6877C65.9897 54.5246 66.2522 55.3339 66.6652 56.0686C66.7115 55.9469 66.7441 55.8204 66.7625 55.6915C66.7193 54.221 66.6382 52.7074 66.5626 51.2422C66.352 47.2239 66.136 43.0924 66.5572 39.0363C66.649 37.458 66.4816 36.9732 66.4114 36.8386Z" fill="white"/>
<path d="M66.6977 56.6611H66.6599C65.893 56.6073 65.3637 54.1672 65.3529 53.7362C64.6707 48.9166 64.5963 44.0306 65.1315 39.1925C65.3097 37.7166 65.7796 36.2568 66.433 36.2568H66.4762C66.6706 36.2568 67.2755 36.3376 67.0703 39.0632C66.676 43.0547 66.8921 47.1916 67.1027 51.1938C67.1783 52.6697 67.2593 54.1995 67.3079 55.6808V55.7346C67.2593 56.0201 67.1405 56.6611 66.6977 56.6611ZM66.4114 36.8386C66.217 37.0163 65.8714 37.8297 65.6662 39.2733C65.1375 44.0687 65.2137 48.9113 65.893 53.6877C65.9897 54.5246 66.2522 55.3339 66.6652 56.0686C66.7115 55.9469 66.7441 55.8204 66.7625 55.6915C66.7193 54.221 66.6382 52.7074 66.5626 51.2422C66.352 47.2239 66.136 43.0924 66.5572 39.0363C66.649 37.458 66.4816 36.9732 66.4114 36.8386Z" fill="white"/>
<path d="M66.6102 39.0214C66.9019 35.1431 65.5734 36.1827 65.2115 39.2046C64.68 44.0231 64.7544 48.8889 65.433 53.689C65.433 54.4809 66.4806 57.7451 66.8479 55.6767C66.675 50.2093 66.0702 44.5265 66.6102 39.0214Z" fill="#78DAB9"/>
<path d="M38.9773 87.0521C46.4569 78.4336 66.1738 68.7702 70.4347 99.6729C70.4467 99.7795 70.4976 99.8781 70.5778 99.9496C70.658 100.021 70.7619 100.061 70.8695 100.061C70.9771 100.061 71.0809 100.021 71.1611 99.9496C71.2413 99.8781 71.2923 99.7795 71.3042 99.6729C71.9792 95.2074 73.7506 88.1133 75.0197 85.0376C77.1258 79.9257 84.9997 72.7347 103.021 85.7432C88.6341 65.5867 52.3757 64.4286 38.9773 87.0521Z" fill="#78DAB9"/>
<path d="M55.5242 89.0345C55.5242 89.0345 55.886 91.6685 60.2063 88.4097C62.4583 86.3143 60.5142 85.9642 58.9265 85.9695C57.3387 85.9749 55.2164 87.2623 55.5242 89.0345Z" fill="#78DAB9"/>
<path d="M17.4135 44.7731C17.4135 44.7731 20.4917 63.0874 39.7604 68.28C39.7604 68.28 37.4652 81.4448 37.8756 87.6716C37.8756 87.6716 50.221 72.1476 62.1289 71.0433C62.1289 71.0433 54.6979 60.8089 54.0607 57.1083C54.0607 57.1083 41.0565 59.6238 34.0791 44.1805L29.7588 45.915L28.2683 43.0494L23.4673 45.5434L22.236 42.6885C22.236 42.6885 18.4341 41.7781 17.4135 44.7731Z" fill="#78DAB9"/>
<path d="M122.565 42.9902C122.565 42.9902 120.113 61.3907 101.034 67.2297C101.034 67.2297 103.782 80.3083 103.583 86.519C103.583 86.519 90.7134 71.4366 78.7731 70.731C78.7731 70.731 85.8476 60.2326 86.3337 56.5266C86.3337 56.5266 99.4189 58.6004 105.862 42.9525L110.301 44.5523L111.683 41.6328L116.544 43.9598L117.678 41.0672C117.678 41.0672 121.447 40.0276 122.565 42.9902Z" fill="#78DAB9"/>
<path d="M56.2965 72.5784C56.2965 72.5784 51.2741 59.8931 50.2588 61.3097C47.6126 64.9888 51.8196 74.5553 51.8196 74.5553L56.2965 72.5784Z" fill="white"/>
<path d="M85.3885 72.0829C85.3885 72.0829 89.9735 59.236 91.0374 60.6149C93.8078 64.2024 89.9303 73.9036 89.9303 73.9036L85.3885 72.0829Z" fill="white"/>
<path opacity="0.36" d="M79.6047 108.976C79.9882 116.07 96.157 115.79 96.2974 108.69C95.914 101.596 79.7451 101.871 79.6047 108.976Z" fill="#F2A0A8"/>
<path d="M85.3291 87.187C85.3291 87.187 86.6144 89.5139 81.1978 89.4762C78.1357 89.1423 79.4858 87.7041 80.7603 86.783C82.0348 85.8619 84.4866 85.571 85.3291 87.187Z" fill="#78DAB9"/>
<path d="M21.7338 79.4409C21.7338 79.4409 19.471 87.6285 30.1638 99.8452C30.8547 97.6624 31.7329 95.5431 32.7884 93.5106C29.397 88.8782 23.894 88.6519 21.7338 79.4409Z" fill="white"/>
<path d="M119.546 77.8143C119.546 77.8143 122.122 85.8942 111.678 98.4933C110.898 96.3327 109.931 94.2439 108.789 92.2503C112.067 87.5209 117.672 87.09 119.546 77.8143Z" fill="white"/>
<path d="M62.4098 100.535C62.4098 108.345 56.1129 108.448 55.8537 100.642C55.8429 92.8319 62.1505 92.7241 62.4098 100.535Z" fill="#78DAB9"/>
<path d="M86.8359 99.7914C86.8359 107.602 80.539 107.704 80.2798 99.8991C80.2744 92.1102 86.5767 91.9809 86.8359 99.7914Z" fill="#78DAB9"/>
<path d="M95.2875 129.337C94.8511 128.169 94.8337 126.887 95.2384 125.709C95.6431 124.53 96.4448 123.528 97.5071 122.873C101.876 120.179 108.794 116.899 110.528 121.72C110.528 121.72 111.635 124.225 105.937 124.413C105.937 124.413 115.96 122.059 113.968 128.685C111.975 135.31 105.467 136.091 105.467 136.091L102.875 136.63C101.602 136.888 100.279 136.682 99.145 136.049C98.0114 135.417 97.1428 134.4 96.6971 133.183L95.2875 129.337Z" fill="white"/>
<path d="M101.763 137.826C100.436 137.825 99.1412 137.418 98.0538 136.66C96.9663 135.902 96.1383 134.829 95.6817 133.587L94.2722 129.724C93.7631 128.326 93.7502 126.796 94.2357 125.389C94.7212 123.982 95.6757 122.784 96.94 121.995C102.168 118.763 106.121 117.61 108.756 118.52C109.406 118.753 109.993 119.131 110.474 119.625C110.955 120.119 111.317 120.716 111.532 121.37C111.752 121.94 111.752 122.572 111.532 123.142C112.585 123.294 113.564 123.773 114.329 124.51C115.355 125.588 115.582 127.123 115.004 129.04C112.909 136.043 106.364 137.12 105.651 137.196L103.096 137.734C102.656 137.81 102.209 137.84 101.763 137.826ZM96.3027 128.965L97.7122 132.822C98.0642 133.8 98.7586 134.618 99.6676 135.126C100.577 135.634 101.639 135.797 102.659 135.585L105.359 135.046C107.123 134.763 108.77 133.989 110.113 132.815C111.456 131.64 112.44 130.112 112.952 128.405C113.292 127.279 113.233 126.46 112.774 125.975C112.077 125.237 110.5 125.049 108.94 125.119C107.972 125.366 106.979 125.496 105.98 125.507L105.699 123.385C106.638 123.174 107.591 123.037 108.551 122.975C108.906 122.893 109.228 122.705 109.474 122.436C109.505 122.394 109.526 122.346 109.537 122.295C109.547 122.244 109.546 122.191 109.534 122.14C109.435 121.772 109.249 121.433 108.992 121.152C108.734 120.871 108.413 120.656 108.054 120.524C106.169 119.867 102.54 121.063 98.0849 123.799C97.2394 124.323 96.6013 125.123 96.2786 126.062C95.9558 127.001 95.9682 128.023 96.3135 128.954L96.3027 128.965Z" fill="#78DAB9"/>
<path d="M44.6315 128.577C44.9625 127.381 44.8691 126.107 44.3673 124.972C43.8654 123.836 42.9859 122.908 41.8773 122.345C37.2978 120.029 30.1314 117.335 28.8083 122.286C28.8083 122.286 27.9172 124.877 33.6093 124.58C33.6093 124.58 23.4241 123.077 25.9677 129.514C28.5113 135.951 35.062 136.183 35.062 136.183L37.6866 136.49C38.976 136.64 40.2767 136.325 41.3528 135.6C42.4288 134.876 43.2089 133.791 43.5514 132.542L44.6315 128.577Z" fill="white"/>
<path d="M38.3401 137.605C38.0802 137.605 37.8205 137.589 37.5625 137.557L34.9703 137.255C34.2736 137.217 27.6419 136.689 24.9633 129.908C24.2234 128.049 24.3261 126.509 25.2549 125.34C25.9515 124.532 26.8877 123.966 27.9281 123.724C27.6566 123.175 27.6007 122.545 27.7715 121.957C27.9294 121.287 28.2393 120.661 28.6774 120.129C29.1156 119.597 29.6703 119.172 30.2989 118.887C32.8209 117.761 36.882 118.591 42.3634 121.359C43.6919 122.038 44.7459 123.153 45.3486 124.515C45.9514 125.877 46.0662 127.404 45.6739 128.841L44.5938 132.8C44.2275 134.176 43.4159 135.393 42.2851 136.262C41.1543 137.131 39.7675 137.603 38.3401 137.605ZM30.6931 125.507C29.1324 125.566 27.5771 125.884 26.9453 126.676C26.5294 127.214 26.5402 128.022 26.9723 129.116C29.2296 134.826 35.0405 135.095 35.0999 135.1H35.1863L37.8109 135.407C38.843 135.523 39.8829 135.269 40.7439 134.689C41.6049 134.11 42.2308 133.244 42.5093 132.245L43.5893 128.281C43.8546 127.324 43.7802 126.304 43.3787 125.395C42.9772 124.486 42.2733 123.744 41.386 123.293C36.7254 120.939 33.0045 120.061 31.1846 120.864C30.8381 121.017 30.5341 121.252 30.2989 121.549C30.0637 121.845 29.9043 122.194 29.8345 122.566V122.647C29.8382 122.735 29.8726 122.818 29.9317 122.884C30.2007 123.14 30.5452 123.305 30.9146 123.352C31.8769 123.336 32.839 123.392 33.793 123.519L33.6904 125.674C32.6882 125.737 31.682 125.681 30.6931 125.507Z" fill="#78DAB9"/>
<path d="M83.9359 109.945C81.7708 109.917 79.6744 109.183 77.9655 107.857C76.2567 106.531 75.0289 104.684 74.4689 102.598C72.9946 97.3137 75.9703 91.8571 81.1007 90.4351C82.332 90.091 83.6208 90.001 84.8882 90.1705C86.1557 90.34 87.3752 90.7654 88.4722 91.4208C90.7392 92.7477 92.3948 94.9076 93.0842 97.4376C94.5531 102.722 91.5775 108.178 86.4471 109.606C85.6293 109.832 84.7845 109.946 83.9359 109.945ZM83.628 91.1677C82.8725 91.1668 82.1204 91.2683 81.3923 91.4693C76.8343 92.7351 74.1935 97.5992 75.5058 102.312C76.8181 107.026 81.5975 109.854 86.1554 108.566C90.7134 107.279 93.3542 102.436 92.0419 97.7231C91.4255 95.4617 89.9492 93.5293 87.9268 92.3365C86.6237 91.5724 85.1397 91.1688 83.628 91.1677Z" fill="#78DAB9"/>
<path d="M61.227 114.965C61.0524 114.965 60.8825 114.908 60.7428 114.804C60.6031 114.699 60.501 114.552 60.4518 114.385C60.4027 114.218 60.409 114.039 60.4698 113.876C60.5307 113.713 60.6429 113.573 60.7896 113.479C61.2594 113.177 72.4005 106.142 80.0475 112.159C80.1362 112.223 80.2111 112.304 80.2675 112.397C80.324 112.491 80.3609 112.595 80.3759 112.703C80.391 112.811 80.384 112.921 80.3552 113.026C80.3265 113.132 80.2767 113.23 80.2088 113.316C80.1409 113.401 80.0563 113.472 79.9601 113.524C79.864 113.576 79.7582 113.609 79.6493 113.619C79.5403 113.629 79.4304 113.617 79.3263 113.584C79.2221 113.55 79.1257 113.496 79.043 113.425C72.3087 108.13 61.7617 114.771 61.6645 114.836C61.5341 114.92 61.3823 114.965 61.227 114.965Z" fill="#78DAB9"/>
<path d="M96.7997 115.299C96.7046 115.298 96.6114 115.272 96.5297 115.224C96.4973 115.224 93.6134 113.468 94.6449 109.622C95.4712 106.562 92.528 104.591 92.4038 104.505C92.2867 104.425 92.2058 104.303 92.1784 104.164C92.151 104.025 92.1793 103.881 92.2573 103.763C92.3352 103.645 92.4565 103.563 92.595 103.533C92.7336 103.503 92.8782 103.529 92.9978 103.605C93.0356 103.605 96.7187 106.083 95.698 109.902C94.8825 112.935 96.9941 114.244 97.0805 114.297C97.2037 114.37 97.2928 114.489 97.3282 114.627C97.3637 114.766 97.3425 114.913 97.2695 115.035C97.2213 115.117 97.1525 115.184 97.07 115.23C96.9875 115.276 96.8943 115.3 96.7997 115.299Z" fill="#78DAB9"/>
</svg>
