<svg width="213" height="455" viewBox="0 0 213 455" fill="none" xmlns="http://www.w3.org/2000/svg">
<path d="M202.406 327.353L243.037 359.369V307.023L222.722 290.713L202.406 327.353Z" fill="#53AA87"/>
<path d="M208.001 297.326L243.037 324.933V279.801L225.519 265.736L208.001 297.326Z" fill="#6CD3A7"/>
<path d="M136.442 181.2L136.379 221.227V222.079L136.345 242.976V243.832L136.312 264.725V265.584L136.279 286.477L136.275 287.33L136.245 308.23L136.242 309.086L136.212 329.983L136.208 330.835L136.175 351.732V352.584L136.142 373.485V374.337L136.071 419.495L115.163 407.39L114.422 406.96L103.537 400.658L102.796 400.228L91.9101 393.929L91.169 393.5L80.2871 387.197L79.5461 386.771L58.6344 374.663L58.6307 373.121V372.266L58.5974 351.335V350.476L58.5677 329.542L58.564 328.686L58.5344 307.752L58.5307 306.896L58.501 285.962L58.4973 285.106L58.4677 264.173L58.464 263.317L58.4344 242.383L58.4307 241.527L58.401 220.593V219.737L58.3677 198.803V197.947L58.3343 177.014V176.158L58.2639 130.496L79.5461 144.297L80.2871 144.779L91.169 151.837L91.9101 152.319L102.796 159.377L103.537 159.859L114.422 166.917L115.163 167.399L136.442 181.2Z" fill="#759ED8"/>
<g opacity="0.3">
<path d="M80.2879 144.78V387.198L79.5469 386.772V144.298L80.2879 144.78Z" fill="#B3B3B3"/>
<path d="M91.9109 152.319V393.93L91.1699 393.5V151.838L91.9109 152.319Z" fill="#B3B3B3"/>
<path d="M103.538 159.859V400.658L102.797 400.229V159.378L103.538 159.859Z" fill="#B3B3B3"/>
<path d="M115.163 167.399V407.39L114.422 406.961V166.917L115.163 167.399Z" fill="#B3B3B3"/>
</g>
<g opacity="0.3">
<path d="M136.379 221.227V222.079L115.164 209.83L114.423 209.4L103.537 203.117L102.796 202.687L91.9107 196.403L91.1697 195.973L80.2878 189.689L79.5467 189.263L58.335 177.014V176.158L79.5467 188.407L80.2878 188.837L91.1697 195.121L91.9107 195.547L102.796 201.835L103.537 202.261L114.423 208.548L115.164 208.974L136.379 221.227Z" fill="#B3B3B3"/>
</g>
<g opacity="0.3">
<path d="M136.346 242.976V243.832L115.163 231.601L114.422 231.171L103.537 224.888L102.796 224.458L91.9101 218.174L91.1691 217.744L80.2871 211.46L79.5461 211.034L58.3677 198.804V197.948L79.5461 210.175L80.2871 210.604L91.1691 216.888L91.9101 217.314L102.796 223.602L103.537 224.032L114.422 230.316L115.163 230.745L136.346 242.976Z" fill="#B3B3B3"/>
</g>
<g opacity="0.3">
<path d="M136.311 264.725V265.584L115.162 253.372L114.421 252.943L103.536 246.659L102.795 246.229L91.9092 239.945L91.1682 239.515L80.2862 233.231L79.5452 232.805L58.4001 220.593V219.737L79.5452 231.949L80.2862 232.375L91.1682 238.659L91.9092 239.085L102.795 245.373L103.536 245.799L114.421 252.087L115.162 252.513L136.311 264.725Z" fill="#B3B3B3"/>
</g>
<g opacity="0.3">
<path d="M136.279 286.477L136.275 287.329L115.163 275.14L114.422 274.714L103.537 268.426L102.796 268L91.9101 261.712L91.1691 261.286L80.2871 255.002L79.5461 254.573L58.4344 242.383L58.4307 241.527L79.5461 253.717L80.2871 254.146L91.1691 260.43L91.9101 260.856L102.796 267.144L103.537 267.57L114.422 273.858L115.163 274.284L136.279 286.477Z" fill="#B3B3B3"/>
</g>
<g opacity="0.3">
<path d="M136.245 308.23L136.241 309.086L115.162 296.911L114.421 296.485L103.536 290.197L102.795 289.771L91.9092 283.483L91.1682 283.057L80.2862 276.773L79.5452 276.347L58.4668 264.172L58.4631 263.316L79.5452 275.488L80.2862 275.917L91.1682 282.201L91.9092 282.627L102.795 288.915L103.536 289.341L114.421 295.629L115.162 296.055L136.245 308.23Z" fill="#B3B3B3"/>
</g>
<g opacity="0.3">
<path d="M136.213 329.983L136.209 330.835L115.164 318.683L114.423 318.257L103.537 311.969L102.796 311.543L91.9105 305.255L91.1695 304.826L80.2876 298.545L79.5466 298.116L58.5015 285.963L58.4978 285.107L79.5466 297.26L80.2876 297.69L91.1695 303.973L91.9105 304.4L102.796 310.687L103.537 311.113L114.423 317.401L115.164 317.827L136.213 329.983Z" fill="#B3B3B3"/>
</g>
<g opacity="0.3">
<path d="M136.175 351.732V352.584L115.163 340.454L114.422 340.024L103.536 333.74L102.795 333.31L91.9097 327.026L91.1686 326.597L80.2867 320.313L79.5457 319.887L58.534 307.752L58.5303 306.897L79.5457 319.031L80.2867 319.461L91.1686 325.744L91.9097 326.171L102.795 332.458L103.536 332.884L114.422 339.172L115.163 339.598L136.175 351.732Z" fill="#B3B3B3"/>
</g>
<g opacity="0.3">
<path d="M138.758 374.993L138.388 375.634L136.143 374.337L115.164 362.225L114.423 361.795L103.538 355.511L102.797 355.081L91.911 348.797L91.1699 348.368L80.288 342.084L79.547 341.658L58.5686 329.542L58.5649 328.686L79.547 340.802L80.288 341.232L91.1699 347.512L91.911 347.942L102.797 354.225L103.538 354.655L114.423 360.939L115.164 361.369L136.143 373.485L138.758 374.993Z" fill="#B3B3B3"/>
</g>
<g opacity="0.3">
<path d="M135.123 394.667L134.752 395.308L115.163 383.996L114.422 383.57L103.537 377.282L102.796 376.856L91.9101 370.568L91.1691 370.142L80.2871 363.859L79.5461 363.429L58.5974 351.335V350.476L79.5461 362.573L80.2871 363.003L91.1691 369.287L91.9101 369.713L102.796 376L103.537 376.426L114.422 382.714L115.163 383.14L135.123 394.667Z" fill="#B3B3B3"/>
</g>
<g opacity="0.3">
<path d="M131.491 414.337L131.121 414.981L115.163 405.767L114.422 405.337L103.536 399.053L102.795 398.623L91.9095 392.339L91.1684 391.91L80.2865 385.626L79.5455 385.2L58.6301 373.121V372.265L79.5455 384.34L80.2865 384.77L91.1684 391.054L91.9095 391.48L102.795 397.767L103.536 398.194L114.422 404.481L115.163 404.907L131.491 414.337Z" fill="#B3B3B3"/>
</g>
<path d="M125.294 312.284L73.6223 283.58V265.499L125.294 294.203V312.284Z" fill="white"/>
<path d="M125.294 295.87L73.6223 267.17V266.055L125.294 294.758V295.87Z" fill="#DCDCE5"/>
<path d="M125.294 297.819L73.6223 269.115V268.004L125.294 296.707V297.819Z" fill="#DCDCE5"/>
<path d="M125.294 299.768L73.6223 271.064V269.949L125.294 298.652V299.768Z" fill="#DCDCE5"/>
<path d="M125.294 301.713L73.6223 273.009V271.898L125.294 300.601V301.713Z" fill="#DCDCE5"/>
<path d="M125.294 303.662L73.6223 274.959V273.847L125.294 302.547V303.662Z" fill="#DCDCE5"/>
<path d="M125.294 305.607L73.6223 276.904V275.792L125.294 304.496V305.607Z" fill="#DCDCE5"/>
<path d="M125.294 307.555L73.6223 278.852V277.74L125.294 306.44V307.555Z" fill="#DCDCE5"/>
<path d="M125.294 309.501L73.6223 280.801V279.686L125.294 308.39V309.501Z" fill="#DCDCE5"/>
<path d="M125.294 311.45L73.6223 282.747V281.635L125.294 310.339V311.45Z" fill="#DCDCE5"/>
<path d="M108.528 302.69L107.617 302.187V284.102L108.528 284.61V302.69Z" fill="white"/>
<path d="M91.1212 293.302L90.2097 292.795V274.714L91.1212 275.221V293.302Z" fill="white"/>
<path d="M74.4361 284.032L73.5247 283.529V265.448L74.4361 265.951V284.032Z" fill="white"/>
<path d="M125.211 312.238L124.3 311.731V293.65L125.211 294.158V312.238Z" fill="white"/>
<path d="M69.3784 164.746L73.454 166.469L73.8246 384.307L69.7489 387.319L69.3784 164.746Z" fill="#C7C7D3"/>
<path d="M69.6287 382.444L73.456 380.298L130.144 412.826L125.142 414.893L69.6287 382.444Z" fill="#EDEEEF"/>
<path d="M213.879 130.496V376.515L191.708 388.916L190.967 389.328L180.085 395.415L179.344 395.83L168.458 401.918L167.717 402.333L156.831 408.42L156.09 408.831L135.701 420.236L135.716 415.845V414.989L135.783 394.315V393.455L135.849 372.784V371.925L135.916 351.246V350.391L135.983 329.712V328.856L136.049 308.182V307.326L136.116 286.648V285.788L136.183 265.117V264.258L136.25 243.58V242.724L136.316 222.049V221.19L136.442 181.093L156.09 168.255L156.831 167.769L167.717 160.659L168.458 160.174L179.344 153.06L180.085 152.578L190.967 145.468L191.708 144.983L213.879 130.496Z" fill="#3F7DDE"/>
<g opacity="0.3">
<path d="M156.83 167.77V408.421L156.089 408.832V168.255L156.83 167.77Z" fill="#B3B3B3"/>
<path d="M168.457 160.174V401.918L167.716 402.333V160.66L168.457 160.174Z" fill="#B3B3B3"/>
<path d="M180.082 152.579V395.416L179.341 395.831V153.061L180.082 152.579Z" fill="#B3B3B3"/>
<path d="M191.708 144.984V388.917L190.967 389.328V145.469L191.708 144.984Z" fill="#B3B3B3"/>
</g>
<g opacity="0.3">
<path d="M213.879 176.321V177.177L191.707 190.004L190.966 190.434L180.084 196.729L179.343 197.155L168.458 203.454L167.717 203.883L156.831 210.178L156.09 210.608L136.316 222.05V221.19L156.09 209.752L156.831 209.322L167.717 203.028L168.458 202.598L179.343 196.303L180.084 195.873L190.966 189.578L191.707 189.148L213.879 176.321Z" fill="#B3B3B3"/>
</g>
<g opacity="0.3">
<path d="M213.878 197.815V198.67L191.707 211.498L190.966 211.927L180.084 218.222L179.343 218.648L168.457 224.947L167.716 225.377L156.83 231.672L156.089 232.102L136.249 243.58V242.724L156.089 231.246L156.83 230.82L167.716 224.521L168.457 224.091L179.343 217.796L180.084 217.366L190.966 211.071L191.707 210.642L213.878 197.815Z" fill="#B3B3B3"/>
</g>
<g opacity="0.3">
<path d="M213.88 219.311V220.167L191.708 232.99L190.967 233.42L180.085 239.715L179.344 240.145L168.459 246.444L167.718 246.87L156.832 253.168L156.091 253.598L136.183 265.117V264.258L156.091 252.742L156.832 252.313L167.718 246.018L168.459 245.588L179.344 239.289L180.085 238.859L190.967 232.564L191.708 232.138L213.88 219.311Z" fill="#B3B3B3"/>
</g>
<g opacity="0.3">
<path d="M213.879 240.805V241.661L191.708 254.488L190.967 254.917L180.085 261.212L179.344 261.638L168.458 267.937L167.717 268.367L156.831 274.662L156.09 275.092L136.116 286.648V285.788L156.09 274.236L156.831 273.806L167.717 267.511L168.458 267.081L179.344 260.783L180.085 260.357L190.967 254.062L191.708 253.632L213.879 240.805Z" fill="#B3B3B3"/>
</g>
<g opacity="0.3">
<path d="M213.879 262.298V263.154L191.707 275.981L190.966 276.411L180.084 282.706L179.343 283.136L168.458 289.431L167.717 289.86L156.831 296.159L156.09 296.589L136.049 308.182V307.326L156.09 295.733L156.831 295.303L167.717 289.005L168.458 288.579L179.343 282.28L180.084 281.85L190.966 275.555L191.707 275.125L213.879 262.298Z" fill="#B3B3B3"/>
</g>
<g opacity="0.3">
<path d="M213.878 283.792V284.648L191.707 297.475L190.966 297.904L180.084 304.199L179.343 304.629L168.457 310.924L167.716 311.354L156.831 317.653L156.09 318.083L135.982 329.713V328.857L156.09 317.227L156.831 316.797L167.716 310.498L168.457 310.072L179.343 303.773L180.084 303.344L190.966 297.049L191.707 296.619L213.878 283.792Z" fill="#B3B3B3"/>
</g>
<g opacity="0.3">
<path d="M213.88 305.288V306.144L191.708 318.971L190.967 319.401L180.085 325.696L179.344 326.122L168.459 332.421L167.718 332.851L156.832 339.146L156.091 339.575L135.917 351.246V350.391L156.091 338.72L156.832 338.293L167.718 331.995L168.459 331.565L179.344 325.27L180.085 324.84L190.967 318.545L191.708 318.115L213.88 305.288Z" fill="#B3B3B3"/>
</g>
<g opacity="0.3">
<path d="M213.879 326.782V327.638L191.708 340.465L190.967 340.895L180.085 347.19L179.344 347.619L168.458 353.918L167.717 354.344L156.832 360.643L156.091 361.073L135.85 372.784V371.925L156.091 360.217L156.832 359.787L167.717 353.488L168.458 353.062L179.344 346.763L180.085 346.334L190.967 340.039L191.708 339.609L213.879 326.782Z" fill="#B3B3B3"/>
</g>
<g opacity="0.3">
<path d="M213.879 348.278V349.134L191.707 361.961L190.966 362.387L180.085 368.686L179.343 369.112L168.458 375.411L167.717 375.841L156.831 382.136L156.09 382.565L135.782 394.314V393.455L156.09 381.71L156.831 381.28L167.717 374.985L168.458 374.555L179.343 368.256L180.085 367.83L190.966 361.532L191.707 361.106L213.879 348.278Z" fill="#B3B3B3"/>
</g>
<g opacity="0.3">
<path d="M213.878 369.772V370.628L191.707 383.455L190.966 383.881L180.084 390.176L179.343 390.606L168.457 396.904L167.716 397.331L156.831 403.629L156.09 404.059L135.715 415.845V414.989L156.09 403.203L156.831 402.773L167.716 396.478L168.457 396.049L179.343 389.75L180.084 389.324L190.966 383.029L191.707 382.599L213.878 369.772Z" fill="#B3B3B3"/>
</g>
<path d="M213.974 378.36L202.762 385.741V165.286L213.878 158.799V158.988L213.889 181.915V182.341L213.896 205.205L213.9 206.05L213.907 228.911V229.755L213.919 252.62V253.461L213.93 276.325V277.17L213.941 300.03V300.875L213.952 323.739V324.584L213.959 347.445V348.289L213.97 371.154V371.998L213.974 378.36Z" fill="#CCCCCC"/>
<path d="M213.97 371.154V371.999L202.762 378.239V377.394L213.97 371.154Z" fill="#B3B3B3"/>
<path d="M214.07 182.241L213.889 182.341L202.762 188.536V187.688L213.707 181.596L213.889 181.915V181.919L214.07 182.241Z" fill="#B3B3B3"/>
<path d="M213.9 206.051L202.762 212.249V211.405L213.896 205.206L213.9 206.051Z" fill="#B3B3B3"/>
<path d="M213.907 228.911V229.756L202.762 235.962V235.117L213.907 228.911Z" fill="#B3B3B3"/>
<path d="M213.93 276.325V277.17L202.762 283.387V282.542L213.93 276.325Z" fill="#B3B3B3"/>
<path d="M213.941 300.03V300.875L202.762 307.099V306.255L213.941 300.03Z" fill="#B3B3B3"/>
<path d="M213.952 323.74V324.585L202.762 330.813V329.969L213.952 323.74Z" fill="#B3B3B3"/>
<path d="M213.959 347.444V348.289L202.762 354.525V353.68L213.959 347.444Z" fill="#B3B3B3"/>
<path d="M198.065 283.495L147.031 313.039V294.91L198.065 265.369V283.495Z" fill="#999999"/>
<path d="M198.065 267.041L147.031 296.585V295.47L198.065 265.926V267.041Z" fill="#DCDCE5"/>
<path d="M198.065 268.993L147.031 298.538V297.422L198.065 267.878V268.993Z" fill="#DCDCE5"/>
<path d="M198.065 270.945L147.031 300.49V299.374L198.065 269.83V270.945Z" fill="#DCDCE5"/>
<path d="M198.065 272.898L147.031 302.443V301.328L198.065 271.783V272.898Z" fill="#DCDCE5"/>
<path d="M198.065 274.85L147.031 304.395V303.276L198.065 273.735V274.85Z" fill="#DCDCE5"/>
<path d="M198.065 276.803L147.031 306.348V305.229L198.065 275.688V276.803Z" fill="#DCDCE5"/>
<path d="M198.065 278.756L147.031 308.296V307.181L198.065 277.64V278.756Z" fill="#DCDCE5"/>
<path d="M198.065 280.709L147.031 310.25V309.134L198.065 279.594V280.709Z" fill="#DCDCE5"/>
<path d="M198.065 282.661L147.031 312.202V311.087L198.065 281.543V282.661Z" fill="#DCDCE5"/>
<path d="M181.503 292.806L180.603 293.325V275.2L181.503 274.677V292.806Z" fill="white"/>
<path d="M164.316 303.036L163.415 303.554V285.425L164.316 284.907V303.036Z" fill="white"/>
<path d="M147.836 312.573L146.936 313.095V294.966L147.836 294.447V312.573Z" fill="white"/>
<path d="M197.985 283.543L197.084 284.066V265.936L197.985 265.414V283.543Z" fill="white"/>
<path d="M197.947 162.359L202.763 164.975V387.63L198.317 384.296L197.947 162.359Z" fill="#B3B3B3"/>
<path d="M203.07 381.958L198.317 379.109L146.816 408.832V414.397L203.07 381.958Z" fill="#C7C7D3"/>
<path d="M136.071 202.594L136.03 226.726V227.578L135.993 250.872V251.183L135.878 321.951V322.807L135.841 345.801L135.837 346.656L135.8 369.647V370.506L135.763 393.496L135.76 394.352L135.723 417.343V418.202L135.7 432.093L124.941 424.719L124.956 412.011V411.151L124.985 388.157V387.298L125.011 364.304V363.444L125.041 340.45V339.591L125.067 316.593L125.07 315.737L125.152 245.496V244.644L125.182 221.338V220.486L125.211 196.262L135.441 202.142L136.071 202.594Z" fill="white"/>
<path d="M136.031 226.725V227.578L125.183 221.338V220.486L136.031 226.725Z" fill="#E6E6E6"/>
<path d="M136.127 250.949L135.994 251.182L135.756 251.593L125.152 245.495V244.643L135.994 250.871L136.127 250.949Z" fill="#E6E6E6"/>
<path d="M135.878 321.95V322.806L125.067 316.592L125.071 315.736L135.878 321.95Z" fill="#E6E6E6"/>
<path d="M135.843 345.8L135.839 346.656L125.042 340.45V339.59L135.843 345.8Z" fill="#E6E6E6"/>
<path d="M135.801 369.646V370.506L125.012 364.303V363.444L135.801 369.646Z" fill="#E6E6E6"/>
<path d="M135.764 393.496L135.76 394.352L124.985 388.157V387.297L135.764 393.496Z" fill="#E6E6E6"/>
<path d="M135.724 417.342V418.202L124.957 412.01V411.151L135.724 417.342Z" fill="#E6E6E6"/>
<path d="M147.283 424.178L135.701 432.092L135.723 417.709L135.727 416.86L135.764 393.974V393.125L135.801 370.239V369.39L135.838 346.508L135.842 345.655L135.879 322.773V321.924L135.916 299.038V298.189L135.953 275.303L135.957 274.454L135.994 251.571V250.719L136.031 227.836V226.988L136.068 204.101L136.072 203.253V202.593L147.187 194.991V197.91L147.198 220.771V221.619L147.209 244.476V245.325L147.217 268.185V269.034L147.228 291.89V292.739L147.239 315.599V316.448L147.246 339.308V340.153L147.257 363.014V363.862L147.269 386.723V387.568L147.276 410.428L147.28 411.277L147.283 424.178Z" fill="#CCCCCC"/>
<path d="M147.198 220.771V221.619L136.031 227.837V226.988L147.198 220.771Z" fill="#B3B3B3"/>
<path d="M147.208 244.476V245.324L135.992 251.571V250.719L147.208 244.476Z" fill="#B3B3B3"/>
<path d="M147.215 268.185V269.033L135.951 275.303L135.955 274.454L147.215 268.185Z" fill="#B3B3B3"/>
<path d="M147.228 291.89V292.739L135.917 299.037V298.189L147.228 291.89Z" fill="#B3B3B3"/>
<path d="M147.238 315.599V316.448L135.878 322.772V321.924L147.238 315.599Z" fill="#B3B3B3"/>
<path d="M147.245 339.308V340.153L135.837 346.507L135.841 345.655L147.245 339.308Z" fill="#B3B3B3"/>
<path d="M147.257 363.014V363.863L135.801 370.239V369.391L147.257 363.014Z" fill="#B3B3B3"/>
<path d="M147.269 386.722V387.567L135.764 393.973V393.125L147.269 386.722Z" fill="#B3B3B3"/>
<path d="M147.28 411.277L135.724 417.709L135.727 416.861L147.276 410.428L147.28 411.277Z" fill="#B3B3B3"/>
<path d="M69.7499 385.567L58.2641 377.961L58.253 371.644V370.788L58.2159 347.749V346.897L58.1789 323.859L58.1751 323.003L58.1381 299.965V299.112L58.1011 276.074L58.0973 275.218L57.9862 204.869V204.01L57.9454 180.671V179.811L57.9047 155.55V154.698L57.8936 147.54L69.3794 155.624L69.3868 161.297L69.3905 162.153L69.4276 186.414L69.4313 187.274L69.4683 210.612V211.468L69.5832 281.821V282.677L69.6202 305.715L69.6239 306.567V306.571L69.661 329.605V330.461L69.6981 353.5V354.352L69.7351 377.39L69.7388 378.246L69.7499 385.567Z" fill="white"/>
<path d="M69.3897 162.152L57.9038 155.549V154.697L69.386 161.296L69.3897 162.152Z" fill="#E6E6E6"/>
<path d="M69.4324 187.273L57.9465 180.671V179.811L69.4287 186.414L69.4324 187.273Z" fill="#E6E6E6"/>
<path d="M69.4692 210.612V211.468L57.9871 204.869V204.01L69.4692 210.612Z" fill="#E6E6E6"/>
<path d="M69.5828 281.82V282.676L58.1006 276.073L58.0969 275.217L69.5828 281.82Z" fill="#E6E6E6"/>
<path d="M69.6235 306.566L58.1377 299.964V299.112L69.6198 305.714L69.6235 306.566Z" fill="#E6E6E6"/>
<path d="M69.6602 329.605V330.461L58.178 323.859L58.1743 323.003L69.6602 329.605Z" fill="#E6E6E6"/>
<path d="M69.6972 353.499V354.352L58.2151 347.749V346.897L69.6972 353.499Z" fill="#E6E6E6"/>
<path d="M69.7395 378.246L58.2537 371.643V370.787L69.7358 377.39L69.7395 378.246Z" fill="#E6E6E6"/>
<path d="M224.624 243.872L136.072 295.158L135.705 295.373L118.376 285.295L117.631 284.862L103.793 276.814L103.048 276.381L89.2058 268.33L88.4647 267.9L74.6224 259.849L73.8777 259.419L60.0391 251.368L59.2944 250.934L47.5195 244.087V243.872L51.2098 241.508L54.6704 239.493H54.6741L56.7749 238.27L60.2058 236.273L60.4874 236.11L71.3101 229.811L98.2796 245.595H98.2833L98.287 245.599L112.818 254.106L113.559 254.539L127.354 262.613L128.098 263.046L135.698 267.496L135.705 267.492L135.709 267.488L200.896 230.115L211.463 236.24L211.519 236.273L215.609 238.648L216.98 239.441L221.304 241.945L224.624 243.872Z" fill="#EDEEEF"/>
<path d="M80.8629 239.574L60.0401 251.368L59.2954 250.934L80.4998 238.926L80.8629 239.574Z" fill="#CCCCCC"/>
<path d="M98.6454 246.243L74.6214 259.848L73.8767 259.419L98.2786 245.595H98.2823L98.286 245.599L98.6454 246.243Z" fill="#CCCCCC"/>
<path d="M116.43 252.912L113.559 254.539L89.2051 268.329L88.4641 267.9L112.818 254.105L116.067 252.264L116.43 252.912Z" fill="#CCCCCC"/>
<path d="M128.098 263.046L103.792 276.814L103.047 276.381L127.353 262.612L128.098 263.046Z" fill="#CCCCCC"/>
<path d="M151.999 266.252L118.375 285.296L117.631 284.862L151.636 265.603L151.999 266.252Z" fill="#CCCCCC"/>
<path d="M224.624 243.872L210.048 252.227L209.677 252.439L209.307 252.654L195.713 260.445L195.339 260.66L194.972 260.872L181.378 268.663L181.003 268.878L180.633 269.089L167.039 276.881L166.668 277.096L166.298 277.307L152.704 285.099L152.33 285.314L151.959 285.525L136.072 294.633V267.215L200.896 230.115L211.463 236.24L211.519 236.273L215.609 238.648L216.98 239.441L221.304 241.946L224.624 243.872Z" fill="#C7C7D3"/>
<path d="M210.048 252.228L209.678 252.439L209.307 252.654L196.832 245.281L197.021 244.962L197.21 244.64L210.048 252.228Z" fill="#B3B3B3"/>
<path d="M195.712 260.446L195.338 260.661L194.971 260.872L182.381 253.432L182.57 253.113L182.759 252.791L195.712 260.446Z" fill="#B3B3B3"/>
<path d="M181.378 268.664L181.004 268.878L180.633 269.09L167.932 261.583L168.121 261.264L168.31 260.942L181.378 268.664Z" fill="#B3B3B3"/>
<path d="M167.038 276.882L166.667 277.096L166.297 277.308L153.481 269.734L153.67 269.416L153.859 269.093L167.038 276.882Z" fill="#B3B3B3"/>
<path d="M152.704 285.098L152.329 285.313L151.959 285.525L139.032 277.885L139.221 277.566L139.41 277.244L152.704 285.098Z" fill="#B3B3B3"/>
<path d="M136.072 294.596V301.672L124.886 295.214L118.98 291.806L118.239 291.376L104.345 283.358L103.604 282.928L89.7097 274.91L88.9686 274.481L75.0745 266.463L74.3334 266.033L60.4393 258.015L59.6982 257.585L47.5195 250.557V243.873L59.6982 250.849L60.4393 251.272L74.3334 259.23L75.0745 259.656L88.9686 267.615L89.7097 268.041L103.604 276L104.345 276.422L118.239 284.381L118.98 284.807L136.072 294.596Z" fill="white"/>
<path d="M60.4393 251.271V258.015L59.6982 257.585V250.849L60.4393 251.271Z" fill="#CCCCCC"/>
<path d="M75.0733 259.656V266.462L74.3323 266.033V259.23L75.0733 259.656Z" fill="#CCCCCC"/>
<path d="M89.7095 268.04V274.91L88.9685 274.48V267.614L89.7095 268.04Z" fill="#CCCCCC"/>
<path d="M104.344 276.422V283.358L103.603 282.928V276L104.344 276.422Z" fill="#CCCCCC"/>
<path d="M118.98 284.807V291.806L118.239 291.376V284.381L118.98 284.807Z" fill="#CCCCCC"/>
<path d="M224.624 243.873V250.208L210.174 258.608L209.433 259.038L195.816 266.952L195.075 267.382L181.459 275.296L180.718 275.726L167.102 283.64L166.361 284.069L152.745 291.984L152.011 292.41L136.072 301.672V294.633L152.004 285.5L152.745 285.077L166.361 277.271L167.102 276.844L180.718 269.042L181.459 268.615L195.075 260.809L195.816 260.386L209.433 252.58L210.174 252.157L224.624 243.873Z" fill="#DDDDDD"/>
<path d="M210.173 252.157V258.608L209.432 259.038V252.58L210.173 252.157Z" fill="#B3B3B3"/>
<path d="M195.815 260.386V266.951L195.074 267.381V260.808L195.815 260.386Z" fill="#B3B3B3"/>
<path d="M181.46 268.615V275.296L180.719 275.725V269.041L181.46 268.615Z" fill="#B3B3B3"/>
<path d="M167.102 276.844V283.639L166.361 284.069V277.27L167.102 276.844Z" fill="#B3B3B3"/>
<path d="M152.745 285.076V291.983L152.011 292.409H152.004V285.499L152.745 285.076Z" fill="#B3B3B3"/>
<path d="M51.2102 234.98V241.671L136.072 291.298V284.999L51.2102 234.98Z" fill="#CCCCCC"/>
<path d="M221.304 235.35V242.345L136.072 291.297V284.691L221.304 235.35Z" fill="#B3B3B3"/>
<path d="M224.62 228.681L211.515 236.273L210.966 236.588L210.225 237.011L196.616 244.799L195.875 245.221L182.266 253.009L181.525 253.432L167.917 261.22L167.176 261.642L153.567 269.43L152.826 269.853L136.067 279.442V267.215L142.314 263.639L143.055 263.217L145.115 262.039L145.593 261.764L146.442 261.279V261.272L147.194 260.834V255.347L151.94 252.639L152.681 252.216L166.316 244.443L167.057 244.021L180.692 236.247L181.433 235.825L195.068 228.052L195.809 227.629L197.865 226.458L202.5 229.193L214.067 222.564L224.62 228.681Z" fill="#C7C7D3"/>
<path d="M136.072 267.215V279.442L119.106 269.79L118.354 269.36L104.36 261.398L103.608 260.972L89.6133 253.009L88.8649 252.58L74.867 244.617L74.1185 244.191L60.2021 236.273L60.1243 236.229L59.3796 235.795L47.5195 228.897V228.682L58.294 222.194L69.3278 228.652L73.1071 226.536L74.4112 227.281L75.1597 227.711L89.1057 235.703L89.8542 236.129L103.8 244.121L104.549 244.547L118.498 252.539L119.247 252.969L125.108 256.325L125.112 260.886L129.177 263.232L129.921 263.662L136.072 267.215Z" fill="#EDEEEF"/>
<path d="M75.1587 227.711L60.1234 236.229L59.3787 235.796L74.4103 227.281L75.1587 227.711Z" fill="#CCCCCC"/>
<path d="M89.8543 236.129L74.8671 244.618L74.1187 244.192L89.1058 235.703L89.8543 236.129Z" fill="#CCCCCC"/>
<path d="M104.548 244.547L89.6132 253.009L88.8647 252.58L103.8 244.121L104.548 244.547Z" fill="#CCCCCC"/>
<path d="M119.246 252.968L104.359 261.398L103.607 260.971L118.498 252.539L119.246 252.968Z" fill="#CCCCCC"/>
<path d="M129.92 263.661L119.105 269.789L118.353 269.359L129.176 263.231L129.92 263.661Z" fill="#CCCCCC"/>
<path d="M210.971 236.588L210.23 237.01L195.072 228.052L195.813 227.629L210.971 236.588Z" fill="#B3B3B3"/>
<path d="M196.621 244.799L195.88 245.221L180.696 236.248L181.437 235.825L196.621 244.799Z" fill="#B3B3B3"/>
<path d="M182.271 253.009L181.53 253.431L166.321 244.443L167.062 244.02L182.271 253.009Z" fill="#B3B3B3"/>
<path d="M167.921 261.22L167.18 261.642L151.945 252.639L152.686 252.216L167.921 261.22Z" fill="#B3B3B3"/>
<path d="M153.57 269.43L152.829 269.853L142.317 263.639L143.058 263.217L153.57 269.43Z" fill="#B3B3B3"/>
<path d="M136.072 279.404V286.481L119.028 276.644L118.287 276.214L104.393 268.196L103.652 267.766L89.7578 259.748L89.0168 259.319L75.1226 251.297L74.3816 250.871L60.4874 242.849L59.7464 242.423L47.5195 235.365V228.681L59.7464 235.684L60.4874 236.11L74.3816 244.068L75.1226 244.491L89.0168 252.449L89.7578 252.875L103.652 260.834L104.393 261.26L118.287 269.219L119.028 269.641L136.072 279.404Z" fill="white"/>
<path d="M60.4859 236.11V242.85L59.7449 242.423V235.684L60.4859 236.11Z" fill="#CCCCCC"/>
<path d="M75.1221 244.491V251.298L74.3811 250.872V244.069L75.1221 244.491Z" fill="#CCCCCC"/>
<path d="M89.7564 252.875V259.748L89.0154 259.318V252.449L89.7564 252.875Z" fill="#CCCCCC"/>
<path d="M104.393 261.26V268.196L103.652 267.767V260.834L104.393 261.26Z" fill="#CCCCCC"/>
<path d="M119.029 269.641V276.644L118.288 276.214V269.219L119.029 269.641Z" fill="#CCCCCC"/>
<path d="M136.072 286.481L224.624 235.017V228.681L136.072 279.441V286.481Z" fill="#DDDDDD"/>
<path d="M210.915 236.462H210.174V244.298H210.915V236.462Z" fill="#B3B3B3"/>
<path d="M196.558 244.692H195.817V252.528H196.558V244.692Z" fill="#B3B3B3"/>
<path d="M182.2 252.92H181.459V260.756H182.2V252.92Z" fill="#B3B3B3"/>
<path d="M167.843 261.153H167.102V268.989H167.843V261.153Z" fill="#B3B3B3"/>
<path d="M153.485 269.382H152.744V277.219H153.485V269.382Z" fill="#B3B3B3"/>
<path d="M224.624 396.893L136.072 448.179L135.702 448.394L47.5199 397.108L47.1494 396.893L51.2102 394.529L54.6708 392.514H54.6745L56.7753 391.291L60.2025 389.294L60.4878 389.131L71.3105 382.832L135.694 420.517L135.702 420.513L135.705 420.51L200.897 383.136L211.464 389.261L211.519 389.294L215.61 391.669L216.981 392.462L221.305 394.967L224.624 396.893Z" fill="#EDEEEF"/>
<path d="M224.624 396.894L136.072 448.18L135.701 448.395V432.215L135.705 420.51L200.896 383.137L211.463 389.261L211.519 389.294L215.609 391.669L216.98 392.462L221.304 394.967L224.624 396.894Z" fill="#C7C7D3"/>
<path d="M47.5195 396.893V403.577L124.886 448.235L136.072 454.693V447.616L47.5195 396.893Z" fill="white"/>
<path d="M135.701 454.693L224.624 403.229V396.893L135.701 447.405V454.693Z" fill="#DDDDDD"/>
<path d="M51.2102 388.001V394.693L135.702 444.689V437.942L51.2102 388.001Z" fill="#CCCCCC"/>
<path d="M221.304 388.371V395.367L135.701 444.689L135.723 438.761L221.304 388.371Z" fill="#B3B3B3"/>
<path d="M224.624 381.703L211.519 389.295L136.072 432.989L135.702 433.204L60.2025 389.295L47.5199 381.918L47.1494 381.703L58.2981 375.215L71.3105 382.833L135.694 420.518L135.702 420.514L135.705 420.51L200.897 383.137L214.072 375.586L224.624 381.703Z" fill="#EDEEEF"/>
<path d="M224.624 381.703L211.519 389.294L136.072 432.989L135.701 433.204V420.514L135.705 420.51L200.896 383.137L214.072 375.586L224.624 381.703Z" fill="#C7C7D3"/>
<path d="M47.5195 381.702V388.386L135.701 439.502L136.072 432.425L47.5195 381.702Z" fill="white"/>
<path d="M135.701 439.502L224.624 388.038V381.702L135.701 432.214V439.502Z" fill="#DDDDDD"/>
<path d="M174.276 193.275L170.033 195.743V187.265L174.276 184.798V193.275Z" fill="white"/>
<path d="M172.286 194.435L172.019 194.587V186.11L172.286 185.954V194.435Z" fill="#DCDCE5"/>
<path d="M174.276 236.347L170.033 238.815V230.334L174.276 227.866V236.347Z" fill="white"/>
<path d="M172.286 237.503L172.019 237.655V229.178L172.286 229.026V237.503Z" fill="#DCDCE5"/>
<path d="M185.791 206.514V201.09L192.423 197.233V202.661L185.791 206.514Z" fill="white"/>
<path d="M185.791 203.972V203.631L192.423 199.778V200.115L185.791 203.972Z" fill="#DCDCE5"/>
<path d="M152.115 226.102V220.674L158.744 216.821V222.245L152.115 226.102Z" fill="white"/>
<path d="M152.115 223.557V223.22L158.744 219.363V219.704L152.115 223.557Z" fill="#DCDCE5"/>
<path d="M166.538 199.244L164.241 202.275L160.925 196.862L163.222 193.831L166.538 199.244Z" fill="white"/>
<path d="M161.102 208.115L159.775 211.823L154.036 210.923L155.359 207.218L161.102 208.115Z" fill="white"/>
<path d="M159.775 226.184L161.102 228.347L155.359 235.924L154.036 233.761L159.775 226.184Z" fill="white"/>
<path d="M164.241 230.537L166.539 230.897L163.222 240.167L160.929 239.808L164.241 230.537Z" fill="white"/>
<path d="M177.765 224.368L180.062 221.338L183.378 226.751L181.081 229.781L177.765 224.368Z" fill="white"/>
<path d="M183.201 215.494L184.527 211.786L190.27 212.686L188.944 216.395L183.201 215.494Z" fill="white"/>
<path d="M184.527 197.429L183.201 195.265L188.944 187.685L190.27 189.852L184.527 197.429Z" fill="white"/>
<path d="M180.062 193.075L177.765 192.716L181.081 183.446L183.378 183.805L180.062 193.075Z" fill="white"/>
<path d="M169.507 208.936L172.423 207.239L171.937 223.801L170.236 224.791C169.992 219.503 169.751 214.22 169.507 208.936Z" fill="#999999"/>
<path d="M170.288 207.6L173.204 205.903L172.718 222.465L171.018 223.454C170.777 218.17 170.532 212.883 170.288 207.6Z" fill="white"/>
<path d="M168.677 215.843L168.473 212.241C172.715 209.6 176.961 206.958 181.204 204.32C181.244 205.02 181.281 205.72 181.322 206.421C177.11 209.559 172.893 212.701 168.677 215.843Z" fill="#999999"/>
<path d="M169.195 214.591L168.992 210.989C173.234 208.347 177.48 205.706 181.722 203.068C181.763 203.768 181.8 204.468 181.841 205.168C177.628 208.307 173.412 211.449 169.195 214.591Z" fill="white"/>
<path d="M102.404 196.217L97.8539 193.772L97.7983 185.213L102.344 187.662L102.404 196.217Z" fill="white"/>
<path d="M100.269 195.073L99.984 194.917L99.9285 186.362L100.214 186.514L100.269 195.073Z" fill="#DCDCE5"/>
<path d="M102.689 239.682L98.1388 237.236L98.0833 228.681L102.629 231.126L102.689 239.682Z" fill="white"/>
<path d="M100.554 238.537L100.269 238.385L100.213 229.826L100.499 229.982L100.554 238.537Z" fill="#DCDCE5"/>
<path d="M114.884 222.983L114.847 217.506L121.954 221.33L121.991 226.806L114.884 222.983Z" fill="white"/>
<path d="M114.867 220.415L114.864 220.074L121.974 223.898L121.978 224.239L114.867 220.415Z" fill="#DCDCE5"/>
<path d="M78.7704 203.557L78.7371 198.081L85.8435 201.905L85.8805 207.381L78.7704 203.557Z" fill="white"/>
<path d="M78.7571 200.989L78.7534 200.649L85.8635 204.472V204.813L78.7571 200.989Z" fill="#DCDCE5"/>
<path d="M94.1174 193.238L91.6646 193.627L88.0632 184.305L90.5123 183.916L94.1174 193.238Z" fill="white"/>
<path d="M88.3271 195.865L86.9228 198.066L80.739 190.474L82.1433 188.277L88.3271 195.865Z" fill="white"/>
<path d="M87.0199 212.557L88.4611 216.284L82.3329 217.251L80.8916 213.524L87.0199 212.557Z" fill="white"/>
<path d="M91.8547 222.146L94.326 225.184L90.821 230.683L88.3459 227.645L91.8547 222.146Z" fill="white"/>
<path d="M106.364 231.66L108.816 231.271L112.418 240.593L109.969 240.982L106.364 231.66Z" fill="white"/>
<path d="M112.154 229.033L113.558 226.833L119.742 234.424L118.338 236.622L112.154 229.033Z" fill="white"/>
<path d="M113.463 212.342L112.021 208.614L118.15 207.647L119.591 211.375L113.463 212.342Z" fill="white"/>
<path d="M108.627 202.753L106.156 199.715L109.661 194.217L112.136 197.255L108.627 202.753Z" fill="white"/>
<path d="M97.3752 206.473L100.502 208.156C100.365 213.539 100.228 218.919 100.087 224.302C99.4798 223.976 98.8721 223.647 98.2645 223.321C97.968 217.707 97.6717 212.09 97.3752 206.473Z" fill="#999999"/>
<path d="M98.2092 206.036L101.336 207.718C101.199 213.102 101.062 218.481 100.921 223.865C100.314 223.539 99.7061 223.209 99.0984 222.883C98.802 217.27 98.5056 211.653 98.2092 206.036Z" fill="white"/>
<path d="M96.5311 212.478L96.2866 208.607C100.837 210.882 105.386 213.153 109.936 215.428L110.077 217.688C105.561 215.95 101.044 214.212 96.5311 212.478Z" fill="#999999"/>
<path d="M97.0785 211.819L96.834 207.947C101.384 210.222 105.934 212.494 110.484 214.769C110.532 215.521 110.58 216.276 110.624 217.029C106.108 215.287 101.595 213.553 97.0785 211.819Z" fill="white"/>
<path d="M137.923 2.11745C137.923 2.9548 137.464 3.67359 136.812 3.98482V61.2103H135.33V3.98482C134.677 3.67359 134.218 2.9548 134.218 2.11745C134.218 0.991092 135.048 0.0759277 136.071 0.0759277C137.093 0.0759277 137.923 0.991092 137.923 2.11745Z" fill="#DCDCE5"/>
<path d="M224.178 146.443L135.626 197.729L135.259 197.944L117.931 187.866L117.186 187.432L103.347 179.385L102.603 178.951L88.7602 170.9L88.0192 170.47L74.1769 162.419L73.4321 161.989L59.5936 153.938L58.8488 153.505L47.074 146.658V146.443L50.7643 144.079L54.2248 142.063H54.2285L56.3293 140.841L59.7603 138.844L60.0419 138.681L70.8645 132.382L97.834 148.166H97.8377L97.8414 148.169L112.373 156.676L113.114 157.11L126.908 165.183L127.653 165.617L135.252 170.067L135.259 170.063L135.263 170.059L200.451 132.686L211.018 138.81L211.073 138.844L215.164 141.219L216.535 142.011L220.859 144.516L224.178 146.443Z" fill="#EDEEEF"/>
<path d="M80.4173 142.145L59.5946 153.938L58.8499 153.505L80.0542 141.496L80.4173 142.145Z" fill="#CCCCCC"/>
<path d="M98.2018 148.814L74.1778 162.419L73.4331 161.989L97.835 148.166H97.8387L97.8424 148.169L98.2018 148.814Z" fill="#CCCCCC"/>
<path d="M115.987 155.483L113.115 157.11L88.7615 170.9L88.0205 170.47L112.374 156.676L115.624 154.835L115.987 155.483Z" fill="#CCCCCC"/>
<path d="M127.652 165.617L103.347 179.385L102.602 178.951L126.907 165.183L127.652 165.617Z" fill="#CCCCCC"/>
<path d="M151.556 168.822L117.932 187.866L117.187 187.433L151.193 168.174L151.556 168.822Z" fill="#CCCCCC"/>
<path d="M224.18 146.443L209.604 154.798L209.234 155.009L208.863 155.224L195.269 163.016L194.895 163.231L194.528 163.442L180.934 171.234L180.56 171.449L180.189 171.66L166.595 179.452L166.225 179.667L165.854 179.878L152.26 187.67L151.886 187.885L151.515 188.096L135.628 197.203V169.785L200.453 132.686L211.02 138.81L211.075 138.844L215.166 141.219L216.536 142.012L220.86 144.516L224.18 146.443Z" fill="#C7C7D3"/>
<path d="M209.603 154.797L209.232 155.008L208.862 155.223L196.386 147.85L196.575 147.532L196.764 147.209L209.603 154.797Z" fill="#B3B3B3"/>
<path d="M195.268 163.015L194.894 163.23L194.527 163.441L181.937 156.001L182.126 155.683L182.315 155.36L195.268 163.015Z" fill="#B3B3B3"/>
<path d="M180.932 171.233L180.558 171.448L180.187 171.659L167.486 164.153L167.675 163.834L167.864 163.512L180.932 171.233Z" fill="#B3B3B3"/>
<path d="M166.594 179.451L166.224 179.666L165.853 179.877L153.037 172.304L153.226 171.985L153.415 171.663L166.594 179.451Z" fill="#B3B3B3"/>
<path d="M152.258 187.669L151.884 187.884L151.513 188.095L138.586 180.455L138.775 180.137L138.964 179.814L152.258 187.669Z" fill="#B3B3B3"/>
<path d="M135.626 197.165V204.242L124.44 197.784L118.534 194.375L117.793 193.946L103.899 185.928L103.158 185.498L89.2641 177.48L88.5231 177.05L74.6289 169.032L73.8879 168.603L59.9937 160.585L59.2527 160.155L47.074 153.126V146.442L59.2527 153.419L59.9937 153.841L73.8879 161.8L74.6289 162.226L88.5231 170.185L89.2641 170.611L103.158 178.569L103.899 178.992L117.793 186.95L118.534 187.376L135.626 197.165Z" fill="white"/>
<path d="M59.9937 153.842V160.585L59.2527 160.155V153.42L59.9937 153.842Z" fill="#CCCCCC"/>
<path d="M74.6299 162.227V169.033L73.8889 168.603V161.801L74.6299 162.227Z" fill="#CCCCCC"/>
<path d="M89.264 170.611V177.48L88.5229 177.05V170.185L89.264 170.611Z" fill="#CCCCCC"/>
<path d="M103.9 178.991V185.927L103.159 185.498V178.569L103.9 178.991Z" fill="#CCCCCC"/>
<path d="M118.534 187.376V194.375L117.793 193.946V186.95L118.534 187.376Z" fill="#CCCCCC"/>
<path d="M224.18 146.442V152.778L209.73 161.178L208.989 161.607L195.373 169.521L194.632 169.951L181.016 177.865L180.275 178.295L166.658 186.209L165.917 186.639L152.301 194.553L151.567 194.979L135.628 204.242V197.202L151.56 188.069L152.301 187.647L165.917 179.84L166.658 179.414L180.275 171.611L181.016 171.185L194.632 163.378L195.373 162.956L208.989 155.149L209.73 154.727L224.18 146.442Z" fill="#DDDDDD"/>
<path d="M209.729 154.728V161.178L208.988 161.608V155.15L209.729 154.728Z" fill="#B3B3B3"/>
<path d="M195.372 162.956V169.522L194.631 169.952V163.379L195.372 162.956Z" fill="#B3B3B3"/>
<path d="M181.014 171.185V177.865L180.273 178.295V171.611L181.014 171.185Z" fill="#B3B3B3"/>
<path d="M166.657 179.414V186.21L165.916 186.639V179.841L166.657 179.414Z" fill="#B3B3B3"/>
<path d="M152.299 187.647V194.553L151.566 194.98H151.558V188.069L152.299 187.647Z" fill="#B3B3B3"/>
<path d="M50.7605 137.55V144.246L135.626 193.868V187.569L50.7605 137.55Z" fill="#CCCCCC"/>
<path d="M220.86 137.921V144.916L135.628 193.868V187.265L220.86 137.921Z" fill="#B3B3B3"/>
<path d="M135.626 169.784V182.011L118.66 172.359L117.908 171.93L103.914 163.967L103.162 163.541L89.1678 155.579L88.4193 155.149L74.4214 147.187L73.673 146.761L59.7566 138.843L59.6788 138.799L58.934 138.365L47.074 131.466V131.251L57.8484 124.764L68.8823 131.222L72.6615 129.106L73.9657 129.851L74.7141 130.28L88.6602 138.272L89.4086 138.698L103.355 146.69L104.103 147.116L118.053 155.108L118.801 155.538L124.663 158.895L124.666 163.456L128.731 165.801L129.476 166.231L135.626 169.784Z" fill="#EDEEEF"/>
<path d="M74.7154 130.281L59.68 138.799L58.9353 138.365L73.9669 129.851L74.7154 130.281Z" fill="#CCCCCC"/>
<path d="M89.4087 138.699L74.4215 147.187L73.6731 146.761L88.6603 138.273L89.4087 138.699Z" fill="#CCCCCC"/>
<path d="M104.103 147.118L89.1676 155.58L88.4192 155.15L103.355 146.692L104.103 147.118Z" fill="#CCCCCC"/>
<path d="M118.803 155.539L103.915 163.968L103.163 163.542L118.054 155.109L118.803 155.539Z" fill="#CCCCCC"/>
<path d="M129.477 166.231L118.662 172.36L117.909 171.93L128.732 165.802L129.477 166.231Z" fill="#CCCCCC"/>
<path d="M224.18 131.252L211.075 138.844L210.527 139.159L209.786 139.581L196.177 147.369L195.436 147.791L181.827 155.58L181.086 156.002L167.477 163.79L166.736 164.212L153.127 172.001L152.386 172.423L135.628 182.012V169.785L141.875 166.21L142.616 165.787L146.002 163.849V158.344L151.501 155.209L152.242 154.787L165.876 147.013L166.617 146.591L180.252 138.818L180.993 138.395L194.628 130.622L195.369 130.2L197.426 129.029L202.061 131.763L190.697 109.399L224.18 131.252Z" fill="#C7C7D3"/>
<path d="M210.525 139.159L209.784 139.581L194.626 130.622L195.367 130.2L210.525 139.159Z" fill="#B3B3B3"/>
<path d="M196.175 147.369L195.434 147.791L180.251 138.817L180.992 138.395L196.175 147.369Z" fill="#B3B3B3"/>
<path d="M181.826 155.579L181.084 156.002L165.875 147.013L166.616 146.591L181.826 155.579Z" fill="#B3B3B3"/>
<path d="M167.475 163.79L166.734 164.213L151.499 155.209L152.24 154.787L167.475 163.79Z" fill="#B3B3B3"/>
<path d="M153.126 172.001L152.385 172.423L141.874 166.21L142.615 165.787L153.126 172.001Z" fill="#B3B3B3"/>
<path d="M135.626 181.975V189.051L118.583 179.214L117.842 178.784L103.947 170.767L103.206 170.337L89.3123 162.319L88.5712 161.889L74.6771 153.868L73.936 153.442L60.0419 145.42L59.3008 144.994L47.074 137.936V131.252L59.3008 138.254L60.0419 138.68L73.936 146.639L74.6771 147.061L88.5712 155.02L89.3123 155.446L103.206 163.405L103.947 163.831L117.842 171.789L118.583 172.212L135.626 181.975Z" fill="white"/>
<path d="M60.0425 138.68V145.42L59.3015 144.994V138.254L60.0425 138.68Z" fill="#CCCCCC"/>
<path d="M74.6766 147.061V153.867L73.9355 153.441V146.639L74.6766 147.061Z" fill="#CCCCCC"/>
<path d="M89.3128 155.446V162.319L88.5718 161.889V155.02L89.3128 155.446Z" fill="#CCCCCC"/>
<path d="M103.947 163.831V170.767L103.206 170.337V163.405L103.947 163.831Z" fill="#CCCCCC"/>
<path d="M118.583 172.212V179.214L117.842 178.784V171.789L118.583 172.212Z" fill="#CCCCCC"/>
<path d="M135.628 189.051L224.18 137.587V131.252L135.628 182.012V189.051Z" fill="#DDDDDD"/>
<path d="M210.47 139.033H209.729V146.869H210.47V139.033Z" fill="#B3B3B3"/>
<path d="M196.112 147.265H195.371V155.102H196.112V147.265Z" fill="#B3B3B3"/>
<path d="M181.755 155.495H181.014V163.331H181.755V155.495Z" fill="#B3B3B3"/>
<path d="M167.397 163.723H166.656V171.56H167.397V163.723Z" fill="#B3B3B3"/>
<path d="M153.04 171.952H152.299V179.788H153.04V171.952Z" fill="#B3B3B3"/>
<path d="M56.6809 125.475L78.2891 112.707L62.5053 128.328L56.6809 125.475Z" fill="#EDEEEF"/>
<path d="M214.249 130.496L136.072 176.069V174.957V60.4691L214.249 130.496Z" fill="#55BAF0"/>
<g opacity="0.6">
<path d="M152.185 74.2253L135.144 84.2333L135.519 84.8723L152.561 74.8642L152.185 74.2253Z" fill="#E6E6E6"/>
<path d="M167.011 88.6738L135.276 107.639L135.656 108.275L167.391 89.3098L167.011 88.6738Z" fill="#E6E6E6"/>
<path d="M182.189 102.745L135.884 129.802L136.258 130.442L182.563 103.385L182.189 102.745Z" fill="#E6E6E6"/>
<path d="M197.762 116.095L135.144 152.402L135.515 153.043L198.134 116.736L197.762 116.095Z" fill="#E6E6E6"/>
<path d="M135.94 84.2858L135.447 84.8385L197.69 140.414L198.183 139.861L135.94 84.2858Z" fill="#E6E6E6"/>
<path d="M136.317 60.556L135.823 61.108L214.004 131.134L214.498 130.582L136.317 60.556Z" fill="#E6E6E6"/>
<path d="M136.442 61.2108H135.701V176.44H136.442V61.2108Z" fill="#E6E6E6"/>
<path d="M136.312 106.497L135.813 107.044L182.13 149.28L182.629 148.732L136.312 106.497Z" fill="#E6E6E6"/>
<path d="M135.943 129.096L135.449 129.648L166.943 157.805L167.437 157.253L135.943 129.096Z" fill="#E6E6E6"/>
<path d="M136.336 152.091L135.831 152.634L151.392 167.084L151.896 166.541L136.336 152.091Z" fill="#E6E6E6"/>
<path d="M152.004 75.2905H151.263V167.177H152.004V75.2905Z" fill="#E6E6E6"/>
<path d="M167.566 88.999H166.825V157.914H167.566V88.999Z" fill="#E6E6E6"/>
<path d="M182.755 102.708H182.014V149.392H182.755V102.708Z" fill="#E6E6E6"/>
<path d="M198.317 116.417H197.576V140.13H198.317V116.417Z" fill="#E6E6E6"/>
</g>
<path d="M136.071 60.4691V176.069L135.656 175.824L120.25 166.802L104.841 157.777L104.318 157.469L89.435 148.755L88.9274 148.454L74.0292 139.729L73.5401 139.444L73.2733 139.288L58.2639 130.496L73.6327 116.665L74.1107 116.235L75.6298 114.868L89.0127 102.822L89.5981 102.296L104.396 88.9763L105.082 88.3612L119.78 75.1303L120.569 74.4226L135.164 61.2842L136.053 60.4876V60.4839L136.071 60.4691Z" fill="#79C6E8"/>
<g opacity="0.6">
<path d="M135.859 62.1186L135.837 62.1039L134.975 61.5992L135.347 60.9656L136.268 61.5071L135.859 62.1186Z" fill="#E6E6E6"/>
<path d="M135.882 84.9634L135.293 84.6188L119.594 75.4487L119.965 74.8114L120.75 75.2634L136.26 84.3261L135.882 84.9634Z" fill="#E6E6E6"/>
<path d="M135.882 107.794L135.212 107.401L104.211 89.2979L104.582 88.6532L105.263 89.0534L136.257 107.153L135.882 107.794Z" fill="#E6E6E6"/>
<path d="M135.885 130.625L135.137 130.188L88.8342 103.148L89.1862 102.496L89.2751 102.544L89.779 102.841L136.256 129.984L136.186 130.106V130.155H136.156L135.885 130.625Z" fill="#E6E6E6"/>
<path d="M135.882 153.452L119.646 143.97L73.4434 116.982L73.7842 116.327L73.8176 116.345L74.2918 116.623L136.256 152.814L135.882 153.452Z" fill="#E6E6E6"/>
<path d="M135.885 176.287L135.47 176.046L57.9443 130.762L58.3186 130.125L136.256 175.646L135.885 176.287Z" fill="#E6E6E6"/>
<path d="M136.027 175.824H135.286V175.724L135.683 60.4871L136.424 60.4834L136.42 61.8061L136.027 175.824Z" fill="#E6E6E6"/>
<path d="M120.62 166.802H119.879V166.724L120.198 74.4187L120.939 74.4261L120.935 75.5858L120.62 166.802Z" fill="#E6E6E6"/>
<path d="M105.211 157.776H104.469L104.473 156.997L104.71 88.3602H105.451L105.448 89.3754L105.211 157.776Z" fill="#E6E6E6"/>
<path d="M89.0642 148.754L89.0679 147.998L89.2272 102.296H89.9683L89.9646 103.159L89.8052 148.732L89.0642 148.754Z" fill="#E6E6E6"/>
<path d="M74.4 139.732L73.6589 139.729L73.6626 139.002L73.7404 116.235L74.4815 116.22L74.4778 116.946L74.4 139.732Z" fill="#E6E6E6"/>
<path d="M58.3783 130.72L57.8855 130.164L135.837 60.7672L136.301 61.3452L135.8 61.7898L58.3783 130.72Z" fill="#E6E6E6"/>
<path d="M73.7835 139.717L73.2908 139.165L73.7835 138.724L135.822 83.4957L136.315 84.0515L135.722 84.5776L73.7835 139.717Z" fill="#E6E6E6"/>
<path d="M89.157 148.743L88.6938 148.165L89.1903 147.724L135.827 106.208L136.316 106.764L135.645 107.36L89.157 148.743Z" fill="#E6E6E6"/>
<path d="M104.561 157.746L104.069 157.191L104.595 156.72L135.821 128.924L136.318 129.473L135.569 130.147L104.561 157.746Z" fill="#E6E6E6"/>
</g>
<path d="M145.59 261.764L145.115 262.04V262.037L145.59 261.764Z" fill="#C7C7D3"/>
<path d="M29.2478 356.419L29.2811 416.72L39.6666 424.26V363.933L29.2478 356.419Z" fill="#C7B299"/>
<path d="M50.0519 356.445V416.768L39.6665 424.26V363.933L50.0519 356.445Z" fill="#998675"/>
<path d="M0.333252 365.993L39.6667 394.556V347.861L20 333.311L0.333252 365.993Z" fill="#53AA87"/>
<path d="M79 365.993L39.6665 394.556V347.861L59.3332 333.311L79 365.993Z" fill="#328D6A"/>
<path d="M5.75537 339.212L39.6683 363.836V323.572L22.71 311.031L5.75537 339.212Z" fill="#6CD3A7"/>
<path d="M73.5794 339.212L39.6665 363.836V323.572L56.6248 311.031L73.5794 339.212Z" fill="#389E74"/>
<path d="M13.468 317.879L39.6891 336.919V261.987" fill="#84F4C1"/>
<path d="M65.9098 317.879L39.6887 336.919V261.987" fill="#6CD3A7"/>
<path d="M67.3254 405.756L67.3477 446.583L74.38 451.689V410.843L67.3254 405.756Z" fill="#C7B299"/>
<path d="M81.4097 405.77V446.616L74.3811 451.688V410.843L81.4097 405.77Z" fill="#998675"/>
<path d="M47.7476 412.24L74.3799 431.576V399.961L61.0637 390.109L47.7476 412.24Z" fill="#53AA87"/>
<path d="M101.01 412.24L74.3811 431.576V399.961L87.6973 390.109L101.01 412.24Z" fill="#328D6A"/>
<path d="M51.4158 394.103L74.3801 410.776V383.518L62.8979 375.022L51.4158 394.103Z" fill="#6CD3A7"/>
<path d="M97.3417 394.103L74.3811 410.776V383.518L85.8595 375.022L97.3417 394.103Z" fill="#389E74"/>
<path d="M56.6404 379.661L74.3953 392.555V341.817" fill="#84F4C1"/>
<path d="M92.1504 379.661L74.3955 392.555V341.817" fill="#6CD3A7"/>
</svg>
