<svg width="30" height="31" viewBox="0 0 30 31" fill="none" xmlns="http://www.w3.org/2000/svg">
<path d="M10.0781 4.12756C11.2107 4.12756 12.1289 5.04573 12.1289 6.17834C12.1289 7.31096 11.2107 8.22913 10.0781 8.22913C8.94551 8.22913 8.02734 7.31096 8.02734 6.17834C8.02734 5.04573 8.94551 4.12756 10.0781 4.12756ZM12.1289 15.2604C12.1289 14.1278 11.2107 13.2096 10.0781 13.2096C8.94551 13.2096 8.02734 14.1278 8.02734 15.2604C8.02734 16.393 8.94551 17.3112 10.0781 17.3112C11.2107 17.3112 12.1289 16.393 12.1289 15.2604ZM21.9727 15.2604C21.9727 14.1278 21.0545 13.2096 19.9219 13.2096C18.7893 13.2096 17.8711 14.1278 17.8711 15.2604C17.8711 16.393 18.7893 17.3112 19.9219 17.3112C21.0545 17.3112 21.9727 16.393 21.9727 15.2604ZM10.0781 22.2916C11.2107 22.2916 12.1289 23.2098 12.1289 24.3424C12.1289 25.475 11.2107 26.3932 10.0781 26.3932C8.94551 26.3932 8.02734 25.475 8.02734 24.3424C8.02734 23.2098 8.94551 22.2916 10.0781 22.2916ZM21.9727 24.3424C21.9727 23.2098 21.0545 22.2916 19.9219 22.2916C18.7893 22.2916 17.8711 23.2098 17.8711 24.3424C17.8711 25.475 18.7893 26.3932 19.9219 26.3932C21.0545 26.3932 21.9727 25.475 21.9727 24.3424ZM21.9727 6.17834C21.9727 5.04573 21.0545 4.12756 19.9219 4.12756C18.7893 4.12756 17.8711 5.04573 17.8711 6.17834C17.8711 7.31096 18.7893 8.22913 19.9219 8.22913C21.0545 8.22913 21.9727 7.31096 21.9727 6.17834Z" fill="#4BDCAB"/>
</svg>
