<svg width="32" height="40" viewBox="0 0 32 40" fill="none" xmlns="http://www.w3.org/2000/svg">
<path d="M18.8752 19.5311V13.9061C18.8752 11.5761 16.9865 9.68732 14.6565 9.68732L9.03149 22.3436V37.8123H25.3721C26.7745 37.8282 27.9744 36.8084 28.1846 35.4217L30.1252 22.7655C30.2491 21.9496 30.0084 21.1205 29.467 20.4979C28.9255 19.8752 28.1379 19.5217 27.3127 19.5311H18.8752Z" fill="#4BDCAB" stroke="#20C38C" stroke-width="2.5" stroke-linejoin="round"/>
<path d="M9.03149 22.1876H5.27681C3.6294 22.1584 2.2211 23.523 2.00024 25.1558V34.9995C2.2211 36.6323 3.6294 37.8412 5.27681 37.812H9.03149V22.1876Z" fill="#4BDCAB" stroke="#20C38C" stroke-width="2.5" stroke-linejoin="round"/>
<rect x="20.084" y="8.12854" width="2.10033" height="5.92879" transform="rotate(-147.49 20.084 8.12854)" fill="#FBDE71"/>
<rect x="6.31274" y="2.97787" width="1.81975" height="6.36912" transform="rotate(-32.5053 6.31274 2.97787)" fill="#FBDE71"/>
<rect x="13.8127" y="0.5" width="1.81975" height="6.36912" fill="#FBDE71"/>
</svg>
