<svg width="27" height="27" viewBox="0 0 27 27" fill="none" xmlns="http://www.w3.org/2000/svg">
<g opacity="0.3">
<rect width="27" height="27" rx="13.5" fill="white"/>
<g opacity="0.3" clip-path="url(#clip0_9085_72953)">
<path d="M15.0249 13.5233L19.6182 18.1156C19.7189 18.2165 19.7987 18.3362 19.8531 18.4679C19.9075 18.5996 19.9355 18.7408 19.9354 18.8833C19.9352 19.0258 19.9071 19.1669 19.8524 19.2985C19.7977 19.4302 19.7177 19.5497 19.6168 19.6504C19.516 19.7511 19.3963 19.8309 19.2645 19.8854C19.1328 19.9398 18.9917 19.9677 18.8491 19.9676C18.7066 19.9675 18.5655 19.9393 18.4339 19.8846C18.3023 19.83 18.1827 19.7499 18.082 19.6491L13.4888 15.0558L8.86511 19.6795C8.66022 19.8844 8.38232 19.9995 8.09256 19.9995C7.80279 19.9995 7.5249 19.8844 7.32 19.6795C7.11511 19.4746 7 19.1967 7 18.907C7 18.6172 7.11511 18.3393 7.32 18.1344L11.9446 13.5098L7.35134 8.91661C7.157 8.71158 7.05036 8.43879 7.05414 8.15632C7.05792 7.87386 7.17181 7.60402 7.37156 7.40426C7.57132 7.20451 7.84116 7.09062 8.12363 7.08684C8.4061 7.08306 8.67888 7.1897 8.88391 7.38404L13.4771 11.9773L18.1322 7.32227C18.337 7.11737 18.6149 7.00227 18.9047 7.00227C19.1945 7.00227 19.4724 7.11737 19.6773 7.32227C19.8821 7.52716 19.9973 7.80506 19.9973 8.09482C19.9973 8.38458 19.8821 8.66248 19.6773 8.86737L15.0249 13.5233Z" fill="black"/>
</g>
</g>
<defs>
<clipPath id="clip0_9085_72953">
<rect width="13" height="13" fill="white" transform="translate(7 7)"/>
</clipPath>
</defs>
</svg>
