<svg id="图层_1" data-name="图层 1" xmlns="http://www.w3.org/2000/svg" xmlns:xlink="http://www.w3.org/1999/xlink" viewBox="0 0 60 60"><defs><style>.cls-1{fill:gray;}.cls-2{fill:#b2b2b2;}.cls-3{fill:#cbcbcb;}.cls-4{fill:#989898;}.cls-5{fill:#824141;}.cls-6{fill:#8e5754;}.cls-7{fill:#c67d79;}.cls-8{fill:#8c5554;}.cls-9{fill:url(#未命名的渐变_86);}.cls-10{fill:url(#未命名的渐变_86-2);}.cls-11{fill:url(#未命名的渐变_86-3);}.cls-12{fill:url(#未命名的渐变_86-4);}.cls-13{fill:url(#未命名的渐变_86-5);}.cls-14{fill:url(#未命名的渐变_86-6);}.cls-15{fill:url(#未命名的渐变_86-7);}.cls-16{fill:#e5e5e5;}.cls-17{fill:#666;}.cls-18{fill:url(#未命名的渐变_124);}.cls-19{fill:#4d4d4d;}.cls-20{fill:url(#未命名的渐变_20);}.cls-21{fill:#d8b25d;}</style><linearGradient id="未命名的渐变_86" x1="25.69" y1="32.26" x2="28.02" y2="32.26" gradientUnits="userSpaceOnUse"><stop offset="0" stop-color="#4d4d4d"/><stop offset="0.33" stop-color="#828282"/><stop offset="0.63" stop-color="#aaa"/><stop offset="0.86" stop-color="#c2c2c2"/><stop offset="1" stop-color="#cbcbcb"/></linearGradient><linearGradient id="未命名的渐变_86-2" x1="25.69" y1="32.85" x2="28.57" y2="32.85" xlink:href="#未命名的渐变_86"/><linearGradient id="未命名的渐变_86-3" x1="25.73" y1="33.88" x2="28.76" y2="33.88" xlink:href="#未命名的渐变_86"/><linearGradient id="未命名的渐变_86-4" x1="25.81" y1="34.93" x2="28.79" y2="34.93" xlink:href="#未命名的渐变_86"/><linearGradient id="未命名的渐变_86-5" x1="25.92" y1="35.99" x2="28.65" y2="35.99" xlink:href="#未命名的渐变_86"/><linearGradient id="未命名的渐变_86-6" x1="25.92" y1="36.8" x2="28.5" y2="36.8" xlink:href="#未命名的渐变_86"/><linearGradient id="未命名的渐变_86-7" x1="25.92" y1="37.51" x2="28.28" y2="37.51" xlink:href="#未命名的渐变_86"/><linearGradient id="未命名的渐变_124" x1="31.36" y1="7.94" x2="30.05" y2="9.57" gradientUnits="userSpaceOnUse"><stop offset="0" stop-color="#ffffcf"/><stop offset="1" stop-color="#8b6239"/></linearGradient><linearGradient id="未命名的渐变_20" x1="31.82" y1="26.37" x2="31.37" y2="30.23" gradientUnits="userSpaceOnUse"><stop offset="0" stop-color="#989898"/><stop offset="0.26" stop-color="#878787"/><stop offset="0.72" stop-color="#6f6f6f"/><stop offset="1" stop-color="#666"/></linearGradient></defs><path class="cls-1" d="M38,26.32s0,.2-.07.56C37.67,28.61,36.74,35,32,39a25.67,25.67,0,0,0,5.91-12.1v0l0-.15,0,0c0-.1.06-.19.08-.27h0Z"/><path class="cls-2" d="M22.22,25.11l.31-.33s10.64-.82,12.75-3C35.28,21.78,33.28,24.66,22.22,25.11Z"/><path class="cls-3" d="M33.35,26.41h-.06l0,.39.13,0C33.36,26.66,33.35,26.54,33.35,26.41Zm3.29-.31c0,.1,0,.21,0,.31v.06c.85,0,1.16.09,1.26.2l0,0c0-.1,0-.21.05-.31h0l0-.18A5.09,5.09,0,0,0,36.64,26.1Zm-3.29.3h-.06l0,.39.13,0c0-.12,0-.24,0-.37Zm0,0h-.06l0,.39.13,0C33.36,26.66,33.35,26.54,33.35,26.41Z"/><path class="cls-3" d="M33.29,26.41l0,.39.13,0a4.68,4.68,0,0,0,.08.54h0c.23,1,.84,1.71,1.55,1.71.9,0,1.63-1.14,1.65-2.56.85,0,1.16.09,1.26.2l0,0,0,.15v0a25.54,25.54,0,0,1-5.65,11.78h0a4.84,4.84,0,0,0-1.47.11c6-15.61-4.91-13.61-8.35-13.42l-.18-.28c5.69-.3,9.27-1.24,11.5-2.36,4.31-2.17,3.63-5,3.58-5.21A19.53,19.53,0,0,1,38,26.22a5.09,5.09,0,0,0-1.38-.12,2.35,2.35,0,0,0-1.42-2.28.82.82,0,0,0-.22,0c-.91,0-1.64,1.16-1.65,2.6Z"/><path class="cls-1" d="M33.45,27.32a4.45,4.45,0,0,1-.1-.91c0-1.44.74-2.61,1.65-2.61a.82.82,0,0,1,.22,0C34.65,23.88,33.27,24.35,33.45,27.32Z"/><path class="cls-1" d="M22.4,25.39s5.27-.65,7.08.46c0,0-1.36-1.21-7.26-.74"/><path class="cls-2" d="M33.7,26.36s3.12-.57,4.06-.2A38.06,38.06,0,0,0,33.7,26.36Z"/><path class="cls-4" d="M37.94,26.88h0v0s0-.07,0-.13l0,0c-.1-.11-.41-.21-1.26-.2a29.42,29.42,0,0,0-3.28.31l-.13,0,0-.39h.06a26.67,26.67,0,0,1,3.29-.3,5.09,5.09,0,0,1,1.38.12.74.74,0,0,1,.47.27S38.61,26.7,37.94,26.88Z"/><polygon class="cls-5" points="23.94 40.61 21.81 40.94 31.79 41.88 38.21 40.8 28.65 40.07 23.94 40.61"/><polygon class="cls-5" points="19.58 42.5 28.65 41.15 40.42 42.24 32.17 44.28 19.58 42.5"/><polygon class="cls-6" points="19.58 49.09 19.58 42.5 32.17 44.28 32.17 52.58 19.58 49.09"/><polygon class="cls-7" points="40.42 42.24 40.42 48.69 32.17 52.58 32.17 44.28 40.42 42.24"/><polygon class="cls-7" points="38.21 40.8 38.21 42.21 31.79 43.68 31.79 41.88 38.21 40.8"/><polygon class="cls-8" points="21.81 42.45 21.81 40.94 31.79 41.88 31.79 43.68 21.81 42.45"/><polygon class="cls-4" points="29.75 38.03 23.07 38.53 23.71 39.81 27.72 39.63 28.65 40.24 30.35 39.63 32.85 40.45 37.4 38.93 29.75 38.03"/><path class="cls-9" d="M27.8,25.85l.22,0s-.91,7-2.33,12.88Z"/><path class="cls-10" d="M28.46,27S25.7,38.54,25.69,38.7h.07l2.81-11.19Z"/><path class="cls-11" d="M28.74,28.84s-3,9.67-3,10l.08.12s2.82-9.53,3-9.66Z"/><path class="cls-12" d="M28.79,30.87l-3,8.06.11.06s2.76-7.47,2.84-7.48Z"/><polygon class="cls-13" points="28.64 32.99 25.92 38.99 26.39 38.38 28.65 33.28 28.64 32.99"/><polygon class="cls-14" points="28.5 34.62 25.92 38.99 28.43 35.05 28.5 34.62"/><path class="cls-15" d="M28.28,36l-2.36,3a2.57,2.57,0,0,1,.53-.29l1.83-2.43Z"/><path class="cls-2" d="M26,5.78l.4-.48s9.24,10.31-3.8,17.19C22.6,22.49,33.79,15.34,26,5.78Z"/><path class="cls-16" d="M26.4,5.3c.67.83,3.3,4.31,2.6,8.6a12.44,12.44,0,0,1-2.88,5.73,14.06,14.06,0,0,1-3.9,3.11c4-.89,5.7,1.39,6.28,4.47,0,.12.05.25.07.38s.06.4.08.6l0,.31a34.44,34.44,0,0,1-1,10,4.09,4.09,0,0,1,2,.35C39.17,14.14,26.4,5.3,26.4,5.3ZM30.64,24A2.21,2.21,0,0,1,28.9,21.6a2.15,2.15,0,0,1,1.85-2.36,1.88,1.88,0,0,1,1.67,1.31,3,3,0,0,1,.16,1A2.32,2.32,0,0,1,30.64,24Z"/><path class="cls-4" d="M32.42,20.55a1.88,1.88,0,0,0-1.67-1.31A2.15,2.15,0,0,0,28.9,21.6,2.21,2.21,0,0,0,30.64,24h-.12a2.28,2.28,0,0,1-2.06-2.45,2.27,2.27,0,0,1,2.06-2.44A2.1,2.1,0,0,1,32.42,20.55Z"/><path class="cls-17" d="M22.22,22.74l.18.18A6.66,6.66,0,0,1,26,23,4.8,4.8,0,0,0,22.22,22.74Z"/><circle class="cls-18" cx="30.75" cy="8.7" r="1.04"/><polygon class="cls-2" points="30.78 27.86 30.49 27.58 30.78 27.51 30.78 27.86"/><path class="cls-19" d="M28.68,28.5c-.9-.11-1-.2-1-.2l.67-.2c-.05.08.19.09.28.09Z"/><path class="cls-1" d="M28.57,27.59l-2,.31-.38-.32,2.31-.37C28.52,27.33,28.55,27.46,28.57,27.59Z"/><path class="cls-1" d="M28.08,25.65a54.58,54.58,0,0,0-7.58,1.86s6.53-1.61,7.64-1.7l0-.11"/><path class="cls-20" d="M30.13,38.07l-.38.74s5.92-14.71,2.08-25.38C31.83,13.43,36.67,21.83,30.13,38.07Z"/><path class="cls-4" d="M30.49,27.58s-2.54.39-3.21.57a9.09,9.09,0,0,1,3.5-.64Z"/><path class="cls-17" d="M30.78,27.85s-3.09.27-3,.49a.76.76,0,0,1-.51-.19,14.88,14.88,0,0,1,3.21-.57Z"/><path class="cls-16" d="M33,37.15l4.39-.1s2.79,1.91.13,3.68l-5.06.72a2.21,2.21,0,0,0,1.81-1A2.55,2.55,0,0,0,33,37.15Z"/><path class="cls-2" d="M28.92,25.26s2.94-1,4.81-.09Z"/><path class="cls-4" d="M20.26,27.18l.24.33s12.35-3.6,12.93-1.88c0,0,.63,0,.55-.26a.24.24,0,0,0-.18-.18A9.26,9.26,0,0,0,32.52,25a10.43,10.43,0,0,0-3.56.3c-2.27.46-3.41.68-3.69.75C23.9,26.31,22.21,26.71,20.26,27.18Z"/><path class="cls-1" d="M28.89,39.63l.86-.82,1.58-.6,1.46.1s1.53,1,.8,1.56a2.58,2.58,0,0,1-2.05.15Z"/><path class="cls-17" d="M28.16,38.81a2.54,2.54,0,0,1,.73.82,1.55,1.55,0,0,1,2.49-.19s1.21,1.15,1.73.53c0,0,.61-.73-.47-1.75L33,37.15a2.63,2.63,0,0,1,1.27,3.31,2.11,2.11,0,0,1-2.23,1,2.57,2.57,0,0,1-.84-.7s-1.26-1.08-1.42.33v.2l-1.91,0s.09-1.13-.36-1.25a1,1,0,0,0-1.05.07,3.55,3.55,0,0,1-1.76.6,3.19,3.19,0,0,1-1.82-.45,4.33,4.33,0,0,1-1-.85l1.18-.81a1.72,1.72,0,0,0,1.46.83,3.25,3.25,0,0,0,1.92-.67S27,38.23,28.16,38.81Z"/><path class="cls-21" d="M22.86,47l-.7-.12v.22c0,.18,0,.26-.13.29a.64.64,0,0,1-.36,0,3.57,3.57,0,0,0-.1-.35l.27,0s.05,0,.05,0v-.22l-.66-.11V46.4l.66.11v-.14l.14-.08-.48-.07v-.3l.78.12h.06l.17.2a1.53,1.53,0,0,1-.4.31h0l.7.12Zm-1.38-1-.24,0v-.56l.26,0a1.63,1.63,0,0,0-.11-.23l.22-.11a2,2,0,0,1,.16.33l-.07,0,.26,0c0-.09-.07-.21-.11-.3l.23-.08a1.48,1.48,0,0,1,.14.36l-.12,0,.21,0a1.88,1.88,0,0,0,.14-.34l.29.14-.14.24.25,0v.58l-.27,0v-.26l-1.1-.16Z"/><path class="cls-21" d="M23.42,46.61a2.34,2.34,0,0,0-.31-.33l.15-.22a1.85,1.85,0,0,1,.32.3Zm-.26.82c.07-.18.18-.47.26-.75l.22.23c-.07.26-.16.52-.24.76Zm.4-1.5c-.08-.09-.23-.24-.34-.34l.15-.22a2.67,2.67,0,0,1,.35.31Zm1.28,1.13c0,.07,0,.14,0,.2l.12,0v.32l-.15,0a.9.9,0,0,1-.06.22.19.19,0,0,1-.18.1.8.8,0,0,1-.25,0,1.23,1.23,0,0,0-.07-.32l.19.05a.06.06,0,0,0,.07,0s0,0,0,0l-.8-.14c0-.14.05-.31.07-.5l-.17,0v-.33l.2,0,0-.28,0,0-.25-.24a1.92,1.92,0,0,0,.31-.69l.28.13s0,.09,0,.14l.82.11v.34L24,46l-.06.12.94.13a1,1,0,0,1,0,.15c0,.13,0,.24,0,.35l.14,0v.34Zm-.82.06.21,0L24.1,47l.07,0-.13,0Zm.06-.52.18,0-.1-.15.06,0h-.13Zm.47.61a1.21,1.21,0,0,0,0-.2l-.23,0,.13.19,0,0Zm-.19-.74a.83.83,0,0,1,.12.16l0,0,.14,0V46.5Z"/><path class="cls-21" d="M25.94,47.1l-.22,0v.56c0,.17,0,.27-.09.32a.47.47,0,0,1-.32,0,1.8,1.8,0,0,0-.08-.39l.16,0s0,0,0,0v-.45l-.17,0-.06-.37.23,0v-.4l-.21,0V46l.21,0v-.48l.3,0v.48l.2,0v.35l-.2,0v.32l.18,0Zm1.31-.44a1.18,1.18,0,0,1,0,.16,4,4,0,0,1-.18,1.38.22.22,0,0,1-.2.1,1,1,0,0,1-.27,0,1.17,1.17,0,0,0-.08-.37l.2.05a.09.09,0,0,0,.08,0,2.83,2.83,0,0,0,.13-.94h0a2,2,0,0,1-.74,1.21,1.88,1.88,0,0,0-.24-.25,1.48,1.48,0,0,0,.68-1h-.09a1.51,1.51,0,0,1-.46.73,1.75,1.75,0,0,0-.23-.24,1.06,1.06,0,0,0,.4-.53.24.24,0,0,0-.16,0,3.3,3.3,0,0,0-.12-.38.5.5,0,0,0,.23-.1,3.22,3.22,0,0,0,.29-.2l-.51-.07v-.37l.86.11.08,0,.23.25a3.66,3.66,0,0,1-.55.44Z"/><path class="cls-21" d="M28.44,47.65c0,.12,0,.23-.06.28a.23.23,0,0,1-.2,0,1.17,1.17,0,0,0-.05-.3v.9l-.29,0V46.75h-.06v1.19l-.25,0V46.35l.31,0V45.9l.29,0v.5l.31,0Zm-.26,0s0,0,0,0v-.8h-.07v.83Zm1.36.74,0,0s0-.05,0-.08V48a.91.91,0,0,0,.24.2,2.1,2.1,0,0,1,0,.4.34.34,0,0,1-.08.17.2.2,0,0,1-.15,0l-.13,0a.31.31,0,0,1-.18-.12.68.68,0,0,1,0-.36v-.48l-.22.07c0-.15-.08-.38-.13-.6v.17a1.65,1.65,0,0,1-.37,1.26,1.8,1.8,0,0,0-.26-.29,1.27,1.27,0,0,0,.3-1V46l1,.13v2.18l0,0ZM29,46.88c.05.16.1.35.15.53V46.5l-.35,0v.49Z"/></svg>