<svg width="93" height="31" viewBox="0 0 93 31" fill="none" xmlns="http://www.w3.org/2000/svg">
<path d="M8.97187 9.36195H9.211L9.3257 9.15213L9.9721 7.9697L10.2983 7.37303H9.61827H2.37965L2.61975 5.73978H5.9488H6.49275L6.33464 5.21932L6.05086 4.2852L6.02575 4.20258L5.96902 4.13748L5.69605 3.82425H9.81849L10.3291 5.4569L10.4176 5.73978H10.714H14.75H14.9848L15.1007 5.53556L15.7471 4.39649L15.8863 4.15119L15.7036 3.9363L15.5984 3.81243H19.559L18.8277 5.12888L18.4948 5.72796H19.1802H22.4173L22.1749 7.35332H14.9353H14.6961L14.5814 7.56314L13.935 8.74557L13.6088 9.34225H14.2889H20.8928L19.2626 21.0892H1.44636L3.09112 9.36195H8.97187ZM15.5816 19.5387H15.9375L15.9818 19.1857L16.1118 18.1491L16.1687 17.6956H15.7117H5.79509H5.43793L5.39479 18.0502L5.26866 19.0868L5.21367 19.5387H5.66896H15.5816ZM5.72273 15.687L5.65978 16.1451H6.12223H16.0664H16.4234L16.4667 15.7908L16.5928 14.7581L16.6481 14.306H16.1926H6.26412H5.91249L5.86462 14.6543L5.72273 15.687ZM6.20792 12.2985L6.14132 12.7595H6.60702H16.5236H16.8715L16.9225 12.4154L17.0762 11.3788L17.1448 10.9164H16.6774H6.7568H6.40762L6.35769 11.262L6.20792 12.2985Z" stroke="#EAEAEC" stroke-width="0.806496"/>
<path d="M32.0156 15.3247L32.3656 15.0471L32.0537 14.7273L26.1564 8.67967L26.5246 5.92199L26.5482 5.74509L26.4331 5.60865L26.1648 5.29046H30.5057L30.1753 7.66555L30.1482 7.86079L30.2856 8.00215L34.7906 12.6373L35.0451 12.8991L35.3308 12.6718L41.1563 8.03665L41.2833 7.93557L41.3049 7.77467L41.5532 5.9222L41.5769 5.74518L41.4618 5.60865L41.1934 5.29046H45.5045L45.026 8.61287L37.3826 14.7013L37.0334 14.9794L37.3455 15.2986L43.5613 21.6567H38.8202L34.6032 17.3516L34.3487 17.0918L34.0641 17.3182L28.6208 21.6489H24.0423L32.0156 15.3247ZM34.3916 4.44849L34.4154 4.27174L34.3007 4.13517L34.0296 3.81243H38.1084L37.6022 7.43609H33.9882L34.3916 4.44849Z" stroke="#EAEAEC" stroke-width="0.806496"/>
<path d="M54.673 15.1283L55.0177 15.1279L55.071 14.7874L55.1854 14.0571L60.6648 12.4194L60.5493 11.6298H49.6173L49.8451 9.97682H66.2486L65.9496 12.1986L59.4882 14.3423L59.6152 15.1283H67.513L67.2879 16.7812H59.2526H58.9014L58.8532 17.129L58.4163 20.2778C58.354 20.6611 58.155 21.009 57.8561 21.257L57.856 21.2569L57.8504 21.2617C57.5588 21.5128 57.185 21.6478 56.8002 21.6411L56.8002 21.641H56.7931H52.6413L54.2615 19.9591L54.3514 19.8658L54.3701 19.7376L54.7327 17.2505L54.8 16.7891H54.3337H46.4326L46.6605 15.1358L54.673 15.1283ZM50.0241 5.33264L49.8448 3.81243H53.9516L54.1421 5.42715L54.1841 5.78314H54.5426H56.0048H56.4531L56.4058 5.33739L56.2442 3.81243H60.3521L60.5227 5.4224L60.561 5.78314H60.9237H62.3978H62.6708L62.7722 5.52965L63.459 3.81265L67.4781 3.81589L66.9108 5.23407L66.6896 5.78708H67.2852H68.2948L67.9205 8.42539H63.3497L63.4308 7.90544L63.5034 7.44003H63.0324H53.1788H52.8336L52.7804 7.78113L52.6799 8.42539H48.0943L48.4717 5.78314H49.6237H50.0773L50.0241 5.33264Z" stroke="#EAEAEC" stroke-width="0.806496"/>
<mask id="path-4-inside-1_9305_101709" fill="white">
<path d="M79.9844 10.9925H81.3324L81.1235 12.5218H79.7953L79.5627 14.2047H76.7643L76.6894 14.7211H80.5205L80.0278 18.2447H76.2204L76.1455 18.8123H79.949L79.6652 20.7041H75.8538L75.7514 21.5555H72.413L72.5155 20.7041H68.7593L69.0431 18.8123H72.748L72.8229 18.2447H69.0706L69.5633 14.7211H73.3668L73.422 14.2047H70.6236L70.8561 12.5218H69.5476L69.7525 10.9925H71.1005L71.1793 10.4762H74.2339L74.1551 10.9925H76.9496L77.0284 10.4762H80.083L79.9844 10.9925ZM87.6229 6.92887H82.9484L82.507 10.1924H78.5655L79.003 6.92887H74.2733L73.8792 9.75093H70.2294L70.8246 5.47843H79.1883L79.2395 4.9621H71.3961L71.601 3.40918H91.2806L91.0717 4.9621H83.1888L83.1376 5.47843H91.5013L90.9061 9.75093H87.2051L87.6229 6.92887ZM72.1923 17.0268H73.1776L73.3313 15.939H72.3499L72.1923 17.0268ZM76.6421 12.9868L76.6934 12.5218H73.8989L73.8477 12.9868H76.6421ZM78.2463 8.97447L78.0926 10.1569H74.3955L74.5492 8.97447H78.2463ZM78.4788 7.34272L78.3251 8.52515H74.6241L74.7778 7.34272H78.4788ZM77.3673 15.939H76.382L76.2283 17.0268H77.2136L77.3673 15.939ZM85.1871 21.5318L86.1685 20.3494L86.4011 18.6664H83.8668L83.4726 21.5634H80.2131L81.766 10.6062H90.8312L89.5109 20.0656C89.4467 20.4726 89.2348 20.8416 88.9157 21.1022C88.6155 21.3679 88.2288 21.5151 87.8279 21.5161L85.1871 21.5318ZM86.8425 8.97447L86.6888 10.1569H83.0115L83.1652 8.97447H86.8425ZM87.0751 7.34272L86.9214 8.52515H83.244L83.3977 7.34272H87.0751ZM84.1505 16.7154H86.6612L86.8189 15.6276H84.3043L84.1505 16.7154ZM84.5644 13.7397H87.1027L87.2564 12.6755H84.722L84.5644 13.7397Z"/>
</mask>
<path d="M79.9844 10.9925H81.3324L81.1235 12.5218H79.7953L79.5627 14.2047H76.7643L76.6894 14.7211H80.5205L80.0278 18.2447H76.2204L76.1455 18.8123H79.949L79.6652 20.7041H75.8538L75.7514 21.5555H72.413L72.5155 20.7041H68.7593L69.0431 18.8123H72.748L72.8229 18.2447H69.0706L69.5633 14.7211H73.3668L73.422 14.2047H70.6236L70.8561 12.5218H69.5476L69.7525 10.9925H71.1005L71.1793 10.4762H74.2339L74.1551 10.9925H76.9496L77.0284 10.4762H80.083L79.9844 10.9925ZM87.6229 6.92887H82.9484L82.507 10.1924H78.5655L79.003 6.92887H74.2733L73.8792 9.75093H70.2294L70.8246 5.47843H79.1883L79.2395 4.9621H71.3961L71.601 3.40918H91.2806L91.0717 4.9621H83.1888L83.1376 5.47843H91.5013L90.9061 9.75093H87.2051L87.6229 6.92887ZM72.1923 17.0268H73.1776L73.3313 15.939H72.3499L72.1923 17.0268ZM76.6421 12.9868L76.6934 12.5218H73.8989L73.8477 12.9868H76.6421ZM78.2463 8.97447L78.0926 10.1569H74.3955L74.5492 8.97447H78.2463ZM78.4788 7.34272L78.3251 8.52515H74.6241L74.7778 7.34272H78.4788ZM77.3673 15.939H76.382L76.2283 17.0268H77.2136L77.3673 15.939ZM85.1871 21.5318L86.1685 20.3494L86.4011 18.6664H83.8668L83.4726 21.5634H80.2131L81.766 10.6062H90.8312L89.5109 20.0656C89.4467 20.4726 89.2348 20.8416 88.9157 21.1022C88.6155 21.3679 88.2288 21.5151 87.8279 21.5161L85.1871 21.5318ZM86.8425 8.97447L86.6888 10.1569H83.0115L83.1652 8.97447H86.8425ZM87.0751 7.34272L86.9214 8.52515H83.244L83.3977 7.34272H87.0751ZM84.1505 16.7154H86.6612L86.8189 15.6276H84.3043L84.1505 16.7154ZM84.5644 13.7397H87.1027L87.2564 12.6755H84.722L84.5644 13.7397Z" stroke="#EAEAEC" stroke-width="1.61299" mask="url(#path-4-inside-1_9305_101709)"/>
<path d="M11.21 15.1472L11.8176 14.0358H4.57482L4.91195 11.7426H8.36847L8.10173 10.8646L7.2978 9.94208H12.2844L12.8475 11.7426H16.6411L17.2487 10.6719L16.6189 9.93097H21.8055L20.8053 11.7315H24.2877L23.9469 14.0173H16.8153L16.2077 15.1287H22.8503L21.2128 26.9283H3.7005L5.35281 15.1472H11.21ZM17.4228 24.7129L17.5451 23.7385H8.22398L8.10543 24.7129H17.4228ZM8.53148 21.5231H17.8785L17.9971 20.5524H8.66485L8.53148 21.5231ZM8.98716 18.3407H18.3083L18.4528 17.3664H9.12794L8.98716 18.3407Z" fill="#292945"/>
<path d="M32.6345 20.834L26.9625 15.0176L27.333 12.2427L26.555 11.3202H31.8861L31.5157 13.9839L35.7502 18.3407L41.2258 13.9839L41.4592 12.2427L40.6812 11.3202H45.9863L45.4529 15.025L38.1508 20.8414L44.623 27.4618H39.1067L35.0314 23.3014L29.8115 27.4544H24.2877L32.6345 20.834ZM34.7277 10.8572L33.9497 9.93097H39.0326L38.4509 14.0951H34.2905L34.7277 10.8572Z" fill="#292945"/>
<path d="M54.1664 20.5673L54.3109 19.6448L59.6901 18.0369H48.9798L49.2984 15.7252H65.4806L65.1102 18.4778L58.8121 20.5673H66.6699L66.355 22.879H58.4713L58.0601 25.8428C57.9877 26.2953 57.7533 26.7061 57.4006 26.9987C57.056 27.2954 56.6142 27.4549 56.1595 27.447H51.3656L53.5069 25.2241L53.8478 22.8864H45.9863L46.3049 20.5747L54.1664 20.5673ZM66.7625 9.93467L66.0215 11.787H67.4071L66.9477 15.025H61.8796L62.0241 14.0988H52.7623L52.6178 15.025H47.546L48.0091 11.7833H49.4206L49.202 9.93097H53.8255L54.0441 11.7833H55.4186L55.2222 9.93097H59.8457L60.0421 11.7833H61.4277L62.1686 9.93097L66.7625 9.93467Z" fill="#292945"/>
<path d="M77.9582 17.0589H79.2252L79.0288 18.4963H77.7804L77.5618 20.0782H74.9314L74.861 20.5636H78.462L77.9989 23.8756H74.4202L74.3498 24.4091H77.9248L77.6581 26.1873H74.0756L73.9793 26.9876H70.8414L70.9377 26.1873H67.4071L67.6738 24.4091H71.1563L71.2267 23.8756H67.6998L68.1629 20.5636H71.7379L71.7898 20.0782H69.1594L69.378 18.4963H68.1481L68.3407 17.0589H69.6077L69.6818 16.5736H72.553L72.4789 17.0589H75.1055L75.1796 16.5736H78.0508L77.9582 17.0589ZM85.138 13.2393H80.7441L80.3292 16.3068H76.6245L77.0357 13.2393H72.59L72.2196 15.8919H68.789L69.3484 11.876H77.2098L77.258 11.3906H69.8856L70.0782 9.93097H88.576L88.3796 11.3906H80.9701L80.922 11.876H88.7834L88.224 15.8919H84.7453L85.138 13.2393ZM70.6339 22.7308H71.5601L71.7046 21.7083H70.7821L70.6339 22.7308ZM74.8166 18.9335L74.8647 18.4963H72.2381L72.1899 18.9335H74.8166ZM76.3244 15.1621L76.1799 16.2735H72.7049L72.8494 15.1621H76.3244ZM76.543 13.6283L76.3985 14.7397H72.9197L73.0642 13.6283H76.543ZM75.4982 21.7083H74.5721L74.4276 22.7308H75.3538L75.4982 21.7083ZM82.8484 26.9653L83.7709 25.8539L83.9895 24.272H81.6073L81.2369 26.995H78.1731L79.6327 16.6958H88.1536L86.9125 25.5872C86.8522 25.9697 86.6531 26.3166 86.3531 26.5615C86.071 26.8113 85.7074 26.9496 85.3306 26.9505L82.8484 26.9653ZM84.4044 15.1621L84.2599 16.2735H80.8034L80.9479 15.1621H84.4044ZM84.623 13.6283L84.4785 14.7397H81.022L81.1665 13.6283H84.623ZM81.8741 22.4382H84.234L84.3822 21.4156H82.0186L81.8741 22.4382ZM82.2631 19.6411H84.6489L84.7934 18.6408H82.4113L82.2631 19.6411Z" fill="#292945"/>
</svg>
