<svg width="93" height="31" viewBox="0 0 93 31" fill="none" xmlns="http://www.w3.org/2000/svg">
<path d="M8.83387 9.08989L9.07265 9.09019L9.18772 8.88097L9.83794 7.69875L10.1666 7.10117H9.48461H2.26404L2.50633 5.47622H5.83153H6.37548L6.21737 4.95575L5.93363 4.0218L5.90878 3.93997L5.85285 3.87528L5.57434 3.55313H9.70387L10.2108 5.18474L10.2989 5.46834H10.5959H14.6352H14.87L14.9859 5.26411L15.6322 4.12523L15.7718 3.87919L15.5879 3.66416L15.4829 3.54131H19.4414L18.7076 4.87017L18.3773 5.46834H19.0606H22.2932L22.0509 7.09328H14.8164H14.5773L14.4626 7.30311L13.8163 8.48533L13.4902 9.08201H14.1702H20.772L19.1239 20.8071H1.32614L2.97423 9.08245L8.83387 9.08989ZM15.4627 19.2649H15.8185L15.8628 18.9119L15.9929 17.8754L16.0498 17.422H15.5928H5.67784H5.32203L5.27773 17.775L5.14769 18.8115L5.09079 19.2649H5.5478H15.4627ZM5.60531 15.4147L5.54352 15.8719H6.00492H15.9277H16.2829L16.3278 15.5196L16.4578 14.499L16.5157 14.0448H16.0578H6.14285H5.79043L5.74324 14.394L5.60531 15.4147ZM6.08287 12.0244L6.0143 12.4868H6.48176H16.3927H16.7393L16.7914 12.1442L16.949 11.1078L17.0196 10.6439H16.5504H6.63545H6.28759L6.23656 10.988L6.08287 12.0244Z" stroke="#EAEAEC" stroke-width="0.806496"/>
<path d="M31.8901 15.0477L32.24 14.7702L31.9283 14.4503L26.0358 8.4038L26.4039 5.65053L26.4275 5.47405L26.313 5.33773L26.042 5.01515H30.4003L30.0697 7.40582L30.0428 7.60003L30.1789 7.7411L34.6478 12.3715L34.9022 12.6351L35.189 12.407L41.0292 7.76087L41.1552 7.66058L41.1775 7.50103L41.4376 5.63706L41.4624 5.45935L41.347 5.32196L41.076 4.99939H45.3879L44.9062 8.32112L37.2637 14.4165L36.9151 14.6946L37.2267 15.0136L43.4379 21.3706H38.6974L34.4812 17.0662L34.2266 16.8064L33.942 17.0329L28.4918 21.3706H23.9183L31.8901 15.0477ZM34.2656 4.17326L34.2896 3.99604L34.1743 3.85933L33.9061 3.54131H37.9852L37.476 7.16028H33.8624L34.2656 4.17326Z" stroke="#EAEAEC" stroke-width="0.806496"/>
<path d="M54.5523 14.8513L54.8962 14.8501L54.9494 14.5104L55.0637 13.7804L60.5499 12.1429L60.4345 11.3532H49.4998L49.7249 9.7007H66.1256L65.8081 11.9411L59.346 14.085L59.473 14.871H67.3687L67.1409 16.5235H59.1341H58.7834L58.7347 16.8708L58.294 20.0191C58.2315 20.4009 58.0348 20.7481 57.7393 20.998C57.4427 21.2488 57.0662 21.3852 56.6779 21.3825H56.6751H52.5241L54.1439 19.701L54.2338 19.6077L54.2525 19.4794L54.6151 16.9928L54.6823 16.5314H54.216H46.3157L46.5409 14.8777L54.5523 14.8513ZM49.9034 5.06118L49.724 3.54131H53.83L54.0205 5.15569L54.0625 5.51169H54.421H55.8712H56.3185L56.2722 5.06672L56.1136 3.54131H60.2208L60.3881 5.15015L60.4257 5.51169H60.7892H62.267H62.54L62.6414 5.2582L63.3282 3.54131H67.3539L66.787 4.95867L66.5658 5.51169H67.1614H68.1702L67.793 8.14941H63.2285L63.3115 7.63118L63.3862 7.16422H62.9133H53.0614H52.7175L52.6632 7.50376L52.5599 8.14941H47.9739L48.3511 5.51169H49.5029H49.9565L49.9034 5.06118Z" stroke="#EAEAEC" stroke-width="0.806496"/>
<path d="M70.6479 21.3036L71.4345 15.7061L71.4991 15.2467H71.0352H69.4402L74.1876 8.89657L74.6696 8.25187H73.8646H70.3404L70.5455 6.69391H77.3669L77.0446 9.21096L75.1939 11.6633L75.1227 11.7577L75.1137 11.8757L75.0901 12.187L75.0771 12.3573L75.1904 12.485L76.5124 13.9763L75.9983 17.5049L75.1236 16.5209L74.5452 15.8702L74.423 16.7322L73.7746 21.3036H70.6479ZM87.145 5.51169H91.1575L89.4743 17.4456H85.3322H84.9818L84.9329 17.7926L84.438 21.3036H81.3127L81.7985 17.906L81.8644 17.4456H81.3993H77.4615L79.141 5.51169H83.1845H83.5297L83.5829 5.17059L83.7366 4.1854L83.7578 4.04981L83.6918 3.92946L83.4791 3.54131H86.9632L86.7458 5.05096L86.6795 5.51169H87.145ZM72.8752 3.66535L72.8493 3.5677L72.8247 3.54131H76.1377L76.5854 5.35936H73.3238L72.8752 3.66535ZM81.7343 15.8877H82.0889L82.1342 15.536L82.5283 12.482L82.587 12.0271H82.1284H81.1156H80.7638L80.7161 12.3757L80.2984 15.4298L80.2357 15.8877H80.6979H81.7343ZM81.0241 10.1725L80.9558 10.6347H81.423H82.4594H82.8069L82.8582 10.2909L83.2523 7.65064L83.3214 7.18786H82.8535H81.8131H81.4651L81.4142 7.53217L81.0241 10.1725ZM86.6721 15.8719H87.0266L87.072 15.5203L87.4661 12.4662L87.5248 12.0113H87.0661H86.081H85.7314L85.6818 12.3574L85.2444 15.4115L85.1784 15.8719H85.6435H86.6721ZM86.7745 7.18392H86.4229L86.375 7.53231L86.0125 10.1726L85.9496 10.6307H86.412H87.3972H87.7447L87.796 10.287L88.1901 7.6467L88.2591 7.18392H87.7912H86.7745Z" stroke="#EAEAEC" stroke-width="0.806496"/>
<path d="M11.0807 14.8721L11.6919 13.7608H4.46521L4.80599 11.4754H8.25821L7.99152 10.5975L7.18773 9.66779H12.1772L12.7365 11.468H16.5332L17.1407 10.3975L16.5073 9.65668H21.693L20.6929 11.468H24.171L23.8303 13.7534H16.7036L16.0961 14.8646H22.7376L21.0818 26.6437H3.58734L5.24308 14.8646L11.0807 14.8721ZM17.311 24.436L17.4333 23.4619H8.11375L7.99152 24.436H17.311ZM8.42119 21.2468H17.7481L17.8704 20.2875H8.55084L8.42119 21.2468ZM8.86939 18.065H18.1852L18.3334 17.0908H9.01385L8.86939 18.065Z" fill="#292945"/>
<path d="M32.5164 20.5541L26.8491 14.7387L27.2195 11.968L26.4416 11.042H31.7867L31.4162 13.7201L35.6167 18.0724L41.1062 13.7053L41.3506 11.9532L40.5728 11.0272H45.8771L45.34 14.7313L38.0392 20.5541L44.5065 27.1734H38.9911L34.9166 23.0137L29.6901 27.1734H24.171L32.5164 20.5541ZM34.6092 10.579L33.8313 9.65668H38.9171L38.3318 13.8164H34.1721L34.6092 10.579Z" fill="#292945"/>
<path d="M54.052 20.2874L54.1965 19.3651L59.5823 17.7575H48.87L49.1848 15.4462H65.3681L64.9754 18.2169L58.6785 20.306H66.5349L66.2163 22.6173H58.3599L57.945 25.5806C57.8725 26.0304 57.6414 26.4393 57.2936 26.7335C56.9457 27.0277 56.5041 27.1876 56.0485 27.1845H51.2554L53.3964 24.962L53.7372 22.6247H45.8771L46.1919 20.3134L54.052 20.2874ZM66.646 9.65668L65.9052 11.5087H67.2905L66.8275 14.7461H61.764L61.9121 13.8201H52.6519L52.5037 14.7461H47.4328L47.8958 11.5087H49.3071L49.0885 9.65668H53.7113L53.9298 11.5087H55.2929L55.1003 9.65668H59.723L59.9156 11.5087H61.3047L62.0455 9.65668H66.646Z" fill="#292945"/>
<path d="M74.4691 24.0212L73.106 22.4877L72.4503 27.1104H68.7462L69.5463 21.4172H67.2905L72.2059 14.8424H68.461L68.7536 12.62H75.9285L75.5581 15.5129L73.7579 17.8983L73.7357 18.1909L75.0951 19.7244L74.4691 24.0212ZM75.2469 12.1236H71.4058L70.9094 10.2493L70.3575 9.65668H74.6395L75.2469 12.1236ZM79.2881 23.4841H75.1506L76.836 11.5087H80.9661L81.1105 10.5827L80.6031 9.65668H84.9554L84.6887 11.5087H88.8965L87.2075 23.4841H82.9848L82.4736 27.1104H78.7695L79.2881 23.4841ZM79.603 21.2616L79.9734 18.3909H79.0214L78.6288 21.2616H79.603ZM79.3103 16.3241H80.2845L80.6549 13.8423H79.677L79.3103 16.3241ZM84.2442 21.2468L84.6146 18.3761H83.6886L83.2774 21.2468H84.2442ZM84.3405 13.8386L83.9997 16.3204H84.9258L85.2962 13.8386H84.3405Z" fill="#292945"/>
</svg>
