<svg width="93" height="31" viewBox="0 0 93 31" fill="none" xmlns="http://www.w3.org/2000/svg">
<path d="M4.29217 21.7264L5.10756 15.9382L5.17229 15.4787H4.70825H2.66207L8.04337 9.30319L8.62561 8.63502H7.73935H3.82097L4.04552 7.00243H12.0977L11.7378 9.53462L9.33333 12.3022L9.25674 12.3904L9.23911 12.5058L9.16017 13.0228L9.03298 13.8559L9.76149 13.4323L11.8115 12.2404L11.5099 14.4705L10.6474 14.9827L10.2104 15.2422L10.5625 15.6088L11.1011 16.1694L10.7822 18.3909L9.27997 16.7973L8.70235 16.1845L8.58709 17.0187L7.9366 21.7264H4.29217ZM10.0303 3.94369L10.6123 5.75784H7.50776L6.92552 4.03493L6.89469 3.94369H10.0303ZM15.9967 4.50428L16.0213 4.32878L15.9087 4.19194L15.6622 3.89238H19.8116L19.0898 8.82198L19.0223 9.28365H19.4888H22.2669L22.7899 17.8389H20.1236L19.6584 10.5675L18.8567 10.5369L17.2718 21.7501H13.5747L15.9967 4.50428Z" stroke="#EAEAEC" stroke-width="0.806496"/>
<path d="M33.0419 9.23234L33.3941 9.2325L33.4417 8.88353L33.6745 7.17459L33.7369 6.7169H33.2749H25.479L25.6555 5.3961H33.5907H33.937L33.9893 5.05371L34.0682 4.53669L34.097 4.34851L33.97 4.20673L33.6883 3.89238H37.2992L37.1538 4.93729L37.09 5.3961H37.5532H45.4162L45.2398 6.7169H37.2533H36.9013L36.8537 7.0657L36.6209 8.77465L36.5585 9.23234H37.0204H39.7437H39.9626L40.0818 9.04879L40.9216 7.75626H43.8866L43.3455 8.6139L42.9552 9.23234H43.6865H45.4685L45.2529 10.6834H32.9119H32.7286L32.6081 10.8214L31.5227 12.0647L30.9392 12.7331H31.8265H44.4259L44.2283 14.1289H34.3406H34.0527L33.9592 14.4012L33.6474 15.3089L33.4639 15.8432H34.0288H43.96L43.3267 20.3088L43.3267 20.3088L43.3259 20.3146C43.2778 20.693 43.0876 21.039 42.7938 21.2824L42.7937 21.2823L42.7871 21.2881C42.4954 21.5407 42.1209 21.6771 41.7351 21.6712V21.6711H41.7289H33.3657L34.8997 20.0662H39.42H39.77L39.8193 19.7197L40.1034 17.7227L40.1689 17.2626H39.7042H29.0609L29.8164 15.2417L29.1345 14.8358L27.8578 16.3036H24.1323L28.6473 11.3545L29.2631 10.6794H28.3494H24.4369L24.6551 9.22855L33.0419 9.23234Z" stroke="#EAEAEC" stroke-width="0.806496"/>
<path d="M49.9052 21.2844H46.7232L48.1301 19.3302L48.1884 19.2492L48.2022 19.1504L49.4218 10.4162L49.4859 9.95718H49.0224H48.4194L48.6477 8.30091H53.327L51.9659 18.1038L51.9183 18.4465L52.2498 18.5456L55.8019 19.6073L55.8584 19.6241H55.9174H67.5089L67.2832 21.2805L53.9053 21.2843L50.9 20.3704L50.624 20.2865L50.4555 20.5205L49.9052 21.2844ZM57.4211 8.99812H54.9562L55.2064 7.2116H58.613H58.8714L58.9793 6.97688L60.2502 4.21415L60.3581 3.9797L60.2919 3.90233L64.2535 3.89376L62.9682 6.63728L62.6991 7.2116H63.3333H68.5688L68.3186 8.99812H65.583H65.0899L65.1877 9.48138L66.8581 17.7323H63.1178L61.7313 10.9506L61.4888 9.76408L60.9716 10.8592L57.726 17.7323H54.0327L57.7874 9.56989L58.0505 8.99812H57.4211ZM49.3628 4.3581H52.4964L53.2713 6.50772H50.1349L49.3628 4.3581Z" stroke="#EAEAEC" stroke-width="0.806496"/>
<path d="M80.9148 3.89238H85.2252L83.0556 7.26509L82.9315 7.45792L83.0338 7.66312L90.0565 21.754H86.0334L81.0135 11.5558L80.6981 10.9151L80.3123 11.5161L73.7416 21.754H69.7705L80.9358 4.35817L81.0958 4.10887L80.9148 3.89238Z" stroke="#EAEAEC" stroke-width="0.806496"/>
<path d="M13.1752 24.8672L11.2239 22.7972L10.5672 27.5494H6.37524L7.2025 21.6768H4.44617L10.0516 15.2442H5.93378L6.2491 12.9515H14.5849L14.1694 15.8748L11.836 18.5607L11.7618 19.0466L14.3586 17.5368L13.9468 20.5825L12.9786 21.1575L13.6129 21.8178L13.1752 24.8672ZM13.2716 12.5398H9.56189L8.92754 10.6626L8.31543 10.0765H12.4815L13.2716 12.5398ZM17.4377 10.9297L16.6957 10.0283H21.8374L21.0955 15.0958H24.0633L24.6012 23.8953H21.3366L20.8766 16.7058L19.3408 27.5716H15.1005L17.4377 10.9297Z" fill="#292945"/>
<path d="M33.8348 15.0475L34.0536 13.4412H26.2928L26.5599 11.4416H34.3504L34.4246 10.9556L33.5936 10.0282H38.2716L38.075 11.4416H45.8988L45.6317 13.4412H37.793L37.5742 15.0475H40.1339L41.0353 13.66H44.7154L43.8399 15.0475H45.9545L45.6392 17.1695H33.7123L32.6921 18.338H44.9714L44.6783 20.4081H35.0552L34.7622 21.2613H44.5336L43.877 25.8911C43.8196 26.3422 43.5929 26.7547 43.2427 27.0448C42.8981 27.3432 42.4557 27.5043 41.9999 27.4974H33.2523L35.4188 25.2307H39.8297L40.0968 23.3536H29.5463L30.4478 20.9423L29.1345 22.4521H24.6012L29.4239 17.1657H25.3061L25.6251 15.0438L33.8348 15.0475Z" fill="#292945"/>
<path d="M53.3888 27.1338L50.51 26.2583L49.8794 27.1338H45.9545L47.7092 24.6965L48.8555 16.4869H47.8539L48.1729 14.172H53.3369L51.9977 23.8173L55.3364 24.8152H66.666L66.3506 27.1301L53.3888 27.1338ZM52.3872 10.4659L53.3888 13.2445H49.6345L48.6366 10.4659H52.3872ZM63.7687 10.0282L62.307 13.1481H67.6639L67.3226 15.5854H64.4216L66.0835 23.7951H61.7951L60.4299 17.1175L57.2766 23.7951H52.9733L56.7498 15.5854H53.9972L54.3385 13.1481H57.8702L59.0647 10.5513L58.627 10.0393L63.7687 10.0282Z" fill="#292945"/>
<path d="M83.5787 10.0282L81.1637 13.7825L88.0378 27.5753H83.4081L78.5854 17.7779L72.2974 27.5753H67.6639L78.5335 10.6403L78.0215 10.0282H83.5787Z" fill="#292945"/>
</svg>
