<svg width="93" height="32" viewBox="0 0 93 32" fill="none" xmlns="http://www.w3.org/2000/svg">
<path d="M19.2863 11.2585L18.6032 12.8536H16.0821L17.4238 9.92284L17.6853 9.35174H17.0572H16.3796L16.5522 8.14141H17.9868H18.2559L18.3591 7.89294L18.6309 7.23905L18.8629 6.68103H18.2586H17.1218L17.2778 5.47132L19.1915 5.47464L19.4493 5.47509L19.5579 5.24121L19.7627 4.80003L19.849 4.61429L19.7499 4.43509L19.7105 4.36382H22.3145L22.0732 4.90799L21.8221 5.47465H22.4419H23.4622L23.3111 6.68103H21.5438H21.2798L21.1742 6.92299L20.8906 7.57294L20.6442 8.13748H21.2602H23.5582L23.3996 9.35174H22.2174H21.6772L21.8308 9.86962L22.7132 12.8457H20.5082L20.0431 11.301L19.7232 10.2384L19.2863 11.2585ZM13.2284 8.13748H15.1279L14.9577 9.3478H14.0674H13.5237L13.6815 9.86808L14.5833 12.8418H12.3258L11.9297 11.4781L11.6247 10.4281L11.1749 11.4247L10.5336 12.8457H7.97992L9.32094 9.92316L9.58314 9.35174H8.95444H8.30753L8.47773 8.14141H9.888H10.1469L10.2546 7.90603L10.554 7.25214L10.8155 6.68103H10.1874H9.0388L9.19442 5.47381L11.0977 5.49039L11.3555 5.49263L11.4657 5.25964L11.6745 4.81846L11.7619 4.63376L11.6647 4.45405L11.6244 4.37958H14.2981L14.0483 4.91727L13.7821 5.4904H14.414H15.2763L15.126 6.68103H13.512H13.248L13.1424 6.923L12.8588 7.57295L12.6124 8.13748H13.2284ZM17.262 20.4196H17.6201L17.6624 20.064L17.7885 19.0044L17.8421 18.5535H17.388H11.2824H10.9256L10.8822 18.9076L10.7522 19.9672L10.6967 20.4196H11.1525H17.262ZM11.7394 15.5361H11.3917L11.3405 15.8801L11.183 16.9397L11.1142 17.4022H11.5818H17.6913H18.0403L18.0904 17.0568L18.2441 15.9972L18.3109 15.5361H17.845H11.7394ZM3.91187 22.1341H0.930464L2.97829 15.6966H5.93519L3.91187 22.1341ZM6.22902 13.862H3.21964L3.02961 10.2449H6.03898L6.22902 13.862ZM6.9932 8.45362H3.97201L3.78197 4.83651H6.80317L6.9932 8.45362ZM8.34779 14.184H21.7141L20.6457 21.7875H7.27938L8.34779 14.184Z" stroke="#EAEAEC" stroke-width="0.806496"/>
<path d="M36.4689 7.70779L36.147 8.30292H36.8236H45.7786L44.0311 20.8396C43.9705 21.2229 43.7697 21.5701 43.4677 21.8139L43.4676 21.8138L43.4592 21.8209C43.1678 22.0695 42.7971 22.2058 42.414 22.205H42.4132H38.2445L39.9139 20.4821L40.0055 20.3875L40.0237 20.2571L41.3945 10.4093L41.4583 9.95048H40.9951H35.4922H35.2508L35.1367 10.1633L28.6922 22.1893H24.6917L30.9433 10.5445L31.2622 9.95048H30.588H25.7124L25.9374 8.29898H31.8879H32.1294L32.2434 8.08603L33.9766 4.84809L34.1042 4.60975L33.9322 4.4012L33.9013 4.36382H38.278L36.4689 7.70779Z" stroke="#EAEAEC" stroke-width="0.806496"/>
<path d="M54.9384 8.80712H57.4761L57.0441 9.67824L56.7552 10.2607H57.4053H58.6754L58.4319 11.9121H55.1049H54.7516L54.7052 12.2624L54.6027 13.0344L54.5422 13.4907H55.0025H57.7226L57.495 15.1422H54.6637H54.3129L54.2644 15.4896L53.5165 20.8391C53.455 21.2228 53.2531 21.57 52.95 21.8131L52.9499 21.813L52.9419 21.8198C52.6438 22.0719 52.2651 22.2086 51.8746 22.205V22.205H51.8709H49.4418L50.2164 21.4179L50.3097 21.323L50.3282 21.1913L51.1161 15.6017L51.1808 15.1422H50.7168H47.9808L48.2084 13.4907H51.0634H51.4155L51.463 13.1419L51.5654 12.3895L51.6277 11.9318H51.1658H47.9341L48.1776 10.2803H49.5626H50.0599L49.9571 9.79376L49.7487 8.80712H52.3672L52.6108 9.96043L52.6784 10.2803H53.0054H53.9626H54.2136L54.3244 10.0551L54.9384 8.80712ZM56.0818 5.85674H58.7975L58.554 7.50824H49.0488L49.2923 5.85674H52.1506H52.5009L52.5499 5.50991L52.6523 4.78511L52.6779 4.60381L52.5583 4.46521L52.4877 4.38351H55.8261L55.6825 5.39691L55.6174 5.85674H56.0818ZM63.5661 10.2607H69.0057L68.7577 11.8964H68.1197H67.7693L67.7204 12.2433L66.3198 22.1696H63.4354L64.8202 12.356L64.885 11.8964H64.4209H63.2037H62.8534L62.8044 12.2433L61.4038 22.1696H58.5436L60.8745 5.78541L69.3266 4.44484L69.0875 6.0669L63.8651 6.89876L63.571 6.94561L63.5292 7.24048L63.1668 9.80089L63.1017 10.2607H63.5661ZM49.6 16.642L48.3975 20.7633H46.7797L47.9821 16.642H49.6ZM55.4764 20.7515L55.4336 16.642H57.085L57.1279 20.7515H55.4764Z" stroke="#EAEAEC" stroke-width="0.806496"/>
<path d="M84.01 13.3962H90.4538L90.235 14.9177H83.6713H83.32L83.2718 15.2657L83.1182 16.3765L83.0548 16.835H83.5177H89.9357L89.7373 18.2541H83.2104H82.858L82.8108 18.6034L82.7044 19.3912L82.6427 19.8484H83.1041H90.6922L90.4974 21.2439H70.2699L70.4671 19.8484H77.8808H78.235L78.2807 19.4971L78.3831 18.7093L78.4423 18.2541H77.9832H72.1836L72.382 16.835H78.2944H78.6457L78.6939 16.487L78.8475 15.3762L78.9109 14.9177H78.448H74.5405H74.2571L74.1611 15.1843L73.9734 15.7055H71.665L72.9488 12.5414H75.1995L75.0795 12.8444L74.8608 13.3962H75.4543H78.7947H79.1445L79.1939 13.0498L79.4263 11.419L79.4919 10.9589H79.0271H72.4782L73.2934 5.05168L73.3163 4.88577L73.2149 4.75246L72.9194 4.36382H91.6418L90.7257 10.9589H84.2464H83.8974L83.8473 11.3043L83.611 12.9351L83.5441 13.3962H84.01ZM86.4287 9.69342H86.7805L86.8282 9.34484L86.9306 8.59641L86.9933 8.13849H86.5311H77.4121H77.0602L77.0125 8.48707L76.9101 9.2355L76.8474 9.69342H77.3096H86.4287ZM77.2598 6.57762L77.1716 7.05422H77.6563H86.8226H87.1647L87.2204 6.71663L87.3504 5.92881L87.4278 5.45991H86.9526H77.802H77.4665L77.4055 5.7898L77.2598 6.57762Z" stroke="#EAEAEC" stroke-width="0.806496"/>
<path d="M3.13324 27.9405L5.29923 21.1315H8.87219L6.73212 27.9405H3.13324ZM5.44362 20.1652L5.22518 16.0072H8.81294L9.03139 20.1652H5.44362ZM6.15081 15.0816L5.93236 10.9236H9.53124L9.74969 15.0816H6.15081ZM10.294 19.7098H23.6231L22.5124 27.6147H9.1832L10.294 19.7098ZM13.2116 11.5382L13.4078 11.1236L13.0672 10.4941H16.8104L16.3254 11.5382H17.5658L17.3288 13.4154H15.4775L15.2109 14.0263H17.4325L17.1659 15.9221H15.9996L16.9956 19.2062H14.078L13.6263 17.6511L12.9228 19.2099H9.68674L11.1937 15.9258H10.1496L10.4161 14.0301H12.0712L12.3526 13.4154H10.8419L11.0863 11.5197L13.2116 11.5382ZM19.0023 25.5709L19.1208 24.5749H13.3819L13.2597 25.5709H19.0023ZM13.8114 21.7388L13.6633 22.7347H19.4059L19.5503 21.7388H13.8114ZM20.8166 11.5234L21.0091 11.1087L20.6611 10.4793H24.334L23.8712 11.5234H25.2596L25.0227 13.4154H23.027L22.7604 14.0263H25.3522L25.1041 15.9258H23.6601L24.6339 19.2099H21.7719L21.2535 17.4882L20.513 19.2173H17.3029L18.8098 15.9258H17.7361L18.0064 14.0301H19.6836L19.9391 13.4154H18.4396L18.6839 11.5197L20.8166 11.5234Z" fill="#292945"/>
<path d="M37.3893 14.1819H46.2421L44.5389 26.4003C44.468 26.8548 44.2304 27.2666 43.8724 27.5555C43.5297 27.8478 43.0937 28.0081 42.6432 28.0072H37.8299L40.0218 25.7449L41.3103 16.4885H36.1378L29.9731 27.9924H25.3523L31.5281 16.4885H26.5112L26.8259 14.1782H32.75L34.3791 11.1347L33.8385 10.4793H39.3923L37.3893 14.1819Z" fill="#292945"/>
<path d="M48.5523 26.652H46.2419L47.5934 22.0201H49.9038L48.5523 26.652ZM50.7739 19.0581L50.8701 18.3509H47.3934L47.7341 16.0405H49.3632L49.0707 14.6558H52.3067L52.5992 16.0405H53.4989L54.1802 14.6558H57.4125L56.735 16.022H58.3678L58.0271 18.3324H54.5727L54.4764 19.0581H57.4681L57.1496 21.3685H54.158L53.4545 26.4003C53.3826 26.8553 53.1437 27.2672 52.7843 27.5555C52.4348 27.8511 51.9907 28.0114 51.5329 28.0072H48.345L49.7075 26.6224L50.448 21.3685H47.4416L47.76 19.0581H50.7739ZM51.7958 11.8826L51.892 11.2013L51.2848 10.4978H55.6871L55.4909 11.8826H58.4826L58.1419 14.193H48.4413L48.7819 11.8826H51.7958ZM54.4986 22.0201H56.809L56.8571 26.6409H54.5468L54.4986 22.0201ZM59.66 11.8641L68.3906 10.4793L68.0499 12.7897L62.8664 13.6154L62.5257 16.022H68.0796L67.7315 18.3176H66.8059L65.4433 27.9738H61.9667L63.3292 18.3176H62.1851L60.8226 27.9738H57.3681L59.66 11.8641Z" fill="#292945"/>
<path d="M71.0898 18.1658H74.0185L73.7001 18.9692H76.8398L77.0583 17.4364H70.4677L71.2934 11.4531L70.5529 10.4793H89.3507L88.3844 17.4364H81.9642L81.742 18.9692H88.2363L87.9216 21.1575H81.4236L81.2792 22.2016H87.7475L87.455 24.2935H80.9904L80.8904 25.034H88.4584L88.1696 27.1037H68.3906L68.6831 25.034H75.9808L76.0771 24.2935H70.1901L70.4826 22.2016H76.3696L76.514 21.1575H72.8411L72.5745 21.898H69.5754L71.0898 18.1658ZM84.0154 15.4889L84.1116 14.7854H75.5402L75.444 15.4889H84.0154ZM75.7698 13.0081H84.3856L84.5078 12.2676H75.9068L75.7698 13.0081Z" fill="#292945"/>
</svg>
