<svg width="93" height="31" viewBox="0 0 93 31" fill="none" xmlns="http://www.w3.org/2000/svg">
<path d="M1.89312 21.1059L2.90145 19.2277L2.93546 19.1644L2.94548 19.0932L4.19773 10.1927L4.26236 9.7333H3.79841H3.27477L3.52044 8.06702H8.14886L6.75563 17.9105L6.70701 18.254L7.03942 18.3534L10.6059 19.4194L10.6624 19.4363H10.7214H22.3619L22.1349 21.1026H8.69531L6.20318 20.3662L5.89261 20.2744L5.73597 20.5578L5.43481 21.1028L1.89312 21.1059ZM13.7225 17.647H10.5781L11.095 14.6554L11.1765 14.1835H10.6976H9.05649L9.30215 12.5172H11.1652H11.5044L11.5625 12.1831L12.0816 9.19912L12.1638 8.72675H11.6844H10.3511L10.5781 7.06047H12.1005H12.437L12.4972 6.72935L12.8618 4.72418L12.8963 4.53436L12.7701 4.38838L12.5143 4.09234H16.0979L15.6582 6.58723L15.5748 7.06047H16.0553H17.6404H17.9911L18.0398 6.7132L18.4072 4.09234H21.5587L21.2233 6.60385L21.1624 7.06047H21.623H22.6396L22.3992 8.72675H21.2664H20.9157L20.8671 9.07402L20.451 12.0422L20.3866 12.5014H20.8503H22.3629L22.1084 14.1835H20.4738H20.1214L20.0742 14.5328L19.6538 17.647H16.5048L16.9107 14.6407L16.9724 14.1835H16.511H14.6604H14.3209L14.2631 14.5181L13.7225 17.647ZM14.6951 12.0449L14.6129 12.5172H15.0924H16.9073H17.2606L17.3071 12.1671L17.7033 9.18309L17.7639 8.72675H17.3036H15.6115H15.2723L15.2142 9.06089L14.6951 12.0449ZM4.28847 4.10819H7.39074L8.16996 6.26982H5.06482L4.28847 4.10819Z" stroke="#EAEAEC" stroke-width="0.806496"/>
<path d="M28.5977 6.28567H28.2469L28.1983 6.63308L26.0594 21.9308H23.5686L25.9924 4.54013H32.7771L32.4862 6.57665L31.3724 10.4572L31.2247 10.9717H31.76H32.2762L32.191 12.7547L30.8206 19.0657H27.9159L28.1123 17.6609H28.5541H28.8814L28.9487 17.3406L29.8839 12.8904L29.9861 12.4042H29.4893H28.7997L29.0446 10.6526L30.1542 6.80054L30.3025 6.28567H29.7667H28.5977ZM36.8334 10.0583H33.743L37.0437 4.28553L37.1542 4.09234H43.0778L45.3711 10.0751L42.2985 10.0597L40.878 5.62669L40.7882 5.34649H40.494H39.7014H39.4647L39.3493 5.55313L36.8334 10.0583ZM35.0838 21.903H32.3308L35.2284 11.5186H37.9814L35.0838 21.903ZM40.9203 11.5186H43.7002L42.2511 21.9308H39.4712L40.9203 11.5186Z" stroke="#EAEAEC" stroke-width="0.806496"/>
<path d="M50.098 12.4063L50.4494 12.4078L50.4989 12.0599L51.5372 4.77232L51.5618 4.5997L51.4529 4.46354L51.1844 4.128H55.151L54.8205 6.44168L54.7547 6.90195H55.2197H57.8514L57.6267 8.51672H54.863H54.5107L54.4634 8.86583L54.0473 11.937L53.9853 12.3944H54.4469H56.9236L55.6576 21.4275H46.4223L47.6881 12.3959L50.098 12.4063ZM60.0098 4.41585L59.737 4.09234H63.3444L63.8983 8.49478L63.9477 8.88698L64.3408 8.84546L68.2539 8.43207L68.0046 10.2125L64.5691 10.5756L64.1621 10.6187L64.2111 11.025L64.5757 14.0446L64.6494 14.6552L65.18 14.3442L67.6139 12.9175L67.31 15.1293L65.1027 16.4096L64.8701 16.5444L64.9052 16.8109L65.2697 19.5849L65.3158 19.9356H65.6695H66.6087H66.7589L66.8725 19.8373L67.2015 19.5527L66.8814 21.7842H62.1658L61.8136 18.9672L61.7383 18.3646L61.2122 18.6678L57.4815 20.8172L57.8021 18.6052L61.2805 16.5674L61.5068 16.4348L61.4774 16.1742L60.9305 11.3317L60.8855 10.9333L60.4869 10.9759L58.8134 11.1548L59.062 9.37909L60.2343 9.26997L60.6459 9.23166L60.5974 8.82114L60.102 4.62851L60.0878 4.50834L60.0098 4.41585ZM52.517 19.9039H52.867L52.9163 19.5574L53.6454 14.4295L53.7108 13.9695H53.2462H50.8012H50.4512L50.4019 14.316L49.6728 19.4439L49.6073 19.9039H50.072H52.517ZM68.23 6.78499H65.6241L65.2418 4.59561H67.926L68.23 6.78499Z" stroke="#EAEAEC" stroke-width="0.806496"/>
<path d="M81.4058 19.3808H88.3077L87.9989 21.5424H69.1886L69.4916 19.3808H76.274H76.6245L76.6733 19.0336L77.7155 11.6153L77.78 11.1559H77.3162H69.6284L69.9315 8.99431H77.7283H78.079L78.1277 8.64701L78.6745 4.74366L78.6999 4.56289L78.5808 4.42458L78.2947 4.09234H83.0927L82.457 8.54998L82.3913 9.01016H82.8562H90.8009L90.495 11.1718H82.4401H82.0893L82.0407 11.5192L81.0064 18.9217L80.9423 19.3808H81.4058Z" stroke="#EAEAEC" stroke-width="0.806496"/>
<path d="M3.92242 26.9555L5.17024 24.6312L6.34729 16.2653H5.41608L5.75876 13.941H10.8729L9.50221 23.6255L12.8545 24.6275H24.2301L23.9135 26.9518H10.8953L8.50023 26.2441L8.10912 26.9518L3.92242 26.9555ZM9.99016 10.2199L10.9959 13.0098H7.27103L6.26906 10.2199H9.99016ZM13.2717 18.124L13.7597 15.3192H12.0723L12.3889 12.9949H14.1508L14.4935 11.1101L13.7112 10.205H18.3598L17.8681 12.9949H19.3581L19.7492 10.205H23.474L23.1015 12.9949H24.4946L24.1594 15.3192H22.7663L22.3752 18.1091H24.2376L23.8837 20.4483H22.0213L21.5818 23.7038H17.857L18.2965 20.4483H16.557L15.9946 23.7038H12.2697L12.8322 20.4483H10.8506L11.1933 18.124H13.2717ZM16.963 18.124H18.669L19.0415 15.3192H17.451L16.963 18.124Z" fill="#292945"/>
<path d="M29.6572 13.0247L27.6011 27.7303H24.4946L26.8785 10.6259H34.0227L33.6838 12.9986L32.6296 16.6713H33.5124L33.4118 18.7758L32.0523 25.0372H28.5808L28.8713 22.9588H29.6163L30.4953 18.7758H29.4114L29.7056 16.6713L30.756 13.0247H29.6572ZM32.6669 27.7042L35.602 17.1853H38.9767L36.0416 27.7042H32.6669ZM42.2583 16.5707L40.8391 12.1419H40.0942L37.6209 16.5707H33.8402L37.267 10.5775L36.8498 10.205H43.5285L45.9757 16.5894L42.2583 16.5707ZM44.2883 17.1853L42.8207 27.7303H39.4423L40.9099 17.1853H44.2883Z" fill="#292945"/>
<path d="M49.868 18.0197L50.8439 11.1697L50.099 10.2385H55.053L54.6805 12.8459H57.5896L57.273 15.1218H54.3453L53.9541 18.0085H56.718L55.4217 27.2572H45.9756L47.2718 18.0085L49.868 18.0197ZM52.1402 25.0671L52.8255 20.2471H50.5273L49.8419 25.0671H52.1402ZM59.3589 15.0734L58.8933 11.1325L58.111 10.205H62.6516L63.2141 14.6748L67.3747 14.2353L67.032 16.6825L63.5083 17.055L63.851 19.8933L66.8122 18.1575L66.395 21.1932L64.1601 22.4895L64.5028 25.0969H65.3856L66.4621 24.1656L65.9704 27.5925H60.8749L60.5024 24.6126L56.3194 27.0226L56.7589 23.9906L60.1858 21.9829L59.6717 17.4312L57.6156 17.6509L57.9583 15.2037L59.3589 15.0734ZM64.1415 13.494L63.6498 10.6781H66.9538L67.3449 13.494H64.1415Z" fill="#292945"/>
<path d="M85.8201 27.3653H67.3748L67.7659 24.5754H74.4705L75.4502 17.6025H67.7882L68.1793 14.8126H75.8375L76.3516 11.1437L75.5433 10.205H81.3168L80.6575 14.8275H88.5615L88.1667 17.6174H80.2664L79.2942 24.5754H86.2186L85.8201 27.3653Z" fill="#292945"/>
</svg>
