<svg width="93" height="34" viewBox="0 0 93 34" fill="none" xmlns="http://www.w3.org/2000/svg">
<path d="M10.0691 14.075L10.4221 14.0745L10.4683 13.7246L10.5981 12.7408L10.6583 12.2848H10.1983H3.80337L3.95662 11.1237H10.4777H10.8216L10.8759 10.7842L10.9003 10.6318H14.9945L14.9906 10.6568L14.9158 11.1237H15.3887H21.8113L21.658 12.2848H15.1094H14.7559L14.7096 12.6352L14.5797 13.619L14.5195 14.075H14.9795H22.8698L22.7166 15.2361H19.6347H19.2909L19.2366 15.5756L19.0791 16.5594L19.0044 17.0264H19.4773H21.9604L21.7637 18.4157H19.1665H18.8154L18.7671 18.7634L18.2915 22.1823C18.2291 22.5635 18.0328 22.9099 17.7378 23.1593C17.4418 23.4097 17.066 23.5458 16.6783 23.5431H16.6755H12.512L14.1751 21.8265L14.2677 21.731L14.2852 21.5992L14.6473 18.884L14.7082 18.4275H14.2476H1.95039L2.14708 17.0382H14.5663H14.9102L14.9645 16.6986L15.1219 15.7149L15.1966 15.2479H14.7237H1.92238L2.07571 14.0863L10.0691 14.075ZM15.0861 5.75767L15.059 5.72475H18.9192L18.7044 6.10825L18.3683 6.70853H19.0563H23.9205L23.7672 7.86958H21.6141H20.9252L21.2625 8.47026L21.7516 9.34131H18.7388L18.1231 8.26882L17.7759 7.66397L17.4249 8.26667L16.79 9.35705H13.3027L15.1237 6.21635L15.2643 5.97394L15.0861 5.75767ZM13.1147 6.70853L12.9614 7.86958H11.3002H10.6113L10.9486 8.47026L11.4377 9.34131H8.42492L7.80924 8.26882L7.46201 7.66397L7.11105 8.26666L6.47609 9.35705H2.98874L4.80982 6.21635L4.95038 5.97394L4.7722 5.75767L4.74508 5.72475H8.59564L8.37719 6.10401L8.02898 6.70853H8.72661H13.1147ZM8.53534 19.9659L10.0217 22.1068H5.6006L4.11426 19.9659H8.53534Z" stroke="#EAEAEC" stroke-width="0.806496"/>
<path d="M30.3285 12.1479L30.3284 12.1482L28.7479 23.4605H24.8717L26.3067 13.2162L26.3846 12.6601L25.8328 12.7639L24.8593 12.9471L25.1602 10.841L30.6629 9.76849L30.3285 12.1479ZM39.4364 15.531L39.7881 15.5309L39.8357 15.1824L40.0443 13.6555L40.1068 13.1977H39.6448H31.8467L32.0923 11.4976H36.6462H36.9995L37.046 11.1473L37.2545 9.57323L37.315 9.11701H36.8548H33.0735L33.2765 7.59786H37.1893H37.5392L37.5885 7.25144L37.742 6.17322L37.7735 5.95138L37.6018 5.80741L37.5737 5.78378H41.7383L41.5475 7.13426L41.4826 7.59393H41.9468H45.6455L45.4424 9.11308H41.6084H41.2542L41.2085 9.46434L41.0039 11.0384L40.9447 11.4936H41.4038H45.7979L45.5524 13.1938H44.2213H43.8694L43.8217 13.5425L43.6132 15.0693L43.5507 15.5271H44.0127H45.2301L45.0308 16.9675H43.6901H43.3396L43.2907 17.3146L42.6178 22.0957L42.6177 22.0957L42.6167 22.1044C42.572 22.4815 42.3838 22.8269 42.0912 23.069L42.0911 23.0689L42.0858 23.0735C41.7931 23.3243 41.4194 23.4604 41.034 23.4566V23.4565H41.0299H37.2076L38.8643 21.7436L38.9556 21.6492L38.9738 21.5191L39.5444 17.4345L39.6085 16.9754H39.145H31.474L31.6733 15.5348L39.4364 15.531ZM31.206 5.8266L30.9114 7.92868L25.4527 9.00336L25.7474 6.90127L31.206 5.8266ZM35.727 18.6831L36.6435 21.2883H33.1668L32.2202 18.6831H35.727Z" stroke="#EAEAEC" stroke-width="0.806496"/>
<path d="M59.6972 7.91754L59.6245 7.60593H59.3045H53.0485L54.007 5.72475H63.0067L67.3558 23.2716H63.2802L59.6972 7.91754ZM53.9022 9.88809H57.9038L50.93 23.2716H46.9284L53.9022 9.88809Z" stroke="#EAEAEC" stroke-width="0.806496"/>
<path d="M70.2243 11.9934H70.9331L69.0827 22.5987H68.3519L70.2243 11.9934ZM72.9003 23.5077H70.433L72.2056 10.9895L72.2707 10.5297H71.8063H70.2035L70.4466 8.8807H72.1683H72.5194L72.5677 8.53302L72.9022 6.12867L72.9238 5.97389L72.8354 5.84502L72.7529 5.72475H75.4273L75.0509 8.41368L74.9866 8.87283H75.4502H77.0255L76.7824 10.5218H75.0882H74.738L74.6889 10.8686L72.9003 23.5077ZM74.7789 21.123L75.7044 12.0052H76.4217L75.5178 21.123H74.7789ZM82.1568 14.7163L82.3132 13.6894H85.5795L85.444 14.596L85.3748 15.0588H85.8428H89.9804L89.757 16.6803H82.9466H82.6839L82.5778 16.9206L82.3535 17.4282L82.1033 17.9944H82.7223H89.16L88.5287 22.4455L88.5274 22.4551L88.5265 22.4647C88.5161 22.5758 88.483 22.6836 88.4291 22.7813C88.3753 22.8791 88.3019 22.9647 88.2135 23.0328L88.205 23.0393L88.1969 23.0463C88.0176 23.2004 87.7895 23.2858 87.5532 23.2873H84.8667L85.7952 22.2934L85.8827 22.1997L85.9 22.0726L86.2345 19.6171L86.2969 19.1594H85.835H81.8526H81.5874L81.4823 19.403L79.7025 23.5313H76.9894L79.7159 17.244L79.9604 16.6803H79.346H77.283L77.509 15.0588H81.7582H82.1047L82.1568 14.7163ZM80.2644 12.8997L80.1566 13.729H77.793L78.1476 11.1237H80.4832H80.9884L80.8764 10.6311L80.6539 9.65199H83.0576L83.3207 10.8098L83.3921 11.1237H83.714H85.4454H85.687L85.801 10.9106L86.474 9.65199H88.7533L88.3013 10.5371L88.0017 11.1237H88.6604H90.5596L90.205 13.729H87.783L87.8796 13.005L87.9404 12.5484H87.4799H80.6642H80.31L80.2644 12.8997ZM86.7637 7.10991H90.4124L90.2416 8.33393H79.251L79.4212 7.12136L82.9903 7.11778L83.3441 7.11742L83.3898 6.76652L83.4409 6.37301L83.4638 6.19732L83.3498 6.06166L83.08 5.74049H86.5029L86.365 6.64595L86.2943 7.10991H86.7637Z" stroke="#EAEAEC" stroke-width="0.806496"/>
<path d="M12.2408 19.6662L12.3628 18.7415H5.91952L6.16363 16.8921H12.6254L12.6994 16.4297H17.3155L17.2415 16.8921H23.7107L23.4666 18.7415H16.9789L16.8569 19.6662H24.7057L24.4616 21.5156H21.2325L21.0846 22.4403H23.855L23.5628 24.5042H20.7924L20.3448 27.7221C20.2724 28.1712 20.0416 28.5796 19.6943 28.8734C19.347 29.1671 18.9059 29.3269 18.451 29.3237H13.6426L15.8286 27.0674L16.1689 24.5153H4.1737L4.4659 22.4514H16.4685L16.6164 21.5267H4.15149L4.39562 19.6773L12.2408 19.6662ZM10.9795 12.742H15.5364L15.2923 14.5914H13.3985L14.1752 15.9748H10.4764L9.78847 14.7764L9.08199 15.9896H4.92825L6.96999 12.4683L6.43366 11.8173H11.5121L10.9795 12.742ZM12.9213 27.9737H7.8429L5.91952 25.2033H10.998L12.9213 27.9737ZM20.6888 12.742H25.6933L25.4491 14.5914H23.093L23.8698 15.9748H20.171L19.483 14.7764L18.7765 15.9896H14.6228L16.6645 12.4683L16.1282 11.8173H21.2066L20.6888 12.742Z" fill="#292945"/>
<path d="M31.6594 18.2865L30.1281 29.246H25.7191L27.1284 19.1853L25.6932 19.4553L26.089 16.6849L32.0478 15.5235L31.6594 18.2865ZM32.1698 14.5877L26.2518 15.7528L26.6401 12.9824L32.5582 11.8173L32.1698 14.5877ZM39.8448 21.0347L40.0408 19.5996H32.2734L32.6137 17.2434H37.2224L37.4184 15.7639H33.4311L33.7233 13.5779H37.7328L37.8771 12.5644L37.0522 11.8728H42.4451L42.2047 13.5742H46.1143L45.8221 15.7602H41.8866L41.6942 17.2397H46.2622L45.9219 19.5959H44.3425L44.1465 21.031H45.7259L45.4337 23.143H43.8432L43.2107 27.637C43.1572 28.0882 42.932 28.5015 42.5819 28.7911C42.2372 29.0865 41.7969 29.2469 41.3428 29.2423H36.8562L39.0348 26.9897L39.5711 23.1504H31.9257L32.2179 21.0384L39.8448 21.0347ZM37.755 27.2043H33.6863L32.5212 23.9974H36.6269L37.755 27.2043Z" fill="#292945"/>
<path d="M57.8283 15.7306L50.8783 29.0685H46.2622L53.2123 15.7306H57.8283ZM58.52 14.3436H52.0212L53.3084 11.8173H62.2965L66.5723 29.0685H61.9562L58.52 14.3436Z" fill="#292945"/>
<path d="M66.5724 28.436L68.4662 17.7095H69.9013L68.0297 28.436H66.5724ZM70.2712 17.0918H68.3256L68.6659 14.7837H70.6115L70.9259 12.5238L70.4413 11.8173H74.1105L73.6963 14.7763H75.6159L75.2756 17.0844H73.356L71.6286 29.2904H68.5439L70.2712 17.0918ZM72.6458 27.0489L73.5927 17.7206H75.0278L74.1031 27.0489H72.6458ZM83.143 27.5113L83.4574 25.2032H79.7142L77.9425 29.3126H74.5655L77.3581 22.873H74.9834L75.3015 20.5908H79.6254L79.8215 19.3036H83.6571L83.4648 20.5908H87.7887L87.4743 22.873H80.7425L80.5316 23.3501H87.0193L86.3646 27.9662C86.35 28.1225 86.3034 28.2741 86.2277 28.4115C86.152 28.549 86.0488 28.6693 85.9245 28.7652C85.6876 28.9687 85.3861 29.0815 85.0738 29.0833H81.6746L83.143 27.5113ZM81.4637 16.892H83.0912L83.8309 15.5087H86.8196L86.1131 16.892H88.3324L87.8959 20.0989H84.8555L85.0035 18.9893H78.5972L78.4529 20.0989H75.4643L75.9007 16.892H78.427L78.1126 15.5087H81.1493L81.4637 16.892ZM80.7831 13.1267L80.8312 12.7568L80.0545 11.8321H84.5263L84.3303 13.1193H88.1955L87.9292 15.0278H76.8328L77.0991 13.1304L80.7831 13.1267Z" fill="#292945"/>
</svg>
