<svg width="93" height="31" viewBox="0 0 93 31" fill="none" xmlns="http://www.w3.org/2000/svg">
<path d="M3.96002 6.98612L4.30978 6.98512L4.35823 6.63872L4.69401 4.23761L4.71897 4.05914L4.60267 3.9215L4.5464 3.85491H8.34434L7.97134 6.51916L7.90706 6.97832H8.3707H8.83485L8.63494 8.46362H8.03882H7.68771L7.6394 8.81139L7.22946 11.763L7.14256 12.3887L7.74671 12.2041L7.98093 12.1326L7.71943 13.9186L7.14097 14.1004L6.89728 14.177L6.8624 14.43L6.08155 20.0951L6.0815 20.0951L6.08075 20.1013C6.03555 20.4716 5.85351 20.8116 5.57038 21.0544L5.57024 21.0543L5.5604 21.0633C5.29956 21.3025 4.95821 21.4347 4.60431 21.4336H4.60308H1.28097L2.46819 19.763L2.52511 19.6829L2.5388 19.5856L3.05026 15.9507L3.13642 15.3384L2.54132 15.5065L1.75702 15.728L2.02153 13.9029L3.13443 13.5671L3.3812 13.4927L3.41724 13.2374L4.0263 8.92324L4.09119 8.46362H3.62701H2.75323L2.9527 6.98902L3.96002 6.98612ZM13.3408 19.8311H13.6896L13.7399 19.486L14.0756 17.1785L14.1427 16.7172H13.6766H12.1383H11.7854L11.7386 17.067L11.4302 19.3745L11.3691 19.8311H11.8299H13.3408ZM12.0707 14.809L12.0078 15.2671H12.4702H13.985H14.3367L14.3845 14.9186L14.6656 12.8689L14.7284 12.4108H14.2661H12.7513H12.3995L12.3518 12.7593L12.0707 14.809ZM18.2172 19.8311H18.5707L18.617 19.4807L18.9216 17.1732L18.9817 16.7172H18.5218H17.1123H16.7629L16.7132 17.0631L16.3813 19.3705L16.3151 19.8311H16.7805H18.2172ZM17.7019 12.4108H17.3501L17.3024 12.7593L17.0213 14.809L16.9584 15.2671H17.4208H18.8575H19.2093L19.257 14.9186L19.5381 12.8689L19.6009 12.4108H19.1386H17.7019ZM10.0292 10.293H22.6259L21.1228 21.0002H8.52606L10.0292 10.293Z" stroke="#EAEAEC" stroke-width="0.806496"/>
<path d="M28.2492 20.5981H24.7802L25.8059 18.622L25.8377 18.5607L25.8473 18.4923L27.0615 9.84827L27.126 9.38893H26.6622H26.1532L26.3934 7.75917H30.9415L29.5698 17.4505L29.5212 17.794L29.8536 17.8934L33.3674 18.9436L33.4239 18.9605H33.4829H44.94L44.7153 20.5904L31.4832 20.598L28.9972 19.8687L28.6798 19.7755L28.5264 20.0686L28.2492 20.5981ZM36.019 17.1896H32.4943L35.9056 8.22158L36.1136 7.67496H35.5287H32.733L32.9273 6.30288H36.3486H36.6257L36.7251 6.04421L37.3654 4.37709L37.4515 4.15295L37.2954 3.97046L37.1977 3.85619L41.0677 3.86186L40.3411 5.75097L40.1303 6.29897H40.7175H46.2311L44.8982 15.7969C44.8982 15.7973 44.8981 15.7977 44.898 15.7981C44.8416 16.1803 44.6516 16.5301 44.3618 16.7856C44.0726 17.0404 43.7027 17.1849 43.3174 17.1935H39.3102L40.7192 15.9466L40.8303 15.8484L40.8512 15.7015L41.9288 8.13506L41.9943 7.67496H41.5296H39.8859H39.607L39.5086 7.93592L36.019 17.1896ZM27.1457 3.86272H30.193L30.9536 5.98051H27.9063L27.1457 3.86272Z" stroke="#EAEAEC" stroke-width="0.806496"/>
<path d="M58.558 4.05664L58.3827 3.85711L63.0775 3.86869L59.9717 8.60676L59.5625 9.23108H60.309H68.7215L68.4995 10.8608H64.2874H63.7041L63.9102 11.4066L67.5498 21.0431H63.0521L59.3279 11.1069L59.2298 10.8452H58.9503H58.7278H58.5098L58.3904 11.0276L51.8335 21.0431H47.4401L53.697 11.4691L54.1047 10.8452H53.3594H49.3353L49.5573 9.21546H54.9523H55.1699L55.2894 9.03357L58.3894 4.31332L58.558 4.05664Z" stroke="#EAEAEC" stroke-width="0.806496"/>
<path d="M74.2941 21.4609H71.5386L74.1917 15.3324L74.2132 15.2827L74.2208 15.2291L75.7474 4.50799L75.7661 4.37662L75.7031 4.2598L75.4849 3.85491H78.4478L76.8455 15.0675L74.2941 21.4609ZM83.3167 5.89071H79.3924L79.6146 4.31181L91.5203 4.31547L91.298 5.89462H87.2913H86.9418L86.8921 6.24059L86.6345 8.03655L86.5684 8.49707H87.0336H90.8913L89.5196 18.1884L89.5194 18.19C89.467 18.5709 89.2749 18.9187 88.9804 19.1658L88.9713 19.1734L88.9628 19.1815C88.6878 19.441 88.3243 19.5859 87.9462 19.5869H86.2665L86.8048 18.8745L86.8673 18.7919L86.8822 18.6893L88.0535 10.6114L88.1203 10.1503H87.6544H86.6705H86.3199L86.2712 10.4975L84.9362 20.0094L84.6461 20.3933H84.8823L84.7309 21.4726H81.5747L83.0992 10.6096L83.1637 10.1503H82.6999H81.7746H81.4242L81.3753 10.4972L80.0929 19.5869H77.5219L79.0761 8.49317H83.0591H83.4086L83.4582 8.14719L83.7159 6.35123L83.782 5.89071H83.3167ZM73.85 5.26435L72.1941 17.1037H69.6469L71.3027 5.26435H73.85Z" stroke="#EAEAEC" stroke-width="0.806496"/>
<path d="M6.49802 12.69L6.81364 10.4331L6.2338 9.74683H11.0559L10.6449 12.6827H11.5147L11.2247 14.8368H10.333L9.94764 17.6112L10.7403 17.369L10.3733 19.8755L9.60268 20.1177L8.86872 25.4426C8.81477 25.8845 8.59749 26.2903 8.25954 26.5802C7.94415 26.8694 7.53144 27.0292 7.10355 27.0279H3.24658L4.7879 24.8591L5.26865 21.4425L3.96954 21.8095L4.33652 19.2773L5.61361 18.892L6.1861 14.8368H4.93103L5.22094 12.6937L6.49802 12.69ZM24.48 15.7983L22.9608 26.6206H10.355L11.8743 15.7983H24.48ZM13.6798 13.8937H11.944L12.2816 11.6037H14.0175L14.1385 10.712L13.3202 9.79453H18.2377L17.9735 11.6037H20.1203L20.2378 10.712L19.4451 9.79453H24.1681L23.9039 11.6037H25.4452L25.1076 13.8937H23.5883L23.4232 15.2038H19.6139L19.7827 13.901H17.6616L17.4927 15.2038H13.5147L13.6798 13.8937ZM15.3166 24.7636L15.6322 22.5948H14.1863L13.8963 24.7636H15.3166ZM14.4982 20.4737H15.9221L16.1863 18.547H14.7624L14.4982 20.4737ZM19.9001 24.7636L20.1864 22.5948H18.8616L18.5497 24.7636H19.9001ZM19.4157 18.547L19.1515 20.4737H20.502L20.7662 18.547H19.4157Z" fill="#292945"/>
<path d="M32.3151 26.2426L29.926 25.5416L29.559 26.2426H25.4452L26.6966 23.8315L27.8379 15.7066H26.9205L27.2581 13.4166H32.2967L30.9462 22.9581L34.249 23.9453H45.4529L45.1374 26.2352L32.3151 26.2426ZM31.4233 9.75417L32.4105 12.5028H28.7407L27.7535 9.75417H31.4233ZM41.9299 9.75417L41.0492 12.0441H46.6677L45.3539 21.4058C45.288 21.8542 45.0652 22.2647 44.7253 22.5643C44.3853 22.864 43.95 23.0334 43.4969 23.0425H38.7262L40.7996 21.2076L41.8125 14.0955H40.2675L36.895 23.0388H32.7701L36.172 14.0955H33.1077L33.3977 12.0478H36.9427L37.5445 10.4808L36.917 9.74683L41.9299 9.75417Z" fill="#292945"/>
<path d="M62.7671 9.76151L59.4643 14.8001H67.8058L67.4938 17.0901H63.2038L66.8186 26.6609H61.78L58.1872 17.0754H57.9781L51.7027 26.6609H46.6677L52.9321 17.0754H48.7155L49.0274 14.7855H54.4294L57.3432 10.3487L56.8147 9.74683L62.7671 9.76151Z" fill="#292945"/>
<path d="M69.4681 11.0716H72.6278L70.9654 22.9581H67.8057L69.4681 11.0716ZM75.3765 20.7636L72.8663 27.0536H69.4424L72.1654 20.7636L73.6003 10.6863L73.0938 9.74683H76.9508L75.3765 20.7636ZM89.2373 10.1799L88.9217 12.4221H84.8262L84.584 14.1102H88.6465L87.296 23.6517C87.234 24.1029 87.0064 24.515 86.6574 24.8077C86.3289 25.1178 85.8945 25.291 85.4427 25.2921H83.1014L84.0666 24.015L85.1675 16.4222H84.2427L82.7491 27.0646H79.0169L80.5105 16.4222H79.6408L78.3894 25.2921H75.2076L76.7747 14.1065H80.8481L81.0903 12.4184H76.9655L77.2811 10.1762L89.2373 10.1799Z" fill="#292945"/>
</svg>
