<svg width="23" height="22" viewBox="0 0 23 22" fill="none" xmlns="http://www.w3.org/2000/svg">
<path d="M8.88012 19.787C7.34419 19.3297 5.97703 18.4807 4.89448 17.3559C5.29833 16.8772 5.54171 16.2588 5.54171 15.5835C5.54171 14.0647 4.31049 12.8335 2.79171 12.8335C2.69983 12.8335 2.60901 12.8381 2.51945 12.8469C2.39744 12.2503 2.33337 11.6328 2.33337 11.0002C2.33337 10.042 2.48039 9.11814 2.75311 8.24992C2.76595 8.2501 2.77882 8.25019 2.79171 8.25019C4.31049 8.25019 5.54171 7.01897 5.54171 5.50019C5.54171 5.06418 5.44023 4.65191 5.25965 4.28561C6.31973 3.29992 7.6136 2.56224 9.04892 2.16492C9.50372 3.0564 10.4306 3.66687 11.5 3.66687C12.5695 3.66687 13.4964 3.0564 13.9512 2.16492C15.3865 2.56224 16.6804 3.29992 17.7404 4.28561C17.5598 4.65191 17.4584 5.06418 17.4584 5.50019C17.4584 7.01897 18.6896 8.25019 20.2084 8.25019C20.2213 8.25019 20.2341 8.2501 20.247 8.24992C20.5197 9.11814 20.6667 10.042 20.6667 11.0002C20.6667 11.6328 20.6026 12.2503 20.4806 12.8469C20.3911 12.8381 20.3003 12.8335 20.2084 12.8335C18.6896 12.8335 17.4584 14.0647 17.4584 15.5835C17.4584 16.2588 17.7017 16.8772 18.1056 17.3559C17.023 18.4807 15.6559 19.3297 14.12 19.787C13.7655 18.6781 12.7265 17.8752 11.5 17.8752C10.2735 17.8752 9.23459 18.6781 8.88012 19.787Z" stroke="#20C38C" stroke-width="1.83333" stroke-linejoin="round"/>
<path d="M11.4999 14.2084C13.2718 14.2084 14.7082 12.7719 14.7082 11C14.7082 9.2281 13.2718 7.79169 11.4999 7.79169C9.72795 7.79169 8.29153 9.2281 8.29153 11C8.29153 12.7719 9.72795 14.2084 11.4999 14.2084Z" stroke="#20C38C" stroke-width="1.83333" stroke-linejoin="round"/>
</svg>
