<svg id="图层_1" data-name="图层 1" xmlns="http://www.w3.org/2000/svg" viewBox="0 0 60 60"><defs><style>.cls-1{fill:#edede6;}.cls-2{fill:#bdb9b6;}.cls-3{fill:#cfcfc7;}.cls-4{fill:#e4e3da;}.cls-5{fill:#9e9e9f;}.cls-6{fill:#bcb1b1;}.cls-7{fill:#e0e0dc;}.cls-8{fill:#eeeeef;}.cls-9{fill:none;}.cls-10{fill:#f1f0ed;}.cls-11{fill:#b2acaa;}.cls-12{fill:#a47e77;}.cls-13{fill:#f7f7f7;}.cls-14{fill:#989391;}.cls-15{fill:#888;}.cls-16{fill:#a19b9a;}.cls-17{fill:#717071;}.cls-18{fill:#dbdcdc;}.cls-19{fill:#b4b4b5;}.cls-20{fill:#9e9a99;}.cls-21{fill:#f4d87f;}.cls-22{fill:#b07c54;}.cls-23{fill:#77a47b;}.cls-24{fill:#b36d7a;}.cls-25{fill:#f9d9cd;}.cls-26{fill:#efe6c6;}</style></defs><polygon class="cls-1" points="29.52 4.58 29.53 4.8 29.48 5.63 29.43 5.63 29.35 4.55 29.48 4.57 29.52 4.58"/><polygon class="cls-2" points="29.52 4.99 30.25 7.5 30.23 7.9 29.49 5.37 29.52 4.99"/><path class="cls-1" d="M30.23,7.9v4.35c-.5.71-.68-3.84-.69-5.23v-.8c0-.4,0-.83-.05-.85Z"/><path class="cls-3" d="M30.23,11.44V12h0c-.4.3-.61-3.36-.69-5v-.8c.25,5,.67,5.19.69,5.22Z"/><path class="cls-2" d="M30.23,10.94s-.44.11-.68-5.84c0,0,.24,4.71.68,5.38Z"/><path class="cls-4" d="M30.23,10.05s-.29.49-.57-4.59a21.54,21.54,0,0,0,.57,3.94Z"/><path class="cls-3" d="M30.23,9s-.23.06-.4-3a12.17,12.17,0,0,0,.4,2.39Z"/><path class="cls-4" d="M34.49,11.21l-.55.17a4.28,4.28,0,0,0-1.5-1.72,1.35,1.35,0,0,0-1.55-.06l-.49-.72.35-.25.12.17.33-.26.19.21.34-.21.14.25.59-.06.55.74.2-.08.36.58h.19l.29.64.12-.09Z"/><path class="cls-5" d="M34.85,15a11.42,11.42,0,0,1-2.45-1.11,16.66,16.66,0,0,1-2.3-1.64V9.15l4.75,2.76Z"/><path class="cls-2" d="M34.13,12.12c0,1-.74,1.31-1.65.78a3.51,3.51,0,0,1-1.66-2.7,1,1,0,0,1,.35-.86,1.18,1.18,0,0,1,1.31.09,3.64,3.64,0,0,1,1.28,1.38A2.9,2.9,0,0,1,34.13,12.12Z"/><path class="cls-3" d="M31.35,9.65v1.72a2.3,2.3,0,0,1-.26-1A.91.91,0,0,1,31.35,9.65Z"/><path class="cls-2" d="M31.77,9.49V12a3.21,3.21,0,0,1-.42-.64V9.65A.66.66,0,0,1,31.77,9.49Z"/><path class="cls-3" d="M32.19,9.57v2.85a3.25,3.25,0,0,1-.42-.41V9.49A1.11,1.11,0,0,1,32.19,9.57Z"/><path class="cls-2" d="M32.6,9.78v2.91l-.12-.07a1.37,1.37,0,0,1-.29-.2V9.57a1.45,1.45,0,0,1,.29.13Z"/><path class="cls-3" d="M33,10.14v2.68a1.26,1.26,0,0,1-.42-.13V9.78A2.36,2.36,0,0,1,33,10.14Z"/><path class="cls-2" d="M33.44,10.67v2.1a.72.72,0,0,1-.42.05V10.14A3.06,3.06,0,0,1,33.44,10.67Z"/><path class="cls-3" d="M33.86,11.83v.28a.75.75,0,0,1-.42.66v-2.1A2.68,2.68,0,0,1,33.86,11.83Z"/><polygon class="cls-6" points="32.48 9.77 32.87 10.83 33.74 11.47 33.11 11.75 33.26 12.76 32.48 11.87 31.69 11.85 31.84 11.02 31.21 10 32.09 10.38 32.48 9.77"/><polygon class="cls-3" points="30.1 7.5 30.1 9.64 31.01 10.17 31.01 8.06 31.01 8.06 30.87 7.89 30.86 7.88 30.72 7.71 30.71 7.7 30.59 7.55 30.57 7.55 30.55 7.55 30.41 7.53 30.4 7.53 30.26 7.52 30.25 7.52 30.11 7.5 30.1 7.5"/><polygon class="cls-2" points="30.87 7.89 30.87 10.08 31.01 10.16 31.01 8.06 30.87 7.89"/><polygon class="cls-3" points="30.72 7.71 30.72 9.99 30.86 10.07 30.86 7.88 30.72 7.71"/><polygon class="cls-2" points="30.57 7.55 30.57 9.9 30.71 9.98 30.71 7.7 30.59 7.55 30.57 7.55"/><polygon class="cls-3" points="30.41 7.53 30.41 9.81 30.55 9.9 30.55 7.55 30.41 7.53"/><polygon class="cls-2" points="30.26 7.52 30.26 9.73 30.4 9.81 30.4 7.53 30.26 7.52"/><polygon class="cls-3" points="30.11 7.5 30.11 9.64 30.25 9.72 30.25 7.52 30.11 7.5"/><polygon class="cls-2" points="30.58 10.21 30.92 10.12 31.06 10.23 31.03 10.36 30.58 10.46 30.58 10.21"/><polygon class="cls-7" points="30.58 10.48 30.92 10.39 31.06 10.49 31.03 10.63 30.58 10.73 30.58 10.48"/><polygon class="cls-2" points="30.58 10.75 30.92 10.65 31.06 10.76 31.03 10.89 30.58 10.99 30.58 10.75"/><polygon class="cls-7" points="30.58 11.02 30.92 10.92 31.06 11.03 31.03 11.16 30.58 11.26 30.58 11.02"/><polygon class="cls-2" points="30.58 11.29 30.92 11.19 31.06 11.3 31.03 11.43 30.58 11.53 30.58 11.29"/><polygon class="cls-7" points="30.58 11.55 30.92 11.46 31.06 11.57 31.03 11.7 30.58 11.8 30.58 11.55"/><polygon class="cls-2" points="30.58 11.82 30.92 11.73 31.06 11.84 31.03 11.97 30.58 12.07 30.58 11.82"/><polygon class="cls-7" points="30.58 12.09 30.92 11.99 31.06 12.1 31.03 12.23 30.58 12.33 30.58 12.09"/><polygon class="cls-2" points="30.58 12.36 30.92 12.26 31.06 12.37 31.03 12.5 30.58 12.6 30.58 12.36"/><polygon class="cls-2" points="30.53 10.19 30.2 9.7 30.05 9.64 30.09 9.81 30.53 10.43 30.53 10.19"/><polygon class="cls-7" points="30.53 10.45 30.2 9.96 30.05 9.91 30.09 10.08 30.53 10.7 30.53 10.45"/><polygon class="cls-2" points="30.53 10.72 30.2 10.23 30.05 10.18 30.09 10.35 30.53 10.96 30.53 10.72"/><polygon class="cls-7" points="30.53 10.99 30.2 10.5 30.05 10.44 30.09 10.62 30.53 11.23 30.53 10.99"/><polygon class="cls-2" points="30.53 11.26 30.2 10.77 30.05 10.71 30.09 10.89 30.53 11.5 30.53 11.26"/><polygon class="cls-7" points="30.53 11.53 30.2 11.04 30.05 10.98 30.09 11.15 30.53 11.77 30.53 11.53"/><polygon class="cls-2" points="30.53 11.79 30.2 11.3 30.05 11.25 30.09 11.42 30.53 12.04 30.53 11.79"/><polygon class="cls-7" points="30.53 12.06 30.2 11.57 30.05 11.52 30.09 11.69 30.53 12.3 30.53 12.06"/><polygon class="cls-2" points="30.53 12.33 30.2 11.84 30.05 11.78 30.09 11.96 30.53 12.57 30.53 12.33"/><polygon class="cls-3" points="34.88 10.27 34.88 12.41 33.96 11.88 33.97 9.78 33.97 9.77 34.11 9.77 34.12 9.77 34.26 9.77 34.27 9.77 34.39 9.76 34.41 9.79 34.42 9.79 34.56 9.94 34.57 9.95 34.72 10.1 34.73 10.11 34.87 10.26 34.88 10.27"/><polygon class="cls-2" points="34.11 9.77 34.11 11.96 33.97 11.88 33.97 9.77 34.11 9.77"/><polygon class="cls-3" points="34.26 9.77 34.26 12.05 34.12 11.96 34.12 9.77 34.26 9.77"/><polygon class="cls-2" points="34.41 9.79 34.41 12.13 34.27 12.05 34.27 9.77 34.39 9.76 34.41 9.79"/><polygon class="cls-3" points="34.56 9.94 34.56 12.22 34.42 12.14 34.42 9.79 34.56 9.94"/><polygon class="cls-2" points="34.72 10.1 34.72 12.31 34.57 12.23 34.57 9.95 34.72 10.1"/><polygon class="cls-3" points="34.87 10.26 34.87 12.4 34.73 12.32 34.73 10.11 34.87 10.26"/><polygon class="cls-8" points="34.42 11.47 34.19 11.55 34.19 14.49 34.42 14.78 34.63 14.75 34.63 11.8 34.42 11.47"/><polygon class="cls-7" points="34.45 12.19 34.78 12.09 34.93 12.2 34.89 12.33 34.45 12.43 34.45 12.19"/><polygon class="cls-2" points="34.45 12.46 34.78 12.36 34.93 12.47 34.89 12.6 34.45 12.7 34.45 12.46"/><polygon class="cls-7" points="34.45 12.72 34.78 12.63 34.93 12.74 34.89 12.87 34.45 12.97 34.45 12.72"/><polygon class="cls-2" points="34.45 12.99 34.78 12.9 34.93 13.01 34.89 13.14 34.45 13.24 34.45 12.99"/><polygon class="cls-7" points="34.45 13.26 34.78 13.16 34.93 13.27 34.89 13.4 34.45 13.51 34.45 13.26"/><polygon class="cls-2" points="34.45 13.53 34.78 13.43 34.93 13.54 34.89 13.67 34.45 13.77 34.45 13.53"/><polygon class="cls-7" points="34.45 13.8 34.78 13.7 34.93 13.81 34.89 13.94 34.45 14.04 34.45 13.8"/><polygon class="cls-2" points="34.45 14.06 34.78 13.97 34.93 14.08 34.89 14.21 34.45 14.31 34.45 14.06"/><polygon class="cls-7" points="34.45 14.33 34.78 14.24 34.93 14.35 34.89 14.48 34.45 14.58 34.45 14.33"/><polygon class="cls-2" points="34.45 14.6 34.78 14.51 34.93 14.61 34.89 14.74 34.45 14.84 34.45 14.6"/><polygon class="cls-7" points="34.4 12.16 34.06 11.67 33.92 11.61 33.95 11.79 34.4 12.4 34.4 12.16"/><polygon class="cls-2" points="34.4 12.43 34.06 11.94 33.92 11.88 33.95 12.06 34.4 12.67 34.4 12.43"/><polygon class="cls-7" points="34.4 12.7 34.06 12.21 33.92 12.15 33.95 12.33 34.4 12.94 34.4 12.7"/><polygon class="cls-2" points="34.4 12.96 34.06 12.48 33.92 12.42 33.95 12.59 34.4 13.21 34.4 12.96"/><polygon class="cls-7" points="34.4 13.23 34.06 12.74 33.92 12.69 33.95 12.86 34.4 13.48 34.4 13.23"/><polygon class="cls-2" points="34.4 13.5 34.06 13.01 33.92 12.95 33.95 13.13 34.4 13.74 34.4 13.5"/><polygon class="cls-7" points="34.4 13.77 34.06 13.28 33.92 13.22 33.95 13.4 34.4 14.01 34.4 13.77"/><polygon class="cls-2" points="34.4 14.04 34.06 13.55 33.92 13.49 33.95 13.67 34.4 14.28 34.4 14.04"/><polygon class="cls-7" points="34.4 14.3 34.06 13.82 33.92 13.76 33.95 13.93 34.4 14.55 34.4 14.3"/><polygon class="cls-2" points="34.4 14.57 34.06 14.08 33.92 14.03 33.95 14.2 34.4 14.82 34.4 14.57"/><path class="cls-4" d="M25.71,11.19l.55.17a4.45,4.45,0,0,1,1.51-1.72,1.37,1.37,0,0,1,1.55-.05l.48-.73-.35-.25-.11.18L29,8.53l-.19.2-.34-.2-.15.25-.59-.07-.55.74L27,9.37l-.37.59h-.19l-.28.64L26,10.5Z"/><path class="cls-5" d="M25.35,15a11.85,11.85,0,0,0,2.45-1.12,16.07,16.07,0,0,0,2.3-1.64V9.13l-4.75,2.76Z"/><path class="cls-9" d="M26.34,12a.66.66,0,0,0,0,.14.75.75,0,0,0,.41.67.83.83,0,0,0,.42.05,1.54,1.54,0,0,0,.42-.13l.13-.07.29-.2a2.78,2.78,0,0,0,.42-.42,3,3,0,0,0,.41-.64,2.32,2.32,0,0,0,.27-1,.91.91,0,0,0-.27-.71.64.64,0,0,0-.41-.15.93.93,0,0,0-.42.07,2.38,2.38,0,0,0-.29.13l-.13.08a2.36,2.36,0,0,0-.42.36,3.62,3.62,0,0,0-.42.53,2.66,2.66,0,0,0-.41,1.16A.66.66,0,0,0,26.34,12Z"/><path class="cls-2" d="M26.08,12.1c0,1,.74,1.31,1.65.78a3.5,3.5,0,0,0,1.65-2.69A1,1,0,0,0,29,9.32a1.16,1.16,0,0,0-1.3.09,3.56,3.56,0,0,0-1.28,1.38A2.93,2.93,0,0,0,26.08,12.1Z"/><path class="cls-3" d="M28.85,9.63v1.72a2.32,2.32,0,0,0,.27-1A.91.91,0,0,0,28.85,9.63Z"/><path class="cls-2" d="M28.44,9.48V12a3,3,0,0,0,.41-.64V9.63A.64.64,0,0,0,28.44,9.48Z"/><path class="cls-3" d="M28,9.55v2.86a2.78,2.78,0,0,0,.42-.42V9.48A.93.93,0,0,0,28,9.55Z"/><path class="cls-2" d="M27.6,9.76v2.92l.13-.07.29-.2V9.55a2.38,2.38,0,0,0-.29.13Z"/><path class="cls-3" d="M27.18,10.12v2.69a1.54,1.54,0,0,0,.42-.13V9.76A2.36,2.36,0,0,0,27.18,10.12Z"/><path class="cls-2" d="M26.76,10.65v2.11a.83.83,0,0,0,.42.05V10.12A3.62,3.62,0,0,0,26.76,10.65Z"/><path class="cls-7" d="M26.35,11.81v.28a.75.75,0,0,0,.41.67V10.65A2.66,2.66,0,0,0,26.35,11.81Z"/><polygon class="cls-6" points="27.73 9.75 27.34 10.81 26.46 11.46 27.1 11.74 26.95 12.74 27.73 11.85 28.51 11.83 28.36 11 28.99 9.99 28.12 10.36 27.73 9.75"/><path class="cls-3" d="M26.5,13a1.18,1.18,0,0,0,1.22.13v.12s-.94.65-1.41,0C26.31,13.21,26.21,13,26.5,13Z"/><path class="cls-2" d="M26.32,13.23a1.46,1.46,0,0,0,1.4,0v.12s-1.07.73-1.61.13C26.11,13.51,26,13.31,26.32,13.23Z"/><path class="cls-3" d="M28.94,11.53a4.78,4.78,0,0,1-1.22,1.55v.12a3.13,3.13,0,0,0,1.41-1.62S29.23,11.25,28.94,11.53Z"/><path class="cls-2" d="M29.12,11.61a5.51,5.51,0,0,1-1.4,1.65v.12a3.76,3.76,0,0,0,1.61-1.73S29.44,11.31,29.12,11.61Z"/><polygon class="cls-3" points="30.11 7.48 30.11 9.62 29.19 10.15 29.19 8.04 29.2 8.04 29.34 7.87 29.35 7.86 29.49 7.69 29.5 7.68 29.62 7.54 29.64 7.53 29.65 7.53 29.79 7.52 29.8 7.52 29.94 7.5 29.95 7.5 30.1 7.48 30.11 7.48"/><polygon class="cls-2" points="29.34 7.87 29.34 10.06 29.2 10.14 29.2 8.04 29.34 7.87"/><polygon class="cls-3" points="29.49 7.69 29.49 9.97 29.35 10.05 29.35 7.86 29.49 7.69"/><polygon class="cls-2" points="29.64 7.53 29.64 9.88 29.5 9.97 29.5 7.68 29.62 7.54 29.64 7.53"/><polygon class="cls-3" points="29.79 7.52 29.79 9.8 29.65 9.88 29.65 7.53 29.79 7.52"/><polygon class="cls-2" points="29.94 7.5 29.94 9.71 29.8 9.79 29.8 7.52 29.94 7.5"/><polygon class="cls-3" points="30.1 7.48 30.1 9.62 29.95 9.7 29.95 7.5 30.1 7.48"/><polygon class="cls-2" points="29.62 10.2 29.28 10.1 29.14 10.21 29.18 10.34 29.62 10.44 29.62 10.2"/><polygon class="cls-7" points="29.62 10.46 29.28 10.37 29.14 10.48 29.18 10.61 29.62 10.71 29.62 10.46"/><polygon class="cls-2" points="29.62 10.73 29.28 10.64 29.14 10.74 29.18 10.88 29.62 10.98 29.62 10.73"/><polygon class="cls-7" points="29.62 11 29.28 10.9 29.14 11.01 29.18 11.14 29.62 11.24 29.62 11"/><polygon class="cls-2" points="29.62 11.27 29.28 11.17 29.14 11.28 29.18 11.41 29.62 11.51 29.62 11.27"/><polygon class="cls-7" points="29.62 11.54 29.28 11.44 29.14 11.55 29.18 11.68 29.62 11.78 29.62 11.54"/><polygon class="cls-2" points="29.62 11.8 29.28 11.71 29.14 11.82 29.18 11.95 29.62 12.05 29.62 11.8"/><polygon class="cls-7" points="29.62 12.07 29.28 11.98 29.14 12.09 29.18 12.22 29.62 12.32 29.62 12.07"/><polygon class="cls-2" points="29.62 12.34 29.28 12.24 29.14 12.35 29.18 12.48 29.62 12.58 29.62 12.34"/><polygon class="cls-7" points="29.67 10.44 30.01 9.95 30.15 9.89 30.11 10.06 29.67 10.68 29.67 10.44"/><polygon class="cls-2" points="29.67 10.7 30.01 10.22 30.15 10.16 30.11 10.33 29.67 10.95 29.67 10.7"/><polygon class="cls-7" points="29.67 10.97 30.01 10.48 30.15 10.43 30.11 10.6 29.67 11.22 29.67 10.97"/><polygon class="cls-2" points="29.67 11.24 30.01 10.75 30.15 10.69 30.11 10.87 29.67 11.48 29.67 11.24"/><polygon class="cls-7" points="29.67 11.51 30.01 11.02 30.15 10.96 30.11 11.14 29.67 11.75 29.67 11.51"/><polygon class="cls-2" points="29.67 11.78 30.01 11.29 30.15 11.23 30.11 11.4 29.67 12.02 29.67 11.78"/><polygon class="cls-7" points="29.67 12.04 30.01 11.56 30.15 11.5 30.11 11.67 29.67 12.29 29.67 12.04"/><polygon class="cls-2" points="29.67 12.31 30.01 11.82 30.15 11.77 30.11 11.94 29.67 12.56 29.67 12.31"/><polygon class="cls-3" points="25.33 10.26 25.33 12.39 26.24 11.86 26.24 9.76 26.24 9.76 26.1 9.75 26.09 9.75 25.94 9.75 25.93 9.75 25.81 9.75 25.79 9.77 25.78 9.78 25.64 9.93 25.63 9.94 25.49 10.09 25.48 10.1 25.34 10.24 25.33 10.26"/><polygon class="cls-2" points="26.1 9.75 26.1 11.94 26.24 11.86 26.24 9.76 26.1 9.75"/><polygon class="cls-3" points="25.94 9.75 25.94 12.03 26.09 11.95 26.09 9.75 25.94 9.75"/><polygon class="cls-2" points="25.79 9.77 25.79 12.12 25.93 12.04 25.93 9.75 25.81 9.75 25.79 9.77"/><polygon class="cls-3" points="25.64 9.93 25.64 12.21 25.78 12.12 25.78 9.78 25.64 9.93"/><polygon class="cls-2" points="25.49 10.09 25.49 12.29 25.63 12.21 25.63 9.94 25.49 10.09"/><polygon class="cls-3" points="25.34 10.24 25.34 12.38 25.48 12.3 25.48 10.1 25.34 10.24"/><polygon class="cls-8" points="25.79 11.45 26.02 11.54 26.02 14.47 25.79 14.76 25.57 14.73 25.57 11.79 25.79 11.45"/><polygon class="cls-7" points="25.76 12.17 25.42 12.08 25.28 12.18 25.31 12.32 25.76 12.41 25.76 12.17"/><polygon class="cls-2" points="25.76 12.44 25.42 12.34 25.28 12.45 25.31 12.58 25.76 12.68 25.76 12.44"/><polygon class="cls-7" points="25.76 12.71 25.42 12.61 25.28 12.72 25.31 12.85 25.76 12.95 25.76 12.71"/><polygon class="cls-2" points="25.76 12.97 25.42 12.88 25.28 12.99 25.31 13.12 25.76 13.22 25.76 12.97"/><polygon class="cls-7" points="25.76 13.24 25.42 13.15 25.28 13.26 25.31 13.39 25.76 13.49 25.76 13.24"/><polygon class="cls-2" points="25.76 13.51 25.42 13.41 25.28 13.52 25.31 13.66 25.76 13.76 25.76 13.51"/><polygon class="cls-7" points="25.76 13.78 25.42 13.68 25.28 13.79 25.31 13.92 25.76 14.02 25.76 13.78"/><polygon class="cls-2" points="25.76 14.05 25.42 13.95 25.28 14.06 25.31 14.19 25.76 14.29 25.76 14.05"/><polygon class="cls-7" points="25.76 14.31 25.42 14.22 25.28 14.33 25.31 14.46 25.76 14.56 25.76 14.31"/><polygon class="cls-2" points="25.76 14.58 25.42 14.49 25.28 14.6 25.31 14.73 25.76 14.83 25.76 14.58"/><polygon class="cls-7" points="25.81 12.14 26.14 11.65 26.29 11.6 26.25 11.77 25.81 12.39 25.81 12.14"/><polygon class="cls-2" points="25.81 12.41 26.14 11.92 26.29 11.87 26.25 12.04 25.81 12.65 25.81 12.41"/><polygon class="cls-7" points="25.81 12.68 26.14 12.19 26.29 12.13 26.25 12.31 25.81 12.92 25.81 12.68"/><polygon class="cls-2" points="25.81 12.95 26.14 12.46 26.29 12.4 26.25 12.58 25.81 13.19 25.81 12.95"/><polygon class="cls-7" points="25.81 13.21 26.14 12.73 26.29 12.67 26.25 12.84 25.81 13.46 25.81 13.21"/><polygon class="cls-2" points="25.81 13.48 26.14 12.99 26.29 12.94 26.25 13.11 25.81 13.73 25.81 13.48"/><polygon class="cls-7" points="25.81 13.75 26.14 13.26 26.29 13.21 26.25 13.38 25.81 13.99 25.81 13.75"/><polygon class="cls-2" points="25.81 14.02 26.14 13.53 26.29 13.47 26.25 13.65 25.81 14.26 25.81 14.02"/><polygon class="cls-7" points="25.81 14.29 26.14 13.8 26.29 13.74 26.25 13.92 25.81 14.53 25.81 14.29"/><polygon class="cls-2" points="25.81 14.55 26.14 14.07 26.29 14.01 26.25 14.18 25.81 14.8 25.81 14.55"/><polygon class="cls-10" points="30.22 19.54 30.22 52.54 27.72 51.1 27.66 51.06 24.54 49.26 24.47 49.22 22.27 47.94 22.27 14.95 24.47 16.22 24.6 16.3 27.66 18.06 27.8 18.14 30.22 19.54"/><polygon class="cls-3" points="38.17 14.95 30.22 19.54 30.22 52.57 38.16 47.97 38.17 14.95"/><polygon class="cls-3" points="30.22 31.15 30.22 31.31 27.8 29.91 27.66 29.84 24.6 28.07 24.47 27.99 22.27 26.72 22.27 26.56 24.47 27.83 24.6 27.91 27.66 29.68 27.8 29.76 30.22 31.15"/><polygon class="cls-3" points="30.22 34.83 30.22 34.98 27.8 33.59 27.66 33.51 24.6 31.74 24.47 31.66 22.27 30.39 22.27 30.23 24.47 31.5 24.6 31.58 27.66 33.35 27.8 33.43 30.22 34.83"/><polygon class="cls-3" points="30.22 38.5 30.22 38.66 27.8 37.26 27.66 37.18 24.6 35.41 24.47 35.34 22.27 34.06 22.27 33.91 24.47 35.18 24.6 35.26 27.66 37.02 27.8 37.1 30.22 38.5"/><polygon class="cls-3" points="30.22 42.17 30.22 42.33 27.8 40.93 27.66 40.85 24.6 39.09 24.47 39.01 22.27 37.74 22.27 37.58 24.47 38.85 24.6 38.93 27.66 40.69 27.8 40.77 30.22 42.17"/><polygon class="cls-3" points="30.22 45.84 30.22 46 27.8 44.6 27.66 44.52 24.6 42.76 24.47 42.68 22.27 41.41 22.27 41.25 24.47 42.52 24.6 42.6 27.66 44.37 27.8 44.45 30.22 45.84"/><polygon class="cls-3" points="30.22 49.51 30.22 49.67 27.8 48.27 27.66 48.2 24.6 46.43 24.47 46.35 22.27 45.08 22.27 44.92 24.47 46.19 24.6 46.27 27.66 48.04 27.8 48.12 30.22 49.51"/><polygon class="cls-3" points="24.6 16.3 24.6 49.26 24.47 49.26 24.47 16.22 24.6 16.3"/><polygon class="cls-3" points="27.8 18.14 27.8 51.1 27.66 51.1 27.66 18.06 27.8 18.14"/><polygon class="cls-11" points="30.22 31.15 30.22 31.3 32.64 29.91 32.77 29.83 35.83 28.06 35.97 27.98 38.17 26.71 38.17 26.56 35.97 27.83 35.83 27.91 32.77 29.67 32.64 29.75 30.22 31.15"/><polygon class="cls-11" points="30.22 34.82 30.22 34.98 32.64 33.58 32.77 33.5 35.83 31.73 35.97 31.66 38.17 30.39 38.17 30.23 35.97 31.5 35.83 31.58 32.77 33.34 32.64 33.42 30.22 34.82"/><polygon class="cls-11" points="30.22 38.49 30.22 38.65 32.64 37.25 32.77 37.17 35.83 35.41 35.97 35.33 38.17 34.06 38.17 33.9 35.97 35.17 35.83 35.25 32.77 37.02 32.64 37.09 30.22 38.49"/><polygon class="cls-11" points="30.22 42.16 30.22 42.32 32.64 40.92 32.77 40.84 35.83 39.08 35.97 39 38.17 37.73 38.17 37.57 35.97 38.84 35.83 38.92 32.77 40.69 32.64 40.77 30.22 42.16"/><polygon class="cls-11" points="30.22 45.84 30.22 45.99 32.64 44.6 32.77 44.52 35.83 42.75 35.97 42.67 38.17 41.4 38.17 41.24 35.97 42.52 35.83 42.59 32.77 44.36 32.64 44.44 30.22 45.84"/><polygon class="cls-11" points="30.22 49.51 30.22 49.66 32.64 48.27 32.77 48.19 35.83 46.42 35.97 46.34 38.17 45.08 38.17 44.92 35.97 46.19 35.83 46.27 32.77 48.03 32.64 48.11 30.22 49.51"/><polygon class="cls-11" points="35.83 16.29 35.83 49.25 35.97 49.25 35.97 16.21 35.83 16.29"/><polygon class="cls-11" points="32.64 18.13 32.64 51.09 32.77 51.09 32.77 18.05 32.64 18.13"/><polygon class="cls-12" points="24.54 23.55 24.54 49.26 27.71 51.09 27.71 25.39 24.54 23.55"/><polygon class="cls-13" points="22.27 15.15 20.2 16.33 30.23 22.23 30.23 20.99 22.27 16.42 22.27 15.15"/><polygon class="cls-4" points="30.23 22.23 30.23 23.55 25.91 20.96 25.77 20.88 22.71 19.1 22.58 19.02 20.2 17.63 20.2 16.33 22.58 17.71 22.71 17.79 25.77 19.57 25.91 19.65 30.23 22.23"/><polygon class="cls-13" points="22.27 19.47 20.3 20.64 30.23 26.51 30.23 25.27 22.27 20.68 22.27 19.47"/><polygon class="cls-4" points="30.23 26.51 30.23 27.83 26.01 25.27 25.87 25.2 22.81 23.41 22.68 23.33 20.3 21.95 20.3 20.64 22.68 22.02 22.81 22.1 25.87 23.88 26.01 23.96 30.23 26.51"/><polygon class="cls-10" points="38.17 15.77 39.8 16.68 30.22 22.25 30.22 21 38.17 16.52 38.17 15.77"/><polygon class="cls-4" points="39.8 17.99 39.8 16.68 30.22 22.25 30.22 23.57 39.8 17.99"/><polygon class="cls-10" points="38.17 20.04 39.76 20.98 30.22 26.52 30.22 25.28 38.17 20.79 38.17 20.04"/><polygon class="cls-4" points="39.76 22.28 39.76 20.98 30.22 26.52 30.22 27.84 39.76 22.28"/><polygon class="cls-2" points="22.21 44.9 21.9 45.13 30.21 50.07 30.21 49.5 22.21 44.9"/><polygon class="cls-14" points="38.16 44.89 30.21 49.5 30.21 50.07 38.6 45.18 38.16 44.89"/><polygon class="cls-11" points="22.21 45.89 21.9 46.12 30.21 51.05 30.21 50.49 22.21 45.89"/><polygon class="cls-15" points="38.16 45.88 30.21 50.49 30.21 51.05 38.6 46.17 38.16 45.88"/><polygon class="cls-16" points="22.21 46.88 21.9 47.1 30.21 52.04 30.21 51.48 22.21 46.88"/><polygon class="cls-17" points="38.16 46.88 30.21 51.48 30.21 52.04 38.6 47.15 38.16 46.88"/><polygon class="cls-18" points="30.21 50.07 30.21 50.88 29.49 50.46 29.45 50.44 28.13 49.66 28.08 49.63 26.76 48.85 26.71 48.82 25.39 48.04 25.35 48.02 24.03 47.24 23.98 47.21 22.66 46.43 22.62 46.4 21.9 45.98 21.9 45.13 22.62 45.56 22.66 45.59 23.98 46.37 24.03 46.4 25.35 47.18 25.39 47.21 26.71 47.99 26.76 48.02 28.08 48.8 28.13 48.83 29.45 49.62 29.49 49.64 30.21 50.07"/><polygon class="cls-19" points="38.6 45.18 38.6 46.02 37.93 46.42 37.88 46.44 36.56 47.21 36.52 47.23 35.19 48 35.15 48.02 33.83 48.79 33.78 48.81 32.46 49.58 32.42 49.6 31.1 50.37 31.05 50.4 30.21 50.88 30.21 50.07 31.05 49.58 31.1 49.55 32.42 48.78 32.46 48.76 33.78 47.99 33.83 47.96 35.15 47.19 35.19 47.17 36.52 46.4 36.56 46.37 37.88 45.6 37.93 45.58 38.6 45.18"/><polygon class="cls-18" points="30.21 51.05 30.21 51.87 28.77 51.02 28.72 50.99 27.4 50.22 27.36 50.19 26.04 49.41 25.99 49.38 24.67 48.6 24.62 48.58 23.3 47.8 23.26 47.77 21.94 46.99 21.9 46.97 21.9 46.12 21.94 46.14 23.26 46.93 23.3 46.95 24.62 47.74 24.67 47.77 25.99 48.55 26.04 48.58 27.36 49.36 27.4 49.39 28.72 50.17 28.77 50.2 30.21 51.05"/><polygon class="cls-19" points="38.6 46.17 38.6 47.01 37.32 47.76 37.27 47.78 35.95 48.55 35.91 48.57 34.59 49.34 34.54 49.36 33.22 50.13 33.17 50.15 31.85 50.92 31.81 50.94 30.21 51.87 30.21 51.05 31.81 50.12 31.85 50.1 33.17 49.33 33.22 49.3 34.54 48.53 34.59 48.51 35.91 47.74 35.95 47.71 37.27 46.94 37.32 46.92 38.6 46.17"/><polygon class="cls-18" points="30.21 52.03 30.21 52.84 29.49 52.43 29.45 52.4 28.13 51.63 28.08 51.61 26.76 50.84 26.71 50.81 25.39 50.05 25.35 50.02 24.03 49.25 23.98 49.22 22.66 48.46 22.62 48.43 21.9 48.02 21.9 47.1 22.62 47.52 22.66 47.55 23.98 48.33 24.03 48.36 25.35 49.14 25.39 49.17 26.71 49.95 26.76 49.98 28.08 50.77 28.13 50.79 29.45 51.58 29.49 51.61 30.21 52.03"/><polygon class="cls-19" points="38.6 47.14 38.6 47.99 37.93 48.38 37.88 48.41 36.56 49.17 36.52 49.2 35.19 49.96 35.15 49.99 33.83 50.75 33.78 50.78 32.46 51.54 32.42 51.57 31.1 52.33 31.05 52.36 30.21 52.84 30.21 52.03 31.05 51.54 31.1 51.51 32.42 50.74 32.46 50.72 33.78 49.95 33.83 49.92 35.15 49.16 35.19 49.13 36.52 48.36 36.56 48.33 37.88 47.56 37.93 47.54 38.6 47.14"/><polygon class="cls-13" points="22.27 14.95 30.22 19.54 38.17 14.95 30.22 10.36 22.27 14.95"/><polygon class="cls-7" points="22.11 7.75 22.2 7.98 21.89 8.85 21.68 8.86 21.22 7.81 21.89 7.77 22.11 7.75"/><polygon class="cls-2" points="22.13 8.17 26.03 10.36 25.91 10.78 22 8.57 22.13 8.17"/><path class="cls-1" d="M25.91,10.78V15.2c-2.65,1-3.59-3.57-3.65-5,0-.27,0-.47,0-.54a2.51,2.51,0,0,0,0-.27A6.94,6.94,0,0,0,22,8.57Z"/><path class="cls-3" d="M25.91,14.38V15h0c-2.13.5-3.26-3.11-3.65-4.71,0-.27,0-.47,0-.54a2.51,2.51,0,0,0,0-.27c1.35,4.95,3.58,4.94,3.7,5Z"/><path class="cls-2" d="M25.91,13.87s-2.36.33-3.61-5.6c0,0,1.27,4.67,3.63,5.13Z"/><path class="cls-4" d="M25.91,13s-1.53.63-3.05-4.39c0,0,1.42,3.43,3,3.73Z"/><path class="cls-3" d="M25.9,11.94s-1.21.17-2.12-2.84c0,0,1.32,2.38,2.14,2.22Z"/><polygon class="cls-1" points="38.86 7.8 38.72 8 38.95 8.69 39.16 8.74 39.72 8.03 39.07 7.85 38.86 7.8"/><polygon class="cls-6" points="38.79 8.17 34.89 10.36 35 10.78 38.92 8.57 38.79 8.17"/><path class="cls-7" d="M35,10.78V15.2c2.65,1,3.59-3.57,3.65-5,0-.27,0-.47,0-.54a2.48,2.48,0,0,1,0-.27,6.19,6.19,0,0,1,.22-.85Z"/><path class="cls-2" d="M35,14.38V15h0c2.13.5,3.26-3.11,3.65-4.71,0-.27,0-.47,0-.54a2.48,2.48,0,0,1,0-.27c-1.35,4.95-3.57,4.94-3.69,5Z"/><path class="cls-6" d="M35,13.87s2.36.33,3.61-5.6c0,0-1.27,4.67-3.62,5.13Z"/><path class="cls-3" d="M35,13s1.53.63,3.06-4.39c0,0-1.43,3.43-3,3.73Z"/><path class="cls-2" d="M35,11.94s1.2.17,2.12-2.84c0,0-1.33,2.38-2.15,2.22Z"/><polygon class="cls-6" points="30.34 17.69 30.35 12.97 30.53 12.9 30.53 17.59 30.34 17.69"/><polygon class="cls-4" points="26.32 11.8 30.1 13.98 33.87 11.8 30.1 9.63 26.32 11.8"/><polygon class="cls-1" points="24.47 16.22 24.6 16.3 32.51 11.69 32.39 11.61 24.47 16.22"/><polygon class="cls-1" points="27.66 18.06 27.8 18.14 35.71 13.54 35.59 13.47 27.66 18.06"/><polygon class="cls-3" points="35.97 16.21 35.83 16.29 27.93 11.7 28.05 11.63 35.97 16.21"/><polygon class="cls-3" points="32.77 18.05 32.64 18.13 24.73 13.56 24.85 13.49 32.77 18.05"/><path class="cls-6" d="M26.71,11.56V10.9l.2-.1c0,.19,0,.29,0,.48a.91.91,0,0,0,.24.15.26.26,0,0,0,.26-.08h.05a.78.78,0,0,0,.18.14c.05,0,.09,0,.28,0l.27,0,.16.24c.21.33.27.46.39.47a.22.22,0,0,0,.14-.06l.18.34c.09.17.14.25.22.26a.2.2,0,0,0,.11,0l.11.28v.61Z"/><path class="cls-4" d="M30,13.93l-.52.19a4.11,4.11,0,0,0-1.42-1.67,1.23,1.23,0,0,0-1.46,0l-.46-.71.33-.26.11.17.31-.27.18.2.32-.22.14.25.55-.09.52.72.18-.09.35.58h.18l.27.63.11-.1Z"/><path class="cls-5" d="M30.33,17.69a10.1,10.1,0,0,1-2.3-1,15.34,15.34,0,0,1-2.17-1.57V12l4.47,2.6Z"/><path class="cls-9" d="M29.4,14.71v.14a.79.79,0,0,1-.4.68.7.7,0,0,1-.39.07,1.33,1.33,0,0,1-.39-.12l-.12-.06-.28-.19a3,3,0,0,1-.39-.4A3.15,3.15,0,0,1,27,14.2a2.34,2.34,0,0,1-.25-1,1,1,0,0,1,.25-.72.61.61,0,0,1,.39-.17.93.93,0,0,1,.39.06l.28.12.12.08a2.07,2.07,0,0,1,.39.34,2.83,2.83,0,0,1,.39.52,2.7,2.7,0,0,1,.4,1.14Z"/><path class="cls-13" d="M29.65,14.86c0,1-.7,1.33-1.55.83a3.4,3.4,0,0,1-1.56-2.64,1.08,1.08,0,0,1,.33-.87,1,1,0,0,1,1.23,0,3.27,3.27,0,0,1,1.2,1.34A2.88,2.88,0,0,1,29.65,14.86Z"/><path class="cls-7" d="M27,12.48V14.2a2.34,2.34,0,0,1-.25-1A1,1,0,0,1,27,12.48Z"/><path class="cls-3" d="M27.43,12.31v2.52A3.15,3.15,0,0,1,27,14.2V12.48A.61.61,0,0,1,27.43,12.31Z"/><path class="cls-1" d="M27.82,12.37v2.86a3,3,0,0,1-.39-.4V12.31A.93.93,0,0,1,27.82,12.37Z"/><path class="cls-3" d="M28.22,12.57v2.91l-.12-.06-.28-.19V12.37l.28.12Z"/><path class="cls-1" d="M28.61,12.91V15.6a1.33,1.33,0,0,1-.39-.12V12.57A2.07,2.07,0,0,1,28.61,12.91Z"/><path class="cls-3" d="M29,13.43v2.1a.7.7,0,0,1-.39.07V12.91A2.83,2.83,0,0,1,29,13.43Z"/><path class="cls-7" d="M29.4,14.57v.28a.79.79,0,0,1-.4.68v-2.1A2.7,2.7,0,0,1,29.4,14.57Z"/><polygon class="cls-6" points="28.1 12.56 28.46 13.61 29.29 14.22 28.69 14.52 28.83 15.52 28.1 14.66 27.36 14.67 27.5 13.83 26.91 12.84 27.73 13.18 28.1 12.56"/><path class="cls-3" d="M29.25,15.72a1.08,1.08,0,0,1-1.15.17V16s.89.61,1.33,0C29.43,16,29.52,15.76,29.25,15.72Z"/><path class="cls-2" d="M29.42,16a1.34,1.34,0,0,1-1.32.07v.12s1,.69,1.52.08C29.62,16.27,29.73,16.06,29.42,16Z"/><path class="cls-3" d="M27,14.38a4.65,4.65,0,0,0,1.14,1.51V16a2.91,2.91,0,0,1-1.32-1.57S26.69,14.11,27,14.38Z"/><path class="cls-2" d="M26.79,14.47a5.27,5.27,0,0,0,1.31,1.6v.12a3.41,3.41,0,0,1-1.51-1.68S26.48,14.18,26.79,14.47Z"/><polygon class="cls-3" points="25.86 10.37 25.86 12.51 26.72 13.01 26.72 10.9 26.72 10.9 26.58 10.74 26.57 10.73 26.44 10.56 26.43 10.55 26.32 10.41 26.3 10.41 26.29 10.41 26.15 10.4 26.14 10.4 26.01 10.39 26 10.38 25.87 10.38 25.86 10.37"/><polygon class="cls-2" points="26.58 10.74 26.58 12.93 26.72 13 26.72 10.9 26.58 10.74"/><polygon class="cls-3" points="26.44 10.56 26.44 12.84 26.57 12.92 26.57 10.73 26.44 10.56"/><polygon class="cls-2" points="26.3 10.41 26.3 12.76 26.43 12.84 26.43 10.55 26.32 10.41 26.3 10.41"/><polygon class="cls-3" points="26.15 10.4 26.15 12.68 26.29 12.76 26.29 10.41 26.15 10.4"/><polygon class="cls-2" points="26.01 10.39 26.01 12.59 26.14 12.67 26.14 10.4 26.01 10.39"/><polygon class="cls-3" points="25.87 10.38 25.87 12.51 26 12.59 26 10.38 25.87 10.38"/><polygon class="cls-8" points="26.29 12.09 26.07 12.18 26.07 15.12 26.29 15.39 26.49 15.35 26.49 12.41 26.29 12.09"/><polygon class="cls-7" points="26.31 12.8 26.63 12.7 26.77 12.8 26.73 12.93 26.31 13.05 26.31 12.8"/><polygon class="cls-2" points="26.31 13.07 26.63 12.96 26.77 13.07 26.73 13.2 26.31 13.31 26.31 13.07"/><polygon class="cls-7" points="26.31 13.34 26.63 13.23 26.77 13.34 26.73 13.47 26.31 13.58 26.31 13.34"/><polygon class="cls-2" points="26.31 13.61 26.63 13.5 26.77 13.6 26.73 13.74 26.31 13.85 26.31 13.61"/><polygon class="cls-7" points="26.31 13.88 26.63 13.77 26.77 13.87 26.73 14.01 26.31 14.12 26.31 13.88"/><polygon class="cls-2" points="26.31 14.14 26.63 14.04 26.77 14.14 26.73 14.27 26.31 14.39 26.31 14.14"/><polygon class="cls-7" points="26.31 14.41 26.63 14.3 26.77 14.41 26.73 14.54 26.31 14.65 26.31 14.41"/><polygon class="cls-2" points="26.31 14.68 26.63 14.57 26.77 14.68 26.73 14.81 26.31 14.92 26.31 14.68"/><polygon class="cls-7" points="26.31 14.95 26.63 14.84 26.77 14.94 26.73 15.08 26.31 15.19 26.31 14.95"/><polygon class="cls-2" points="26.31 15.21 26.63 15.11 26.77 15.21 26.73 15.35 26.31 15.46 26.31 15.21"/><polygon class="cls-7" points="26.27 12.78 25.95 12.3 25.81 12.25 25.85 12.42 26.27 13.02 26.27 12.78"/><polygon class="cls-2" points="26.27 13.04 25.95 12.57 25.81 12.52 25.85 12.69 26.27 13.29 26.27 13.04"/><polygon class="cls-7" points="26.27 13.31 25.95 12.84 25.81 12.78 25.85 12.96 26.27 13.56 26.27 13.31"/><polygon class="cls-2" points="26.27 13.58 25.95 13.1 25.81 13.05 25.85 13.22 26.27 13.82 26.27 13.58"/><polygon class="cls-7" points="26.27 13.85 25.95 13.37 25.81 13.32 25.85 13.49 26.27 14.09 26.27 13.85"/><polygon class="cls-2" points="26.27 14.12 25.95 13.64 25.81 13.59 25.85 13.76 26.27 14.36 26.27 14.12"/><polygon class="cls-7" points="26.27 14.38 25.95 13.91 25.81 13.86 25.85 14.03 26.27 14.63 26.27 14.38"/><polygon class="cls-2" points="26.27 14.65 25.95 14.18 25.81 14.12 25.85 14.3 26.27 14.9 26.27 14.65"/><polygon class="cls-7" points="26.27 14.92 25.95 14.44 25.81 14.39 25.85 14.56 26.27 15.16 26.27 14.92"/><polygon class="cls-2" points="26.27 15.19 25.95 14.71 25.81 14.66 25.85 14.83 26.27 15.43 26.27 15.19"/><polygon class="cls-3" points="30.36 12.98 30.36 15.12 29.5 14.62 29.5 12.52 29.5 12.52 29.63 12.51 29.64 12.51 29.78 12.5 29.79 12.5 29.9 12.49 29.92 12.51 29.93 12.52 30.06 12.66 30.07 12.67 30.2 12.82 30.21 12.83 30.35 12.97 30.36 12.98"/><polygon class="cls-2" points="29.63 12.51 29.63 14.7 29.5 14.62 29.5 12.52 29.63 12.51"/><polygon class="cls-3" points="29.78 12.5 29.78 14.78 29.64 14.7 29.64 12.51 29.78 12.5"/><polygon class="cls-2" points="29.92 12.51 29.92 14.86 29.79 14.78 29.79 12.5 29.9 12.49 29.92 12.51"/><polygon class="cls-3" points="30.06 12.66 30.06 14.94 29.93 14.87 29.93 12.52 30.06 12.66"/><polygon class="cls-2" points="30.2 12.82 30.2 15.03 30.07 14.95 30.07 12.67 30.2 12.82"/><polygon class="cls-3" points="30.35 12.97 30.35 15.11 30.21 15.03 30.21 12.83 30.35 12.97"/><polygon class="cls-8" points="29.93 14.2 29.71 14.29 29.71 17.23 29.93 17.5 30.13 17.46 30.13 14.52 29.93 14.2"/><polygon class="cls-7" points="29.95 14.91 30.27 14.8 30.41 14.91 30.37 15.04 29.95 15.16 29.95 14.91"/><polygon class="cls-2" points="29.95 15.18 30.27 15.07 30.41 15.18 30.37 15.31 29.95 15.43 29.95 15.18"/><polygon class="cls-7" points="29.95 15.45 30.27 15.34 30.41 15.45 30.37 15.58 29.95 15.69 29.95 15.45"/><polygon class="cls-2" points="29.95 15.72 30.27 15.61 30.41 15.71 30.37 15.85 29.95 15.96 29.95 15.72"/><polygon class="cls-7" points="29.95 15.98 30.27 15.88 30.41 15.98 30.37 16.11 29.95 16.23 29.95 15.98"/><polygon class="cls-2" points="29.95 16.25 30.27 16.14 30.41 16.25 30.37 16.38 29.95 16.5 29.95 16.25"/><polygon class="cls-7" points="29.95 16.52 30.27 16.41 30.41 16.52 30.37 16.65 29.95 16.77 29.95 16.52"/><polygon class="cls-2" points="29.95 16.79 30.27 16.68 30.41 16.79 30.37 16.92 29.95 17.03 29.95 16.79"/><polygon class="cls-7" points="29.95 17.06 30.27 16.95 30.41 17.05 30.37 17.19 29.95 17.3 29.95 17.06"/><polygon class="cls-2" points="29.95 17.32 30.27 17.22 30.41 17.32 30.37 17.45 29.95 17.57 29.95 17.32"/><polygon class="cls-7" points="29.91 14.89 29.59 14.41 29.45 14.36 29.49 14.53 29.91 15.13 29.91 14.89"/><polygon class="cls-2" points="29.91 15.15 29.59 14.68 29.45 14.63 29.49 14.8 29.91 15.4 29.91 15.15"/><polygon class="cls-7" points="29.91 15.42 29.59 14.95 29.45 14.89 29.49 15.07 29.91 15.67 29.91 15.42"/><polygon class="cls-2" points="29.91 15.69 29.59 15.21 29.45 15.16 29.49 15.34 29.91 15.93 29.91 15.69"/><polygon class="cls-7" points="29.91 15.96 29.59 15.48 29.45 15.43 29.49 15.6 29.91 16.2 29.91 15.96"/><polygon class="cls-2" points="29.91 16.23 29.59 15.75 29.45 15.7 29.49 15.87 29.91 16.47 29.91 16.23"/><polygon class="cls-7" points="29.91 16.49 29.59 16.02 29.45 15.96 29.49 16.14 29.91 16.74 29.91 16.49"/><polygon class="cls-2" points="29.91 16.76 29.59 16.29 29.45 16.23 29.49 16.41 29.91 17.01 29.91 16.76"/><polygon class="cls-7" points="29.91 17.03 29.59 16.55 29.45 16.5 29.49 16.68 29.91 17.27 29.91 17.03"/><polygon class="cls-2" points="29.91 17.3 29.59 16.82 29.45 16.77 29.49 16.94 29.91 17.54 29.91 17.3"/><polygon class="cls-1" points="25.86 10.37 26.02 10.3 26.49 10.31 26.29 10.41 25.86 10.37"/><polygon class="cls-2" points="26.72 10.9 26.29 10.41 26.49 10.31 26.91 10.8 26.72 10.9"/><polygon class="cls-1" points="29.5 12.52 29.68 12.43 30.06 12.39 29.9 12.49 29.5 12.52"/><polygon class="cls-6" points="30.35 12.97 29.9 12.49 30.06 12.39 30.53 12.9 30.35 12.97"/><polygon class="cls-6" points="30.54 17.75 30.52 13.03 30.34 12.96 30.34 17.65 30.54 17.75"/><path class="cls-2" d="M34.16,11.62V11l-.2-.1c0,.2,0,.3,0,.49a.84.84,0,0,1-.23.14.24.24,0,0,1-.26-.08h-.06a.58.58,0,0,1-.18.14s-.08,0-.27,0l-.28,0-.16.25c-.2.32-.27.45-.38.46a.26.26,0,0,1-.14-.05l-.18.33c-.09.17-.14.25-.22.27a.21.21,0,0,1-.12,0l-.11.29v.61Z"/><path class="cls-3" d="M30.88,14l.52.18a4,4,0,0,1,1.42-1.66,1.2,1.2,0,0,1,1.45,0l.46-.7-.33-.27-.11.17-.3-.27-.19.2-.31-.22-.14.25-.56-.09-.52.72-.18-.08-.34.57h-.18l-.27.63-.11-.1Z"/><path class="cls-15" d="M30.54,17.76a11,11,0,0,0,2.31-1A15.14,15.14,0,0,0,35,15.16V12.08l-4.48,2.6Z"/><path class="cls-1" d="M31.22,14.92c0,1,.7,1.33,1.56.83a3.35,3.35,0,0,0,1.55-2.63,1.12,1.12,0,0,0-.32-.88,1,1,0,0,0-1.23,0,3.29,3.29,0,0,0-1.21,1.34A3.05,3.05,0,0,0,31.22,14.92Z"/><path class="cls-3" d="M33.84,12.55v1.71a2.34,2.34,0,0,0,.25-1A.94.94,0,0,0,33.84,12.55Z"/><path class="cls-2" d="M33.45,12.37v2.52a3.68,3.68,0,0,0,.39-.63V12.55A.64.64,0,0,0,33.45,12.37Z"/><path class="cls-3" d="M33.05,12.43v2.86a3,3,0,0,0,.4-.4V12.37A1,1,0,0,0,33.05,12.43Z"/><path class="cls-2" d="M32.66,12.63v2.91l.12-.06.27-.19V12.43a1.11,1.11,0,0,0-.27.13Z"/><path class="cls-3" d="M32.26,13v2.69a1.07,1.07,0,0,0,.4-.12V12.63A3.14,3.14,0,0,0,32.26,13Z"/><path class="cls-2" d="M31.87,13.49V15.6a.82.82,0,0,0,.39.06V13A3.36,3.36,0,0,0,31.87,13.49Z"/><path class="cls-3" d="M31.48,14.63v.28a.8.8,0,0,0,.39.69V13.49A2.68,2.68,0,0,0,31.48,14.63Z"/><polygon class="cls-2" points="32.78 12.63 32.41 13.67 31.59 14.28 32.18 14.59 32.04 15.58 32.78 14.72 33.52 14.73 33.38 13.9 33.97 12.9 33.15 13.25 32.78 12.63"/><path class="cls-2" d="M31.62,15.78a1.08,1.08,0,0,0,1.15.17v.12s-.88.62-1.32,0C31.45,16,31.35,15.82,31.62,15.78Z"/><path class="cls-11" d="M31.46,16.06a1.29,1.29,0,0,0,1.31.07v.12s-1,.69-1.51.08C31.26,16.33,31.15,16.12,31.46,16.06Z"/><path class="cls-2" d="M33.92,14.45A4.48,4.48,0,0,1,32.77,16v.12a2.91,2.91,0,0,0,1.32-1.57S34.19,14.18,33.92,14.45Z"/><path class="cls-11" d="M34.09,14.53a5.09,5.09,0,0,1-1.32,1.6v.12a3.45,3.45,0,0,0,1.52-1.68S34.39,14.24,34.09,14.53Z"/><polygon class="cls-3" points="35.02 10.44 35.02 12.57 34.16 13.07 34.16 10.96 34.16 10.96 34.29 10.8 34.3 10.79 34.44 10.63 34.45 10.61 34.56 10.47 34.58 10.47 34.59 10.47 34.72 10.46 34.73 10.46 34.87 10.45 34.88 10.45 35.01 10.44 35.02 10.44"/><polygon class="cls-11" points="34.29 10.8 34.29 12.99 34.16 13.07 34.16 10.96 34.29 10.8"/><polygon class="cls-3" points="34.44 10.63 34.44 12.91 34.3 12.98 34.3 10.79 34.44 10.63"/><polygon class="cls-11" points="34.58 10.47 34.58 12.82 34.45 12.9 34.45 10.61 34.56 10.47 34.58 10.47"/><polygon class="cls-3" points="34.72 10.46 34.72 12.74 34.59 12.82 34.59 10.47 34.72 10.46"/><polygon class="cls-11" points="34.87 10.45 34.87 12.66 34.73 12.73 34.73 10.46 34.87 10.45"/><polygon class="cls-3" points="35.01 10.44 35.01 12.57 34.88 12.65 34.88 10.45 35.01 10.44"/><polygon class="cls-4" points="34.59 12.15 34.8 12.24 34.8 15.18 34.59 15.46 34.39 15.42 34.39 12.47 34.59 12.15"/><polygon class="cls-3" points="34.56 12.87 34.24 12.76 34.11 12.86 34.14 13 34.56 13.11 34.56 12.87"/><polygon class="cls-6" points="34.56 13.13 34.24 13.03 34.11 13.13 34.14 13.26 34.56 13.38 34.56 13.13"/><polygon class="cls-3" points="34.56 13.4 34.24 13.29 34.11 13.4 34.14 13.53 34.56 13.65 34.56 13.4"/><polygon class="cls-6" points="34.56 13.67 34.24 13.56 34.11 13.67 34.14 13.8 34.56 13.91 34.56 13.67"/><polygon class="cls-3" points="34.56 13.94 34.24 13.83 34.11 13.93 34.14 14.07 34.56 14.18 34.56 13.94"/><polygon class="cls-6" points="34.56 14.21 34.24 14.1 34.11 14.2 34.14 14.34 34.56 14.45 34.56 14.21"/><polygon class="cls-3" points="34.56 14.47 34.24 14.37 34.11 14.47 34.14 14.6 34.56 14.72 34.56 14.47"/><polygon class="cls-6" points="34.56 14.74 34.24 14.63 34.11 14.74 34.14 14.87 34.56 14.99 34.56 14.74"/><polygon class="cls-3" points="34.56 15.01 34.24 14.9 34.11 15.01 34.14 15.14 34.56 15.25 34.56 15.01"/><polygon class="cls-6" points="34.56 15.28 34.24 15.17 34.11 15.27 34.14 15.41 34.56 15.52 34.56 15.28"/><polygon class="cls-3" points="34.61 12.84 34.93 12.36 35.06 12.31 35.03 12.48 34.61 13.08 34.61 12.84"/><polygon class="cls-6" points="34.61 13.11 34.93 12.63 35.06 12.58 35.03 12.75 34.61 13.35 34.61 13.11"/><polygon class="cls-3" points="34.61 13.38 34.93 12.9 35.06 12.85 35.03 13.02 34.61 13.62 34.61 13.38"/><polygon class="cls-6" points="34.61 13.64 34.93 13.17 35.06 13.11 35.03 13.29 34.61 13.89 34.61 13.64"/><polygon class="cls-3" points="34.61 13.91 34.93 13.44 35.06 13.38 35.03 13.56 34.61 14.15 34.61 13.91"/><polygon class="cls-6" points="34.61 14.18 34.93 13.7 35.06 13.65 35.03 13.82 34.61 14.42 34.61 14.18"/><polygon class="cls-3" points="34.61 14.45 34.93 13.97 35.06 13.92 35.03 14.09 34.61 14.69 34.61 14.45"/><polygon class="cls-6" points="34.61 14.71 34.93 14.24 35.06 14.19 35.03 14.36 34.61 14.96 34.61 14.71"/><polygon class="cls-3" points="34.61 14.98 34.93 14.51 35.06 14.45 35.03 14.63 34.61 15.23 34.61 14.98"/><polygon class="cls-6" points="34.61 15.25 34.93 14.78 35.06 14.72 35.03 14.9 34.61 15.49 34.61 15.25"/><polygon class="cls-3" points="30.52 13.04 30.52 15.18 31.38 14.68 31.38 12.58 31.38 12.58 31.24 12.57 31.23 12.57 31.1 12.56 31.09 12.56 30.98 12.55 30.96 12.57 30.95 12.58 30.81 12.73 30.8 12.74 30.67 12.88 30.66 12.89 30.53 13.04 30.52 13.04"/><polygon class="cls-11" points="31.24 12.57 31.24 14.76 31.38 14.68 31.38 12.58 31.24 12.57"/><polygon class="cls-3" points="31.1 12.56 31.1 14.84 31.23 14.76 31.23 12.57 31.1 12.56"/><polygon class="cls-11" points="30.96 12.57 30.96 14.92 31.09 14.85 31.09 12.56 30.98 12.55 30.96 12.57"/><polygon class="cls-3" points="30.81 12.73 30.81 15.01 30.95 14.93 30.95 12.58 30.81 12.73"/><polygon class="cls-11" points="30.67 12.88 30.67 15.09 30.8 15.01 30.8 12.74 30.67 12.88"/><polygon class="cls-3" points="30.53 13.04 30.53 15.17 30.66 15.1 30.66 12.89 30.53 13.04"/><polygon class="cls-4" points="30.95 14.26 31.17 14.35 31.17 17.29 30.95 17.57 30.75 17.53 30.75 14.58 30.95 14.26"/><polygon class="cls-3" points="30.92 14.98 30.61 14.87 30.47 14.97 30.5 15.11 30.92 15.22 30.92 14.98"/><polygon class="cls-6" points="30.92 15.24 30.61 15.14 30.47 15.24 30.5 15.37 30.92 15.49 30.92 15.24"/><polygon class="cls-3" points="30.92 15.51 30.61 15.4 30.47 15.51 30.5 15.64 30.92 15.76 30.92 15.51"/><polygon class="cls-6" points="30.92 15.78 30.61 15.67 30.47 15.78 30.5 15.91 30.92 16.02 30.92 15.78"/><polygon class="cls-3" points="30.92 16.05 30.61 15.94 30.47 16.04 30.5 16.18 30.92 16.29 30.92 16.05"/><polygon class="cls-6" points="30.92 16.32 30.61 16.21 30.47 16.31 30.5 16.45 30.92 16.56 30.92 16.32"/><polygon class="cls-3" points="30.92 16.58 30.61 16.48 30.47 16.58 30.5 16.71 30.92 16.83 30.92 16.58"/><polygon class="cls-6" points="30.92 16.85 30.61 16.74 30.47 16.85 30.5 16.98 30.92 17.09 30.92 16.85"/><polygon class="cls-3" points="30.92 17.12 30.61 17.01 30.47 17.12 30.5 17.25 30.92 17.36 30.92 17.12"/><polygon class="cls-6" points="30.92 17.39 30.61 17.28 30.47 17.38 30.5 17.52 30.92 17.63 30.92 17.39"/><polygon class="cls-3" points="30.97 14.95 31.29 14.47 31.42 14.42 31.39 14.59 30.97 15.19 30.97 14.95"/><polygon class="cls-6" points="30.97 15.22 31.29 14.74 31.42 14.69 31.39 14.86 30.97 15.46 30.97 15.22"/><polygon class="cls-3" points="30.97 15.48 31.29 15.01 31.42 14.96 31.39 15.13 30.97 15.73 30.97 15.48"/><polygon class="cls-6" points="30.97 15.75 31.29 15.28 31.42 15.22 31.39 15.4 30.97 16 30.97 15.75"/><polygon class="cls-3" points="30.97 16.02 31.29 15.54 31.42 15.49 31.39 15.67 30.97 16.27 30.97 16.02"/><polygon class="cls-6" points="30.97 16.29 31.29 15.81 31.42 15.76 31.39 15.93 30.97 16.53 30.97 16.29"/><polygon class="cls-3" points="30.97 16.56 31.29 16.08 31.42 16.03 31.39 16.2 30.97 16.8 30.97 16.56"/><polygon class="cls-6" points="30.97 16.82 31.29 16.35 31.42 16.3 31.39 16.47 30.97 17.07 30.97 16.82"/><polygon class="cls-3" points="30.97 17.09 31.29 16.62 31.42 16.56 31.39 16.74 30.97 17.34 30.97 17.09"/><polygon class="cls-6" points="30.97 17.36 31.29 16.88 31.42 16.83 31.39 17 30.97 17.61 30.97 17.36"/><polygon class="cls-2" points="35.02 10.44 34.86 10.37 34.39 10.37 34.59 10.47 35.02 10.44"/><polygon class="cls-1" points="34.16 10.96 34.59 10.47 34.39 10.37 33.96 10.86 34.16 10.96"/><polygon class="cls-2" points="31.38 12.58 31.2 12.49 30.81 12.45 30.98 12.55 31.38 12.58"/><polygon class="cls-4" points="30.53 13.04 30.98 12.55 30.81 12.45 30.35 12.96 30.53 13.04"/><path class="cls-6" d="M30.91,19h0c.07-.06.36.06.38-4.21h0l0-.36A43,43,0,0,0,30.87,19S30.73,19,30.91,19Z"/><polygon class="cls-1" points="31.28 13.52 31.26 13.66 31.33 14.8 31.38 14.99 31.49 14.33 31.33 13.72 31.28 13.52"/><polygon class="cls-2" points="31.28 13.92 30.34 12.81 30.37 13.32 31.31 14.44 31.28 13.92"/><path class="cls-1" d="M30.37,13.32v4.43c.63,3.22.86-.53.87-1.88,0-.26,0-.46,0-.53V15.1c0-.35.06-.65.06-.66Z"/><path class="cls-3" d="M30.37,16.92v.57h0c.51,2.3.78-.35.87-1.62,0-.26,0-.46,0-.53V15.1c-.32,3.81-.85,1.91-.88,1.83Z"/><path class="cls-2" d="M30.37,16.41s.56,2.33.86-2.54c0,0-.3,3.59-.87,2.05Z"/><path class="cls-4" d="M30.37,15.51s.36,1.93.73-1.79c0,0-.34,2.21-.73,1.14Z"/><path class="cls-3" d="M30.37,14.5s.29,1.18.51-1.05c0,0-.32,1.26-.51.41Z"/><polygon class="cls-1" points="30.34 12.81 30.47 12.78 31.26 13.66 31.28 13.92 30.34 12.81"/><polygon class="cls-3" points="31.31 13.56 31.42 13.52 31.59 14.28 31.49 14.33 31.31 13.56"/><polygon class="cls-11" points="31.39 14.95 31.48 14.91 31.59 14.28 31.49 14.33 31.39 14.95"/><polygon class="cls-1" points="21.22 7.81 22.15 7.67 22.11 7.75 21.22 7.81"/><polygon class="cls-2" points="22.2 7.98 22.11 7.75 22.15 7.67 22.27 7.96 22.2 7.98"/><polygon class="cls-2" points="22.13 8.17 22.2 7.98 22.27 7.96 22.21 8.17 22.13 8.17"/><polygon class="cls-4" points="26 10.3 22.21 8.17 22.13 8.17 25.95 10.33 26 10.3"/><polygon class="cls-6" points="22 8.57 21.89 8.85 21.96 8.81 22.03 8.67 22 8.57"/><polygon class="cls-1" points="34.89 10.38 34.86 10.37 38.77 8.13 38.79 8.17 34.89 10.38"/><polygon class="cls-4" points="38.86 7.8 38.94 7.78 39.73 8 39.72 8.03 38.86 7.8"/><polygon class="cls-6" points="29.52 4.58 29.57 4.58 29.6 4.8 29.53 4.8 29.52 4.58"/><polygon class="cls-2" points="29.35 4.55 29.42 4.53 29.57 4.58 29.52 4.58 29.35 4.55"/><polygon class="cls-16" points="29.53 4.8 29.52 4.99 29.59 4.99 29.6 4.8 29.53 4.8"/><polygon class="cls-1" points="29.52 4.99 29.59 4.99 30.35 7.53 30.25 7.52 29.52 4.99"/><polygon class="cls-16" points="29.48 5.63 29.51 5.63 29.49 5.37 29.43 5.63 29.48 5.63"/><polygon class="cls-1" points="25.81 9.75 25.53 10.04 25.43 9.99 25.74 9.69 25.81 9.75"/><polygon class="cls-3" points="26.24 9.76 25.81 9.75 25.74 9.69 26.17 9.7 26.24 9.76"/><polygon class="cls-1" points="26.24 10.26 26.41 9.89 26.44 9.95 26.28 10.31 26.24 10.31 26.24 10.26"/><polygon class="cls-3" points="26.63 9.96 26.59 9.89 26.41 9.89 26.44 9.95 26.63 9.96"/><polygon class="cls-1" points="26.95 9.31 27 9.37 26.63 9.96 26.59 9.89 26.95 9.31"/><polygon class="cls-3" points="27.19 9.45 27.15 9.38 26.95 9.31 27 9.37 27.19 9.45"/><polygon class="cls-1" points="27.71 8.67 27.74 8.71 27.19 9.45 27.15 9.38 27.71 8.67"/><polygon class="cls-3" points="28.33 8.78 28.31 8.73 27.71 8.67 27.74 8.71 28.33 8.78"/><polygon class="cls-1" points="28.45 8.47 28.48 8.53 28.33 8.78 28.31 8.73 28.45 8.47"/><polygon class="cls-3" points="28.8 8.69 28.82 8.73 28.48 8.53 28.45 8.47 28.8 8.69"/><polygon class="cls-1" points="28.99 8.48 29.01 8.53 28.82 8.73 28.8 8.69 28.99 8.48"/><polygon class="cls-7" points="29.55 7.51 29.65 7.53 29.2 8.04 29.07 7.98 29.55 7.51"/><polygon class="cls-11" points="29.07 8.58 29.07 7.98 29.2 8.04 29.19 8.67 29.07 8.58"/><polygon class="cls-3" points="29.55 7.51 30.21 7.47 30.25 7.53 29.65 7.53 29.55 7.51"/><polygon class="cls-3" points="29.19 8.67 29.07 8.54 28.99 8.48 29.01 8.53 29.19 8.67"/><polygon class="cls-1" points="30.34 7.47 30.25 7.53 30.55 7.55 30.64 7.51 30.34 7.47"/><polygon class="cls-11" points="31.01 8.06 30.55 7.55 30.64 7.51 31.1 8.02 31.01 8.06"/><polygon class="cls-16" points="31.01 8.69 31.01 8.06 31.1 8.02 31.11 8.61 31.01 8.69"/><polygon class="cls-1" points="33.97 9.77 34.13 9.7 34.54 9.69 34.39 9.76 33.97 9.77"/><polygon class="cls-11" points="34.88 10.27 35 10.18 34.54 9.69 34.39 9.76 34.88 10.27"/><polygon class="cls-16" points="34.88 10.36 34.88 10.27 35 10.18 35 10.28 34.88 10.36"/><polygon class="cls-1" points="31.11 8.58 31.01 8.69 31.2 8.54 31.26 8.51 31.11 8.58"/><polygon class="cls-16" points="31.39 8.75 31.2 8.54 31.26 8.51 31.46 8.71 31.39 8.75"/><polygon class="cls-16" points="31.73 8.54 31.79 8.51 31.98 8.78 31.88 8.79 31.73 8.54"/><polygon class="cls-16" points="32.46 8.73 32.55 8.7 33.11 9.43 33.01 9.46 32.46 8.73"/><polygon class="cls-16" points="33.21 9.39 33.28 9.35 33.66 9.97 33.57 9.97 33.21 9.39"/><polygon class="cls-16" points="33.76 9.97 33.84 9.94 33.97 10.27 33.97 10.42 33.76 9.97"/><polygon class="cls-1" points="33.57 9.97 33.64 9.94 33.84 9.94 33.76 9.97 33.57 9.97"/><polygon class="cls-1" points="33.01 9.46 33.09 9.4 33.28 9.35 33.21 9.39 33.01 9.46"/><polygon class="cls-1" points="31.97 8.77 31.88 8.79 32.46 8.73 32.55 8.7 31.97 8.77"/><polygon class="cls-16" points="28.1 12.56 27.9 13.79 28.46 13.61 28.1 12.56"/><polygon class="cls-3" points="29.29 14.22 27.9 13.79 28.46 13.61 29.29 14.22"/><polygon class="cls-1" points="27.73 13.18 27.9 13.79 28.1 12.56 27.73 13.18"/><polygon class="cls-4" points="26.91 12.84 27.9 13.79 27.73 13.18 26.91 12.84"/><polygon class="cls-6" points="27.5 13.83 27.9 13.79 26.91 12.84 27.5 13.83"/><polygon class="cls-7" points="27.36 14.67 27.9 13.79 27.5 13.83 27.36 14.67"/><polygon class="cls-16" points="28.1 14.66 27.9 13.79 27.36 14.67 28.1 14.66"/><polygon class="cls-3" points="28.83 15.52 27.9 13.79 28.1 14.66 28.83 15.52"/><polygon class="cls-16" points="28.69 14.52 27.9 13.79 29.29 14.22 28.69 14.52"/><polygon class="cls-2" points="28.83 15.52 27.9 13.79 28.69 14.52 28.83 15.52"/><polygon class="cls-2" points="32.78 12.63 32.94 13.95 32.41 13.67 32.78 12.63"/><polygon class="cls-11" points="31.59 14.28 32.41 13.67 32.94 13.95 31.59 14.28"/><polygon class="cls-16" points="32.18 14.59 31.59 14.28 32.94 13.95 32.18 14.59"/><polygon class="cls-2" points="32.04 15.58 32.94 13.95 32.18 14.59 32.04 15.58"/><polygon class="cls-16" points="33.15 13.25 32.94 13.95 32.78 12.63 33.15 13.25"/><polygon class="cls-16" points="33.97 12.9 33.38 13.9 32.94 13.95 33.97 12.9"/><polygon class="cls-11" points="33.52 14.73 33.46 14.66 32.94 13.95 33.38 13.9 33.52 14.73"/><polygon class="cls-20" points="32.94 13.95 33.52 14.73 32.85 14.72 32.94 13.95"/><polygon class="cls-11" points="32.04 15.58 32.94 13.95 32.18 14.59 32.04 15.58"/><polygon class="cls-21" points="27.84 36.12 28.63 35.66 29.4 36.12 28.63 36.57 27.84 36.12"/><path class="cls-22" d="M28.63,35.71l.7.41-.7.4-.71-.4.71-.41m0-.09-.86.5.86.49.85-.49-.85-.5Z"/><polygon class="cls-21" points="28.66 36.63 29.44 36.18 29.45 40.05 28.66 40.51 28.66 36.63"/><path class="cls-22" d="M29.4,36.25V40l-.71.41V36.65l.7-.4m.08-.13-.85.49v4l.85-.5v-4Z"/><polygon class="cls-21" points="27.81 40.05 27.81 36.18 28.59 36.63 28.59 40.51 27.81 40.05"/><path class="cls-22" d="M27.84,36.25l.71.4v3.79L27.84,40V36.25m-.07-.13v4l.86.5v-4l-.86-.49Z"/><rect class="cls-22" x="28.17" y="36.85" width="0.05" height="3.1"/><path class="cls-22" d="M28.25,37h0s0,0,0,.06h0a0,0,0,0,0,.06,0h0s0,0,.06,0h0s0,0,0,0h0a0,0,0,0,0,0-.06h0a0,0,0,0,0-.06,0h0s0,0-.05,0l-.07,0a0,0,0,0,0,0,0h0a0,0,0,0,0,0-.05h0a0,0,0,0,0-.05,0h0s0,0-.06,0h0a0,0,0,0,0,0,.06h0s0,0,0,.06h0a0,0,0,0,0,.06,0h0a0,0,0,0,0,.06,0l.07,0A0,0,0,0,0,28.25,37Zm-.18-.13a0,0,0,0,1,0,0s0,0,0,0v0l0,0v0h0Zm.25.1h0a0,0,0,0,1,0,0,0,0,0,0,1,0,0s0,0,0,0h0Z"/><path class="cls-22" d="M28.25,37.33h0s0,0,0,.06h0a0,0,0,0,0,.06,0h0s0,0,.06,0h0a0,0,0,0,0,0-.06h0a0,0,0,0,0,0-.06h0a0,0,0,0,0-.06,0h0a0,0,0,0,0-.05,0l-.07,0a0,0,0,0,0,0,0h0s0,0,0-.06h0s0,0-.05,0h0a0,0,0,0,0-.06,0h0a0,0,0,0,0,0,.06h0a0,0,0,0,0,0,0h0s0,0,.06,0h0a0,0,0,0,0,.06,0l.07,0A0,0,0,0,0,28.25,37.33Zm-.18-.12a0,0,0,0,1,0,0,0,0,0,0,1,0,0,0,0,0,0,1,0,0h0v0l0,0Zm.25.1h0s0,0,0,0a0,0,0,0,1,0,0s0,0,0,0h0Z"/><path class="cls-22" d="M28.25,38.08h0s0,.05,0,.06h0a0,0,0,0,0,.06,0h0s0,0,.06,0h0s0,0,0-.05h0a0,0,0,0,0,0-.06h0a0,0,0,0,0-.06,0h0s0,0-.05,0l-.07,0a0,0,0,0,0,0-.05h0a0,0,0,0,0,0,0h0a0,0,0,0,0-.05,0h0s0,0-.06,0h0a0,0,0,0,0,0,.06h0s0,0,0,.06h0a0,0,0,0,0,.06,0h0a0,0,0,0,0,.06,0l.07,0A0,0,0,0,0,28.25,38.08ZM28.07,38s0,0,0,0,0,0,0,0v0h0v0h0Zm.25.1h0s0,0,0,0h0a0,0,0,0,1,0,0h0Z"/><path class="cls-22" d="M28.25,38.39h0s0,.05,0,.06h0a0,0,0,0,0,.06,0h0s0,0,.06,0h0a0,0,0,0,0,0-.06h0a0,0,0,0,0,0-.06h0a0,0,0,0,0-.06,0h0s0,0-.05,0l-.07,0a0,0,0,0,0,0-.05h0s0,0,0-.06h0s0,0-.05,0h0a0,0,0,0,0-.06,0h0a0,0,0,0,0,0,.06h0a0,0,0,0,0,0,0h0s0,0,.06,0h0a0,0,0,0,0,.06,0l.07,0A0,0,0,0,0,28.25,38.39Zm-.18-.12a0,0,0,0,1,0,0,0,0,0,0,1,0,0l0,0,0,0v0l0,0Zm.25.1h0a0,0,0,0,1,0,0,0,0,0,0,1,0,0s0,0,0,0h0Z"/><path class="cls-22" d="M28.25,39.35h0s0,0,0,.06h0a0,0,0,0,0,.06,0h0a0,0,0,0,0,.06,0h0s0-.05,0-.06h0a0,0,0,0,0,0-.06h0s-.05,0-.06,0h0s0,0-.05,0l-.07,0s0,0,0,0h0a0,0,0,0,0,0-.06h0a0,0,0,0,0-.05,0h0s0,0-.06,0h0a0,0,0,0,0,0,.06h0a0,0,0,0,0,0,.06h0a0,0,0,0,0,.06,0h0a.07.07,0,0,0,.06,0l.07,0S28.23,39.34,28.25,39.35Zm-.18-.13s0,0,0,0h0s0,0,0,0h0v0h0Zm.25.1h0a0,0,0,0,1,0,0s0,0,0,0h0a0,0,0,0,1,0,0h0Z"/><path class="cls-22" d="M28.25,39.67h0s0,0,0,.06h0a0,0,0,0,0,.06,0h0s0,0,.06,0h0s0,0,0,0h0a0,0,0,0,0,0-.06h0a0,0,0,0,0-.06,0h0s0,0-.05,0l-.07,0a0,0,0,0,0,0,0h0a0,0,0,0,0,0-.05h0a0,0,0,0,0-.05,0h0s0,0-.06,0h0a0,0,0,0,0,0,.06h0a0,0,0,0,0,0,.05h0a0,0,0,0,0,.06,0h0a0,0,0,0,0,.06,0l.07,0A0,0,0,0,0,28.25,39.67Zm-.18-.13a0,0,0,0,1,0,0,0,0,0,0,1,0,0s0,0,0,0l0,0v0h0Zm.25.1h0a0,0,0,0,1,0,0,0,0,0,0,1,0,0,0,0,0,0,1,0,0s0,0,0,0h0Z"/><rect class="cls-22" x="29.05" y="36.85" width="0.05" height="3.1"/><path class="cls-22" d="M29.05,37l.07,0a0,0,0,0,0,.05,0h0s0,0,.06,0h0s0,0,0-.06h0s0,0,0-.06h0a0,0,0,0,0-.06,0h0a0,0,0,0,0-.06,0h0s0,0,0,.05h0a0,0,0,0,0,0,0l-.07,0a.07.07,0,0,0-.06,0h0s0,0-.06,0h0a0,0,0,0,0,0,.06h0s0,0,0,0h0a0,0,0,0,0,.06,0h0a0,0,0,0,0,.05,0h0A0,0,0,0,0,29,37h0A0,0,0,0,0,29.05,37Zm.13-.07h0v0l0,0a0,0,0,0,1,0,0s0,0,0,0,0,0,0,0ZM29,37h0v0s0,0,0,0,0,0,0,0h0Z"/><path class="cls-22" d="M29.05,37.28l.07,0a0,0,0,0,0,.05,0h0a0,0,0,0,0,.06,0h0s0,0,0,0h0s0,0,0-.06h0s0,0-.06,0h0s0,0-.06,0h0a0,0,0,0,0,0,.06h0a0,0,0,0,0,0,0l-.07,0a0,0,0,0,0-.06,0h0s0,0-.06,0h0a0,0,0,0,0,0,.06h0s0,0,0,.06h0a0,0,0,0,0,.06,0h0s0,0,.05,0h0a0,0,0,0,0,0-.06h0A0,0,0,0,0,29.05,37.28Zm.13-.07,0,0v0h0s0,0,0,0,0,0,0,0,0,0,0,0Zm-.21.12h0v0s0,0,0,0a0,0,0,0,1,0,0h0Z"/><path class="cls-22" d="M29.05,38l.07,0a0,0,0,0,0,.05,0h0s0,0,.06,0h0s0,0,0-.06h0s0,0,0-.06h0a0,0,0,0,0-.06,0h0a0,0,0,0,0-.06,0h0s0,0,0,0h0a0,0,0,0,0,0,.05L29,38A.07.07,0,0,0,29,38h0s0,0-.06,0h0a0,0,0,0,0,0,.06h0s0,0,0,.05h0a0,0,0,0,0,.06,0h0a0,0,0,0,0,.05,0h0a0,0,0,0,0,0-.06h0A0,0,0,0,0,29.05,38Zm.13-.07h0v0h0a0,0,0,0,1,0,0s0,0,0,0,0,0,0,0Zm-.21.12h0s0,0,0,0,0,0,0,0,0,0,0,0h0Z"/><path class="cls-22" d="M29.05,38.34l.07,0a0,0,0,0,0,.05,0h0a0,0,0,0,0,.06,0h0s0,0,0,0h0s0,0,0-.06h0s0,0-.06,0h0s0,0-.06,0h0a0,0,0,0,0,0,.06h0a0,0,0,0,0,0,.05l-.07,0a.07.07,0,0,0-.06,0h0s0,0-.06,0h0a0,0,0,0,0,0,.06h0s0,0,0,.06h0a0,0,0,0,0,.06,0h0s0,0,.05,0h0a0,0,0,0,0,0-.06h0A0,0,0,0,0,29.05,38.34Zm.13-.07,0,0v0l0,0a0,0,0,0,1,0,0s0,0,0,0,0,0,0,0Zm-.21.12h0v0s0,0,0,0,0,0,0,0h0Z"/><path class="cls-22" d="M29.05,39.3l.07,0s0,0,.05,0h0s0,0,.06,0h0a0,0,0,0,0,0-.06h0s0,0,0-.06h0a0,0,0,0,0-.06,0h0a0,0,0,0,0-.06,0h0s0,0,0,.06h0s0,0,0,0l-.07,0a.07.07,0,0,0-.06,0h0a0,0,0,0,0-.06,0h0a0,0,0,0,0,0,.06h0a0,0,0,0,0,0,.06h0s0,0,.06,0h0a0,0,0,0,0,.05,0h0a0,0,0,0,0,0-.06h0S29.06,39.31,29.05,39.3Zm.13-.08h0v0h0a0,0,0,0,1,0,0h0s0,0,0,0Zm-.21.12h0s0,0,0,0h0s0,0,0,0a0,0,0,0,1,0,0h0Z"/><path class="cls-22" d="M29.05,39.61l.07,0a0,0,0,0,0,.05,0h0s0,0,.06,0h0s0,0,0-.05h0s0,0,0-.06h0a0,0,0,0,0-.06,0h0a.06.06,0,0,0-.06,0h0s0,0,0,.05h0a0,0,0,0,0,0,0l-.07,0a.07.07,0,0,0-.06,0h0s0,0-.06,0h0a0,0,0,0,0,0,.06h0s0,0,0,0h0a0,0,0,0,0,.06,0h0a0,0,0,0,0,.05,0h0a0,0,0,0,0,0-.06h0A0,0,0,0,0,29.05,39.61Zm.13-.07h0v0l0,0a0,0,0,0,1,0,0s0,0,0,0,0,0,0,0Zm-.21.12h0v0s0,0,0,0,0,0,0,0a0,0,0,0,1,0,0h0Z"/><polygon class="cls-21" points="22.08 32.94 22.86 32.48 23.64 32.94 22.86 33.39 22.08 32.94"/><path class="cls-22" d="M22.86,32.53l.71.41-.71.4-.71-.4.71-.41m0-.09-.85.5.85.49.85-.49-.85-.5Z"/><polygon class="cls-21" points="22.9 33.45 23.68 33 23.68 36.87 22.9 37.33 22.9 33.45"/><path class="cls-22" d="M23.64,33.07v3.78l-.71.41V33.47l.7-.4m.07-.13-.85.49v4l.86-.5v-4Z"/><polygon class="cls-21" points="22.04 36.87 22.04 33 22.83 33.45 22.83 37.33 22.04 36.87"/><path class="cls-22" d="M22.08,33.07l.71.4v3.79l-.71-.41V33.07M22,32.94v4l.85.5v-4L22,32.94Z"/><rect class="cls-22" x="22.41" y="33.67" width="0.05" height="3.1"/><path class="cls-22" d="M22.48,33.84h0a0,0,0,0,0,0,.06h0a0,0,0,0,0,.06,0h0a0,0,0,0,0,.06,0h0a0,0,0,0,0,0,0h0a0,0,0,0,0,0-.06h0s0,0-.05,0h0a0,0,0,0,0-.05,0l-.07,0s0,0,0,0h0a0,0,0,0,0,0,0h0a0,0,0,0,0-.06,0h0s-.05,0-.06,0h0a0,0,0,0,0,0,.06h0a0,0,0,0,0,0,.06h0s.05,0,.06,0h0s0,0,.05,0l.07,0S22.46,33.83,22.48,33.84Zm-.18-.13s0,0,0,0,0,0,0,0,0,0,0,0h0v0h0Zm.26.1h0s0,0,0,0a0,0,0,0,1,0,0l0,0h0Z"/><path class="cls-22" d="M22.48,34.15h0a0,0,0,0,0,0,.06h0a0,0,0,0,0,.06,0h0a0,0,0,0,0,.06,0h0s0,0,0-.06h0a0,0,0,0,0,0-.06h0a0,0,0,0,0-.05,0h0s0,0-.05,0l-.07,0s0,0,0,0h0s0,0,0-.06h0s-.05,0-.06,0h0a0,0,0,0,0-.06,0h0a0,0,0,0,0,0,.06h0s0,0,0,0h0a0,0,0,0,0,.06,0h0s0,0,.05,0l.07,0S22.46,34.14,22.48,34.15ZM22.3,34a.06.06,0,0,1,0,0s0,0,0,0,0,0,0,0l0,0v0l0,0Zm.26.1h0s0,0,0,0a0,0,0,0,1,0,0l0,0h0Z"/><path class="cls-22" d="M22.48,34.9h0a0,0,0,0,0,0,.06h0a0,0,0,0,0,.06,0h0a0,0,0,0,0,.06,0h0a0,0,0,0,0,0-.05h0a0,0,0,0,0,0-.06h0s0,0-.05,0h0a0,0,0,0,0-.05,0l-.07,0s0,0,0-.05h0a0,0,0,0,0,0,0h0a0,0,0,0,0-.06,0h0s-.05,0-.06,0h0a0,0,0,0,0,0,.06h0a0,0,0,0,0,0,.06h0s.05,0,.06,0h0s0,0,.05,0l.07,0S22.46,34.89,22.48,34.9Zm-.18-.13s0,0,0,0,0,0,0,0,0,0,0,0h0v0h0Zm.26.1h0s0,0,0,0h0l0,0h0Z"/><path class="cls-22" d="M22.48,35.21h0a0,0,0,0,0,0,.06h0a0,0,0,0,0,.06,0h0a0,0,0,0,0,.06,0h0s0,0,0-.06h0a0,0,0,0,0,0-.06h0a0,0,0,0,0-.05,0h0a0,0,0,0,0-.05,0l-.07,0s0,0,0-.05h0s0,0,0-.06h0s-.05,0-.06,0h0a0,0,0,0,0-.06,0h0a0,0,0,0,0,0,.06h0s0,0,0,0h0a0,0,0,0,0,.06,0h0s0,0,.05,0l.07,0S22.46,35.2,22.48,35.21Zm-.18-.12a.06.06,0,0,1,0,0s0,0,0,0,0,0,0,0l0,0v0l0,0Zm.26.1h0s0,0,0,0a0,0,0,0,1,0,0l0,0h0Z"/><path class="cls-22" d="M22.48,36.17h0a0,0,0,0,0,0,0h0a0,0,0,0,0,.06,0h0s.05,0,.06,0h0a0,0,0,0,0,0-.06h0a0,0,0,0,0,0-.06h0s0,0-.05,0h0a0,0,0,0,0-.05,0l-.07,0s0,0,0,0h0a0,0,0,0,0,0-.06h0a0,0,0,0,0-.06,0h0s-.05,0-.06,0v0a0,0,0,0,0,0,.05h0s0,.05,0,.06h0s.05,0,.06,0h0a0,0,0,0,0,.05,0l.07,0S22.46,36.16,22.48,36.17ZM22.3,36s0,0,0,0h0s0,0,0,0h0v0h0Zm.26.1h0a0,0,0,0,1,0,0s0,0,0,0h0l0,0h0Z"/><path class="cls-22" d="M22.48,36.49h0a0,0,0,0,0,0,.06h0a0,0,0,0,0,.06,0h0a0,0,0,0,0,.06,0h0a0,0,0,0,0,0,0h0a0,0,0,0,0,0-.06h0s0,0-.05,0h0a0,0,0,0,0-.05,0l-.07,0s0,0,0,0h0a0,0,0,0,0,0-.05h0a0,0,0,0,0-.06,0h0s-.05,0-.06,0h0a0,0,0,0,0,0,.06h0a0,0,0,0,0,0,.06h0s.05,0,.06,0h0s0,0,.05,0l.07,0S22.46,36.48,22.48,36.49Zm-.18-.13a.06.06,0,0,1,0,0s0,0,0,0,0,0,0,0l0,0v0h0Zm.26.1h0a0,0,0,0,1,0,0s0,0,0,0a0,0,0,0,1,0,0l0,0h0Z"/><rect class="cls-22" x="23.29" y="33.67" width="0.05" height="3.1"/><path class="cls-22" d="M23.29,33.78l.07,0s0,0,.05,0h0s0,0,0,0h0s0,0,0-.06h0a0,0,0,0,0,0-.06h0s0,0-.06,0h0a0,0,0,0,0-.06,0h0a0,0,0,0,0,0,0h0s0,0,0,0l-.07,0a0,0,0,0,0-.05,0h0s0,0-.06,0h0s0,0,0,.06h0a0,0,0,0,0,0,0h0a0,0,0,0,0,.06,0h0a0,0,0,0,0,.06,0h0a0,0,0,0,0,0-.06h0S23.29,33.8,23.29,33.78Zm.13-.07h0v0h0l0,0s0,0,0,0,0,0,0,0Zm-.22.12h0s0,0,0,0a0,0,0,0,1,0,0s0,0,0,0h0Z"/><path class="cls-22" d="M23.29,34.1l.07,0s0,0,.05,0h0a0,0,0,0,0,0,0h0a0,0,0,0,0,0,0h0a0,0,0,0,0,0-.06h0a0,0,0,0,0-.06,0h0s0,0-.06,0h0s0,0,0,.06h0s0,0,0,0l-.07,0s0,0-.05,0h0a0,0,0,0,0-.06,0h0s0,0,0,.06h0s0,0,0,.06h0a0,0,0,0,0,.06,0h0a0,0,0,0,0,.06,0h0a0,0,0,0,0,0-.06h0S23.29,34.12,23.29,34.1Zm.13-.07,0,0v0l0,0s0,0,0,0,0,0,0,0a.06.06,0,0,1,0,0Zm-.22.12h0s0,0,0,0a0,0,0,0,1,0,0s0,0,0,0h0Z"/><path class="cls-22" d="M23.29,34.84l.07,0s0,0,.05,0h0s0,0,0,0h0s0,0,0-.06h0a0,0,0,0,0,0-.06h0s0,0-.06,0h0a0,0,0,0,0-.06,0h0a0,0,0,0,0,0,0h0s0,0,0,.05l-.07,0a0,0,0,0,0-.05,0h0s0,0-.06,0h0s0,0,0,.06h0a0,0,0,0,0,0,.05h0a0,0,0,0,0,.06,0h0a0,0,0,0,0,.06,0h0a0,0,0,0,0,0-.06h0S23.29,34.86,23.29,34.84Zm.13-.07h0v0h0l0,0s0,0,0,0,0,0,0,0Zm-.22.12h0s0,0,0,0h0s0,0,0,0h0Z"/><path class="cls-22" d="M23.29,35.16l.07,0s0,0,.05,0h0a0,0,0,0,0,0,0h0a0,0,0,0,0,0,0h0a0,0,0,0,0,0-.06h0a0,0,0,0,0-.06,0h0s0,0-.06,0h0s0,0,0,.06h0s0,0,0,.05l-.07,0a0,0,0,0,0-.05,0h0a0,0,0,0,0-.06,0h0s0,0,0,.06h0s0,0,0,.06h0a0,0,0,0,0,.06,0h0a0,0,0,0,0,.06,0h0a0,0,0,0,0,0-.06h0S23.29,35.18,23.29,35.16Zm.13-.07,0,0v0l0,0,0,0s0,0,0,0a.06.06,0,0,1,0,0Zm-.22.12h0s0,0,0,0a0,0,0,0,1,0,0s0,0,0,0h0Z"/><path class="cls-22" d="M23.29,36.12l.07,0a0,0,0,0,0,.05,0h0s0,0,0,0h0a0,0,0,0,0,0-.06h0a0,0,0,0,0,0-.05v0s0,0-.06,0h0a0,0,0,0,0-.06,0h0a0,0,0,0,0,0,.06h0s0,0,0,0l-.07,0a0,0,0,0,0-.05,0h0s0,0-.06,0h0s0,0,0,.06h0a0,0,0,0,0,0,.06h0s0,0,.06,0h0a0,0,0,0,0,.06,0h0a0,0,0,0,0,0,0h0S23.29,36.14,23.29,36.12Zm.13-.08h0v0h0s0,0,0,0h0s0,0,0,0Zm-.22.12h0s0,0,0,0h0s0,0,0,0a0,0,0,0,1,0,0h0Z"/><path class="cls-22" d="M23.29,36.43l.07,0s0,0,.05,0h0s0,0,0,0h0s0,0,0-.06h0a0,0,0,0,0,0-.06h0s0,0-.06,0h0a0,0,0,0,0-.06,0h0a0,0,0,0,0,0,.05h0s0,0,0,0l-.07,0a0,0,0,0,0-.05,0h0s0,0-.06,0h0s0,0,0,.06h0a0,0,0,0,0,0,0h0a0,0,0,0,0,.06,0h0a0,0,0,0,0,.06,0h0a0,0,0,0,0,0-.06h0S23.29,36.45,23.29,36.43Zm.13-.07h0v0l0,0s0,0,0,0,0,0,0,0a.06.06,0,0,1,0,0Zm-.22.12h0s0,0,0,0a0,0,0,0,1,0,0s0,0,0,0a0,0,0,0,1,0,0h0Z"/><polygon class="cls-3" points="23.52 18.26 23.52 19.57 23.39 19.49 23.39 18.18 23.52 18.26"/><polygon class="cls-3" points="23.54 22.52 23.52 23.83 23.39 23.75 23.4 22.45 23.54 22.52"/><polygon class="cls-3" points="26.72 20.13 26.72 21.43 26.58 21.35 26.58 20.05 26.72 20.13"/><polygon class="cls-3" points="26.72 24.39 26.72 25.71 26.57 25.61 26.58 24.31 26.72 24.39"/><polygon class="cls-2" points="36.9 18.38 36.9 19.69 37.04 19.61 37.04 18.3 36.9 18.38"/><polygon class="cls-2" points="36.9 22.66 36.9 23.97 37.04 23.89 37.04 22.58 36.9 22.66"/><polygon class="cls-2" points="33.71 20.24 33.71 21.55 33.84 21.48 33.84 20.16 33.71 20.24"/><polygon class="cls-2" points="33.71 24.52 33.71 25.83 33.84 25.75 33.84 24.44 33.71 24.52"/><polygon class="cls-1" points="24.47 17.68 23.39 18.18 23.52 18.26 24.6 17.76 24.47 17.68"/><polygon class="cls-1" points="27.66 19.52 26.58 20.05 26.72 20.13 27.8 19.59 27.66 19.52"/><polygon class="cls-1" points="24.47 21.95 23.4 22.45 23.54 22.52 24.6 22.03 24.47 21.95"/><polygon class="cls-1" points="27.66 23.79 27.8 23.87 26.72 24.39 26.58 24.31 27.66 23.79"/><polygon class="cls-4" points="32.64 19.64 33.71 20.24 33.84 20.16 32.78 19.56 32.64 19.64"/><polygon class="cls-4" points="35.83 17.84 36.9 18.38 37.04 18.3 35.97 17.75 35.83 17.84"/><polygon class="cls-4" points="35.83 22.11 35.97 22.04 37.04 22.58 36.9 22.66 35.83 22.11"/><polygon class="cls-4" points="32.64 23.91 32.77 23.84 33.84 24.44 33.71 24.52 32.64 23.91"/><polygon class="cls-11" points="22.66 45.59 22.66 46.43 22.62 46.4 22.62 45.56 22.66 45.59"/><polygon class="cls-11" points="24.03 46.4 24.03 47.24 23.98 47.21 23.98 46.37 24.03 46.4"/><polygon class="cls-11" points="25.39 47.21 25.39 48.04 25.35 48.02 25.35 47.18 25.39 47.21"/><polygon class="cls-11" points="26.76 48.02 26.76 48.85 26.71 48.82 26.71 47.99 26.76 48.02"/><polygon class="cls-11" points="28.13 48.83 28.13 49.66 28.08 49.63 28.08 48.8 28.13 48.83"/><polygon class="cls-11" points="29.49 49.64 29.49 50.46 29.45 50.44 29.45 49.62 29.49 49.64"/><polygon class="cls-11" points="23.3 46.95 23.3 47.8 23.26 47.77 23.26 46.93 23.3 46.95"/><polygon class="cls-11" points="24.67 47.77 24.67 48.6 24.62 48.58 24.62 47.74 24.67 47.77"/><polygon class="cls-11" points="26.04 48.58 26.04 49.41 25.99 49.38 25.99 48.55 26.04 48.58"/><polygon class="cls-11" points="27.4 49.39 27.4 50.22 27.36 50.19 27.36 49.36 27.4 49.39"/><polygon class="cls-11" points="28.77 50.2 28.77 51.02 28.72 50.99 28.72 50.17 28.77 50.2"/><polygon class="cls-16" points="37.93 45.58 37.93 46.42 37.88 46.44 37.88 45.6 37.93 45.58"/><polygon class="cls-16" points="36.56 46.37 36.56 47.21 36.52 47.23 36.52 46.4 36.56 46.37"/><polygon class="cls-16" points="35.19 47.17 35.19 48 35.15 48.02 35.15 47.19 35.19 47.17"/><polygon class="cls-16" points="33.83 47.96 33.83 48.79 33.78 48.81 33.78 47.99 33.83 47.96"/><polygon class="cls-16" points="32.46 48.76 32.46 49.58 32.42 49.6 32.42 48.78 32.46 48.76"/><polygon class="cls-16" points="31.1 49.55 31.1 50.37 31.05 50.4 31.05 49.58 31.1 49.55"/><polygon class="cls-16" points="37.93 47.54 37.93 48.38 37.88 48.41 37.88 47.56 37.93 47.54"/><polygon class="cls-16" points="36.56 48.33 36.56 49.17 36.52 49.2 36.52 48.36 36.56 48.33"/><polygon class="cls-16" points="35.19 49.13 35.19 49.96 35.15 49.99 35.15 49.16 35.19 49.13"/><polygon class="cls-16" points="33.83 49.92 33.83 50.75 33.78 50.78 33.78 49.95 33.83 49.92"/><polygon class="cls-16" points="32.46 50.72 32.46 51.54 32.42 51.57 32.42 50.74 32.46 50.72"/><polygon class="cls-16" points="31.1 51.51 31.1 52.33 31.05 52.36 31.05 51.54 31.1 51.51"/><polygon class="cls-16" points="37.32 46.92 37.32 47.76 37.27 47.78 37.27 46.94 37.32 46.92"/><polygon class="cls-16" points="35.95 47.71 35.95 48.55 35.91 48.57 35.91 47.74 35.95 47.71"/><polygon class="cls-16" points="34.59 48.51 34.59 49.34 34.54 49.36 34.54 48.53 34.59 48.51"/><polygon class="cls-16" points="33.22 49.3 33.22 50.13 33.17 50.15 33.17 49.33 33.22 49.3"/><polygon class="cls-16" points="31.85 50.1 31.85 50.92 31.81 50.94 31.81 50.12 31.85 50.1"/><polygon class="cls-11" points="22.66 47.55 22.66 48.46 22.62 48.43 22.62 47.52 22.66 47.55"/><polygon class="cls-11" points="24.03 48.36 24.03 49.25 23.98 49.22 23.98 48.33 24.03 48.36"/><polygon class="cls-11" points="25.39 49.17 25.39 50.05 25.35 50.02 25.35 49.14 25.39 49.17"/><polygon class="cls-11" points="26.76 49.98 26.76 50.84 26.71 50.81 26.71 49.95 26.76 49.98"/><polygon class="cls-11" points="28.13 50.79 28.13 51.63 28.08 51.61 28.08 50.77 28.13 50.79"/><polygon class="cls-11" points="29.49 51.61 29.49 52.43 29.45 52.4 29.45 51.58 29.49 51.61"/><path class="cls-11" d="M22,49.82s-.57,3.68,7.83,2.77Z"/><path class="cls-3" d="M29.65,52.54l-.38.05-.46,0-.61,0-.46,0h-.61l-.46,0c-.22,0-.44,0-.67,0l-.46,0L25,52.47l-.46-.11-.47-.14L23.61,52a3.37,3.37,0,0,1-.46-.25,3.33,3.33,0,0,1-.46-.36,1.93,1.93,0,0,1-.27-.3,2.36,2.36,0,0,1-.46-1.3v-.09l0-.63a2.76,2.76,0,0,0,.42,1.12,2.19,2.19,0,0,0,.27.35,3.11,3.11,0,0,0,.46.41,4,4,0,0,0,.46.28,4,4,0,0,0,.46.21c.15.05.3.11.47.15l.46.11a4.34,4.34,0,0,0,.54.09l.46,0c.21,0,.44,0,.67,0h.46l.61,0,.46,0,.61-.05.46-.06.35-.05Z"/><path class="cls-13" d="M22.42,50.22v.9a2.36,2.36,0,0,1-.46-1.3V49h0v.08A2.76,2.76,0,0,0,22.42,50.22Z"/><path class="cls-13" d="M23.15,51v.8a3.33,3.33,0,0,1-.46-.36v-.85A3.11,3.11,0,0,0,23.15,51Z"/><path class="cls-13" d="M24.07,51.47v.75L23.61,52v-.77A4,4,0,0,0,24.07,51.47Z"/><path class="cls-13" d="M25,51.73v.74l-.46-.11v-.74Z"/><path class="cls-13" d="M26,51.87v.74l-.46,0v-.74Z"/><path class="cls-13" d="M27.13,51.9v.78l-.46,0V51.9Z"/><path class="cls-13" d="M28.2,51.85v.81l-.46,0v-.8Z"/><path class="cls-13" d="M29.27,51.74v.85l-.46,0V51.8Z"/><path class="cls-23" d="M24.15,48.36l.75.41c.22.12.45.24.74.43s.4.26.59.37.33.38.53.48l.61.33c.22.11.52,0,.72.12s.4.28.59.37.45.23.62.32c.35.17.56.25.54.36a.88.88,0,0,1-.62.4c-.2.06-.49-.14-.76-.1s-.46.1-.71.11-.49.22-.74.21-.49,0-.74,0a6.26,6.26,0,0,1-.74-.1c-.24-.05-.45-.26-.68-.34s-.49,0-.78-.15a3.72,3.72,0,0,1-.7-.41,4.46,4.46,0,0,1-.61-.52,3.9,3.9,0,0,1-.58-.57,3.22,3.22,0,0,1-.23-.77.83.83,0,0,1,0-.7c0-.08-.09-.37-.07-.6a.69.69,0,0,1,.2-.47c.16-.12.38-.09.7.08s.35.35.6.5S23.91,48.23,24.15,48.36Z"/><path class="cls-24" d="M22.43,48.13c.16.14-.2.23-.15,0-.05.19-.32,0-.11-.09-.21.05-.12-.27,0-.14-.16-.13.2-.23.15,0,.05-.19.31,0,.11.1C22.67,47.94,22.59,48.27,22.43,48.13Z"/><path class="cls-25" d="M22.27,48c.27.23,0,.3.06,0-.08.32-.3.13.05,0-.35.09-.28-.17,0,.06-.27-.23,0-.31-.07,0,.09-.32.31-.13,0,0C22.61,48,22.54,48.23,22.27,48Z"/><path class="cls-24" d="M22.65,48.83c.16.13-.2.23-.15,0-.05.19-.32,0-.11-.1-.21.06-.12-.27,0-.13-.16-.14.19-.23.14,0,.05-.19.32,0,.12.09C22.89,48.64,22.81,49,22.65,48.83Z"/><path class="cls-25" d="M22.49,48.69c.27.23,0,.31.06,0-.08.32-.3.13.05,0-.35.09-.28-.18,0,.05-.26-.23,0-.3-.06,0,.09-.32.31-.14,0,0C22.83,48.65,22.76,48.92,22.49,48.69Z"/><path class="cls-24" d="M23.13,48.16c.16.13-.2.23-.15,0-.05.19-.32,0-.11-.1-.21.06-.12-.27,0-.13-.16-.14.2-.23.15,0,.05-.19.31,0,.11.09C23.37,48,23.29,48.29,23.13,48.16Z"/><path class="cls-25" d="M23,48c.27.23,0,.31.06,0-.08.33-.3.14,0,0-.35.09-.28-.18,0,.05-.27-.23,0-.3-.07,0,.09-.32.31-.14,0,0C23.31,48,23.24,48.25,23,48Z"/><path class="cls-24" d="M22.65,49.44c.16.14-.2.23-.15,0-.05.19-.32,0-.11-.09-.21,0-.12-.27,0-.14-.16-.13.19-.23.14,0,.05-.19.32,0,.12.1C22.89,49.25,22.81,49.58,22.65,49.44Z"/><path class="cls-25" d="M22.49,49.31c.27.23,0,.3.06,0-.08.32-.3.13.05,0-.35.09-.28-.17,0,.06-.26-.23,0-.31-.06,0,.09-.32.31-.13,0,0C22.83,49.27,22.76,49.54,22.49,49.31Z"/><path class="cls-24" d="M23.6,49.05c.15.14-.2.23-.15,0-.05.19-.32,0-.11-.1-.21.06-.12-.27,0-.13-.15-.14.2-.23.15,0,.05-.19.32,0,.11.09C23.84,48.86,23.75,49.19,23.6,49.05Z"/><path class="cls-25" d="M23.44,48.91c.26.23,0,.31.06,0-.09.32-.3.13.05,0-.35.09-.28-.17,0,.06-.26-.23,0-.31-.06,0,.08-.32.3-.13,0,0C23.77,48.88,23.7,49.14,23.44,48.91Z"/><path class="cls-24" d="M25.51,51.71c.15.13-.2.23-.15,0-.05.19-.32,0-.12-.1-.2.05-.12-.27,0-.14-.16-.13.2-.23.15,0,.05-.19.32,0,.11.1C25.75,51.51,25.66,51.84,25.51,51.71Z"/><path class="cls-25" d="M25.35,51.57c.26.23,0,.3.06,0-.09.32-.31.14.05,0-.36.1-.29-.17,0,.06-.27-.23,0-.31-.06,0,.08-.33.3-.14-.05,0C25.68,51.53,25.61,51.8,25.35,51.57Z"/><path class="cls-24" d="M23.6,49.69c.15.13-.2.23-.15,0-.05.19-.32,0-.11-.1-.21.06-.12-.27,0-.14-.15-.13.2-.23.15,0,.05-.19.32,0,.11.1C23.84,49.5,23.75,49.82,23.6,49.69Z"/><path class="cls-25" d="M23.44,49.55c.26.23,0,.31.06,0-.09.33-.3.14.05,0-.35.1-.28-.17,0,.06-.26-.23,0-.3-.06,0,.08-.32.3-.14,0,0C23.77,49.51,23.7,49.78,23.44,49.55Z"/><path class="cls-24" d="M23,50.33c.16.14-.2.23-.15,0-.05.19-.32,0-.11-.1-.21.06-.12-.27,0-.13-.15-.14.2-.23.15,0,.05-.19.32,0,.12.1C23.27,50.14,23.19,50.47,23,50.33Z"/><path class="cls-25" d="M22.87,50.19c.27.23,0,.31.06,0-.08.32-.3.13.05,0-.35.09-.28-.17,0,.06-.26-.23,0-.31-.06,0,.09-.32.31-.13,0,0C23.21,50.16,23.14,50.42,22.87,50.19Z"/><path class="cls-24" d="M23.82,51.1c.15.13-.2.23-.15,0-.05.19-.32,0-.11-.1-.21.06-.12-.27,0-.14-.15-.13.2-.23.15,0,.05-.19.32,0,.11.1C24.06,50.91,24,51.23,23.82,51.1Z"/><path class="cls-25" d="M23.66,51c.26.23,0,.31.06,0-.09.33-.3.14.05,0-.35.1-.28-.17,0,.06-.26-.23,0-.31-.06,0,.08-.33.3-.14-.05,0C24,50.92,23.92,51.19,23.66,51Z"/><path class="cls-24" d="M26,49.94c.16.13-.19.23-.14,0,0,.19-.32,0-.12-.1-.2.06-.12-.27,0-.13-.16-.14.2-.23.15,0,.05-.19.32,0,.11.09C26.22,49.75,26.13,50.07,26,49.94Z"/><path class="cls-25" d="M25.81,49.8c.27.23,0,.31.07,0-.09.32-.31.13,0,0-.35.09-.28-.18,0,.05-.27-.23,0-.3-.06,0,.08-.32.3-.14-.05,0C26.15,49.76,26.08,50,25.81,49.8Z"/><path class="cls-24" d="M25.06,50c.16.13-.2.23-.15,0-.05.19-.32,0-.11-.1-.21.06-.12-.27,0-.14-.16-.13.2-.23.15,0,.05-.19.31,0,.11.1C25.3,49.82,25.22,50.14,25.06,50Z"/><path class="cls-25" d="M24.9,49.87c.27.23,0,.31.06,0-.08.33-.3.14.05,0-.35.1-.28-.17,0,.06-.27-.23,0-.3-.07,0,.09-.32.31-.14,0,0C25.24,49.83,25.17,50.1,24.9,49.87Z"/><path class="cls-24" d="M25,49.22c.21.05,0,.29-.1.1.06.19-.3.11-.15,0-.15.14-.26-.18-.05-.14-.21,0,.05-.29.11-.1-.06-.19.3-.11.15,0C25.11,48.94,25.21,49.27,25,49.22Z"/><path class="cls-25" d="M24.79,49.17c.36.08.15.28.05,0,.1.32-.19.25.06,0-.25.24-.34,0,0,.06-.36-.08-.15-.28-.05,0-.1-.32.19-.25-.06,0C25.06,49,25.15,49.25,24.79,49.17Z"/><path class="cls-24" d="M26.78,51.8c.21.05,0,.29-.11.1.07.19-.3.11-.15,0-.15.14-.25-.18,0-.14-.21,0,.05-.28.11-.1-.06-.18.3-.11.15,0C26.89,51.52,27,51.85,26.78,51.8Z"/><path class="cls-25" d="M26.57,51.75c.35.08.15.28,0,0,.11.32-.19.26.06,0-.25.25-.33,0,0,.06-.35-.08-.15-.27,0,0-.11-.31.19-.25-.06,0C26.84,51.57,26.92,51.83,26.57,51.75Z"/><path class="cls-24" d="M27.57,51.48c.21.05-.05.29-.11.1.06.19-.3.11-.15,0-.15.14-.25-.18,0-.13-.21-.05,0-.29.1-.11-.06-.18.3-.1.16,0C27.67,51.21,27.78,51.53,27.57,51.48Z"/><path class="cls-25" d="M27.36,51.43c.35.08.14.28,0,0,.1.32-.19.26.06,0-.25.24-.33,0,0,.05-.35-.08-.15-.27,0,0-.11-.32.19-.26-.07,0C27.63,51.25,27.71,51.51,27.36,51.43Z"/><path class="cls-24" d="M28.39,51.64c.21,0-.05.29-.11.1.06.19-.3.11-.15,0-.15.14-.25-.18,0-.13-.21,0,0-.29.1-.11-.06-.18.3-.1.15,0C28.49,51.37,28.6,51.69,28.39,51.64Z"/><path class="cls-25" d="M28.17,51.6c.36.07.15.27,0-.05.1.32-.19.26.06,0-.25.24-.34,0,0,0-.36-.07-.15-.27,0,.05-.11-.32.18-.26-.07,0C28.44,51.41,28.53,51.67,28.17,51.6Z"/><path class="cls-24" d="M29.25,51.59c.21,0,0,.29-.1.1.06.19-.3.11-.15,0-.15.14-.26-.19-.05-.14-.21-.05.05-.29.11-.1-.06-.19.3-.11.15,0C29.36,51.31,29.46,51.63,29.25,51.59Z"/><path class="cls-25" d="M29,51.54c.36.08.15.28,0,0,.11.32-.19.25.07,0-.26.24-.34,0,0,.06-.36-.08-.15-.28-.05,0-.1-.32.19-.25-.06,0C29.31,51.36,29.4,51.62,29,51.54Z"/><path class="cls-24" d="M28.78,51c.21,0-.05.29-.11.11.06.18-.3.11-.15,0-.15.15-.25-.18,0-.13-.21,0,0-.29.1-.1-.06-.19.3-.11.15,0C28.88,50.73,29,51.05,28.78,51Z"/><path class="cls-25" d="M28.56,51c.36.08.15.27.05,0,.1.31-.19.25.06,0-.25.24-.34,0,0,.06-.36-.08-.15-.28,0,0-.11-.32.19-.26-.07,0C28.84,50.77,28.92,51,28.56,51Z"/><path class="cls-24" d="M28.06,50.82c.21,0,0,.29-.11.1.06.19-.3.11-.15,0-.15.14-.26-.19-.05-.14-.21,0,.05-.29.11-.1-.06-.19.3-.11.15,0C28.16,50.54,28.27,50.86,28.06,50.82Z"/><path class="cls-25" d="M27.84,50.77c.36.08.15.28.05,0,.1.32-.19.25.06,0-.25.24-.34,0,0,.06-.36-.08-.15-.28,0,0-.1-.32.19-.25-.06,0C28.11,50.59,28.2,50.85,27.84,50.77Z"/><path class="cls-24" d="M29.71,51.28c.21,0-.05.29-.11.1.06.19-.3.11-.15,0-.15.14-.25-.18,0-.14-.21,0,0-.29.11-.1-.07-.19.3-.11.15,0C29.82,51,29.92,51.32,29.71,51.28Z"/><path class="cls-25" d="M29.5,51.23c.35.08.15.28,0,0,.11.32-.19.25.06,0-.25.24-.33,0,0,.06-.35-.08-.15-.28,0,0-.11-.32.19-.25-.07,0C29.77,51.05,29.85,51.31,29.5,51.23Z"/><path class="cls-24" d="M24.32,50.31c.21,0-.05.29-.11.1.06.19-.3.11-.15,0-.15.14-.25-.18,0-.14-.21,0,0-.29.1-.1-.06-.19.3-.11.15,0C24.42,50,24.53,50.35,24.32,50.31Z"/><path class="cls-25" d="M24.1,50.26c.36.08.15.28,0,0,.1.32-.19.25.06,0-.25.24-.34,0,0,.06-.36-.08-.15-.28,0,0-.11-.32.18-.25-.07,0C24.37,50.08,24.46,50.34,24.1,50.26Z"/><path class="cls-24" d="M26.11,51.09c.21,0-.05.29-.11.1.06.19-.3.11-.15,0-.15.14-.25-.18,0-.14-.21,0,0-.29.1-.1-.06-.19.3-.11.15,0C26.21,50.81,26.32,51.13,26.11,51.09Z"/><path class="cls-25" d="M25.89,51c.36.08.15.28.05,0,.1.32-.19.25.06,0-.25.24-.34,0,0,.06-.36-.08-.15-.28,0,0-.11-.32.18-.25-.07,0C26.16,50.86,26.25,51.12,25.89,51Z"/><path class="cls-24" d="M26.19,50.41c-.05-.19.31-.09.15,0,.16-.13.24.19,0,.14.21,0-.06.28-.11.09,0,.19-.3.09-.15,0-.15.13-.24-.19,0-.14C25.87,50.45,26.14,50.22,26.19,50.41Z"/><path class="cls-25" d="M26.24,50.6c-.08-.32.21-.24-.06,0,.27-.23.33,0,0-.06.35.09.13.28.05,0,.08.32-.2.24.06,0-.26.23-.33,0,0,.06C25.94,50.47,26.16,50.28,26.24,50.6Z"/><path class="cls-24" d="M27.11,50.73c-.05-.19.31-.09.15,0,.16-.13.24.19,0,.14.2.05-.07.28-.12.09.05.19-.3.1-.15,0-.15.14-.24-.19,0-.13C26.79,50.77,27.06,50.54,27.11,50.73Z"/><path class="cls-25" d="M27.16,50.92c-.08-.32.21-.24-.06,0,.27-.23.34,0,0-.06.35.1.13.28,0,0,.09.32-.2.24.07,0-.27.22-.34,0,0,.05C26.86,50.79,27.08,50.6,27.16,50.92Z"/><path class="cls-24" d="M26.94,50.19c-.05-.19.3-.1.14,0,.16-.14.25.19,0,.14.21.05-.07.28-.11.09,0,.19-.31.09-.15,0-.16.13-.24-.19,0-.14C26.62,50.23,26.89,50,26.94,50.19Z"/><path class="cls-25" d="M27,50.38c-.09-.32.2-.24-.07,0,.27-.22.34,0,0,0,.35.09.13.28.05,0,.08.32-.21.24.06,0-.27.23-.34,0,0,.06C26.68,50.25,26.9,50.06,27,50.38Z"/><path class="cls-24" d="M25.06,50.89c.16.13-.2.22-.15,0-.05.19-.32,0-.11-.09-.21.05-.12-.27,0-.14-.16-.13.2-.23.15,0,.05-.19.31,0,.11.1C25.3,50.69,25.22,51,25.06,50.89Z"/><path class="cls-25" d="M24.9,50.75c.27.23,0,.3.06,0-.08.32-.3.14.05,0-.35.1-.28-.17,0,.06-.27-.23,0-.31-.07,0,.09-.33.31-.14,0,0C25.24,50.71,25.17,51,24.9,50.75Z"/><path class="cls-24" d="M24.28,48.81c.16.13-.2.23-.15,0-.05.19-.32,0-.11-.1-.21.06-.12-.27,0-.14-.15-.13.2-.23.15,0,.05-.19.32,0,.12.1C24.52,48.62,24.44,48.94,24.28,48.81Z"/><path class="cls-25" d="M24.12,48.67c.27.23,0,.31.06,0-.08.33-.3.14.05,0-.35.1-.28-.17,0,.06-.26-.23,0-.3-.06,0,.09-.32.31-.14,0,0C24.46,48.63,24.39,48.9,24.12,48.67Z"/><path class="cls-26" d="M26,45.12c.24-.21,0-.48-.22-.28s-.32.54,0,.6c0,.12-.19.11-.18.32s0,.32-.1.29a.68.68,0,0,1-.16-.61c.3-.28.14-.24.38-.7-.06-.08-.34-.26-.28-.38.47-.13.62.39.87.63.45-.11,1,.76.29.39.2-.24-.06-.22-.29-.29S26.25,45.67,26,45.12Z"/><path class="cls-26" d="M26.79,46.8c.34.32.31-.16.26-.41.18,0,.14.55.25.75-.36.14-1.18-.6-.89-1.12C26.56,46.27,26.43,46.64,26.79,46.8Z"/><path class="cls-26" d="M26.07,45.47c.14.23.47.14.48.47-.29-.24-.6.57-.82.06C26.61,45.85,25.86,45.73,26.07,45.47Z"/><path class="cls-26" d="M26.48,44.86c.05,0,.12-.06.07-.16-.13-.56.57.46-.06.18Z"/><path class="cls-26" d="M26.31,45.44c.05,0,.11,0,.06-.14C26.64,45.14,26.71,45.84,26.31,45.44Z"/><path class="cls-26" d="M26.3,42.26c.19-.14.05-.3-.06-.48s-.18.21-.22,0-.07-.47,0-.66a1.71,1.71,0,0,1,.13.23c.39.56.3-.18.47,0s0,.27.12.41.28,0,.38.18-.27.33-.41.45-.24-.14-.36-.06Zm.26-.48c0,.25.36.53.31.14C26.82,41.86,26.59,41.63,26.56,41.78Zm0,.21c-.15-.05,0,.25.06.22S26.59,42.06,26.55,42Zm-.26-.33c0-.06-.07-.16-.11-.09S26.22,41.67,26.29,41.66Zm.18.16c0-.07,0-.1-.1-.08l0,.09Z"/><path class="cls-26" d="M26.17,43.26c.23.23.21-.33,0-.35-.49,0-.63-.47-.06-.17.14,0,1,.59.46.39-.31-.22,0,.36-.22.41s-.42-.47-.21-.28Z"/><path class="cls-26" d="M26.42,42.72c.42-.45-1-.14-.87-.57.34-.16,2.15.83.87.58Z"/><path class="cls-26" d="M25.81,41.39a.43.43,0,0,1,.1.19c0,.06,0,.12.05.19s0,.16,0,.14-.05,0-.06-.09a2.29,2.29,0,0,0-.07-.28.53.53,0,0,0,0-.12C25.74,41.36,25.76,41.35,25.81,41.39Z"/><path class="cls-26" d="M27,30c.23,1.25-.24.65-.29-.14-.36-.05-1.11.47-1.29-.25.27.14,1.34.31.92-.27-.15,0-.06.33-.26.08.19-.83-.46-.33-.66-.88,1.27.45,1.13.59,1.09-.72.43.2-.2,1,.36,1.21,0,.09-.06.07-.1,0s-.06.37,0,.52.16.83.25.4Zm-.35-.51c0-.16-.18-.75-.26-.42C26.49,29.21,26.52,29.61,26.67,29.51Zm-.28-.33c0-.08-.09-.32-.2-.21S26.3,29.37,26.39,29.18Z"/><path class="cls-26" d="M27,29v-.26c0-.05,0-.06.05,0a.4.4,0,0,1,.11.19.79.79,0,0,1,.05.24.09.09,0,0,1-.08.1S27,29.1,27,29A.16.16,0,0,1,27,29Z"/><path class="cls-26" d="M25.93,28.27c.8.12.53.64,0,0Z"/><path class="cls-26" d="M25.9,29.24c.24.22,0,.53-.07.14C25.87,29.36,25.82,29.19,25.9,29.24Z"/><path class="cls-26" d="M26.83,32.85c.26.22-.09.72-.25.94-.46.08-.38-.8-.52-.86.49.09.18.31.28.49.18.54.37-.16.44-.41-.22-.16-.62-.08-.83-.28A1,1,0,0,1,26.83,32.85Z"/><path class="cls-26" d="M26.35,32.46c-.5-.42,0-.85.25-.17.5-.41-.08-.49-.38-.69.23,0,.76.11.72.42S26.65,32.71,26.35,32.46Zm-.15-.4c0,.08.09.29.17.19S26.27,31.88,26.2,32.06Z"/><path class="cls-26" d="M25.9,31.79A.64.64,0,0,1,26,32l0,.1a.77.77,0,0,1,0,.15s0,0,0,.05a.28.28,0,0,1-.07-.09,1.36,1.36,0,0,1,0-.17,1,1,0,0,1,0-.17S25.9,31.83,25.9,31.79Z"/><path class="cls-26" d="M25.84,33.24a.45.45,0,0,1-.12-.21l0-.15v-.07l.07.06a1.34,1.34,0,0,1,.07.18l0,.1s0,.07,0,.09Z"/><path class="cls-26" d="M26.16,35.49c.09-.06.26-.06.24-.18-.3-.12-.67.41-.92,0,0-.11.13-.05.19-.05.33.06.76-.17,1-.07.42.38-.24.31-.5.33Z"/><path class="cls-26" d="M26.34,36.57h0s0,0,0-.08l-.05-.05a.15.15,0,0,1-.06-.1s0-.07,0-.07,0,0,.08.06l.06.09c0,.06.08,0,.07,0a.29.29,0,0,0-.11-.21l-.08-.07a.12.12,0,0,1,0-.09s0,0,0,0l.11.08s.07,0,.08,0,0-.05,0-.07a1.36,1.36,0,0,0,0-.2.08.08,0,0,0,0-.07s0,0-.06,0l-.21.07s0,0-.05,0,0-.07,0-.08l.2-.05h.12a.12.12,0,0,1,.09.1,1,1,0,0,1,0,.17,1.13,1.13,0,0,1,0,.18,3.48,3.48,0,0,0,0,.66.85.85,0,0,1,0,.16s0,0-.07,0l-.11-.1,0-.05h0l0,0c.06,0,.08,0,.07,0a.15.15,0,0,0-.09-.12l-.07-.06Z"/><path class="cls-26" d="M26.08,35.61s0,.06,0,.08a2.57,2.57,0,0,1,0,.39,2.1,2.1,0,0,0,0,.35c0,.08,0,.16,0,.24s0,0,0,0,0,0,0,0,0,0,0,0a.62.62,0,0,1-.05-.31c0-.12,0-.23,0-.35s0,0,0,0a1,1,0,0,0,0-.31.19.19,0,0,1,0-.08Z"/><path class="cls-26" d="M26.74,34.94c-.08.13-.29,0-.41,0C26.42,34.73,26.7,34.65,26.74,34.94Z"/><path class="cls-26" d="M26.06,34.87a.46.46,0,0,1,0-.1s0-.05,0,0a.19.19,0,0,0,.16,0l0,0a.07.07,0,0,1,0,0s0,0,0,0S26.11,34.91,26.06,34.87Z"/><path class="cls-26" d="M26,38.87a1.13,1.13,0,0,0,0-.18.11.11,0,0,0,0-.06.21.21,0,0,1-.08-.12s0,0,.08,0a.27.27,0,0,0,.13,0h0s0,0,0,0l0-.05h0l-.09-.09s0,0,.08,0a.22.22,0,0,0,.13,0,0,0,0,0,0,0,0s0,0,0-.07l0-.08h0l.21.09a.11.11,0,0,1,.05.08c0,.08,0,.11-.06.1s-.07,0,0,.12,0,.09,0,.09l-.12,0c-.05,0-.06,0,0,.1s.06.18,0,.22,0,0,0,0-.08.13-.14.17a.09.09,0,0,0,0,.06.45.45,0,0,0,0,.11s0,.08,0,.08l.08,0,.12-.05h0s0,0,0,0a.39.39,0,0,1-.08.1.71.71,0,0,1-.14.1s0,.06,0,.12,0,.2,0,.29,0,.07-.1,0a1.56,1.56,0,0,0-.16-.2c-.07-.09-.09-.18,0-.21l.16-.1a.08.08,0,0,0,0-.07,1.21,1.21,0,0,0,0-.19.15.15,0,0,0-.07-.14l-.19-.13a.18.18,0,0,1-.08-.15s0,0,.06,0l0,0c.05.09.06.1.12.11h.13S25.94,38.91,26,38.87Z"/><path class="cls-26" d="M26.37,39.66a2.22,2.22,0,0,1,0-.89A2.54,2.54,0,0,0,26.83,40c-.07,0-.19-.2-.27-.16.08.76-.24.3-.19-.18Z"/><path class="cls-26" d="M26.75,37.94c.3.23-.08.38-.27.16C26.58,38.05,26.63,37.84,26.75,37.94Z"/><path class="cls-26" d="M27,39.35l0-.05-.14-.23s0-.11,0-.11.11,0,.17.15a.33.33,0,0,1,.06.1.54.54,0,0,1,0,.12S27.06,39.41,27,39.35Z"/><path class="cls-26" d="M26.15,37.9s-.06.05-.1.06-.1-.1-.12-.14v0a.47.47,0,0,1,.17,0S26.13,37.86,26.15,37.9Z"/></svg>