<svg width="96" height="96" viewBox="0 0 96 96" fill="none" xmlns="http://www.w3.org/2000/svg">
<g filter="url(#filter0_dd_8735_124174)">
<rect x="8" y="5" width="80" height="80" rx="10" fill="white"/>
<path d="M61.3738 56.3506L61.3787 66.3643L62.9684 67.6169V57.5983L61.3738 56.3506Z" fill="#C7B299"/>
<path d="M64.5573 56.3542V66.3723L62.9683 67.6167V57.5986L64.5573 56.3542Z" fill="#998675"/>
<path d="M56.949 57.9406L62.9683 62.6837V54.9287L59.9586 52.5125L56.949 57.9406Z" fill="#53AA87"/>
<path d="M68.9876 57.9406L62.9683 62.6837V54.9287L65.9779 52.5125L68.9876 57.9406Z" fill="#328D6A"/>
<path d="M57.7778 53.4925L62.9683 57.5824V50.8961L60.3731 48.8125L57.7778 53.4925Z" fill="#6CD3A7"/>
<path d="M68.1582 53.4925L62.9683 57.5824V50.8961L65.5629 48.8125L68.1582 53.4925Z" fill="#389E74"/>
<path d="M58.9585 49.9497L62.9715 53.112V40.6677" fill="#84F4C1"/>
<path d="M66.9842 49.9497L62.9717 53.112V40.6677" fill="#6CD3A7"/>
<path d="M47.1764 36.2886L47.1671 42.2185V42.3447L47.1621 45.4405V45.5673L47.1572 48.6626V48.79L47.1522 51.8852L47.1517 52.0115L47.1473 55.1079L47.1468 55.2347L47.1424 58.3305L47.1418 58.4567L47.1369 61.5526V61.6788L47.1319 64.7752V64.9014L47.1215 71.5915L44.024 69.7982L43.9142 69.7346L42.3016 68.8009L42.1918 68.7372L40.5791 67.8041L40.4693 67.7404L38.8572 66.8067L38.7474 66.7436L35.6494 64.9497L35.6488 64.7214V64.5946L35.6439 61.4938V61.3665L35.6395 58.2652L35.6389 58.1384L35.6346 55.0371L35.634 54.9103L35.6296 51.8089L35.6291 51.6821L35.6247 48.5808L35.6241 48.454L35.6197 45.3527L35.6192 45.2259L35.6148 42.1246V41.9978L35.6099 38.8965V38.7697L35.6049 35.6684V35.5416L35.5945 28.7769L38.7474 30.8215L38.8572 30.8929L40.4693 31.9386L40.5791 32.0099L42.1918 33.0556L42.3016 33.1269L43.9142 34.1726L44.024 34.244L47.1764 36.2886Z" fill="#759ED8"/>
<g opacity="0.3">
<path d="M38.8573 30.8931V66.8069L38.7476 66.7438V30.8218L38.8573 30.8931Z" fill="#B3B3B3"/>
<path d="M40.5793 32.0101V67.8042L40.4695 67.7405V31.9387L40.5793 32.0101Z" fill="#B3B3B3"/>
<path d="M42.3019 33.127V68.801L42.1921 68.7373V33.0557L42.3019 33.127Z" fill="#B3B3B3"/>
<path d="M44.0241 34.2442V69.7985L43.9143 69.7348V34.1729L44.0241 34.2442Z" fill="#B3B3B3"/>
</g>
<g opacity="0.3">
<path d="M47.1674 42.2186V42.3449L44.0243 40.5302L43.9146 40.4665L42.3019 39.5356L42.1921 39.4719L40.5794 38.541L40.4696 38.4773L38.8575 37.5464L38.7477 37.4832L35.6052 35.6685V35.5417L38.7477 37.3564L38.8575 37.4201L40.4696 38.351L40.5794 38.4142L42.1921 39.3457L42.3019 39.4088L43.9146 40.3403L44.0243 40.4034L47.1674 42.2186Z" fill="#B3B3B3"/>
</g>
<g opacity="0.3">
<path d="M47.1621 45.4406V45.5674L44.024 43.7555L43.9143 43.6918L42.3016 42.7609L42.1918 42.6972L40.5791 41.7663L40.4693 41.7026L38.8572 40.7716L38.7474 40.7085L35.6099 38.8966V38.7698L38.7474 40.5812L38.8572 40.6448L40.4693 41.5758L40.5791 41.6389L42.1918 42.5704L42.3016 42.6341L43.9143 43.565L44.024 43.6287L47.1621 45.4406Z" fill="#B3B3B3"/>
</g>
<g opacity="0.3">
<path d="M47.1571 48.6626V48.79L44.024 46.9808L43.9142 46.9171L42.3015 45.9862L42.1917 45.9225L40.579 44.9915L40.4693 44.9279L38.8571 43.9969L38.7473 43.9338L35.6147 42.1246V41.9978L38.7473 43.807L38.8571 43.8701L40.4693 44.8011L40.579 44.8642L42.1917 45.7957L42.3015 45.8588L43.9142 46.7903L44.024 46.8534L47.1571 48.6626Z" fill="#B3B3B3"/>
</g>
<g opacity="0.3">
<path d="M47.1524 51.8854L47.1519 52.0116L44.0242 50.2057L43.9144 50.1426L42.3018 49.2111L42.192 49.148L40.5793 48.2165L40.4695 48.1534L38.8574 47.2224L38.7476 47.1588L35.6199 45.3529L35.6194 45.2261L38.7476 47.032L38.8574 47.0956L40.4695 48.0266L40.5793 48.0897L42.192 49.0212L42.3018 49.0843L43.9144 50.0158L44.0242 50.079L47.1524 51.8854Z" fill="#B3B3B3"/>
</g>
<g opacity="0.3">
<path d="M47.1472 55.1079L47.1467 55.2347L44.0239 53.431L43.9141 53.3679L42.3015 52.4364L42.1917 52.3733L40.579 51.4418L40.4692 51.3787L38.8571 50.4477L38.7473 50.3846L35.6246 48.5809L35.624 48.4541L38.7473 50.2573L38.8571 50.3209L40.4692 51.2519L40.579 51.315L42.1917 52.2465L42.3015 52.3096L43.9141 53.2411L44.0239 53.3042L47.1472 55.1079Z" fill="#B3B3B3"/>
</g>
<g opacity="0.3">
<path d="M47.1425 58.3305L47.1419 58.4567L44.0241 56.6563L43.9143 56.5932L42.3017 55.6617L42.1919 55.5986L40.5792 54.6671L40.4694 54.6034L38.8573 53.673L38.7475 53.6093L35.6297 51.8089L35.6292 51.6821L38.7475 53.4825L38.8573 53.5462L40.4694 54.4772L40.5792 54.5403L42.1919 55.4718L42.3017 55.5349L43.9143 56.4664L44.0241 56.5295L47.1425 58.3305Z" fill="#B3B3B3"/>
</g>
<g opacity="0.3">
<path d="M47.1369 61.5525V61.6787L44.0241 59.8816L43.9143 59.8179L42.3016 58.887L42.1918 58.8233L40.5791 57.8924L40.4693 57.8287L38.8572 56.8977L38.7474 56.8346L35.6346 55.037L35.634 54.9102L38.7474 56.7078L38.8572 56.7715L40.4693 57.7024L40.5791 57.7656L42.1918 58.6971L42.3016 58.7602L43.9143 59.6917L44.0241 59.7548L47.1369 61.5525Z" fill="#B3B3B3"/>
</g>
<g opacity="0.3">
<path d="M47.5197 64.9987L47.4648 65.0936L47.1321 64.9015L44.0242 63.1071L43.9145 63.0435L42.3018 62.1125L42.192 62.0488L40.5793 61.1179L40.4695 61.0542L38.8574 60.1233L38.7476 60.0601L35.6397 58.2652L35.6392 58.1384L38.7476 59.9334L38.8574 59.997L40.4695 60.9274L40.5793 60.9911L42.192 61.922L42.3018 61.9857L43.9145 62.9167L44.0242 62.9803L47.1321 64.7752L47.5197 64.9987Z" fill="#B3B3B3"/>
</g>
<g opacity="0.3">
<path d="M46.9811 67.9135L46.9263 68.0085L44.0242 66.3326L43.9144 66.2695L42.3017 65.338L42.1919 65.2749L40.5793 64.3434L40.4695 64.2803L38.8573 63.3493L38.7476 63.2857L35.644 61.494V61.3667L38.7476 63.1589L38.8573 63.2226L40.4695 64.1535L40.5793 64.2166L42.1919 65.1481L42.3017 65.2112L43.9144 66.1427L44.0242 66.2059L46.9811 67.9135Z" fill="#B3B3B3"/>
</g>
<g opacity="0.3">
<path d="M46.4432 70.8275L46.3883 70.9231L44.0241 69.5579L43.9143 69.4943L42.3017 68.5633L42.1919 68.4996L40.5792 67.5687L40.4694 67.505L38.8573 66.5741L38.7475 66.511L35.6489 64.7215V64.5947L38.7475 66.3836L38.8573 66.4473L40.4694 67.3782L40.5792 67.4414L42.1919 68.3728L42.3017 68.436L43.9143 69.3675L44.0241 69.4306L46.4432 70.8275Z" fill="#B3B3B3"/>
</g>
<path d="M45.5249 55.7086L37.8699 51.4562V48.7776L45.5249 53.03V55.7086Z" fill="white"/>
<path d="M45.5249 53.2769L37.8699 49.0251V48.8599L45.5249 53.1122V53.2769Z" fill="#DCDCE5"/>
<path d="M45.5249 53.5655L37.8699 49.3131V49.1484L45.5249 53.4008V53.5655Z" fill="#DCDCE5"/>
<path d="M45.5249 53.8544L37.8699 49.602V49.4368L45.5249 53.6891V53.8544Z" fill="#DCDCE5"/>
<path d="M45.5249 54.1424L37.8699 49.89V49.7253L45.5249 53.9777V54.1424Z" fill="#DCDCE5"/>
<path d="M45.5249 54.4312L37.8699 50.1788V50.0142L45.5249 54.266V54.4312Z" fill="#DCDCE5"/>
<path d="M45.5249 54.7193L37.8699 50.4669V50.3022L45.5249 54.5546V54.7193Z" fill="#DCDCE5"/>
<path d="M45.5249 55.0081L37.8699 50.7557V50.5911L45.5249 54.8429V55.0081Z" fill="#DCDCE5"/>
<path d="M45.5249 55.2962L37.8699 51.0444V50.8792L45.5249 55.1315V55.2962Z" fill="#DCDCE5"/>
<path d="M45.5249 55.585L37.8699 51.3326V51.168L45.5249 55.4203V55.585Z" fill="#DCDCE5"/>
<path d="M43.0413 54.2873L42.9062 54.2127V51.5334L43.0413 51.6086V54.2873Z" fill="white"/>
<path d="M40.4624 52.8964L40.3274 52.8212V50.1426L40.4624 50.2178V52.8964Z" fill="white"/>
<path d="M37.9905 51.5228L37.8555 51.4482V48.7695L37.9905 48.8442V51.5228Z" fill="white"/>
<path d="M45.5127 55.7019L45.3777 55.6267V52.948L45.5127 53.0232V55.7019Z" fill="white"/>
<path d="M37.2412 33.8511L37.845 34.1063L37.8999 66.3787L37.2961 66.8249L37.2412 33.8511Z" fill="#C7C7D3"/>
<path d="M37.2783 66.1025L37.8453 65.7847L46.2436 70.6035L45.5026 70.9098L37.2783 66.1025Z" fill="#EDEEEF"/>
<path d="M58.6486 28.7769V65.2242L55.3639 67.0614L55.2541 67.1223L53.642 68.0242L53.5322 68.0856L51.9195 68.9875L51.8097 69.049L50.1971 69.9508L50.0873 70.0117L47.0667 71.7013L47.0688 71.0508V70.924L47.0787 67.8611V67.7338L47.0886 64.6714V64.5441L47.0985 61.4807V61.3539L47.1084 58.2904V58.1636L47.1182 55.1007V54.9739L47.1281 51.9105V51.7831L47.138 48.7208V48.5935L47.1479 45.53V45.4032L47.1578 42.3403V42.213L47.1764 36.2727L50.0873 34.3708L50.1971 34.2988L51.8097 33.2455L51.9195 33.1736L53.5322 32.1197L53.642 32.0483L55.2541 30.995L55.3639 30.9231L58.6486 28.7769Z" fill="#3F7DDE"/>
<g opacity="0.3">
<path d="M50.1969 34.2991V69.951L50.0872 70.012V34.371L50.1969 34.2991Z" fill="#B3B3B3"/>
<path d="M51.9196 33.1738V68.9877L51.8098 69.0492V33.2457L51.9196 33.1738Z" fill="#B3B3B3"/>
<path d="M53.6418 32.0483V68.0242L53.532 68.0857V32.1197L53.6418 32.0483Z" fill="#B3B3B3"/>
<path d="M55.3639 30.9233V67.0616L55.2542 67.1226V30.9952L55.3639 30.9233Z" fill="#B3B3B3"/>
</g>
<g opacity="0.3">
<path d="M58.6485 35.5659V35.6927L55.3639 37.593L55.2541 37.6567L53.6419 38.5893L53.5322 38.6524L51.9195 39.5856L51.8097 39.6492L50.197 40.5818L50.0872 40.6455L47.1577 42.3405V42.2132L50.0872 40.5187L50.197 40.455L51.8097 39.5224L51.9195 39.4588L53.5322 38.5262L53.6419 38.4625L55.2541 37.5299L55.3639 37.4662L58.6485 35.5659Z" fill="#B3B3B3"/>
</g>
<g opacity="0.3">
<path d="M58.6486 38.75V38.8768L55.364 40.7771L55.2542 40.8408L53.6421 41.7734L53.5323 41.8365L51.9196 42.7696L51.8098 42.8333L50.1971 43.7659L50.0873 43.8296L47.1479 45.5301V45.4033L50.0873 43.7028L50.1971 43.6397L51.8098 42.7065L51.9196 42.6428L53.5323 41.7102L53.6421 41.6466L55.2542 40.714L55.364 40.6503L58.6486 38.75Z" fill="#B3B3B3"/>
</g>
<g opacity="0.3">
<path d="M58.6487 41.9346V42.0614L55.3641 43.9611L55.2543 44.0248L53.6422 44.9574L53.5324 45.0211L51.9197 45.9542L51.8099 46.0173L50.1972 46.9505L50.0875 47.0141L47.1382 48.7207V48.5933L50.0875 46.8873L50.1972 46.8237L51.8099 45.8911L51.9197 45.8274L53.5324 44.8943L53.6422 44.8306L55.2543 43.898L55.3641 43.8349L58.6487 41.9346Z" fill="#B3B3B3"/>
</g>
<g opacity="0.3">
<path d="M58.6486 45.1189V45.2457L55.364 47.146L55.2542 47.2097L53.642 48.1423L53.5323 48.2054L51.9196 49.1385L51.8098 49.2022L50.1971 50.1348L50.0873 50.1985L47.1282 51.9105V51.7832L50.0873 50.0717L50.1971 50.008L51.8098 49.0754L51.9196 49.0117L53.5323 48.0786L53.642 48.0155L55.2542 47.0829L55.364 47.0192L58.6486 45.1189Z" fill="#B3B3B3"/>
</g>
<g opacity="0.3">
<path d="M58.6487 48.303V48.4298L55.3641 50.3301L55.2543 50.3938L53.6422 51.3264L53.5324 51.39L51.9197 52.3226L51.8099 52.3863L50.1972 53.3194L50.0874 53.3831L47.1184 55.1006V54.9738L50.0874 53.2563L50.1972 53.1926L51.8099 52.2595L51.9197 52.1964L53.5324 51.2632L53.6422 51.1996L55.2543 50.267L55.3641 50.2033L58.6487 48.303Z" fill="#B3B3B3"/>
</g>
<g opacity="0.3">
<path d="M58.6486 51.4875V51.6143L55.3639 53.5147L55.2542 53.5783L53.642 54.5109L53.5322 54.5746L51.9196 55.5072L51.8098 55.5709L50.1971 56.504L50.0873 56.5677L47.1084 58.2907V58.1639L50.0873 56.4409L50.1971 56.3772L51.8098 55.4441L51.9196 55.3809L53.5322 54.4478L53.642 54.3841L55.2542 53.4515L55.3639 53.3879L58.6486 51.4875Z" fill="#B3B3B3"/>
</g>
<g opacity="0.3">
<path d="M58.6487 54.6721V54.7989L55.3641 56.6992L55.2543 56.7629L53.6421 57.6955L53.5324 57.7586L51.9197 58.6918L51.8099 58.7554L50.1972 59.688L50.0874 59.7517L47.0986 61.4807V61.3539L50.0874 59.6249L50.1972 59.5618L51.8099 58.6286L51.9197 58.565L53.5324 57.6324L53.6421 57.5687L55.2543 56.6361L55.3641 56.5724L58.6487 54.6721Z" fill="#B3B3B3"/>
</g>
<g opacity="0.3">
<path d="M58.6488 57.8562V57.983L55.3642 59.8833L55.2544 59.947L53.6423 60.8796L53.5325 60.9432L51.9198 61.8764L51.81 61.9395L50.1973 62.8727L50.0875 62.9363L47.0889 64.6714V64.5441L50.0875 62.8095L50.1973 62.7459L51.81 61.8127L51.9198 61.7496L53.5325 60.8164L53.6423 60.7528L55.2544 59.8202L55.3642 59.7565L58.6488 57.8562Z" fill="#B3B3B3"/>
</g>
<g opacity="0.3">
<path d="M58.6487 61.0413V61.1681L55.364 63.0684L55.2543 63.1315L53.6421 64.0646L53.5323 64.1278L51.9197 65.0609L51.8099 65.1246L50.1972 66.0572L50.0874 66.1208L47.0789 67.8614V67.7341L50.0874 65.994L50.1972 65.9304L51.8099 64.9978L51.9197 64.9341L53.5323 64.001L53.6421 63.9378L55.2543 63.0047L55.364 62.9416L58.6487 61.0413Z" fill="#B3B3B3"/>
</g>
<g opacity="0.3">
<path d="M58.6486 64.2253V64.3521L55.3639 66.2524L55.2541 66.3156L53.642 67.2482L53.5322 67.3118L51.9195 68.245L51.8097 68.3081L50.1971 69.2412L50.0873 69.3049L47.0688 71.051V70.9242L50.0873 69.1781L50.1971 69.1144L51.8097 68.1819L51.9195 68.1182L53.5322 67.185L53.642 67.1219L55.2541 66.1893L55.3639 66.1257L58.6486 64.2253Z" fill="#B3B3B3"/>
</g>
<path d="M58.6627 65.4978L57.0017 66.5912V33.9313L58.6484 32.9702V32.9982L58.6501 36.3948V36.458L58.6512 39.8453L58.6517 39.9704L58.6528 43.3572V43.4823L58.6545 46.8696V46.9942L58.6561 50.3815V50.5067L58.6578 53.8934V54.0186L58.6594 57.4059V57.531L58.6605 60.9178V61.0429L58.6621 64.4302V64.5553L58.6627 65.4978Z" fill="#CCCCCC"/>
<path d="M58.6621 64.4299V64.5551L57.0017 65.4794V65.3543L58.6621 64.4299Z" fill="#B3B3B3"/>
<path d="M58.677 36.4429L58.6501 36.4577L57.0017 37.3755V37.2498L58.6232 36.3474L58.6501 36.3946V36.3952L58.677 36.4429Z" fill="#B3B3B3"/>
<path d="M58.6517 39.9701L57.0017 40.8884V40.7633L58.6512 39.845L58.6517 39.9701Z" fill="#B3B3B3"/>
<path d="M58.6528 43.3569V43.4821L57.0017 44.4015V44.2764L58.6528 43.3569Z" fill="#B3B3B3"/>
<path d="M58.6561 50.3813V50.5065L57.0017 51.4276V51.3024L58.6561 50.3813Z" fill="#B3B3B3"/>
<path d="M58.6578 53.8933V54.0185L57.0017 54.9406V54.8155L58.6578 53.8933Z" fill="#B3B3B3"/>
<path d="M58.6594 57.4055V57.5307L57.0017 58.4534V58.3282L58.6594 57.4055Z" fill="#B3B3B3"/>
<path d="M58.6605 60.9175V61.0426L57.0017 61.9664V61.8413L58.6605 60.9175Z" fill="#B3B3B3"/>
<path d="M56.306 51.4435L48.7454 55.8205V53.1347L56.306 48.7583V51.4435Z" fill="#999999"/>
<path d="M56.306 49.0058L48.7454 53.3828V53.2176L56.306 48.8406V49.0058Z" fill="#DCDCE5"/>
<path d="M56.306 49.2951L48.7454 53.6721V53.5069L56.306 49.1299V49.2951Z" fill="#DCDCE5"/>
<path d="M56.306 49.5844L48.7454 53.9614V53.7962L56.306 49.4192V49.5844Z" fill="#DCDCE5"/>
<path d="M56.306 49.8737L48.7454 54.2507V54.0855L56.306 49.7085V49.8737Z" fill="#DCDCE5"/>
<path d="M56.306 50.1628L48.7454 54.5398V54.374L56.306 49.9976V50.1628Z" fill="#DCDCE5"/>
<path d="M56.306 50.4521L48.7454 54.8291V54.6633L56.306 50.2869V50.4521Z" fill="#DCDCE5"/>
<path d="M56.306 50.7414L48.7454 55.1178V54.9526L56.306 50.5762V50.7414Z" fill="#DCDCE5"/>
<path d="M56.306 51.0305L48.7454 55.4069V55.2417L56.306 50.8652V51.0305Z" fill="#DCDCE5"/>
<path d="M56.306 51.3198L48.7454 55.6962V55.531L56.306 51.1541V51.3198Z" fill="#DCDCE5"/>
<path d="M53.8521 52.823L53.7188 52.8998V50.2146L53.8521 50.1372V52.823Z" fill="white"/>
<path d="M51.306 54.3384L51.1726 54.4152V51.7294L51.306 51.6526V54.3384Z" fill="white"/>
<path d="M48.8646 55.7512L48.7312 55.8286V53.1428L48.8646 53.0659V55.7512Z" fill="white"/>
<path d="M56.294 51.4507L56.1606 51.5281V48.8423L56.294 48.7649V51.4507Z" fill="white"/>
<path d="M56.2883 33.4976L57.0019 33.8851V66.871L56.3432 66.377L56.2883 33.4976Z" fill="#B3B3B3"/>
<path d="M57.0474 66.0305L56.3432 65.6084L48.7134 70.0117V70.8362L57.0474 66.0305Z" fill="#C7C7D3"/>
<path d="M47.1216 39.4581L47.1155 43.0331V43.1594L47.11 46.6103V46.6564L47.093 57.1405V57.2673L47.0875 60.6738L47.087 60.8006L47.0815 64.2066V64.334L47.076 67.7399L47.0755 67.8667L47.07 71.2727V71.4L47.0667 73.4579L45.4727 72.3655L45.4749 70.4828V70.3554L45.4792 66.9489V66.8216L45.4831 63.4151V63.2877L45.4875 59.8812V59.7539L45.4913 56.3468L45.4919 56.22L45.5039 45.8139V45.6876L45.5083 42.235V42.1088L45.5127 38.52L47.0283 39.3911L47.1216 39.4581Z" fill="white"/>
<path d="M47.1157 43.0332V43.1595L45.5085 42.2351V42.1089L47.1157 43.0332Z" fill="#E6E6E6"/>
<path d="M47.1298 46.622L47.11 46.6566L47.0749 46.7175L45.5039 45.814V45.6877L47.11 46.6105L47.1298 46.622Z" fill="#E6E6E6"/>
<path d="M47.0929 57.1407V57.2675L45.4912 56.347L45.4918 56.2202L47.0929 57.1407Z" fill="#E6E6E6"/>
<path d="M47.0879 60.6739L47.0873 60.8007L45.4878 59.8813V59.7539L47.0879 60.6739Z" fill="#E6E6E6"/>
<path d="M47.0816 64.2067V64.3341L45.4832 63.4152V63.2878L47.0816 64.2067Z" fill="#E6E6E6"/>
<path d="M47.076 67.7399L47.0755 67.8667L45.4792 66.9489V66.8215L47.076 67.7399Z" fill="#E6E6E6"/>
<path d="M47.0702 71.2724V71.3998L45.4751 70.4826V70.3552L47.0702 71.2724Z" fill="#E6E6E6"/>
<path d="M48.7825 72.2854L47.0667 73.4579L47.0699 71.3271L47.0705 71.2014L47.076 67.8108V67.6851L47.0815 64.2945V64.1688L47.087 60.7787L47.0875 60.6525L47.093 57.2624V57.1367L47.0985 53.7462V53.6205L47.104 50.2299L47.1045 50.1042L47.11 46.7141V46.5879L47.1155 43.1978V43.0721L47.121 39.6815L47.1215 39.5558V39.4581L48.7683 38.3318V38.7643L48.7699 42.1511V42.2768L48.7716 45.663V45.7887L48.7726 49.1754V49.3011L48.7743 52.6873V52.813L48.7759 56.1998V56.3255L48.777 59.7122V59.8374L48.7787 63.2241V63.3498L48.7803 66.7366V66.8617L48.7814 70.2485L48.782 70.3742L48.7825 72.2854Z" fill="#CCCCCC"/>
<path d="M48.7699 42.1511V42.2768L47.1155 43.1979V43.0722L48.7699 42.1511Z" fill="#B3B3B3"/>
<path d="M48.7714 45.6631V45.7888L47.1099 46.7142V46.588L48.7714 45.6631Z" fill="#B3B3B3"/>
<path d="M48.7724 49.1753V49.301L47.1038 50.2297L47.1043 50.104L48.7724 49.1753Z" fill="#B3B3B3"/>
<path d="M48.7744 52.6873V52.813L47.0986 53.7461V53.6204L48.7744 52.6873Z" fill="#B3B3B3"/>
<path d="M48.776 56.1997V56.3254L47.093 57.2624V57.1367L48.776 56.1997Z" fill="#B3B3B3"/>
<path d="M48.777 59.7122V59.8373L47.0869 60.7787L47.0875 60.6524L48.777 59.7122Z" fill="#B3B3B3"/>
<path d="M48.7788 63.2239V63.3496L47.0815 64.2942V64.1685L48.7788 63.2239Z" fill="#B3B3B3"/>
<path d="M48.7805 66.7366V66.8617L47.0762 67.8108V67.6851L48.7805 66.7366Z" fill="#B3B3B3"/>
<path d="M48.7821 70.374L47.0701 71.3269L47.0706 71.2012L48.7816 70.2483L48.7821 70.374Z" fill="#B3B3B3"/>
<path d="M37.2963 66.5651L35.5947 65.4382L35.593 64.5023V64.3755L35.5876 60.9624V60.8362L35.5821 57.4231L35.5815 57.2963L35.576 53.8832V53.7569L35.5705 50.3438L35.57 50.217L35.5535 39.795V39.6676L35.5475 36.2101V36.0827L35.5414 32.4885V32.3622L35.5398 31.3018L37.2414 32.4995L37.2425 33.3398L37.243 33.4666L37.2485 37.0609L37.2491 37.1882L37.2546 40.6458V40.7726L37.2716 51.1952V51.322L37.2771 54.7351L37.2776 54.8613V54.8619L37.2831 58.2744V58.4012L37.2886 61.8143V61.9406L37.2941 65.3537L37.2946 65.4805L37.2963 66.5651Z" fill="white"/>
<path d="M37.2429 33.4669L35.5413 32.4888V32.3625L37.2423 33.3402L37.2429 33.4669Z" fill="#E6E6E6"/>
<path d="M37.2492 37.1883L35.5476 36.2101V36.0828L37.2487 37.0609L37.2492 37.1883Z" fill="#E6E6E6"/>
<path d="M37.2545 40.6459V40.7727L35.5535 39.7951V39.6677L37.2545 40.6459Z" fill="#E6E6E6"/>
<path d="M37.2714 51.1954V51.3222L35.5704 50.3441L35.5698 50.2173L37.2714 51.1954Z" fill="#E6E6E6"/>
<path d="M37.2775 54.8615L35.5759 53.8833V53.7571L37.277 54.7352L37.2775 54.8615Z" fill="#E6E6E6"/>
<path d="M37.2829 58.2745V58.4013L35.5818 57.4232L35.5813 57.2964L37.2829 58.2745Z" fill="#E6E6E6"/>
<path d="M37.2885 61.8143V61.9406L35.5874 60.9624V60.8362L37.2885 61.8143Z" fill="#E6E6E6"/>
<path d="M37.2946 65.4807L35.593 64.5025V64.3757L37.2941 65.3539L37.2946 65.4807Z" fill="#E6E6E6"/>
<path d="M60.2406 45.5736L47.1218 53.1715L47.0674 53.2034L44.5002 51.7103L44.3899 51.6461L42.3397 50.4539L42.2294 50.3897L40.1787 49.1969L40.0689 49.1332L38.0182 47.9405L37.9078 47.8768L35.8577 46.684L35.7474 46.6198L34.0029 45.6054V45.5736L34.5496 45.2234L35.0623 44.9248H35.0629L35.3741 44.7436L35.8824 44.4478L35.9241 44.4236L37.5275 43.4905L41.5229 45.8288H41.5235L41.524 45.8294L43.6768 47.0897L43.7866 47.1539L45.8302 48.3499L45.9405 48.4142L47.0663 49.0734L47.0674 49.0729L47.068 49.0723L56.7254 43.5355L58.2909 44.4428L58.2991 44.4478L58.9051 44.7996L59.1082 44.9171L59.7488 45.2881L60.2406 45.5736Z" fill="#EDEEEF"/>
<path d="M38.9425 44.9369L35.8576 46.684L35.7473 46.6198L38.8887 44.8408L38.9425 44.9369Z" fill="#CCCCCC"/>
<path d="M41.5769 45.9249L38.0178 47.9405L37.9075 47.8768L41.5226 45.8289H41.5231L41.5237 45.8294L41.5769 45.9249Z" fill="#CCCCCC"/>
<path d="M44.2117 46.913L43.7863 47.1539L40.1784 49.197L40.0686 49.1333L43.6766 47.0897L44.158 46.8169L44.2117 46.913Z" fill="#CCCCCC"/>
<path d="M45.9404 48.4141L42.3396 50.4538L42.2292 50.3896L45.8301 48.3499L45.9404 48.4141Z" fill="#CCCCCC"/>
<path d="M49.4813 48.889L44.5 51.7104L44.3896 51.6462L49.4275 48.793L49.4813 48.889Z" fill="#CCCCCC"/>
<path d="M60.2404 45.5735L58.081 46.8113L58.0261 46.8426L57.9713 46.8744L55.9573 48.0287L55.9019 48.0606L55.8475 48.0919L53.8336 49.2462L53.7782 49.2781L53.7233 49.3093L51.7093 50.4637L51.6544 50.4955L51.5996 50.5268L49.5856 51.6812L49.5302 51.713L49.4753 51.7443L47.1216 53.0935V49.0316L56.7252 43.5354L58.2907 44.4427L58.2989 44.4477L58.9049 44.7995L59.108 44.917L59.7486 45.2881L60.2404 45.5735Z" fill="#C7C7D3"/>
<path d="M58.0812 46.8114L58.0263 46.8427L57.9715 46.8745L56.1233 45.7822L56.1513 45.735L56.1793 45.6873L58.0812 46.8114Z" fill="#B3B3B3"/>
<path d="M55.9571 48.0286L55.9017 48.0604L55.8474 48.0917L53.9822 46.9895L54.0102 46.9423L54.0382 46.8945L55.9571 48.0286Z" fill="#B3B3B3"/>
<path d="M53.8338 49.2462L53.7783 49.278L53.7234 49.3093L51.8418 48.1973L51.8698 48.15L51.8978 48.1023L53.8338 49.2462Z" fill="#B3B3B3"/>
<path d="M51.7091 50.4636L51.6542 50.4954L51.5993 50.5267L49.7007 49.4048L49.7287 49.3576L49.7567 49.3098L51.7091 50.4636Z" fill="#B3B3B3"/>
<path d="M49.5855 51.6813L49.5301 51.7131L49.4752 51.7444L47.5601 50.6125L47.5881 50.5653L47.616 50.5176L49.5855 51.6813Z" fill="#B3B3B3"/>
<path d="M47.1218 53.088V54.1364L45.4646 53.1797L44.5897 52.6747L44.4799 52.611L42.4215 51.4232L42.3117 51.3595L40.2533 50.1717L40.1435 50.108L38.0851 48.9202L37.9754 48.8565L35.917 47.6687L35.8072 47.605L34.0029 46.5637V45.5735L35.8072 46.6071L35.917 46.6696L37.9754 47.8487L38.0851 47.9118L40.1435 49.0909L40.2533 49.154L42.3117 50.333L42.4215 50.3956L44.4799 51.5747L44.5897 51.6378L47.1218 53.088Z" fill="white"/>
<path d="M35.9169 46.6695V47.6685L35.8071 47.6048V46.6069L35.9169 46.6695Z" fill="#CCCCCC"/>
<path d="M38.0849 47.912V48.9203L37.9751 48.8567V47.8489L38.0849 47.912Z" fill="#CCCCCC"/>
<path d="M40.2531 49.1539V50.1716L40.1433 50.1079V49.0908L40.2531 49.1539Z" fill="#CCCCCC"/>
<path d="M42.4213 50.3956V51.4231L42.3115 51.3595V50.333L42.4213 50.3956Z" fill="#CCCCCC"/>
<path d="M44.5895 51.6376V52.6745L44.4797 52.6108V51.5745L44.5895 51.6376Z" fill="#CCCCCC"/>
<path d="M60.2404 45.5735V46.5121L58.0997 47.7565L57.9899 47.8202L55.9727 48.9926L55.8629 49.0563L53.8457 50.2288L53.7359 50.2924L51.7187 51.4649L51.6089 51.5286L49.5917 52.701L49.483 52.7642L47.1216 54.1364V53.0935L49.4819 51.7404L49.5917 51.6779L51.6089 50.5213L51.7187 50.4582L53.7359 49.3022L53.8457 49.2391L55.8629 48.0825L55.9727 48.02L57.9899 46.8634L58.0997 46.8008L60.2404 45.5735Z" fill="#DDDDDD"/>
<path d="M58.0995 46.8008V47.7564L57.9897 47.8201V46.8634L58.0995 46.8008Z" fill="#B3B3B3"/>
<path d="M55.9726 48.02V48.9927L55.8628 49.0564V48.0826L55.9726 48.02Z" fill="#B3B3B3"/>
<path d="M53.8459 49.239V50.2287L53.7361 50.2924V49.3021L53.8459 49.239Z" fill="#B3B3B3"/>
<path d="M51.7187 50.458V51.4647L51.6089 51.5284V50.5211L51.7187 50.458Z" fill="#B3B3B3"/>
<path d="M49.5917 51.678V52.7011L49.483 52.7643H49.4819V51.7406L49.5917 51.678Z" fill="#B3B3B3"/>
<path d="M34.5496 44.2561V45.2474L47.1217 52.5995V51.6663L34.5496 44.2561Z" fill="#CCCCCC"/>
<path d="M59.7486 44.311V45.3474L47.1216 52.5995V51.6208L59.7486 44.311Z" fill="#B3B3B3"/>
<path d="M60.2399 43.323L58.2985 44.4477L58.2172 44.4944L58.1074 44.5569L56.0913 45.7107L55.9815 45.7733L53.9654 46.9271L53.8556 46.9897L51.8395 48.1435L51.7297 48.2061L49.7136 49.3599L49.6038 49.4224L47.1211 50.843V49.0316L48.0465 48.5019L48.1563 48.4393L48.4615 48.2648L48.5323 48.2242L48.658 48.1523V48.1512L48.7695 48.0864V47.2735L49.4726 46.8722L49.5824 46.8096L51.6024 45.658L51.7121 45.5955L53.7321 44.4439L53.8419 44.3813L55.8619 43.2297L55.9716 43.1671L56.2763 42.9936L56.963 43.3987L58.6767 42.4167L60.2399 43.323Z" fill="#C7C7D3"/>
<path d="M47.1218 49.0316V50.843L44.6083 49.4131L44.4969 49.3494L42.4237 48.1698L42.3123 48.1067L40.239 46.9271L40.1282 46.8634L38.0544 45.6838L37.9435 45.6207L35.8818 44.4477L35.8703 44.4411L35.76 44.3769L34.0029 43.3548V43.323L35.5991 42.3618L37.2338 43.3186L37.7937 43.0051L37.9869 43.1155L38.0978 43.1791L40.1638 44.3631L40.2747 44.4263L42.3408 45.6102L42.4517 45.6734L44.5183 46.8574L44.6292 46.921L45.4976 47.4183L45.4981 48.094L46.1003 48.4415L46.2106 48.5052L47.1218 49.0316Z" fill="#EDEEEF"/>
<path d="M38.0976 43.1792L35.8701 44.4411L35.7598 44.3769L37.9867 43.1155L38.0976 43.1792Z" fill="#CCCCCC"/>
<path d="M40.2746 44.4262L38.0542 45.6837L37.9434 45.6206L40.1637 44.363L40.2746 44.4262Z" fill="#CCCCCC"/>
<path d="M42.4517 45.6735L40.2391 46.9272L40.1282 46.8635L42.3408 45.6104L42.4517 45.6735Z" fill="#CCCCCC"/>
<path d="M44.6289 46.9211L42.4234 48.1699L42.312 48.1067L44.5181 46.8574L44.6289 46.9211Z" fill="#CCCCCC"/>
<path d="M46.2103 48.5051L44.608 49.413L44.4966 49.3493L46.0999 48.4414L46.2103 48.5051Z" fill="#CCCCCC"/>
<path d="M58.2179 44.4942L58.1081 44.5568L55.8625 43.2296L55.9723 43.167L58.2179 44.4942Z" fill="#B3B3B3"/>
<path d="M56.0919 45.7106L55.9821 45.7731L53.7327 44.4437L53.8424 44.3811L56.0919 45.7106Z" fill="#B3B3B3"/>
<path d="M53.9661 46.9271L53.8563 46.9897L51.603 45.658L51.7128 45.5955L53.9661 46.9271Z" fill="#B3B3B3"/>
<path d="M51.84 48.1434L51.7302 48.206L49.4731 46.8721L49.5829 46.8096L51.84 48.1434Z" fill="#B3B3B3"/>
<path d="M49.7139 49.3597L49.6041 49.4223L48.0469 48.5018L48.1567 48.4392L49.7139 49.3597Z" fill="#B3B3B3"/>
<path d="M47.1218 50.8375V51.8859L44.5968 50.4286L44.487 50.3649L42.4286 49.1771L42.3189 49.1134L40.2605 47.9256L40.1507 47.8619L38.0923 46.6735L37.9825 46.6104L35.9241 45.422L35.8143 45.3589L34.0029 44.3132V43.323L35.8143 44.3604L35.9241 44.4236L37.9825 45.6026L38.0923 45.6652L40.1507 46.8442L40.2605 46.9074L42.3189 48.0864L42.4286 48.1495L44.487 49.3286L44.5968 49.3911L47.1218 50.8375Z" fill="white"/>
<path d="M35.9237 44.4235V45.4219L35.814 45.3588V44.3604L35.9237 44.4235Z" fill="#CCCCCC"/>
<path d="M38.0922 45.6651V46.6735L37.9824 46.6103V45.6025L38.0922 45.6651Z" fill="#CCCCCC"/>
<path d="M40.2602 46.9074V47.9256L40.1504 47.8619V46.8442L40.2602 46.9074Z" fill="#CCCCCC"/>
<path d="M42.4284 48.1496V49.1771L42.3186 49.1134V48.0864L42.4284 48.1496Z" fill="#CCCCCC"/>
<path d="M44.5968 49.3909V50.4284L44.4871 50.3647V49.3284L44.5968 49.3909Z" fill="#CCCCCC"/>
<path d="M47.1216 51.8859L60.2404 44.2616V43.323L47.1216 50.843V51.8859Z" fill="#DDDDDD"/>
<path d="M58.2096 44.4758H58.0999V45.6368H58.2096V44.4758Z" fill="#B3B3B3"/>
<path d="M56.0827 45.6946H55.9729V46.8555H56.0827V45.6946Z" fill="#B3B3B3"/>
<path d="M53.9555 46.9138H53.8457V48.0748H53.9555V46.9138Z" fill="#B3B3B3"/>
<path d="M51.8285 48.1338H51.7188V49.2947H51.8285V48.1338Z" fill="#B3B3B3"/>
<path d="M49.7013 49.3525H49.5916V50.5135H49.7013V49.3525Z" fill="#B3B3B3"/>
<path d="M60.2406 68.2435L47.1217 75.8415L47.0668 75.8733L34.0029 68.2753L33.948 68.2435L34.5496 67.8933L35.0623 67.5947H35.0628L35.3741 67.4135L35.8818 67.1177L35.9241 67.0935L37.5274 66.1604L47.0657 71.7433L47.0668 71.7428L47.0674 71.7422L56.7254 66.2054L58.2909 67.1128L58.2991 67.1177L58.9051 67.4695L59.1082 67.587L59.7488 67.9581L60.2406 68.2435Z" fill="#EDEEEF"/>
<path d="M60.2404 68.2434L47.1215 75.8414L47.0667 75.8732V73.4761L47.0672 71.7421L56.7252 66.2053L58.2907 67.1127L58.2989 67.1176L58.9049 67.4695L59.108 67.5869L59.7486 67.958L60.2404 68.2434Z" fill="#C7C7D3"/>
<path d="M34.0029 68.2434V69.2336L45.4646 75.8496L47.1218 76.8063V75.7579L34.0029 68.2434Z" fill="white"/>
<path d="M47.0667 76.8063L60.2404 69.182V68.2434L47.0667 75.7266V76.8063Z" fill="#DDDDDD"/>
<path d="M34.5496 66.9258V67.9171L47.0668 75.324V74.3245L34.5496 66.9258Z" fill="#CCCCCC"/>
<path d="M59.7486 66.9807V68.017L47.0667 75.3241L47.0699 74.4458L59.7486 66.9807Z" fill="#B3B3B3"/>
<path d="M60.2406 65.9926L58.2991 67.1173L47.1217 73.5906L47.0668 73.6224L35.8818 67.1173L34.0029 66.0245L33.948 65.9926L35.5997 65.0315L37.5274 66.16L47.0657 71.743L47.0668 71.7424L47.0674 71.7419L56.7254 66.2051L58.6773 65.0864L60.2406 65.9926Z" fill="#EDEEEF"/>
<path d="M60.2404 65.9927L58.2989 67.1174L47.1215 73.5906L47.0667 73.6225V71.7425L47.0672 71.7419L56.7252 66.2051L58.6771 65.0864L60.2404 65.9927Z" fill="#C7C7D3"/>
<path d="M34.0029 65.9927V66.9829L47.0669 74.5556L47.1218 73.5072L34.0029 65.9927Z" fill="white"/>
<path d="M47.0667 74.5556L60.2404 66.9313V65.9927L47.0667 73.4759V74.5556Z" fill="#DDDDDD"/>
<path d="M52.7816 38.0777L52.1531 38.4432V37.1873L52.7816 36.8218V38.0777Z" fill="white"/>
<path d="M52.4868 38.2494L52.4473 38.2719V37.016L52.4868 36.9929V38.2494Z" fill="#DCDCE5"/>
<path d="M52.7816 44.4586L52.1531 44.8242V43.5677L52.7816 43.2021V44.4586Z" fill="white"/>
<path d="M52.4868 44.6299L52.4473 44.6524V43.3965L52.4868 43.374V44.6299Z" fill="#DCDCE5"/>
<path d="M54.4875 40.0388V39.2352L55.4701 38.6638V39.468L54.4875 40.0388Z" fill="white"/>
<path d="M54.4875 39.6621V39.6116L55.4701 39.0408V39.0907L54.4875 39.6621Z" fill="#DCDCE5"/>
<path d="M49.4985 42.9409V42.1368L50.4805 41.5659V42.3695L49.4985 42.9409Z" fill="white"/>
<path d="M49.4985 42.5637V42.5138L50.4805 41.9424V41.9929L49.4985 42.5637Z" fill="#DCDCE5"/>
<path d="M51.6353 38.9621L51.295 39.4111L50.8037 38.6092L51.144 38.1602L51.6353 38.9621Z" fill="white"/>
<path d="M50.8297 40.2759L50.6332 40.8254L49.783 40.692L49.9789 40.1431L50.8297 40.2759Z" fill="white"/>
<path d="M50.6332 42.9531L50.8297 43.2737L49.9789 44.3962L49.783 44.0756L50.6332 42.9531Z" fill="white"/>
<path d="M51.2949 43.5981L51.6352 43.6514L51.144 45.0247L50.8042 44.9715L51.2949 43.5981Z" fill="white"/>
<path d="M53.2983 42.6841L53.6387 42.2351L54.1299 43.0371L53.7896 43.4861L53.2983 42.6841Z" fill="white"/>
<path d="M54.1038 41.3695L54.3003 40.8201L55.1511 40.9535L54.9546 41.5029L54.1038 41.3695Z" fill="white"/>
<path d="M54.3003 38.6929L54.1038 38.3723L54.9546 37.2493L55.1511 37.5704L54.3003 38.6929Z" fill="white"/>
<path d="M53.6387 38.0479L53.2983 37.9947L53.7896 36.6213L54.1299 36.6746L53.6387 38.0479Z" fill="white"/>
<path d="M52.075 40.3976L52.5069 40.1462L52.435 42.5998L52.1831 42.7464C52.1469 41.9631 52.1112 41.1804 52.075 40.3976Z" fill="#999999"/>
<path d="M52.1907 40.1996L52.6227 39.9482L52.5508 42.4018L52.2988 42.5484C52.2631 41.7657 52.2269 40.9824 52.1907 40.1996Z" fill="white"/>
<path d="M51.9521 41.421L51.9219 40.8874C52.5504 40.4961 53.1794 40.1047 53.8079 39.7139C53.814 39.8176 53.8194 39.9214 53.8255 40.0251C53.2014 40.49 52.5767 40.9555 51.9521 41.421Z" fill="#999999"/>
<path d="M52.029 41.2357L51.9988 40.7021C52.6273 40.3108 53.2563 39.9194 53.8848 39.5286C53.8909 39.6323 53.8963 39.736 53.9024 39.8398C53.2783 40.3047 52.6536 40.7702 52.029 41.2357Z" fill="white"/>
<path d="M42.1337 38.5136L41.4596 38.1513L41.4514 36.8833L42.1249 37.2461L42.1337 38.5136Z" fill="white"/>
<path d="M41.8176 38.3437L41.7753 38.3206L41.7671 37.0532L41.8094 37.0757L41.8176 38.3437Z" fill="#DCDCE5"/>
<path d="M42.1759 44.9527L41.5019 44.5904L41.4937 43.323L42.1672 43.6853L42.1759 44.9527Z" fill="white"/>
<path d="M41.8598 44.7832L41.8176 44.7607L41.8093 43.4927L41.8516 43.5157L41.8598 44.7832Z" fill="#DCDCE5"/>
<path d="M43.9828 42.4788L43.9773 41.6675L45.0301 42.234L45.0356 43.0452L43.9828 42.4788Z" fill="white"/>
<path d="M43.9803 42.0983L43.9797 42.0479L45.0331 42.6143L45.0336 42.6648L43.9803 42.0983Z" fill="#DCDCE5"/>
<path d="M38.6326 39.6006L38.6277 38.7893L39.6805 39.3558L39.686 40.1671L38.6326 39.6006Z" fill="white"/>
<path d="M38.6307 39.2207L38.6301 39.1702L39.6835 39.7366V39.7871L38.6307 39.2207Z" fill="#DCDCE5"/>
<path d="M40.9062 38.072L40.5428 38.1296L40.0093 36.7486L40.3721 36.6909L40.9062 38.072Z" fill="white"/>
<path d="M40.0485 38.4613L39.8404 38.7874L38.9243 37.6627L39.1324 37.3372L40.0485 38.4613Z" fill="white"/>
<path d="M39.8547 40.9343L40.0682 41.4865L39.1603 41.6298L38.9468 41.0776L39.8547 40.9343Z" fill="white"/>
<path d="M40.5711 42.3547L40.9372 42.8048L40.4179 43.6194L40.0513 43.1693L40.5711 42.3547Z" fill="white"/>
<path d="M42.7205 43.7642L43.0838 43.7065L43.6174 45.0876L43.2545 45.1452L42.7205 43.7642Z" fill="white"/>
<path d="M43.5784 43.3749L43.7864 43.0488L44.7025 44.1735L44.4945 44.499L43.5784 43.3749Z" fill="white"/>
<path d="M43.7721 40.9025L43.5586 40.3503L44.4665 40.207L44.68 40.7592L43.7721 40.9025Z" fill="white"/>
<path d="M43.0558 39.4817L42.6897 39.0316L43.209 38.217L43.5756 38.6671L43.0558 39.4817Z" fill="white"/>
<path d="M41.3889 40.0327L41.8522 40.2819C41.8319 41.0795 41.8116 41.8765 41.7907 42.674C41.7007 42.6257 41.6107 42.5769 41.5207 42.5286C41.4767 41.697 41.4328 40.8649 41.3889 40.0327Z" fill="#999999"/>
<path d="M41.5125 39.968L41.9757 40.2172C41.9554 41.0148 41.9351 41.8118 41.9143 42.6094C41.8242 42.561 41.7342 42.5122 41.6442 42.4639C41.6003 41.6323 41.5564 40.8002 41.5125 39.968Z" fill="white"/>
<path d="M41.2638 40.9225L41.2275 40.3489C41.9016 40.6859 42.5756 41.0224 43.2497 41.3594L43.2706 41.6942C42.6014 41.4368 41.9323 41.1794 41.2638 40.9225Z" fill="#999999"/>
<path d="M41.3448 40.8248L41.3086 40.2512C41.9827 40.5882 42.6567 40.9247 43.3308 41.2618C43.3379 41.3732 43.345 41.4852 43.3516 41.5966C42.6825 41.3386 42.0139 41.0817 41.3448 40.8248Z" fill="white"/>
<path d="M47.3958 9.75801C47.3958 9.88207 47.3278 9.98855 47.2312 10.0347V18.5125H47.0116V10.0347C46.915 9.98855 46.8469 9.88207 46.8469 9.75801C46.8469 9.59115 46.9699 9.45557 47.1214 9.45557C47.2729 9.45557 47.3958 9.59115 47.3958 9.75801Z" fill="#DCDCE5"/>
<path d="M60.1745 31.1395L47.0556 38.7374L47.0013 38.7693L44.434 37.2763L44.3237 37.212L42.2735 36.0198L42.1632 35.9556L40.1125 34.7628L40.0027 34.6991L37.952 33.5064L37.8417 33.4427L35.7915 32.2499L35.6812 32.1857L33.9368 31.1713V31.1395L34.4835 30.7893L34.9962 30.4907H34.9967L35.3079 30.3095L35.8162 30.0137L35.8579 29.9895L37.4613 29.0564L41.4568 31.3947H41.4573L41.4579 31.3953L43.6107 32.6556L43.7205 32.7198L45.764 33.9159L45.8744 33.9801L47.0002 34.6393L47.0013 34.6388L47.0018 34.6382L56.6593 29.1014L58.2247 30.0087L58.233 30.0137L58.839 30.3655L59.0421 30.483L59.6826 30.8541L60.1745 31.1395Z" fill="#EDEEEF"/>
<path d="M38.8766 30.5028L35.7917 32.25L35.6814 32.1857L38.8228 30.4067L38.8766 30.5028Z" fill="#CCCCCC"/>
<path d="M41.5112 31.4908L37.9521 33.5064L37.8418 33.4427L41.4569 31.3948H41.4574L41.458 31.3953L41.5112 31.4908Z" fill="#CCCCCC"/>
<path d="M44.1461 32.4786L43.7207 32.7196L40.1127 34.7626L40.0029 34.699L43.6109 32.6554L44.0923 32.3826L44.1461 32.4786Z" fill="#CCCCCC"/>
<path d="M45.8742 33.9797L42.2734 36.0195L42.1631 35.9553L45.7639 33.9155L45.8742 33.9797Z" fill="#CCCCCC"/>
<path d="M49.4156 34.4547L44.4343 37.2761L44.324 37.2119L49.3618 34.3586L49.4156 34.4547Z" fill="#CCCCCC"/>
<path d="M60.1748 31.1394L58.0154 32.3772L57.9605 32.4085L57.9056 32.4403L55.8916 33.5947L55.8362 33.6265L55.7819 33.6578L53.7679 34.8121L53.7125 34.844L53.6576 34.8753L51.6437 36.0296L51.5888 36.0614L51.5339 36.0927L49.5199 37.2471L49.4645 37.2789L49.4096 37.3102L47.0559 38.6594V34.5975L56.6596 29.1013L58.225 30.0087L58.2333 30.0136L58.8393 30.3654L59.0424 30.4829L59.6829 30.854L60.1748 31.1394Z" fill="#C7C7D3"/>
<path d="M58.0151 32.3771L57.9602 32.4084L57.9053 32.4402L56.0571 31.3479L56.0851 31.3007L56.1131 31.2529L58.0151 32.3771Z" fill="#B3B3B3"/>
<path d="M55.8915 33.5947L55.836 33.6266L55.7817 33.6579L53.9165 32.5557L53.9445 32.5084L53.9725 32.4607L55.8915 33.5947Z" fill="#B3B3B3"/>
<path d="M53.7676 34.8121L53.7122 34.844L53.6573 34.8753L51.7756 33.7632L51.8036 33.716L51.8316 33.6682L53.7676 34.8121Z" fill="#B3B3B3"/>
<path d="M51.6435 36.0298L51.5886 36.0616L51.5337 36.0929L49.635 34.9709L49.663 34.9237L49.691 34.876L51.6435 36.0298Z" fill="#B3B3B3"/>
<path d="M49.5196 37.2469L49.4642 37.2788L49.4093 37.3101L47.4941 36.1782L47.5221 36.131L47.5501 36.0833L49.5196 37.2469Z" fill="#B3B3B3"/>
<path d="M47.0556 38.6539V39.7023L45.3985 38.7456L44.5235 38.2406L44.4137 38.1769L42.3553 36.9891L42.2456 36.9254L40.1872 35.7376L40.0774 35.6739L38.019 34.4861L37.9092 34.4224L35.8508 33.2346L35.741 33.1709L33.9368 32.1296V31.1394L35.741 32.173L35.8508 32.2356L37.9092 33.4146L38.019 33.4777L40.0774 34.6568L40.1872 34.7199L42.2456 35.899L42.3553 35.9615L44.4137 37.1406L44.5235 37.2037L47.0556 38.6539Z" fill="white"/>
<path d="M35.8507 32.2354V33.2344L35.741 33.1708V32.1729L35.8507 32.2354Z" fill="#CCCCCC"/>
<path d="M38.0192 33.4779V34.4863L37.9094 34.4226V33.4148L38.0192 33.4779Z" fill="#CCCCCC"/>
<path d="M40.1872 34.7199V35.7375L40.0774 35.6739V34.6567L40.1872 34.7199Z" fill="#CCCCCC"/>
<path d="M42.3556 35.9615V36.9891L42.2458 36.9254V35.8989L42.3556 35.9615Z" fill="#CCCCCC"/>
<path d="M44.5236 37.2038V38.2406L44.4138 38.177V37.1406L44.5236 37.2038Z" fill="#CCCCCC"/>
<path d="M60.1748 31.1394V32.078L58.034 33.3224L57.9242 33.3861L55.907 34.5585L55.7972 34.6222L53.78 35.7947L53.6702 35.8583L51.653 37.0308L51.5432 37.0945L49.526 38.2669L49.4173 38.3301L47.0559 39.7023V38.6594L49.4162 37.3064L49.526 37.2438L51.5432 36.0872L51.653 36.0241L53.6702 34.8681L53.78 34.805L55.7972 33.6485L55.907 33.5859L57.9242 32.4293L58.034 32.3668L60.1748 31.1394Z" fill="#DDDDDD"/>
<path d="M58.0339 32.3667V33.3223L57.9241 33.386V32.4293L58.0339 32.3667Z" fill="#B3B3B3"/>
<path d="M55.9069 33.5859V34.5586L55.7971 34.6223V33.6485L55.9069 33.5859Z" fill="#B3B3B3"/>
<path d="M53.7797 34.8052V35.7949L53.6699 35.8585V34.8683L53.7797 34.8052Z" fill="#B3B3B3"/>
<path d="M51.6527 36.0239V37.0306L51.543 37.0943V36.0871L51.6527 36.0239Z" fill="#B3B3B3"/>
<path d="M49.5258 37.2439V38.2671L49.4171 38.3302H49.416V37.3065L49.5258 37.2439Z" fill="#B3B3B3"/>
<path d="M34.4829 29.8223V30.8141L47.0556 38.1656V37.2325L34.4829 29.8223Z" fill="#CCCCCC"/>
<path d="M59.6829 29.8767V30.913L47.0559 38.1652V37.187L59.6829 29.8767Z" fill="#B3B3B3"/>
<path d="M47.0556 34.5977V36.4091L44.5422 34.9792L44.4307 34.9155L42.3575 33.7359L42.2461 33.6728L40.1729 32.4932L40.062 32.4296L37.9882 31.25L37.8774 31.1868L35.8157 30.0138L35.8041 30.0072L35.6938 29.943L33.9368 28.9209V28.8891L35.533 27.928L37.1676 28.8847L37.7275 28.5713L37.9207 28.6816L38.0316 28.7453L40.0977 29.9293L40.2086 29.9924L42.2746 31.1764L42.3855 31.2395L44.4522 32.4235L44.563 32.4872L45.4314 32.9845L45.4319 33.6602L46.0341 34.0077L46.1444 34.0713L47.0556 34.5977Z" fill="#EDEEEF"/>
<path d="M38.0319 28.7451L35.8044 30.007L35.6941 29.9428L37.921 28.6814L38.0319 28.7451Z" fill="#CCCCCC"/>
<path d="M40.2086 29.9923L37.9883 31.2499L37.8774 31.1867L40.0978 29.9292L40.2086 29.9923Z" fill="#CCCCCC"/>
<path d="M42.3855 31.2391L40.1729 32.4928L40.062 32.4292L42.2747 31.176L42.3855 31.2391Z" fill="#CCCCCC"/>
<path d="M44.5633 32.487L42.3578 33.7358L42.2463 33.6726L44.4524 32.4233L44.5633 32.487Z" fill="#CCCCCC"/>
<path d="M46.1446 34.0712L44.5423 34.9791L44.4309 34.9155L46.0343 34.0076L46.1446 34.0712Z" fill="#CCCCCC"/>
<path d="M60.1748 28.8888L58.2333 30.0135L58.152 30.0602L58.0423 30.1228L56.0261 31.2766L55.9163 31.3391L53.9002 32.4929L53.7904 32.5555L51.7743 33.7093L51.6645 33.7719L49.6484 34.9257L49.5386 34.9883L47.0559 36.4088V34.5974L47.9814 34.0677L48.0911 34.0052L48.5928 33.7181V32.9024L49.4074 32.438L49.5172 32.3755L51.5372 31.2239L51.647 31.1613L53.6669 30.0097L53.7767 29.9471L55.7967 28.7955L55.9065 28.7329L56.2111 28.5595L56.8978 28.9646L55.2143 25.6514L60.1748 28.8888Z" fill="#C7C7D3"/>
<path d="M58.1517 30.0602L58.042 30.1227L55.7964 28.7955L55.9062 28.7329L58.1517 30.0602Z" fill="#B3B3B3"/>
<path d="M56.0259 31.2767L55.9162 31.3393L53.6667 30.0098L53.7765 29.9473L56.0259 31.2767Z" fill="#B3B3B3"/>
<path d="M53.8999 32.493L53.7901 32.5556L51.5369 31.224L51.6466 31.1614L53.8999 32.493Z" fill="#B3B3B3"/>
<path d="M51.7741 33.7093L51.6643 33.7719L49.4072 32.4381L49.517 32.3755L51.7741 33.7093Z" fill="#B3B3B3"/>
<path d="M49.6482 34.9256L49.5384 34.9882L47.9812 34.0677L48.091 34.0051L49.6482 34.9256Z" fill="#B3B3B3"/>
<path d="M47.0556 36.4037V37.4521L44.5306 35.9947L44.4209 35.9311L42.3625 34.7432L42.2527 34.6796L40.1943 33.4917L40.0845 33.4281L38.0261 32.2397L37.9163 32.1766L35.8579 30.9882L35.7482 30.9251L33.9368 29.8794V28.8892L35.7482 29.9266L35.8579 29.9897L37.9163 31.1688L38.0261 31.2313L40.0845 32.4104L40.1943 32.4735L42.2527 33.6526L42.3625 33.7157L44.4209 34.8947L44.5306 34.9573L47.0556 36.4037Z" fill="white"/>
<path d="M35.8581 29.9896V30.9881L35.7483 30.925V29.9265L35.8581 29.9896Z" fill="#CCCCCC"/>
<path d="M38.026 31.2313V32.2396L37.9163 32.1765V31.1687L38.026 31.2313Z" fill="#CCCCCC"/>
<path d="M40.1945 32.4733V33.4915L40.0847 33.4278V32.4102L40.1945 32.4733Z" fill="#CCCCCC"/>
<path d="M42.3625 33.7152V34.7428L42.2527 34.6791V33.6521L42.3625 33.7152Z" fill="#CCCCCC"/>
<path d="M44.5307 34.9571V35.9945L44.4209 35.9309V34.8945L44.5307 34.9571Z" fill="#CCCCCC"/>
<path d="M47.0559 37.4521L60.1748 29.8278V28.8892L47.0559 36.4092V37.4521Z" fill="#DDDDDD"/>
<path d="M58.1435 30.0417H58.0337V31.2027H58.1435V30.0417Z" fill="#B3B3B3"/>
<path d="M56.0165 31.2612H55.9067V32.4222H56.0165V31.2612Z" fill="#B3B3B3"/>
<path d="M53.8896 32.4802H53.7798V33.6412H53.8896V32.4802Z" fill="#B3B3B3"/>
<path d="M51.7624 33.6995H51.6526V34.8604H51.7624V33.6995Z" fill="#B3B3B3"/>
<path d="M49.6354 34.9187H49.5256V36.0796H49.6354V34.9187Z" fill="#B3B3B3"/>
<path d="M35.3601 28.0331L38.5613 26.1416L36.223 28.4558L35.3601 28.0331Z" fill="#EDEEEF"/>
<path d="M58.7035 28.7767L47.1216 35.5282V35.3635V18.4023L58.7035 28.7767Z" fill="#55BAF0"/>
<g opacity="0.6">
<path d="M49.5088 20.4404L46.9841 21.9231L47.0397 22.0178L49.5644 20.5351L49.5088 20.4404Z" fill="#E6E6E6"/>
<path d="M51.7051 22.5809L47.0037 25.3906L47.06 25.4849L51.7614 22.6752L51.7051 22.5809Z" fill="#E6E6E6"/>
<path d="M53.9541 24.6656L47.094 28.6741L47.1494 28.7689L54.0094 24.7604L53.9541 24.6656Z" fill="#E6E6E6"/>
<path d="M56.261 26.6436L46.9841 32.0225L47.0392 32.1174L56.316 26.7386L56.261 26.6436Z" fill="#E6E6E6"/>
<path d="M47.1022 21.9308L47.0291 22.0127L56.2502 30.2461L56.3233 30.1642L47.1022 21.9308Z" fill="#E6E6E6"/>
<path d="M47.1582 18.4155L47.085 18.4973L58.6673 28.8715L58.7405 28.7897L47.1582 18.4155Z" fill="#E6E6E6"/>
<path d="M47.1764 18.5125H47.0667V35.5834H47.1764V18.5125Z" fill="#E6E6E6"/>
<path d="M47.1572 25.2214L47.0833 25.3025L53.945 31.5597L54.0189 31.4785L47.1572 25.2214Z" fill="#E6E6E6"/>
<path d="M47.1025 28.5698L47.0293 28.6516L51.6951 32.823L51.7683 32.7411L47.1025 28.5698Z" fill="#E6E6E6"/>
<path d="M47.1609 31.9762L47.0862 32.0566L49.3914 34.1973L49.4661 34.1169L47.1609 31.9762Z" fill="#E6E6E6"/>
<path d="M49.4821 20.5981H49.3723V34.211H49.4821V20.5981Z" fill="#E6E6E6"/>
<path d="M51.7875 22.6294H51.6777V32.839H51.7875V22.6294Z" fill="#E6E6E6"/>
<path d="M54.0378 24.6604H53.928V31.5766H54.0378V24.6604Z" fill="#E6E6E6"/>
<path d="M56.3432 26.6912H56.2334V30.2042H56.3432V26.6912Z" fill="#E6E6E6"/>
</g>
<path d="M47.1215 18.4023V35.5282L47.06 35.492L44.7777 34.1554L42.4948 32.8183L42.4174 32.7727L40.2124 31.4817L40.1372 31.4372L37.9301 30.1445L37.8576 30.1023L37.8181 30.0792L35.5945 28.7767L37.8713 26.7276L37.9422 26.6639L38.1672 26.4614L40.1499 24.6769L40.2366 24.5989L42.4289 22.6256L42.5305 22.5345L44.708 20.5744L44.8249 20.4695L46.987 18.5231L47.1188 18.4051V18.4045L47.1215 18.4023Z" fill="#79C6E8"/>
<g opacity="0.6">
<path d="M47.0902 18.6471L47.0869 18.645L46.9592 18.5702L47.0144 18.4763L47.1508 18.5565L47.0902 18.6471Z" fill="#E6E6E6"/>
<path d="M47.0934 22.0313L47.0061 21.9803L44.6804 20.6218L44.7353 20.5273L44.8517 20.5943L47.1494 21.9369L47.0934 22.0313Z" fill="#E6E6E6"/>
<path d="M47.0937 25.4138L46.9943 25.3556L42.4016 22.6736L42.4565 22.5781L42.5575 22.6374L47.1491 25.3188L47.0937 25.4138Z" fill="#E6E6E6"/>
<path d="M47.0941 28.7962L46.9832 28.7314L40.1235 24.7255L40.1757 24.6289L40.1889 24.636L40.2635 24.68L47.149 28.7012L47.1386 28.7194V28.7265H47.1342L47.0941 28.7962Z" fill="#E6E6E6"/>
<path d="M47.0934 32.178L44.6881 30.7734L37.8433 26.7751L37.8938 26.678L37.8987 26.6807L37.969 26.7219L47.1489 32.0836L47.0934 32.178Z" fill="#E6E6E6"/>
<path d="M47.0941 35.561L47.0327 35.5253L35.5474 28.8166L35.6028 28.7222L47.149 35.466L47.0941 35.561Z" fill="#E6E6E6"/>
<path d="M47.1152 35.4922H47.0054V35.4774L47.0641 18.4053L47.1739 18.4048L47.1733 18.6007L47.1152 35.4922Z" fill="#E6E6E6"/>
<path d="M44.8324 34.1557H44.7227V34.1441L44.7699 20.4692L44.8796 20.4703L44.8791 20.6421L44.8324 34.1557Z" fill="#E6E6E6"/>
<path d="M42.5497 32.8184H42.4399L42.4405 32.7031L42.4756 22.5347H42.5854L42.5849 22.6851L42.5497 32.8184Z" fill="#E6E6E6"/>
<path d="M40.1575 31.4819L40.158 31.3699L40.1816 24.5991H40.2914L40.2909 24.727L40.2673 31.4786L40.1575 31.4819Z" fill="#E6E6E6"/>
<path d="M37.985 30.1452L37.8752 30.1447L37.8758 30.0371L37.8873 26.6641L37.9971 26.6619L37.9966 26.7695L37.985 30.1452Z" fill="#E6E6E6"/>
<path d="M35.6116 28.8101L35.5386 28.7278L47.087 18.4468L47.1556 18.5324L47.0815 18.5983L35.6116 28.8101Z" fill="#E6E6E6"/>
<path d="M37.8938 30.1433L37.8208 30.0615L37.8938 29.9962L47.0847 21.8142L47.1577 21.8965L47.0699 21.9745L37.8938 30.1433Z" fill="#E6E6E6"/>
<path d="M40.1714 31.4804L40.1028 31.3948L40.1763 31.3294L47.0854 25.179L47.1579 25.2613L47.0585 25.3497L40.1714 31.4804Z" fill="#E6E6E6"/>
<path d="M42.4534 32.8141L42.3804 32.7318L42.4583 32.6621L47.0845 28.5442L47.158 28.6254L47.0472 28.7253L42.4534 32.8141Z" fill="#E6E6E6"/>
</g>
<path d="M48.5318 48.2241L48.4614 48.2651V48.2645L48.5318 48.2241Z" fill="#C7C7D3"/>
<path d="M64.7676 66.8062L64.7698 71.8177L65.5651 72.4445V67.4308L64.7676 66.8062Z" fill="#C7B299"/>
<path d="M66.3605 66.8083V71.8221L65.5652 72.4445V67.4308L66.3605 66.8083Z" fill="#998675"/>
<path d="M62.5535 67.602L65.5653 69.9754V66.0952L64.0591 64.886L62.5535 67.602Z" fill="#53AA87"/>
<path d="M68.5776 67.602L65.5652 69.9754V66.0952L67.0714 64.886L68.5776 67.602Z" fill="#328D6A"/>
<path d="M62.9685 65.3763L65.5654 67.4232V64.077L64.2667 63.0347L62.9685 65.3763Z" fill="#6CD3A7"/>
<path d="M68.1626 65.3763L65.5652 67.4232V64.077L66.8639 63.0347L68.1626 65.3763Z" fill="#389E74"/>
<path d="M63.5588 63.6033L65.5667 65.1858V58.9585" fill="#84F4C1"/>
<path d="M67.5753 63.6033L65.5669 65.1858V58.9585" fill="#6CD3A7"/>
<path d="M31.2959 62.2468L31.3008 71.1803L32.8394 72.2973V63.36L31.2959 62.2468Z" fill="#C7B299"/>
<path d="M34.3779 62.2507V71.1875L32.8394 72.2974V63.3601L34.3779 62.2507Z" fill="#998675"/>
<path d="M27.0122 63.6654L32.8394 67.8969V60.979L29.9258 58.8235L27.0122 63.6654Z" fill="#53AA87"/>
<path d="M38.6665 63.6654L32.8394 67.8969V60.979L35.7529 58.8235L38.6665 63.6654Z" fill="#328D6A"/>
<path d="M27.8154 59.6977L32.8396 63.3457V57.3807L30.3272 55.5227L27.8154 59.6977Z" fill="#6CD3A7"/>
<path d="M37.8635 59.6977L32.8394 63.3457V57.3807L35.3517 55.5227L37.8635 59.6977Z" fill="#389E74"/>
<path d="M28.9583 56.5371L32.8429 59.3579V48.2568" fill="#84F4C1"/>
<path d="M36.7274 56.5371L32.8428 59.3579V48.2568" fill="#6CD3A7"/>
<path d="M36.937 69.5562L36.9403 75.6045L37.9821 76.3609V70.3098L36.937 69.5562Z" fill="#C7B299"/>
<path d="M39.0237 69.5586V75.6097L37.9824 76.3612V70.31L39.0237 69.5586Z" fill="#998675"/>
<path d="M34.0366 70.5171L37.9822 73.3819V68.6981L36.0094 67.2385L34.0366 70.5171Z" fill="#53AA87"/>
<path d="M41.9274 70.5171L37.9824 73.3819V68.6981L39.9552 67.2385L41.9274 70.5171Z" fill="#328D6A"/>
<path d="M34.5801 67.83L37.9822 70.3001V66.2618L36.2811 65.0032L34.5801 67.83Z" fill="#6CD3A7"/>
<path d="M41.384 67.83L37.9824 70.3001V66.2618L39.6829 65.0032L41.384 67.83Z" fill="#389E74"/>
<path d="M35.354 65.6905L37.9844 67.6007V60.084" fill="#84F4C1"/>
<path d="M40.6147 65.6905L37.9844 67.6007V60.084" fill="#6CD3A7"/>
<g clip-path="url(#clip0_8735_124174)">
<path d="M75.0001 80.3334C77.3012 80.3334 79.3846 79.4007 80.8926 77.8926C82.4007 76.3846 83.3334 74.3012 83.3334 72.0001C83.3334 69.6989 82.4007 67.6156 80.8926 66.1075C79.3846 64.5995 77.3012 63.6667 75.0001 63.6667C72.6989 63.6667 70.6156 64.5995 69.1075 66.1075C67.5995 67.6156 66.6667 69.6989 66.6667 72.0001C66.6667 74.3012 67.5995 76.3846 69.1075 77.8926C70.6156 79.4007 72.6989 80.3334 75.0001 80.3334Z" fill="#20C38C" stroke="#20C38C" stroke-width="1.66667" stroke-linejoin="round"/>
<path d="M71.6667 72L74.1667 74.5L79.1667 69.5" stroke="white" stroke-width="1.66667" stroke-linecap="round" stroke-linejoin="round"/>
</g>
</g>
<defs>
<filter id="filter0_dd_8735_124174" x="0.592593" y="0.555556" width="94.8148" height="94.8148" filterUnits="userSpaceOnUse" color-interpolation-filters="sRGB">
<feFlood flood-opacity="0" result="BackgroundImageFix"/>
<feColorMatrix in="SourceAlpha" type="matrix" values="0 0 0 0 0 0 0 0 0 0 0 0 0 0 0 0 0 0 127 0" result="hardAlpha"/>
<feOffset dy="1.48148"/>
<feGaussianBlur stdDeviation="0.740741"/>
<feColorMatrix type="matrix" values="0 0 0 0 0 0 0 0 0 0 0 0 0 0 0 0 0 0 0.05 0"/>
<feBlend mode="normal" in2="BackgroundImageFix" result="effect1_dropShadow_8735_124174"/>
<feColorMatrix in="SourceAlpha" type="matrix" values="0 0 0 0 0 0 0 0 0 0 0 0 0 0 0 0 0 0 127 0" result="hardAlpha"/>
<feOffset dy="2.96296"/>
<feGaussianBlur stdDeviation="3.7037"/>
<feColorMatrix type="matrix" values="0 0 0 0 0.196078 0 0 0 0 0.196078 0 0 0 0 0.411765 0 0 0 0.15 0"/>
<feBlend mode="normal" in2="effect1_dropShadow_8735_124174" result="effect2_dropShadow_8735_124174"/>
<feBlend mode="normal" in="SourceGraphic" in2="effect2_dropShadow_8735_124174" result="shape"/>
</filter>
<clipPath id="clip0_8735_124174">
<rect width="20" height="20" fill="white" transform="translate(65 62)"/>
</clipPath>
</defs>
</svg>
