<svg width="22" height="22" viewBox="0 0 22 22" fill="none" xmlns="http://www.w3.org/2000/svg">
<g clip-path="url(#clip0_6743_30476)">
<path d="M15.1705 6.7119C15.0916 6.04647 14.7198 5.67477 14.0544 5.59583C13.6625 5.6353 13.3688 5.79227 13.1733 6.06576L10.9999 9.179L8.82651 6.06574C8.6301 5.79224 8.33639 5.63528 7.94542 5.59581C7.27908 5.67475 6.90736 6.04647 6.82935 6.71188C6.82935 6.94686 6.90736 7.16254 7.06432 7.35803L8.94401 10.0013H7.71044C7.27908 10.0408 7.0441 10.2565 7.00556 10.6475C7.0441 11.0394 7.27908 11.2551 7.71044 11.2936H9.88387V12.2922H7.71044C7.27908 12.3317 7.0441 12.5474 7.00556 12.9384C7.0441 13.3303 7.27908 13.546 7.71044 13.5845H9.88387V15.4055C9.92241 16.0718 10.295 16.4041 10.9999 16.4041C11.7048 16.4041 12.0765 16.0718 12.116 15.4055V13.5845H14.2894C14.7198 13.546 14.9548 13.3303 14.9943 12.9384C14.9548 12.5474 14.7199 12.3317 14.2894 12.2922H12.116V11.2936H14.2894C14.7198 11.2551 14.9548 11.0394 14.9943 10.6475C14.9548 10.2565 14.7199 10.0408 14.2894 10.0013H13.0558L14.9355 7.35803C15.0916 7.16254 15.1705 6.94686 15.1705 6.7119ZM20.4913 3.33544H18.6643V1.50843C18.6643 1.17209 18.3916 0.899414 18.0553 0.899414C17.7189 0.899414 17.4463 1.17207 17.4463 1.50843V3.33544H15.6193C15.2829 3.33544 15.0103 3.6081 15.0103 3.94444C15.0103 4.28078 15.2829 4.55346 15.6193 4.55346H17.4463V6.38047C17.4463 6.71685 17.719 6.9895 18.0553 6.9895C18.3916 6.9895 18.6643 6.71685 18.6643 6.38047V4.55346H20.4913C20.8277 4.55346 21.1003 4.28078 21.1003 3.94444C21.1003 3.6081 20.8277 3.33544 20.4913 3.33544Z" fill="#20C38C"/>
<path d="M11.0001 21.9998C9.51548 21.9998 8.07487 21.7089 6.71817 21.1351C5.40823 20.581 4.23194 19.788 3.22202 18.778C2.2121 17.7681 1.41909 16.5918 0.865012 15.2819C0.291207 13.9252 0.000244141 12.4846 0.000244141 11C0.000244141 9.51538 0.291207 8.07477 0.865012 6.71807C1.41909 5.4081 2.21208 4.23181 3.22202 3.2219C4.23196 2.21198 5.40825 1.41897 6.71817 0.86489C8.07487 0.291085 9.51548 0.00012207 11.0001 0.00012207C12.2925 0.00012207 13.5586 0.222485 14.7632 0.661024C15.2092 0.823403 15.4391 1.31658 15.2768 1.76255C15.1144 2.20857 14.6212 2.43845 14.1752 2.27609C13.1597 1.90634 12.0914 1.71887 11.0001 1.71887C5.88245 1.71887 1.71897 5.88237 1.71897 11C1.71897 16.1176 5.88245 20.2811 11.0001 20.2811C16.1177 20.2811 20.2812 16.1176 20.2812 11C20.2812 9.90865 20.0937 8.84036 19.724 7.8248C19.5616 7.3788 19.7915 6.88565 20.2375 6.72327C20.6835 6.56091 21.1767 6.79084 21.339 7.23681C21.7776 8.44137 21.9999 9.70749 21.9999 11C21.9999 12.4846 21.709 13.9252 21.1352 15.2819C20.5811 16.5918 19.7881 17.7681 18.7781 18.778C17.7682 19.7879 16.5919 20.5809 15.282 21.135C13.9253 21.7089 12.4847 21.9998 11.0001 21.9998Z" fill="#20C38C"/>
</g>
<defs>
<clipPath id="clip0_6743_30476">
<rect width="22" height="22" fill="white"/>
</clipPath>
</defs>
</svg>
