
<svg width="357" height="126" viewBox="0 0 357 126" fill="none" xmlns="http://www.w3.org/2000/svg">
<ellipse opacity="0.8" cx="2.57188" cy="2.53092" rx="2.57188" ry="2.53092" transform="matrix(0.947526 -0.319678 0.33154 0.943441 31 64.8451)" fill="#3EBAD0"/>
<ellipse opacity="0.83" cx="3.77983" cy="3.8037" rx="3.77983" ry="3.8037" transform="matrix(-0.595621 0.803266 -0.814657 -0.579944 165.436 60.1686)" fill="#3EBAD0"/>
<ellipse opacity="0.88" cx="3.46073" cy="3.48493" rx="3.46073" ry="3.48493" transform="matrix(0.58142 -0.813604 0.824587 0.565735 260.495 42.6313)" fill="#3EBAD0"/>
<ellipse cx="4.28737" cy="4.21727" rx="4.28737" ry="4.21727" transform="matrix(-0.952875 -0.303363 0.314754 -0.949173 71.5693 87.8383)" fill="#3EBAD0"/>
<ellipse cx="2.29029" cy="2.24545" rx="2.29029" ry="2.24545" transform="matrix(0.992841 -0.119447 0.12434 0.99224 152.31 69.132)" fill="#3EBAD0"/>
<ellipse opacity="0.8" cx="2.45534" cy="2.50561" rx="2.45534" ry="2.50561" transform="matrix(-0.0534103 0.998573 -0.998684 -0.0512831 293.905 90.1766)" fill="#3EBAD0"/>
<rect opacity="0.98" width="8.22321" height="2.78005" transform="matrix(-0.0708179 0.997489 -0.999252 -0.0386574 3.36035 15.2272)" fill="#FBDE71"/>
<rect opacity="0.76" width="13.6204" height="2.56267" transform="matrix(-0.991635 0.129072 -0.232332 -0.972637 119.448 2.49255)" fill="#FBDE71"/>
<rect opacity="0.82" width="6.1624" height="2.0105" transform="matrix(-0.320001 0.947417 -0.983482 -0.181008 267.882 18.4108)" fill="#FBDE71"/>
<rect opacity="0.85" width="14.2629" height="2.68355" transform="matrix(0.991635 0.129072 -0.232332 0.972637 61.5837 34.0107)" fill="#FBDE71"/>
<rect opacity="0.92" width="14.9921" height="2.7754" transform="matrix(-0.99867 -0.0515498 0.0943067 -0.995543 129.152 44.3575)" fill="#FBDE71"/>
<rect opacity="0.93" width="11.7109" height="3.73301" transform="matrix(0.402865 -0.91526 0.972421 0.233234 252.787 31.6229)" fill="#FBDE71"/>
<rect opacity="0.86" width="10.9002" height="2.95606" transform="matrix(-0.714357 0.699781 -0.873897 -0.486111 16.2988 80.6511)" fill="#FBDE71"/>
<rect opacity="0.76" width="8.59788" height="2.17168" transform="matrix(-0.794473 -0.6073 0.814286 -0.580464 221.878 58.3656)" fill="#FBDE71"/>
<rect opacity="0.89" width="11.2243" height="3.31358" transform="matrix(-0.584465 -0.811419 0.930866 -0.365361 288.368 55.9779)" fill="#FBDE71"/>
<rect opacity="0.81" width="10.6553" height="3.11788" transform="matrix(-0.600468 0.799649 -0.925518 -0.378703 104.712 86.7001)" fill="#FBDE71"/>
<rect opacity="0.89" width="8.59671" height="1.62392" transform="matrix(0.989862 -0.142033 0.254644 0.967035 186.297 86.7001)" fill="#FBDE71"/>
<rect opacity="0.87" width="7.58197" height="1.85694" transform="matrix(-0.82371 0.567011 -0.784072 -0.62067 335.809 95.4551)" fill="#FBDE71"/>
<rect opacity="0.79" width="9.30515" height="2.27897" transform="matrix(0.82371 -0.567011 0.784072 0.62067 116.573 124.586)" fill="#FBDE71"/>
<rect opacity="0.7" width="12.9111" height="2.78271" transform="matrix(0.919937 0.392066 -0.616074 0.787688 183.062 109.463)" fill="#FBDE71"/>
<rect opacity="0.84" width="12.1383" height="3.16164" transform="matrix(0.762249 0.647284 -0.841626 0.540061 348.748 115.035)" fill="#FBDE71"/>
<path opacity="0.95" d="M1.06818 14.2846L10.9735 11.6297L7.39126 20.0914L1.06818 14.2846Z" fill="#3EBAD0"/>
<path opacity="0.72" d="M105.612 10.0707L95.3 5.97104L108.825 2.26973L105.612 10.0707Z" fill="#3EBAD0"/>
<path opacity="0.94" d="M356.829 10.5054L350.108 12.5887L352.136 6.63725L356.829 10.5054Z" fill="#3EBAD0"/>
<path opacity="0.94" d="M11.9439 57.8449L2.93101 58.1209L9.24428 52.0139L11.9439 57.8449Z" fill="#3EBAD0"/>
<path opacity="0.91" d="M185.357 76.5796L175.96 75.8644L183.974 70.243L185.357 76.5796Z" fill="#3EBAD0"/>
<path opacity="0.94" d="M348.699 66.3073L354.309 62.9351L354.947 69.1178L348.699 66.3073Z" fill="#3EBAD0"/>
<path opacity="0.86" d="M21.1474 108.087L26.6185 111.98L16.9908 112.666L21.1474 108.087Z" fill="#3EBAD0"/>
<path opacity="0.89" d="M114.498 119.166L122.868 119.206L116.581 124.657L114.498 119.166Z" fill="#3EBAD0"/>
<path opacity="0.91" d="M285.936 121.292L277.388 123.467L280.645 116.252L285.936 121.292Z" fill="#3EBAD0"/>
<rect x="127.645" y="76.6454" width="101.709" height="36.6773" rx="2.58145" fill="white"/>
<path d="M150.286 87.5339H143.936V88.5149H149.45C148.737 89.4545 147.767 90.6523 146.941 91.6023L147.942 92.0669C149.016 90.7349 150.348 89.0518 151.216 87.8437L150.462 87.4823L150.286 87.5339ZM148.903 86.8421C148.459 86.3877 147.56 85.7062 146.91 85.2416L146.27 85.8302C146.93 86.3361 147.818 87.0693 148.221 87.5236L148.903 86.8421ZM147.313 82.4536C146.301 84.0231 144.463 85.3965 142.635 86.2122C142.914 86.4394 143.223 86.8008 143.378 87.0796C144.886 86.3155 146.363 85.2209 147.478 83.8992C148.603 85.128 150.162 86.3051 151.474 86.9866C151.639 86.7285 151.98 86.3155 152.228 86.1193C150.803 85.4997 149.068 84.3123 148.046 83.1971C148.118 83.0938 148.19 83.0009 148.252 82.8976L147.313 82.4536Z" fill="#292945"/>
<path d="M155.336 90.2599V87.6372H160.199V90.2599H155.336ZM160.199 84.1677V86.6872H155.336V84.1677H160.199ZM154.355 83.1971V91.9017H155.336V91.2306H160.199V91.8604H161.221V83.1971H154.355Z" fill="#292945"/>
<path d="M169.74 90.8278C169.255 90.8278 169.162 90.7659 169.162 90.3838V87.1209H172.724V86.1812H168.243C168.336 85.4894 168.367 84.8079 168.398 84.1367H172.146V83.2074H164.113V84.1367H167.417C167.396 84.8079 167.365 85.4894 167.262 86.1812H163.493V87.1209H167.086C166.663 88.7937 165.682 90.3219 163.338 91.2099C163.586 91.4164 163.854 91.7675 163.989 92.0153C166.601 90.9518 167.644 89.1034 168.067 87.1209H168.16V90.3942C168.16 91.4577 168.46 91.7675 169.616 91.7675H171.372C172.415 91.7675 172.693 91.3235 172.817 89.6404C172.549 89.5784 172.115 89.4132 171.898 89.2377C171.836 90.6007 171.764 90.8278 171.299 90.8278H169.74Z" fill="#292945"/>
<path d="M175.987 90.2599V87.6372H180.851V90.2599H175.987ZM180.851 84.1677V86.6872H175.987V84.1677H180.851ZM175.006 83.1971V91.9017H175.987V91.2306H180.851V91.8604H181.873V83.1971H175.006Z" fill="#292945"/>
<path d="M186.964 86.2019H190.495V87.0486H186.964V86.2019ZM192.488 88.5045H189.349V87.7508H191.476V85.4997H186.045V87.7508H188.358V88.5045H185.105V91.5507H186.076V89.3719H188.358V92.0153H189.349V89.3719H191.497V90.611C191.497 90.7349 191.455 90.7659 191.29 90.7762C191.146 90.7762 190.598 90.7762 190.051 90.7556C190.175 91.0034 190.32 91.3751 190.371 91.6333C191.146 91.6333 191.672 91.6229 192.034 91.4887C192.385 91.3441 192.488 91.086 192.488 90.6213V88.5045ZM191.362 84.0541C191.652 83.765 191.992 83.352 192.312 82.9493L191.29 82.6188C191.115 82.9699 190.753 83.4862 190.485 83.8166L191.104 84.0541H189.256V82.5362H188.265V84.0541H186.344L186.953 83.7856C186.788 83.4552 186.458 82.9699 186.138 82.6292L185.27 82.9699C185.528 83.29 185.807 83.734 185.972 84.0541H184.444V86.3568H185.363V84.8802H192.127V86.3568H193.077V84.0541H191.362Z" fill="#292945"/>
<path d="M197 84.24C196.68 83.8269 196.019 83.1661 195.503 82.7118L194.863 83.2694C195.369 83.7547 196.009 84.4568 196.319 84.8905L197 84.24ZM196.618 89.692V85.7062H194.367V86.5736H195.699V89.8572C195.699 90.4251 195.338 90.8692 195.111 91.0653C195.286 91.1893 195.586 91.499 195.699 91.6849C195.854 91.4681 196.133 91.2202 197.847 89.7333C197.733 89.5578 197.579 89.1964 197.486 88.9486L196.618 89.692ZM198.807 85.3758H200.17V86.2638H198.807V85.3758ZM198.807 83.7443H200.17V84.622H198.807V83.7443ZM202.267 84.622H201.048V83.7443H202.267V84.622ZM202.267 86.2638H201.048V85.3758H202.267V86.2638ZM203.733 88.6594V87.7817H201.079V87.0383H203.175V82.9699H197.94V87.0383H200.139V87.7817H197.424V88.6594H199.644C199.024 89.5888 198.033 90.4561 197.083 90.9105C197.279 91.0757 197.568 91.4164 197.702 91.6333C198.601 91.117 199.499 90.229 200.139 89.2377V92.005H201.079V89.2067C201.699 90.1257 202.525 91.024 203.278 91.5403C203.433 91.3028 203.722 90.9724 203.939 90.8072C203.113 90.3529 202.194 89.5061 201.585 88.6594H203.733Z" fill="#292945"/>
<path d="M212.582 85.1796H209.608V83.6824H212.582V85.1796ZM213.511 82.8666H208.72V85.9954H213.511V82.8666ZM208.359 88.2567C208.183 87.9779 207.367 86.904 207.078 86.553V86.3464H208.276V85.4584H207.078V83.7547C207.481 83.6411 207.873 83.5172 208.204 83.3829L207.615 82.6085C206.934 82.9389 205.839 83.228 204.879 83.4242C204.972 83.6308 205.096 83.9509 205.147 84.1574C205.478 84.1057 205.839 84.0438 206.19 83.9715V85.4584H204.817V86.3464H206.046C205.705 87.4203 205.116 88.6594 204.559 89.3719C204.724 89.6197 204.951 90.0328 205.044 90.3116C205.447 89.754 205.86 88.9176 206.19 88.0192V92.0153H207.078V87.6991C207.347 88.1844 207.636 88.742 207.77 89.0621L208.359 88.2567ZM211.663 90.8588V89.6404H213.615V88.7937H211.663V87.6268H213.852V86.7698H208.555V87.6268H210.713V88.7937H208.803V89.6404H210.713V90.8588H208.132V91.7468H214.079V90.8588H211.663Z" fill="#292945"/>
<path d="M143.769 98.8613H139.907C139.804 98.5722 139.659 98.2211 139.515 97.9527L138.524 98.1282C138.627 98.3554 138.74 98.6135 138.823 98.8613H134.848V99.6771H143.769V98.8613ZM137.057 100.947H141.59V101.722H137.057V100.947ZM142.602 102.403V100.255H136.107V102.403H142.602ZM143.914 104.757H139.804V104.623C140.93 104.324 142.055 103.9 142.912 103.436L142.303 102.888L142.076 102.93H141.818V102.94H135.715V103.694H140.547C140 103.9 139.37 104.076 138.792 104.21L138.802 104.22H138.792V104.757H134.744V105.573H138.792V106.533C138.792 106.688 138.73 106.73 138.534 106.74C138.369 106.74 137.615 106.75 136.964 106.719C137.099 106.946 137.243 107.267 137.305 107.514C138.204 107.514 138.833 107.514 139.246 107.401C139.659 107.287 139.804 107.07 139.804 106.575V105.573H143.914V104.757Z" fill="#292945"/>
<path d="M152.907 97.9733C151.111 98.3554 147.992 98.6135 145.339 98.7168C145.432 98.9233 145.535 99.295 145.545 99.5325C148.23 99.4396 151.41 99.1918 153.579 98.7581L152.907 97.9733ZM146.134 101.815H153.124V103.105H154.064V100.968H152.443C152.732 100.555 153.031 100.038 153.3 99.5738L152.298 99.3053C152.102 99.8113 151.772 100.482 151.472 100.968H149.417L150.285 100.751C150.223 100.369 149.996 99.7803 149.768 99.326L148.911 99.5119C149.128 99.9765 149.324 100.586 149.376 100.968H147.146L147.703 100.792C147.59 100.441 147.321 99.8939 147.042 99.5015L146.206 99.739C146.433 100.111 146.671 100.606 146.795 100.968H145.235V103.105H146.134V101.815ZM151.379 103.694C150.946 104.313 150.367 104.809 149.665 105.212C148.922 104.799 148.313 104.293 147.858 103.694H151.379ZM152.174 102.775L151.999 102.806H146.578V103.694H147.022L146.836 103.776C147.332 104.52 147.961 105.16 148.715 105.676C147.631 106.131 146.371 106.42 145.008 106.585C145.215 106.792 145.473 107.205 145.566 107.452C147.032 107.215 148.436 106.843 149.645 106.244C150.791 106.833 152.143 107.225 153.672 107.442C153.806 107.163 154.054 106.75 154.26 106.533C152.897 106.389 151.679 106.1 150.625 105.676C151.555 105.036 152.329 104.22 152.825 103.167L152.174 102.775Z" fill="#292945"/>
<path d="M164.441 104.871V104.014H160.239C160.28 103.797 160.321 103.57 160.342 103.332H164.607V102.486H160.445V101.753H163.677V100.937H160.445V100.235H164.101V99.388H162.066C162.314 99.0575 162.593 98.6445 162.831 98.2624L161.808 97.9836C161.633 98.3967 161.282 98.9749 161.003 99.388H158.483L158.824 99.2331C158.68 98.8717 158.329 98.3554 157.977 97.9836L157.141 98.3141C157.389 98.6238 157.668 99.0472 157.833 99.388H155.84V100.235H159.454V100.937H156.336V101.753H159.454V102.486H155.417V103.332H159.34C159.31 103.58 159.268 103.797 159.227 104.014H155.695V104.871H158.917C158.442 105.749 157.461 106.306 155.231 106.626C155.417 106.833 155.644 107.225 155.716 107.483C158.318 107.06 159.423 106.255 159.95 105.016C160.765 106.43 162.097 107.184 164.163 107.494C164.266 107.215 164.534 106.812 164.741 106.606C162.913 106.41 161.643 105.862 160.9 104.871H164.441Z" fill="#292945"/>
<path d="M168.634 100.978C168.489 102.155 168.21 103.167 167.839 104.024C167.508 103.756 167.147 103.498 166.816 103.25C167.002 102.568 167.188 101.794 167.364 100.978H168.634ZM169.047 100.059L168.871 100.09H167.539C167.673 99.3983 167.787 98.7271 167.87 98.0972L166.909 98.0353C166.847 98.6755 166.744 99.388 166.62 100.09H165.588V100.978H166.434C166.228 101.98 165.98 102.919 165.753 103.611C166.279 103.993 166.858 104.437 167.384 104.892C166.868 105.728 166.207 106.337 165.422 106.74C165.629 106.905 165.887 107.267 166.021 107.504C166.847 107.029 167.55 106.379 168.107 105.532C168.52 105.924 168.871 106.317 169.119 106.647L169.749 105.831C169.48 105.48 169.067 105.067 168.592 104.644C169.119 103.498 169.48 102.031 169.625 100.204L169.047 100.059ZM175.036 102.31H172.857V101.412C173.59 100.761 174.292 99.8939 174.788 99.1401L174.127 98.6755L173.91 98.7271H170.028V99.6048H173.249C172.867 100.173 172.361 100.792 171.876 101.216V102.31H169.594V103.229H171.876V106.41C171.876 106.564 171.814 106.606 171.649 106.606C171.494 106.616 170.916 106.616 170.348 106.595C170.482 106.854 170.627 107.246 170.678 107.514C171.484 107.514 172.01 107.494 172.372 107.349C172.743 107.205 172.857 106.946 172.857 106.42V103.229H175.036V102.31Z" fill="#292945"/>
<path d="M177.225 105.594V103.312H179.145V105.594H177.225ZM179.145 100.513V102.475H177.225V100.513H179.145ZM182.068 99.6254C182.233 99.1711 182.367 98.6961 182.491 98.2211L181.562 98.0043C181.252 99.3673 180.705 100.741 180.023 101.629V99.6771H178.371C178.536 99.2434 178.732 98.6961 178.908 98.1798L177.865 98.0043C177.803 98.4999 177.648 99.1814 177.504 99.6771H176.347V107.225H177.225V106.44H180.023V101.701C180.261 101.835 180.622 102.093 180.777 102.238C181.107 101.763 181.427 101.164 181.717 100.503H184.153C184.019 104.396 183.885 105.955 183.555 106.296C183.441 106.44 183.327 106.471 183.121 106.471C182.863 106.471 182.264 106.461 181.603 106.41C181.778 106.678 181.892 107.081 181.913 107.339C182.501 107.37 183.111 107.38 183.472 107.339C183.864 107.287 184.112 107.194 184.37 106.854C184.783 106.337 184.907 104.737 185.052 100.08C185.062 99.9559 185.062 99.6254 185.062 99.6254H182.068ZM183.389 104.282C183.08 103.673 182.377 102.692 181.83 101.98L181.076 102.403C181.624 103.147 182.295 104.158 182.584 104.788L183.389 104.282Z" fill="#292945"/>
<path d="M186.27 102.135V103.188H195.667V102.135H186.27Z" fill="#292945"/>
<path d="M205.734 102.868V101.887H201.656C201.687 101.546 201.697 101.205 201.697 100.896V99.7597H205.311V98.7684H197.205V99.7597H200.695V100.885C200.695 101.195 200.685 101.536 200.644 101.887H196.834V102.868H200.458C200.065 104.251 199.054 105.687 196.534 106.657C196.751 106.843 197.04 107.236 197.164 107.473C199.632 106.502 200.778 105.088 201.294 103.642C202.131 105.501 203.452 106.802 205.435 107.463C205.569 107.184 205.869 106.781 206.085 106.575C204.041 106.017 202.678 104.675 201.955 102.868H205.734Z" fill="#292945"/>
<path d="M209.348 99.8836V104.076H208.12V99.8836H209.348ZM210.247 105.046V98.913H207.232V105.914H208.12V105.046H210.247ZM211.641 98.6961C211.486 102.093 211.166 105.088 209.927 106.699C210.154 106.874 210.484 107.246 210.66 107.494C212.033 105.573 212.395 102.599 212.58 98.7374L211.641 98.6961ZM213.716 98.6342C213.871 102.413 214.181 105.635 215.596 107.411C215.761 107.132 216.122 106.74 216.36 106.554C215.048 105.077 214.718 101.949 214.584 98.5722L213.716 98.6342Z" fill="#292945"/>
<path d="M220.717 103.766C221.233 103.766 221.781 103.446 222.256 102.682L221.605 102.207C221.347 102.682 221.068 102.899 220.738 102.899C220.087 102.899 219.623 101.949 218.693 101.949C218.167 101.949 217.619 102.259 217.155 103.043L217.795 103.508C218.053 103.033 218.342 102.816 218.673 102.816C219.323 102.816 219.777 103.766 220.717 103.766Z" fill="#292945"/>
<rect x="127.645" y="76.6454" width="101.709" height="36.6773" rx="2.58145" stroke="#4BDCAB" stroke-width="1.29073"/>
<g clip-path="url(#clip0_18786_155936)">
<path d="M193.378 78.303C202.431 78.2119 206.422 68.3051 202.714 60.7661C196.297 44.8912 178.218 43.509 170.079 47.5322C157.182 53.9686 149.564 71.3689 160.749 77.1386C162.333 78.0238 164.122 78.4791 165.937 78.4591L193.378 78.303Z" fill="white"/>
<path d="M165.876 79.1096C163.973 79.1163 162.102 78.6323 160.443 77.7046C156.66 75.7531 154.661 72.4129 154.694 68.058C154.746 60.2945 161.242 51.2204 169.805 46.95C174.139 44.8067 181.871 43.9188 189.338 46.7581C192.51 47.9349 195.397 49.7676 197.808 52.1359C200.22 54.5041 202.102 57.3544 203.331 60.4994C205.415 64.7796 205.222 69.8403 202.825 73.7139C200.758 77.0508 197.412 78.9177 193.405 78.9535L165.96 79.1096H165.876ZM179.451 46.2605C175.828 46.2605 172.603 47.0085 170.369 48.1176C162.35 52.118 156.021 60.8832 155.982 68.0677C155.956 71.9023 157.707 74.8392 161.046 76.563C162.52 77.3898 164.184 77.8202 165.876 77.8119H165.934L193.375 77.6558C195.047 77.677 196.694 77.2615 198.155 76.4508C199.615 75.64 200.838 74.4621 201.7 73.0341C203.836 69.5833 204.006 64.8804 202.131 61.0556L202.111 61.0133C200.95 58.03 199.168 55.3259 196.884 53.079C194.599 50.8322 191.863 49.0936 188.855 47.9777C185.851 46.8418 182.664 46.2588 179.451 46.2572V46.2605Z" fill="#78DAB9"/>
<path d="M204.293 63.9112L203.314 63.0526C210.107 55.3509 208.887 50.2609 208.379 48.9275C201.452 49.4413 199.737 53.8678 199.525 54.5085L199.486 54.6321L198.24 54.2484C198.24 54.2321 198.26 54.1801 198.283 54.102C198.658 52.6449 197.748 47.0346 197.066 43.7562L196.946 43.1707L197.52 43.0016C208.124 39.837 209.742 30.1839 209.885 29.1627C209.797 28.7789 208.861 28.5935 208.118 28.561L207.26 30.7499L204.325 29.244L203.487 31.0393L200.989 30.0083C198.351 36.9522 191.532 37.7848 189.504 37.8791C188.878 40.1558 185.656 45.2457 184.955 46.3353L183.856 45.6328C185.708 42.7512 188.311 38.2434 188.304 37.2384V36.5684L188.989 36.5977C189.315 36.5977 197.438 36.8318 199.982 28.9545L200.2 28.2846L202.835 29.3709L203.745 27.4617L206.575 28.9188L207.227 27.2666L207.655 27.2503C208.004 27.2503 211.085 27.1592 211.203 29.1172V29.1757V29.2342C211.203 29.3448 209.758 40.3477 198.485 44.0586C199.003 46.5853 199.385 49.1377 199.629 51.705C201.022 49.9324 203.722 47.8379 208.78 47.5907L209.171 47.5712L209.37 47.8964C209.5 48.1696 212.898 54.1508 204.293 63.9112Z" fill="#78DAB9"/>
<path d="M155.281 64.9487C146.346 55.4875 149.538 49.3893 149.682 49.1356L149.871 48.8103H150.262C155.323 48.8851 158.088 50.8886 159.546 52.6124C159.707 50.0343 160.006 47.4666 160.443 44.9205C149.029 41.5933 147.216 30.6457 147.2 30.5352V30.4766V30.4181C147.242 28.4569 150.334 28.4374 150.676 28.4374H151.1L151.804 30.0636L154.573 28.5122L155.551 30.3888L158.16 29.2082L158.398 29.8587C161.212 37.6449 169.309 37.1505 169.648 37.1245L170.33 37.0757L170.349 37.7522C170.379 38.7572 172.981 42.9007 174.817 45.5222L173.747 46.267C173.05 45.2717 169.834 40.6338 169.182 38.432C167.15 38.4059 160.309 37.801 157.443 30.9515L154.977 32.0703L154.061 30.2977L151.198 31.9012L150.246 29.7383C149.453 29.8001 148.573 30.0376 148.501 30.3888C148.677 31.4036 150.624 40.9948 161.333 43.7984L161.91 43.948L161.809 44.5367C161.242 47.8379 160.524 53.4743 160.948 54.9183L160.997 55.0647L159.764 55.4875C159.747 55.4428 159.732 55.3972 159.719 55.3509C159.464 54.6516 157.622 50.365 150.679 50.0885C150.223 51.4318 149.173 56.5608 156.223 64.0347L155.281 64.9487Z" fill="#78DAB9"/>
<path d="M150.314 49.9975C150.314 49.9975 150.425 54.6549 154.43 57.4129C157.782 59.7221 157.312 60.6653 157.312 60.6653L160.342 55.7867C160.342 55.7867 158.486 49.9324 150.314 49.9975Z" fill="#78DAB9"/>
<path d="M208.705 48.6737C208.705 48.6737 208.751 53.3311 204.847 56.2225C201.586 58.6455 202.075 59.5692 202.075 59.5692L198.88 54.8077C198.88 54.8077 200.553 48.8851 208.705 48.6737Z" fill="#78DAB9"/>
<path d="M201.576 59.7644C201.289 59.2343 201.289 57.9886 204.534 55.5883C205.596 54.7861 206.454 53.7455 207.037 52.5509C207.621 51.3564 207.914 50.0414 207.893 48.7128L209.197 48.6315C209.197 48.8331 209.458 53.5653 205.313 56.6323C202.809 58.4862 202.779 59.2863 202.779 59.2961C202.772 59.2432 202.755 59.1923 202.727 59.1464L201.576 59.7644Z" fill="#78DAB9"/>
<path opacity="0.36" d="M174.67 68.8841C174.585 73.1122 164.946 73.2813 164.718 69.0532C164.803 64.8154 174.442 64.656 174.67 68.8841Z" fill="#F2A0A8"/>
<path d="M171.073 30.1059C166.302 30.1839 168.096 22.3001 167.855 20.0592C168.55 20.6087 169.06 21.358 169.316 22.2058C169.671 23.5458 168.8 15.6002 171.885 14.7253C172.469 14.5562 170.793 15.6457 171.719 21.0772C172.346 20.3846 172.763 19.5285 172.922 18.6087C174.018 19.5681 174.664 21.9651 174.487 24.3654C174.487 24.3524 172.038 27.6178 171.073 30.1059Z" fill="white"/>
<path d="M171.002 30.5938C170.551 30.6123 170.101 30.5364 169.682 30.3712C169.262 30.206 168.882 29.955 168.566 29.6343C166.984 27.9886 167.18 24.6289 167.323 22.1766C167.383 21.4899 167.397 20.7999 167.366 20.1113L167.248 19.0055L168.142 19.656C168.46 19.9007 168.745 20.1861 168.99 20.5049C169.104 18.2672 169.544 14.8685 171.748 14.231C171.852 14.1897 171.967 14.1807 172.076 14.205C172.185 14.2294 172.285 14.2861 172.361 14.3676C172.444 14.476 172.492 14.607 172.497 14.743C172.503 14.8791 172.467 15.0137 172.394 15.1287C172.215 15.5938 171.706 16.9012 172.029 19.7568C172.236 19.3728 172.374 18.9556 172.436 18.5242L172.547 17.6103L173.242 18.2184C174.452 19.2755 175.163 21.7961 174.973 24.3785V24.5216L174.889 24.6354C174.863 24.6679 172.469 27.8878 171.54 30.2718L171.419 30.5775H171.093L171.002 30.5938ZM168.35 21.2822C168.35 21.5749 168.318 21.8871 168.298 22.2189C168.168 24.4956 167.972 27.6081 169.277 28.9448C169.666 29.3419 170.194 29.5747 170.75 29.5953C171.693 27.3739 173.578 24.7525 174.011 24.1638C174.116 22.427 173.773 20.7065 173.154 19.6462C172.904 20.2864 172.539 20.876 172.078 21.3863L171.403 22.0888L171.24 21.1326C170.78 18.4396 170.94 16.7776 171.168 15.7824C170.056 17.1939 169.961 20.4236 169.929 21.6367C169.906 22.4498 169.896 22.7881 169.44 22.8401C169.234 22.8629 168.97 22.7913 168.846 22.3295C168.743 21.9542 168.576 21.5998 168.35 21.2822V21.2822Z" fill="#78DAB9"/>
<path d="M187.509 32.2622C187.665 34.2754 190.939 23.1945 189.139 18.433C186.755 23.0839 187.313 20.2576 187.313 20.2576C187.724 15.9449 186.553 15.2164 185.682 12.9007C184.678 10.224 185.405 7.76519 183.922 5.52429C184.052 7.35864 182.986 14.5236 182.506 13.0471C182.027 11.5705 181.14 11.1412 181.14 11.1412C180.768 14.27 179.969 15.5059 179.969 15.5059C176.708 19.7697 178.737 23.1165 178.737 23.1165C178.737 23.1165 186.749 22.557 187.509 32.2622Z" fill="white"/>
<path d="M187.59 32.9907C187.527 32.9898 187.464 32.9777 187.404 32.9549C187.282 32.8965 187.179 32.8039 187.109 32.6885C187.038 32.573 187.003 32.4396 187.006 32.3045C186.309 23.214 179.069 23.5881 178.76 23.6076L178.463 23.6271L178.31 23.3734C178.218 23.2238 176.154 19.7015 179.555 15.2424C179.633 15.1123 180.312 13.8797 180.644 11.0957L180.723 10.4127L181.342 10.7119C181.895 11.0358 182.338 11.5156 182.617 12.0909C183.015 10.4647 183.514 6.88706 183.423 5.56009L183.296 3.71924L184.319 5.25436C185.236 6.63012 185.379 8.09045 185.516 9.50523C185.579 10.6033 185.787 11.6881 186.136 12.7316C186.327 13.2262 186.545 13.7104 186.788 14.1822C187.44 15.5124 188.05 16.7841 187.835 19.7893C188.05 19.4315 188.334 18.9241 188.699 18.2086L189.201 17.2329L189.592 18.2639C191.19 22.492 188.921 31.9044 188.017 32.8118C187.962 32.8687 187.895 32.9138 187.822 32.9446C187.749 32.9753 187.67 32.991 187.59 32.9907ZM179.03 22.6254C180.524 22.6514 186.586 23.2336 187.835 30.8376C188.582 28.3918 189.632 23.1327 188.996 19.7503C188.037 21.4805 187.649 21.7212 187.199 21.5651C186.798 21.4252 186.677 20.9764 186.827 20.1893C187.121 17.0898 186.589 15.9937 185.914 14.6082C185.689 14.1431 185.454 13.6618 185.233 13.0699C184.853 11.9485 184.627 10.7812 184.561 9.59955C184.511 8.98306 184.428 8.36965 184.313 7.76196C184.238 8.51651 184.134 9.3231 184.023 10.0386C183.475 13.5837 183.08 13.6618 182.764 13.7236C182.643 13.7463 182.236 13.7789 182.047 13.1967C181.927 12.81 181.743 12.4461 181.502 12.1202C181.091 14.657 180.419 15.7205 180.39 15.7693L180.367 15.8019C177.791 19.1486 178.665 21.8285 179.03 22.6254Z" fill="#78DAB9"/>
<path d="M177.289 27.0291C177.461 24.7167 176.669 25.3346 176.454 27.1364C176.135 30.0089 176.179 32.9099 176.584 35.7715C176.584 36.2464 177.207 38.1913 177.426 36.9554C177.325 33.6965 176.966 30.3108 177.289 27.0291Z" fill="#78DAB9"/>
<path d="M177.224 37.5213H177.204C176.744 37.4887 176.431 36.0317 176.421 35.7747C176.016 32.912 175.972 30.01 176.291 27.1364C176.399 26.2355 176.676 25.3346 177.093 25.3834C177.211 25.3834 177.572 25.4289 177.452 27.0551C177.217 29.4358 177.344 31.9011 177.452 34.2851C177.497 35.1665 177.546 36.0772 177.572 36.9619V36.9976C177.563 37.131 177.491 37.5213 177.224 37.5213ZM177.054 25.7086C176.937 25.8192 176.728 26.3038 176.614 27.1559C176.298 30.0145 176.343 32.9013 176.747 35.7487C176.807 36.2453 176.962 36.7257 177.204 37.1635C177.232 37.0922 177.251 37.018 177.263 36.9423C177.237 36.0675 177.188 35.1633 177.142 34.2884C177.018 31.8946 176.888 29.4098 177.142 27.0128C177.194 26.0826 177.096 25.7899 177.054 25.7086V25.7086Z" fill="white"/>
<path d="M177.289 27.0291C177.461 24.7167 176.669 25.3346 176.454 27.1364C176.135 30.0089 176.179 32.9099 176.584 35.7715C176.584 36.2464 177.207 38.1913 177.426 36.9554C177.325 33.6965 176.966 30.3108 177.289 27.0291Z" fill="#78DAB9"/>
<path d="M177.224 37.5213H177.204C176.744 37.4887 176.431 36.0317 176.421 35.7747C176.016 32.912 175.972 30.01 176.291 27.1364C176.399 26.2355 176.676 25.3346 177.093 25.3834C177.211 25.3834 177.572 25.4289 177.452 27.0551C177.217 29.4358 177.344 31.9011 177.452 34.2851C177.497 35.1665 177.546 36.0772 177.572 36.9619V36.9976C177.563 37.131 177.491 37.5213 177.224 37.5213ZM177.054 25.7086C176.937 25.8192 176.728 26.3038 176.614 27.1559C176.298 30.0145 176.343 32.9013 176.747 35.7487C176.807 36.2453 176.962 36.7257 177.204 37.1635C177.232 37.0922 177.251 37.018 177.263 36.9423C177.237 36.0675 177.188 35.1633 177.142 34.2884C177.018 31.8946 176.888 29.4098 177.142 27.0128C177.194 26.0826 177.096 25.7899 177.054 25.7086V25.7086Z" fill="white"/>
<path d="M177.289 27.0291C177.461 24.7167 176.669 25.3346 176.454 27.1364C176.135 30.0089 176.179 32.9099 176.584 35.7715C176.584 36.2464 177.207 38.1913 177.426 36.9554C177.325 33.6965 176.966 30.3108 177.289 27.0291Z" fill="#78DAB9"/>
<path d="M177.224 37.5213H177.204C176.744 37.4887 176.431 36.0317 176.421 35.7747C176.016 32.912 175.972 30.01 176.291 27.1364C176.399 26.2355 176.676 25.3346 177.093 25.3834C177.211 25.3834 177.572 25.4289 177.452 27.0551C177.217 29.4358 177.344 31.9011 177.452 34.2851C177.497 35.1665 177.546 36.0772 177.572 36.9619V36.9976C177.563 37.131 177.491 37.5213 177.224 37.5213ZM177.054 25.7086C176.937 25.8192 176.728 26.3038 176.614 27.1559C176.298 30.0145 176.343 32.9013 176.747 35.7487C176.807 36.2453 176.962 36.7257 177.204 37.1635C177.232 37.0922 177.251 37.018 177.263 36.9423C177.237 36.0675 177.188 35.1633 177.142 34.2884C177.018 31.8946 176.888 29.4098 177.142 27.0128C177.194 26.0826 177.096 25.7899 177.054 25.7086V25.7086Z" fill="white"/>
<path d="M177.289 27.0291C177.461 24.7167 176.669 25.3346 176.454 27.1364C176.135 30.0089 176.179 32.9099 176.584 35.7715C176.584 36.2464 177.207 38.1913 177.426 36.9554C177.325 33.6965 176.966 30.3108 177.289 27.0291Z" fill="#78DAB9"/>
<path d="M177.224 37.5213H177.204C176.744 37.4887 176.431 36.0317 176.421 35.7747C176.016 32.912 175.972 30.01 176.291 27.1364C176.399 26.2355 176.676 25.3346 177.093 25.3834C177.211 25.3834 177.572 25.4289 177.452 27.0551C177.217 29.4358 177.344 31.9011 177.452 34.2851C177.497 35.1665 177.546 36.0772 177.572 36.9619V36.9976C177.563 37.131 177.491 37.5213 177.224 37.5213ZM177.054 25.7086C176.937 25.8192 176.728 26.3038 176.614 27.1559C176.298 30.0145 176.343 32.9013 176.747 35.7487C176.807 36.2453 176.962 36.7257 177.204 37.1635C177.232 37.0922 177.251 37.018 177.263 36.9423C177.237 36.0675 177.188 35.1633 177.142 34.2884C177.018 31.8946 176.888 29.4098 177.142 27.0128C177.194 26.0826 177.096 25.7899 177.054 25.7086V25.7086Z" fill="white"/>
<path d="M177.289 27.0291C177.461 24.7167 176.669 25.3346 176.454 27.1364C176.135 30.0089 176.179 32.9099 176.584 35.7715C176.584 36.2464 177.207 38.1913 177.426 36.9554C177.325 33.6965 176.966 30.3108 177.289 27.0291Z" fill="#78DAB9"/>
<path d="M177.224 37.5213H177.204C176.744 37.4887 176.431 36.0317 176.421 35.7747C176.016 32.912 175.972 30.01 176.291 27.1364C176.399 26.2355 176.676 25.3346 177.093 25.3834C177.211 25.3834 177.572 25.4289 177.452 27.0551C177.217 29.4358 177.344 31.9011 177.452 34.2851C177.497 35.1665 177.546 36.0772 177.572 36.9619V36.9976C177.563 37.131 177.491 37.5213 177.224 37.5213ZM177.054 25.7086C176.937 25.8192 176.728 26.3038 176.614 27.1559C176.298 30.0145 176.343 32.9013 176.747 35.7487C176.807 36.2453 176.962 36.7257 177.204 37.1635C177.232 37.0922 177.251 37.018 177.263 36.9423C177.237 36.0675 177.188 35.1633 177.142 34.2884C177.018 31.8946 176.888 29.4098 177.142 27.0128C177.194 26.0826 177.096 25.7899 177.054 25.7086V25.7086Z" fill="white"/>
<path d="M177.289 27.0291C177.461 24.7167 176.669 25.3346 176.454 27.1364C176.135 30.0089 176.179 32.9099 176.584 35.7715C176.584 36.2464 177.207 38.1913 177.426 36.9554C177.325 33.6965 176.966 30.3108 177.289 27.0291Z" fill="#78DAB9"/>
<path d="M177.224 37.5213H177.204C176.744 37.4887 176.431 36.0317 176.421 35.7747C176.016 32.912 175.972 30.01 176.291 27.1364C176.399 26.2355 176.676 25.3346 177.093 25.3834C177.211 25.3834 177.572 25.4289 177.452 27.0551C177.217 29.4358 177.344 31.9011 177.452 34.2851C177.497 35.1665 177.546 36.0772 177.572 36.9619V36.9976C177.563 37.131 177.491 37.5213 177.224 37.5213ZM177.054 25.7086C176.937 25.8192 176.728 26.3038 176.614 27.1559C176.298 30.0145 176.343 32.9013 176.747 35.7487C176.807 36.2453 176.962 36.7257 177.204 37.1635C177.232 37.0922 177.251 37.018 177.263 36.9423C177.237 36.0675 177.188 35.1633 177.142 34.2884C177.018 31.8946 176.888 29.4098 177.142 27.0128C177.194 26.0826 177.096 25.7899 177.054 25.7086V25.7086Z" fill="white"/>
<path d="M177.289 27.0291C177.461 24.7167 176.669 25.3346 176.454 27.1364C176.135 30.0089 176.179 32.9099 176.584 35.7715C176.584 36.2464 177.207 38.1913 177.426 36.9554C177.325 33.6965 176.966 30.3108 177.289 27.0291Z" fill="#78DAB9"/>
<path d="M177.224 37.5213H177.204C176.744 37.4887 176.431 36.0317 176.421 35.7747C176.016 32.912 175.972 30.01 176.291 27.1364C176.399 26.2355 176.676 25.3346 177.093 25.3834C177.211 25.3834 177.572 25.4289 177.452 27.0551C177.217 29.4358 177.344 31.9011 177.452 34.2851C177.497 35.1665 177.546 36.0772 177.572 36.9619V36.9976C177.563 37.131 177.491 37.5213 177.224 37.5213ZM177.054 25.7086C176.937 25.8192 176.728 26.3038 176.614 27.1559C176.298 30.0145 176.343 32.9013 176.747 35.7487C176.807 36.2453 176.962 36.7257 177.204 37.1635C177.232 37.0922 177.251 37.018 177.263 36.9423C177.237 36.0675 177.188 35.1633 177.142 34.2884C177.018 31.8946 176.888 29.4098 177.142 27.0128C177.194 26.0826 177.096 25.7899 177.054 25.7086V25.7086Z" fill="white"/>
<path d="M177.289 27.0291C177.461 24.7167 176.669 25.3346 176.454 27.1364C176.135 30.0089 176.179 32.9099 176.584 35.7715C176.584 36.2464 177.207 38.1913 177.426 36.9554C177.325 33.6965 176.966 30.3108 177.289 27.0291Z" fill="#78DAB9"/>
<path d="M177.224 37.5213H177.204C176.744 37.4887 176.431 36.0317 176.421 35.7747C176.016 32.912 175.972 30.01 176.291 27.1364C176.399 26.2355 176.676 25.3346 177.093 25.3834C177.211 25.3834 177.572 25.4289 177.452 27.0551C177.217 29.4358 177.344 31.9011 177.452 34.2851C177.497 35.1665 177.546 36.0772 177.572 36.9619V36.9976C177.563 37.131 177.491 37.5213 177.224 37.5213ZM177.054 25.7086C176.937 25.8192 176.728 26.3038 176.614 27.1559C176.298 30.0145 176.343 32.9013 176.747 35.7487C176.807 36.2453 176.962 36.7257 177.204 37.1635C177.232 37.0922 177.251 37.018 177.263 36.9423C177.237 36.0675 177.188 35.1633 177.142 34.2884C177.018 31.8946 176.888 29.4098 177.142 27.0128C177.194 26.0826 177.096 25.7899 177.054 25.7086V25.7086Z" fill="white"/>
<path d="M177.289 27.0291C177.461 24.7167 176.669 25.3346 176.454 27.1364C176.135 30.0089 176.179 32.9099 176.584 35.7715C176.584 36.2464 177.207 38.1913 177.426 36.9554C177.325 33.6965 176.966 30.3108 177.289 27.0291Z" fill="#78DAB9"/>
<path d="M177.224 37.5213H177.204C176.744 37.4887 176.431 36.0317 176.421 35.7747C176.016 32.912 175.972 30.01 176.291 27.1364C176.399 26.2355 176.676 25.3346 177.093 25.3834C177.211 25.3834 177.572 25.4289 177.452 27.0551C177.217 29.4358 177.344 31.9011 177.452 34.2851C177.497 35.1665 177.546 36.0772 177.572 36.9619V36.9976C177.563 37.131 177.491 37.5213 177.224 37.5213ZM177.054 25.7086C176.937 25.8192 176.728 26.3038 176.614 27.1559C176.298 30.0145 176.343 32.9013 176.747 35.7487C176.807 36.2453 176.962 36.7257 177.204 37.1635C177.232 37.0922 177.251 37.018 177.263 36.9423C177.237 36.0675 177.188 35.1633 177.142 34.2884C177.018 31.8946 176.888 29.4098 177.142 27.0128C177.194 26.0826 177.096 25.7899 177.054 25.7086V25.7086Z" fill="white"/>
<path d="M177.289 27.0291C177.461 24.7167 176.669 25.3346 176.454 27.1364C176.135 30.0089 176.179 32.9099 176.584 35.7715C176.584 36.2464 177.207 38.1913 177.426 36.9554C177.325 33.6965 176.966 30.3108 177.289 27.0291Z" fill="#78DAB9"/>
<path d="M177.224 37.5213H177.204C176.744 37.4887 176.431 36.0317 176.421 35.7747C176.016 32.912 175.972 30.01 176.291 27.1364C176.399 26.2355 176.676 25.3346 177.093 25.3834C177.211 25.3834 177.572 25.4289 177.452 27.0551C177.217 29.4358 177.344 31.9011 177.452 34.2851C177.497 35.1665 177.546 36.0772 177.572 36.9619V36.9976C177.563 37.131 177.491 37.5213 177.224 37.5213ZM177.054 25.7086C176.937 25.8192 176.728 26.3038 176.614 27.1559C176.298 30.0145 176.343 32.9013 176.747 35.7487C176.807 36.2453 176.962 36.7257 177.204 37.1635C177.232 37.0922 177.251 37.018 177.263 36.9423C177.237 36.0675 177.188 35.1633 177.142 34.2884C177.018 31.8946 176.888 29.4098 177.142 27.0128C177.194 26.0826 177.096 25.7899 177.054 25.7086V25.7086Z" fill="white"/>
<path d="M177.289 27.0291C177.461 24.7167 176.669 25.3346 176.454 27.1364C176.135 30.0089 176.179 32.9099 176.584 35.7715C176.584 36.2464 177.207 38.1913 177.426 36.9554C177.325 33.6965 176.966 30.3108 177.289 27.0291Z" fill="#78DAB9"/>
<path d="M177.224 37.5213H177.204C176.744 37.4887 176.431 36.0317 176.421 35.7747C176.016 32.912 175.972 30.01 176.291 27.1364C176.399 26.2355 176.676 25.3346 177.093 25.3834C177.211 25.3834 177.572 25.4289 177.452 27.0551C177.217 29.4358 177.344 31.9011 177.452 34.2851C177.497 35.1665 177.546 36.0772 177.572 36.9619V36.9976C177.563 37.131 177.491 37.5213 177.224 37.5213ZM177.054 25.7086C176.937 25.8192 176.728 26.3038 176.614 27.1559C176.298 30.0145 176.343 32.9013 176.747 35.7487C176.807 36.2453 176.962 36.7257 177.204 37.1635C177.232 37.0922 177.251 37.018 177.263 36.9423C177.237 36.0675 177.188 35.1633 177.142 34.2884C177.018 31.8946 176.888 29.4098 177.142 27.0128C177.194 26.0826 177.096 25.7899 177.054 25.7086V25.7086Z" fill="white"/>
<path d="M177.289 27.0291C177.461 24.7167 176.669 25.3346 176.454 27.1364C176.135 30.0089 176.179 32.9099 176.584 35.7715C176.584 36.2464 177.207 38.1913 177.426 36.9554C177.325 33.6965 176.966 30.3108 177.289 27.0291Z" fill="#78DAB9"/>
<path d="M177.224 37.5213H177.204C176.744 37.4887 176.431 36.0317 176.421 35.7747C176.016 32.912 175.972 30.01 176.291 27.1364C176.399 26.2355 176.676 25.3346 177.093 25.3834C177.211 25.3834 177.572 25.4289 177.452 27.0551C177.217 29.4358 177.344 31.9011 177.452 34.2851C177.497 35.1665 177.546 36.0772 177.572 36.9619V36.9976C177.563 37.131 177.491 37.5213 177.224 37.5213ZM177.054 25.7086C176.937 25.8192 176.728 26.3038 176.614 27.1559C176.298 30.0145 176.343 32.9013 176.747 35.7487C176.807 36.2453 176.962 36.7257 177.204 37.1635C177.232 37.0922 177.251 37.018 177.263 36.9423C177.237 36.0675 177.188 35.1633 177.142 34.2884C177.018 31.8946 176.888 29.4098 177.142 27.0128C177.194 26.0826 177.096 25.7899 177.054 25.7086V25.7086Z" fill="white"/>
<path d="M177.289 27.0291C177.461 24.7167 176.669 25.3346 176.454 27.1364C176.135 30.0089 176.179 32.9099 176.584 35.7715C176.584 36.2464 177.207 38.1913 177.426 36.9554C177.325 33.6965 176.966 30.3108 177.289 27.0291Z" fill="#78DAB9"/>
<path d="M177.224 37.5213H177.204C176.744 37.4887 176.431 36.0317 176.421 35.7747C176.016 32.912 175.972 30.01 176.291 27.1364C176.399 26.2355 176.676 25.3346 177.093 25.3834C177.211 25.3834 177.572 25.4289 177.452 27.0551C177.217 29.4358 177.344 31.9011 177.452 34.2851C177.497 35.1665 177.546 36.0772 177.572 36.9619V36.9976C177.563 37.131 177.491 37.5213 177.224 37.5213ZM177.054 25.7086C176.937 25.8192 176.728 26.3038 176.614 27.1559C176.298 30.0145 176.343 32.9013 176.747 35.7487C176.807 36.2453 176.962 36.7257 177.204 37.1635C177.232 37.0922 177.251 37.018 177.263 36.9423C177.237 36.0675 177.188 35.1633 177.142 34.2884C177.018 31.8946 176.888 29.4098 177.142 27.0128C177.194 26.0826 177.096 25.7899 177.054 25.7086V25.7086Z" fill="white"/>
<path d="M177.289 27.0291C177.461 24.7167 176.669 25.3346 176.454 27.1364C176.135 30.0089 176.179 32.9099 176.584 35.7715C176.584 36.2464 177.207 38.1913 177.426 36.9554C177.325 33.6965 176.966 30.3108 177.289 27.0291Z" fill="#78DAB9"/>
<path d="M177.224 37.5213H177.204C176.744 37.4887 176.431 36.0317 176.421 35.7747C176.016 32.912 175.972 30.01 176.291 27.1364C176.399 26.2355 176.676 25.3346 177.093 25.3834C177.211 25.3834 177.572 25.4289 177.452 27.0551C177.217 29.4358 177.344 31.9011 177.452 34.2851C177.497 35.1665 177.546 36.0772 177.572 36.9619V36.9976C177.563 37.131 177.491 37.5213 177.224 37.5213ZM177.054 25.7086C176.937 25.8192 176.728 26.3038 176.614 27.1559C176.298 30.0145 176.343 32.9013 176.747 35.7487C176.807 36.2453 176.962 36.7257 177.204 37.1635C177.232 37.0922 177.251 37.018 177.263 36.9423C177.237 36.0675 177.188 35.1633 177.142 34.2884C177.018 31.8946 176.888 29.4098 177.142 27.0128C177.194 26.0826 177.096 25.7899 177.054 25.7086V25.7086Z" fill="white"/>
<path d="M177.289 27.0291C177.461 24.7167 176.669 25.3346 176.454 27.1364C176.135 30.0089 176.179 32.9099 176.584 35.7715C176.584 36.2464 177.207 38.1913 177.426 36.9554C177.325 33.6965 176.966 30.3108 177.289 27.0291Z" fill="#78DAB9"/>
<path d="M177.224 37.5213H177.204C176.744 37.4887 176.431 36.0317 176.421 35.7747C176.016 32.912 175.972 30.01 176.291 27.1364C176.399 26.2355 176.676 25.3346 177.093 25.3834C177.211 25.3834 177.572 25.4289 177.452 27.0551C177.217 29.4358 177.344 31.9011 177.452 34.2851C177.497 35.1665 177.546 36.0772 177.572 36.9619V36.9976C177.563 37.131 177.491 37.5213 177.224 37.5213ZM177.054 25.7086C176.937 25.8192 176.728 26.3038 176.614 27.1559C176.298 30.0145 176.343 32.9013 176.747 35.7487C176.807 36.2453 176.962 36.7257 177.204 37.1635C177.232 37.0922 177.251 37.018 177.263 36.9423C177.237 36.0675 177.188 35.1633 177.142 34.2884C177.018 31.8946 176.888 29.4098 177.142 27.0128C177.194 26.0826 177.096 25.7899 177.054 25.7086V25.7086Z" fill="white"/>
<path d="M177.289 27.0291C177.461 24.7167 176.669 25.3346 176.454 27.1364C176.135 30.0089 176.179 32.9099 176.584 35.7715C176.584 36.2464 177.207 38.1913 177.426 36.9554C177.325 33.6965 176.966 30.3108 177.289 27.0291Z" fill="#78DAB9"/>
<path d="M177.224 37.5213H177.204C176.744 37.4887 176.431 36.0317 176.421 35.7747C176.016 32.912 175.972 30.01 176.291 27.1364C176.399 26.2355 176.676 25.3346 177.093 25.3834C177.211 25.3834 177.572 25.4289 177.452 27.0551C177.217 29.4358 177.344 31.9011 177.452 34.2851C177.497 35.1665 177.546 36.0772 177.572 36.9619V36.9976C177.563 37.131 177.491 37.5213 177.224 37.5213ZM177.054 25.7086C176.937 25.8192 176.728 26.3038 176.614 27.1559C176.298 30.0145 176.343 32.9013 176.747 35.7487C176.807 36.2453 176.962 36.7257 177.204 37.1635C177.232 37.0922 177.251 37.018 177.263 36.9423C177.237 36.0675 177.188 35.1633 177.142 34.2884C177.018 31.8946 176.888 29.4098 177.142 27.0128C177.194 26.0826 177.096 25.7899 177.054 25.7086V25.7086Z" fill="white"/>
<path d="M177.289 27.0291C177.461 24.7167 176.669 25.3346 176.454 27.1364C176.135 30.0089 176.179 32.9099 176.584 35.7715C176.584 36.2464 177.207 38.1913 177.426 36.9554C177.325 33.6965 176.966 30.3108 177.289 27.0291Z" fill="#78DAB9"/>
<path d="M177.224 37.5213H177.204C176.744 37.4887 176.431 36.0317 176.421 35.7747C176.016 32.912 175.972 30.01 176.291 27.1364C176.399 26.2355 176.676 25.3346 177.093 25.3834C177.211 25.3834 177.572 25.4289 177.452 27.0551C177.217 29.4358 177.344 31.9011 177.452 34.2851C177.497 35.1665 177.546 36.0772 177.572 36.9619V36.9976C177.563 37.131 177.491 37.5213 177.224 37.5213ZM177.054 25.7086C176.937 25.8192 176.728 26.3038 176.614 27.1559C176.298 30.0145 176.343 32.9013 176.747 35.7487C176.807 36.2453 176.962 36.7257 177.204 37.1635C177.232 37.0922 177.251 37.018 177.263 36.9423C177.237 36.0675 177.188 35.1633 177.142 34.2884C177.018 31.8946 176.888 29.4098 177.142 27.0128C177.194 26.0826 177.096 25.7899 177.054 25.7086V25.7086Z" fill="white"/>
<path d="M177.289 27.0291C177.461 24.7167 176.669 25.3346 176.454 27.1364C176.135 30.0089 176.179 32.9099 176.584 35.7715C176.584 36.2464 177.207 38.1913 177.426 36.9554C177.325 33.6965 176.966 30.3108 177.289 27.0291Z" fill="#78DAB9"/>
<path d="M177.224 37.5213H177.204C176.744 37.4887 176.431 36.0317 176.421 35.7747C176.016 32.912 175.972 30.01 176.291 27.1364C176.399 26.2355 176.676 25.3346 177.093 25.3834C177.211 25.3834 177.572 25.4289 177.452 27.0551C177.217 29.4358 177.344 31.9011 177.452 34.2851C177.497 35.1665 177.546 36.0772 177.572 36.9619V36.9976C177.563 37.131 177.491 37.5213 177.224 37.5213ZM177.054 25.7086C176.937 25.8192 176.728 26.3038 176.614 27.1559C176.298 30.0145 176.343 32.9013 176.747 35.7487C176.807 36.2453 176.962 36.7257 177.204 37.1635C177.232 37.0922 177.251 37.018 177.263 36.9423C177.237 36.0675 177.188 35.1633 177.142 34.2884C177.018 31.8946 176.888 29.4098 177.142 27.0128C177.194 26.0826 177.096 25.7899 177.054 25.7086V25.7086Z" fill="white"/>
<path d="M177.289 27.0291C177.461 24.7167 176.669 25.3346 176.454 27.1364C176.135 30.0089 176.179 32.9099 176.584 35.7715C176.584 36.2464 177.207 38.1913 177.426 36.9554C177.325 33.6965 176.966 30.3108 177.289 27.0291Z" fill="#78DAB9"/>
<path d="M177.224 37.5213H177.204C176.744 37.4887 176.431 36.0317 176.421 35.7747C176.016 32.912 175.972 30.01 176.291 27.1364C176.399 26.2355 176.676 25.3346 177.093 25.3834C177.211 25.3834 177.572 25.4289 177.452 27.0551C177.217 29.4358 177.344 31.9011 177.452 34.2851C177.497 35.1665 177.546 36.0772 177.572 36.9619V36.9976C177.563 37.131 177.491 37.5213 177.224 37.5213ZM177.054 25.7086C176.937 25.8192 176.728 26.3038 176.614 27.1559C176.298 30.0145 176.343 32.9013 176.747 35.7487C176.807 36.2453 176.962 36.7257 177.204 37.1635C177.232 37.0922 177.251 37.018 177.263 36.9423C177.237 36.0675 177.188 35.1633 177.142 34.2884C177.018 31.8946 176.888 29.4098 177.142 27.0128C177.194 26.0826 177.096 25.7899 177.054 25.7086V25.7086Z" fill="white"/>
<path d="M177.289 27.0291C177.461 24.7167 176.669 25.3346 176.454 27.1364C176.135 30.0089 176.179 32.9099 176.584 35.7715C176.584 36.2464 177.207 38.1913 177.426 36.9554C177.325 33.6965 176.966 30.3108 177.289 27.0291Z" fill="#78DAB9"/>
<path d="M177.224 37.5213H177.204C176.744 37.4887 176.431 36.0317 176.421 35.7747C176.016 32.912 175.972 30.01 176.291 27.1364C176.399 26.2355 176.676 25.3346 177.093 25.3834C177.211 25.3834 177.572 25.4289 177.452 27.0551C177.217 29.4358 177.344 31.9011 177.452 34.2851C177.497 35.1665 177.546 36.0772 177.572 36.9619V36.9976C177.563 37.131 177.491 37.5213 177.224 37.5213ZM177.054 25.7086C176.937 25.8192 176.728 26.3038 176.614 27.1559C176.298 30.0145 176.343 32.9013 176.747 35.7487C176.807 36.2453 176.962 36.7257 177.204 37.1635C177.232 37.0922 177.251 37.018 177.263 36.9423C177.237 36.0675 177.188 35.1633 177.142 34.2884C177.018 31.8946 176.888 29.4098 177.142 27.0128C177.194 26.0826 177.096 25.7899 177.054 25.7086V25.7086Z" fill="white"/>
<path d="M186.449 26.5054C183.925 22.3033 177.621 21.2105 173.829 24.4011C166.802 29.9822 171.911 41.5542 180.817 39.8727C186.749 38.9003 189.843 31.4458 186.449 26.5054Z" fill="#78DAB9"/>
<path d="M183.458 25.0678C188.373 28.9317 186.315 31.7255 184.31 36.3666C184.725 36.1699 185.123 35.9393 185.5 35.6771C184.897 36.6021 184.087 37.3739 183.132 37.931C183.899 36.1487 184.264 35.0039 185.21 32.5613C186.097 30.0407 185.956 28.6064 184.841 26.8534C184.768 26.7095 184.666 26.5818 184.542 26.4779C184.419 26.374 184.275 26.2959 184.12 26.2485C183.921 26.1639 184.019 26.5282 184.287 27.4616L183.921 27.3738C183.449 25.4484 183.139 24.8597 183.458 25.0678Z" fill="white"/>
<path d="M175.769 38.149C174.256 35.8984 172.805 33.5014 172.097 30.8572C172.231 32.5061 172.391 34.0445 173.076 35.4365C171.233 32.2362 171.54 29.3123 173.937 26.0046C172.603 27.8682 173.591 30.4409 174.096 32.3435C173.887 29.78 174.336 27.2057 175.401 24.863L175.697 24.6971C174.142 29.4196 174.217 33.5859 175.883 38.2466L175.769 38.149Z" fill="white"/>
<path d="M178.264 35.9179C178.264 36.7896 178.42 38.7508 177.83 38.8874C177.083 38.741 176.95 38.7605 176.477 37.7913C175.117 34.617 175.195 30.6816 175.642 27.2796C175.841 26.1673 176.294 24.6484 176.979 24.1345C177.24 24.0532 177.38 24.0142 177.631 23.9556C177.807 23.9199 177.921 24.1573 178.013 24.7297C178.117 25.4664 178.151 26.2113 178.114 26.9543C178.071 29.9433 178.084 32.9192 178.264 35.9179Z" fill="white"/>
<path d="M179.92 38.9816C179.686 39.0033 179.451 39.012 179.216 39.0076C179.18 37.8856 179.16 37.2513 179.131 35.9146C179.483 35.9146 179.659 35.9146 180.008 35.8918C179.989 37.2188 179.969 37.8693 179.92 38.9816Z" fill="white"/>
<path d="M180.615 38.8873C180.752 36.8244 181.16 34.7884 181.828 32.8313C182.581 30.392 182.702 28.8309 182.369 27.0974C182.262 26.5445 182.076 25.7346 181.694 25.5037C180.964 25.2923 181.075 25.5818 181.137 26.964L180.716 26.938C180.602 24.7199 180.661 23.9003 181.042 24.0109C181.263 24.0626 181.481 24.1267 181.694 24.2028C182.386 24.7004 182.907 26.1542 183.165 27.2372C184.16 30.0083 181.831 34.7665 181.535 37.3196C182.028 37.2306 182.513 37.1022 182.986 36.9358C182.868 37.3911 182.726 37.8395 182.559 38.2791C181.949 38.587 181.292 38.7925 180.615 38.8873V38.8873Z" fill="white"/>
<path d="M177.289 27.0291C177.461 24.7167 176.669 25.3346 176.454 27.1364C176.135 30.0089 176.179 32.9099 176.584 35.7715C176.584 36.2464 177.207 38.1913 177.426 36.9554C177.325 33.6965 176.966 30.3108 177.289 27.0291Z" fill="#78DAB9"/>
<path d="M177.224 37.5213H177.204C176.744 37.4887 176.431 36.0317 176.421 35.7747C176.016 32.912 175.972 30.01 176.291 27.1364C176.399 26.2355 176.676 25.3346 177.093 25.3834C177.211 25.3834 177.572 25.4289 177.452 27.0551C177.217 29.4358 177.344 31.9011 177.452 34.2851C177.497 35.1665 177.546 36.0772 177.572 36.9619V36.9976C177.563 37.131 177.491 37.5213 177.224 37.5213ZM177.054 25.7086C176.937 25.8192 176.728 26.3038 176.614 27.1559C176.298 30.0145 176.343 32.9013 176.747 35.7487C176.807 36.2453 176.962 36.7257 177.204 37.1635C177.232 37.0922 177.251 37.018 177.263 36.9423C177.237 36.0675 177.188 35.1633 177.142 34.2884C177.018 31.8946 176.888 29.4098 177.142 27.0128C177.194 26.0826 177.096 25.7899 177.054 25.7086V25.7086Z" fill="white"/>
<path d="M160.7 55.6403C165.158 50.4885 176.914 44.7415 179.454 63.1631C179.461 63.2266 179.492 63.2853 179.54 63.328C179.587 63.3706 179.649 63.3942 179.713 63.3942C179.778 63.3942 179.839 63.3706 179.887 63.328C179.935 63.2853 179.966 63.2266 179.973 63.1631C180.374 60.4961 181.43 56.2712 182.187 54.4336C183.442 51.3894 188.138 47.1028 198.88 54.8532C190.303 42.8454 168.687 42.1526 160.7 55.6403Z" fill="#78DAB9"/>
<path d="M170.708 57.7916C170.708 57.7916 169.617 58.943 172.745 59.7411C174.558 60.0082 173.997 58.974 173.404 58.2373C172.811 57.5006 171.445 56.9941 170.708 57.7916Z" fill="#78DAB9"/>
<path d="M147.842 30.4344C147.842 30.4344 149.681 41.3494 161.167 44.4489C161.167 44.4489 159.797 52.2969 160.042 55.9949C160.042 55.9949 167.401 46.7418 174.504 46.0849C174.504 46.0849 170.072 39.9736 169.691 37.775C169.691 37.775 161.936 39.2744 157.778 30.0831L155.196 31.1174L154.312 29.4131L151.449 30.8995L150.718 29.1985C150.718 29.1985 148.449 28.6488 147.842 30.4344Z" fill="#78DAB9"/>
<path d="M210.534 29.3709C210.534 29.3709 209.073 40.3412 197.696 43.8277C197.696 43.8277 199.326 51.6335 199.216 55.3282C199.216 55.3282 191.542 46.3321 184.424 45.9158C184.424 45.9158 188.644 39.6582 188.95 37.4596C188.95 37.4596 196.75 38.6922 200.592 29.3644L203.2 30.3108L204.025 28.574L206.937 29.9596L207.612 28.2358C207.612 28.2358 209.866 27.6081 210.534 29.3709Z" fill="#78DAB9"/>
<path d="M171.011 47.0117C171.011 47.0117 168.018 39.4499 167.424 40.2923C165.846 42.4877 168.354 48.1891 168.354 48.1891L171.011 47.0117Z" fill="white"/>
<path d="M188.369 46.7158C188.369 46.7158 191.102 39.0564 191.738 39.8858C193.388 42.0259 191.086 47.8086 191.086 47.8086L188.369 46.7158Z" fill="white"/>
<path opacity="0.36" d="M184.923 68.7084C185.151 72.9365 194.79 72.7739 194.872 68.5393C194.644 64.3112 185.004 64.4738 184.923 68.7084Z" fill="#F2A0A8"/>
<path d="M187.677 57.7096C187.677 57.7096 188.827 58.7984 185.747 59.7637C183.955 60.129 184.457 59.0623 185.01 58.2979C185.563 57.5335 186.908 56.9428 187.677 57.7096Z" fill="#78DAB9"/>
<path d="M150.419 51.1033C150.419 51.1033 149.072 55.9818 155.447 63.2672C155.86 61.9653 156.384 60.7009 157.012 59.4879C154.987 56.7332 151.703 56.5933 150.419 51.1033Z" fill="white"/>
<path d="M208.734 50.134C208.734 50.134 210.27 54.9671 204.042 62.4606C203.577 61.1732 203.002 59.9283 202.323 58.7398C204.276 55.92 207.619 55.6631 208.734 50.134Z" fill="white"/>
<path d="M200.201 73.112C200.748 73.6131 201.105 74.288 201.212 75.0224C201.32 75.7568 201.171 76.5058 200.791 77.1428C199.22 79.7615 196.467 83.4043 194.231 81.3048C194.231 81.3048 192.958 80.2781 195.917 78.6239C195.917 78.6239 191.268 82.6221 190.505 78.5473C189.742 74.4725 192.969 72.2913 192.969 72.2913L194.19 71.303C194.792 70.8178 195.547 70.5651 196.319 70.5909C197.091 70.6167 197.828 70.9192 198.397 71.4436L200.201 73.112Z" fill="white"/>
<path d="M201.879 75.1645C201.95 75.9725 201.765 76.7825 201.349 77.478C199.466 80.6175 197.687 82.3278 196.055 82.5592C195.647 82.6138 195.231 82.5741 194.84 82.443C194.449 82.312 194.094 82.0931 193.8 81.8031C193.53 81.5595 193.358 81.2247 193.318 80.8625C192.721 81.0684 192.074 81.0802 191.47 80.8964C190.625 80.5989 190.075 79.8507 189.866 78.6707C189.068 74.3861 192.234 72.0138 192.579 71.7716L193.801 70.7963C194.521 70.2081 195.429 69.901 196.357 69.9316C197.285 69.9622 198.172 70.3284 198.852 70.9627L200.656 72.628C201.365 73.2907 201.802 74.1956 201.879 75.1645ZM194.611 80.7126C194.613 80.754 194.631 80.7932 194.659 80.8229C194.811 80.989 195.001 81.1159 195.212 81.193C195.423 81.27 195.65 81.2949 195.872 81.2656C197.043 81.0999 198.634 79.4745 200.233 76.8044C200.534 76.296 200.651 75.6994 200.566 75.1145C200.48 74.5297 200.196 73.992 199.763 73.5915L197.959 71.9295C197.502 71.5166 196.915 71.2788 196.301 71.2583C195.687 71.2378 195.085 71.4359 194.603 71.8175L193.336 72.8359C192.485 73.4696 191.828 74.3303 191.441 75.3198C191.053 76.3094 190.951 77.3882 191.145 78.4336C191.276 79.1228 191.53 79.5363 191.904 79.6777C192.47 79.878 193.353 79.5537 194.138 79.0838C194.58 78.6884 195.067 78.3468 195.589 78.0661L196.333 79.1316C195.898 79.4965 195.435 79.8272 194.949 80.1207C194.782 80.2633 194.662 80.4525 194.603 80.6641C194.604 80.6805 194.606 80.6968 194.611 80.7126Z" fill="#78DAB9"/>
<path d="M159.601 73.4401C159.08 73.9679 158.757 74.6596 158.686 75.3985C158.615 76.1374 158.801 76.8781 159.213 77.4953C160.912 80.0355 163.844 83.5331 165.973 81.3246C165.973 81.3246 167.193 80.2324 164.155 78.7279C164.155 78.7279 168.997 82.4891 169.556 78.3845C170.115 74.2799 166.783 72.2561 166.783 72.2561L165.514 71.33C164.889 70.8754 164.122 70.6608 163.352 70.725C162.582 70.7893 161.861 71.1283 161.32 71.6804L159.601 73.4401Z" fill="white"/>
<path d="M158.028 75.577C158.06 74.6039 158.455 73.6784 159.135 72.9831L160.854 71.2331C161.501 70.5645 162.368 70.1534 163.294 70.0759C164.219 69.9984 165.142 70.2597 165.89 70.8115L167.16 71.7245C167.513 71.9492 170.8 74.1607 170.213 78.4829C170.051 79.6714 169.551 80.4433 168.723 80.7826C168.128 80.9964 167.482 81.0168 166.875 80.841C166.853 81.2048 166.699 81.5477 166.441 81.8045C166.162 82.1094 165.818 82.3462 165.434 82.4966C165.05 82.647 164.637 82.7071 164.226 82.6722C162.585 82.5226 160.709 80.9158 158.685 77.8616C158.23 77.1894 158 76.3893 158.028 75.577ZM160.063 73.897C159.645 74.3202 159.386 74.875 159.33 75.4676C159.273 76.0602 159.422 76.6541 159.752 77.149C161.483 79.7327 163.153 81.2799 164.331 81.3837C164.551 81.4025 164.773 81.3678 164.978 81.2825C165.183 81.1972 165.364 81.0638 165.506 80.8936L165.544 80.859C165.562 80.8121 165.563 80.7605 165.549 80.7124C165.48 80.5047 165.35 80.3227 165.177 80.1901C164.675 79.922 164.197 79.6137 163.745 79.2681L164.435 78.1701C164.97 78.4234 165.473 78.7392 165.934 79.1109C166.759 79.535 167.657 79.8246 168.195 79.5925C168.559 79.4422 168.792 79.0133 168.892 78.312C169.036 77.2572 168.881 76.183 168.444 75.2128C168.007 74.2426 167.306 73.4157 166.421 72.8273L166.38 72.7997L165.111 71.8737C164.61 71.5166 163.999 71.3488 163.387 71.3999C162.775 71.4511 162.2 71.7178 161.765 72.153L160.063 73.897Z" fill="#78DAB9"/>
<path d="M175.117 65.417C175.117 70.0712 171.36 70.1362 171.204 65.482C171.204 60.8246 174.964 60.7628 175.117 65.417Z" fill="#78DAB9"/>
<path d="M187.756 65.417C187.756 70.0712 184 70.1362 183.843 65.482C183.84 60.8246 187.603 60.7628 187.756 65.417Z" fill="#78DAB9"/>
<path d="M177.629 72.515C178.29 73.1765 180.936 73.1765 181.598 72.515" stroke="#78DAB9" stroke-width="0.566998" stroke-linecap="round"/>
</g>
<defs>
<clipPath id="clip0_18786_155936">
<rect width="79.3797" height="79.3797" fill="white" transform="translate(139.262 3.71924)"/>
</clipPath>
</defs>
</svg>
