<svg width="20" height="21" viewBox="0 0 20 21" fill="none" xmlns="http://www.w3.org/2000/svg">
<g clip-path="url(#clip0_10106_9200)">
<path d="M13.6348 19.2916C15.9156 19.2687 16.9213 16.7726 15.9871 14.8732C14.3702 10.8734 9.81518 10.5252 7.76445 11.5388C4.51499 13.1605 2.59571 17.5446 5.41383 18.9983C5.81288 19.2213 6.2636 19.336 6.72101 19.331L13.6348 19.2916Z" fill="white"/>
<path d="M6.70533 19.4949C6.22609 19.4966 5.75456 19.3746 5.33653 19.1409C4.38347 18.6492 3.87982 17.8076 3.88804 16.7104C3.90118 14.7543 5.53783 12.4681 7.69537 11.3921C8.78729 10.8521 10.7353 10.6284 12.6168 11.3438C13.416 11.6403 14.1433 12.1021 14.7509 12.6987C15.3585 13.2954 15.8327 14.0136 16.1423 14.806C16.6673 15.8844 16.6189 17.1594 16.015 18.1354C15.4941 18.9761 14.6511 19.4465 13.6414 19.4555L6.7267 19.4949H6.70533ZM10.1257 11.2184C9.21288 11.2184 8.40031 11.4069 7.83751 11.6863C5.81718 12.6942 4.22243 14.9027 4.21257 16.7128C4.206 17.679 4.6472 18.4189 5.48853 18.8532C5.85992 19.0616 6.27924 19.17 6.70533 19.1679H6.72012L13.634 19.1286C14.0551 19.1339 14.4702 19.0292 14.8382 18.825C15.2062 18.6207 15.5142 18.3239 15.7315 17.9641C16.2697 17.0947 16.3124 15.9098 15.84 14.9461L15.835 14.9354C15.5425 14.1838 15.0936 13.5025 14.5179 12.9364C13.9423 12.3703 13.2529 11.9322 12.4952 11.6511C11.7382 11.3649 10.9353 11.218 10.1257 11.2176V11.2184Z" fill="#4BDCAB"/>
<path d="M16.3846 15.6656L16.1381 15.4492C17.8495 13.5088 17.5423 12.2263 17.4141 11.8904C15.669 12.0198 15.2368 13.1351 15.1834 13.2965L15.1736 13.3277L14.8597 13.231C14.8597 13.2269 14.8646 13.2138 14.8704 13.1941C14.9649 12.827 14.7356 11.4134 14.5639 10.5874L14.5335 10.4399L14.6781 10.3973C17.35 9.6 17.7575 7.16787 17.7937 6.91056C17.7715 6.81387 17.5357 6.76716 17.3484 6.75896L17.1323 7.31045L16.3928 6.93105L16.1817 7.38338L15.5523 7.12362C14.8876 8.87315 13.1697 9.08292 12.6586 9.10669C12.5009 9.6803 11.6891 10.9627 11.5125 11.2373L11.2356 11.0603C11.7023 10.3342 12.3579 9.19847 12.3563 8.94526V8.77645L12.5288 8.78382C12.611 8.78382 14.6576 8.84283 15.2984 6.85812L15.3535 6.68931L16.0174 6.96301L16.2466 6.48199L16.9597 6.8491L17.1241 6.43282L17.2317 6.42872C17.3196 6.42872 18.096 6.40578 18.1256 6.89909V6.91384V6.92859C18.1256 6.95645 17.7616 9.72865 14.9213 10.6636C15.0518 11.3002 15.1481 11.9433 15.2097 12.5902C15.5605 12.1436 16.2408 11.6158 17.5151 11.5536L17.6137 11.5487L17.6639 11.6306C17.6967 11.6994 18.5528 13.2064 16.3846 15.6656Z" fill="#4BDCAB"/>
<path d="M4.03595 15.927C1.78474 13.5432 2.58909 12.0067 2.62524 11.9428L2.6729 11.8609H2.77149C4.04663 11.8797 4.74335 12.3845 5.11061 12.8188C5.15111 12.1692 5.22653 11.5223 5.33655 10.8808C2.46092 10.0425 2.00411 7.28422 2 7.25636V7.24161V7.22686C2.01068 6.73273 2.78957 6.72781 2.87583 6.72781H2.98264L3.16011 7.13754L3.85766 6.74666L4.10414 7.21948L4.76143 6.92202L4.8214 7.08591C5.53045 9.04768 7.57051 8.92312 7.65595 8.91657L7.82767 8.90427L7.8326 9.07472C7.83999 9.32793 8.49564 10.3719 8.9582 11.0324L8.68872 11.22C8.51289 10.9693 7.70279 9.80075 7.53846 9.24599C7.0266 9.23943 5.30287 9.08701 4.58067 7.36125L3.95954 7.64314L3.72866 7.19654L3.00729 7.60053L2.76738 7.05559C2.56773 7.07116 2.3459 7.13098 2.32782 7.21948C2.37219 7.47515 2.86269 9.89171 5.56085 10.5981L5.70628 10.6358L5.68081 10.7841C5.53785 11.6158 5.35709 13.0359 5.4639 13.3998L5.47623 13.4367L5.16566 13.5432C5.16121 13.5319 5.15737 13.5204 5.15416 13.5088C5.09007 13.3326 4.62586 12.2525 2.87666 12.1829C2.76163 12.5213 2.49707 13.8136 4.27339 15.6967L4.03595 15.927Z" fill="#4BDCAB"/>
<path d="M2.78467 12.16C2.78467 12.16 2.8126 13.3334 3.82154 14.0283C4.66615 14.6101 4.54784 14.8478 4.54784 14.8478L5.31112 13.6186C5.31112 13.6186 4.84362 12.1436 2.78467 12.16Z" fill="#4BDCAB"/>
<path d="M17.4963 11.8264C17.4963 11.8264 17.5078 12.9999 16.5243 13.7284C15.7027 14.3389 15.8259 14.5716 15.8259 14.5716L15.0208 13.3719C15.0208 13.3719 15.4422 11.8797 17.4963 11.8264Z" fill="#4BDCAB"/>
<path d="M15.7002 14.6208C15.6279 14.4872 15.6279 14.1734 16.4454 13.5686C16.7131 13.3665 16.9291 13.1043 17.0762 12.8033C17.2232 12.5023 17.297 12.171 17.2917 11.8363L17.6203 11.8158C17.6203 11.8666 17.6861 13.0589 16.6418 13.8316C16.0108 14.2987 16.0034 14.5003 16.0034 14.5028C16.0016 14.4895 15.9971 14.4766 15.9903 14.4651L15.7002 14.6208Z" fill="#4BDCAB"/>
<path opacity="0.36" d="M8.92112 16.9185C8.89976 17.9838 6.47109 18.0264 6.41357 16.9611C6.43494 15.8934 8.86361 15.8532 8.92112 16.9185Z" fill="#F2A0A8"/>
<path d="M8.01509 7.14822C6.81308 7.16788 7.26496 5.18154 7.20416 4.61693C7.37949 4.75537 7.50797 4.94415 7.57224 5.15777C7.6618 5.49538 7.44243 3.49347 8.21967 3.27304C8.36674 3.23042 7.94443 3.50494 8.17777 4.87342C8.33581 4.6989 8.44095 4.48322 8.48094 4.25146C8.757 4.4932 8.91968 5.09713 8.87531 5.70189C8.87531 5.69861 8.25828 6.52134 8.01509 7.14822Z" fill="white"/>
<path d="M7.99684 7.27112C7.88329 7.27578 7.77002 7.25668 7.66432 7.21505C7.55861 7.17341 7.46282 7.11017 7.3831 7.02939C6.98462 6.61474 7.03391 5.76825 7.07007 5.15039C7.08514 4.97736 7.08871 4.80353 7.08075 4.63004L7.05117 4.35142L7.27629 4.51531C7.35657 4.57697 7.42839 4.64888 7.48991 4.72919C7.51866 4.16541 7.62958 3.30908 8.18499 3.14847C8.21122 3.13806 8.23999 3.13578 8.26754 3.14192C8.29509 3.14806 8.32015 3.16234 8.33945 3.18289C8.36029 3.21019 8.37225 3.2432 8.37372 3.27748C8.37519 3.31176 8.3661 3.34566 8.34767 3.37464C8.30248 3.49182 8.17431 3.82124 8.25565 4.54072C8.30775 4.44395 8.34251 4.33884 8.35835 4.23014L8.38628 3.99988L8.56128 4.15312C8.8661 4.41944 9.04521 5.05451 8.99756 5.70516V5.74121L8.9762 5.76989C8.96962 5.77809 8.36656 6.58934 8.13241 7.19L8.10201 7.26703H8.01985L7.99684 7.27112ZM7.32887 4.92504C7.32887 4.99879 7.32066 5.07746 7.31573 5.16104C7.28286 5.73466 7.23357 6.51887 7.56221 6.85566C7.66039 6.95571 7.79331 7.01437 7.93358 7.01955C8.17102 6.45987 8.64591 5.79939 8.75518 5.65107C8.78148 5.21348 8.69521 4.78 8.5391 4.51285C8.47606 4.67415 8.3842 4.82269 8.26797 4.95126L8.0979 5.12826L8.05682 4.88734C7.94097 4.20884 7.98123 3.7901 8.03874 3.53935C7.75857 3.89499 7.73475 4.7087 7.72653 5.01436C7.72078 5.21922 7.71831 5.30444 7.60329 5.31755C7.55153 5.32329 7.48498 5.30526 7.45376 5.1889C7.42787 5.09436 7.3856 5.00506 7.32887 4.92504Z" fill="#4BDCAB"/>
<path d="M12.156 7.69151C12.1954 8.19875 13.0203 5.40688 12.5668 4.2072C11.9662 5.37902 12.1067 4.66691 12.1067 4.66691C12.2102 3.58032 11.9153 3.39677 11.6959 2.81332C11.4428 2.13891 11.6261 1.5194 11.2522 0.954803C11.2851 1.41697 11.0164 3.22222 10.8957 2.85019C10.7749 2.47816 10.5514 2.36999 10.5514 2.36999C10.4577 3.15831 10.2564 3.4697 10.2564 3.4697C9.43483 4.544 9.94587 5.38721 9.94587 5.38721C9.94587 5.38721 11.9646 5.24627 12.156 7.69151Z" fill="white"/>
<path d="M12.1764 7.87505C12.1604 7.87483 12.1446 7.87178 12.1296 7.86604C12.0988 7.85132 12.0729 7.828 12.0552 7.79891C12.0374 7.76982 12.0284 7.73621 12.0294 7.70215C11.8536 5.41179 10.0296 5.50602 9.95153 5.51094L9.87677 5.51586L9.83815 5.45194C9.81515 5.41424 9.29507 4.52678 10.152 3.40331C10.1717 3.37053 10.3426 3.05996 10.4264 2.35851L10.4461 2.18643L10.6022 2.26182C10.7414 2.34342 10.8532 2.46433 10.9235 2.60927C11.0237 2.19954 11.1494 1.29814 11.1264 0.963809L11.0944 0.5L11.3524 0.886781C11.5832 1.23341 11.6194 1.60134 11.6539 1.9578C11.6697 2.23445 11.7222 2.50779 11.81 2.7707C11.8583 2.89532 11.9131 3.01732 11.9743 3.13617C12.1387 3.47133 12.2923 3.79173 12.2381 4.5489C12.2923 4.45877 12.3638 4.33093 12.4558 4.15065L12.5823 3.90482L12.6809 4.16458C13.0835 5.22987 12.5117 7.60136 12.2841 7.82998C12.2701 7.84431 12.2533 7.85568 12.2349 7.86343C12.2164 7.87117 12.1965 7.87512 12.1764 7.87505ZM10.0197 5.26347C10.396 5.27002 11.9234 5.4167 12.2381 7.33258C12.4262 6.71635 12.6908 5.3913 12.5306 4.53907C12.289 4.97502 12.1912 5.03566 12.0779 4.99632C11.9768 4.96109 11.9464 4.848 11.9842 4.6497C12.0581 3.86876 11.9242 3.59261 11.7541 3.24352C11.6975 3.12634 11.6383 3.00506 11.5824 2.85592C11.4868 2.57339 11.4299 2.27928 11.4132 1.98157C11.4006 1.82624 11.3798 1.67169 11.3507 1.51858C11.3318 1.70869 11.3055 1.91191 11.2776 2.09219C11.1396 2.98539 11.0402 3.00506 10.9605 3.02063C10.9301 3.02637 10.8274 3.03456 10.7797 2.88788C10.7495 2.79045 10.7031 2.69876 10.6425 2.61664C10.539 3.25581 10.3697 3.52377 10.3623 3.53606L10.3566 3.54426C9.70752 4.38747 9.92771 5.0627 10.0197 5.26347Z" fill="#4BDCAB"/>
<path d="M9.58092 6.373C9.62447 5.79037 9.42482 5.94607 9.37059 6.40004C9.2903 7.12377 9.30134 7.85469 9.40345 8.57568C9.40345 8.69532 9.56038 9.18536 9.61543 8.87396C9.58996 8.05288 9.49958 7.19983 9.58092 6.373Z" fill="#4BDCAB"/>
<path d="M9.56453 9.01655H9.5596C9.44375 9.00836 9.36488 8.64124 9.36241 8.57651C9.26033 7.85524 9.24929 7.12405 9.32955 6.40005C9.35666 6.17306 9.4265 5.94607 9.53166 5.95836C9.56124 5.95836 9.65244 5.96984 9.62204 6.37956C9.56289 6.9794 9.59493 7.60054 9.62204 8.2012C9.63354 8.42327 9.64587 8.65272 9.65244 8.87561V8.88462C9.64998 8.91822 9.6319 9.01655 9.56453 9.01655ZM9.52181 6.04031C9.49223 6.06817 9.43964 6.19027 9.41089 6.40496C9.33142 7.1252 9.34273 7.85252 9.44457 8.56995C9.45949 8.69506 9.49855 8.81611 9.5596 8.92641C9.56659 8.90844 9.57155 8.88975 9.57439 8.87069C9.56782 8.65026 9.55549 8.42245 9.54399 8.20202C9.51277 7.5989 9.4799 6.97284 9.54399 6.36891C9.55713 6.13455 9.53249 6.06079 9.52181 6.04031Z" fill="white"/>
<path d="M9.58092 6.373C9.62447 5.79037 9.42482 5.94607 9.37059 6.40004C9.2903 7.12377 9.30134 7.85469 9.40345 8.57568C9.40345 8.69532 9.56038 9.18536 9.61543 8.87396C9.58996 8.05288 9.49958 7.19983 9.58092 6.373Z" fill="#4BDCAB"/>
<path d="M9.56453 9.01655H9.5596C9.44375 9.00836 9.36488 8.64124 9.36241 8.57651C9.26033 7.85524 9.24929 7.12405 9.32955 6.40005C9.35666 6.17306 9.4265 5.94607 9.53166 5.95836C9.56124 5.95836 9.65244 5.96984 9.62204 6.37956C9.56289 6.9794 9.59493 7.60054 9.62204 8.2012C9.63354 8.42327 9.64587 8.65272 9.65244 8.87561V8.88462C9.64998 8.91822 9.6319 9.01655 9.56453 9.01655ZM9.52181 6.04031C9.49223 6.06817 9.43964 6.19027 9.41089 6.40496C9.33142 7.1252 9.34273 7.85252 9.44457 8.56995C9.45949 8.69506 9.49855 8.81611 9.5596 8.92641C9.56659 8.90844 9.57155 8.88975 9.57439 8.87069C9.56782 8.65026 9.55549 8.42245 9.54399 8.20202C9.51277 7.5989 9.4799 6.97284 9.54399 6.36891C9.55713 6.13455 9.53249 6.06079 9.52181 6.04031Z" fill="white"/>
<path d="M9.58092 6.373C9.62447 5.79037 9.42482 5.94607 9.37059 6.40004C9.2903 7.12377 9.30134 7.85469 9.40345 8.57568C9.40345 8.69532 9.56038 9.18536 9.61543 8.87396C9.58996 8.05288 9.49958 7.19983 9.58092 6.373Z" fill="#4BDCAB"/>
<path d="M9.56453 9.01655H9.5596C9.44375 9.00836 9.36488 8.64124 9.36241 8.57651C9.26033 7.85524 9.24929 7.12405 9.32955 6.40005C9.35666 6.17306 9.4265 5.94607 9.53166 5.95836C9.56124 5.95836 9.65244 5.96984 9.62204 6.37956C9.56289 6.9794 9.59493 7.60054 9.62204 8.2012C9.63354 8.42327 9.64587 8.65272 9.65244 8.87561V8.88462C9.64998 8.91822 9.6319 9.01655 9.56453 9.01655ZM9.52181 6.04031C9.49223 6.06817 9.43964 6.19027 9.41089 6.40496C9.33142 7.1252 9.34273 7.85252 9.44457 8.56995C9.45949 8.69506 9.49855 8.81611 9.5596 8.92641C9.56659 8.90844 9.57155 8.88975 9.57439 8.87069C9.56782 8.65026 9.55549 8.42245 9.54399 8.20202C9.51277 7.5989 9.4799 6.97284 9.54399 6.36891C9.55713 6.13455 9.53249 6.06079 9.52181 6.04031Z" fill="white"/>
<path d="M9.58092 6.373C9.62447 5.79037 9.42482 5.94607 9.37059 6.40004C9.2903 7.12377 9.30134 7.85469 9.40345 8.57568C9.40345 8.69532 9.56038 9.18536 9.61543 8.87396C9.58996 8.05288 9.49958 7.19983 9.58092 6.373Z" fill="#4BDCAB"/>
<path d="M9.56453 9.01655H9.5596C9.44375 9.00836 9.36488 8.64124 9.36241 8.57651C9.26033 7.85524 9.24929 7.12405 9.32955 6.40005C9.35666 6.17306 9.4265 5.94607 9.53166 5.95836C9.56124 5.95836 9.65244 5.96984 9.62204 6.37956C9.56289 6.9794 9.59493 7.60054 9.62204 8.2012C9.63354 8.42327 9.64587 8.65272 9.65244 8.87561V8.88462C9.64998 8.91822 9.6319 9.01655 9.56453 9.01655ZM9.52181 6.04031C9.49223 6.06817 9.43964 6.19027 9.41089 6.40496C9.33142 7.1252 9.34273 7.85252 9.44457 8.56995C9.45949 8.69506 9.49855 8.81611 9.5596 8.92641C9.56659 8.90844 9.57155 8.88975 9.57439 8.87069C9.56782 8.65026 9.55549 8.42245 9.54399 8.20202C9.51277 7.5989 9.4799 6.97284 9.54399 6.36891C9.55713 6.13455 9.53249 6.06079 9.52181 6.04031Z" fill="white"/>
<path d="M9.58092 6.373C9.62447 5.79037 9.42482 5.94607 9.37059 6.40004C9.2903 7.12377 9.30134 7.85469 9.40345 8.57568C9.40345 8.69532 9.56038 9.18536 9.61543 8.87396C9.58996 8.05288 9.49958 7.19983 9.58092 6.373Z" fill="#4BDCAB"/>
<path d="M9.56453 9.01655H9.5596C9.44375 9.00836 9.36488 8.64124 9.36241 8.57651C9.26033 7.85524 9.24929 7.12405 9.32955 6.40005C9.35666 6.17306 9.4265 5.94607 9.53166 5.95836C9.56124 5.95836 9.65244 5.96984 9.62204 6.37956C9.56289 6.9794 9.59493 7.60054 9.62204 8.2012C9.63354 8.42327 9.64587 8.65272 9.65244 8.87561V8.88462C9.64998 8.91822 9.6319 9.01655 9.56453 9.01655ZM9.52181 6.04031C9.49223 6.06817 9.43964 6.19027 9.41089 6.40496C9.33142 7.1252 9.34273 7.85252 9.44457 8.56995C9.45949 8.69506 9.49855 8.81611 9.5596 8.92641C9.56659 8.90844 9.57155 8.88975 9.57439 8.87069C9.56782 8.65026 9.55549 8.42245 9.54399 8.20202C9.51277 7.5989 9.4799 6.97284 9.54399 6.36891C9.55713 6.13455 9.53249 6.06079 9.52181 6.04031Z" fill="white"/>
<path d="M9.58092 6.373C9.62447 5.79037 9.42482 5.94607 9.37059 6.40004C9.2903 7.12377 9.30134 7.85469 9.40345 8.57568C9.40345 8.69532 9.56038 9.18536 9.61543 8.87396C9.58996 8.05288 9.49958 7.19983 9.58092 6.373Z" fill="#4BDCAB"/>
<path d="M9.56453 9.01655H9.5596C9.44375 9.00836 9.36488 8.64124 9.36241 8.57651C9.26033 7.85524 9.24929 7.12405 9.32955 6.40005C9.35666 6.17306 9.4265 5.94607 9.53166 5.95836C9.56124 5.95836 9.65244 5.96984 9.62204 6.37956C9.56289 6.9794 9.59493 7.60054 9.62204 8.2012C9.63354 8.42327 9.64587 8.65272 9.65244 8.87561V8.88462C9.64998 8.91822 9.6319 9.01655 9.56453 9.01655ZM9.52181 6.04031C9.49223 6.06817 9.43964 6.19027 9.41089 6.40496C9.33142 7.1252 9.34273 7.85252 9.44457 8.56995C9.45949 8.69506 9.49855 8.81611 9.5596 8.92641C9.56659 8.90844 9.57155 8.88975 9.57439 8.87069C9.56782 8.65026 9.55549 8.42245 9.54399 8.20202C9.51277 7.5989 9.4799 6.97284 9.54399 6.36891C9.55713 6.13455 9.53249 6.06079 9.52181 6.04031Z" fill="white"/>
<path d="M9.58092 6.373C9.62447 5.79037 9.42482 5.94607 9.37059 6.40004C9.2903 7.12377 9.30134 7.85469 9.40345 8.57568C9.40345 8.69532 9.56038 9.18536 9.61543 8.87396C9.58996 8.05288 9.49958 7.19983 9.58092 6.373Z" fill="#4BDCAB"/>
<path d="M9.56453 9.01655H9.5596C9.44375 9.00836 9.36488 8.64124 9.36241 8.57651C9.26033 7.85524 9.24929 7.12405 9.32955 6.40005C9.35666 6.17306 9.4265 5.94607 9.53166 5.95836C9.56124 5.95836 9.65244 5.96984 9.62204 6.37956C9.56289 6.9794 9.59493 7.60054 9.62204 8.2012C9.63354 8.42327 9.64587 8.65272 9.65244 8.87561V8.88462C9.64998 8.91822 9.6319 9.01655 9.56453 9.01655ZM9.52181 6.04031C9.49223 6.06817 9.43964 6.19027 9.41089 6.40496C9.33142 7.1252 9.34273 7.85252 9.44457 8.56995C9.45949 8.69506 9.49855 8.81611 9.5596 8.92641C9.56659 8.90844 9.57155 8.88975 9.57439 8.87069C9.56782 8.65026 9.55549 8.42245 9.54399 8.20202C9.51277 7.5989 9.4799 6.97284 9.54399 6.36891C9.55713 6.13455 9.53249 6.06079 9.52181 6.04031Z" fill="white"/>
<path d="M9.58092 6.373C9.62447 5.79037 9.42482 5.94607 9.37059 6.40004C9.2903 7.12377 9.30134 7.85469 9.40345 8.57568C9.40345 8.69532 9.56038 9.18536 9.61543 8.87396C9.58996 8.05288 9.49958 7.19983 9.58092 6.373Z" fill="#4BDCAB"/>
<path d="M9.56453 9.01655H9.5596C9.44375 9.00836 9.36488 8.64124 9.36241 8.57651C9.26033 7.85524 9.24929 7.12405 9.32955 6.40005C9.35666 6.17306 9.4265 5.94607 9.53166 5.95836C9.56124 5.95836 9.65244 5.96984 9.62204 6.37956C9.56289 6.9794 9.59493 7.60054 9.62204 8.2012C9.63354 8.42327 9.64587 8.65272 9.65244 8.87561V8.88462C9.64998 8.91822 9.6319 9.01655 9.56453 9.01655ZM9.52181 6.04031C9.49223 6.06817 9.43964 6.19027 9.41089 6.40496C9.33142 7.1252 9.34273 7.85252 9.44457 8.56995C9.45949 8.69506 9.49855 8.81611 9.5596 8.92641C9.56659 8.90844 9.57155 8.88975 9.57439 8.87069C9.56782 8.65026 9.55549 8.42245 9.54399 8.20202C9.51277 7.5989 9.4799 6.97284 9.54399 6.36891C9.55713 6.13455 9.53249 6.06079 9.52181 6.04031Z" fill="white"/>
<path d="M9.58092 6.373C9.62447 5.79037 9.42482 5.94607 9.37059 6.40004C9.2903 7.12377 9.30134 7.85469 9.40345 8.57568C9.40345 8.69532 9.56038 9.18536 9.61543 8.87396C9.58996 8.05288 9.49958 7.19983 9.58092 6.373Z" fill="#4BDCAB"/>
<path d="M9.56453 9.01655H9.5596C9.44375 9.00836 9.36488 8.64124 9.36241 8.57651C9.26033 7.85524 9.24929 7.12405 9.32955 6.40005C9.35666 6.17306 9.4265 5.94607 9.53166 5.95836C9.56124 5.95836 9.65244 5.96984 9.62204 6.37956C9.56289 6.9794 9.59493 7.60054 9.62204 8.2012C9.63354 8.42327 9.64587 8.65272 9.65244 8.87561V8.88462C9.64998 8.91822 9.6319 9.01655 9.56453 9.01655ZM9.52181 6.04031C9.49223 6.06817 9.43964 6.19027 9.41089 6.40496C9.33142 7.1252 9.34273 7.85252 9.44457 8.56995C9.45949 8.69506 9.49855 8.81611 9.5596 8.92641C9.56659 8.90844 9.57155 8.88975 9.57439 8.87069C9.56782 8.65026 9.55549 8.42245 9.54399 8.20202C9.51277 7.5989 9.4799 6.97284 9.54399 6.36891C9.55713 6.13455 9.53249 6.06079 9.52181 6.04031Z" fill="white"/>
<path d="M9.58092 6.373C9.62447 5.79037 9.42482 5.94607 9.37059 6.40004C9.2903 7.12377 9.30134 7.85469 9.40345 8.57568C9.40345 8.69532 9.56038 9.18536 9.61543 8.87396C9.58996 8.05288 9.49958 7.19983 9.58092 6.373Z" fill="#4BDCAB"/>
<path d="M9.56453 9.01655H9.5596C9.44375 9.00836 9.36488 8.64124 9.36241 8.57651C9.26033 7.85524 9.24929 7.12405 9.32955 6.40005C9.35666 6.17306 9.4265 5.94607 9.53166 5.95836C9.56124 5.95836 9.65244 5.96984 9.62204 6.37956C9.56289 6.9794 9.59493 7.60054 9.62204 8.2012C9.63354 8.42327 9.64587 8.65272 9.65244 8.87561V8.88462C9.64998 8.91822 9.6319 9.01655 9.56453 9.01655ZM9.52181 6.04031C9.49223 6.06817 9.43964 6.19027 9.41089 6.40496C9.33142 7.1252 9.34273 7.85252 9.44457 8.56995C9.45949 8.69506 9.49855 8.81611 9.5596 8.92641C9.56659 8.90844 9.57155 8.88975 9.57439 8.87069C9.56782 8.65026 9.55549 8.42245 9.54399 8.20202C9.51277 7.5989 9.4799 6.97284 9.54399 6.36891C9.55713 6.13455 9.53249 6.06079 9.52181 6.04031Z" fill="white"/>
<path d="M9.58092 6.373C9.62447 5.79037 9.42482 5.94607 9.37059 6.40004C9.2903 7.12377 9.30134 7.85469 9.40345 8.57568C9.40345 8.69532 9.56038 9.18536 9.61543 8.87396C9.58996 8.05288 9.49958 7.19983 9.58092 6.373Z" fill="#4BDCAB"/>
<path d="M9.56453 9.01655H9.5596C9.44375 9.00836 9.36488 8.64124 9.36241 8.57651C9.26033 7.85524 9.24929 7.12405 9.32955 6.40005C9.35666 6.17306 9.4265 5.94607 9.53166 5.95836C9.56124 5.95836 9.65244 5.96984 9.62204 6.37956C9.56289 6.9794 9.59493 7.60054 9.62204 8.2012C9.63354 8.42327 9.64587 8.65272 9.65244 8.87561V8.88462C9.64998 8.91822 9.6319 9.01655 9.56453 9.01655ZM9.52181 6.04031C9.49223 6.06817 9.43964 6.19027 9.41089 6.40496C9.33142 7.1252 9.34273 7.85252 9.44457 8.56995C9.45949 8.69506 9.49855 8.81611 9.5596 8.92641C9.56659 8.90844 9.57155 8.88975 9.57439 8.87069C9.56782 8.65026 9.55549 8.42245 9.54399 8.20202C9.51277 7.5989 9.4799 6.97284 9.54399 6.36891C9.55713 6.13455 9.53249 6.06079 9.52181 6.04031Z" fill="white"/>
<path d="M9.58092 6.373C9.62447 5.79037 9.42482 5.94607 9.37059 6.40004C9.2903 7.12377 9.30134 7.85469 9.40345 8.57568C9.40345 8.69532 9.56038 9.18536 9.61543 8.87396C9.58996 8.05288 9.49958 7.19983 9.58092 6.373Z" fill="#4BDCAB"/>
<path d="M9.56453 9.01655H9.5596C9.44375 9.00836 9.36488 8.64124 9.36241 8.57651C9.26033 7.85524 9.24929 7.12405 9.32955 6.40005C9.35666 6.17306 9.4265 5.94607 9.53166 5.95836C9.56124 5.95836 9.65244 5.96984 9.62204 6.37956C9.56289 6.9794 9.59493 7.60054 9.62204 8.2012C9.63354 8.42327 9.64587 8.65272 9.65244 8.87561V8.88462C9.64998 8.91822 9.6319 9.01655 9.56453 9.01655ZM9.52181 6.04031C9.49223 6.06817 9.43964 6.19027 9.41089 6.40496C9.33142 7.1252 9.34273 7.85252 9.44457 8.56995C9.45949 8.69506 9.49855 8.81611 9.5596 8.92641C9.56659 8.90844 9.57155 8.88975 9.57439 8.87069C9.56782 8.65026 9.55549 8.42245 9.54399 8.20202C9.51277 7.5989 9.4799 6.97284 9.54399 6.36891C9.55713 6.13455 9.53249 6.06079 9.52181 6.04031Z" fill="white"/>
<path d="M9.58092 6.373C9.62447 5.79037 9.42482 5.94607 9.37059 6.40004C9.2903 7.12377 9.30134 7.85469 9.40345 8.57568C9.40345 8.69532 9.56038 9.18536 9.61543 8.87396C9.58996 8.05288 9.49958 7.19983 9.58092 6.373Z" fill="#4BDCAB"/>
<path d="M9.56453 9.01655H9.5596C9.44375 9.00836 9.36488 8.64124 9.36241 8.57651C9.26033 7.85524 9.24929 7.12405 9.32955 6.40005C9.35666 6.17306 9.4265 5.94607 9.53166 5.95836C9.56124 5.95836 9.65244 5.96984 9.62204 6.37956C9.56289 6.9794 9.59493 7.60054 9.62204 8.2012C9.63354 8.42327 9.64587 8.65272 9.65244 8.87561V8.88462C9.64998 8.91822 9.6319 9.01655 9.56453 9.01655ZM9.52181 6.04031C9.49223 6.06817 9.43964 6.19027 9.41089 6.40496C9.33142 7.1252 9.34273 7.85252 9.44457 8.56995C9.45949 8.69506 9.49855 8.81611 9.5596 8.92641C9.56659 8.90844 9.57155 8.88975 9.57439 8.87069C9.56782 8.65026 9.55549 8.42245 9.54399 8.20202C9.51277 7.5989 9.4799 6.97284 9.54399 6.36891C9.55713 6.13455 9.53249 6.06079 9.52181 6.04031Z" fill="white"/>
<path d="M9.58092 6.373C9.62447 5.79037 9.42482 5.94607 9.37059 6.40004C9.2903 7.12377 9.30134 7.85469 9.40345 8.57568C9.40345 8.69532 9.56038 9.18536 9.61543 8.87396C9.58996 8.05288 9.49958 7.19983 9.58092 6.373Z" fill="#4BDCAB"/>
<path d="M9.56453 9.01655H9.5596C9.44375 9.00836 9.36488 8.64124 9.36241 8.57651C9.26033 7.85524 9.24929 7.12405 9.32955 6.40005C9.35666 6.17306 9.4265 5.94607 9.53166 5.95836C9.56124 5.95836 9.65244 5.96984 9.62204 6.37956C9.56289 6.9794 9.59493 7.60054 9.62204 8.2012C9.63354 8.42327 9.64587 8.65272 9.65244 8.87561V8.88462C9.64998 8.91822 9.6319 9.01655 9.56453 9.01655ZM9.52181 6.04031C9.49223 6.06817 9.43964 6.19027 9.41089 6.40496C9.33142 7.1252 9.34273 7.85252 9.44457 8.56995C9.45949 8.69506 9.49855 8.81611 9.5596 8.92641C9.56659 8.90844 9.57155 8.88975 9.57439 8.87069C9.56782 8.65026 9.55549 8.42245 9.54399 8.20202C9.51277 7.5989 9.4799 6.97284 9.54399 6.36891C9.55713 6.13455 9.53249 6.06079 9.52181 6.04031Z" fill="white"/>
<path d="M9.58092 6.373C9.62447 5.79037 9.42482 5.94607 9.37059 6.40004C9.2903 7.12377 9.30134 7.85469 9.40345 8.57568C9.40345 8.69532 9.56038 9.18536 9.61543 8.87396C9.58996 8.05288 9.49958 7.19983 9.58092 6.373Z" fill="#4BDCAB"/>
<path d="M9.56453 9.01655H9.5596C9.44375 9.00836 9.36488 8.64124 9.36241 8.57651C9.26033 7.85524 9.24929 7.12405 9.32955 6.40005C9.35666 6.17306 9.4265 5.94607 9.53166 5.95836C9.56124 5.95836 9.65244 5.96984 9.62204 6.37956C9.56289 6.9794 9.59493 7.60054 9.62204 8.2012C9.63354 8.42327 9.64587 8.65272 9.65244 8.87561V8.88462C9.64998 8.91822 9.6319 9.01655 9.56453 9.01655ZM9.52181 6.04031C9.49223 6.06817 9.43964 6.19027 9.41089 6.40496C9.33142 7.1252 9.34273 7.85252 9.44457 8.56995C9.45949 8.69506 9.49855 8.81611 9.5596 8.92641C9.56659 8.90844 9.57155 8.88975 9.57439 8.87069C9.56782 8.65026 9.55549 8.42245 9.54399 8.20202C9.51277 7.5989 9.4799 6.97284 9.54399 6.36891C9.55713 6.13455 9.53249 6.06079 9.52181 6.04031Z" fill="white"/>
<path d="M9.58092 6.373C9.62447 5.79037 9.42482 5.94607 9.37059 6.40004C9.2903 7.12377 9.30134 7.85469 9.40345 8.57568C9.40345 8.69532 9.56038 9.18536 9.61543 8.87396C9.58996 8.05288 9.49958 7.19983 9.58092 6.373Z" fill="#4BDCAB"/>
<path d="M9.56453 9.01655H9.5596C9.44375 9.00836 9.36488 8.64124 9.36241 8.57651C9.26033 7.85524 9.24929 7.12405 9.32955 6.40005C9.35666 6.17306 9.4265 5.94607 9.53166 5.95836C9.56124 5.95836 9.65244 5.96984 9.62204 6.37956C9.56289 6.9794 9.59493 7.60054 9.62204 8.2012C9.63354 8.42327 9.64587 8.65272 9.65244 8.87561V8.88462C9.64998 8.91822 9.6319 9.01655 9.56453 9.01655ZM9.52181 6.04031C9.49223 6.06817 9.43964 6.19027 9.41089 6.40496C9.33142 7.1252 9.34273 7.85252 9.44457 8.56995C9.45949 8.69506 9.49855 8.81611 9.5596 8.92641C9.56659 8.90844 9.57155 8.88975 9.57439 8.87069C9.56782 8.65026 9.55549 8.42245 9.54399 8.20202C9.51277 7.5989 9.4799 6.97284 9.54399 6.36891C9.55713 6.13455 9.53249 6.06079 9.52181 6.04031Z" fill="white"/>
<path d="M9.58092 6.373C9.62447 5.79037 9.42482 5.94607 9.37059 6.40004C9.2903 7.12377 9.30134 7.85469 9.40345 8.57568C9.40345 8.69532 9.56038 9.18536 9.61543 8.87396C9.58996 8.05288 9.49958 7.19983 9.58092 6.373Z" fill="#4BDCAB"/>
<path d="M9.56453 9.01655H9.5596C9.44375 9.00836 9.36488 8.64124 9.36241 8.57651C9.26033 7.85524 9.24929 7.12405 9.32955 6.40005C9.35666 6.17306 9.4265 5.94607 9.53166 5.95836C9.56124 5.95836 9.65244 5.96984 9.62204 6.37956C9.56289 6.9794 9.59493 7.60054 9.62204 8.2012C9.63354 8.42327 9.64587 8.65272 9.65244 8.87561V8.88462C9.64998 8.91822 9.6319 9.01655 9.56453 9.01655ZM9.52181 6.04031C9.49223 6.06817 9.43964 6.19027 9.41089 6.40496C9.33142 7.1252 9.34273 7.85252 9.44457 8.56995C9.45949 8.69506 9.49855 8.81611 9.5596 8.92641C9.56659 8.90844 9.57155 8.88975 9.57439 8.87069C9.56782 8.65026 9.55549 8.42245 9.54399 8.20202C9.51277 7.5989 9.4799 6.97284 9.54399 6.36891C9.55713 6.13455 9.53249 6.06079 9.52181 6.04031Z" fill="white"/>
<path d="M9.58092 6.373C9.62447 5.79037 9.42482 5.94607 9.37059 6.40004C9.2903 7.12377 9.30134 7.85469 9.40345 8.57568C9.40345 8.69532 9.56038 9.18536 9.61543 8.87396C9.58996 8.05288 9.49958 7.19983 9.58092 6.373Z" fill="#4BDCAB"/>
<path d="M9.56453 9.01655H9.5596C9.44375 9.00836 9.36488 8.64124 9.36241 8.57651C9.26033 7.85524 9.24929 7.12405 9.32955 6.40005C9.35666 6.17306 9.4265 5.94607 9.53166 5.95836C9.56124 5.95836 9.65244 5.96984 9.62204 6.37956C9.56289 6.9794 9.59493 7.60054 9.62204 8.2012C9.63354 8.42327 9.64587 8.65272 9.65244 8.87561V8.88462C9.64998 8.91822 9.6319 9.01655 9.56453 9.01655ZM9.52181 6.04031C9.49223 6.06817 9.43964 6.19027 9.41089 6.40496C9.33142 7.1252 9.34273 7.85252 9.44457 8.56995C9.45949 8.69506 9.49855 8.81611 9.5596 8.92641C9.56659 8.90844 9.57155 8.88975 9.57439 8.87069C9.56782 8.65026 9.55549 8.42245 9.54399 8.20202C9.51277 7.5989 9.4799 6.97284 9.54399 6.36891C9.55713 6.13455 9.53249 6.06079 9.52181 6.04031Z" fill="white"/>
<path d="M9.58092 6.373C9.62447 5.79037 9.42482 5.94607 9.37059 6.40004C9.2903 7.12377 9.30134 7.85469 9.40345 8.57568C9.40345 8.69532 9.56038 9.18536 9.61543 8.87396C9.58996 8.05288 9.49958 7.19983 9.58092 6.373Z" fill="#4BDCAB"/>
<path d="M9.56453 9.01655H9.5596C9.44375 9.00836 9.36488 8.64124 9.36241 8.57651C9.26033 7.85524 9.24929 7.12405 9.32955 6.40005C9.35666 6.17306 9.4265 5.94607 9.53166 5.95836C9.56124 5.95836 9.65244 5.96984 9.62204 6.37956C9.56289 6.9794 9.59493 7.60054 9.62204 8.2012C9.63354 8.42327 9.64587 8.65272 9.65244 8.87561V8.88462C9.64998 8.91822 9.6319 9.01655 9.56453 9.01655ZM9.52181 6.04031C9.49223 6.06817 9.43964 6.19027 9.41089 6.40496C9.33142 7.1252 9.34273 7.85252 9.44457 8.56995C9.45949 8.69506 9.49855 8.81611 9.5596 8.92641C9.56659 8.90844 9.57155 8.88975 9.57439 8.87069C9.56782 8.65026 9.55549 8.42245 9.54399 8.20202C9.51277 7.5989 9.4799 6.97284 9.54399 6.36891C9.55713 6.13455 9.53249 6.06079 9.52181 6.04031Z" fill="white"/>
<path d="M9.58092 6.373C9.62447 5.79037 9.42482 5.94607 9.37059 6.40004C9.2903 7.12377 9.30134 7.85469 9.40345 8.57568C9.40345 8.69532 9.56038 9.18536 9.61543 8.87396C9.58996 8.05288 9.49958 7.19983 9.58092 6.373Z" fill="#4BDCAB"/>
<path d="M9.56453 9.01655H9.5596C9.44375 9.00836 9.36488 8.64124 9.36241 8.57651C9.26033 7.85524 9.24929 7.12405 9.32955 6.40005C9.35666 6.17306 9.4265 5.94607 9.53166 5.95836C9.56124 5.95836 9.65244 5.96984 9.62204 6.37956C9.56289 6.9794 9.59493 7.60054 9.62204 8.2012C9.63354 8.42327 9.64587 8.65272 9.65244 8.87561V8.88462C9.64998 8.91822 9.6319 9.01655 9.56453 9.01655ZM9.52181 6.04031C9.49223 6.06817 9.43964 6.19027 9.41089 6.40496C9.33142 7.1252 9.34273 7.85252 9.44457 8.56995C9.45949 8.69506 9.49855 8.81611 9.5596 8.92641C9.56659 8.90844 9.57155 8.88975 9.57439 8.87069C9.56782 8.65026 9.55549 8.42245 9.54399 8.20202C9.51277 7.5989 9.4799 6.97284 9.54399 6.36891C9.55713 6.13455 9.53249 6.06079 9.52181 6.04031Z" fill="white"/>
<path d="M11.889 6.24107C11.253 5.18234 9.66486 4.90701 8.70933 5.71089C6.93876 7.11707 8.22622 10.0327 10.47 9.60902C11.9645 9.364 12.7442 7.48582 11.889 6.24107Z" fill="#4BDCAB"/>
<path d="M11.1354 5.87889C12.3735 6.85239 11.8551 7.5563 11.3498 8.72566C11.4544 8.67608 11.5547 8.61798 11.6497 8.55193C11.4979 8.78498 11.2937 8.97944 11.0532 9.11981C11.2463 8.67075 11.3383 8.38231 11.5766 7.7669C11.8001 7.13183 11.7647 6.77045 11.4837 6.32876C11.4653 6.29251 11.4397 6.26034 11.4085 6.23415C11.3773 6.20797 11.3411 6.18831 11.3022 6.17635C11.2521 6.15504 11.2767 6.24682 11.3441 6.482L11.2521 6.45988C11.1329 5.97476 11.0549 5.82644 11.1354 5.87889Z" fill="white"/>
<path d="M9.19805 9.17471C8.81682 8.60765 8.4512 8.00371 8.27291 7.3375C8.3066 7.75296 8.34686 8.14056 8.5194 8.49129C8.05519 7.68495 8.13242 6.94826 8.7363 6.11488C8.40026 6.58443 8.64921 7.23261 8.77656 7.71199C8.72393 7.06611 8.83703 6.41749 9.10521 5.82725L9.17997 5.78546C8.78806 6.9753 8.80696 8.02502 9.2268 9.19929L9.19805 9.17471Z" fill="white"/>
<path d="M9.8267 8.61257C9.8267 8.83218 9.86613 9.32631 9.71742 9.36073C9.52927 9.32385 9.49559 9.32877 9.37645 9.08457C9.03384 8.28479 9.05356 7.29325 9.16612 6.43611C9.21624 6.15586 9.33044 5.77317 9.50298 5.6437C9.56871 5.62321 9.60404 5.61338 9.6673 5.59863C9.71167 5.58961 9.74043 5.64943 9.76343 5.79366C9.78968 5.97927 9.79821 6.16694 9.7889 6.35416C9.77822 7.10724 9.78151 7.85703 9.8267 8.61257Z" fill="white"/>
<path d="M10.244 9.3845C10.185 9.38997 10.1258 9.39216 10.0665 9.39105C10.0575 9.10834 10.0526 8.94855 10.0452 8.61175C10.1339 8.61175 10.1783 8.61175 10.2662 8.60602C10.2612 8.94035 10.2563 9.10424 10.244 9.3845Z" fill="white"/>
<path d="M10.4189 9.3607C10.4535 8.84096 10.5563 8.32798 10.7246 7.83489C10.9144 7.2203 10.9448 6.82696 10.861 6.3902C10.8339 6.25089 10.787 6.04685 10.6909 5.98866C10.5069 5.9354 10.5348 6.00833 10.5504 6.3566L10.4444 6.35004C10.4157 5.79118 10.4304 5.58468 10.5266 5.61254C10.5822 5.62558 10.6371 5.64172 10.6909 5.66088C10.8651 5.78626 10.9965 6.15255 11.0614 6.42543C11.312 7.1236 10.7254 8.32246 10.6506 8.96573C10.7749 8.94329 10.8972 8.91095 11.0163 8.86903C10.9866 8.98373 10.9507 9.09671 10.9086 9.20747C10.755 9.28506 10.5895 9.33683 10.4189 9.3607Z" fill="white"/>
<path d="M9.58092 6.373C9.62447 5.79037 9.42482 5.94607 9.37059 6.40004C9.2903 7.12377 9.30134 7.85469 9.40345 8.57568C9.40345 8.69532 9.56038 9.18536 9.61543 8.87396C9.58996 8.05288 9.49958 7.19983 9.58092 6.373Z" fill="#4BDCAB"/>
<path d="M9.56453 9.01655H9.5596C9.44375 9.00836 9.36488 8.64124 9.36241 8.57651C9.26033 7.85524 9.24929 7.12405 9.32955 6.40005C9.35666 6.17306 9.4265 5.94607 9.53166 5.95836C9.56124 5.95836 9.65244 5.96984 9.62204 6.37956C9.56289 6.9794 9.59493 7.60054 9.62204 8.2012C9.63354 8.42327 9.64587 8.65272 9.65244 8.87561V8.88462C9.64998 8.91822 9.6319 9.01655 9.56453 9.01655ZM9.52181 6.04031C9.49223 6.06817 9.43964 6.19027 9.41089 6.40496C9.33142 7.1252 9.34273 7.85252 9.44457 8.56995C9.45949 8.69506 9.49855 8.81611 9.5596 8.92641C9.56659 8.90844 9.57155 8.88975 9.57439 8.87069C9.56782 8.65026 9.55549 8.42245 9.54399 8.20202C9.51277 7.5989 9.4799 6.97284 9.54399 6.36891C9.55713 6.13455 9.53249 6.06079 9.52181 6.04031Z" fill="white"/>
<path d="M5.40137 13.5817C6.52451 12.2837 9.4864 10.8357 10.1264 15.4771C10.1282 15.4931 10.1359 15.5079 10.1479 15.5187C10.16 15.5294 10.1756 15.5353 10.1918 15.5353C10.2079 15.5353 10.2235 15.5294 10.2356 15.5187C10.2476 15.5079 10.2553 15.4931 10.2571 15.4771C10.3581 14.8051 10.6243 13.7407 10.8149 13.2777C11.1313 12.5107 12.3144 11.4307 15.0208 13.3834C12.8599 10.358 7.41349 10.1834 5.40137 13.5817Z" fill="#4BDCAB"/>
<path d="M7.92305 14.1237C7.92305 14.1237 7.64824 14.4138 8.43628 14.6149C8.89291 14.6822 8.75177 14.4216 8.60237 14.236C8.45297 14.0504 8.10863 13.9228 7.92305 14.1237Z" fill="#4BDCAB"/>
<path d="M2.16187 7.23098C2.16187 7.23098 2.62525 9.98105 5.51896 10.762C5.51896 10.762 5.17388 12.7393 5.2355 13.671C5.2355 13.671 7.08987 11.3397 8.87934 11.1742C8.87934 11.1742 7.76277 9.63442 7.66664 9.08048C7.66664 9.08048 5.71286 9.45824 4.66531 7.14247L4.01459 7.40306L3.79194 6.97367L3.07056 7.34816L2.88652 6.91958C2.88652 6.91958 2.31468 6.7811 2.16187 7.23098Z" fill="#4BDCAB"/>
<path d="M17.9573 6.96301C17.9573 6.96301 17.5892 9.72702 14.7226 10.6055C14.7226 10.6055 15.1334 12.5721 15.1055 13.503C15.1055 13.503 13.1722 11.2364 11.3787 11.1316C11.3787 11.1316 12.4418 9.55493 12.5191 9.00098C12.5191 9.00098 14.4843 9.31155 15.4522 6.96137L16.1095 7.19983L16.3174 6.76224L17.051 7.11133L17.2211 6.67702C17.2211 6.67702 17.7889 6.51887 17.9573 6.96301Z" fill="#4BDCAB"/>
<path d="M7.99927 11.4077C7.99927 11.4077 7.24503 9.50248 7.0955 9.71471C6.69784 10.2678 7.32966 11.7043 7.32966 11.7043L7.99927 11.4077Z" fill="white"/>
<path d="M12.3728 11.3331C12.3728 11.3331 13.0613 9.40333 13.2215 9.61229C13.6373 10.1515 13.0572 11.6085 13.0572 11.6085L12.3728 11.3331Z" fill="white"/>
<path opacity="0.36" d="M11.5044 16.8742C11.5619 17.9395 13.9906 17.8985 14.0111 16.8316C13.9536 15.7663 11.5249 15.8073 11.5044 16.8742Z" fill="#F2A0A8"/>
<path d="M12.1984 14.1031C12.1984 14.1031 12.4881 14.3774 11.712 14.6206C11.2606 14.7126 11.387 14.4439 11.5264 14.2513C11.6657 14.0587 12.0045 13.9098 12.1984 14.1031Z" fill="#4BDCAB"/>
<path d="M2.81094 12.4386C2.81094 12.4386 2.47162 13.6678 4.07786 15.5033C4.1819 15.1753 4.31384 14.8568 4.47223 14.5511C3.96201 13.8571 3.13465 13.8218 2.81094 12.4386Z" fill="white"/>
<path d="M17.5037 12.1944C17.5037 12.1944 17.8907 13.4121 16.3214 15.3001C16.2045 14.9758 16.0596 14.6621 15.8884 14.3627C16.3806 13.6522 17.2227 13.5875 17.5037 12.1944Z" fill="white"/>
<path d="M15.3538 17.9838C15.4915 18.11 15.5814 18.2801 15.6085 18.4651C15.6356 18.6502 15.5981 18.8389 15.5024 18.9994C15.1066 19.6591 14.4129 20.577 13.8495 20.048C13.8495 20.048 13.5288 19.7893 14.2744 19.3725C14.2744 19.3725 13.1031 20.3799 12.9108 19.3532C12.7184 18.3266 13.5316 17.777 13.5316 17.777L13.8393 17.528C13.9909 17.4057 14.1812 17.3421 14.3757 17.3486C14.5702 17.3551 14.7559 17.4313 14.8992 17.5634L15.3538 17.9838Z" fill="white"/>
<path d="M15.7764 18.5009C15.7945 18.7045 15.7477 18.9086 15.6429 19.0838C15.1686 19.8748 14.7203 20.3057 14.3091 20.364C14.2062 20.3778 14.1015 20.3678 14.0031 20.3348C13.9046 20.3018 13.8149 20.2466 13.741 20.1735C13.6728 20.1122 13.6296 20.0278 13.6195 19.9366C13.4691 19.9884 13.3062 19.9914 13.1539 19.9451C12.9411 19.8701 12.8024 19.6816 12.7498 19.3843C12.5488 18.3048 13.3464 17.7071 13.4332 17.6461L13.7412 17.4003C13.9226 17.2521 14.1513 17.1748 14.3852 17.1825C14.6191 17.1902 14.8424 17.2824 15.0138 17.4423L15.4684 17.8618C15.6471 18.0288 15.757 18.2568 15.7764 18.5009ZM13.9452 19.8988C13.9459 19.9092 13.9502 19.9191 13.9575 19.9266C13.9958 19.9684 14.0435 20.0004 14.0967 20.0198C14.1499 20.0392 14.207 20.0455 14.2631 20.0381C14.5581 19.9964 14.9589 19.5868 15.3619 18.9141C15.4376 18.786 15.4672 18.6357 15.4456 18.4883C15.424 18.341 15.3525 18.2055 15.2432 18.1046L14.7888 17.6858C14.6738 17.5818 14.5259 17.5219 14.3711 17.5167C14.2164 17.5116 14.0648 17.5615 13.9433 17.6576L13.624 17.9142C13.4095 18.0739 13.2441 18.2907 13.1465 18.5401C13.0489 18.7894 13.0231 19.0612 13.072 19.3246C13.1049 19.4982 13.169 19.6024 13.2633 19.638C13.4058 19.6885 13.6283 19.6068 13.8262 19.4884C13.9375 19.3888 14.0602 19.3027 14.1916 19.232L14.3791 19.5004C14.2694 19.5924 14.1528 19.6757 14.0304 19.7496C13.9884 19.7856 13.9581 19.8332 13.9434 19.8866C13.9434 19.8907 13.944 19.8948 13.9452 19.8988Z" fill="#4BDCAB"/>
<path d="M5.12437 18.0664C4.99318 18.1994 4.9118 18.3737 4.89399 18.5599C4.87617 18.746 4.92302 18.9326 5.0266 19.0882C5.45486 19.7282 6.19353 20.6094 6.72986 20.053C6.72986 20.053 7.03728 19.7778 6.27176 19.3987C6.27176 19.3987 7.49185 20.3464 7.6327 19.3122C7.77355 18.278 6.93396 17.7681 6.93396 17.7681L6.61426 17.5348C6.45675 17.4203 6.26349 17.3662 6.06957 17.3824C5.87565 17.3986 5.69394 17.484 5.55747 17.6231L5.12437 18.0664Z" fill="white"/>
<path d="M4.7281 18.6048C4.73628 18.3597 4.83584 18.1265 5.00713 17.9513L5.44015 17.5104C5.60318 17.3419 5.82153 17.2383 6.05482 17.2188C6.28811 17.1993 6.52054 17.2651 6.70912 17.4041L7.02895 17.6342C7.11795 17.6908 7.94602 18.248 7.79831 19.337C7.75734 19.6364 7.63154 19.8309 7.42269 19.9164C7.27294 19.9703 7.11007 19.9754 6.95725 19.9311C6.95172 20.0228 6.91276 20.1092 6.84778 20.1739C6.77765 20.2507 6.69088 20.3104 6.59415 20.3483C6.49741 20.3862 6.3933 20.4013 6.28982 20.3925C5.87625 20.3548 5.40356 19.95 4.8938 19.1805C4.77902 19.0111 4.72099 18.8095 4.7281 18.6048ZM5.24085 18.1816C5.13562 18.2882 5.07035 18.428 5.05609 18.5773C5.04182 18.7266 5.07944 18.8762 5.16256 19.0009C5.59864 19.6519 6.01938 20.0417 6.3161 20.0679C6.37174 20.0726 6.4277 20.0639 6.47927 20.0424C6.53084 20.0209 6.57649 19.9873 6.61239 19.9444L6.62172 19.9357C6.62627 19.9238 6.62673 19.9108 6.62303 19.8987C6.60573 19.8464 6.57306 19.8005 6.52931 19.7671C6.403 19.6996 6.28236 19.6219 6.16857 19.5348L6.34238 19.2582C6.47719 19.322 6.604 19.4015 6.72017 19.4952C6.92793 19.6021 7.15411 19.675 7.28984 19.6166C7.38138 19.5787 7.44016 19.4706 7.46529 19.2939C7.50173 19.0282 7.46265 18.7575 7.35253 18.5131C7.24241 18.2686 7.06573 18.0603 6.84279 17.912L6.83238 17.9051L6.51267 17.6718C6.38652 17.5818 6.23267 17.5395 6.07838 17.5524C5.9241 17.5653 5.77932 17.6325 5.66971 17.7421L5.24085 18.1816Z" fill="#4BDCAB"/>
<path d="M9.03378 16.045C9.03378 17.2176 8.08729 17.234 8.04785 16.0614C8.04785 14.8879 8.99517 14.8723 9.03378 16.045Z" fill="#4BDCAB"/>
<path d="M12.2184 16.045C12.2184 17.2176 11.2719 17.234 11.2324 16.0614C11.2316 14.8879 12.1797 14.8723 12.2184 16.045Z" fill="#4BDCAB"/>
<path d="M9.66675 17.8333C9.83341 18 10.5001 18 10.6667 17.8333" stroke="#78DAB9" stroke-linecap="round"/>
</g>
<defs>
<clipPath id="clip0_10106_9200">
<rect width="20" height="20" fill="white" transform="translate(0 0.5)"/>
</clipPath>
</defs>
</svg>
