<svg width="23" height="22" viewBox="0 0 23 22" fill="none" xmlns="http://www.w3.org/2000/svg">
<path d="M8.37002 15.5702C8.32938 15.6366 8.27188 15.691 8.20337 15.7279C8.13486 15.7648 8.05779 15.7828 7.98002 15.7802C7.91644 15.7842 7.85279 15.7737 7.79388 15.7494C7.73498 15.7252 7.68236 15.6878 7.64002 15.6402C7.59531 15.5977 7.55982 15.5465 7.53574 15.4898C7.51165 15.433 7.4995 15.3719 7.50002 15.3102C7.49928 15.2127 7.53093 15.1178 7.59002 15.0402C7.70226 14.8725 7.79932 14.6952 7.88002 14.5102C7.97588 14.3088 8.04964 14.0975 8.10002 13.8802C8.14818 13.6123 8.18157 13.3419 8.20002 13.0702C8.20002 12.7602 8.20002 12.4002 8.20002 11.9802V6.82022C8.20078 6.69301 8.25098 6.57109 8.34002 6.48022C8.3852 6.43703 8.43854 6.40329 8.49692 6.38097C8.5553 6.35865 8.61755 6.3482 8.68002 6.35022H15.24C15.3332 6.34731 15.4246 6.37545 15.5 6.43022C15.5742 6.47539 15.6333 6.5415 15.67 6.62022C15.7026 6.68901 15.7197 6.76411 15.72 6.84022V13.6702C15.757 14.2382 15.5703 14.798 15.2 15.2302C14.9986 15.4257 14.7582 15.5766 14.4946 15.6731C14.231 15.7696 13.9501 15.8095 13.67 15.7902C13.6064 15.7942 13.5428 15.7837 13.4839 15.7594C13.425 15.7352 13.3724 15.6978 13.33 15.6502C13.2853 15.6077 13.2498 15.5565 13.2257 15.4998C13.2017 15.443 13.1895 15.3819 13.19 15.3202C13.1887 15.257 13.2005 15.1941 13.2246 15.1356C13.2487 15.0771 13.2846 15.0242 13.33 14.9802C13.3724 14.9326 13.425 14.8953 13.4839 14.871C13.5428 14.8468 13.6064 14.8362 13.67 14.8402C13.8486 14.844 14.0268 14.8238 14.2 14.7802C14.3281 14.7479 14.4454 14.6824 14.54 14.5902C14.6254 14.4885 14.6869 14.3689 14.72 14.2402C14.7385 14.0507 14.7385 13.8598 14.72 13.6702V7.29022H9.20002V11.9802C9.22273 12.3866 9.22273 12.7939 9.20002 13.2002C9.17506 13.5203 9.1249 13.838 9.05002 14.1502C8.98913 14.4149 8.90203 14.6728 8.79002 14.9202C8.67268 15.1507 8.53194 15.3685 8.37002 15.5702ZM11.57 7.97022C11.5679 7.91221 11.5784 7.85444 11.6009 7.8009C11.6233 7.74737 11.6572 7.69937 11.7 7.66022C11.7388 7.6196 11.7853 7.58716 11.8368 7.56483C11.8884 7.5425 11.9439 7.53073 12 7.53022C12.1165 7.53082 12.228 7.57757 12.31 7.66022C12.3529 7.69937 12.3867 7.74737 12.4092 7.8009C12.4316 7.85444 12.4421 7.91221 12.44 7.97022V8.28022H13.7C13.816 8.2829 13.9268 8.32933 14.01 8.41022C14.0726 8.47036 14.1156 8.54805 14.1332 8.63307C14.1509 8.71809 14.1424 8.80645 14.1088 8.88654C14.0753 8.96663 14.0182 9.03468 13.9453 9.08174C13.8723 9.12881 13.7868 9.15268 13.7 9.15022H12.44V9.66022H13.94C13.9979 9.65938 14.0552 9.67049 14.1086 9.69286C14.1619 9.71523 14.2101 9.74837 14.25 9.79022C14.3327 9.87228 14.3794 9.98376 14.38 10.1002C14.3774 10.2152 14.3299 10.3245 14.2477 10.4049C14.1654 10.4853 14.055 10.5303 13.94 10.5302H10.07C10.012 10.5323 9.95423 10.5218 9.9007 10.4994C9.84716 10.4769 9.79916 10.4431 9.76002 10.4002C9.71738 10.363 9.68359 10.3168 9.6611 10.2649C9.63861 10.213 9.62799 10.1568 9.63002 10.1002C9.63002 9.98353 9.67637 9.87161 9.75889 9.7891C9.8414 9.70658 9.95332 9.66022 10.07 9.66022H11.57V9.15022H10.31C10.1952 9.15125 10.0842 9.10832 10 9.03022C9.93893 8.9687 9.89739 8.8905 9.88059 8.80544C9.8638 8.72039 9.87251 8.63227 9.90563 8.55214C9.93874 8.47202 9.99479 8.40346 10.0667 8.35509C10.1387 8.30671 10.2233 8.28066 10.31 8.28022H11.57V7.97022ZM13.69 11.1402C13.7764 11.1409 13.8604 11.1689 13.93 11.2202C13.9988 11.2688 14.0539 11.3342 14.09 11.4102C14.1027 11.4763 14.1027 11.5442 14.09 11.6102V12.7502C14.092 12.9619 14.0547 13.1721 13.98 13.3702C13.9034 13.5537 13.7912 13.7202 13.65 13.8602C13.5138 14.0036 13.346 14.1132 13.16 14.1802C12.967 14.2613 12.7594 14.3021 12.55 14.3002H11.42C11.2073 14.3029 10.9963 14.2621 10.8 14.1802C10.6113 14.0994 10.4436 13.9762 10.31 13.8202C10.1752 13.6771 10.0668 13.5112 9.99002 13.3302C9.90705 13.1342 9.86617 12.923 9.87002 12.7102V11.6102C9.87242 11.5395 9.89309 11.4706 9.93002 11.4102C9.95671 11.3269 10.0107 11.2549 10.0832 11.2059C10.1558 11.1569 10.2427 11.1338 10.33 11.1402H13.69ZM13.25 12.0302H10.75V12.7502C10.7359 12.9345 10.7932 13.117 10.91 13.2602C11.0511 13.3728 11.2302 13.4266 11.41 13.4102H12.61C12.7898 13.4266 12.9689 13.3728 13.11 13.2602C13.2232 13.1156 13.2769 12.9331 13.26 12.7502L13.25 12.0302Z" fill="white"/>
<path d="M7.20386 2H17.9639C18.5698 2.03607 19.1366 2.31122 19.5397 2.765C19.9429 3.21878 20.1494 3.81405 20.1139 4.42V16.5C19.555 16.0173 19.021 15.5067 18.5139 14.97" stroke="white" stroke-width="1.5" stroke-linecap="square" stroke-linejoin="round"/>
<path d="M16.3739 20.2H5.65393C5.04801 20.1639 4.48119 19.8887 4.07805 19.435C3.6749 18.9812 3.4684 18.3859 3.50393 17.78V5.69995C3.50393 5.69995 4.68393 6.69995 5.11393 7.22995" stroke="white" stroke-width="1.5" stroke-linecap="square" stroke-linejoin="round"/>
</svg>
