<svg width="22" height="22" viewBox="0 0 22 22" fill="none" xmlns="http://www.w3.org/2000/svg">
<path d="M19.25 19.25H2.0625C1.88016 19.25 1.7053 19.1776 1.57636 19.0486C1.44743 18.9197 1.375 18.7448 1.375 18.5625V4.8125C1.375 4.63016 1.44743 4.4553 1.57636 4.32636C1.7053 4.19743 1.88016 4.125 2.0625 4.125C2.24484 4.125 2.4197 4.19743 2.54864 4.32636C2.67757 4.4553 2.75 4.63016 2.75 4.8125V17.875H19.25C19.4323 17.875 19.6072 17.9474 19.7361 18.0764C19.8651 18.2053 19.9375 18.3802 19.9375 18.5625C19.9375 18.7448 19.8651 18.9197 19.7361 19.0486C19.6072 19.1776 19.4323 19.25 19.25 19.25Z" fill="#3EBAD0"/>
<path d="M5.30689 13.75C5.16663 13.7502 5.02966 13.7075 4.91436 13.6276C4.79907 13.5477 4.71097 13.4345 4.66188 13.3031C4.61279 13.1717 4.60507 13.0284 4.63975 12.8925C4.67443 12.7566 4.74985 12.6346 4.85589 12.5428L9.17408 8.79931C9.30033 8.68976 9.46218 8.62996 9.62934 8.6311C9.7965 8.63223 9.95751 8.69424 10.0823 8.8055L13.7803 12.1021L18.7021 6.81038C18.8264 6.67682 18.9986 6.59809 19.1809 6.59151C19.3632 6.58494 19.5407 6.65105 19.6743 6.77531C19.8078 6.89958 19.8866 7.07181 19.8931 7.25411C19.8997 7.43642 19.8336 7.61388 19.7093 7.74744L14.329 13.5314C14.2067 13.6632 14.0375 13.7417 13.8579 13.7501C13.6783 13.7584 13.5025 13.696 13.3685 13.5761L9.6182 10.2348L5.75652 13.5829C5.63169 13.691 5.47201 13.7503 5.30689 13.75Z" fill="#3EBAD0"/>
</svg>
