<svg width="20" height="20" viewBox="0 0 20 20" fill="none" xmlns="http://www.w3.org/2000/svg">
<path d="M10 0.625C4.91071 0.625 0.625 4.91071 0.625 10C0.625 15.0893 4.91071 19.375 10 19.375C15.0893 19.375 19.375 15.0893 19.375 10C19.375 4.91071 15.0893 0.625 10 0.625ZM14.0179 12.6786C14.4196 13.0804 14.4196 13.6161 14.0179 13.8839C13.6161 14.2857 13.0804 14.2857 12.8125 13.8839L10.1339 11.2054L7.32143 14.0179C6.91964 14.4196 6.38393 14.4196 5.98214 14.0179C5.58036 13.6161 5.58036 12.9464 5.98214 12.6786L8.79464 9.86607L6.11607 7.1875C5.71429 6.91964 5.71429 6.38393 6.11607 5.98214C6.51786 5.58036 7.05357 5.58036 7.32143 5.98214L10 8.66071L12.8125 5.84821C13.2143 5.44643 13.75 5.44643 14.1518 5.84821C14.5536 6.25 14.5536 6.78571 14.1518 7.1875L11.3393 10L14.0179 12.6786Z" fill="white"/>
</svg>
