<svg width="14" height="15" viewBox="0 0 14 15" fill="none" xmlns="http://www.w3.org/2000/svg">
<path d="M12.0102 4.01925H8.66775V1.67075C8.66775 1.02325 8.1725 0.5 7.5565 0.5H1.98625C1.37025 0.5 0.875 1.02325 0.875 1.67075V12.225H13.125V5.19C13.125 4.5425 12.6262 4.01925 12.0102 4.01925ZM3.99 10.6185H2.4325V8.9735H3.99V10.6185ZM3.99 7.276H2.4325V5.631H3.99V7.276ZM3.99 3.93175H2.4325V2.28675H3.99V3.93175ZM7.1085 10.6185H5.551V8.9735H7.1085V10.6185ZM7.1085 7.276H5.551V5.631H7.1085V7.276ZM7.1085 3.93175H5.551V2.28675H7.1085V3.93175ZM11.3487 10.6185H9.79125V8.9735H11.3487V10.6185ZM11.3487 7.332H9.79125V5.6905H11.3487V7.332ZM13.972 14.5H0.028C0.01225 14.5 0 14.4877 0 14.472V13.128C0 13.1122 0.01225 13.1 0.028 13.1H13.972C13.9877 13.1 14 13.1122 14 13.128V14.472C14 14.4877 13.9877 14.5 13.972 14.5Z" fill="#EBFCFF"/>
</svg>
