<svg width="22" height="22" viewBox="0 0 22 22" fill="none" xmlns="http://www.w3.org/2000/svg">
<g clip-path="url(#clip0_6743_30418)">
<path d="M21.177 16.308C21.3682 16.2827 21.5438 16.1888 21.671 16.0437C21.7981 15.8986 21.8683 15.7123 21.8683 15.5194C21.8683 15.3264 21.7981 15.1401 21.671 14.995C21.5438 14.8499 21.3682 14.756 21.177 14.7307H19.3665L21.8079 11.4801C21.8896 11.3173 21.9118 11.1312 21.8709 10.9538C21.83 10.7764 21.7285 10.6188 21.5838 10.5083C21.4391 10.3977 21.2604 10.3411 21.0784 10.3483C20.8965 10.3554 20.7228 10.4259 20.5872 10.5474L17.8441 14.2232L15.1009 10.5474C15.0399 10.4643 14.9631 10.394 14.8748 10.3407C14.7865 10.2874 14.6885 10.252 14.5865 10.2367C14.4846 10.2214 14.3805 10.2265 14.2805 10.2515C14.1805 10.2766 14.0864 10.3212 14.0037 10.3828C13.8387 10.5083 13.7292 10.6931 13.6985 10.898C13.6678 11.103 13.7182 11.3118 13.8391 11.4801L16.2805 14.7307H14.3877C14.1964 14.756 14.0209 14.8499 13.8937 14.995C13.7665 15.1401 13.6964 15.3264 13.6964 15.5194C13.6964 15.7123 13.7665 15.8986 13.8937 16.0437C14.0209 16.1888 14.1964 16.2827 14.3877 16.308H16.9937V17.8305H14.3877C14.1815 17.834 13.9846 17.9175 13.8388 18.0633C13.6929 18.2092 13.6094 18.406 13.6059 18.6123C13.6059 18.7149 13.6261 18.8166 13.6654 18.9114C13.7047 19.0063 13.7623 19.0925 13.8349 19.1651C13.9075 19.2377 13.9937 19.2953 14.0885 19.3345C14.1834 19.3738 14.285 19.3941 14.3877 19.3941H16.9937V21.232C17.019 21.4232 17.1129 21.5988 17.258 21.726C17.4031 21.8531 17.5894 21.9232 17.7823 21.9232C17.9753 21.9232 18.1616 21.8531 18.3067 21.726C18.4518 21.5988 18.5457 21.4232 18.571 21.232V19.3666H21.177C21.3682 19.3413 21.5438 19.2474 21.671 19.1023C21.7981 18.9572 21.8683 18.7709 21.8683 18.578C21.8683 18.385 21.7981 18.1987 21.671 18.0536C21.5438 17.9085 21.3682 17.8146 21.177 17.7893H18.571V16.308H21.177ZM14.1545 4.71824C14.1582 4.61509 14.1411 4.51226 14.1041 4.41588C14.0672 4.3195 14.0112 4.23156 13.9395 4.15731C13.8678 4.08305 13.7819 4.02401 13.6869 3.98371C13.5918 3.9434 13.4897 3.92266 13.3865 3.92273H3.97748C3.79521 3.95702 3.63065 4.05392 3.51225 4.19667C3.39385 4.33942 3.32905 4.51906 3.32905 4.70453C3.32905 4.88999 3.39385 5.06963 3.51225 5.21238C3.63065 5.35513 3.79521 5.45203 3.97748 5.48632H13.3727C13.4754 5.48632 13.5771 5.4661 13.6719 5.42681C13.7668 5.38752 13.853 5.32993 13.9255 5.25734C13.9981 5.18474 14.0557 5.09856 14.095 5.00371C14.1343 4.90885 14.1545 4.80719 14.1545 4.70453V4.71824ZM12.5635 9.42273C12.5654 9.31955 12.5464 9.21705 12.5078 9.12136C12.4692 9.02567 12.4116 8.93874 12.3387 8.86577C12.2657 8.7928 12.1788 8.73529 12.0831 8.69666C11.9874 8.65803 11.8849 8.63907 11.7817 8.64093H7.8796H3.97748C3.8743 8.63907 3.7718 8.65803 3.67611 8.69666C3.58042 8.73529 3.49349 8.7928 3.42052 8.86577C3.34755 8.93874 3.29003 9.02567 3.2514 9.12136C3.21277 9.21705 3.19382 9.31955 3.19568 9.42273C3.19568 9.5254 3.2159 9.62706 3.25519 9.72191C3.29448 9.81676 3.35207 9.90295 3.42466 9.97554C3.49726 10.0481 3.58344 10.1057 3.6783 10.145C3.77315 10.1843 3.87481 10.2045 3.97748 10.2045H11.7817C11.8844 10.2045 11.986 10.1843 12.0809 10.145C12.1757 10.1057 12.2619 10.0481 12.3345 9.97554C12.4071 9.90295 12.4647 9.81676 12.504 9.72191C12.5433 9.62706 12.5635 9.5254 12.5635 9.42273ZM3.97748 13.3454C3.77013 13.3454 3.57128 13.4278 3.42466 13.5744C3.27805 13.721 3.19568 13.9199 3.19568 14.1272C3.19568 14.3346 3.27805 14.5334 3.42466 14.68C3.57128 14.8266 3.77013 14.909 3.97748 14.909H8.68196C8.88931 14.909 9.08816 14.8266 9.23478 14.68C9.38139 14.5334 9.46376 14.3346 9.46376 14.1272C9.46376 13.9199 9.38139 13.721 9.23478 13.5744C9.08816 13.4278 8.88931 13.3454 8.68196 13.3454H3.97748Z" fill="#FCDD67"/>
<path d="M11.7955 18.8317H2.35906C2.15171 18.8317 1.95286 18.7493 1.80625 18.6027C1.65963 18.4561 1.57726 18.2572 1.57726 18.0499V2.3591C1.57726 2.15176 1.65963 1.9529 1.80625 1.80629C1.95286 1.65967 2.15171 1.57731 2.35906 1.57731H14.9501C15.0533 1.57545 15.1558 1.5944 15.2514 1.63303C15.3471 1.67166 15.4341 1.72918 15.507 1.80215C15.58 1.87512 15.6375 1.96204 15.6762 2.05774C15.7148 2.15343 15.7337 2.25592 15.7319 2.3591V8.6409C15.7354 8.84714 15.8189 9.04395 15.9648 9.18981C16.1106 9.33567 16.3074 9.41917 16.5137 9.42269C16.721 9.42269 16.9199 9.34033 17.0665 9.19371C17.2131 9.0471 17.2955 8.84824 17.2955 8.6409V1.57731C17.2955 1.16134 17.1312 0.762215 16.8383 0.466804C16.5455 0.171393 16.1478 0.00361707 15.7319 0L1.57726 0C1.16132 0.00361706 0.763637 0.171393 0.470795 0.466804C0.177952 0.762215 0.0136561 1.16134 0.0136719 1.57731V18.8317C0.0136561 19.2476 0.177952 19.6468 0.470795 19.9422C0.763637 20.2376 1.16132 20.4054 1.57726 20.409H11.7955C12.0041 20.4054 12.2029 20.32 12.3491 20.1712C12.4954 20.0224 12.5773 19.8221 12.5773 19.6135C12.5737 19.4072 12.4902 19.2104 12.3444 19.0646C12.1985 18.9187 12.0017 18.8352 11.7955 18.8317Z" fill="#FCDD67"/>
</g>
<defs>
<clipPath id="clip0_6743_30418">
<rect width="22" height="22" fill="white"/>
</clipPath>
</defs>
</svg>
