<svg width="22" height="20" viewBox="0 0 22 20" fill="none" xmlns="http://www.w3.org/2000/svg">
<path d="M10.944 0.458675C10.3804 0.458675 9.86764 0.768665 9.6273 1.25453L7.34825 5.88207L2.10588 6.64478C1.5672 6.72222 1.11914 7.08349 0.946145 7.57429C0.77315 8.06761 0.90367 8.61099 1.28439 8.98132L5.12617 12.7343L4.23528 17.9378C4.14462 18.463 4.37666 18.9883 4.83197 19.2959C5.08267 19.4627 5.37582 19.5487 5.67003 19.5487C5.9114 19.5487 6.15433 19.4907 6.37446 19.3767L10.9445 16.9692L15.5156 19.3767C15.7352 19.4906 15.9776 19.5487 16.2185 19.5487C16.5132 19.5487 16.8063 19.4627 17.057 19.2959C17.5123 18.9882 17.7439 18.463 17.6538 17.9378L16.7628 12.7343L20.6051 8.9813C20.9853 8.6107 21.1163 8.06759 20.9428 7.57427C20.7693 7.08346 20.3213 6.72222 19.7826 6.64475L14.5402 5.88207L12.2611 1.25453C12.0224 0.768689 11.5085 0.458675 10.944 0.458675Z" fill="#FBDE71"/>
</svg>
