<svg width="22" height="20" viewBox="0 0 22 20" fill="none" xmlns="http://www.w3.org/2000/svg">
<path opacity="0.3" d="M7.42017 6.37686L7.6805 6.33899L7.79674 6.10298L10.0754 1.47623C10.0755 1.47612 10.0755 1.47602 10.0756 1.47592C10.2275 1.16903 10.5611 0.958679 10.9439 0.958679C11.3287 0.958679 11.6624 1.16984 11.8123 1.47506L11.8125 1.47544L14.0916 6.10299L14.2078 6.33899L14.4682 6.37686L19.7105 7.13955L19.7114 7.13967C20.0741 7.19182 20.3623 7.43294 20.4712 7.74046C20.5784 8.04572 20.5001 8.38536 20.2561 8.62326L20.2557 8.62361L16.4134 12.3766L16.2257 12.5599L16.27 12.8186L17.1609 18.0221L17.1609 18.0223C17.2162 18.3448 17.0773 18.6779 16.7786 18.8806C16.6118 18.9911 16.4159 19.0487 16.2184 19.0487C16.0576 19.0487 15.8946 19.0099 15.7469 18.9334C15.7465 18.9333 15.7462 18.9331 15.7458 18.9329L11.1774 16.5268L10.9444 16.4041L10.7114 16.5268L6.14454 18.9327C6.14408 18.9329 6.14362 18.9332 6.14316 18.9334C5.99486 19.0099 5.83132 19.0487 5.66997 19.0487C5.47312 19.0487 5.27723 18.9912 5.11038 18.8806C4.81127 18.6777 4.67238 18.3446 4.72793 18.0228L4.72804 18.0222L5.61894 12.8187L5.66323 12.56L5.47551 12.3766L1.63372 8.62366L1.63296 8.62292C1.38911 8.38572 1.31068 8.046 1.41778 7.74013C1.5262 7.433 1.81421 7.19184 2.17697 7.13969L2.1778 7.13957L7.42017 6.37686Z" stroke="black"/>
</svg>
