<svg width="92" height="52" viewBox="0 0 92 52" fill="none" xmlns="http://www.w3.org/2000/svg">
<path d="M35.8669 19.553V20.0947H56.296V19.553H35.8669ZM35.8669 21.7242V25.2636H56.296V21.7242H35.8669ZM35.8669 26.8936V27.4353H56.296V26.8936H35.8669ZM35.8669 29.0648V51.659H36.5519V41.5422H55.4664V51.659H56.296V29.0648H35.8669ZM35.8669 27.9795V28.5212H56.296V27.9795H35.8669ZM35.8669 25.8078V26.3495H56.296V25.8078H35.8669ZM35.8669 20.6383V21.18H56.296V20.6383H35.8669ZM35.8669 18.4678V19.0095H56.296V18.4678H35.8669ZM70.6995 0.513916H69.426L65.0746 2.72143V3.44451H63.6953V2.72143L59.5561 1.12213L58.0704 1.19807L56.6904 2.72143V9.494C56.6904 9.494 47.9382 8.46775 46.0536 8.61965C44.1678 8.46775 35.4161 9.494 35.4161 9.494V2.72143L34.0356 1.19807L32.5499 1.12213L28.412 2.72143V3.44451H27.0314V2.72143L22.6806 0.513916H21.4071L20.2401 1.80754V9.15254L20.2319 9.15317V51.6603L20.2401 51.6596H35.4155V14.2863H35.8663V17.9236H56.2954V14.2863H56.7468V51.6596H71.8665V1.80754L70.6995 0.513916ZM56.7474 13.2625C56.7474 13.2625 47.1956 11.3594 35.4155 13.2625V12.5018C35.4155 12.5018 44.648 10.9791 56.7474 12.5018V13.2625ZM0.0639648 11.2841V51.6596H19.3685V9.24418L0.0639648 11.2841ZM72.7312 9.24418V51.6596H92.0439V11.2841L72.7312 9.24418Z" fill="#F1F1F1"/>
</svg>
