<svg width="32" height="13" viewBox="0 0 32 13" fill="none" xmlns="http://www.w3.org/2000/svg">
<path fill-rule="evenodd" clip-rule="evenodd" d="M3 1C1.89543 1 1 1.89543 1 3V9C1 10.1046 1.89543 11 3 11H4.33333L4 13L6.66667 11H29C30.1046 11 31 10.1046 31 9V3C31 1.89543 30.1046 1 29 1H3Z" fill="url(#paint0_linear_12110_156716)"/>
<path d="M2.26453 3.288V4.032H4.17653V9H5.04053V4.032H6.94453V3.288H2.26453ZM10.1622 3.176C9.29022 3.176 8.60222 3.456 8.10622 4.032C7.62622 4.576 7.39422 5.28 7.39422 6.152C7.39422 7.016 7.62622 7.72 8.10622 8.264C8.60222 8.824 9.29022 9.112 10.1622 9.112C11.0262 9.112 11.7142 8.832 12.2182 8.272C12.6982 7.728 12.9382 7.024 12.9382 6.152C12.9382 5.272 12.6982 4.56 12.2182 4.024C11.7142 3.456 11.0262 3.176 10.1622 3.176ZM10.1622 3.944C10.7702 3.944 11.2422 4.136 11.5702 4.536C11.8902 4.928 12.0582 5.464 12.0582 6.152C12.0582 6.832 11.8902 7.368 11.5702 7.752C11.2422 8.144 10.7702 8.344 10.1622 8.344C9.55422 8.344 9.08222 8.136 8.74622 7.736C8.42622 7.344 8.26622 6.816 8.26622 6.152C8.26622 5.48 8.42622 4.952 8.74622 4.56C9.08222 4.144 9.55422 3.944 10.1622 3.944ZM13.8217 3.288V9H15.8857C16.8057 9 17.5017 8.744 17.9817 8.232C18.4377 7.736 18.6697 7.04 18.6697 6.144C18.6697 5.24 18.4457 4.544 17.9977 4.064C17.5177 3.544 16.8217 3.288 15.9017 3.288H13.8217ZM14.6937 4.032H15.7417C16.4617 4.032 16.9897 4.2 17.3257 4.544C17.6457 4.88 17.8137 5.408 17.8137 6.144C17.8137 6.864 17.6457 7.392 17.3177 7.736C16.9817 8.08 16.4457 8.256 15.7257 8.256H14.6937V4.032ZM21.1961 3.288L18.9961 9H19.9241L20.4601 7.528H22.9161L23.4521 9H24.3881L22.1881 3.288H21.1961ZM20.7241 6.808L21.6761 4.224H21.7081L22.6521 6.808H20.7241ZM24.4267 3.288L26.6907 6.72V9H27.5547V6.72L29.8187 3.288H28.7707L27.1227 5.904L25.4747 3.288H24.4267Z" fill="white"/>
<defs>
<linearGradient id="paint0_linear_12110_156716" x1="22.4286" y1="-0.636364" x2="15.4057" y2="14.6913" gradientUnits="userSpaceOnUse">
<stop stop-color="#4BDCAB"/>
<stop offset="1" stop-color="#79EEFE"/>
</linearGradient>
</defs>
</svg>
