<svg width="23" height="13" viewBox="0 0 23 13" fill="none" xmlns="http://www.w3.org/2000/svg">
<path fill-rule="evenodd" clip-rule="evenodd" d="M3 1C1.89543 1 1 1.89543 1 3V9C1 10.1046 1.89543 11 3 11H3.83333L3.5 13L6.16667 11H20C21.1046 11 22 10.1046 22 9V3C22 1.89543 21.1046 1 20 1H3Z" fill="url(#paint0_linear_12110_156715)"/>
<path d="M2.79047 3.288V9H3.66247V4.704H3.69447L6.64647 9H7.49447V3.288H6.62247V7.536H6.59047L3.67047 3.288H2.79047ZM8.61859 3.288V9H12.8586V8.256H9.49059V6.44H12.5306V5.696H9.49059V4.032H12.7226V3.288H8.61859ZM13.2236 3.288L14.8636 9H15.7996L16.9596 4.592H16.9916L18.1516 9H19.0796L20.7276 3.288H19.7436L18.6316 7.736H18.5996L17.4316 3.288H16.5196L15.3516 7.736H15.3196L14.2076 3.288H13.2236Z" fill="white"/>
<defs>
<linearGradient id="paint0_linear_12110_156715" x1="16" y1="-0.636364" x2="7.50197" y2="12.3467" gradientUnits="userSpaceOnUse">
<stop stop-color="#F96262"/>
<stop offset="1" stop-color="#F99862"/>
</linearGradient>
</defs>
</svg>
