<svg width="140" height="178" viewBox="0 0 140 178" fill="none" xmlns="http://www.w3.org/2000/svg">
<path d="M93.7969 125.065C108.978 124.914 115.647 108.297 109.458 95.6492C98.6951 69.018 68.3718 66.7072 54.7195 73.4511C33.0692 84.2243 20.308 113.436 39.0583 123.11C41.7156 124.596 44.7173 125.362 47.7638 125.329L93.7969 125.065Z" fill="white"/>
<path d="M47.6557 126.406C44.4584 126.421 41.3119 125.608 38.5236 124.047C32.1835 120.777 28.8407 115.181 28.8893 107.887C28.9757 94.868 39.8737 79.6564 54.2281 72.4923C61.497 68.9048 74.4364 67.4128 86.9762 72.1745C94.5962 75.0671 104.846 81.4124 110.441 95.2182C113.94 102.393 113.616 110.872 109.599 117.368C106.131 122.964 100.526 126.083 93.8077 126.148L47.7746 126.412L47.6557 126.406ZM70.4293 71.3018C64.3484 71.3018 58.9534 72.5569 55.1947 74.4153C41.7153 81.1269 31.1305 95.8322 31.0495 107.893C31.0063 114.33 33.9495 119.264 39.5551 122.156C42.0569 123.563 44.8867 124.286 47.7584 124.252L93.7861 123.988C99.7266 123.929 104.695 121.171 107.757 116.226C111.343 110.441 111.629 102.544 108.481 96.1231V96.0531C106.532 91.0477 103.542 86.5109 99.7074 82.7414C95.8734 78.972 91.2822 76.0553 86.2363 74.1837C81.1866 72.2733 75.8301 71.2968 70.4293 71.3018Z" fill="#78DAB9"/>
<path d="M112.088 100.917L110.468 99.4952C121.885 86.5674 119.822 78.0028 118.968 75.7943C107.336 76.6508 104.49 83.9495 104.101 85.1454C104.082 85.222 104.058 85.2975 104.031 85.3716L101.968 84.7414C101.968 84.7091 102 84.6229 102.043 84.4936C102.67 82.0481 101.142 72.6432 100.002 67.1327L99.8022 66.1631L100.747 65.883C118.401 60.615 121.269 44.2129 121.501 42.6508C121.355 42.0421 119.881 41.6866 118.515 41.6327L117.078 45.2956L112.185 42.7747L110.749 45.7858L106.553 44.0513C102.13 55.7132 90.6647 57.1029 87.284 57.2591C86.2418 61.0782 80.8359 69.6482 79.6587 71.4527L77.8387 70.2892C80.9386 65.4413 85.3075 57.9001 85.3021 56.2034V55.0722L86.4308 55.1207C87.0086 55.1207 100.612 55.5139 104.884 42.2899L105.246 41.1803L109.68 43.0063L111.186 39.8228L115.939 42.2683L117.019 39.4889H117.726C118.315 39.4619 123.461 39.338 123.667 42.6077V42.7046V42.8016C123.667 42.9847 121.242 61.4445 102.313 67.6606C103.188 71.9142 103.831 76.2117 104.241 80.5345C106.569 77.5503 111.1 74.0221 119.6 73.6073L120.248 73.575L120.578 74.1137C120.821 74.5284 126.502 84.569 112.088 100.917Z" fill="#78DAB9"/>
<path d="M29.8992 102.657C14.9184 86.7937 20.2702 76.5754 20.5025 76.1499L20.8157 75.5843H21.4691C29.9748 75.7082 34.6246 79.0855 37.0547 81.9835C37.3143 77.6506 37.8101 73.3349 38.5399 69.0558C19.4116 63.4914 16.3765 45.1287 16.3333 44.9401V44.8432V44.7462C16.4251 41.4766 21.5771 41.4281 22.1658 41.4281H22.8678L24.0505 44.1698L28.7111 41.5627L30.3312 44.6923L34.6948 42.7209L35.0944 43.7982C39.8144 56.866 53.4018 56.031 53.9959 55.9933L55.1245 55.9072L55.1569 57.0329C55.2055 58.7243 59.5691 65.6514 62.6527 70.0738L60.8814 71.3073C59.7095 69.6375 54.3307 61.8431 53.202 58.1587C49.8159 58.121 38.3184 57.1137 33.5067 45.6134L29.3537 47.5095L27.82 44.5361L23.0137 47.2294L21.4529 43.6312C20.1136 43.712 18.6285 44.116 18.4935 44.7085C18.7851 46.4053 22.047 62.5111 40.025 67.2189L40.9862 67.4667L40.8188 68.4417C39.863 73.9791 38.6587 83.4379 39.3715 85.8672L39.4525 86.1042L37.4112 86.8099C37.4112 86.7344 37.3572 86.659 37.3356 86.5836C36.9035 85.404 33.8091 78.2021 22.155 77.7443C21.3935 80.0066 19.6168 88.6251 31.4545 101.181L29.8992 102.657Z" fill="#78DAB9"/>
<path d="M21.5609 77.5666C21.5609 77.5666 21.7499 85.3825 28.4627 90.0041C34.0845 93.8771 33.323 95.4553 33.323 95.4553L38.3994 87.2893C38.3994 87.2893 35.2348 77.475 21.5609 77.5666Z" fill="#78DAB9"/>
<path d="M119.481 75.3634C119.481 75.3634 119.557 83.1793 113.001 88.0326C107.514 92.094 108.351 93.64 108.351 93.64L103.021 85.6463C103.021 85.6463 105.813 75.7189 119.481 75.3634Z" fill="#78DAB9"/>
<path d="M107.552 93.9631C107.071 93.0797 107.077 90.9951 112.509 86.9605C114.294 85.6138 115.735 83.866 116.714 81.8593C117.694 79.8525 118.185 77.6435 118.147 75.4117L120.308 75.2771C120.308 75.6111 120.745 83.5455 113.8 88.6842C109.588 91.8031 109.545 93.1497 109.545 93.1605C109.532 93.0748 109.503 92.9925 109.458 92.9181L107.552 93.9631Z" fill="#78DAB9"/>
<path opacity="0.36" d="M62.4097 109.266C62.2693 116.371 46.1005 116.641 45.717 109.547C45.8574 102.447 62.0263 102.172 62.4097 109.266Z" fill="#F2A0A8"/>
<path d="M56.3774 44.2237C48.374 44.353 51.3875 31.1451 50.977 27.3691C52.1462 28.2904 53.0024 29.5487 53.4288 30.9728C54.0283 33.219 52.5647 19.8872 57.7491 18.4005C58.7266 18.115 55.9184 19.9465 57.4737 29.0551C58.526 27.8933 59.2248 26.4565 59.4881 24.9129C61.3296 26.5288 62.4097 30.5472 62.1127 34.571C62.1019 34.571 57.9976 40.0491 56.3774 44.2237Z" fill="white"/>
<path d="M56.2586 45.0317C55.5035 45.0619 54.7504 44.9337 54.048 44.6553C53.3457 44.377 52.7098 43.9547 52.1813 43.4157C49.5297 40.6632 49.8591 35.0289 50.0968 30.9189C50.1989 29.7728 50.2241 28.6211 50.1724 27.4715L49.9726 25.6509L51.4577 26.7282C51.9945 27.1465 52.4754 27.6317 52.8888 28.1718C53.0832 24.4012 53.8123 18.7022 57.5115 17.6357C57.6841 17.5654 57.874 17.5489 58.0562 17.5884C58.2384 17.6278 58.4043 17.7213 58.5322 17.8565C58.6689 18.0371 58.7473 18.2549 58.757 18.481C58.7666 18.7072 58.7071 18.9308 58.5862 19.1224C58.2784 19.898 57.4251 22.085 57.976 26.9329C58.3312 26.2794 58.5671 25.568 58.6726 24.8321L58.8616 23.3131L60.0119 24.3204C62.0371 26.0926 63.2522 30.3372 62.912 34.6464V34.8834L62.7715 35.072C62.7337 35.1258 58.7158 40.507 57.1551 44.5308L56.9607 45.0371H56.4207L56.2586 45.0317ZM51.7979 29.4107C51.7979 29.9116 51.7493 30.4503 51.7169 31.0267C51.4901 34.8403 51.1768 40.0653 53.337 42.3384C53.9988 43.001 54.8894 43.3863 55.8266 43.4157C57.4089 39.6829 60.5736 35.282 61.2972 34.2963C61.4755 31.3714 60.8976 28.468 59.8499 26.6905C59.4312 27.7696 58.8201 28.7642 58.0462 29.6262L56.9337 30.7843L56.6637 29.2006C55.886 24.649 56.1668 21.8533 56.5557 20.1889C54.6763 22.5267 54.4981 28.0102 54.4387 30.0194C54.4009 31.3768 54.3847 31.9424 53.6286 32.0286C53.2938 32.0663 52.851 31.9478 52.6458 31.1775C52.4681 30.5439 52.1812 29.9461 51.7979 29.4107V29.4107Z" fill="#78DAB9"/>
<path d="M83.9196 47.838C84.1788 51.2154 89.671 32.6318 86.6522 24.6381C82.6505 32.4432 83.5901 27.7031 83.5901 27.7031C84.2814 20.4689 82.3156 19.2462 80.8899 15.3624C79.2158 10.8593 80.4417 6.74395 77.9359 2.97336C78.1519 6.04908 76.3644 18.0557 75.5597 15.5887C74.755 13.1216 73.2429 12.3891 73.2429 12.3891C72.6219 17.6356 71.288 19.7148 71.288 19.7148C65.8174 26.8628 69.2142 32.4756 69.2142 32.4756C69.2142 32.4756 82.6721 31.5598 83.9196 47.838Z" fill="white"/>
<path d="M84.0816 49.0554C83.9768 49.0532 83.873 49.0351 83.7738 49.0015C83.5719 48.9034 83.4023 48.75 83.2846 48.5592C83.167 48.3684 83.1063 48.1482 83.1095 47.9242V47.9242C81.943 32.6426 69.7975 33.2728 69.2574 33.3051L68.766 33.3374L68.5122 32.9173C68.361 32.6695 64.9047 26.7658 70.6021 19.2785C70.7317 19.063 71.8766 17 72.4275 12.3191L72.5625 11.1879L73.5886 11.6835C74.5267 12.2347 75.2788 13.0523 75.7487 14.032C76.4184 11.3064 77.2608 5.30576 77.1042 3.04879L76.8936 0L78.5894 2.54246C80.1231 4.8479 80.3607 7.29879 80.5983 9.69581C80.7043 11.5286 81.0511 13.3396 81.6298 15.0824C81.97 15.9981 82.348 16.7684 82.7099 17.5171C83.79 19.7525 84.8322 21.8748 84.465 26.9597C84.8268 26.3564 85.3075 25.4946 85.9339 24.2665L86.7656 22.6505L87.4136 24.3634C90.1138 31.4575 86.2903 47.2294 84.7782 48.7538C84.5949 48.9419 84.3445 49.0502 84.0816 49.0554V49.0554ZM69.7111 31.6891C72.2061 31.7268 82.4074 32.6964 84.4596 45.5003C85.7179 41.4065 87.5054 32.5241 86.4146 26.8197C84.7944 29.7446 84.1518 30.1432 83.3957 29.8846C82.7315 29.653 82.5317 28.9043 82.7855 27.59C83.2769 22.3865 82.3804 20.5497 81.2518 18.2227C80.828 17.3753 80.4477 16.5069 80.1123 15.621C79.4735 13.749 79.092 11.7993 78.9782 9.82509C78.8943 8.76737 78.7501 7.71529 78.5461 6.67395C78.4219 7.96134 78.2437 9.3403 78.0547 10.563C77.1366 16.4883 76.4832 16.6283 75.9539 16.7307C75.7541 16.7684 75.0737 16.8222 74.7605 15.858C74.5565 15.1997 74.2425 14.5805 73.8316 14.0266C73.1457 18.3143 72.0224 20.0865 71.9576 20.1727L71.9198 20.2265C67.6373 25.8555 69.1008 30.3533 69.7111 31.6891Z" fill="#78DAB9"/>
<path d="M66.8002 39.058C67.0919 35.1797 65.7634 36.2193 65.4015 39.2411C64.87 44.0596 64.9444 48.9255 65.623 53.7256C65.623 54.5174 66.6706 57.7817 67.0379 55.7132C66.8651 50.2459 66.2602 44.5631 66.8002 39.058Z" fill="#78DAB9"/>
<path d="M66.6976 56.6612H66.6598C65.893 56.6073 65.3637 54.1672 65.3529 53.7363C64.6706 48.9166 64.5963 44.0307 65.1315 39.1926C65.3097 37.7167 65.7795 36.2569 66.433 36.2569H66.4762C66.6706 36.2569 67.2755 36.3377 67.0702 39.0633C66.676 43.0547 66.892 47.1916 67.1027 51.1938C67.1783 52.6697 67.2593 54.1995 67.3079 55.6808V55.7347C67.2593 56.0202 67.1405 56.6612 66.6976 56.6612ZM66.4114 36.8386C66.217 37.0164 65.8714 37.8298 65.6661 39.2734C65.1375 44.0688 65.2137 48.9113 65.893 53.6878C65.9897 54.5246 66.2522 55.3339 66.6652 56.0687C66.7114 55.9469 66.744 55.8205 66.7624 55.6916C66.7192 54.2211 66.6382 52.7075 66.5626 51.2423C66.352 47.2239 66.136 43.0924 66.5572 39.0364C66.649 37.4581 66.4816 36.9733 66.4114 36.8386Z" fill="white"/>
<path d="M66.8002 39.058C67.0919 35.1797 65.7634 36.2193 65.4015 39.2411C64.87 44.0596 64.9444 48.9255 65.623 53.7256C65.623 54.5174 66.6706 57.7817 67.0379 55.7132C66.8651 50.2459 66.2602 44.5631 66.8002 39.058Z" fill="#78DAB9"/>
<path d="M66.6976 56.6612H66.6598C65.893 56.6073 65.3637 54.1672 65.3529 53.7363C64.6706 48.9166 64.5963 44.0307 65.1315 39.1926C65.3097 37.7167 65.7795 36.2569 66.433 36.2569H66.4762C66.6706 36.2569 67.2755 36.3377 67.0702 39.0633C66.676 43.0547 66.892 47.1916 67.1027 51.1938C67.1783 52.6697 67.2593 54.1995 67.3079 55.6808V55.7347C67.2593 56.0202 67.1405 56.6612 66.6976 56.6612ZM66.4114 36.8386C66.217 37.0164 65.8714 37.8298 65.6661 39.2734C65.1375 44.0688 65.2137 48.9113 65.893 53.6878C65.9897 54.5246 66.2522 55.3339 66.6652 56.0687C66.7114 55.9469 66.744 55.8205 66.7624 55.6916C66.7192 54.2211 66.6382 52.7075 66.5626 51.2423C66.352 47.2239 66.136 43.0924 66.5572 39.0364C66.649 37.4581 66.4816 36.9733 66.4114 36.8386Z" fill="white"/>
<path d="M66.8002 39.058C67.0919 35.1797 65.7634 36.2193 65.4015 39.2411C64.87 44.0596 64.9444 48.9255 65.623 53.7256C65.623 54.5174 66.6706 57.7817 67.0379 55.7132C66.8651 50.2459 66.2602 44.5631 66.8002 39.058Z" fill="#78DAB9"/>
<path d="M66.6976 56.6612H66.6598C65.893 56.6073 65.3637 54.1672 65.3529 53.7363C64.6706 48.9166 64.5963 44.0307 65.1315 39.1926C65.3097 37.7167 65.7795 36.2569 66.433 36.2569H66.4762C66.6706 36.2569 67.2755 36.3377 67.0702 39.0633C66.676 43.0547 66.892 47.1916 67.1027 51.1938C67.1783 52.6697 67.2593 54.1995 67.3079 55.6808V55.7347C67.2593 56.0202 67.1405 56.6612 66.6976 56.6612ZM66.4114 36.8386C66.217 37.0164 65.8714 37.8298 65.6661 39.2734C65.1375 44.0688 65.2137 48.9113 65.893 53.6878C65.9897 54.5246 66.2522 55.3339 66.6652 56.0687C66.7114 55.9469 66.744 55.8205 66.7624 55.6916C66.7192 54.2211 66.6382 52.7075 66.5626 51.2423C66.352 47.2239 66.136 43.0924 66.5572 39.0364C66.649 37.4581 66.4816 36.9733 66.4114 36.8386Z" fill="white"/>
<path d="M66.8002 39.058C67.0919 35.1797 65.7634 36.2193 65.4015 39.2411C64.87 44.0596 64.9444 48.9255 65.623 53.7256C65.623 54.5174 66.6706 57.7817 67.0379 55.7132C66.8651 50.2459 66.2602 44.5631 66.8002 39.058Z" fill="#78DAB9"/>
<path d="M66.6976 56.6612H66.6598C65.893 56.6073 65.3637 54.1672 65.3529 53.7363C64.6706 48.9166 64.5963 44.0307 65.1315 39.1926C65.3097 37.7167 65.7795 36.2569 66.433 36.2569H66.4762C66.6706 36.2569 67.2755 36.3377 67.0702 39.0633C66.676 43.0547 66.892 47.1916 67.1027 51.1938C67.1783 52.6697 67.2593 54.1995 67.3079 55.6808V55.7347C67.2593 56.0202 67.1405 56.6612 66.6976 56.6612ZM66.4114 36.8386C66.217 37.0164 65.8714 37.8298 65.6661 39.2734C65.1375 44.0688 65.2137 48.9113 65.893 53.6878C65.9897 54.5246 66.2522 55.3339 66.6652 56.0687C66.7114 55.9469 66.744 55.8205 66.7624 55.6916C66.7192 54.2211 66.6382 52.7075 66.5626 51.2423C66.352 47.2239 66.136 43.0924 66.5572 39.0364C66.649 37.4581 66.4816 36.9733 66.4114 36.8386Z" fill="white"/>
<path d="M66.8002 39.058C67.0919 35.1797 65.7634 36.2193 65.4015 39.2411C64.87 44.0596 64.9444 48.9255 65.623 53.7256C65.623 54.5174 66.6706 57.7817 67.0379 55.7132C66.8651 50.2459 66.2602 44.5631 66.8002 39.058Z" fill="#78DAB9"/>
<path d="M66.6976 56.6612H66.6598C65.893 56.6073 65.3637 54.1672 65.3529 53.7363C64.6706 48.9166 64.5963 44.0307 65.1315 39.1926C65.3097 37.7167 65.7795 36.2569 66.433 36.2569H66.4762C66.6706 36.2569 67.2755 36.3377 67.0702 39.0633C66.676 43.0547 66.892 47.1916 67.1027 51.1938C67.1783 52.6697 67.2593 54.1995 67.3079 55.6808V55.7347C67.2593 56.0202 67.1405 56.6612 66.6976 56.6612ZM66.4114 36.8386C66.217 37.0164 65.8714 37.8298 65.6661 39.2734C65.1375 44.0688 65.2137 48.9113 65.893 53.6878C65.9897 54.5246 66.2522 55.3339 66.6652 56.0687C66.7114 55.9469 66.744 55.8205 66.7624 55.6916C66.7192 54.2211 66.6382 52.7075 66.5626 51.2423C66.352 47.2239 66.136 43.0924 66.5572 39.0364C66.649 37.4581 66.4816 36.9733 66.4114 36.8386Z" fill="white"/>
<path d="M66.8002 39.058C67.0919 35.1797 65.7634 36.2193 65.4015 39.2411C64.87 44.0596 64.9444 48.9255 65.623 53.7256C65.623 54.5174 66.6706 57.7817 67.0379 55.7132C66.8651 50.2459 66.2602 44.5631 66.8002 39.058Z" fill="#78DAB9"/>
<path d="M66.6976 56.6612H66.6598C65.893 56.6073 65.3637 54.1672 65.3529 53.7363C64.6706 48.9166 64.5963 44.0307 65.1315 39.1926C65.3097 37.7167 65.7795 36.2569 66.433 36.2569H66.4762C66.6706 36.2569 67.2755 36.3377 67.0702 39.0633C66.676 43.0547 66.892 47.1916 67.1027 51.1938C67.1783 52.6697 67.2593 54.1995 67.3079 55.6808V55.7347C67.2593 56.0202 67.1405 56.6612 66.6976 56.6612ZM66.4114 36.8386C66.217 37.0164 65.8714 37.8298 65.6661 39.2734C65.1375 44.0688 65.2137 48.9113 65.893 53.6878C65.9897 54.5246 66.2522 55.3339 66.6652 56.0687C66.7114 55.9469 66.744 55.8205 66.7624 55.6916C66.7192 54.2211 66.6382 52.7075 66.5626 51.2423C66.352 47.2239 66.136 43.0924 66.5572 39.0364C66.649 37.4581 66.4816 36.9733 66.4114 36.8386Z" fill="white"/>
<path d="M66.8002 39.058C67.0919 35.1797 65.7634 36.2193 65.4015 39.2411C64.87 44.0596 64.9444 48.9255 65.623 53.7256C65.623 54.5174 66.6706 57.7817 67.0379 55.7132C66.8651 50.2459 66.2602 44.5631 66.8002 39.058Z" fill="#78DAB9"/>
<path d="M66.6976 56.6612H66.6598C65.893 56.6073 65.3637 54.1672 65.3529 53.7363C64.6706 48.9166 64.5963 44.0307 65.1315 39.1926C65.3097 37.7167 65.7795 36.2569 66.433 36.2569H66.4762C66.6706 36.2569 67.2755 36.3377 67.0702 39.0633C66.676 43.0547 66.892 47.1916 67.1027 51.1938C67.1783 52.6697 67.2593 54.1995 67.3079 55.6808V55.7347C67.2593 56.0202 67.1405 56.6612 66.6976 56.6612ZM66.4114 36.8386C66.217 37.0164 65.8714 37.8298 65.6661 39.2734C65.1375 44.0688 65.2137 48.9113 65.893 53.6878C65.9897 54.5246 66.2522 55.3339 66.6652 56.0687C66.7114 55.9469 66.744 55.8205 66.7624 55.6916C66.7192 54.2211 66.6382 52.7075 66.5626 51.2423C66.352 47.2239 66.136 43.0924 66.5572 39.0364C66.649 37.4581 66.4816 36.9733 66.4114 36.8386Z" fill="white"/>
<path d="M66.8002 39.058C67.0919 35.1797 65.7634 36.2193 65.4015 39.2411C64.87 44.0596 64.9444 48.9255 65.623 53.7256C65.623 54.5174 66.6706 57.7817 67.0379 55.7132C66.8651 50.2459 66.2602 44.5631 66.8002 39.058Z" fill="#78DAB9"/>
<path d="M66.6976 56.6612H66.6598C65.893 56.6073 65.3637 54.1672 65.3529 53.7363C64.6706 48.9166 64.5963 44.0307 65.1315 39.1926C65.3097 37.7167 65.7795 36.2569 66.433 36.2569H66.4762C66.6706 36.2569 67.2755 36.3377 67.0702 39.0633C66.676 43.0547 66.892 47.1916 67.1027 51.1938C67.1783 52.6697 67.2593 54.1995 67.3079 55.6808V55.7347C67.2593 56.0202 67.1405 56.6612 66.6976 56.6612ZM66.4114 36.8386C66.217 37.0164 65.8714 37.8298 65.6661 39.2734C65.1375 44.0688 65.2137 48.9113 65.893 53.6878C65.9897 54.5246 66.2522 55.3339 66.6652 56.0687C66.7114 55.9469 66.744 55.8205 66.7624 55.6916C66.7192 54.2211 66.6382 52.7075 66.5626 51.2423C66.352 47.2239 66.136 43.0924 66.5572 39.0364C66.649 37.4581 66.4816 36.9733 66.4114 36.8386Z" fill="white"/>
<path d="M66.8002 39.058C67.0919 35.1797 65.7634 36.2193 65.4015 39.2411C64.87 44.0596 64.9444 48.9255 65.623 53.7256C65.623 54.5174 66.6706 57.7817 67.0379 55.7132C66.8651 50.2459 66.2602 44.5631 66.8002 39.058Z" fill="#78DAB9"/>
<path d="M66.6976 56.6612H66.6598C65.893 56.6073 65.3637 54.1672 65.3529 53.7363C64.6706 48.9166 64.5963 44.0307 65.1315 39.1926C65.3097 37.7167 65.7795 36.2569 66.433 36.2569H66.4762C66.6706 36.2569 67.2755 36.3377 67.0702 39.0633C66.676 43.0547 66.892 47.1916 67.1027 51.1938C67.1783 52.6697 67.2593 54.1995 67.3079 55.6808V55.7347C67.2593 56.0202 67.1405 56.6612 66.6976 56.6612ZM66.4114 36.8386C66.217 37.0164 65.8714 37.8298 65.6661 39.2734C65.1375 44.0688 65.2137 48.9113 65.893 53.6878C65.9897 54.5246 66.2522 55.3339 66.6652 56.0687C66.7114 55.9469 66.744 55.8205 66.7624 55.6916C66.7192 54.2211 66.6382 52.7075 66.5626 51.2423C66.352 47.2239 66.136 43.0924 66.5572 39.0364C66.649 37.4581 66.4816 36.9733 66.4114 36.8386Z" fill="white"/>
<path d="M66.8002 39.058C67.0919 35.1797 65.7634 36.2193 65.4015 39.2411C64.87 44.0596 64.9444 48.9255 65.623 53.7256C65.623 54.5174 66.6706 57.7817 67.0379 55.7132C66.8651 50.2459 66.2602 44.5631 66.8002 39.058Z" fill="#78DAB9"/>
<path d="M66.6976 56.6612H66.6598C65.893 56.6073 65.3637 54.1672 65.3529 53.7363C64.6706 48.9166 64.5963 44.0307 65.1315 39.1926C65.3097 37.7167 65.7795 36.2569 66.433 36.2569H66.4762C66.6706 36.2569 67.2755 36.3377 67.0702 39.0633C66.676 43.0547 66.892 47.1916 67.1027 51.1938C67.1783 52.6697 67.2593 54.1995 67.3079 55.6808V55.7347C67.2593 56.0202 67.1405 56.6612 66.6976 56.6612ZM66.4114 36.8386C66.217 37.0164 65.8714 37.8298 65.6661 39.2734C65.1375 44.0688 65.2137 48.9113 65.893 53.6878C65.9897 54.5246 66.2522 55.3339 66.6652 56.0687C66.7114 55.9469 66.744 55.8205 66.7624 55.6916C66.7192 54.2211 66.6382 52.7075 66.5626 51.2423C66.352 47.2239 66.136 43.0924 66.5572 39.0364C66.649 37.4581 66.4816 36.9733 66.4114 36.8386Z" fill="white"/>
<path d="M66.8002 39.058C67.0919 35.1797 65.7634 36.2193 65.4015 39.2411C64.87 44.0596 64.9444 48.9255 65.623 53.7256C65.623 54.5174 66.6706 57.7817 67.0379 55.7132C66.8651 50.2459 66.2602 44.5631 66.8002 39.058Z" fill="#78DAB9"/>
<path d="M66.6976 56.6612H66.6598C65.893 56.6073 65.3637 54.1672 65.3529 53.7363C64.6706 48.9166 64.5963 44.0307 65.1315 39.1926C65.3097 37.7167 65.7795 36.2569 66.433 36.2569H66.4762C66.6706 36.2569 67.2755 36.3377 67.0702 39.0633C66.676 43.0547 66.892 47.1916 67.1027 51.1938C67.1783 52.6697 67.2593 54.1995 67.3079 55.6808V55.7347C67.2593 56.0202 67.1405 56.6612 66.6976 56.6612ZM66.4114 36.8386C66.217 37.0164 65.8714 37.8298 65.6661 39.2734C65.1375 44.0688 65.2137 48.9113 65.893 53.6878C65.9897 54.5246 66.2522 55.3339 66.6652 56.0687C66.7114 55.9469 66.744 55.8205 66.7624 55.6916C66.7192 54.2211 66.6382 52.7075 66.5626 51.2423C66.352 47.2239 66.136 43.0924 66.5572 39.0364C66.649 37.4581 66.4816 36.9733 66.4114 36.8386Z" fill="white"/>
<path d="M66.8002 39.058C67.0919 35.1797 65.7634 36.2193 65.4015 39.2411C64.87 44.0596 64.9444 48.9255 65.623 53.7256C65.623 54.5174 66.6706 57.7817 67.0379 55.7132C66.8651 50.2459 66.2602 44.5631 66.8002 39.058Z" fill="#78DAB9"/>
<path d="M66.6976 56.6612H66.6598C65.893 56.6073 65.3637 54.1672 65.3529 53.7363C64.6706 48.9166 64.5963 44.0307 65.1315 39.1926C65.3097 37.7167 65.7795 36.2569 66.433 36.2569H66.4762C66.6706 36.2569 67.2755 36.3377 67.0702 39.0633C66.676 43.0547 66.892 47.1916 67.1027 51.1938C67.1783 52.6697 67.2593 54.1995 67.3079 55.6808V55.7347C67.2593 56.0202 67.1405 56.6612 66.6976 56.6612ZM66.4114 36.8386C66.217 37.0164 65.8714 37.8298 65.6661 39.2734C65.1375 44.0688 65.2137 48.9113 65.893 53.6878C65.9897 54.5246 66.2522 55.3339 66.6652 56.0687C66.7114 55.9469 66.744 55.8205 66.7624 55.6916C66.7192 54.2211 66.6382 52.7075 66.5626 51.2423C66.352 47.2239 66.136 43.0924 66.5572 39.0364C66.649 37.4581 66.4816 36.9733 66.4114 36.8386Z" fill="white"/>
<path d="M66.8002 39.058C67.0919 35.1797 65.7634 36.2193 65.4015 39.2411C64.87 44.0596 64.9444 48.9255 65.623 53.7256C65.623 54.5174 66.6706 57.7817 67.0379 55.7132C66.8651 50.2459 66.2602 44.5631 66.8002 39.058Z" fill="#78DAB9"/>
<path d="M66.6976 56.6612H66.6598C65.893 56.6073 65.3637 54.1672 65.3529 53.7363C64.6706 48.9166 64.5963 44.0307 65.1315 39.1926C65.3097 37.7167 65.7795 36.2569 66.433 36.2569H66.4762C66.6706 36.2569 67.2755 36.3377 67.0702 39.0633C66.676 43.0547 66.892 47.1916 67.1027 51.1938C67.1783 52.6697 67.2593 54.1995 67.3079 55.6808V55.7347C67.2593 56.0202 67.1405 56.6612 66.6976 56.6612ZM66.4114 36.8386C66.217 37.0164 65.8714 37.8298 65.6661 39.2734C65.1375 44.0688 65.2137 48.9113 65.893 53.6878C65.9897 54.5246 66.2522 55.3339 66.6652 56.0687C66.7114 55.9469 66.744 55.8205 66.7624 55.6916C66.7192 54.2211 66.6382 52.7075 66.5626 51.2423C66.352 47.2239 66.136 43.0924 66.5572 39.0364C66.649 37.4581 66.4816 36.9733 66.4114 36.8386Z" fill="white"/>
<path d="M66.8002 39.058C67.0919 35.1797 65.7634 36.2193 65.4015 39.2411C64.87 44.0596 64.9444 48.9255 65.623 53.7256C65.623 54.5174 66.6706 57.7817 67.0379 55.7132C66.8651 50.2459 66.2602 44.5631 66.8002 39.058Z" fill="#78DAB9"/>
<path d="M66.6976 56.6612H66.6598C65.893 56.6073 65.3637 54.1672 65.3529 53.7363C64.6706 48.9166 64.5963 44.0307 65.1315 39.1926C65.3097 37.7167 65.7795 36.2569 66.433 36.2569H66.4762C66.6706 36.2569 67.2755 36.3377 67.0702 39.0633C66.676 43.0547 66.892 47.1916 67.1027 51.1938C67.1783 52.6697 67.2593 54.1995 67.3079 55.6808V55.7347C67.2593 56.0202 67.1405 56.6612 66.6976 56.6612ZM66.4114 36.8386C66.217 37.0164 65.8714 37.8298 65.6661 39.2734C65.1375 44.0688 65.2137 48.9113 65.893 53.6878C65.9897 54.5246 66.2522 55.3339 66.6652 56.0687C66.7114 55.9469 66.744 55.8205 66.7624 55.6916C66.7192 54.2211 66.6382 52.7075 66.5626 51.2423C66.352 47.2239 66.136 43.0924 66.5572 39.0364C66.649 37.4581 66.4816 36.9733 66.4114 36.8386Z" fill="white"/>
<path d="M66.8002 39.058C67.0919 35.1797 65.7634 36.2193 65.4015 39.2411C64.87 44.0596 64.9444 48.9255 65.623 53.7256C65.623 54.5174 66.6706 57.7817 67.0379 55.7132C66.8651 50.2459 66.2602 44.5631 66.8002 39.058Z" fill="#78DAB9"/>
<path d="M66.6976 56.6612H66.6598C65.893 56.6073 65.3637 54.1672 65.3529 53.7363C64.6706 48.9166 64.5963 44.0307 65.1315 39.1926C65.3097 37.7167 65.7795 36.2569 66.433 36.2569H66.4762C66.6706 36.2569 67.2755 36.3377 67.0702 39.0633C66.676 43.0547 66.892 47.1916 67.1027 51.1938C67.1783 52.6697 67.2593 54.1995 67.3079 55.6808V55.7347C67.2593 56.0202 67.1405 56.6612 66.6976 56.6612ZM66.4114 36.8386C66.217 37.0164 65.8714 37.8298 65.6661 39.2734C65.1375 44.0688 65.2137 48.9113 65.893 53.6878C65.9897 54.5246 66.2522 55.3339 66.6652 56.0687C66.7114 55.9469 66.744 55.8205 66.7624 55.6916C66.7192 54.2211 66.6382 52.7075 66.5626 51.2423C66.352 47.2239 66.136 43.0924 66.5572 39.0364C66.649 37.4581 66.4816 36.9733 66.4114 36.8386Z" fill="white"/>
<path d="M66.8002 39.058C67.0919 35.1797 65.7634 36.2193 65.4015 39.2411C64.87 44.0596 64.9444 48.9255 65.623 53.7256C65.623 54.5174 66.6706 57.7817 67.0379 55.7132C66.8651 50.2459 66.2602 44.5631 66.8002 39.058Z" fill="#78DAB9"/>
<path d="M66.6976 56.6612H66.6598C65.893 56.6073 65.3637 54.1672 65.3529 53.7363C64.6706 48.9166 64.5963 44.0307 65.1315 39.1926C65.3097 37.7167 65.7795 36.2569 66.433 36.2569H66.4762C66.6706 36.2569 67.2755 36.3377 67.0702 39.0633C66.676 43.0547 66.892 47.1916 67.1027 51.1938C67.1783 52.6697 67.2593 54.1995 67.3079 55.6808V55.7347C67.2593 56.0202 67.1405 56.6612 66.6976 56.6612ZM66.4114 36.8386C66.217 37.0164 65.8714 37.8298 65.6661 39.2734C65.1375 44.0688 65.2137 48.9113 65.893 53.6878C65.9897 54.5246 66.2522 55.3339 66.6652 56.0687C66.7114 55.9469 66.744 55.8205 66.7624 55.6916C66.7192 54.2211 66.6382 52.7075 66.5626 51.2423C66.352 47.2239 66.136 43.0924 66.5572 39.0364C66.649 37.4581 66.4816 36.9733 66.4114 36.8386Z" fill="white"/>
<path d="M66.8002 39.058C67.0919 35.1797 65.7634 36.2193 65.4015 39.2411C64.87 44.0596 64.9444 48.9255 65.623 53.7256C65.623 54.5174 66.6706 57.7817 67.0379 55.7132C66.8651 50.2459 66.2602 44.5631 66.8002 39.058Z" fill="#78DAB9"/>
<path d="M66.6976 56.6612H66.6598C65.893 56.6073 65.3637 54.1672 65.3529 53.7363C64.6706 48.9166 64.5963 44.0307 65.1315 39.1926C65.3097 37.7167 65.7795 36.2569 66.433 36.2569H66.4762C66.6706 36.2569 67.2755 36.3377 67.0702 39.0633C66.676 43.0547 66.892 47.1916 67.1027 51.1938C67.1783 52.6697 67.2593 54.1995 67.3079 55.6808V55.7347C67.2593 56.0202 67.1405 56.6612 66.6976 56.6612ZM66.4114 36.8386C66.217 37.0164 65.8714 37.8298 65.6661 39.2734C65.1375 44.0688 65.2137 48.9113 65.893 53.6878C65.9897 54.5246 66.2522 55.3339 66.6652 56.0687C66.7114 55.9469 66.744 55.8205 66.7624 55.6916C66.7192 54.2211 66.6382 52.7075 66.5626 51.2423C66.352 47.2239 66.136 43.0924 66.5572 39.0364C66.649 37.4581 66.4816 36.9733 66.4114 36.8386Z" fill="white"/>
<path d="M66.8002 39.058C67.0919 35.1797 65.7634 36.2193 65.4015 39.2411C64.87 44.0596 64.9444 48.9255 65.623 53.7256C65.623 54.5174 66.6706 57.7817 67.0379 55.7132C66.8651 50.2459 66.2602 44.5631 66.8002 39.058Z" fill="#78DAB9"/>
<path d="M66.6976 56.6612H66.6598C65.893 56.6073 65.3637 54.1672 65.3529 53.7363C64.6706 48.9166 64.5963 44.0307 65.1315 39.1926C65.3097 37.7167 65.7795 36.2569 66.433 36.2569H66.4762C66.6706 36.2569 67.2755 36.3377 67.0702 39.0633C66.676 43.0547 66.892 47.1916 67.1027 51.1938C67.1783 52.6697 67.2593 54.1995 67.3079 55.6808V55.7347C67.2593 56.0202 67.1405 56.6612 66.6976 56.6612ZM66.4114 36.8386C66.217 37.0164 65.8714 37.8298 65.6661 39.2734C65.1375 44.0688 65.2137 48.9113 65.893 53.6878C65.9897 54.5246 66.2522 55.3339 66.6652 56.0687C66.7114 55.9469 66.744 55.8205 66.7624 55.6916C66.7192 54.2211 66.6382 52.7075 66.5626 51.2423C66.352 47.2239 66.136 43.0924 66.5572 39.0364C66.649 37.4581 66.4816 36.9733 66.4114 36.8386Z" fill="white"/>
<path d="M66.8002 39.058C67.0919 35.1797 65.7634 36.2193 65.4015 39.2411C64.87 44.0596 64.9444 48.9255 65.623 53.7256C65.623 54.5174 66.6706 57.7817 67.0379 55.7132C66.8651 50.2459 66.2602 44.5631 66.8002 39.058Z" fill="#78DAB9"/>
<path d="M66.6976 56.6612H66.6598C65.893 56.6073 65.3637 54.1672 65.3529 53.7363C64.6706 48.9166 64.5963 44.0307 65.1315 39.1926C65.3097 37.7167 65.7795 36.2569 66.433 36.2569H66.4762C66.6706 36.2569 67.2755 36.3377 67.0702 39.0633C66.676 43.0547 66.892 47.1916 67.1027 51.1938C67.1783 52.6697 67.2593 54.1995 67.3079 55.6808V55.7347C67.2593 56.0202 67.1405 56.6612 66.6976 56.6612ZM66.4114 36.8386C66.217 37.0164 65.8714 37.8298 65.6661 39.2734C65.1375 44.0688 65.2137 48.9113 65.893 53.6878C65.9897 54.5246 66.2522 55.3339 66.6652 56.0687C66.7114 55.9469 66.744 55.8205 66.7624 55.6916C66.7192 54.2211 66.6382 52.7075 66.5626 51.2423C66.352 47.2239 66.136 43.0924 66.5572 39.0364C66.649 37.4581 66.4816 36.9733 66.4114 36.8386Z" fill="white"/>
<path d="M66.8002 39.058C67.0919 35.1797 65.7634 36.2193 65.4015 39.2411C64.87 44.0596 64.9444 48.9255 65.623 53.7256C65.623 54.5174 66.6706 57.7817 67.0379 55.7132C66.8651 50.2459 66.2602 44.5631 66.8002 39.058Z" fill="#78DAB9"/>
<path d="M66.6976 56.6612H66.6598C65.893 56.6073 65.3637 54.1672 65.3529 53.7363C64.6706 48.9166 64.5963 44.0307 65.1315 39.1926C65.3097 37.7167 65.7795 36.2569 66.433 36.2569H66.4762C66.6706 36.2569 67.2755 36.3377 67.0702 39.0633C66.676 43.0547 66.892 47.1916 67.1027 51.1938C67.1783 52.6697 67.2593 54.1995 67.3079 55.6808V55.7347C67.2593 56.0202 67.1405 56.6612 66.6976 56.6612ZM66.4114 36.8386C66.217 37.0164 65.8714 37.8298 65.6661 39.2734C65.1375 44.0688 65.2137 48.9113 65.893 53.6878C65.9897 54.5246 66.2522 55.3339 66.6652 56.0687C66.7114 55.9469 66.744 55.8205 66.7624 55.6916C66.7192 54.2211 66.6382 52.7075 66.5626 51.2423C66.352 47.2239 66.136 43.0924 66.5572 39.0364C66.649 37.4581 66.4816 36.9733 66.4114 36.8386Z" fill="white"/>
<path d="M82.1644 38.1799C77.9305 31.1343 67.3619 29.3029 61.0002 34.6517C49.2111 44.019 57.76 63.4267 72.7245 60.6096C82.6721 58.9721 87.8619 46.4699 82.1644 38.1799Z" fill="#78DAB9"/>
<path d="M77.1475 35.7722C85.3939 42.236 81.943 46.9385 78.5786 54.7221C79.2745 54.3918 79.9427 54.0063 80.5767 53.5694C79.5615 55.1136 78.2033 56.4038 76.6074 57.3399C77.8927 54.345 78.503 52.4489 80.0907 48.3336C81.5758 44.1052 81.3436 41.6974 79.475 38.7563C79.3517 38.5153 79.1811 38.3015 78.9732 38.1275C78.7654 37.9535 78.5247 37.823 78.2654 37.7436C77.9305 37.5982 78.0925 38.2123 78.5462 39.7744L77.8981 39.6397C77.1367 36.4078 76.6182 35.4113 77.1475 35.7722Z" fill="white"/>
<path d="M64.2729 57.717C61.7293 53.9464 59.2991 49.9173 58.111 45.4842C58.3378 48.2528 58.6024 50.8276 59.7311 53.1654C56.6421 47.7788 57.1551 42.8932 61.173 37.3181C58.9642 40.4423 60.6168 44.7624 61.47 47.9404C61.1218 43.6277 61.8859 39.2978 63.6896 35.3628C63.884 35.2497 63.9812 35.1904 64.1865 35.0827C61.5726 43.0063 61.7023 49.9927 64.4997 57.814L64.2729 57.717Z" fill="white"/>
<path d="M68.442 53.9464C68.442 55.4062 68.7012 58.6974 67.7075 58.9236C66.46 58.6812 66.2332 58.7135 65.4394 57.0868C63.1496 51.7703 63.2792 45.1879 64.0407 39.4835C64.3755 37.6198 65.1207 35.0665 66.2818 34.2047C66.7193 34.07 66.9569 34.0054 67.3997 33.9084C67.6967 33.8438 67.8912 34.2424 68.0424 35.2066C68.2149 36.4411 68.271 37.6891 68.2098 38.9341C68.118 43.949 68.1396 48.9369 68.442 53.9464Z" fill="white"/>
<path d="M71.2178 59.1067C70.7533 59.1444 70.5049 59.1552 70.0351 59.1552C69.9757 57.2699 69.9433 56.2087 69.8947 53.9679C70.4833 53.9679 70.7804 53.9679 71.3636 53.9248C71.3312 56.1656 71.2988 57.2214 71.2178 59.1067Z" fill="white"/>
<path d="M72.3789 58.9559C72.611 55.4956 73.2955 52.0803 74.4148 48.7969C75.6785 44.7031 75.8783 42.0798 75.3221 39.1711C75.1439 38.25 74.8361 36.8926 74.1934 36.4778C72.9675 36.1223 73.1565 36.6125 73.2591 38.9287C72.9783 38.9287 72.8379 38.9287 72.5517 38.8856C72.3573 35.1689 72.4599 33.7953 73.0917 33.9461C73.5292 34.0592 73.7452 34.1239 74.1718 34.2693C75.3329 35.1042 76.2078 37.5551 76.6344 39.365C78.3085 44.0082 74.3986 51.9911 73.8964 56.2572C74.7239 56.1079 75.5383 55.8936 76.332 55.6162C76.1362 56.3799 75.8964 57.1317 75.6137 57.8678C74.6019 58.4036 73.5093 58.7711 72.3789 58.9559V58.9559Z" fill="white"/>
<path d="M66.6976 56.6612H66.6598C65.893 56.6073 65.3637 54.1672 65.3529 53.7363C64.6706 48.9166 64.5963 44.0307 65.1315 39.1926C65.3097 37.7167 65.7795 36.2569 66.433 36.2569H66.4762C66.6706 36.2569 67.2755 36.3377 67.0702 39.0633C66.676 43.0547 66.892 47.1916 67.1027 51.1938C67.1783 52.6697 67.2593 54.1995 67.3079 55.6808V55.7347C67.2593 56.0202 67.1405 56.6612 66.6976 56.6612ZM66.4114 36.8386C66.217 37.0164 65.8714 37.8298 65.6661 39.2734C65.1375 44.0688 65.2137 48.9113 65.893 53.6878C65.9897 54.5246 66.2522 55.3339 66.6652 56.0687C66.7114 55.9469 66.744 55.8205 66.7624 55.6916C66.7192 54.2211 66.6382 52.7075 66.5626 51.2423C66.352 47.2239 66.136 43.0924 66.5572 39.0364C66.649 37.4581 66.4816 36.9733 66.4114 36.8386Z" fill="white"/>
<path d="M66.6976 56.6612H66.6598C65.893 56.6073 65.3637 54.1672 65.3529 53.7363C64.6706 48.9166 64.5963 44.0307 65.1315 39.1926C65.3097 37.7167 65.7795 36.2569 66.433 36.2569H66.4762C66.6706 36.2569 67.2755 36.3377 67.0702 39.0633C66.676 43.0547 66.892 47.1916 67.1027 51.1938C67.1783 52.6697 67.2593 54.1995 67.3079 55.6808V55.7347C67.2593 56.0202 67.1405 56.6612 66.6976 56.6612ZM66.4114 36.8386C66.217 37.0164 65.8714 37.8298 65.6661 39.2734C65.1375 44.0688 65.2137 48.9113 65.893 53.6878C65.9897 54.5246 66.2522 55.3339 66.6652 56.0687C66.7114 55.9469 66.744 55.8205 66.7624 55.6916C66.7192 54.2211 66.6382 52.7075 66.5626 51.2423C66.352 47.2239 66.136 43.0924 66.5572 39.0364C66.649 37.4581 66.4816 36.9733 66.4114 36.8386Z" fill="white"/>
<path d="M66.6976 56.6612H66.6598C65.893 56.6073 65.3637 54.1672 65.3529 53.7363C64.6706 48.9166 64.5963 44.0307 65.1315 39.1926C65.3097 37.7167 65.7795 36.2569 66.433 36.2569H66.4762C66.6706 36.2569 67.2755 36.3377 67.0702 39.0633C66.676 43.0547 66.892 47.1916 67.1027 51.1938C67.1783 52.6697 67.2593 54.1995 67.3079 55.6808V55.7347C67.2593 56.0202 67.1405 56.6612 66.6976 56.6612ZM66.4114 36.8386C66.217 37.0164 65.8714 37.8298 65.6661 39.2734C65.1375 44.0688 65.2137 48.9113 65.893 53.6878C65.9897 54.5246 66.2522 55.3339 66.6652 56.0687C66.7114 55.9469 66.744 55.8205 66.7624 55.6916C66.7192 54.2211 66.6382 52.7075 66.5626 51.2423C66.352 47.2239 66.136 43.0924 66.5572 39.0364C66.649 37.4581 66.4816 36.9733 66.4114 36.8386Z" fill="white"/>
<path d="M66.6102 39.0215C66.9018 35.1432 65.5734 36.1828 65.2115 39.2046C64.68 44.0231 64.7544 48.889 65.4329 53.6891C65.4329 54.4809 66.4806 57.7452 66.8478 55.6767C66.675 50.2094 66.0702 44.5265 66.6102 39.0215Z" fill="#78DAB9"/>
<path d="M38.9773 87.0522C46.4569 78.4337 66.1738 68.7702 70.4347 99.6729C70.4467 99.7795 70.4976 99.8781 70.5778 99.9497C70.658 100.021 70.7619 100.061 70.8695 100.061C70.9771 100.061 71.0809 100.021 71.1611 99.9497C71.2413 99.8781 71.2923 99.7795 71.3042 99.6729C71.9793 95.2074 73.7506 88.1133 75.0197 85.0376C77.1259 79.9257 84.9997 72.7347 103.021 85.7432C88.6341 65.5867 52.3757 64.4286 38.9773 87.0522Z" fill="#78DAB9"/>
<path d="M55.5242 89.0345C55.5242 89.0345 55.886 91.6685 60.2063 88.4096C62.4583 86.3143 60.5142 85.9641 58.9265 85.9695C57.3387 85.9749 55.2164 87.2623 55.5242 89.0345Z" fill="#78DAB9"/>
<path d="M17.4134 44.7731C17.4134 44.7731 20.4917 63.0874 39.7603 68.28C39.7603 68.28 37.4652 81.4448 37.8756 87.6716C37.8756 87.6716 50.221 72.1476 62.1289 71.0433C62.1289 71.0433 54.6979 60.8089 54.0607 57.1083C54.0607 57.1083 41.0564 59.6238 34.0791 44.1805L29.7588 45.915L28.2683 43.0494L23.4673 45.5434L22.236 42.6885C22.236 42.6885 18.4341 41.7781 17.4134 44.7731Z" fill="#78DAB9"/>
<path d="M122.565 42.9901C122.565 42.9901 120.113 61.3906 101.034 67.2297C101.034 67.2297 103.782 80.3082 103.583 86.5189C103.583 86.5189 90.7133 71.4366 78.773 70.7309C78.773 70.7309 85.8475 60.2325 86.3336 56.5266C86.3336 56.5266 99.4188 58.6004 105.861 42.9524L110.301 44.5522L111.683 41.6327L116.544 43.9597L117.678 41.0671C117.678 41.0671 121.447 40.0275 122.565 42.9901Z" fill="#78DAB9"/>
<path d="M56.2965 72.5784C56.2965 72.5784 51.2741 59.893 50.2588 61.3097C47.6126 64.9887 51.8195 74.5553 51.8195 74.5553L56.2965 72.5784Z" fill="white"/>
<path d="M85.3885 72.0829C85.3885 72.0829 89.9734 59.2359 91.0373 60.6149C93.8077 64.2023 89.9302 73.9035 89.9302 73.9035L85.3885 72.0829Z" fill="white"/>
<path opacity="0.36" d="M79.6046 108.976C79.9881 116.07 96.1569 115.79 96.2973 108.69C95.9139 101.596 79.7451 101.871 79.6046 108.976Z" fill="#F2A0A8"/>
<path d="M85.3291 87.1869C85.3291 87.1869 86.6144 89.5139 81.1978 89.4762C78.1357 89.1422 79.4858 87.704 80.7603 86.7829C82.0348 85.8618 84.4866 85.5709 85.3291 87.1869Z" fill="#78DAB9"/>
<path d="M21.7338 79.4409C21.7338 79.4409 19.471 87.6285 30.1638 99.8452C30.8547 97.6625 31.7329 95.5431 32.7884 93.5106C29.397 88.8782 23.894 88.652 21.7338 79.4409Z" fill="white"/>
<path d="M119.546 77.8143C119.546 77.8143 122.122 85.8942 111.678 98.4933C110.898 96.3327 109.931 94.2439 108.788 92.2503C112.067 87.5209 117.672 87.09 119.546 77.8143Z" fill="white"/>
<path d="M62.4097 100.535C62.4097 108.345 56.1128 108.448 55.8536 100.642C55.8428 92.8319 62.1505 92.7242 62.4097 100.535Z" fill="#78DAB9"/>
<path d="M86.8358 99.7914C86.8358 107.602 80.5389 107.704 80.2797 99.8991C80.2743 92.1102 86.5766 91.9809 86.8358 99.7914Z" fill="#78DAB9"/>
<path d="M95.2875 129.337C94.851 128.169 94.8336 126.887 95.2383 125.709C95.643 124.53 96.4447 123.528 97.507 122.873C101.876 120.18 108.794 116.899 110.527 121.72C110.527 121.72 111.635 124.225 105.937 124.413C105.937 124.413 115.96 122.059 113.968 128.685C111.975 135.31 105.467 136.091 105.467 136.091L102.875 136.63C101.602 136.888 100.279 136.682 99.1449 136.049C98.0113 135.417 97.1427 134.4 96.697 133.183L95.2875 129.337Z" fill="white"/>
<path d="M101.763 137.826C100.436 137.825 99.1412 137.418 98.0538 136.66C96.9663 135.902 96.1383 134.829 95.6817 133.587L94.2722 129.724C93.7631 128.326 93.7502 126.796 94.2357 125.389C94.7212 123.982 95.6757 122.784 96.94 121.995C102.168 118.763 106.121 117.61 108.756 118.52C109.406 118.753 109.993 119.131 110.474 119.625C110.955 120.119 111.317 120.716 111.532 121.37C111.752 121.94 111.752 122.572 111.532 123.142C112.585 123.294 113.564 123.773 114.329 124.51C115.355 125.588 115.582 127.123 115.004 129.04C112.909 136.043 106.364 137.12 105.651 137.196L103.096 137.734C102.656 137.81 102.209 137.84 101.763 137.826V137.826ZM96.3027 128.965L97.7122 132.822C98.0642 133.8 98.7586 134.618 99.6676 135.126C100.577 135.634 101.639 135.797 102.659 135.585L105.359 135.046C107.123 134.763 108.77 133.989 110.113 132.815C111.456 131.64 112.44 130.112 112.952 128.405C113.292 127.279 113.233 126.46 112.774 125.975C112.077 125.237 110.5 125.049 108.94 125.119C107.972 125.366 106.979 125.496 105.98 125.507L105.699 123.384C106.638 123.173 107.591 123.037 108.551 122.975C108.906 122.893 109.228 122.705 109.474 122.436C109.505 122.394 109.526 122.346 109.537 122.295C109.547 122.244 109.546 122.191 109.534 122.14C109.435 121.772 109.249 121.433 108.992 121.152C108.734 120.871 108.413 120.656 108.054 120.524C106.169 119.867 102.54 121.063 98.0849 123.799C97.2394 124.323 96.6013 125.123 96.2786 126.062C95.9558 127.001 95.9682 128.023 96.3135 128.954L96.3027 128.965Z" fill="#78DAB9"/>
<path d="M44.6315 128.577C44.9625 127.381 44.8691 126.107 44.3673 124.972C43.8655 123.836 42.9859 122.908 41.8773 122.345C37.2978 120.029 30.1314 117.335 28.8083 122.286C28.8083 122.286 27.9172 124.877 33.6093 124.58C33.6093 124.58 23.4241 123.078 25.9677 129.514C28.5113 135.951 35.062 136.183 35.062 136.183L37.6866 136.49C38.976 136.64 40.2767 136.325 41.3528 135.6C42.4288 134.876 43.2089 133.791 43.5515 132.542L44.6315 128.577Z" fill="white"/>
<path d="M38.34 137.605C38.0801 137.605 37.8204 137.589 37.5624 137.557L34.9702 137.255C34.2735 137.217 27.6418 136.689 24.9632 129.908C24.2234 128.049 24.326 126.509 25.2548 125.34C25.9514 124.532 26.8876 123.966 27.928 123.724C27.6565 123.175 27.6007 122.545 27.7714 121.957C27.9293 121.287 28.2392 120.661 28.6773 120.129C29.1155 119.597 29.6702 119.172 30.2988 118.887C32.8208 117.761 36.8819 118.59 42.3634 121.359C43.6918 122.038 44.7458 123.152 45.3485 124.515C45.9513 125.877 46.0661 127.404 45.6738 128.841V128.841L44.5937 132.8C44.2274 134.176 43.4158 135.393 42.285 136.262C41.1542 137.131 39.7674 137.603 38.34 137.605ZM30.6931 125.507C29.1323 125.566 27.577 125.884 26.9452 126.676C26.5293 127.214 26.5401 128.022 26.9722 129.116C29.2295 134.826 35.0404 135.095 35.0998 135.1H35.1862L37.8108 135.407C38.8429 135.523 39.8828 135.269 40.7438 134.689C41.6048 134.11 42.2307 133.243 42.5092 132.245L43.5893 128.281C43.8546 127.324 43.7802 126.304 43.3787 125.395C42.9772 124.486 42.2732 123.744 41.3859 123.293C36.7253 120.939 33.0044 120.061 31.1845 120.864C30.838 121.017 30.534 121.252 30.2988 121.549C30.0636 121.845 29.9042 122.194 29.8344 122.566V122.647C29.8381 122.734 29.8725 122.818 29.9316 122.884C30.2007 123.14 30.5451 123.305 30.9145 123.352C31.8768 123.336 32.839 123.392 33.7929 123.519L33.6903 125.674C32.6881 125.737 31.6819 125.681 30.6931 125.507V125.507Z" fill="#78DAB9"/>
<path d="M83.9358 109.945C81.7707 109.917 79.6743 109.183 77.9655 107.857C76.2566 106.531 75.0288 104.684 74.4688 102.598C72.9945 97.3138 75.9702 91.8572 81.1006 90.4351C82.3319 90.0911 83.6207 90.0011 84.8882 90.1705C86.1556 90.34 87.3751 90.7655 88.4721 91.4209C90.7391 92.7478 92.3947 94.9077 93.0841 97.4377C94.553 102.722 91.5774 108.178 86.447 109.606C85.6292 109.832 84.7844 109.946 83.9358 109.945V109.945ZM83.628 91.1677C82.8724 91.1669 82.1203 91.2684 81.3922 91.4694C76.8342 92.7352 74.1934 97.5993 75.5057 102.313C76.818 107.026 81.5974 109.854 86.1553 108.566C90.7133 107.279 93.3541 102.436 92.0418 97.7232C91.4254 95.4618 89.9491 93.5293 87.9267 92.3366C86.6236 91.5724 85.1396 91.1689 83.628 91.1677V91.1677Z" fill="#78DAB9"/>
<path d="M61.227 114.965C61.0523 114.965 60.8825 114.908 60.7428 114.804C60.6031 114.699 60.501 114.552 60.4518 114.385C60.4026 114.218 60.4089 114.039 60.4698 113.876C60.5307 113.713 60.6428 113.573 60.7896 113.479C61.2594 113.177 72.4005 106.142 80.0475 112.159C80.1362 112.223 80.2111 112.304 80.2675 112.397C80.324 112.491 80.3608 112.595 80.3759 112.703C80.391 112.811 80.3839 112.921 80.3552 113.026C80.3265 113.132 80.2766 113.23 80.2087 113.316C80.1408 113.401 80.0562 113.472 79.9601 113.524C79.8639 113.576 79.7582 113.609 79.6492 113.619C79.5403 113.629 79.4304 113.617 79.3262 113.584C79.222 113.55 79.1257 113.496 79.043 113.425C72.3087 108.13 61.7617 114.771 61.6644 114.836C61.5341 114.92 61.3822 114.965 61.227 114.965V114.965Z" fill="#78DAB9"/>
<path d="M96.7996 115.299C96.7045 115.298 96.6114 115.272 96.5296 115.224C96.4972 115.224 93.6134 113.468 94.6448 109.622C95.4711 106.562 92.5279 104.591 92.4037 104.505C92.2867 104.425 92.2057 104.303 92.1783 104.164C92.1509 104.025 92.1792 103.882 92.2572 103.764C92.3351 103.645 92.4564 103.563 92.5949 103.533C92.7335 103.503 92.8781 103.529 92.9977 103.605C93.0355 103.605 96.7186 106.083 95.6979 109.902C94.8825 112.935 96.994 114.244 97.0804 114.297C97.2036 114.37 97.2927 114.489 97.3281 114.627C97.3636 114.766 97.3425 114.913 97.2694 115.035C97.2212 115.117 97.1524 115.184 97.0699 115.23C96.9874 115.276 96.8942 115.3 96.7996 115.299Z" fill="#78DAB9"/>
<path d="M20.02 161.88C19.1 161.96 18.12 162.04 17.08 162.12V160.54H20.2V159.36H17.08V158.04H15.76V159.36H13.44C13.94 158.7 14.42 157.94 14.86 157.1H20.34V155.82H15.46C15.62 155.46 15.76 155.1 15.9 154.74L14.46 154.5C14.3 154.94 14.12 155.38 13.94 155.82H11.16V157.1H13.3C12.82 158 12.28 158.76 11.72 159.4L12.04 160.54H15.76V162.2C14.4 162.28 12.94 162.34 11.42 162.42L11.6 163.7C13.04 163.62 14.44 163.52 15.76 163.44V164.88H17.08V163.34C18.1 163.24 19.08 163.14 20.02 163.06V161.88ZM22.82 160.56H25.42V164.9H26.8V160.56H28.92V159.3H22.92V157.22C25.08 156.98 26.88 156.52 28.36 155.88L27.44 154.8C26.04 155.44 24.08 155.88 21.6 156.12V159.26C21.56 161.06 21.08 162.6 20.2 163.9L21.2 164.94C22.06 163.7 22.6 162.24 22.82 160.56ZM26.68 165.48H13.56V173H15.04V172.22H25.2V173H26.68V165.48ZM15.04 170.98V169.42H25.2V170.98H15.04ZM15.04 168.26V166.7H25.2V168.26H15.04ZM32.66 155.74V157.14H38.4V158.48C38.38 159.72 38.3 160.9 38.14 161.98H31.32V163.36H37.9C37.64 164.62 37.28 165.76 36.8 166.76C35.72 168.8 33.82 170.42 31.06 171.66L31.86 172.94C34.64 171.74 36.64 170.04 37.88 167.88C38.56 166.6 39.06 165.1 39.38 163.36H41V170.64C41 172 41.64 172.68 42.96 172.68H46.2C47.04 172.68 47.64 172.5 48.02 172.14C48.46 171.7 48.76 170.52 48.92 168.56L47.56 168.12C47.46 169.68 47.28 170.6 47 170.92C46.78 171.18 46.42 171.32 45.94 171.32H43.4C42.76 171.32 42.44 170.98 42.44 170.34V163.36H48.64V161.98H39.6C39.74 160.9 39.82 159.72 39.86 158.48V157.14H47.02V155.74H32.66ZM64.88 154.6L63.96 155.48C64.98 156.26 65.78 157 66.38 157.72H62.64C62.6 156.76 62.58 155.74 62.58 154.62H61.1C61.1 155.7 61.12 156.72 61.16 157.72H52.9V164.38C52.84 167.64 52.18 170.18 50.9 172.02L52 173C53.48 170.84 54.28 167.96 54.36 164.38V163.78H57.82C57.78 165.98 57.72 167.42 57.6 168.1C57.48 168.66 57.2 168.96 56.76 168.98C56.22 168.98 55.56 168.96 54.78 168.92L55.22 170.22C55.86 170.26 56.44 170.3 56.92 170.3C57.92 170.26 58.54 169.82 58.8 168.96C59.06 167.98 59.22 165.8 59.26 162.42H54.36V159.1H61.22C61.38 161.6 61.66 163.7 62.1 165.38C62.32 166.24 62.58 167.04 62.86 167.78C61.48 169.52 59.78 170.84 57.78 171.74L58.58 172.94C60.46 172.1 62.1 170.88 63.5 169.24C63.8 169.86 64.14 170.42 64.5 170.9C65.46 172.1 66.36 172.7 67.2 172.7C68.1 172.7 68.78 171.36 69.26 168.7L67.96 167.98C67.66 170.04 67.32 171.08 66.96 171.1C66.56 171.1 66.02 170.62 65.36 169.66C65.04 169.2 64.74 168.64 64.46 168C65.74 166.2 66.78 163.96 67.58 161.32L66.28 160.76C65.66 162.9 64.86 164.78 63.86 166.38C63.72 165.94 63.58 165.48 63.46 164.98C63.1 163.54 62.84 161.58 62.7 159.1H68.86V157.72H66.42L67.34 156.8C66.66 156.06 65.84 155.32 64.88 154.6ZM77.68 169.02C75.8 169.76 73.62 170.36 71.14 170.82L71.3 172.22C73.68 171.74 75.8 171.14 77.68 170.38V169.02ZM74.38 154.64C73.6 157.02 72.68 159.14 71.64 160.98C71.46 161.22 71.26 161.4 71.06 161.5L71.4 162.78C72.52 162.62 73.62 162.46 74.7 162.26C73.62 164.18 72.72 165.56 71.96 166.36C71.8 166.52 71.58 166.64 71.34 166.74L71.7 168.02C73.58 167.76 75.54 167.28 77.58 166.6V165.3C76.18 165.8 74.78 166.2 73.4 166.48C74.56 165.06 76.04 162.66 77.8 159.28L76.52 158.78C76.14 159.54 75.78 160.26 75.42 160.94C74.54 161.1 73.64 161.24 72.74 161.36C73.74 159.82 74.74 157.76 75.72 155.16L74.38 154.64ZM78.42 155.74V156.94H82.78V158.22H78.92V159.34H82.78V160.64H77.94V161.88H88.98V160.64H84.18V159.34H88.02V158.22H84.18V156.94H88.48V155.74H84.18V154.68H82.78V155.74H78.42ZM87.76 163.28H79.2V169.62H80.58V164.54H86.4V169.56H87.76V163.28ZM82.88 165.56C82.88 167.02 82.58 168.24 81.98 169.22C81.22 170.34 79.66 171.28 77.3 172.02L78.2 173.12C80.9 172.2 82.62 171.02 83.38 169.58C83.96 168.48 84.26 167.14 84.26 165.56H82.88ZM84.52 169.48L83.8 170.56C85.4 171.16 86.96 172 88.48 173.06L89.26 171.9C87.82 170.94 86.24 170.14 84.52 169.48ZM93.08 161.8V173.04H94.5V159.44C95.2 158.08 95.78 156.64 96.26 155.1L94.92 154.48C94.02 157.6 92.6 160.38 90.64 162.8L91.1 164.34C91.82 163.54 92.48 162.68 93.08 161.8ZM96.18 157.3V158.66H109.2V157.3H102.9L103.66 157.02C103.42 156.28 103.1 155.48 102.68 154.6L101.3 154.98C101.7 155.74 102.04 156.5 102.34 157.3H96.18ZM98.02 160.28V161.58H107.48V160.28H98.02ZM98.02 163.1V164.42H107.48V163.1H98.02ZM107.84 166.06H97.64V173H99.04V171.92H106.44V173H107.84V166.06ZM99.04 170.56V167.4H106.44V170.56H99.04ZM113.82 156.14V165.92H126.34V156.14H119.74C119.98 155.7 120.18 155.24 120.34 154.74L118.84 154.54C118.7 155.1 118.5 155.62 118.22 156.14H113.82ZM124.94 164.68H115.22V163H124.94V164.68ZM115.22 161.84V160.2H124.94V161.84H115.22ZM115.22 159.04V157.4H124.94V159.04H115.22ZM112.82 167.28C112.44 168.84 111.82 170.28 110.96 171.56L112.18 172.34C113.04 170.98 113.7 169.4 114.18 167.56L112.82 167.28ZM122.46 172.7C123.22 172.7 123.8 172.54 124.16 172.24C124.56 171.86 124.84 170.84 125 169.16L123.62 168.72C123.54 170.02 123.36 170.8 123.12 171.08C122.96 171.28 122.64 171.4 122.18 171.4H117.74C117.28 171.4 117.06 171.16 117.06 170.7V167.18H115.6V171C115.6 172.12 116.16 172.7 117.32 172.7H122.46ZM119.78 166.46L118.72 167.12C119.76 168.16 120.56 169.1 121.16 169.96L122.26 169.2C121.68 168.42 120.86 167.5 119.78 166.46ZM126.24 166.92L125.12 167.62C126.34 169.2 127.32 170.64 128.04 171.94L129.18 171.14C128.5 169.94 127.52 168.52 126.24 166.92Z" fill="#292945"/>
</svg>
