<svg width="165" height="58" viewBox="0 0 165 58" fill="none" xmlns="http://www.w3.org/2000/svg">
<g filter="url(#filter0_dd_8735_124211)">
<rect x="8" y="5" width="149" height="42" rx="10" fill="white"/>
<rect x="11" y="10" width="17.875" height="16" rx="4" fill="#A9E6FF"/>
<rect x="28.875" y="10" width="17.875" height="16" rx="4" fill="#FFDDDC"/>
<rect x="46.75" y="10" width="17.875" height="16" rx="4" fill="#E6D8E9"/>
<rect x="64.625" y="10" width="17.875" height="16" rx="4" fill="#D4EFFF"/>
<rect x="82.5" y="10" width="17.875" height="16" rx="4" fill="#F9EABA"/>
<rect x="100.375" y="10" width="17.875" height="16" rx="4" fill="#FFD698"/>
<rect x="118.25" y="10" width="17.875" height="16" rx="4" fill="#F0FFC4"/>
<rect x="136.125" y="10" width="17.875" height="16" rx="4" fill="#FEFCC9"/>
<rect x="11.3459" y="26" width="17.875" height="16" rx="4" fill="#DFFFD4"/>
<rect x="29.2209" y="26" width="17.875" height="16" rx="4" fill="#FFC3B9"/>
<rect x="47.0959" y="26" width="17.875" height="16" rx="4" fill="#FFFFF0"/>
<rect x="64.9709" y="26" width="17.875" height="16" rx="4" fill="#CCFFED"/>
<rect x="82.5322" y="26" width="17.875" height="16" rx="4" fill="#BFC1FF"/>
<rect x="100.407" y="26" width="17.875" height="16" rx="4" fill="#FFC8E6"/>
<rect x="117.969" y="26" width="17.875" height="16" rx="4" fill="#E9EDF1"/>
<rect x="135.844" y="26" width="17.875" height="16" rx="4" fill="#EFDCC9"/>
</g>
<defs>
<filter id="filter0_dd_8735_124211" x="0.592593" y="0.555556" width="163.815" height="56.8148" filterUnits="userSpaceOnUse" color-interpolation-filters="sRGB">
<feFlood flood-opacity="0" result="BackgroundImageFix"/>
<feColorMatrix in="SourceAlpha" type="matrix" values="0 0 0 0 0 0 0 0 0 0 0 0 0 0 0 0 0 0 127 0" result="hardAlpha"/>
<feOffset dy="1.48148"/>
<feGaussianBlur stdDeviation="0.740741"/>
<feColorMatrix type="matrix" values="0 0 0 0 0 0 0 0 0 0 0 0 0 0 0 0 0 0 0.05 0"/>
<feBlend mode="normal" in2="BackgroundImageFix" result="effect1_dropShadow_8735_124211"/>
<feColorMatrix in="SourceAlpha" type="matrix" values="0 0 0 0 0 0 0 0 0 0 0 0 0 0 0 0 0 0 127 0" result="hardAlpha"/>
<feOffset dy="2.96296"/>
<feGaussianBlur stdDeviation="3.7037"/>
<feColorMatrix type="matrix" values="0 0 0 0 0.196078 0 0 0 0 0.196078 0 0 0 0 0.411765 0 0 0 0.15 0"/>
<feBlend mode="normal" in2="effect1_dropShadow_8735_124211" result="effect2_dropShadow_8735_124211"/>
<feBlend mode="normal" in="SourceGraphic" in2="effect2_dropShadow_8735_124211" result="shape"/>
</filter>
</defs>
</svg>
