<svg width="143" height="32" viewBox="0 0 143 32" fill="none" xmlns="http://www.w3.org/2000/svg">
<rect width="17.875" height="16" rx="4" fill="#A9E6FF"/>
<rect x="17.875" width="17.875" height="16" rx="4" fill="#FFDDDC"/>
<rect x="35.75" width="17.875" height="16" rx="4" fill="#E6D8E9"/>
<rect x="53.625" width="17.875" height="16" rx="4" fill="#D4EFFF"/>
<rect x="71.5" width="17.875" height="16" rx="4" fill="#F9EABA"/>
<rect x="89.375" width="17.875" height="16" rx="4" fill="#FFD698"/>
<rect x="107.25" width="17.875" height="16" rx="4" fill="#F0FFC4"/>
<rect x="125.125" width="17.875" height="16" rx="4" fill="#FEFCC9"/>
<rect x="0.345947" y="16" width="17.875" height="16" rx="4" fill="#DFFFD4"/>
<rect x="18.2209" y="16" width="17.875" height="16" rx="4" fill="#FFC3B9"/>
<rect x="36.0959" y="16" width="17.875" height="16" rx="4" fill="#FFFFF0"/>
<rect x="53.9709" y="16" width="17.875" height="16" rx="4" fill="#CCFFED"/>
<rect x="71.5322" y="16" width="17.875" height="16" rx="4" fill="#BFC1FF"/>
<rect x="89.4072" y="16" width="17.875" height="16" rx="4" fill="#FFC8E6"/>
<rect x="106.969" y="16" width="17.875" height="16" rx="4" fill="#E9EDF1"/>
<rect x="124.844" y="16" width="17.875" height="16" rx="4" fill="#EFDCC9"/>
</svg>
