<svg width="59" height="62" viewBox="0 0 59 62" fill="none" xmlns="http://www.w3.org/2000/svg">
<path d="M0.5 23.256L3.35727 14.274H8.07053L5.24745 23.256H0.5ZM3.54774 12.9992L3.25958 7.51423H7.99238L8.28054 12.9992H3.54774ZM4.48063 6.29318L4.19246 0.808212H8.93991L9.22808 6.29318H4.48063ZM9.94606 12.3984H27.5292L26.064 22.8262H8.4808L9.94606 12.3984ZM13.7948 1.61899L14.0537 1.07196L13.6043 0.241644H18.5423L17.9024 1.61899H19.5387L19.2261 4.09529H16.784L16.4323 4.90118H19.3628L19.0112 7.4019H17.4726L18.7865 11.7342H14.9377L14.3418 9.68282L13.4139 11.7391H9.14504L11.1329 7.40678H9.75557L10.1072 4.90606H12.2905L12.6617 4.09529H10.6689L10.9913 1.59457L13.7948 1.61899ZM21.4337 20.1301L21.59 18.8163H14.0195L13.8583 20.1301H21.4337ZM14.5861 15.075L14.3907 16.3888H21.9661L22.1566 15.075H14.5861ZM23.827 1.59945L24.081 1.05242L23.6218 0.222107H28.467L27.8564 1.59945H29.688L29.3755 4.09529H26.7429L26.3912 4.90118H29.8101L29.4829 7.40678H27.578L28.8626 11.7391H25.0871L24.4033 9.46792L23.4265 11.7488H19.1919L21.1797 7.40678H19.7633L20.1199 4.90606H22.3324L22.6694 4.09529H20.6913L21.0137 1.59457L23.827 1.59945Z" fill="#292945"/>
<path d="M46.763 5.07212H58.4411L56.1944 21.19C56.1008 21.7896 55.7874 22.3328 55.3152 22.7139C54.8631 23.0996 54.288 23.3109 53.6937 23.3098H47.3442L50.2356 20.3255L51.9353 8.11498H45.1121L36.9799 23.2902H30.8844L39.0313 8.11498H32.4132L32.8283 5.06724H40.643L42.7921 1.05242L42.079 0.187912H49.4053L46.763 5.07212Z" fill="#292945"/>
<path d="M3.59657 60.0244H0.548828L2.33156 53.9142H5.3793L3.59657 60.0244ZM6.5271 50.0069L6.65409 49.074H2.06781L2.51716 46.0262H4.66621L4.28036 44.1995H8.54917L8.93501 46.0262H10.1219L11.0206 44.1995H15.2845L14.3907 46.0018H16.5446L16.0953 49.0495H11.5383L11.4113 50.0069H15.3577L14.9377 53.0546H10.9913L10.0633 59.6922C9.96845 60.2925 9.65324 60.8358 9.17922 61.2161C8.7181 61.6061 8.13226 61.8176 7.52835 61.812H3.32306L5.12044 59.9853L6.09728 53.0546H2.13131L2.55134 50.0069H6.5271ZM7.87514 40.5413L8.00212 39.6426L7.20112 38.7146H13.0084L12.7496 40.5413H16.696L16.2467 43.589H3.45005L3.89939 40.5413H7.87514ZM11.4406 53.9142H14.4884L14.5518 60.0097H11.5041L11.4406 53.9142ZM18.2492 40.5168L29.7662 38.6901L29.3168 41.7379L22.4789 42.8271L22.0296 46.0018H29.3559L28.8968 49.03H27.6757L25.8783 61.768H21.2921L23.0895 49.03H21.5802L19.7828 61.768H15.2259L18.2492 40.5168Z" fill="#292945"/>
<path d="M34.411 49.4354H38.2744L37.8544 50.4953H41.9962L42.2844 48.4732H33.5904L34.6796 40.5803L33.7028 39.2958H58.4999L57.2251 48.4732H48.7559L48.4629 50.4953H57.0298L56.6146 53.3818H48.0428L47.8523 54.7592H56.3851L55.9992 57.5188H47.4714L47.3395 58.4956H57.3228L56.9418 61.2259H30.8504L31.2363 58.4956H40.863L40.99 57.5188H33.2241L33.61 54.7592H41.3759L41.5664 53.3818H36.7212L36.3696 54.3587H32.4134L34.411 49.4354ZM51.4618 45.9041L51.5888 44.9761H40.2818L40.1548 45.9041H51.4618ZM40.5846 42.6317H51.9502L52.1114 41.6549H40.7653L40.5846 42.6317Z" fill="#292945"/>
</svg>
