<svg width="59" height="62" viewBox="0 0 59 62" fill="none" xmlns="http://www.w3.org/2000/svg">
<path d="M10.9878 7.17539L11.7893 5.70926H2.23502L2.67975 2.68415H7.23941L6.88754 1.52591L5.82704 0.309019H12.4051L13.1479 2.68415H18.1523L18.9538 1.27178L18.123 0.294357H24.9649L23.6454 2.66949H28.2393L27.7896 5.68482H18.382L17.5805 7.15095H26.3431L24.183 22.7163H1.08167L3.26131 7.17539H10.9878ZM19.1835 19.7939L19.3447 18.5086H7.04881L6.89242 19.7939H19.1835ZM7.45444 15.5861H19.7846L19.941 14.3057H7.63038L7.45444 15.5861ZM8.05555 11.3881H20.3515L20.5421 10.1028H8.24126L8.05555 11.3881Z" fill="#292945"/>
<path d="M40.887 14.5598L33.4048 6.88707L33.8935 3.22664L32.8672 2.00975H39.8998L39.4111 5.52358L44.997 11.2708L52.2201 5.52358L52.528 3.22664L51.5017 2.00975H58.5001L57.7963 6.89685L48.1639 14.5696L56.7016 23.3028H49.4247L44.0489 17.8146L37.163 23.2931H29.8763L40.887 14.5598ZM43.6482 1.39887L42.6219 0.177094H49.327L48.5597 5.67019H43.0715L43.6482 1.39887Z" fill="#292945"/>
<path d="M11.2907 52.728L11.4813 51.5111L18.5774 49.3901H4.44877L4.86906 46.3406H26.2159L25.7272 49.9717L17.4191 52.728H27.7847L27.3693 55.7776H16.9695L16.427 59.6872C16.3316 60.2842 16.0224 60.8261 15.5571 61.212C15.1025 61.6034 14.5198 61.8139 13.92 61.8034H7.59606L10.4208 58.8711L10.8704 55.7873H0.5L0.92029 52.7378L11.2907 52.728ZM27.9068 38.7021L26.9294 41.1456H28.7572L28.1512 45.4169H21.4656L21.6562 44.1952H9.4385L9.2479 45.4169H2.55747L3.16836 41.1407H5.03034L4.742 38.6972H10.8411L11.1294 41.1407H12.9425L12.6835 38.6972H18.7826L19.0416 41.1407H20.8694L21.8468 38.6972L27.9068 38.7021Z" fill="#292945"/>
<path d="M43.9657 48.7157H45.6371L45.3781 50.6119H43.7311L43.4428 52.6987H39.9729L39.8801 53.3389H44.6303L44.0194 57.708H39.2985L39.2057 58.4117H43.9217L43.5698 60.7575H38.844L38.7169 61.8131H34.5776L34.7046 60.7575H30.0472L30.3991 58.4117H34.993L35.0858 57.708H30.4333L31.0442 53.3389H35.7603L35.8287 52.6987H32.3588L32.6472 50.6119H31.0247L31.2788 48.7157H32.9502L33.0479 48.0755H36.8354L36.7377 48.7157H40.2026L40.3004 48.0755H44.0879L43.9657 48.7157ZM53.4369 43.6771H47.6408L47.0934 47.7236H42.2063L42.7488 43.6771H36.8843L36.3956 47.1763H31.8701L32.6081 41.8787H42.9785L43.042 41.2384H33.3167L33.5708 39.3129H57.9721L57.7131 41.2384H47.9389L47.8754 41.8787H58.2458L57.5078 47.1763H52.9188L53.4369 43.6771ZM34.3039 56.1978H35.5257L35.7163 54.849H34.4994L34.3039 56.1978ZM39.8214 51.1886L39.885 50.6119H36.42L36.3565 51.1886H39.8214ZM41.8105 46.2135L41.6199 47.6796H37.0358L37.2264 46.2135H41.8105ZM42.0988 44.1902L41.9082 45.6564H37.3192L37.5098 44.1902H42.0988ZM40.7207 54.849H39.4989L39.3083 56.1978H40.5301L40.7207 54.849ZM50.4166 61.7838L51.6335 60.3177L51.9219 58.2309H48.7795L48.2908 61.8229H44.2491L46.1747 48.2368H57.415L55.7778 59.9658C55.6982 60.4704 55.4355 60.928 55.0398 61.2511C54.6676 61.5806 54.1881 61.763 53.691 61.7642L50.4166 61.7838ZM52.4692 46.2135L52.2786 47.6796H47.719L47.9096 46.2135H52.4692ZM52.7576 44.1902L52.567 45.6564H48.0073L48.1979 44.1902H52.7576ZM49.1313 55.8118H52.2444L52.4399 54.4629H49.3219L49.1313 55.8118ZM49.6445 52.122H52.7918L52.9824 50.8025H49.84L49.6445 52.122Z" fill="#292945"/>
</svg>
