<svg width="59" height="62" viewBox="0 0 59 62" fill="none" xmlns="http://www.w3.org/2000/svg">
<path d="M13.0379 19.7151L10.4639 16.9844L9.59768 23.2533H4.0678L5.15909 15.5065H1.52307L8.91745 7.02086H3.48545L3.9014 3.99656H14.8976L14.3495 7.85279L11.2713 11.3958L11.1734 12.0369L14.599 10.0452L14.0558 14.0629L12.7786 14.8214L13.6154 15.6925L13.0379 19.7151ZM13.1652 3.45336H8.27148L7.43467 0.977143L6.6272 0.203938H12.1228L13.1652 3.45336ZM18.6608 1.32949L17.6821 0.14032H24.4647L23.486 6.82512H27.401L28.1106 18.433H23.8041L23.1973 8.94898L21.1713 23.2826H15.5778L18.6608 1.32949Z" fill="#292945"/>
<path d="M42.5123 6.8251L42.8011 4.70612H32.5634L32.9158 2.06842H43.1925L43.2904 1.42734L42.1942 0.203918H48.3652L48.1058 2.06842H58.4266L58.0743 4.70612H47.7339L47.4452 6.8251H50.8218L52.011 4.99485H56.8655L55.7106 6.8251H58.5001L58.0841 9.6243H42.3508L41.0051 11.1658H57.2032L56.8166 13.8965H44.1224L43.7358 15.022H56.6258L55.7596 21.1294C55.6839 21.7245 55.3847 22.2686 54.9228 22.6513C54.4682 23.045 53.8846 23.2576 53.2834 23.2484H41.744L44.6019 20.2583H50.4205L50.7729 17.7821H36.8552L38.0444 14.6012L36.312 16.5929H30.3319L36.6937 9.6194H31.2617L31.6826 6.8202L42.5123 6.8251Z" fill="#292945"/>
<path d="M10.307 61.3116L6.50948 60.1567L5.67754 61.3116H0.5L2.81474 58.0964L4.32688 47.2667H3.00557L3.42645 44.213H10.2385L8.47186 56.9366L12.8762 58.253H27.8215L27.4056 61.3067L10.307 61.3116ZM8.98569 39.3242L10.307 42.9896H5.35457L4.03817 39.3242H8.98569ZM23.9996 38.7467L22.0714 42.8624H29.138L28.6877 46.0775H24.8609L27.0532 56.9073H21.3961L19.5952 48.0986L15.4356 56.9073H9.75891L14.7407 46.0775H11.1095L11.5598 42.8624H16.2186L17.7944 39.4368L17.2169 38.7614L23.9996 38.7467Z" fill="#292945"/>
<path d="M51.9674 38.7125L48.7816 43.6649L57.8496 61.8597H51.7423L45.3804 48.9354L37.0856 61.8597H30.9734L45.3119 39.52L44.6366 38.7125H51.9674Z" fill="#292945"/>
</svg>
