<svg width="59" height="62" viewBox="0 0 59 62" fill="none" xmlns="http://www.w3.org/2000/svg">
<path d="M4.78913 4.38652L5.20548 1.4093L4.44059 0.504028H10.8017L10.2595 4.37684H11.4068L11.0244 7.21851H9.84799L9.33969 10.8783L10.3853 10.5588L9.90124 13.8652L8.88464 14.1847L7.91643 21.209C7.84527 21.792 7.55864 22.3274 7.11284 22.7098C6.6968 23.0912 6.15237 23.3021 5.58791 23.3004H0.5L2.53323 20.4393L3.1674 15.9323L1.45369 16.4164L1.9378 13.0761L3.62246 12.5678L4.37766 7.21851H2.72204L3.10447 4.39136L4.78913 4.38652ZM28.5101 8.48686L26.5059 22.763H9.87704L11.8812 8.48686H28.5101ZM14.263 5.97437H11.9732L12.4186 2.95358H14.7084L14.8681 1.77721L13.7886 0.566961H20.2756L19.927 2.95358H22.759L22.9139 1.77721L21.8682 0.566961H28.0986L27.7501 2.95358H29.7833L29.3379 5.97437H27.3337L27.1159 7.70261H22.0909L22.3136 5.98405H19.5155L19.2928 7.70261H14.0452L14.263 5.97437ZM16.4221 20.3134L16.8384 17.4524H14.9311L14.5486 20.3134H16.4221ZM15.3426 14.6543H17.2209L17.5694 12.1128H15.6911L15.3426 14.6543ZM22.4685 20.3134L22.8461 17.4524H21.0985L20.687 20.3134H22.4685ZM21.8295 12.1128L21.481 14.6543H23.2625L23.611 12.1128H21.8295Z" fill="#292945"/>
<path d="M39.4217 22.7969L36.2702 21.8723L35.7861 22.7969H30.3593L32.0101 19.6164L33.5157 8.89835H32.3054L32.7508 5.87756H39.3975L37.616 18.4642L41.9729 19.7664H56.7525L56.3362 22.7872L39.4217 22.7969ZM38.2453 1.04623L39.5476 4.67214H34.7066L33.4043 1.04623H38.2453ZM52.1052 1.04623L50.9433 4.06702H58.3549L56.6218 16.4164C56.5349 17.0079 56.2411 17.5494 55.7926 17.9448C55.3441 18.3401 54.77 18.5636 54.1723 18.5755H47.8789L50.6141 16.155L51.9502 6.77314H49.9122L45.4633 18.5707H40.022L44.5096 6.77314H40.4674L40.8498 4.07186H45.5262L46.3201 2.00475L45.4923 1.03654L52.1052 1.04623Z" fill="#292945"/>
<path d="M22.4054 39.2031L18.0485 45.8498H29.0522L28.6407 48.8706H22.9815L27.7499 61.496H21.1032L16.3639 48.8512H16.0879L7.80979 61.496H1.16791L9.43152 48.8512H3.8692L4.28068 45.8304H11.4067L15.2504 39.9777L14.5533 39.1837L22.4054 39.2031Z" fill="#292945"/>
<path d="M32.4215 40.3794H36.5896L34.3966 56.0595H30.2285L32.4215 40.3794ZM40.2155 53.1646L36.9043 61.4621H32.3876L35.9796 53.1646L37.8725 39.8711L37.2044 38.6318H42.2923L40.2155 53.1646ZM58.5 39.2031L58.0837 42.1609H52.6811L52.3616 44.3878H57.7206L55.9391 56.9744C55.8573 57.5697 55.5571 58.1132 55.0968 58.4994C54.6634 58.9084 54.0904 59.1369 53.4944 59.1384H50.4059L51.679 57.4537L53.1313 47.4376H51.9114L49.9411 61.4766H45.0178L46.9881 47.4376H45.8408L44.19 59.1384H39.9928L42.06 44.383H47.4335L47.753 42.1561H42.3117L42.728 39.1982L58.5 39.2031Z" fill="#292945"/>
</svg>
