<svg width="59" height="62" viewBox="0 0 59 62" fill="none" xmlns="http://www.w3.org/2000/svg">
<path d="M11.171 10.5901L11.332 9.37024H2.8323L3.15432 6.93061H11.6784L11.776 6.3207H17.8653L17.7677 6.93061H26.3015L25.9795 9.37024H17.4213L17.2603 10.5901H27.614L27.292 13.0297H23.0324L22.8373 14.2495H26.4918L26.1064 16.9721H22.4518L21.8614 21.2171C21.7659 21.8095 21.4615 22.3482 21.0033 22.7357C20.5451 23.1232 19.9633 23.334 19.3632 23.3298H13.0202L15.9038 20.3535L16.3527 16.9868H0.529304L0.914755 14.2641H16.748L16.9431 13.0443H0.5L0.822048 10.6047L11.171 10.5901ZM9.50712 1.45608H15.5184L15.1964 3.89571H12.6981L13.7228 5.72055H8.84355L7.93602 4.13967L7.00406 5.74007H1.52466L4.21802 1.09502L3.51052 0.236267H10.2097L9.50712 1.45608ZM12.0687 21.5489H5.36952L2.8323 17.8943H9.53151L12.0687 21.5489ZM22.3152 1.45608H28.9168L28.5948 3.89571H25.4867L26.5114 5.72055H21.6321L20.7245 4.13967L19.7926 5.74007H14.3132L17.0065 1.09502L16.299 0.236267H22.9983L22.3152 1.45608Z" fill="#292945"/>
<path d="M38.4799 8.76033L36.4599 23.2176H30.6438L32.5028 9.94599L30.6097 10.3022L31.1318 6.64761L38.9922 5.11552L38.4799 8.76033ZM39.1533 3.88107L31.3465 5.41803L31.8588 1.76347L39.6656 0.226501L39.1533 3.88107ZM49.2777 12.3856L49.5363 10.4925H39.2899L39.7388 7.38438H45.8183L46.0769 5.43267H40.8171L41.2026 2.54903H46.4917L46.682 1.21211L45.5939 0.29969H52.7078L52.3907 2.54415H57.5481L57.1626 5.42779H51.9711L51.7174 7.3795H57.7432L57.2944 10.4876H55.2109L54.9523 12.3807H57.0358L56.6503 15.1668H54.5522L53.7178 21.0951C53.6472 21.6903 53.3502 22.2354 52.8884 22.6174C52.4336 23.0072 51.8528 23.2187 51.2538 23.2127H45.3353L48.2092 20.2412L48.9167 15.1766H38.8313L39.2167 12.3905L49.2777 12.3856ZM46.5209 20.5242H41.1538L39.6168 16.2939H45.0328L46.5209 20.5242Z" fill="#292945"/>
<path d="M16.5577 44.1789L7.38962 61.7735H1.30028L10.4684 44.1789H16.5577ZM17.4702 42.3492H8.89729L10.5953 39.0166H22.4519L28.0923 61.7735H22.003L17.4702 42.3492Z" fill="#292945"/>
<path d="M29.7952 60.6171L32.2934 46.4672H34.1866L31.7177 60.6171H29.7952ZM34.6745 45.6524H32.108L32.5569 42.6077H35.1234L35.5381 39.6265L34.8989 38.6946H39.7392L39.1927 42.598H41.725L41.2761 45.6426H38.7438L36.4652 61.7442H32.3959L34.6745 45.6524ZM37.807 58.7874L39.0561 46.4819H40.9492L39.7294 58.7874H37.807ZM51.6543 59.3973L52.069 56.3526H47.1312L44.7941 61.7735H40.3393L44.0231 53.2787H40.8907L41.3103 50.2682H47.0141L47.2727 48.5702H52.3325L52.0788 50.2682H57.7827L57.3679 53.2787H48.4877L48.2096 53.9081H56.7678L55.9042 59.9974C55.8849 60.2035 55.8234 60.4035 55.7235 60.5848C55.6236 60.7661 55.4875 60.9249 55.3235 61.0513C55.0111 61.3199 54.6133 61.4686 54.2013 61.471H49.7173L51.6543 59.3973ZM49.4391 45.3889H51.586L52.5618 43.5641H56.5043L55.5724 45.3889H58.4999L57.9241 49.6192H53.9134L54.1086 48.1555H45.6577L45.4674 49.6192H41.525L42.1007 45.3889H45.4333L45.0185 43.5641H49.0244L49.4391 45.3889ZM48.5413 40.4218L48.6048 39.9339L47.5801 38.7141H53.4792L53.2206 40.4121H58.3194L57.9681 42.9298H43.3303L43.6816 40.4267L48.5413 40.4218Z" fill="#292945"/>
</svg>
