<svg width="59" height="62" viewBox="0 0 59 62" fill="none" xmlns="http://www.w3.org/2000/svg">
<path d="M1.07983 22.8164L2.72589 19.7503L4.27859 8.71441H3.05019L3.50223 5.64833H10.2486L8.4404 18.4237L12.8626 19.7454H27.8687L27.4511 22.8115H10.2781L7.11864 21.8779L6.60271 22.8115L1.07983 22.8164ZM9.08408 0.739656L10.4107 4.41994H5.49715L4.17539 0.739656H9.08408ZM13.413 11.1663L14.0566 7.46636H11.8308L12.2484 4.40028H14.5726L15.0246 1.914L13.9928 0.720001H20.1249L19.4763 4.40028H21.4418L21.9577 0.720001H26.8713L26.3799 4.40028H28.2176L27.7754 7.46636H25.9377L25.4218 11.1466H27.8786L27.4118 14.2324H24.955L24.3752 18.5269H19.4616L20.0414 14.2324H17.7467L17.0048 18.5269H12.0912L12.8331 14.2324H10.2191L10.6712 11.1663H13.413ZM18.2823 11.1663H20.5327L21.0241 7.46636H18.926L18.2823 11.1663Z" fill="#292945"/>
<path d="M36.9736 3.90401L34.2613 23.3029H30.1634L33.3081 0.739653H42.7324L42.2852 3.86961L40.8947 8.71441H42.0592L41.9265 11.4906L40.1331 19.7503H35.5536L35.9369 17.0086H36.9196L38.0792 11.4906H36.6493L37.0375 8.71441L38.4231 3.90401H36.9736ZM40.9438 23.2685L44.8157 9.39249H49.2674L45.3955 23.2685H40.9438ZM53.5963 8.58175L51.7242 2.73949H50.7415L47.4789 8.58175H42.4916L47.0121 0.675777L46.4618 0.184418H55.2718L58.5001 8.60631L53.5963 8.58175ZM56.2742 9.39249L54.3382 23.3029H49.8816L51.8176 9.39249H56.2742Z" fill="#292945"/>
<path d="M5.63469 49.1877L6.92205 40.1516L5.93933 38.9232H12.4744L11.9831 42.3627H15.8206L15.4029 45.3649H11.5408L11.0249 49.1729H14.6708L12.9609 61.3734H0.5L2.20992 49.1729L5.63469 49.1877ZM8.63199 58.4842L9.53609 52.126H6.50441L5.6003 58.4842H8.63199ZM18.1545 45.301L17.5403 40.1025L16.5085 38.879H22.4981L23.2401 44.7753L28.7286 44.1955L28.2765 47.4237L23.6283 47.9151L24.0803 51.6592L27.9866 49.3695L27.4363 53.3741L24.4881 55.084L24.9402 58.5235H26.1047L27.5248 57.2951L26.8762 61.8156H20.1544L19.663 57.8847L14.145 61.0638L14.7248 57.0642L19.2453 54.4157L18.5673 48.4113L15.855 48.7012L16.307 45.473L18.1545 45.301ZM24.4636 43.2177L23.815 39.503H28.1733L28.6893 43.2177H24.4636Z" fill="#292945"/>
<path d="M54.6921 61.5503H30.36L30.8759 57.87H39.7204L41.0126 48.6718H30.9054L31.4213 44.9915H41.5237L42.2017 40.1516L41.1355 38.9134H48.7516L47.8819 45.0111H58.3085L57.7877 48.6914H47.3659L46.0835 57.87H55.2178L54.6921 61.5503Z" fill="#292945"/>
</svg>
