<svg width="13" height="13" viewBox="0 0 13 13" fill="none" xmlns="http://www.w3.org/2000/svg">
<path d="M11.2368 6.81578C11.2368 9.60628 8.9747 11.8684 6.18421 11.8684C3.39372 11.8684 1.13158 9.60628 1.13158 6.81578C1.13158 4.02529 3.39372 1.76315 6.18421 1.76315C8.9747 1.76315 11.2368 4.02529 11.2368 6.81578Z" fill="black"/>
<path d="M6.18421 1.76315C8.97478 1.76315 11.2368 4.02522 11.2368 6.81578C11.2368 9.60635 8.97478 11.8684 6.18421 11.8684C3.39364 11.8684 1.13158 9.60635 1.13158 6.81578C1.13158 4.02522 3.39364 1.76315 6.18421 1.76315ZM6.18421 8.83684C6.11785 8.83683 6.05214 8.84989 5.99083 8.87528C5.92952 8.90066 5.87381 8.93788 5.82689 8.9848C5.77996 9.03172 5.74274 9.08742 5.71734 9.14873C5.69194 9.21003 5.67887 9.27574 5.67887 9.3421C5.67887 9.40846 5.69194 9.47417 5.71734 9.53547C5.74274 9.59678 5.77996 9.65248 5.82689 9.6994C5.87381 9.74632 5.92952 9.78354 5.99083 9.80892C6.05214 9.83431 6.11785 9.84737 6.18421 9.84736C6.3182 9.84734 6.4467 9.7941 6.54144 9.69935C6.63617 9.60459 6.6894 9.47609 6.6894 9.3421C6.6894 9.20811 6.63617 9.07961 6.54144 8.98485C6.4467 8.8901 6.3182 8.83686 6.18421 8.83684ZM6.18421 3.78421C5.13781 3.78421 4.28947 4.58783 4.28947 5.57915C4.28947 5.77747 4.45924 5.93814 4.66842 5.93814C4.8776 5.93814 5.04737 5.77747 5.04737 5.57941C5.04737 4.98446 5.55642 4.50218 6.18421 4.50218C6.812 4.50218 7.32105 4.98446 7.32105 5.57915C7.32105 6.23852 6.908 6.76046 6.01823 7.17124C5.95556 7.19896 5.90217 7.24411 5.86442 7.3013C5.82666 7.35849 5.80613 7.42532 5.80526 7.49385V7.97258L5.80703 8.00719C5.82547 8.18909 5.98716 8.33157 6.18421 8.33157L6.22059 8.32981C6.41284 8.31263 6.56316 8.15928 6.56316 7.97258V7.71187L6.59575 7.69519C7.56787 7.17983 8.07895 6.46766 8.07895 5.57915C8.07895 4.58783 7.23061 3.78421 6.18421 3.78421Z" fill="white"/>
</svg>
