<svg width="224" height="89" viewBox="0 0 224 89" fill="none" xmlns="http://www.w3.org/2000/svg">
<g opacity="0.3">
<mask id="path-1-outside-1_101_24" maskUnits="userSpaceOnUse" x="0" y="0" width="224" height="89" fill="black">
<rect fill="white" width="224" height="89"/>
<path d="M2 35.6492L7.67472 1.46733H22.429C24.9659 1.46733 27.1078 1.9291 28.8548 2.85263C30.6017 3.77616 31.859 5.10582 32.6268 6.84162C33.3945 8.57742 33.5781 10.6581 33.1776 13.0838C32.777 15.5317 31.8924 17.5958 30.5238 19.2759C29.1663 20.945 27.4361 22.2134 25.3331 23.0813C23.2412 23.9381 20.8935 24.3665 18.2898 24.3665H9.47727L10.679 17.1563H17.6222C18.7126 17.1563 19.6695 17.0227 20.4929 16.7557C21.3163 16.4775 21.9839 16.0436 22.4957 15.4538C23.0076 14.853 23.3414 14.063 23.4972 13.0838C23.6529 12.1046 23.575 11.3091 23.2635 10.6971C22.9519 10.074 22.4345 9.61778 21.7113 9.32848C20.988 9.02805 20.0923 8.87784 19.0241 8.87784H15.7528L11.2798 35.6492H2ZM24.6321 19.9602L30.5739 35.6492H20.4929L14.7514 19.9602H24.6321ZM33.8535 35.6492L39.5282 1.46733H64.1632L62.8947 8.9446H47.5396L46.6049 14.8196H60.6916L59.4231 22.2969H45.3365L44.4018 28.1719H59.6902L58.4217 35.6492H33.8535ZM63.0908 35.6492L68.7655 1.46733H83.5198C86.0567 1.46733 88.1931 1.96804 89.9289 2.96946C91.6647 3.97088 92.9109 5.37843 93.6675 7.19212C94.4242 9.0058 94.6022 11.1255 94.2016 13.5511C93.801 16.0213 92.9109 18.1521 91.5312 19.9435C90.1626 21.7238 88.4156 23.098 86.2904 24.0661C84.1763 25.023 81.8063 25.5014 79.1803 25.5014H70.3678L71.5695 18.2912H78.5127C79.6254 18.2912 80.6046 18.102 81.4502 17.7237C82.2958 17.3343 82.9801 16.7891 83.5031 16.0881C84.0261 15.3759 84.3654 14.5303 84.5212 13.5511C84.677 12.572 84.6047 11.7375 84.3042 11.0476C84.0149 10.3466 83.5142 9.8125 82.8021 9.44531C82.1011 9.067 81.2054 8.87784 80.115 8.87784H76.8437L72.3707 35.6492H63.0908ZM129.785 19.1591C129.162 22.8755 127.927 25.991 126.08 28.5057C124.233 31.0204 121.991 32.9175 119.354 34.1971C116.717 35.4767 113.896 36.1165 110.892 36.1165C107.687 36.1165 104.906 35.421 102.547 34.0302C100.188 32.6393 98.4688 30.6031 97.3895 27.9215C96.3102 25.2399 96.0932 21.9631 96.7385 18.0909C97.3394 14.3745 98.5634 11.2479 100.41 8.71094C102.257 6.17401 104.511 4.25462 107.17 2.95277C109.829 1.65092 112.672 1 115.699 1C118.881 1 121.646 1.70099 123.994 3.10298C126.353 4.50497 128.066 6.55788 129.134 9.26172C130.214 11.9656 130.431 15.2647 129.785 19.1591ZM120.439 18.0909C120.75 16.1326 120.773 14.4858 120.506 13.1506C120.239 11.8042 119.677 10.7917 118.82 10.1129C117.963 9.42306 116.811 9.07812 115.365 9.07812C113.718 9.07812 112.261 9.47869 110.992 10.2798C109.724 11.081 108.672 12.2326 107.838 13.7347C107.003 15.2369 106.419 17.045 106.085 19.1591C105.729 21.1397 105.696 22.7865 105.985 24.0994C106.285 25.4124 106.875 26.3971 107.754 27.0536C108.644 27.7101 109.802 28.0384 111.226 28.0384C112.85 28.0384 114.286 27.6489 115.532 26.87C116.789 26.0911 117.83 24.9618 118.653 23.4819C119.487 22.002 120.083 20.205 120.439 18.0909ZM131.342 35.6492L137.017 1.46733H151.771C154.308 1.46733 156.45 1.9291 158.197 2.85263C159.943 3.77616 161.201 5.10582 161.969 6.84162C162.736 8.57742 162.92 10.6581 162.519 13.0838C162.119 15.5317 161.234 17.5958 159.866 19.2759C158.508 20.945 156.778 22.2134 154.675 23.0813C152.583 23.9381 150.235 24.3665 147.632 24.3665H138.819L140.021 17.1563H146.964C148.054 17.1563 149.011 17.0227 149.835 16.7557C150.658 16.4775 151.326 16.0436 151.838 15.4538C152.349 14.853 152.683 14.063 152.839 13.0838C152.995 12.1046 152.917 11.3091 152.605 10.6971C152.294 10.074 151.776 9.61778 151.053 9.32848C150.33 9.02805 149.434 8.87784 148.366 8.87784H145.095L140.622 35.6492H131.342ZM153.974 19.9602L159.916 35.6492H149.835L144.093 19.9602H153.974ZM166.667 8.9446L167.935 1.46733H197.644L196.376 8.9446H186.094L181.688 35.6492H172.542L176.948 8.9446H166.667Z"/>
<path d="M120.249 65.2855H110.97C111.036 64.4955 110.992 63.7834 110.836 63.1492C110.68 62.5149 110.413 61.9697 110.035 61.5135C109.657 61.0462 109.161 60.6901 108.549 60.4453C107.938 60.2005 107.209 60.0781 106.363 60.0781C104.739 60.0781 103.286 60.4843 102.007 61.2965C100.727 62.0977 99.6647 63.2493 98.819 64.7514C97.9734 66.2424 97.3725 68.0227 97.0165 70.0923C96.7049 72.0952 96.6938 73.7586 96.9831 75.0827C97.2835 76.4068 97.8677 77.3971 98.7356 78.0536C99.6146 78.7101 100.755 79.0384 102.157 79.0384C103.092 79.0384 103.949 78.9271 104.727 78.7045C105.517 78.482 106.218 78.1649 106.83 77.7532C107.453 77.3304 107.982 76.8297 108.416 76.2511C108.861 75.6613 109.2 75.0104 109.434 74.2983H118.781C118.425 75.7448 117.79 77.2247 116.878 78.7379C115.966 80.2401 114.786 81.6254 113.34 82.8938C111.893 84.1512 110.191 85.1693 108.232 85.9482C106.274 86.727 104.071 87.1165 101.623 87.1165C98.4185 87.1165 95.6534 86.4155 93.3279 85.0135C91.0135 83.6115 89.3334 81.5642 88.2874 78.8715C87.2526 76.1787 87.0468 72.8963 87.6699 69.0241C88.293 65.2855 89.5225 62.1533 91.3584 59.6275C93.1944 57.1017 95.4253 55.199 98.0513 53.9194C100.677 52.6398 103.47 52 106.43 52C108.666 52 110.669 52.2949 112.438 52.8846C114.219 53.4743 115.715 54.3366 116.928 55.4716C118.152 56.5954 119.053 57.9807 119.632 59.6275C120.21 61.2743 120.416 63.1603 120.249 65.2855ZM128.778 86.6491H118.764L135.721 52.4673H148.406L154.014 86.6491H144L140.662 61.8807H140.395L128.778 86.6491ZM129.179 73.1634H148.005L146.804 80.1065H127.977L129.179 73.1634ZM157.306 86.6491L162.981 52.4673H177.735C180.272 52.4673 182.414 52.9291 184.161 53.8526C185.908 54.7762 187.165 56.1058 187.933 57.8416C188.701 59.5774 188.884 61.6581 188.484 64.0838C188.083 66.5317 187.199 68.5958 185.83 70.2759C184.472 71.945 182.742 73.2134 180.639 74.0813C178.547 74.9381 176.2 75.3665 173.596 75.3665H164.783L165.985 68.1562H172.928C174.019 68.1562 174.976 68.0227 175.799 67.7557C176.622 67.4775 177.29 67.0436 177.802 66.4538C178.314 65.853 178.648 65.063 178.803 64.0838C178.959 63.1046 178.881 62.3091 178.57 61.6971C178.258 61.074 177.741 60.6178 177.017 60.3285C176.294 60.0281 175.398 59.8778 174.33 59.8778H171.059L166.586 86.6491H157.306ZM179.938 70.9602L185.88 86.6491H175.799L170.058 70.9602H179.938ZM202.512 86.6491H189.16L194.834 52.4673H207.653C211.169 52.4673 214.106 53.1739 216.465 54.587C218.824 56.0001 220.499 58.0196 221.489 60.6456C222.479 63.2715 222.674 66.3982 222.073 70.0256C221.494 73.5194 220.321 76.507 218.551 78.9883C216.793 81.4696 214.546 83.3667 211.808 84.6797C209.082 85.9927 205.984 86.6491 202.512 86.6491ZM199.741 78.7713H203.113C204.804 78.7713 206.312 78.4764 207.636 77.8867C208.971 77.2859 210.084 76.2845 210.974 74.8825C211.875 73.4693 212.526 71.5388 212.927 69.0909C213.305 66.7765 213.294 64.9906 212.893 63.7333C212.493 62.4648 211.731 61.5858 210.607 61.0962C209.483 60.5955 208.031 60.3452 206.251 60.3452H202.812L199.741 78.7713Z"/>
</mask>
<path d="M2 35.6492L7.67472 1.46733H22.429C24.9659 1.46733 27.1078 1.9291 28.8548 2.85263C30.6017 3.77616 31.859 5.10582 32.6268 6.84162C33.3945 8.57742 33.5781 10.6581 33.1776 13.0838C32.777 15.5317 31.8924 17.5958 30.5238 19.2759C29.1663 20.945 27.4361 22.2134 25.3331 23.0813C23.2412 23.9381 20.8935 24.3665 18.2898 24.3665H9.47727L10.679 17.1563H17.6222C18.7126 17.1563 19.6695 17.0227 20.4929 16.7557C21.3163 16.4775 21.9839 16.0436 22.4957 15.4538C23.0076 14.853 23.3414 14.063 23.4972 13.0838C23.6529 12.1046 23.575 11.3091 23.2635 10.6971C22.9519 10.074 22.4345 9.61778 21.7113 9.32848C20.988 9.02805 20.0923 8.87784 19.0241 8.87784H15.7528L11.2798 35.6492H2ZM24.6321 19.9602L30.5739 35.6492H20.4929L14.7514 19.9602H24.6321ZM33.8535 35.6492L39.5282 1.46733H64.1632L62.8947 8.9446H47.5396L46.6049 14.8196H60.6916L59.4231 22.2969H45.3365L44.4018 28.1719H59.6902L58.4217 35.6492H33.8535ZM63.0908 35.6492L68.7655 1.46733H83.5198C86.0567 1.46733 88.1931 1.96804 89.9289 2.96946C91.6647 3.97088 92.9109 5.37843 93.6675 7.19212C94.4242 9.0058 94.6022 11.1255 94.2016 13.5511C93.801 16.0213 92.9109 18.1521 91.5312 19.9435C90.1626 21.7238 88.4156 23.098 86.2904 24.0661C84.1763 25.023 81.8063 25.5014 79.1803 25.5014H70.3678L71.5695 18.2912H78.5127C79.6254 18.2912 80.6046 18.102 81.4502 17.7237C82.2958 17.3343 82.9801 16.7891 83.5031 16.0881C84.0261 15.3759 84.3654 14.5303 84.5212 13.5511C84.677 12.572 84.6047 11.7375 84.3042 11.0476C84.0149 10.3466 83.5142 9.8125 82.8021 9.44531C82.1011 9.067 81.2054 8.87784 80.115 8.87784H76.8437L72.3707 35.6492H63.0908ZM129.785 19.1591C129.162 22.8755 127.927 25.991 126.08 28.5057C124.233 31.0204 121.991 32.9175 119.354 34.1971C116.717 35.4767 113.896 36.1165 110.892 36.1165C107.687 36.1165 104.906 35.421 102.547 34.0302C100.188 32.6393 98.4688 30.6031 97.3895 27.9215C96.3102 25.2399 96.0932 21.9631 96.7385 18.0909C97.3394 14.3745 98.5634 11.2479 100.41 8.71094C102.257 6.17401 104.511 4.25462 107.17 2.95277C109.829 1.65092 112.672 1 115.699 1C118.881 1 121.646 1.70099 123.994 3.10298C126.353 4.50497 128.066 6.55788 129.134 9.26172C130.214 11.9656 130.431 15.2647 129.785 19.1591ZM120.439 18.0909C120.75 16.1326 120.773 14.4858 120.506 13.1506C120.239 11.8042 119.677 10.7917 118.82 10.1129C117.963 9.42306 116.811 9.07812 115.365 9.07812C113.718 9.07812 112.261 9.47869 110.992 10.2798C109.724 11.081 108.672 12.2326 107.838 13.7347C107.003 15.2369 106.419 17.045 106.085 19.1591C105.729 21.1397 105.696 22.7865 105.985 24.0994C106.285 25.4124 106.875 26.3971 107.754 27.0536C108.644 27.7101 109.802 28.0384 111.226 28.0384C112.85 28.0384 114.286 27.6489 115.532 26.87C116.789 26.0911 117.83 24.9618 118.653 23.4819C119.487 22.002 120.083 20.205 120.439 18.0909ZM131.342 35.6492L137.017 1.46733H151.771C154.308 1.46733 156.45 1.9291 158.197 2.85263C159.943 3.77616 161.201 5.10582 161.969 6.84162C162.736 8.57742 162.92 10.6581 162.519 13.0838C162.119 15.5317 161.234 17.5958 159.866 19.2759C158.508 20.945 156.778 22.2134 154.675 23.0813C152.583 23.9381 150.235 24.3665 147.632 24.3665H138.819L140.021 17.1563H146.964C148.054 17.1563 149.011 17.0227 149.835 16.7557C150.658 16.4775 151.326 16.0436 151.838 15.4538C152.349 14.853 152.683 14.063 152.839 13.0838C152.995 12.1046 152.917 11.3091 152.605 10.6971C152.294 10.074 151.776 9.61778 151.053 9.32848C150.33 9.02805 149.434 8.87784 148.366 8.87784H145.095L140.622 35.6492H131.342ZM153.974 19.9602L159.916 35.6492H149.835L144.093 19.9602H153.974ZM166.667 8.9446L167.935 1.46733H197.644L196.376 8.9446H186.094L181.688 35.6492H172.542L176.948 8.9446H166.667Z" stroke="#20C38C" stroke-width="2" mask="url(#path-1-outside-1_101_24)"/>
<path d="M120.249 65.2855H110.97C111.036 64.4955 110.992 63.7834 110.836 63.1492C110.68 62.5149 110.413 61.9697 110.035 61.5135C109.657 61.0462 109.161 60.6901 108.549 60.4453C107.938 60.2005 107.209 60.0781 106.363 60.0781C104.739 60.0781 103.286 60.4843 102.007 61.2965C100.727 62.0977 99.6647 63.2493 98.819 64.7514C97.9734 66.2424 97.3725 68.0227 97.0165 70.0923C96.7049 72.0952 96.6938 73.7586 96.9831 75.0827C97.2835 76.4068 97.8677 77.3971 98.7356 78.0536C99.6146 78.7101 100.755 79.0384 102.157 79.0384C103.092 79.0384 103.949 78.9271 104.727 78.7045C105.517 78.482 106.218 78.1649 106.83 77.7532C107.453 77.3304 107.982 76.8297 108.416 76.2511C108.861 75.6613 109.2 75.0104 109.434 74.2983H118.781C118.425 75.7448 117.79 77.2247 116.878 78.7379C115.966 80.2401 114.786 81.6254 113.34 82.8938C111.893 84.1512 110.191 85.1693 108.232 85.9482C106.274 86.727 104.071 87.1165 101.623 87.1165C98.4185 87.1165 95.6534 86.4155 93.3279 85.0135C91.0135 83.6115 89.3334 81.5642 88.2874 78.8715C87.2526 76.1787 87.0468 72.8963 87.6699 69.0241C88.293 65.2855 89.5225 62.1533 91.3584 59.6275C93.1944 57.1017 95.4253 55.199 98.0513 53.9194C100.677 52.6398 103.47 52 106.43 52C108.666 52 110.669 52.2949 112.438 52.8846C114.219 53.4743 115.715 54.3366 116.928 55.4716C118.152 56.5954 119.053 57.9807 119.632 59.6275C120.21 61.2743 120.416 63.1603 120.249 65.2855ZM128.778 86.6491H118.764L135.721 52.4673H148.406L154.014 86.6491H144L140.662 61.8807H140.395L128.778 86.6491ZM129.179 73.1634H148.005L146.804 80.1065H127.977L129.179 73.1634ZM157.306 86.6491L162.981 52.4673H177.735C180.272 52.4673 182.414 52.9291 184.161 53.8526C185.908 54.7762 187.165 56.1058 187.933 57.8416C188.701 59.5774 188.884 61.6581 188.484 64.0838C188.083 66.5317 187.199 68.5958 185.83 70.2759C184.472 71.945 182.742 73.2134 180.639 74.0813C178.547 74.9381 176.2 75.3665 173.596 75.3665H164.783L165.985 68.1562H172.928C174.019 68.1562 174.976 68.0227 175.799 67.7557C176.622 67.4775 177.29 67.0436 177.802 66.4538C178.314 65.853 178.648 65.063 178.803 64.0838C178.959 63.1046 178.881 62.3091 178.57 61.6971C178.258 61.074 177.741 60.6178 177.017 60.3285C176.294 60.0281 175.398 59.8778 174.33 59.8778H171.059L166.586 86.6491H157.306ZM179.938 70.9602L185.88 86.6491H175.799L170.058 70.9602H179.938ZM202.512 86.6491H189.16L194.834 52.4673H207.653C211.169 52.4673 214.106 53.1739 216.465 54.587C218.824 56.0001 220.499 58.0196 221.489 60.6456C222.479 63.2715 222.674 66.3982 222.073 70.0256C221.494 73.5194 220.321 76.507 218.551 78.9883C216.793 81.4696 214.546 83.3667 211.808 84.6797C209.082 85.9927 205.984 86.6491 202.512 86.6491ZM199.741 78.7713H203.113C204.804 78.7713 206.312 78.4764 207.636 77.8867C208.971 77.2859 210.084 76.2845 210.974 74.8825C211.875 73.4693 212.526 71.5388 212.927 69.0909C213.305 66.7765 213.294 64.9906 212.893 63.7333C212.493 62.4648 211.731 61.5858 210.607 61.0962C209.483 60.5955 208.031 60.3452 206.251 60.3452H202.812L199.741 78.7713Z" stroke="#20C38C" stroke-width="2" mask="url(#path-1-outside-1_101_24)"/>
</g>
</svg>
