<svg width="59" height="62" viewBox="0 0 59 62" fill="none" xmlns="http://www.w3.org/2000/svg">
<path d="M10.9614 7.17458L11.7677 5.7087H2.23458L2.68412 2.69388H7.23811L6.8863 1.53583L5.82598 0.309382H12.4078L13.1456 2.68411H18.154L18.9554 1.27198L18.1198 0.294724H24.9606L23.6413 2.68411H28.2295L27.78 5.69893H18.3788L17.5774 7.16481H26.3385L24.1544 22.7031H1.07654L3.2607 7.16481L10.9614 7.17458ZM19.1801 19.7909L19.3414 18.5058H7.04755L6.8863 19.7909H19.1801ZM7.45311 15.5838H19.7567L19.918 14.3183H7.62413L7.45311 15.5838ZM8.04435 11.3865H20.3333L20.5287 10.1015H8.23491L8.04435 11.3865Z" fill="#292945"/>
<path d="M40.8752 14.5577L33.3992 6.88628L33.8878 3.23135L32.8617 2.00979H39.9126L39.424 5.54256L44.965 11.2839L52.2064 5.52301L52.5289 3.21181L51.5028 1.99024H58.4999L57.7914 6.87651L48.1606 14.5577L56.692 23.2895H49.4164L44.0415 17.8022L37.147 23.2895H29.8665L40.8752 14.5577ZM43.6359 1.39901L42.6098 0.182327H49.3187L48.5466 5.6696H43.0594L43.6359 1.39901Z" fill="#292945"/>
<path d="M11.284 52.7194L11.4745 51.5027L18.5792 49.3821H4.4481L4.86343 46.333H26.2115L25.6936 49.988L17.3869 52.7438H27.7507L27.3305 55.7928H16.9667L16.4194 59.7018C16.3238 60.2951 16.0189 60.8346 15.5601 61.2227C15.1012 61.6107 14.5186 61.8218 13.9177 61.8176H7.59485L10.4191 58.8858L10.8686 55.8026H0.5L0.915332 52.7536L11.284 52.7194ZM27.8973 38.6958L26.92 41.1389H28.7475L28.1367 45.4095H21.4572L21.6526 44.188H9.43697L9.24152 45.4095H2.55223L3.16301 41.1389H5.02468L4.73639 38.6958H10.8344L11.1227 41.1389H12.9209L12.6668 38.6958H18.7648L19.0189 41.1389H20.8513L21.8285 38.6958H27.8973Z" fill="#292945"/>
<path d="M39.3995 57.6985L37.6014 55.6756L36.7365 61.7737H31.8502L32.9057 54.2635H29.9299L36.414 45.5904H31.474L31.86 42.6586H41.3247L40.8361 46.4748L38.4613 49.6215L38.432 50.0075L40.2253 52.0305L39.3995 57.6985ZM40.4256 42.0039H35.3586L34.7038 39.5314L33.9758 38.7496H39.6243L40.4256 42.0039ZM45.7565 56.99H40.2986L42.5218 41.1927H47.97L48.1606 39.9712L47.4912 38.7496H53.2325L52.8807 41.1927H58.4315L56.2034 56.99H50.633L49.9587 61.7737H45.0725L45.7565 56.99ZM46.1719 54.0583L46.6605 50.2714H45.4047L44.8868 54.0583H46.1719ZM45.7858 47.5449H47.0709L47.5596 44.2711H46.2696L45.7858 47.5449ZM52.2943 54.0387L52.783 50.2519H51.5614L51.019 54.0387H52.2943ZM52.4214 44.2662L51.9719 47.54H53.1934L53.682 44.2662H52.4214Z" fill="#292945"/>
</svg>
