<svg width="22" height="22" viewBox="0 0 22 22" fill="none" xmlns="http://www.w3.org/2000/svg">
<path d="M12.2759 1.87074L12.2623 1.88944L4.59425 11.8994C4.37461 12.2096 4.32475 12.5979 4.51541 12.9415L4.55868 13.0126C4.74385 13.328 5.07018 13.5018 5.43721 13.5018L9.52188 13.5014L8.53701 19.3039L8.52345 19.3615C8.42811 19.8154 8.65545 20.2118 9.05695 20.4013L9.10791 20.4233L9.11928 20.4303C9.22928 20.4882 9.34918 20.5209 9.47238 20.53L9.54681 20.533C9.84235 20.533 10.1133 20.4167 10.3219 20.2081C10.3514 20.1787 10.3782 20.1468 10.4022 20.1128L17.4459 10.153C17.5056 10.0688 17.5468 9.97299 17.5669 9.87178C17.6109 9.64884 17.6109 9.43178 17.5588 9.22351C17.5457 9.17046 17.5266 9.11905 17.502 9.07024L17.4668 9.00571C17.2809 8.69294 16.956 8.52024 16.5905 8.52024L13.0921 8.51988L14.0839 2.67411C14.0908 2.63365 14.0942 2.59268 14.0942 2.55164L14.0927 2.48564C14.0729 2.09221 13.8782 1.75084 13.5178 1.59904L13.4932 1.58988L13.4716 1.57704C13.0485 1.34971 12.5696 1.47951 12.2755 1.87074H12.2759ZM12.3368 4.20384L11.5011 9.13074L11.4938 9.18428C11.4842 9.28599 11.4959 9.38861 11.5282 9.48554C11.5605 9.58247 11.6127 9.67157 11.6815 9.74714C11.7503 9.82271 11.8341 9.88307 11.9275 9.92436C12.021 9.96565 12.122 9.98696 12.2242 9.98691L15.7669 9.98654L10.2915 17.7291L11.1128 12.8913L11.1202 12.8377C11.1299 12.736 11.1182 12.6334 11.086 12.5365C11.0537 12.4395 11.0015 12.3504 10.9328 12.2748C10.864 12.1992 10.7803 12.1388 10.6868 12.0974C10.5934 12.0561 10.4923 12.0347 10.3901 12.0347H6.33738L12.3368 4.20384Z" fill="#3EBAD0"/>
<path d="M17.8034 12.0231C17.945 12.0107 18.0871 12.0397 18.2125 12.1066C18.3379 12.1734 18.4412 12.2753 18.5098 12.3998C18.5783 12.5243 18.6092 12.6661 18.5987 12.8078C18.5882 12.9496 18.5367 13.0852 18.4506 13.1982L16.3048 16.1L15.1069 15.2538L17.2684 12.3307L17.2739 12.323C17.3355 12.238 17.4147 12.1673 17.506 12.1156C17.5974 12.0639 17.6988 12.0324 17.8034 12.0234V12.0231Z" fill="#FBDE71"/>
</svg>
