<svg width="143" height="32" viewBox="0 0 143 32" fill="none" xmlns="http://www.w3.org/2000/svg">
<rect width="17.875" height="16" rx="4" fill="#6290E9"/>
<rect x="17.875" width="17.875" height="16" rx="4" fill="#B791DC"/>
<rect x="35.75" width="17.875" height="16" rx="4" fill="#ABA6E9"/>
<rect x="53.625" width="17.875" height="16" rx="4" fill="#E39ACA"/>
<rect x="71.5" width="17.875" height="16" rx="4" fill="#F091A2"/>
<rect x="89.375" width="17.875" height="16" rx="4" fill="#FF9470"/>
<rect x="107.25" width="17.875" height="16" rx="4" fill="#FDB165"/>
<rect x="125.125" width="17.875" height="16" rx="4" fill="#F3D257"/>
<rect y="16" width="17.875" height="16" rx="4" fill="#5DD39E"/>
<rect x="17.875" y="16" width="17.875" height="16" rx="4" fill="#B2DB7C"/>
<rect x="35.75" y="16" width="17.875" height="16" rx="4" fill="#68D8D6"/>
<rect x="53.625" y="16" width="17.875" height="16" rx="4" fill="#A9B7BD"/>
<rect x="71.5" y="16" width="17.875" height="16" rx="4" fill="#59ADDF"/>
<rect x="89.375" y="16" width="17.875" height="16" rx="4" fill="#7895BC"/>
<rect x="107.25" y="16" width="17.875" height="16" rx="4" fill="#75AEAE"/>
<rect x="125.125" y="16" width="17.875" height="16" rx="4" fill="#2DAEC1"/>
</svg>
