<svg width="12" height="13" viewBox="0 0 12 13" fill="none" xmlns="http://www.w3.org/2000/svg">
<path d="M9.47376 11.5435L6.37626 10.0245C6.26847 9.96821 6.18689 9.8721 6.14883 9.7566C6.11077 9.64111 6.11923 9.51532 6.17243 9.40597C6.22563 9.29662 6.31936 9.21231 6.43372 9.17096C6.54808 9.12961 6.67405 9.13447 6.78488 9.18451L9.32501 10.4323L10.4214 2.92476L5.48288 8.85026V11.6039C5.47768 11.724 5.42631 11.8374 5.3395 11.9205C5.25269 12.0037 5.13714 12.0501 5.01695 12.0501C4.89675 12.0501 4.7812 12.0037 4.69439 11.9205C4.60758 11.8374 4.55621 11.724 4.55101 11.6039V8.69626C4.54825 8.58014 4.58774 8.46697 4.66213 8.37776L9.31363 2.79439L1.85513 6.66451L3.61301 7.57626C3.72386 7.6344 3.8077 7.73343 3.84675 7.85236C3.88579 7.97128 3.87696 8.10074 3.82213 8.21326C3.76967 8.32139 3.67641 8.40426 3.56287 8.44364C3.44932 8.48302 3.32478 8.47569 3.21663 8.42326L0.673884 7.09939C0.576795 7.04898 0.499902 6.96684 0.456009 6.86664C0.39879 6.75834 0.386828 6.63178 0.422746 6.51467C0.458664 6.39757 0.539532 6.29948 0.647634 6.24189L10.8956 0.926264C10.9641 0.891019 11.04 0.872715 11.117 0.872889C11.3454 0.868514 11.5423 1.03039 11.5834 1.25439C11.5983 1.32928 11.5953 1.40663 11.5746 1.48014L10.1571 11.1883C10.1428 11.288 10.0966 11.3805 10.0255 11.4519C9.95443 11.5233 9.86219 11.5698 9.76251 11.5846C9.66435 11.6029 9.56293 11.5884 9.47376 11.5435Z" fill="#FBDE71"/>
</svg>
