<svg width="10" height="9" viewBox="0 0 10 9" fill="none" xmlns="http://www.w3.org/2000/svg">
<path d="M9.6875 0.749978H2.84375C2.81889 0.749978 2.79504 0.759855 2.77746 0.777437C2.75988 0.795018 2.75 0.818864 2.75 0.843728V1.49998C2.75 1.55173 2.792 1.59373 2.84375 1.59373H9.6875C9.71236 1.59373 9.73621 1.58385 9.75379 1.56627C9.77137 1.54869 9.78125 1.52484 9.78125 1.49998V0.843728C9.78125 0.818864 9.77137 0.795018 9.75379 0.777437C9.73621 0.759855 9.71236 0.749978 9.6875 0.749978ZM9.6875 4.07848H2.84375C2.81889 4.07848 2.79504 4.08836 2.77746 4.10594C2.75988 4.12352 2.75 4.14736 2.75 4.17223V4.82848C2.75 4.87948 2.792 4.92148 2.84375 4.92148H9.6875C9.71223 4.92148 9.73597 4.91171 9.75353 4.89429C9.77109 4.87687 9.78105 4.85321 9.78125 4.82848V4.17148C9.78125 4.14661 9.77137 4.12277 9.75379 4.10519C9.73621 4.08761 9.71236 4.07773 9.6875 4.07773V4.07848ZM9.6875 7.40623H2.84375C2.81889 7.40623 2.79504 7.41611 2.77746 7.43369C2.75988 7.45127 2.75 7.47511 2.75 7.49998V8.15623C2.75 8.20798 2.792 8.24998 2.84375 8.24998H9.6875C9.71236 8.24998 9.73621 8.2401 9.75379 8.22252C9.77137 8.20494 9.78125 8.18109 9.78125 8.15623V7.49998C9.78125 7.47511 9.77137 7.45127 9.75379 7.43369C9.73621 7.41611 9.71236 7.40623 9.6875 7.40623ZM0.21875 1.17148C0.21875 1.25766 0.235724 1.34299 0.268704 1.42261C0.301684 1.50223 0.350023 1.57458 0.410961 1.63552C0.4719 1.69646 0.544244 1.74479 0.623864 1.77777C0.703484 1.81075 0.78882 1.82773 0.875 1.82773C0.96118 1.82773 1.04652 1.81075 1.12614 1.77777C1.20576 1.74479 1.2781 1.69646 1.33904 1.63552C1.39998 1.57458 1.44832 1.50223 1.4813 1.42261C1.51428 1.34299 1.53125 1.25766 1.53125 1.17148C1.53125 0.99743 1.46211 0.83051 1.33904 0.707439C1.21597 0.584369 1.04905 0.515228 0.875 0.515228C0.700952 0.515228 0.534032 0.584369 0.410961 0.707439C0.28789 0.83051 0.21875 0.99743 0.21875 1.17148ZM0.21875 4.49998C0.21875 4.58616 0.235724 4.67149 0.268704 4.75111C0.301684 4.83073 0.350023 4.90308 0.410961 4.96402C0.4719 5.02496 0.544244 5.07329 0.623864 5.10627C0.703484 5.13925 0.78882 5.15623 0.875 5.15623C0.96118 5.15623 1.04652 5.13925 1.12614 5.10627C1.20576 5.07329 1.2781 5.02496 1.33904 4.96402C1.39998 4.90308 1.44832 4.83073 1.4813 4.75111C1.51428 4.67149 1.53125 4.58616 1.53125 4.49998C1.53125 4.32593 1.46211 4.15901 1.33904 4.03594C1.21597 3.91287 1.04905 3.84373 0.875 3.84373C0.700952 3.84373 0.534032 3.91287 0.410961 4.03594C0.28789 4.15901 0.21875 4.32593 0.21875 4.49998ZM0.21875 7.82848C0.21875 7.91466 0.235724 7.99999 0.268704 8.07961C0.301684 8.15923 0.350023 8.23158 0.410961 8.29252C0.4719 8.35346 0.544244 8.40179 0.623864 8.43477C0.703484 8.46775 0.78882 8.48473 0.875 8.48473C0.96118 8.48473 1.04652 8.46775 1.12614 8.43477C1.20576 8.40179 1.2781 8.35346 1.33904 8.29252C1.39998 8.23158 1.44832 8.15923 1.4813 8.07961C1.51428 7.99999 1.53125 7.91466 1.53125 7.82848C1.53125 7.65443 1.46211 7.48751 1.33904 7.36444C1.21597 7.24137 1.04905 7.17223 0.875 7.17223C0.700952 7.17223 0.534032 7.24137 0.410961 7.36444C0.28789 7.48751 0.21875 7.65443 0.21875 7.82848Z" fill="#FBDE71"/>
</svg>
