<svg width="12" height="13" viewBox="0 0 12 13" fill="none" xmlns="http://www.w3.org/2000/svg">
<path d="M6 0.704315C7.66276 0.704315 9.01075 2.0523 9.01075 3.71507C9.01075 4.79292 8.44436 5.73844 7.59306 6.27029C8.60438 6.55872 9.5198 7.11888 10.2436 7.89663C10.3252 7.98431 10.3686 8.10082 10.3643 8.22052C10.36 8.34022 10.3083 8.45331 10.2206 8.53491C10.1329 8.6165 10.0164 8.65993 9.89673 8.65562C9.77703 8.65132 9.66394 8.59964 9.58234 8.51195C8.66226 7.52322 7.37742 6.95163 6 6.95163C3.29792 6.95163 1.10753 9.14202 1.10753 11.8441C1.10753 11.9639 1.05995 12.0787 0.975252 12.1634C0.890559 12.2481 0.775689 12.2957 0.655914 12.2957C0.536139 12.2957 0.421269 12.2481 0.336575 12.1634C0.251881 12.0787 0.204301 11.9639 0.204301 11.8441C0.204301 9.19577 1.98064 6.96224 4.40686 6.27014C3.55557 5.73829 2.98925 4.79284 2.98925 3.71507C2.98925 2.0523 4.33724 0.704315 6 0.704315ZM11.4194 10.9409C11.5192 10.9409 11.6149 10.9805 11.6855 11.0511C11.756 11.1217 11.7957 11.2174 11.7957 11.3172V11.4678C11.7957 11.5676 11.756 11.6633 11.6855 11.7339C11.6149 11.8045 11.5192 11.8441 11.4194 11.8441H8.78495C8.68513 11.8441 8.58941 11.8045 8.51883 11.7339C8.44825 11.6633 8.4086 11.5676 8.4086 11.4678V11.3172C8.4086 11.2174 8.44825 11.1217 8.51883 11.0511C8.58941 10.9805 8.68513 10.9409 8.78495 10.9409H11.4194ZM11.4194 9.36023C11.5192 9.36023 11.6149 9.39988 11.6855 9.47046C11.756 9.54104 11.7957 9.63676 11.7957 9.73657V9.88711C11.7957 9.98692 11.756 10.0826 11.6855 10.1532C11.6149 10.2238 11.5192 10.2635 11.4194 10.2635H8.78495C8.68513 10.2635 8.58941 10.2238 8.51883 10.1532C8.44825 10.0826 8.4086 9.98692 8.4086 9.88711V9.73657C8.4086 9.63676 8.44825 9.54104 8.51883 9.47046C8.58941 9.39988 8.68513 9.36023 8.78495 9.36023H11.4194ZM6 1.60754C4.83604 1.60754 3.89247 2.55111 3.89247 3.71507C3.89247 4.87902 4.83604 5.82259 6 5.82259C7.16396 5.82259 8.10753 4.87902 8.10753 3.71507C8.10753 2.55111 7.16396 1.60754 6 1.60754Z" fill="#FBDE71"/>
</svg>
