<svg width="20" height="20" viewBox="0 0 20 20" fill="none" xmlns="http://www.w3.org/2000/svg">
<path d="M10.0004 8.33327C11.6112 8.33327 12.9171 7.02744 12.9171 5.41661C12.9171 3.80578 11.6112 2.49994 10.0004 2.49994C8.38957 2.49994 7.08374 3.80578 7.08374 5.41661C7.08374 7.02744 8.38957 8.33327 10.0004 8.33327Z" stroke="#4BDCAB" stroke-width="1.66667" stroke-linecap="round" stroke-linejoin="round"/>
<path d="M2.5 17V17.5H17.5V17C17.5 15.1332 17.5 14.1998 17.1367 13.4867C16.8171 12.8595 16.3072 12.3496 15.68 12.03C14.9669 11.6667 14.0335 11.6667 12.1667 11.6667H7.83333C5.9665 11.6667 5.03308 11.6667 4.32004 12.03C3.69283 12.3496 3.18289 12.8595 2.86331 13.4867C2.5 14.1998 2.5 15.1332 2.5 17Z" stroke="#4BDCAB" stroke-width="1.66667" stroke-linecap="round" stroke-linejoin="round"/>
<path d="M8.00024 11.9999V11.4999H6.79314L7.64669 12.3535L8.00024 11.9999ZM10.0002 13.9999L9.64669 14.3535C9.84195 14.5488 10.1585 14.5488 10.3538 14.3535L10.0002 13.9999ZM12.0002 11.9999L12.3538 12.3535L13.2074 11.4999H12.0002V11.9999ZM7.64669 12.3535L9.64669 14.3535L10.3538 13.6464L8.3538 11.6464L7.64669 12.3535ZM10.3538 14.3535L12.3538 12.3535L11.6467 11.6464L9.64669 13.6464L10.3538 14.3535ZM12.0002 11.4999H8.00024V12.4999H12.0002V11.4999Z" fill="#4BDCAB"/>
</svg>
