<svg width="23" height="22" viewBox="0 0 23 22" fill="none" xmlns="http://www.w3.org/2000/svg">
<path d="M15.044 6.3501C15.1793 6.3501 15.309 6.40383 15.4046 6.49947C15.5003 6.59512 15.554 6.72484 15.554 6.8601V14.0401C15.5557 14.2624 15.5149 14.483 15.434 14.6901C15.3599 14.8808 15.2476 15.0544 15.104 15.2001C14.9561 15.3483 14.779 15.464 14.584 15.5401C14.3805 15.6212 14.1631 15.662 13.944 15.6601H9.68401C9.46485 15.6627 9.24733 15.622 9.04401 15.5401C8.84771 15.4665 8.67012 15.3504 8.52401 15.2001C8.37414 15.0575 8.25799 14.8833 8.18401 14.6901C8.10309 14.483 8.06236 14.2624 8.06401 14.0401V6.8601C8.07191 6.73544 8.12529 6.61802 8.21401 6.5301C8.25636 6.48251 8.30897 6.44517 8.36788 6.42091C8.42678 6.39666 8.49043 6.38612 8.55401 6.3901L15.044 6.3501ZM13.944 14.6801C14.1208 14.697 14.297 14.6431 14.434 14.5301C14.4909 14.4628 14.5336 14.3847 14.5593 14.3005C14.5851 14.2163 14.5935 14.1277 14.584 14.0401V7.3201H9.04401V14.0401C9.03451 14.1277 9.0429 14.2163 9.06869 14.3005C9.09447 14.3847 9.13711 14.4628 9.19401 14.5301C9.33102 14.6431 9.50726 14.697 9.68401 14.6801H13.944ZM13.444 10.1101C13.5071 10.1099 13.5696 10.1222 13.6279 10.1463C13.6863 10.1703 13.7393 10.2056 13.784 10.2501C13.8318 10.295 13.87 10.3492 13.896 10.4094C13.9221 10.4696 13.9355 10.5345 13.9355 10.6001C13.9355 10.6657 13.9221 10.7306 13.896 10.7908C13.87 10.851 13.8318 10.9052 13.784 10.9501C13.7393 10.9946 13.6863 11.0299 13.6279 11.0539C13.5696 11.078 13.5071 11.0903 13.444 11.0901H10.184C10.0514 11.0901 9.92423 11.0374 9.83046 10.9437C9.73669 10.8499 9.68401 10.7227 9.68401 10.5901C9.68401 10.4575 9.73669 10.3303 9.83046 10.2365C9.92423 10.1428 10.0514 10.0901 10.184 10.0901L13.444 10.1101Z" fill="#333333"/>
<path d="M7.20386 2H17.9639C18.5698 2.03607 19.1366 2.31122 19.5397 2.765C19.9429 3.21878 20.1494 3.81405 20.1139 4.42V16.5C19.555 16.0173 19.021 15.5067 18.5139 14.97" stroke="#333333" stroke-width="1.5" stroke-linecap="round" stroke-linejoin="round"/>
<path d="M16.3739 20.2H5.65393C5.04801 20.1639 4.48119 19.8887 4.07805 19.435C3.6749 18.9812 3.4684 18.3859 3.50393 17.78V5.69995C3.50393 5.69995 4.68393 6.69995 5.11393 7.22995" stroke="#333333" stroke-width="1.5" stroke-linecap="round" stroke-linejoin="round"/>
</svg>
