<svg width="85" height="109" viewBox="0 0 85 109" fill="none" xmlns="http://www.w3.org/2000/svg">
<path d="M56.6198 75.4946C65.7834 75.4036 69.8094 65.3725 66.0735 57.7379C59.5765 41.6622 41.2721 40.2673 33.031 44.3382C19.9619 50.8413 12.2587 68.4745 23.5772 74.3143C25.1812 75.2116 26.9932 75.6735 28.8322 75.6539L56.6198 75.4946Z" fill="white"/>
<path d="M28.767 76.3043C26.8369 76.313 24.9376 75.8223 23.2545 74.8801C19.4273 72.9064 17.4095 69.528 17.4388 65.1254C17.491 57.2664 24.0695 48.084 32.7343 43.7594C37.1222 41.5939 44.933 40.6932 52.5025 43.5676C57.1023 45.3137 63.2896 49.144 66.6669 57.4777C68.7793 61.8088 68.5837 66.9268 66.1583 70.8481C64.0655 74.2265 60.6817 76.1092 56.6263 76.1482L28.8387 76.3075L28.767 76.3043ZM42.5141 43.0408C38.8434 43.0408 35.5868 43.7984 33.3179 44.9202C25.1811 48.9717 18.7917 57.8484 18.7428 65.1287C18.7167 69.0143 20.4933 71.9927 23.8771 73.7388C25.3873 74.5879 27.0955 75.0242 28.829 75.0036L56.6133 74.8443C60.1992 74.8085 63.1983 73.1437 65.0467 70.1588C67.2113 66.6666 67.3841 61.8999 65.4835 58.024V57.9817C64.307 54.9603 62.502 52.2216 60.1876 49.9462C57.8732 47.6708 55.1018 45.9102 52.0559 44.7804C49.0077 43.6273 45.7742 43.0378 42.5141 43.0408Z" fill="#78DAB9"/>
<path d="M67.6612 60.9179L66.6833 60.0595C73.5747 52.2558 72.3295 47.0858 71.8144 45.7526C64.7925 46.2696 63.0745 50.6755 62.8398 51.3973C62.8281 51.4436 62.814 51.4892 62.7974 51.5339L61.5522 51.1535C61.5522 51.134 61.5717 51.0819 61.5978 51.0039C61.9759 49.5277 61.0534 43.8505 60.3655 40.5241L60.2449 39.9389L60.8154 39.7698C71.4721 36.5897 73.2031 26.6888 73.3433 25.7458C73.2553 25.3784 72.3653 25.1638 71.5406 25.1313L70.6734 27.3423L67.7199 25.8206L66.8528 27.6382L64.3198 26.5912C61.6499 33.6308 54.7291 34.4697 52.6884 34.564C52.0593 36.8694 48.7961 42.0426 48.0854 43.1319L46.9868 42.4295C48.858 39.5031 51.4953 34.951 51.492 33.9267V33.2439L52.1734 33.2732C52.5222 33.2732 60.7339 33.5105 63.3125 25.5279L63.5309 24.8581L66.2073 25.9604L67.1168 24.0387L69.9856 25.5149L70.6376 23.8371H71.0646C71.4199 23.8209 74.5266 23.7461 74.6505 25.7198V25.7783V25.8368C74.6505 25.9474 73.1868 37.0905 61.7608 40.8428C62.2885 43.4104 62.677 46.0046 62.9246 48.614C64.3296 46.8126 67.0647 44.6829 72.1958 44.4325L72.587 44.413L72.7858 44.7381C72.9325 44.9885 76.362 51.0494 67.6612 60.9179Z" fill="#78DAB9"/>
<path d="M18.0485 61.9681C9.00552 52.3923 12.2361 46.2241 12.3763 45.9672L12.5654 45.6258H12.9598C18.0942 45.7006 20.901 47.7393 22.3679 49.4887C22.5246 46.8731 22.8239 44.268 23.2644 41.6849C11.7178 38.3261 9.8857 27.2415 9.85962 27.1277V27.0692V27.0106C9.91504 25.037 13.025 25.0077 13.3803 25.0077H13.8041L14.518 26.6627L17.3314 25.089L18.3093 26.9781L20.9434 25.7881L21.1846 26.4384C24.0338 34.3267 32.2357 33.8227 32.5943 33.7999L33.2756 33.7479L33.2952 34.4274C33.3245 35.4484 35.9586 39.6299 37.82 42.2995L36.7507 43.0441C36.0433 42.0361 32.7964 37.3311 32.1151 35.107C30.0711 35.0843 23.1308 34.4762 20.2262 27.5341L17.7193 28.6787L16.7935 26.8838L13.8921 28.5096L12.95 26.3376C12.1416 26.3863 11.2451 26.6302 11.1636 26.9879C11.3396 28.0121 13.3086 37.7343 24.1609 40.5761L24.7412 40.7257L24.6401 41.3142C24.0631 44.6568 23.3361 50.3666 23.7664 51.833L23.8153 51.9761L22.5831 52.4021C22.5831 52.3565 22.5505 52.311 22.5375 52.2655C22.2767 51.5534 20.4087 47.2061 13.3738 46.9297C12.9142 48.2953 11.8417 53.4978 18.9874 61.0772L18.0485 61.9681Z" fill="#78DAB9"/>
<path d="M13.0151 46.8225C13.0151 46.8225 13.1292 51.5405 17.1813 54.3303C20.5749 56.6682 20.1152 57.6209 20.1152 57.6209L23.1796 52.6915C23.1796 52.6915 21.2693 46.7672 13.0151 46.8225Z" fill="#78DAB9"/>
<path d="M72.1242 45.4925C72.1242 45.4925 72.1699 50.2105 68.2123 53.1402C64.9002 55.5918 65.4055 56.525 65.4055 56.525L62.188 51.6997C62.188 51.6997 63.8734 45.7071 72.1242 45.4925Z" fill="#78DAB9"/>
<path d="M64.923 56.7201C64.6329 56.1869 64.6361 54.9285 67.9156 52.4931C68.9929 51.6802 69.8625 50.6251 70.4539 49.4138C71.0453 48.2024 71.3417 46.8689 71.319 45.5217L72.6229 45.4405C72.6229 45.6421 72.887 50.4316 68.6947 53.5336C66.152 55.4162 66.1259 56.2291 66.1259 56.2356C66.1183 56.1839 66.1006 56.1342 66.0738 56.0893L64.923 56.7201Z" fill="#78DAB9"/>
<path opacity="0.36" d="M37.6733 65.9578C37.5886 70.2467 27.8284 70.4092 27.5969 66.1269C27.6817 61.8414 37.4419 61.6755 37.6733 65.9578Z" fill="#F2A0A8"/>
<path d="M34.0319 26.6953C29.2007 26.7733 31.0197 18.8005 30.7719 16.5211C31.4777 17.0773 31.9945 17.8368 32.2519 18.6964C32.6138 20.0523 31.7304 12.0047 34.8599 11.1073C35.4499 10.935 33.7548 12.0405 34.6936 17.5389C35.3288 16.8375 35.7506 15.9702 35.9096 15.0384C37.0212 16.0139 37.6732 18.4396 37.4939 20.8685C37.4874 20.8685 35.0098 24.1753 34.0319 26.6953Z" fill="white"/>
<path d="M33.9602 27.183C33.5043 27.2013 33.0497 27.1239 32.6258 26.9558C32.2018 26.7878 31.8179 26.5329 31.4989 26.2076C29.8983 24.546 30.0972 21.1449 30.2406 18.6639C30.3022 17.9721 30.3175 17.2769 30.2862 16.5829L30.1656 15.4839L31.0621 16.1342C31.3861 16.3868 31.6765 16.6796 31.926 17.0057C32.0433 14.7296 32.4834 11.2894 34.7165 10.6456C34.8207 10.6032 34.9353 10.5932 35.0452 10.617C35.1552 10.6408 35.2554 10.6973 35.3326 10.7789C35.4151 10.8879 35.4625 11.0194 35.4683 11.1559C35.4741 11.2924 35.4381 11.4274 35.3652 11.543C35.1794 12.0113 34.6643 13.3314 34.9968 16.2578C35.2113 15.8633 35.3537 15.4339 35.4174 14.9897L35.5315 14.0727L36.2258 14.6808C37.4483 15.7505 38.1818 18.3128 37.9764 20.914V21.0571L37.8916 21.1709C37.8688 21.2034 35.4434 24.4517 34.5013 26.8806L34.384 27.1863H34.058L33.9602 27.183ZM31.2675 17.7535C31.2675 18.0559 31.2381 18.3811 31.2186 18.729C31.0817 21.0311 30.8926 24.1851 32.1966 25.5572C32.5961 25.9572 33.1336 26.1898 33.6994 26.2076C34.6545 23.9542 36.5648 21.2977 37.0017 20.7027C37.1093 18.9371 36.7604 17.1845 36.128 16.1115C35.8753 16.7629 35.5064 17.3632 35.0392 17.8836L34.3677 18.5827L34.2047 17.6267C33.7352 14.8791 33.9048 13.1916 34.1395 12.1868C33.005 13.598 32.8974 16.9081 32.8616 18.1209C32.8388 18.9403 32.829 19.2817 32.3726 19.3338C32.1705 19.3565 31.9032 19.285 31.7793 18.82C31.672 18.4376 31.4989 18.0767 31.2675 17.7535Z" fill="#78DAB9"/>
<path d="M50.6576 28.8771C50.8141 30.9158 54.1294 19.698 52.3071 14.8727C49.8915 19.5842 50.4587 16.7228 50.4587 16.7228C50.876 12.3559 49.6894 11.6178 48.8288 9.27347C47.8182 6.55517 48.5582 4.07098 47.0456 1.79489C47.176 3.65153 46.0969 10.8993 45.6112 9.41004C45.1255 7.92083 44.2127 7.47861 44.2127 7.47861C43.8378 10.6456 43.0326 11.9007 43.0326 11.9007C39.7303 16.2155 41.7808 19.6037 41.7808 19.6037C41.7808 19.6037 49.9045 19.0509 50.6576 28.8771Z" fill="white"/>
<path d="M50.7553 29.6119C50.692 29.6106 50.6294 29.5997 50.5694 29.5794C50.4476 29.5202 50.3452 29.4275 50.2742 29.3124C50.2032 29.1972 50.1665 29.0643 50.1685 28.9291C49.4643 19.7044 42.1328 20.0849 41.8068 20.1044L41.5101 20.1239L41.3569 19.8703C41.2656 19.7207 39.1793 16.157 42.6185 11.6373C42.6967 11.5073 43.3878 10.2619 43.7203 7.43631L43.8018 6.75348L44.4212 7.05263C44.9875 7.38538 45.4415 7.87895 45.7252 8.47031C46.1294 6.82502 46.638 3.20278 46.5434 1.84038L46.4163 0L47.4399 1.53473C48.3657 2.9264 48.5092 4.40586 48.6526 5.8528C48.7166 6.95916 48.9259 8.05236 49.2753 9.10436C49.4806 9.65712 49.7088 10.1221 49.9272 10.5741C50.5792 11.9235 51.2084 13.2046 50.9867 16.274C51.2051 15.9099 51.4953 15.3896 51.8734 14.6483L52.3754 13.6728L52.7666 14.7068C54.3966 18.9891 52.0886 28.5097 51.1758 29.4298C51.0651 29.5434 50.914 29.6088 50.7553 29.6119ZM42.0806 19.1289C43.5867 19.1517 49.7447 19.737 50.9835 27.4659C51.743 24.9947 52.8221 19.6329 52.1635 16.1895C51.1856 17.9551 50.7976 18.1957 50.3413 18.0396C49.9403 17.8998 49.8197 17.4479 49.9729 16.6545C50.2695 13.5135 49.7284 12.4047 49.0471 11C48.7913 10.4885 48.5617 9.96429 48.3592 9.42952C47.9736 8.29948 47.7434 7.12255 47.6746 5.93084C47.624 5.29236 47.5369 4.65728 47.4138 4.02868C47.3389 4.8058 47.2313 5.6382 47.1172 6.3763C46.563 9.95302 46.1686 10.0376 45.8491 10.0993C45.7285 10.1221 45.3177 10.1546 45.1286 9.57258C45.0055 9.17519 44.816 8.80142 44.5679 8.46706C44.1539 11.0553 43.4759 12.1251 43.4367 12.1771L43.4139 12.2096C40.8288 15.6075 41.7122 18.3225 42.0806 19.1289Z" fill="#78DAB9"/>
<path d="M40.3236 23.5771C40.4996 21.236 39.6977 21.8635 39.4792 23.6876C39.1584 26.5963 39.2033 29.5335 39.6129 32.4311C39.6129 32.9091 40.2453 34.8795 40.467 33.6309C40.3627 30.3306 39.9976 26.9002 40.3236 23.5771Z" fill="#78DAB9"/>
<path d="M40.2615 34.2031H40.2387C39.7758 34.1706 39.4563 32.6976 39.4498 32.4375C39.0379 29.5281 38.993 26.5788 39.3161 23.6583C39.4237 22.7673 39.7073 21.8862 40.1018 21.8862H40.1278C40.2452 21.8862 40.6103 21.9349 40.4864 23.5802C40.2485 25.9896 40.3789 28.4868 40.506 30.9027C40.5516 31.7937 40.6005 32.7171 40.6299 33.6113V33.6438C40.6005 33.8161 40.5288 34.2031 40.2615 34.2031ZM40.0887 22.2373C39.9714 22.3446 39.7627 22.8356 39.6388 23.707C39.3197 26.6017 39.3657 29.5249 39.7758 32.4082C39.8341 32.9133 39.9926 33.4019 40.2419 33.8454C40.2698 33.7719 40.2895 33.6956 40.3006 33.6178C40.2745 32.7301 40.2256 31.8164 40.18 30.932C40.0529 28.5063 39.9225 26.0124 40.1767 23.564C40.2322 22.6113 40.1311 22.3186 40.0887 22.2373Z" fill="white"/>
<path d="M40.3236 23.5771C40.4996 21.236 39.6977 21.8635 39.4792 23.6876C39.1584 26.5963 39.2033 29.5335 39.6129 32.4311C39.6129 32.9091 40.2453 34.8795 40.467 33.6309C40.3627 30.3306 39.9976 26.9002 40.3236 23.5771Z" fill="#78DAB9"/>
<path d="M40.2615 34.2031H40.2387C39.7758 34.1706 39.4563 32.6976 39.4498 32.4375C39.0379 29.5281 38.993 26.5788 39.3161 23.6583C39.4237 22.7673 39.7073 21.8862 40.1018 21.8862H40.1278C40.2452 21.8862 40.6103 21.9349 40.4864 23.5802C40.2485 25.9896 40.3789 28.4868 40.506 30.9027C40.5516 31.7937 40.6005 32.7171 40.6299 33.6113V33.6438C40.6005 33.8161 40.5288 34.2031 40.2615 34.2031ZM40.0887 22.2373C39.9714 22.3446 39.7627 22.8356 39.6388 23.707C39.3197 26.6017 39.3657 29.5249 39.7758 32.4082C39.8341 32.9133 39.9926 33.4019 40.2419 33.8454C40.2698 33.7719 40.2895 33.6956 40.3006 33.6178C40.2745 32.7301 40.2256 31.8164 40.18 30.932C40.0529 28.5063 39.9225 26.0124 40.1767 23.564C40.2322 22.6113 40.1311 22.3186 40.0887 22.2373Z" fill="white"/>
<path d="M40.3236 23.5771C40.4996 21.236 39.6977 21.8635 39.4792 23.6876C39.1584 26.5963 39.2033 29.5335 39.6129 32.4311C39.6129 32.9091 40.2453 34.8795 40.467 33.6309C40.3627 30.3306 39.9976 26.9002 40.3236 23.5771Z" fill="#78DAB9"/>
<path d="M40.2615 34.2031H40.2387C39.7758 34.1706 39.4563 32.6976 39.4498 32.4375C39.0379 29.5281 38.993 26.5788 39.3161 23.6583C39.4237 22.7673 39.7073 21.8862 40.1018 21.8862H40.1278C40.2452 21.8862 40.6103 21.9349 40.4864 23.5802C40.2485 25.9896 40.3789 28.4868 40.506 30.9027C40.5516 31.7937 40.6005 32.7171 40.6299 33.6113V33.6438C40.6005 33.8161 40.5288 34.2031 40.2615 34.2031ZM40.0887 22.2373C39.9714 22.3446 39.7627 22.8356 39.6388 23.707C39.3197 26.6017 39.3657 29.5249 39.7758 32.4082C39.8341 32.9133 39.9926 33.4019 40.2419 33.8454C40.2698 33.7719 40.2895 33.6956 40.3006 33.6178C40.2745 32.7301 40.2256 31.8164 40.18 30.932C40.0529 28.5063 39.9225 26.0124 40.1767 23.564C40.2322 22.6113 40.1311 22.3186 40.0887 22.2373Z" fill="white"/>
<path d="M40.3236 23.5771C40.4996 21.236 39.6977 21.8635 39.4792 23.6876C39.1584 26.5963 39.2033 29.5335 39.6129 32.4311C39.6129 32.9091 40.2453 34.8795 40.467 33.6309C40.3627 30.3306 39.9976 26.9002 40.3236 23.5771Z" fill="#78DAB9"/>
<path d="M40.2615 34.2031H40.2387C39.7758 34.1706 39.4563 32.6976 39.4498 32.4375C39.0379 29.5281 38.993 26.5788 39.3161 23.6583C39.4237 22.7673 39.7073 21.8862 40.1018 21.8862H40.1278C40.2452 21.8862 40.6103 21.9349 40.4864 23.5802C40.2485 25.9896 40.3789 28.4868 40.506 30.9027C40.5516 31.7937 40.6005 32.7171 40.6299 33.6113V33.6438C40.6005 33.8161 40.5288 34.2031 40.2615 34.2031ZM40.0887 22.2373C39.9714 22.3446 39.7627 22.8356 39.6388 23.707C39.3197 26.6017 39.3657 29.5249 39.7758 32.4082C39.8341 32.9133 39.9926 33.4019 40.2419 33.8454C40.2698 33.7719 40.2895 33.6956 40.3006 33.6178C40.2745 32.7301 40.2256 31.8164 40.18 30.932C40.0529 28.5063 39.9225 26.0124 40.1767 23.564C40.2322 22.6113 40.1311 22.3186 40.0887 22.2373Z" fill="white"/>
<path d="M40.3236 23.5771C40.4996 21.236 39.6977 21.8635 39.4792 23.6876C39.1584 26.5963 39.2033 29.5335 39.6129 32.4311C39.6129 32.9091 40.2453 34.8795 40.467 33.6309C40.3627 30.3306 39.9976 26.9002 40.3236 23.5771Z" fill="#78DAB9"/>
<path d="M40.2615 34.2031H40.2387C39.7758 34.1706 39.4563 32.6976 39.4498 32.4375C39.0379 29.5281 38.993 26.5788 39.3161 23.6583C39.4237 22.7673 39.7073 21.8862 40.1018 21.8862H40.1278C40.2452 21.8862 40.6103 21.9349 40.4864 23.5802C40.2485 25.9896 40.3789 28.4868 40.506 30.9027C40.5516 31.7937 40.6005 32.7171 40.6299 33.6113V33.6438C40.6005 33.8161 40.5288 34.2031 40.2615 34.2031ZM40.0887 22.2373C39.9714 22.3446 39.7627 22.8356 39.6388 23.707C39.3197 26.6017 39.3657 29.5249 39.7758 32.4082C39.8341 32.9133 39.9926 33.4019 40.2419 33.8454C40.2698 33.7719 40.2895 33.6956 40.3006 33.6178C40.2745 32.7301 40.2256 31.8164 40.18 30.932C40.0529 28.5063 39.9225 26.0124 40.1767 23.564C40.2322 22.6113 40.1311 22.3186 40.0887 22.2373Z" fill="white"/>
<path d="M40.3236 23.5771C40.4996 21.236 39.6977 21.8635 39.4792 23.6876C39.1584 26.5963 39.2033 29.5335 39.6129 32.4311C39.6129 32.9091 40.2453 34.8795 40.467 33.6309C40.3627 30.3306 39.9976 26.9002 40.3236 23.5771Z" fill="#78DAB9"/>
<path d="M40.2615 34.2031H40.2387C39.7758 34.1706 39.4563 32.6976 39.4498 32.4375C39.0379 29.5281 38.993 26.5788 39.3161 23.6583C39.4237 22.7673 39.7073 21.8862 40.1018 21.8862H40.1278C40.2452 21.8862 40.6103 21.9349 40.4864 23.5802C40.2485 25.9896 40.3789 28.4868 40.506 30.9027C40.5516 31.7937 40.6005 32.7171 40.6299 33.6113V33.6438C40.6005 33.8161 40.5288 34.2031 40.2615 34.2031ZM40.0887 22.2373C39.9714 22.3446 39.7627 22.8356 39.6388 23.707C39.3197 26.6017 39.3657 29.5249 39.7758 32.4082C39.8341 32.9133 39.9926 33.4019 40.2419 33.8454C40.2698 33.7719 40.2895 33.6956 40.3006 33.6178C40.2745 32.7301 40.2256 31.8164 40.18 30.932C40.0529 28.5063 39.9225 26.0124 40.1767 23.564C40.2322 22.6113 40.1311 22.3186 40.0887 22.2373Z" fill="white"/>
<path d="M40.3236 23.5771C40.4996 21.236 39.6977 21.8635 39.4792 23.6876C39.1584 26.5963 39.2033 29.5335 39.6129 32.4311C39.6129 32.9091 40.2453 34.8795 40.467 33.6309C40.3627 30.3306 39.9976 26.9002 40.3236 23.5771Z" fill="#78DAB9"/>
<path d="M40.2615 34.2031H40.2387C39.7758 34.1706 39.4563 32.6976 39.4498 32.4375C39.0379 29.5281 38.993 26.5788 39.3161 23.6583C39.4237 22.7673 39.7073 21.8862 40.1018 21.8862H40.1278C40.2452 21.8862 40.6103 21.9349 40.4864 23.5802C40.2485 25.9896 40.3789 28.4868 40.506 30.9027C40.5516 31.7937 40.6005 32.7171 40.6299 33.6113V33.6438C40.6005 33.8161 40.5288 34.2031 40.2615 34.2031ZM40.0887 22.2373C39.9714 22.3446 39.7627 22.8356 39.6388 23.707C39.3197 26.6017 39.3657 29.5249 39.7758 32.4082C39.8341 32.9133 39.9926 33.4019 40.2419 33.8454C40.2698 33.7719 40.2895 33.6956 40.3006 33.6178C40.2745 32.7301 40.2256 31.8164 40.18 30.932C40.0529 28.5063 39.9225 26.0124 40.1767 23.564C40.2322 22.6113 40.1311 22.3186 40.0887 22.2373Z" fill="white"/>
<path d="M40.3236 23.5771C40.4996 21.236 39.6977 21.8635 39.4792 23.6876C39.1584 26.5963 39.2033 29.5335 39.6129 32.4311C39.6129 32.9091 40.2453 34.8795 40.467 33.6309C40.3627 30.3306 39.9976 26.9002 40.3236 23.5771Z" fill="#78DAB9"/>
<path d="M40.2615 34.2031H40.2387C39.7758 34.1706 39.4563 32.6976 39.4498 32.4375C39.0379 29.5281 38.993 26.5788 39.3161 23.6583C39.4237 22.7673 39.7073 21.8862 40.1018 21.8862H40.1278C40.2452 21.8862 40.6103 21.9349 40.4864 23.5802C40.2485 25.9896 40.3789 28.4868 40.506 30.9027C40.5516 31.7937 40.6005 32.7171 40.6299 33.6113V33.6438C40.6005 33.8161 40.5288 34.2031 40.2615 34.2031ZM40.0887 22.2373C39.9714 22.3446 39.7627 22.8356 39.6388 23.707C39.3197 26.6017 39.3657 29.5249 39.7758 32.4082C39.8341 32.9133 39.9926 33.4019 40.2419 33.8454C40.2698 33.7719 40.2895 33.6956 40.3006 33.6178C40.2745 32.7301 40.2256 31.8164 40.18 30.932C40.0529 28.5063 39.9225 26.0124 40.1767 23.564C40.2322 22.6113 40.1311 22.3186 40.0887 22.2373Z" fill="white"/>
<path d="M40.3236 23.5771C40.4996 21.236 39.6977 21.8635 39.4792 23.6876C39.1584 26.5963 39.2033 29.5335 39.6129 32.4311C39.6129 32.9091 40.2453 34.8795 40.467 33.6309C40.3627 30.3306 39.9976 26.9002 40.3236 23.5771Z" fill="#78DAB9"/>
<path d="M40.2615 34.2031H40.2387C39.7758 34.1706 39.4563 32.6976 39.4498 32.4375C39.0379 29.5281 38.993 26.5788 39.3161 23.6583C39.4237 22.7673 39.7073 21.8862 40.1018 21.8862H40.1278C40.2452 21.8862 40.6103 21.9349 40.4864 23.5802C40.2485 25.9896 40.3789 28.4868 40.506 30.9027C40.5516 31.7937 40.6005 32.7171 40.6299 33.6113V33.6438C40.6005 33.8161 40.5288 34.2031 40.2615 34.2031ZM40.0887 22.2373C39.9714 22.3446 39.7627 22.8356 39.6388 23.707C39.3197 26.6017 39.3657 29.5249 39.7758 32.4082C39.8341 32.9133 39.9926 33.4019 40.2419 33.8454C40.2698 33.7719 40.2895 33.6956 40.3006 33.6178C40.2745 32.7301 40.2256 31.8164 40.18 30.932C40.0529 28.5063 39.9225 26.0124 40.1767 23.564C40.2322 22.6113 40.1311 22.3186 40.0887 22.2373Z" fill="white"/>
<path d="M40.3236 23.5771C40.4996 21.236 39.6977 21.8635 39.4792 23.6876C39.1584 26.5963 39.2033 29.5335 39.6129 32.4311C39.6129 32.9091 40.2453 34.8795 40.467 33.6309C40.3627 30.3306 39.9976 26.9002 40.3236 23.5771Z" fill="#78DAB9"/>
<path d="M40.2615 34.2031H40.2387C39.7758 34.1706 39.4563 32.6976 39.4498 32.4375C39.0379 29.5281 38.993 26.5788 39.3161 23.6583C39.4237 22.7673 39.7073 21.8862 40.1018 21.8862H40.1278C40.2452 21.8862 40.6103 21.9349 40.4864 23.5802C40.2485 25.9896 40.3789 28.4868 40.506 30.9027C40.5516 31.7937 40.6005 32.7171 40.6299 33.6113V33.6438C40.6005 33.8161 40.5288 34.2031 40.2615 34.2031ZM40.0887 22.2373C39.9714 22.3446 39.7627 22.8356 39.6388 23.707C39.3197 26.6017 39.3657 29.5249 39.7758 32.4082C39.8341 32.9133 39.9926 33.4019 40.2419 33.8454C40.2698 33.7719 40.2895 33.6956 40.3006 33.6178C40.2745 32.7301 40.2256 31.8164 40.18 30.932C40.0529 28.5063 39.9225 26.0124 40.1767 23.564C40.2322 22.6113 40.1311 22.3186 40.0887 22.2373Z" fill="white"/>
<path d="M40.3236 23.5771C40.4996 21.236 39.6977 21.8635 39.4792 23.6876C39.1584 26.5963 39.2033 29.5335 39.6129 32.4311C39.6129 32.9091 40.2453 34.8795 40.467 33.6309C40.3627 30.3306 39.9976 26.9002 40.3236 23.5771Z" fill="#78DAB9"/>
<path d="M40.2615 34.2031H40.2387C39.7758 34.1706 39.4563 32.6976 39.4498 32.4375C39.0379 29.5281 38.993 26.5788 39.3161 23.6583C39.4237 22.7673 39.7073 21.8862 40.1018 21.8862H40.1278C40.2452 21.8862 40.6103 21.9349 40.4864 23.5802C40.2485 25.9896 40.3789 28.4868 40.506 30.9027C40.5516 31.7937 40.6005 32.7171 40.6299 33.6113V33.6438C40.6005 33.8161 40.5288 34.2031 40.2615 34.2031ZM40.0887 22.2373C39.9714 22.3446 39.7627 22.8356 39.6388 23.707C39.3197 26.6017 39.3657 29.5249 39.7758 32.4082C39.8341 32.9133 39.9926 33.4019 40.2419 33.8454C40.2698 33.7719 40.2895 33.6956 40.3006 33.6178C40.2745 32.7301 40.2256 31.8164 40.18 30.932C40.0529 28.5063 39.9225 26.0124 40.1767 23.564C40.2322 22.6113 40.1311 22.3186 40.0887 22.2373Z" fill="white"/>
<path d="M40.3236 23.5771C40.4996 21.236 39.6977 21.8635 39.4792 23.6876C39.1584 26.5963 39.2033 29.5335 39.6129 32.4311C39.6129 32.9091 40.2453 34.8795 40.467 33.6309C40.3627 30.3306 39.9976 26.9002 40.3236 23.5771Z" fill="#78DAB9"/>
<path d="M40.2615 34.2031H40.2387C39.7758 34.1706 39.4563 32.6976 39.4498 32.4375C39.0379 29.5281 38.993 26.5788 39.3161 23.6583C39.4237 22.7673 39.7073 21.8862 40.1018 21.8862H40.1278C40.2452 21.8862 40.6103 21.9349 40.4864 23.5802C40.2485 25.9896 40.3789 28.4868 40.506 30.9027C40.5516 31.7937 40.6005 32.7171 40.6299 33.6113V33.6438C40.6005 33.8161 40.5288 34.2031 40.2615 34.2031ZM40.0887 22.2373C39.9714 22.3446 39.7627 22.8356 39.6388 23.707C39.3197 26.6017 39.3657 29.5249 39.7758 32.4082C39.8341 32.9133 39.9926 33.4019 40.2419 33.8454C40.2698 33.7719 40.2895 33.6956 40.3006 33.6178C40.2745 32.7301 40.2256 31.8164 40.18 30.932C40.0529 28.5063 39.9225 26.0124 40.1767 23.564C40.2322 22.6113 40.1311 22.3186 40.0887 22.2373Z" fill="white"/>
<path d="M40.3236 23.5771C40.4996 21.236 39.6977 21.8635 39.4792 23.6876C39.1584 26.5963 39.2033 29.5335 39.6129 32.4311C39.6129 32.9091 40.2453 34.8795 40.467 33.6309C40.3627 30.3306 39.9976 26.9002 40.3236 23.5771Z" fill="#78DAB9"/>
<path d="M40.2615 34.2031H40.2387C39.7758 34.1706 39.4563 32.6976 39.4498 32.4375C39.0379 29.5281 38.993 26.5788 39.3161 23.6583C39.4237 22.7673 39.7073 21.8862 40.1018 21.8862H40.1278C40.2452 21.8862 40.6103 21.9349 40.4864 23.5802C40.2485 25.9896 40.3789 28.4868 40.506 30.9027C40.5516 31.7937 40.6005 32.7171 40.6299 33.6113V33.6438C40.6005 33.8161 40.5288 34.2031 40.2615 34.2031ZM40.0887 22.2373C39.9714 22.3446 39.7627 22.8356 39.6388 23.707C39.3197 26.6017 39.3657 29.5249 39.7758 32.4082C39.8341 32.9133 39.9926 33.4019 40.2419 33.8454C40.2698 33.7719 40.2895 33.6956 40.3006 33.6178C40.2745 32.7301 40.2256 31.8164 40.18 30.932C40.0529 28.5063 39.9225 26.0124 40.1767 23.564C40.2322 22.6113 40.1311 22.3186 40.0887 22.2373Z" fill="white"/>
<path d="M40.3236 23.5771C40.4996 21.236 39.6977 21.8635 39.4792 23.6876C39.1584 26.5963 39.2033 29.5335 39.6129 32.4311C39.6129 32.9091 40.2453 34.8795 40.467 33.6309C40.3627 30.3306 39.9976 26.9002 40.3236 23.5771Z" fill="#78DAB9"/>
<path d="M40.2615 34.2031H40.2387C39.7758 34.1706 39.4563 32.6976 39.4498 32.4375C39.0379 29.5281 38.993 26.5788 39.3161 23.6583C39.4237 22.7673 39.7073 21.8862 40.1018 21.8862H40.1278C40.2452 21.8862 40.6103 21.9349 40.4864 23.5802C40.2485 25.9896 40.3789 28.4868 40.506 30.9027C40.5516 31.7937 40.6005 32.7171 40.6299 33.6113V33.6438C40.6005 33.8161 40.5288 34.2031 40.2615 34.2031ZM40.0887 22.2373C39.9714 22.3446 39.7627 22.8356 39.6388 23.707C39.3197 26.6017 39.3657 29.5249 39.7758 32.4082C39.8341 32.9133 39.9926 33.4019 40.2419 33.8454C40.2698 33.7719 40.2895 33.6956 40.3006 33.6178C40.2745 32.7301 40.2256 31.8164 40.18 30.932C40.0529 28.5063 39.9225 26.0124 40.1767 23.564C40.2322 22.6113 40.1311 22.3186 40.0887 22.2373Z" fill="white"/>
<path d="M40.3236 23.5771C40.4996 21.236 39.6977 21.8635 39.4792 23.6876C39.1584 26.5963 39.2033 29.5335 39.6129 32.4311C39.6129 32.9091 40.2453 34.8795 40.467 33.6309C40.3627 30.3306 39.9976 26.9002 40.3236 23.5771Z" fill="#78DAB9"/>
<path d="M40.2615 34.2031H40.2387C39.7758 34.1706 39.4563 32.6976 39.4498 32.4375C39.0379 29.5281 38.993 26.5788 39.3161 23.6583C39.4237 22.7673 39.7073 21.8862 40.1018 21.8862H40.1278C40.2452 21.8862 40.6103 21.9349 40.4864 23.5802C40.2485 25.9896 40.3789 28.4868 40.506 30.9027C40.5516 31.7937 40.6005 32.7171 40.6299 33.6113V33.6438C40.6005 33.8161 40.5288 34.2031 40.2615 34.2031ZM40.0887 22.2373C39.9714 22.3446 39.7627 22.8356 39.6388 23.707C39.3197 26.6017 39.3657 29.5249 39.7758 32.4082C39.8341 32.9133 39.9926 33.4019 40.2419 33.8454C40.2698 33.7719 40.2895 33.6956 40.3006 33.6178C40.2745 32.7301 40.2256 31.8164 40.18 30.932C40.0529 28.5063 39.9225 26.0124 40.1767 23.564C40.2322 22.6113 40.1311 22.3186 40.0887 22.2373Z" fill="white"/>
<path d="M40.3236 23.5771C40.4996 21.236 39.6977 21.8635 39.4792 23.6876C39.1584 26.5963 39.2033 29.5335 39.6129 32.4311C39.6129 32.9091 40.2453 34.8795 40.467 33.6309C40.3627 30.3306 39.9976 26.9002 40.3236 23.5771Z" fill="#78DAB9"/>
<path d="M40.2615 34.2031H40.2387C39.7758 34.1706 39.4563 32.6976 39.4498 32.4375C39.0379 29.5281 38.993 26.5788 39.3161 23.6583C39.4237 22.7673 39.7073 21.8862 40.1018 21.8862H40.1278C40.2452 21.8862 40.6103 21.9349 40.4864 23.5802C40.2485 25.9896 40.3789 28.4868 40.506 30.9027C40.5516 31.7937 40.6005 32.7171 40.6299 33.6113V33.6438C40.6005 33.8161 40.5288 34.2031 40.2615 34.2031ZM40.0887 22.2373C39.9714 22.3446 39.7627 22.8356 39.6388 23.707C39.3197 26.6017 39.3657 29.5249 39.7758 32.4082C39.8341 32.9133 39.9926 33.4019 40.2419 33.8454C40.2698 33.7719 40.2895 33.6956 40.3006 33.6178C40.2745 32.7301 40.2256 31.8164 40.18 30.932C40.0529 28.5063 39.9225 26.0124 40.1767 23.564C40.2322 22.6113 40.1311 22.3186 40.0887 22.2373Z" fill="white"/>
<path d="M40.3236 23.5771C40.4996 21.236 39.6977 21.8635 39.4792 23.6876C39.1584 26.5963 39.2033 29.5335 39.6129 32.4311C39.6129 32.9091 40.2453 34.8795 40.467 33.6309C40.3627 30.3306 39.9976 26.9002 40.3236 23.5771Z" fill="#78DAB9"/>
<path d="M40.2615 34.2031H40.2387C39.7758 34.1706 39.4563 32.6976 39.4498 32.4375C39.0379 29.5281 38.993 26.5788 39.3161 23.6583C39.4237 22.7673 39.7073 21.8862 40.1018 21.8862H40.1278C40.2452 21.8862 40.6103 21.9349 40.4864 23.5802C40.2485 25.9896 40.3789 28.4868 40.506 30.9027C40.5516 31.7937 40.6005 32.7171 40.6299 33.6113V33.6438C40.6005 33.8161 40.5288 34.2031 40.2615 34.2031ZM40.0887 22.2373C39.9714 22.3446 39.7627 22.8356 39.6388 23.707C39.3197 26.6017 39.3657 29.5249 39.7758 32.4082C39.8341 32.9133 39.9926 33.4019 40.2419 33.8454C40.2698 33.7719 40.2895 33.6956 40.3006 33.6178C40.2745 32.7301 40.2256 31.8164 40.18 30.932C40.0529 28.5063 39.9225 26.0124 40.1767 23.564C40.2322 22.6113 40.1311 22.3186 40.0887 22.2373Z" fill="white"/>
<path d="M40.3236 23.5771C40.4996 21.236 39.6977 21.8635 39.4792 23.6876C39.1584 26.5963 39.2033 29.5335 39.6129 32.4311C39.6129 32.9091 40.2453 34.8795 40.467 33.6309C40.3627 30.3306 39.9976 26.9002 40.3236 23.5771Z" fill="#78DAB9"/>
<path d="M40.2615 34.2031H40.2387C39.7758 34.1706 39.4563 32.6976 39.4498 32.4375C39.0379 29.5281 38.993 26.5788 39.3161 23.6583C39.4237 22.7673 39.7073 21.8862 40.1018 21.8862H40.1278C40.2452 21.8862 40.6103 21.9349 40.4864 23.5802C40.2485 25.9896 40.3789 28.4868 40.506 30.9027C40.5516 31.7937 40.6005 32.7171 40.6299 33.6113V33.6438C40.6005 33.8161 40.5288 34.2031 40.2615 34.2031ZM40.0887 22.2373C39.9714 22.3446 39.7627 22.8356 39.6388 23.707C39.3197 26.6017 39.3657 29.5249 39.7758 32.4082C39.8341 32.9133 39.9926 33.4019 40.2419 33.8454C40.2698 33.7719 40.2895 33.6956 40.3006 33.6178C40.2745 32.7301 40.2256 31.8164 40.18 30.932C40.0529 28.5063 39.9225 26.0124 40.1767 23.564C40.2322 22.6113 40.1311 22.3186 40.0887 22.2373Z" fill="white"/>
<path d="M40.3236 23.5771C40.4996 21.236 39.6977 21.8635 39.4792 23.6876C39.1584 26.5963 39.2033 29.5335 39.6129 32.4311C39.6129 32.9091 40.2453 34.8795 40.467 33.6309C40.3627 30.3306 39.9976 26.9002 40.3236 23.5771Z" fill="#78DAB9"/>
<path d="M40.2615 34.2031H40.2387C39.7758 34.1706 39.4563 32.6976 39.4498 32.4375C39.0379 29.5281 38.993 26.5788 39.3161 23.6583C39.4237 22.7673 39.7073 21.8862 40.1018 21.8862H40.1278C40.2452 21.8862 40.6103 21.9349 40.4864 23.5802C40.2485 25.9896 40.3789 28.4868 40.506 30.9027C40.5516 31.7937 40.6005 32.7171 40.6299 33.6113V33.6438C40.6005 33.8161 40.5288 34.2031 40.2615 34.2031ZM40.0887 22.2373C39.9714 22.3446 39.7627 22.8356 39.6388 23.707C39.3197 26.6017 39.3657 29.5249 39.7758 32.4082C39.8341 32.9133 39.9926 33.4019 40.2419 33.8454C40.2698 33.7719 40.2895 33.6956 40.3006 33.6178C40.2745 32.7301 40.2256 31.8164 40.18 30.932C40.0529 28.5063 39.9225 26.0124 40.1767 23.564C40.2322 22.6113 40.1311 22.3186 40.0887 22.2373Z" fill="white"/>
<path d="M40.3236 23.5771C40.4996 21.236 39.6977 21.8635 39.4792 23.6876C39.1584 26.5963 39.2033 29.5335 39.6129 32.4311C39.6129 32.9091 40.2453 34.8795 40.467 33.6309C40.3627 30.3306 39.9976 26.9002 40.3236 23.5771Z" fill="#78DAB9"/>
<path d="M40.2615 34.2031H40.2387C39.7758 34.1706 39.4563 32.6976 39.4498 32.4375C39.0379 29.5281 38.993 26.5788 39.3161 23.6583C39.4237 22.7673 39.7073 21.8862 40.1018 21.8862H40.1278C40.2452 21.8862 40.6103 21.9349 40.4864 23.5802C40.2485 25.9896 40.3789 28.4868 40.506 30.9027C40.5516 31.7937 40.6005 32.7171 40.6299 33.6113V33.6438C40.6005 33.8161 40.5288 34.2031 40.2615 34.2031ZM40.0887 22.2373C39.9714 22.3446 39.7627 22.8356 39.6388 23.707C39.3197 26.6017 39.3657 29.5249 39.7758 32.4082C39.8341 32.9133 39.9926 33.4019 40.2419 33.8454C40.2698 33.7719 40.2895 33.6956 40.3006 33.6178C40.2745 32.7301 40.2256 31.8164 40.18 30.932C40.0529 28.5063 39.9225 26.0124 40.1767 23.564C40.2322 22.6113 40.1311 22.3186 40.0887 22.2373Z" fill="white"/>
<path d="M49.5978 23.047C47.042 18.7939 40.6623 17.6884 36.8222 20.9172C29.7058 26.5716 34.8662 38.287 43.8995 36.5864C49.9042 35.598 53.037 28.0511 49.5978 23.047Z" fill="#78DAB9"/>
<path d="M46.5694 21.5936C51.5473 25.4955 49.4642 28.3341 47.4333 33.0326C47.8533 32.8332 48.2567 32.6005 48.6395 32.3367C48.0266 33.2689 47.2067 34.0477 46.2434 34.6128C47.0193 32.805 47.3876 31.6604 48.3461 29.1762C49.2425 26.6238 49.1024 25.1703 47.9744 23.395C47.9 23.2495 47.797 23.1204 47.6715 23.0154C47.5461 22.9104 47.4008 22.8316 47.2442 22.7837C47.0421 22.6959 47.1399 23.0666 47.4137 24.0095L47.0225 23.9282C46.5629 21.9773 46.2499 21.3757 46.5694 21.5936Z" fill="white"/>
<path d="M38.7979 34.8405C37.2625 32.5644 35.7955 30.1323 35.0783 27.4562C35.2152 29.1275 35.375 30.6818 36.0563 32.0929C34.1916 28.8414 34.5013 25.8922 36.9267 22.5269C35.5934 24.4128 36.5909 27.0205 37.106 28.9389C36.8958 26.3356 37.357 23.7219 38.4458 21.3465C38.5632 21.2783 38.6218 21.2425 38.7457 21.1775C37.1679 25.9605 37.2462 30.1778 38.9348 34.899L38.7979 34.8405Z" fill="white"/>
<path d="M41.3145 32.5643C41.3145 33.4455 41.471 35.4322 40.8711 35.5687C40.1181 35.4224 39.9812 35.4419 39.502 34.46C38.1198 31.2507 38.198 27.2773 38.6577 23.8339C38.8598 22.7088 39.3096 21.1676 40.0105 20.6473C40.2746 20.5661 40.418 20.527 40.6853 20.4685C40.8646 20.4295 40.982 20.6701 41.0733 21.2521C41.1774 21.9974 41.2112 22.7507 41.1743 23.5022C41.1189 26.5294 41.1319 29.5404 41.3145 32.5643Z" fill="white"/>
<path d="M42.9901 35.6793C42.7097 35.7021 42.5598 35.7086 42.2762 35.7086C42.2403 34.5705 42.2207 33.93 42.1914 32.5773C42.5467 32.5773 42.726 32.5773 43.0781 32.5513C43.0585 33.9039 43.039 34.5413 42.9901 35.6793Z" fill="white"/>
<path d="M43.6909 35.5883C43.831 33.4995 44.2442 31.4379 44.9199 29.4559C45.6827 26.9847 45.8033 25.4012 45.4676 23.6454C45.36 23.0893 45.1742 22.2699 44.7863 22.0196C44.0462 21.805 44.1603 22.1009 44.2223 23.499C44.0528 23.499 43.968 23.499 43.7952 23.473C43.6779 21.2295 43.7398 20.4003 44.1212 20.4913C44.3853 20.5596 44.5157 20.5986 44.7732 20.6864C45.4741 21.1904 46.0022 22.6699 46.2597 23.7624C47.2703 26.5653 44.9101 31.3841 44.607 33.9593C45.1065 33.8692 45.5981 33.7398 46.0772 33.5724C45.959 34.0334 45.8142 34.4872 45.6436 34.9315C45.0329 35.2549 44.3733 35.4768 43.6909 35.5883Z" fill="white"/>
<path d="M40.2615 34.2031H40.2387C39.7758 34.1706 39.4563 32.6976 39.4498 32.4375C39.0379 29.5281 38.993 26.5788 39.3161 23.6583C39.4237 22.7673 39.7073 21.8862 40.1018 21.8862H40.1278C40.2452 21.8862 40.6103 21.9349 40.4864 23.5802C40.2485 25.9896 40.3789 28.4868 40.506 30.9027C40.5516 31.7937 40.6005 32.7171 40.6299 33.6113V33.6438C40.6005 33.8161 40.5288 34.2031 40.2615 34.2031ZM40.0887 22.2373C39.9714 22.3446 39.7627 22.8356 39.6388 23.707C39.3197 26.6017 39.3657 29.5249 39.7758 32.4082C39.8341 32.9133 39.9926 33.4019 40.2419 33.8454C40.2698 33.7719 40.2895 33.6956 40.3006 33.6178C40.2745 32.7301 40.2256 31.8164 40.18 30.932C40.0529 28.5063 39.9225 26.0124 40.1767 23.564C40.2322 22.6113 40.1311 22.3186 40.0887 22.2373Z" fill="white"/>
<path d="M40.2615 34.2031H40.2387C39.7758 34.1706 39.4563 32.6976 39.4498 32.4375C39.0379 29.5281 38.993 26.5788 39.3161 23.6583C39.4237 22.7673 39.7073 21.8862 40.1018 21.8862H40.1278C40.2452 21.8862 40.6103 21.9349 40.4864 23.5802C40.2485 25.9896 40.3789 28.4868 40.506 30.9027C40.5516 31.7937 40.6005 32.7171 40.6299 33.6113V33.6438C40.6005 33.8161 40.5288 34.2031 40.2615 34.2031ZM40.0887 22.2373C39.9714 22.3446 39.7627 22.8356 39.6388 23.707C39.3197 26.6017 39.3657 29.5249 39.7758 32.4082C39.8341 32.9133 39.9926 33.4019 40.2419 33.8454C40.2698 33.7719 40.2895 33.6956 40.3006 33.6178C40.2745 32.7301 40.2256 31.8164 40.18 30.932C40.0529 28.5063 39.9225 26.0124 40.1767 23.564C40.2322 22.6113 40.1311 22.3186 40.0887 22.2373Z" fill="white"/>
<path d="M40.2615 34.2031H40.2387C39.7758 34.1706 39.4563 32.6976 39.4498 32.4375C39.0379 29.5281 38.993 26.5788 39.3161 23.6583C39.4237 22.7673 39.7073 21.8862 40.1018 21.8862H40.1278C40.2452 21.8862 40.6103 21.9349 40.4864 23.5802C40.2485 25.9896 40.3789 28.4868 40.506 30.9027C40.5516 31.7937 40.6005 32.7171 40.6299 33.6113V33.6438C40.6005 33.8161 40.5288 34.2031 40.2615 34.2031ZM40.0887 22.2373C39.9714 22.3446 39.7627 22.8356 39.6388 23.707C39.3197 26.6017 39.3657 29.5249 39.7758 32.4082C39.8341 32.9133 39.9926 33.4019 40.2419 33.8454C40.2698 33.7719 40.2895 33.6956 40.3006 33.6178C40.2745 32.7301 40.2256 31.8164 40.18 30.932C40.0529 28.5063 39.9225 26.0124 40.1767 23.564C40.2322 22.6113 40.1311 22.3186 40.0887 22.2373Z" fill="white"/>
<path d="M40.2088 23.555C40.3849 21.2139 39.5829 21.8414 39.3645 23.6655C39.0437 26.5742 39.0886 29.5114 39.4982 32.409C39.4982 32.887 40.1306 34.8574 40.3523 33.6088C40.2479 30.3085 39.8828 26.8781 40.2088 23.555Z" fill="#78DAB9"/>
<path d="M23.5283 52.5485C28.0433 47.346 39.9453 41.5127 42.5174 60.1669C42.5246 60.2313 42.5553 60.2907 42.6037 60.3339C42.6521 60.3771 42.7148 60.401 42.7798 60.401C42.8447 60.401 42.9074 60.3771 42.9558 60.3339C43.0043 60.2907 43.035 60.2313 43.0422 60.1669C43.4497 57.4713 44.519 53.189 45.285 51.3324C46.5564 48.2467 51.3094 43.9058 62.1877 51.7583C53.5033 39.591 31.6162 38.8919 23.5283 52.5485Z" fill="#78DAB9"/>
<path d="M33.5167 53.745C33.5167 53.745 33.7351 55.335 36.343 53.3678C37.7024 52.103 36.5288 51.8916 35.5704 51.8949C34.612 51.8981 33.3309 52.6752 33.5167 53.745Z" fill="#78DAB9"/>
<path d="M10.5115 27.0269C10.5115 27.0269 12.3696 38.0822 24.001 41.2167C24.001 41.2167 22.6156 49.1635 22.8633 52.9223C22.8633 52.9223 30.3155 43.5513 37.5036 42.8848C37.5036 42.8848 33.018 36.7068 32.6333 34.473C32.6333 34.473 24.7834 35.9915 20.5716 26.6693L17.9637 27.7163L17.0639 25.9864L14.1658 27.4919L13.4226 25.7686C13.4226 25.7686 11.1276 25.2191 10.5115 27.0269Z" fill="#78DAB9"/>
<path d="M73.9855 25.9507C73.9855 25.9507 72.5055 37.058 60.9882 40.5827C60.9882 40.5827 62.6475 48.4775 62.5269 52.2265C62.5269 52.2265 54.7585 43.1222 47.5508 42.6962C47.5508 42.6962 51.8213 36.3589 52.1147 34.1219C52.1147 34.1219 60.0135 35.3737 63.9025 25.9279L66.5822 26.8937L67.4167 25.1313L70.3507 26.536L71.0353 24.7899C71.0353 24.7899 73.3107 24.1623 73.9855 25.9507Z" fill="#78DAB9"/>
<path d="M33.9829 43.8113C33.9829 43.8113 30.9512 36.1539 30.3383 37.0091C28.741 39.2299 31.2805 45.0047 31.2805 45.0047L33.9829 43.8113Z" fill="white"/>
<path d="M51.5442 43.5122C51.5442 43.5122 54.3119 35.7573 54.9541 36.5897C56.6264 38.7552 54.2858 44.6113 54.2858 44.6113L51.5442 43.5122Z" fill="white"/>
<path opacity="0.36" d="M48.053 65.7823C48.2844 70.0646 58.0446 69.8955 58.1294 65.6099C57.898 61.3276 48.1377 61.4935 48.053 65.7823Z" fill="#F2A0A8"/>
<path d="M51.5084 52.6297C51.5084 52.6297 52.2843 54.0343 49.0146 54.0116C47.1662 53.81 47.9812 52.9418 48.7505 52.3858C49.5198 51.8298 50.9998 51.6542 51.5084 52.6297Z" fill="#78DAB9"/>
<path d="M13.1193 47.9539C13.1193 47.9539 11.7534 52.8963 18.2081 60.2708C18.6251 58.9532 19.1552 57.6739 19.7924 56.447C17.7452 53.6506 14.4233 53.5141 13.1193 47.9539Z" fill="white"/>
<path d="M72.1632 46.972C72.1632 46.972 73.7182 51.8493 67.4135 59.4547C66.9427 58.1505 66.3592 56.8895 65.6694 55.6862C67.6482 52.8313 71.032 52.5712 72.1632 46.972Z" fill="white"/>
<path d="M37.6731 60.687C37.6731 65.4018 33.8721 65.4636 33.7156 60.7521C33.7091 56.0373 37.5167 55.9723 37.6731 60.687Z" fill="#78DAB9"/>
<path d="M52.4178 60.2383C52.4178 64.9531 48.6167 65.0149 48.4602 60.3034C48.4569 55.6016 52.2613 55.5236 52.4178 60.2383Z" fill="#78DAB9"/>
<path d="M57.5198 78.0731C57.2563 77.3685 57.2458 76.5946 57.4901 75.8832C57.7344 75.1717 58.2184 74.5667 58.8596 74.1712C61.4969 72.5455 65.6728 70.5653 66.7193 73.4754C66.7193 73.4754 67.3876 74.9874 63.9483 75.1012C63.9483 75.1012 69.9987 73.6802 68.7958 77.6797C67.5929 81.6791 63.6647 82.1505 63.6647 82.1505L62.1 82.4757C61.3315 82.6314 60.5326 82.507 59.8483 82.1251C59.164 81.7433 58.6397 81.1293 58.3706 80.3947L57.5198 78.0731Z" fill="white"/>
<path d="M61.4285 83.1975C60.6276 83.197 59.8461 82.9514 59.1897 82.4937C58.5332 82.0361 58.0334 81.3885 57.7578 80.6385L56.9069 78.3071C56.5996 77.463 56.5919 76.5393 56.8849 75.6901C57.178 74.841 57.7542 74.1177 58.5173 73.6412C61.6729 71.6902 64.0592 70.9944 65.6501 71.5439C66.0421 71.6846 66.3969 71.9126 66.6873 72.2107C66.9776 72.5088 67.196 72.869 67.3257 73.264C67.4588 73.6082 67.4588 73.9895 67.3257 74.3337C67.9615 74.4255 68.5523 74.7144 69.0143 75.1596C69.6337 75.8099 69.7706 76.7366 69.4218 77.8942C68.1569 82.1212 64.2059 82.7715 63.7756 82.817L62.2337 83.1422C61.9678 83.1877 61.698 83.2063 61.4285 83.1975ZM58.1327 77.8487L58.9835 80.1768C59.1959 80.7672 59.6151 81.2612 60.1639 81.5677C60.7126 81.8742 61.3539 81.9727 61.9696 81.8448L63.5996 81.5197C64.6641 81.3485 65.6586 80.8816 66.4693 80.1725C67.28 79.4634 67.8739 78.5408 68.183 77.5105C68.3884 76.8309 68.3525 76.3367 68.0754 76.0441C67.6549 75.5986 66.703 75.4848 65.7609 75.5271C65.1769 75.676 64.5772 75.7546 63.9745 75.7612L63.8049 74.4801C64.3713 74.3527 64.9468 74.2701 65.5262 74.2329C65.7407 74.1833 65.9351 74.0699 66.0836 73.9078C66.1022 73.8823 66.115 73.8532 66.1212 73.8223C66.1274 73.7914 66.1268 73.7596 66.1195 73.7289C66.0599 73.5068 65.9477 73.3023 65.7922 73.1325C65.6368 72.9627 65.4426 72.8327 65.2263 72.7535C64.0886 72.3568 61.8979 73.0786 59.2084 74.7304C58.6981 75.0468 58.3129 75.5293 58.1181 76.0963C57.9233 76.6633 57.9307 77.28 58.1392 77.8422L58.1327 77.8487Z" fill="#78DAB9"/>
<path d="M26.9414 77.6146C27.1412 76.8925 27.0849 76.1237 26.7819 75.4383C26.479 74.7528 25.9481 74.1927 25.2789 73.8526C22.5145 72.4544 18.1886 70.8286 17.3899 73.8168C17.3899 73.8168 16.852 75.3808 20.2879 75.202C20.2879 75.202 14.1397 74.2948 15.6752 78.1804C17.2106 82.066 21.1649 82.2058 21.1649 82.2058L22.7492 82.3912C23.5275 82.4819 24.3127 82.2913 24.9622 81.854C25.6118 81.4167 26.0827 80.7617 26.2895 80.0078L26.9414 77.6146Z" fill="white"/>
<path d="M23.1437 83.0642C22.9868 83.0641 22.83 83.0543 22.6743 83.035L21.1096 82.8529C20.689 82.8301 16.6858 82.5115 15.0689 78.4177C14.6223 77.296 14.6842 76.366 15.245 75.6604C15.6654 75.1727 16.2306 74.8311 16.8586 74.685C16.6947 74.3537 16.661 73.9733 16.7641 73.6184C16.8594 73.2137 17.0464 72.8362 17.3109 72.5149C17.5754 72.1936 17.9103 71.9371 18.2897 71.7651C19.8121 71.0855 22.2636 71.5862 25.5724 73.2575C26.3743 73.6675 27.0105 74.34 27.3744 75.1623C27.7382 75.9846 27.8075 76.9067 27.5707 77.7739L26.9187 80.1638C26.6976 80.9945 26.2077 81.729 25.5251 82.2535C24.8425 82.7779 24.0054 83.0629 23.1437 83.0642ZM18.5277 75.7612C17.5856 75.797 16.6467 75.9888 16.2653 76.4668C16.0143 76.792 16.0208 77.2797 16.2816 77.9398C17.6443 81.3864 21.1519 81.549 21.1878 81.5522H21.24L22.8243 81.7376C23.4473 81.8076 24.075 81.654 24.5947 81.3042C25.1145 80.9544 25.4923 80.4314 25.6604 79.8289L26.3124 77.4358C26.4725 76.8579 26.4276 76.2426 26.1853 75.6939C25.9429 75.1453 25.518 74.6969 24.9823 74.4248C22.169 73.0039 19.9229 72.4739 18.8244 72.9584C18.6152 73.0509 18.4317 73.1928 18.2897 73.3718C18.1478 73.5508 18.0515 73.7615 18.0094 73.9859V74.0346C18.0116 74.0877 18.0324 74.1383 18.068 74.1777C18.2305 74.3328 18.4384 74.4319 18.6614 74.4606C19.2422 74.4508 19.8231 74.4845 20.3989 74.5614L20.337 75.862C19.732 75.9002 19.1246 75.8664 18.5277 75.7612Z" fill="#78DAB9"/>
<path d="M50.6671 66.3677C49.3602 66.3504 48.0947 65.9078 47.0632 65.1072C46.0316 64.3066 45.2905 63.1919 44.9525 61.9325C44.0625 58.7428 45.8587 55.4489 48.9557 54.5905C49.699 54.3829 50.4769 54.3285 51.242 54.4308C52.0071 54.5331 52.7432 54.7899 53.4055 55.1856C54.7739 55.9865 55.7733 57.2904 56.1894 58.8176C57.0761 62.0073 55.2799 65.3012 52.183 66.1628C51.6893 66.2992 51.1794 66.3681 50.6671 66.3677ZM50.4813 55.0327C50.0253 55.0323 49.5712 55.0935 49.1317 55.2148C46.3803 55.9789 44.7862 58.9151 45.5784 61.7602C46.3706 64.6053 49.2556 66.3124 52.007 65.5353C54.7583 64.7582 56.3524 61.835 55.5603 58.9899C55.1882 57.6248 54.297 56.4583 53.0762 55.7383C52.2896 55.277 51.3938 55.0335 50.4813 55.0327Z" fill="#78DAB9"/>
<path d="M36.9592 69.3981C36.8537 69.3978 36.7512 69.3635 36.6669 69.3004C36.5825 69.2373 36.5209 69.1486 36.4912 69.0477C36.4615 68.9468 36.4653 68.839 36.5021 68.7404C36.5388 68.6418 36.6065 68.5577 36.6951 68.5007C36.9787 68.3186 43.7039 64.072 48.32 67.704C48.3736 67.7426 48.4187 67.7915 48.4528 67.848C48.4869 67.9044 48.5091 67.9671 48.5182 68.0324C48.5273 68.0977 48.5231 68.1641 48.5058 68.2276C48.4884 68.2912 48.4583 68.3506 48.4173 68.4023C48.3763 68.4539 48.3253 68.4968 48.2672 68.5282C48.2092 68.5596 48.1454 68.579 48.0796 68.5852C48.0138 68.5913 47.9475 68.5841 47.8846 68.564C47.8217 68.5439 47.7636 68.5113 47.7136 68.4681C43.6485 65.2719 37.2819 69.281 37.2232 69.32C37.1445 69.3708 37.0529 69.3978 36.9592 69.3981Z" fill="#78DAB9"/>
<path d="M58.4325 69.5996C58.3751 69.599 58.3188 69.5833 58.2695 69.5541C58.2499 69.5541 56.5091 68.4941 57.1318 66.1725C57.6305 64.3256 55.8539 63.1355 55.7789 63.0835C55.7083 63.0354 55.6594 62.9616 55.6429 62.8779C55.6263 62.7942 55.6434 62.7073 55.6905 62.6361C55.7375 62.5649 55.8107 62.5149 55.8944 62.497C55.978 62.4792 56.0653 62.4948 56.1375 62.5405C56.1603 62.5405 58.3836 64.0362 57.7675 66.3416C57.2752 68.1722 58.5498 68.9623 58.602 68.9948C58.6763 69.0388 58.7301 69.1105 58.7515 69.194C58.7729 69.2775 58.7602 69.3661 58.7161 69.4403C58.687 69.4893 58.6454 69.5298 58.5956 69.5578C58.5459 69.5858 58.4896 69.6002 58.4325 69.5996Z" fill="#78DAB9"/>
<path d="M21.6345 100.756H22.4796V99.5844L24.3026 99.3792L24.2905 98.6911C23.6868 98.7514 23.0832 98.8239 22.4796 98.8842V97.9667H24.3629V97.2423H22.4796V96.4576H21.6345V97.2423H20.0771C20.4151 96.8681 20.7411 96.4334 21.067 95.9626H24.3388V95.2624H21.5137C21.6345 95.0571 21.7552 94.876 21.8638 94.6708L20.9584 94.4173C20.8376 94.707 20.6928 94.9847 20.5479 95.2624H18.7853V95.9626H20.1253C19.8839 96.361 19.6545 96.6628 19.5458 96.7956C19.3285 97.0733 19.1233 97.2785 18.9301 97.3147C19.0388 97.5441 19.1716 97.9546 19.2199 98.1357C19.3285 98.0391 19.6907 97.9667 20.1857 97.9667H21.6345V98.9687C20.5479 99.0653 19.5579 99.1619 18.7973 99.2223L18.8818 99.9708L21.6345 99.681V100.756ZM27.2 101.697V102.675H21.1032V101.697H27.2ZM21.1032 104.329V103.327H27.2V104.329H21.1032ZM20.2461 105.464H21.1032V105.041H27.2V105.44H28.0814V100.985H20.2461V105.464ZM29.5542 97.1457H25.7272V97.0612V95.866C26.9465 95.7694 28.2987 95.5763 29.2041 95.2986L28.7212 94.6225C27.8278 94.9243 26.2463 95.1416 24.9183 95.2503V97.0491C24.9183 98.0391 24.8217 99.3309 24.0611 100.297C24.2422 100.381 24.5923 100.623 24.7372 100.743C25.365 99.9587 25.6185 98.8601 25.6909 97.8822H27.3087V100.731H28.1417V97.8822H29.5542V97.1457ZM38.0052 104.317C37.3895 104.317 37.2688 104.22 37.2688 103.798V99.681H41.615V98.7997H36.2426C36.3754 97.9063 36.4358 96.9888 36.4599 96.1316H40.9269V95.2624H31.6066V96.1316H35.5786C35.5424 96.9888 35.5062 97.9063 35.3613 98.7997H30.8581V99.681H35.2043C34.6973 101.745 33.5383 103.665 30.7012 104.74C30.9185 104.909 31.172 105.247 31.3048 105.476C34.3955 104.232 35.6027 102.011 36.0977 99.681H36.3513V103.798C36.3513 104.872 36.6772 105.186 37.9207 105.186H40.1663C41.3253 105.186 41.6029 104.691 41.7237 102.772C41.4701 102.711 41.0717 102.554 40.8665 102.397C40.7941 104.039 40.6975 104.317 40.1059 104.317H38.0052ZM50.4403 96.0109C50.2713 95.5883 49.9091 94.9485 49.559 94.4414L48.7984 94.7553C49.1002 95.2503 49.4744 95.9384 49.6314 96.361L50.4403 96.0109ZM45.3818 94.4897C44.766 96.3127 43.7761 98.1116 42.6895 99.2826C42.8465 99.4879 43.1 99.9225 43.1845 100.116C43.5708 99.6569 43.9692 99.1377 44.3314 98.5583V105.512H45.1644V97.1095C45.5508 96.3489 45.9009 95.54 46.1786 94.7312L45.3818 94.4897ZM52.0339 102.349V104.257H47.5066V102.349H52.0339ZM46.7218 105.476H47.5066V105.005H52.0339V105.44H52.8307V101.601H46.7218V105.476ZM46.8909 100.586H52.71V99.85H46.8909V100.586ZM52.71 98.1598H46.8909V98.8963H52.71V98.1598ZM46.0216 96.4334V97.194H53.6637V96.4334H46.0216ZM57.5633 99.5844H63.1288V100.55H57.5633V99.5844ZM57.5633 97.9305H63.1288V98.8963H57.5633V97.9305ZM57.5633 96.2765H63.1288V97.2423H57.5633V96.2765ZM59.3983 101.637C60.014 102.204 60.7022 103.001 61.004 103.532L61.7284 103.086C61.4145 102.579 60.7263 101.806 60.1106 101.275H64.0222V95.5642H60.4245C60.6177 95.2624 60.8229 94.876 60.9919 94.5018L59.9537 94.3207C59.8571 94.6708 59.676 95.1779 59.4949 95.5642H56.694V101.275H60.0382L59.3983 101.637ZM55.7403 104.896C56.1749 104.208 56.5974 103.146 56.9234 102.409L56.1387 102.071C55.861 102.82 55.3901 103.846 54.9193 104.51L55.7403 104.896ZM59.3259 104.426C58.5412 104.426 58.4084 104.365 58.4084 104.039V102.084H57.515V104.051C57.515 105.005 57.8772 105.259 59.2776 105.259H62.0302C63.2013 105.259 63.491 104.896 63.6118 103.363C63.3582 103.315 62.984 103.182 62.7787 103.025C62.7184 104.245 62.6097 104.426 61.9698 104.426H59.3259ZM63.5152 102.216C64.0705 102.965 64.65 103.991 64.8553 104.655L65.6883 104.269C65.471 103.605 64.8794 102.603 64.312 101.878L63.5152 102.216Z" fill="#292945"/>
</svg>
