<svg width="188" height="81" viewBox="0 0 188 81" fill="none" xmlns="http://www.w3.org/2000/svg">
<g clip-path="url(#clip0_19550_238659)">
<path d="M15.012 55.5559H22.464V74.0509H4.374V55.5559H10.584L10.773 54.2869H2.619V50.1829H7.128L6.804 47.6989H11.367L11.718 50.1829H15.228L15.552 47.6989H20.196L19.899 50.1829H23.868V54.2869H15.201L15.012 55.5559ZM9.072 59.2009V60.2809H17.766V59.2009H9.072ZM17.766 64.1149V63.0889H9.072V64.1149H17.766ZM17.766 66.9499H9.072V67.9759H17.766V66.9499ZM37.1234 48.3199H41.8214L42.5504 54.0439H37.8254L37.1234 48.3199ZM40.0394 70.5949C36.7634 72.8989 33.0014 74.0509 28.7534 74.0509V67.4359C31.2374 67.4359 33.4424 66.9769 35.3684 66.0589C33.7664 63.8449 32.5334 61.3159 31.6694 58.4719C30.8054 55.6279 30.3734 52.6579 30.3734 49.5619H35.2874C35.2694 51.6499 35.6474 53.8729 36.4214 56.2309C37.1954 58.5889 38.3924 60.6769 40.0124 62.4949C41.5964 60.6769 42.7844 58.5799 43.5764 56.2039C44.3864 53.8279 44.7914 51.6139 44.7914 49.5619H49.7324C49.7324 52.6579 49.3004 55.6279 48.4364 58.4719C47.5904 61.3159 46.3214 63.8539 44.6294 66.0859C46.6094 66.9859 48.8684 67.4359 51.4064 67.4359V74.0509C47.0864 74.0509 43.2974 72.8989 40.0394 70.5949ZM78.6208 67.4359V74.0509C77.0728 74.0509 75.8488 73.4749 74.9488 72.3229C74.0488 71.1709 73.3828 69.4159 72.9508 67.0579C72.5368 64.6819 72.2668 61.5679 72.1408 57.7159H65.2288V53.6659H72.0328C72.0148 52.5499 72.0058 50.7409 72.0058 48.2389H74.8678C74.8678 49.6609 74.8858 51.4699 74.9218 53.6659H78.4048V57.7159H75.0568C75.2008 60.1279 75.4168 62.0539 75.7048 63.4939C76.0108 64.9159 76.3978 65.9329 76.8658 66.5449C77.3338 67.1389 77.9188 67.4359 78.6208 67.4359ZM75.1918 48.2389H77.5948L78.0268 52.9909H75.6238L75.1918 48.2389ZM65.5798 52.8829V49.4269H71.5198V52.8829H65.5798ZM55.3198 65.1409V49.9399H64.5268V65.1409H61.8538V53.9629H57.9658V65.1409H55.3198ZM64.6348 67.4359V74.0509C63.4468 74.0509 62.4838 73.8079 61.7458 73.3219C61.0078 72.8359 60.4048 72.1069 59.9368 71.1349C59.5048 72.1069 58.9018 72.8359 58.1278 73.3219C57.3718 73.8079 56.4268 74.0509 55.2928 74.0509V67.4359C56.2648 67.4359 56.9848 67.2379 57.4528 66.8419C57.9208 66.4459 58.2448 65.7529 58.4248 64.7629C58.6048 63.7729 58.6948 62.2699 58.6948 60.2539V55.2319H61.2328V60.2539C61.2328 62.2879 61.3228 63.7999 61.5028 64.7899C61.6828 65.7619 61.9978 66.4459 62.4478 66.8419C62.9158 67.2379 63.6448 67.4359 64.6348 67.4359ZM72.7078 67.4359V73.5379H65.0668V67.4359H65.4988V59.5519H67.9288V67.4359H68.5228V58.4449H71.2228V60.8209H72.1678V64.8169H71.2228V67.4359H72.7078ZM104.863 64.8439H100.057V61.4419H96.9522V67.1659C96.9522 69.1099 96.8712 70.5139 96.7092 71.3779C96.5652 72.2599 96.1422 72.9259 95.4402 73.3759C94.7562 73.8259 93.6222 74.0509 92.0382 74.0509H86.0442V67.4899H90.9312C91.2552 67.4899 91.4892 67.3819 91.6332 67.1659C91.7772 66.9499 91.8582 66.5899 91.8762 66.0859C91.9122 65.5639 91.9302 64.6729 91.9302 63.4129V61.4419H83.1822V57.0409H90.0132L89.6352 53.4769H94.0632L94.3332 55.6099C94.9992 55.4479 95.6112 55.0789 96.1692 54.5029C96.7452 53.9269 97.0602 53.3239 97.1142 52.6939H85.1262V48.2659H102.595V52.1269C102.559 52.5949 102.262 53.1799 101.704 53.8819C101.164 54.5659 100.39 55.2139 99.3822 55.8259C98.3922 56.4199 97.2042 56.8249 95.8182 57.0409H104.863V64.8439Z" fill="#292945"/>
<path d="M132.078 74.0509H120.441C118.389 74.0509 116.769 73.7359 115.581 73.1059C114.393 72.4759 113.52 71.5579 112.962 70.3519C112.674 71.5759 112.188 72.4939 111.504 73.1059C110.838 73.7359 109.965 74.0509 108.885 74.0509V67.4359C109.911 67.4359 110.595 66.9679 110.937 66.0319C111.297 65.0779 111.477 63.8179 111.477 62.2519H113.502V62.5489C113.502 63.7729 113.574 64.6999 113.718 65.3299C113.862 65.9419 114.105 66.4189 114.447 66.7609V60.0109H111.45V56.3659H113.799V54.2329H111.72V50.6419H113.799V48.3199H118.227V50.6419H120.441V54.2329H118.227V56.3659H120.441V60.0109H118.146V61.9279H120.441V65.5999H118.146V67.4359H132.078V74.0509ZM121.089 58.1749V54.2599C121.935 54.2779 122.52 54.0979 122.844 53.7199C123.168 53.3419 123.348 52.7839 123.384 52.0459H121.089V48.3469H131.187V53.3959C131.187 55.0339 131.106 56.1499 130.944 56.7439C130.782 57.3379 130.413 57.7249 129.837 57.9049C129.279 58.0849 128.217 58.1749 126.651 58.1749H126.219V54.2059H126.894C127.47 54.2059 127.83 54.0709 127.974 53.8009C128.136 53.5309 128.217 52.9459 128.217 52.0459H126.138C126.138 53.2699 126.039 54.2959 125.841 55.1239C125.661 55.9519 125.202 56.6719 124.464 57.2839C123.726 57.8779 122.601 58.1749 121.089 58.1749ZM121.062 66.7879V58.6879H131.187V66.7879H121.062ZM124.923 61.8199V63.5479H127.272V61.8199H124.923ZM142.714 74.0509H142.282V69.6229H143.011C143.281 69.6229 143.479 69.5509 143.605 69.4069C143.731 69.2629 143.812 69.0109 143.848 68.6509H141.175V74.0509H137.071V57.3379H147.979V65.7619C147.979 68.4439 147.907 70.2799 147.763 71.2699C147.637 72.2599 147.214 72.9709 146.494 73.4029C145.774 73.8349 144.514 74.0509 142.714 74.0509ZM157.753 61.9819V65.7889H152.434C152.488 66.2209 152.614 66.5629 152.812 66.8149C153.028 67.0489 153.352 67.2109 153.784 67.3009C154.234 67.3909 154.891 67.4359 155.755 67.4359H157.753V74.0509H155.566C153.604 74.0509 152.173 73.9969 151.273 73.8889C150.391 73.7809 149.698 73.4389 149.194 72.8629C148.708 72.3049 148.465 71.3959 148.465 70.1359V60.3079H152.38V61.9819H157.753ZM152.38 53.5579C152.434 54.0439 152.542 54.4309 152.704 54.7189C152.884 54.9889 153.199 55.1779 153.649 55.2859C154.117 55.3759 154.792 55.4209 155.674 55.4209H157.753V59.6869H155.566C153.604 59.6869 152.173 59.6329 151.273 59.5249C150.391 59.4169 149.698 59.0839 149.194 58.5259C148.708 57.9679 148.465 57.0499 148.465 55.7719V48.3199H152.38V49.7509H157.753V53.5579H152.38ZM139.879 56.6899C139.015 56.6899 138.259 56.4019 137.611 55.8259C136.981 55.2499 136.666 54.6019 136.666 53.8819C136.666 53.6659 136.675 53.5129 136.693 53.4229C136.855 52.6129 137.143 51.8389 137.557 51.1009C137.989 50.3449 138.421 49.6789 138.853 49.1029C139.303 48.5269 139.528 48.2659 139.528 48.3199H142.822C142.804 48.3739 142.588 48.6529 142.174 49.1569C141.778 49.6609 141.445 50.1379 141.175 50.5879C141.049 50.8399 140.986 51.0649 140.986 51.2629C140.986 51.4249 141.04 51.5599 141.148 51.6679C141.256 51.7579 141.4 51.8029 141.58 51.8029C141.94 51.8029 142.345 51.6589 142.795 51.3709C143.227 51.0649 143.614 50.7589 143.956 50.4529C144.298 50.1289 144.514 49.8949 144.604 49.7509H147.979V56.6089H144.604V53.4769C144.514 53.5489 144.325 53.7829 144.037 54.1789C143.767 54.5749 143.362 54.9889 142.822 55.4209C142.282 55.8529 141.652 56.2039 140.932 56.4739C140.554 56.6179 140.203 56.6899 139.879 56.6899ZM141.175 62.0359H143.983V60.9019H141.175V62.0359ZM143.983 64.7899H141.175V65.9239H143.983V64.7899ZM184.427 65.8429C184.409 68.0389 184.274 69.6949 184.022 70.8109C183.77 71.9269 183.239 72.7459 182.429 73.2679C181.637 73.7899 180.395 74.0509 178.703 74.0509H173.897V67.4359H177.002C177.686 67.4359 178.217 67.2649 178.595 66.9229C178.973 66.5629 179.162 65.9329 179.162 65.0329V56.6089H175.247C175.139 60.0289 174.653 63.0349 173.789 65.6269C172.925 68.2189 171.656 70.2619 169.982 71.7559C168.326 73.2499 166.292 74.0149 163.88 74.0509V67.4359C165.14 67.4359 166.256 66.9769 167.228 66.0589C168.2 65.1229 168.983 63.8269 169.577 62.1709C170.189 60.5149 170.531 58.6609 170.603 56.6089H164.96V51.9649H170.63V48.2389H175.274V51.9649H184.427V65.8429Z" fill="#20C38C"/>
<path d="M11.9229 11.6297C11.0745 12.2742 10.4735 13.1909 10.2207 14.2259L10.089 14.2125C7.93022 13.9592 7.49825 10.7936 8.14564 9.06574C8.25726 9.71426 8.25726 11.6564 9.22501 11.6564C8.79304 10.6854 8.79304 7.55441 9.00958 6.25961C9.22501 6.90701 9.33328 7.33898 9.76525 7.98638C10.4126 7.98638 10.4126 5.07197 10.089 3.23694C10.7363 4.42458 11.6003 5.07197 11.3849 7.12355C10.3044 8.95859 10.3044 9.82141 11.06 10.4722C11.1717 10.2556 11.1717 9.49995 11.924 9.17625C11.4742 9.98326 11.8492 10.7188 11.9229 11.6297Z" stroke="#20C38C" stroke-width="0.540242" stroke-linecap="round" stroke-linejoin="round"/>
<path d="M21.2076 13.1678C21.0959 14.2472 21.0959 14.3555 20.6684 14.7874C20.4351 15.0207 20.3436 15.3277 19.3725 15.3277C19.3727 14.7181 19.2527 14.1145 19.0195 13.5512C18.7864 12.988 18.4445 12.4762 18.0135 12.0452C17.5826 11.6141 17.0709 11.2721 16.5077 11.0388C15.9445 10.8055 15.3409 10.6854 14.7313 10.6854C14.4077 10.605 14.0739 10.72 13.7603 10.787C13.9511 10.2411 14.5014 9.81588 14.7313 9.28233C13.8674 8.95863 13.9757 6.15697 14.4065 5.28856C14.6231 5.82769 14.6231 6.36793 15.1622 6.47509C15.2738 5.61226 15.3787 2.80501 16.1344 2.15762C16.0228 2.91329 16.0228 4.85659 16.6735 4.85659C16.9928 0.818176 19.0901 0.0234402 19.156 0C17.3221 2.37528 17.3221 9.60603 18.7251 10.6854C19.3725 10.6854 19.5879 6.90706 22.3952 5.93596C20.3436 8.95863 21.4241 11.0091 21.2076 13.1678Z" stroke="#20C38C" stroke-width="0.540242" stroke-linecap="round" stroke-linejoin="round"/>
<path d="M13.7512 13.0551C13.7731 12.857 13.7731 12.6571 13.7512 12.459C13.73 12.3017 13.6943 12.2358 13.6396 12.2358C13.5849 12.2358 13.528 12.3318 13.4543 12.4992C13.3782 12.6921 13.3268 12.8939 13.3014 13.0997C13.1055 14.6188 13.1029 16.1565 13.2936 17.6762C13.3167 17.8779 13.3651 18.0759 13.4376 18.2655C13.5023 18.4318 13.5626 18.5189 13.6195 18.5289C13.6764 18.539 13.7121 18.4687 13.7311 18.3124C13.7523 18.118 13.7523 17.9219 13.7311 17.7275C13.6044 16.1723 13.6112 14.6091 13.7512 13.0551ZM13.7512 13.0551C13.7731 12.857 13.7731 12.6571 13.7512 12.459C13.73 12.3017 13.6943 12.2358 13.6396 12.2358C13.5849 12.2358 13.528 12.3318 13.4543 12.4992C13.3782 12.6921 13.3268 12.8939 13.3014 13.0997C13.1055 14.6188 13.1029 16.1565 13.2936 17.6762C13.3167 17.8779 13.3651 18.0759 13.4376 18.2655C13.5023 18.4318 13.5626 18.5189 13.6195 18.5289C13.6764 18.539 13.7121 18.4687 13.7311 18.3124C13.7523 18.118 13.7523 17.9219 13.7311 17.7275C13.6044 16.1723 13.6112 14.6091 13.7512 13.0551ZM13.7512 13.0551C13.7731 12.857 13.7731 12.6571 13.7512 12.459C13.73 12.3017 13.6943 12.2358 13.6396 12.2358C13.5849 12.2358 13.528 12.3318 13.4543 12.4992C13.3782 12.6921 13.3268 12.8939 13.3014 13.0997C13.1055 14.6188 13.1029 16.1565 13.2936 17.6762C13.3167 17.8779 13.3651 18.0759 13.4376 18.2655C13.5023 18.4318 13.5626 18.5189 13.6195 18.5289C13.6764 18.539 13.7121 18.4687 13.7311 18.3124C13.7523 18.118 13.7523 17.9219 13.7311 17.7275C13.6044 16.1723 13.6112 14.6091 13.7512 13.0551ZM13.7512 13.0551C13.7731 12.857 13.7731 12.6571 13.7512 12.459C13.73 12.3017 13.6943 12.2358 13.6396 12.2358C13.5849 12.2358 13.528 12.3318 13.4543 12.4992C13.3782 12.6921 13.3268 12.8939 13.3014 13.0997C13.1055 14.6188 13.1029 16.1565 13.2936 17.6762C13.3167 17.8779 13.3651 18.0759 13.4376 18.2655C13.5023 18.4318 13.5626 18.5189 13.6195 18.5289C13.6764 18.539 13.7121 18.4687 13.7311 18.3124C13.7523 18.118 13.7523 17.9219 13.7311 17.7275C13.6044 16.1723 13.6112 14.6091 13.7512 13.0551ZM17.6222 11.6933C16.7992 11.0391 15.7784 10.6836 14.727 10.6851C13.6756 10.6865 12.6559 11.0448 11.8346 11.7014C11.0134 12.3579 10.4394 13.2738 10.2065 14.299C9.97362 15.3243 10.0957 16.3983 10.5527 17.3452C11.0097 18.2921 11.7746 19.0558 12.7222 19.5113C13.6697 19.9668 14.7439 20.0872 15.7688 19.8527C16.7937 19.6182 17.7087 19.0428 18.3639 18.2205C19.0192 17.3983 19.3759 16.378 19.3758 15.3266C19.3776 14.6277 19.2207 13.9376 18.917 13.3082C18.6132 12.6788 18.1705 12.1267 17.6222 11.6933ZM11.9128 12.5327L11.9731 12.4747C11.2409 13.4513 11.7499 14.8254 12.001 15.84C11.9307 14.4827 12.1629 13.0953 12.7824 11.8742C12.846 11.8384 12.8772 11.8217 12.942 11.7893C12.0646 14.2796 12.0691 16.4908 12.9196 18.9777C12.8895 18.9632 12.875 18.9553 12.8471 18.9397C12.0568 17.7331 11.3034 16.4483 10.9496 15.0386C11.0065 15.9159 11.0768 16.7341 11.434 17.4775C10.4785 15.7641 10.6593 14.3119 11.9128 12.5327ZM14.1687 11.8429C14.2169 12.2346 14.2281 12.63 14.2022 13.0238C14.1441 14.6077 14.1251 16.186 14.1943 17.771C14.2176 18.1598 14.2008 18.5499 14.1441 18.9352C14.095 19.2366 14.0325 19.3628 13.9332 19.3415C13.8132 19.3179 13.6947 19.2873 13.5782 19.25C13.4833 19.221 13.365 19.058 13.2177 18.7477C13.0484 18.3895 12.9289 18.0099 12.8627 17.6192C12.611 16.148 12.611 14.6447 12.8627 13.1734C12.9321 12.7754 13.0573 12.3891 13.2344 12.026C13.3873 11.7112 13.5101 11.5471 13.6072 11.5181C13.7479 11.4768 13.8238 11.4578 13.9655 11.4288C14.066 11.4098 14.124 11.5382 14.1687 11.8429ZM14.6576 17.7856C14.8451 17.7856 14.94 17.7856 15.1264 17.7856C15.1041 18.4943 15.0884 18.8281 15.0527 19.4241C14.9265 19.4338 14.7998 19.4368 14.6732 19.4331C14.6654 18.8303 14.662 18.4955 14.6576 17.7856ZM16.7069 18.3437C16.6399 18.5844 16.559 18.821 16.4647 19.0524C16.1375 19.2144 15.7861 19.3222 15.4244 19.3717C15.4646 19.0759 15.4836 18.9252 15.5159 18.5903C15.5729 18.0322 15.7838 17.2252 16.1298 16.1682L16.1667 16.0566C16.5094 15.0006 16.602 14.1668 16.5294 13.5641C16.5082 13.3877 16.4971 13.3007 16.4714 13.1299C16.443 12.9278 16.389 12.7301 16.3107 12.5416C16.2403 12.3764 16.1801 12.2894 16.1265 12.2793C16.0472 12.2626 16.0082 12.2548 15.9267 12.2403C15.8039 12.2191 15.7738 12.4635 15.8151 13.0495L15.5918 13.0317C15.5505 11.8541 15.5918 11.4199 15.795 11.469C15.9116 11.4997 16.0263 11.537 16.1388 11.5806C16.2314 11.613 16.3531 11.7782 16.5105 12.0874C16.6897 12.44 16.8197 12.8155 16.8967 13.2036C16.929 13.3676 16.9436 13.4513 16.9715 13.6221C17.063 14.2037 16.9915 15.0051 16.6466 16.0387L16.6109 16.1503C16.2593 17.185 16.0193 17.9552 15.9412 18.4631L15.93 18.5334C16.1934 18.4916 16.4531 18.4296 16.7069 18.3481V18.3437ZM16.7817 18.8873C16.8947 18.6711 16.9925 18.4473 17.0741 18.2175C17.255 17.7286 17.5865 16.9897 17.9437 16.0588C17.9593 16.0197 17.9671 15.9996 17.9816 15.9606C18.3276 15.0375 18.3332 14.3633 18.1825 13.871C18.139 13.7271 18.1144 13.6556 18.0598 13.5172C17.9926 13.3446 17.9053 13.1805 17.7997 13.0283C17.7448 12.933 17.672 12.8493 17.5854 12.7816C17.5184 12.7481 17.4849 12.7325 17.4168 12.7013C17.3119 12.6533 17.361 12.8475 17.495 13.3453L17.2974 13.2962C17.0652 12.2704 16.9045 11.9568 17.0741 12.0684C17.1727 12.1351 17.2674 12.2074 17.3577 12.2849C17.5206 12.4355 17.6731 12.597 17.8142 12.7682C18.0557 13.0346 18.2596 13.3328 18.4203 13.6545C18.472 13.7606 18.5178 13.8694 18.5576 13.9804C18.7272 14.4347 18.744 15.0553 18.3946 15.9249C18.3801 15.9617 18.3734 15.9807 18.3578 16.0175C17.995 16.8915 17.6423 17.5802 17.4525 18.0088C17.4425 18.0322 17.4369 18.0445 17.4258 18.068C17.6503 17.9675 17.8664 17.8492 18.072 17.7141C17.9414 17.9047 17.7918 18.0816 17.6256 18.2421C17.3806 18.5021 17.0957 18.7214 16.7817 18.8917V18.8873ZM13.4554 12.5003C13.3793 12.6933 13.3279 12.895 13.3025 13.1009C13.1066 14.6199 13.104 16.1576 13.2947 17.6773C13.3178 17.879 13.3662 18.077 13.4387 18.2666C13.5034 18.433 13.5637 18.52 13.6206 18.5301C13.6775 18.5401 13.7133 18.4698 13.7322 18.3135C13.7535 18.1191 13.7535 17.923 13.7322 17.7286C13.6013 16.1685 13.6047 14.6001 13.7423 13.0406C13.7641 12.8425 13.7641 12.6426 13.7423 12.4445C13.7211 12.2872 13.6854 12.2213 13.6307 12.2213C13.576 12.2213 13.5235 12.343 13.4554 12.5048V12.5003ZM13.7512 13.0506C13.7731 12.8525 13.7731 12.6527 13.7512 12.4546C13.73 12.2972 13.6943 12.2313 13.6396 12.2313C13.5849 12.2313 13.528 12.3273 13.4543 12.4948C13.3782 12.6877 13.3268 12.8895 13.3014 13.0953C13.1055 14.6143 13.1029 16.152 13.2936 17.6717C13.3167 17.8734 13.3651 18.0714 13.4376 18.2611C13.5023 18.4274 13.5626 18.5144 13.6195 18.5245C13.6764 18.5345 13.7121 18.4642 13.7311 18.3079C13.7523 18.1136 13.7523 17.9174 13.7311 17.7231C13.6047 16.1693 13.6114 14.6077 13.7512 13.0551V13.0506ZM13.7512 13.0506C13.7731 12.8525 13.7731 12.6527 13.7512 12.4546C13.73 12.2972 13.6943 12.2313 13.6396 12.2313C13.5849 12.2313 13.528 12.3273 13.4543 12.4948C13.3782 12.6877 13.3268 12.8895 13.3014 13.0953C13.1055 14.6143 13.1029 16.152 13.2936 17.6717C13.3167 17.8734 13.3651 18.0714 13.4376 18.2611C13.5023 18.4274 13.5626 18.5144 13.6195 18.5245C13.6764 18.5345 13.7121 18.4642 13.7311 18.3079C13.7523 18.1136 13.7523 17.9174 13.7311 17.7231C13.6047 16.1693 13.6114 14.6077 13.7512 13.0551V13.0506Z" fill="#20C38C"/>
<path d="M17.7875 11.4823C16.9205 10.7874 15.8414 10.4108 14.7302 10.4152C14.4535 10.4152 14.1772 10.4383 13.9043 10.4844C13.8373 10.4956 13.7703 10.5078 13.7044 10.5224C12.9982 10.6724 12.3341 10.9774 11.76 11.4153C11.0944 11.9211 10.5688 12.5885 10.2332 13.3541C9.89759 14.1198 9.76298 14.9585 9.84213 15.7908C9.92128 16.6231 10.2116 17.4213 10.6855 18.11C11.1595 18.7987 11.8014 19.355 12.5504 19.7263C13.2995 20.0975 14.1309 20.2714 14.966 20.2315C15.8011 20.1915 16.6121 19.9391 17.3223 19.4981C18.0325 19.057 18.6184 18.442 19.0245 17.7112C19.4305 16.9804 19.6433 16.158 19.6426 15.322V15.3131C19.6424 14.576 19.4754 13.8485 19.1542 13.185C18.8329 12.5216 18.3657 11.9395 17.7875 11.4823ZM10.3592 15.3265C10.3592 14.4617 10.6156 13.6164 11.0961 12.8973C11.5766 12.1783 12.2595 11.6179 13.0585 11.287C13.8574 10.9561 14.7366 10.8696 15.5847 11.0384C16.4329 11.2072 17.2119 11.6237 17.8233 12.2353C18.4347 12.8469 18.8511 13.626 19.0196 14.4742C19.1882 15.3224 19.1015 16.2015 18.7704 17.0004C18.4393 17.7993 17.8787 18.4821 17.1596 18.9623C16.4404 19.4426 15.595 19.6989 14.7302 19.6986C14.1555 19.701 13.5859 19.5895 13.0545 19.3706C12.523 19.1517 12.0402 18.8298 11.6338 18.4233C11.2274 18.0168 10.9055 17.5339 10.6868 17.0023C10.468 16.4708 10.3567 15.9013 10.3592 15.3265Z" fill="#20C38C"/>
<path d="M19.5019 24.063C21.0579 27.2654 23.6598 32.3965 24.19 33.4458C24.2004 33.4658 24.2054 33.4881 24.2046 33.5107C24.2038 33.5332 24.1972 33.5552 24.1854 33.5744C24.1736 33.5936 24.157 33.6094 24.1373 33.6204C24.1176 33.6313 24.0953 33.6369 24.0728 33.6366H18.7864C18.7549 33.6367 18.7244 33.6255 18.7004 33.6051C18.6765 33.5846 18.6607 33.5562 18.6558 33.525L17.4459 23.8141C17.4413 23.783 17.4257 23.7546 17.4019 23.7341C17.3782 23.7136 17.3478 23.7024 17.3164 23.7024H16.7114C16.6935 23.7024 16.6757 23.7061 16.6593 23.7132C16.6428 23.7203 16.628 23.7307 16.6158 23.7438C16.6035 23.7569 16.5941 23.7724 16.5881 23.7892C16.5821 23.8061 16.5796 23.8241 16.5808 23.842L17.1613 33.5016C17.1623 33.5195 17.1597 33.5375 17.1536 33.5544C17.1474 33.5713 17.1379 33.5867 17.1255 33.5998C17.1132 33.6129 17.0983 33.6233 17.0818 33.6304C17.0653 33.6375 17.0475 33.6411 17.0295 33.6411H15.7839C15.7493 33.6411 15.7161 33.6275 15.6915 33.6033C15.6669 33.5791 15.6527 33.5462 15.6521 33.5116L15.4412 21.3551C15.4406 21.3209 15.4533 21.2878 15.4766 21.2628C15.4999 21.2378 15.5321 21.2229 15.5662 21.2211C19.6961 20.9979 21.2477 19.212 21.539 16.2674C21.5422 16.2355 21.5569 16.2058 21.5803 16.1839C21.6036 16.1619 21.6342 16.1492 21.6662 16.148L23.1988 16.1067C23.227 16.1061 23.2543 16.0964 23.2766 16.0791C23.2989 16.0618 23.315 16.0379 23.3227 16.0107L23.3919 15.7651C23.3995 15.738 23.4157 15.714 23.438 15.6967C23.4603 15.6794 23.4876 15.6698 23.5158 15.6691L24.7269 15.6457C24.756 15.645 24.7841 15.6346 24.8067 15.6163C24.8293 15.5979 24.8452 15.5725 24.8519 15.5441L24.9077 15.3097C24.9144 15.2813 24.9305 15.2559 24.9534 15.2377C24.9763 15.2195 25.0046 15.2095 25.0338 15.2093L26.6412 15.1847C26.6585 15.1844 26.6758 15.1876 26.692 15.194C26.7081 15.2004 26.7229 15.21 26.7353 15.2221C26.7478 15.2342 26.7577 15.2487 26.7645 15.2647C26.7714 15.2807 26.775 15.2979 26.7751 15.3153C26.793 20.5001 21.7165 23.2582 19.5834 23.8844C19.5657 23.8899 19.5494 23.8991 19.5355 23.9113C19.5216 23.9236 19.5104 23.9386 19.5027 23.9555C19.4951 23.9723 19.491 23.9906 19.4909 24.0091C19.4907 24.0277 19.4945 24.046 19.5019 24.063Z" fill="#20C38C"/>
<path d="M10.2732 24.063C8.71723 27.2654 6.11537 32.3966 5.58517 33.4458C5.57476 33.4658 5.56971 33.4882 5.57051 33.5107C5.57131 33.5333 5.57793 33.5552 5.58973 33.5745C5.60153 33.5937 5.61811 33.6095 5.63785 33.6204C5.65759 33.6313 5.67982 33.6369 5.70237 33.6367H10.9887C11.0202 33.6368 11.0507 33.6256 11.0747 33.6051C11.0987 33.5846 11.1145 33.5562 11.1193 33.5251L12.3293 23.8141C12.3338 23.7831 12.3494 23.7547 12.3732 23.7342C12.397 23.7137 12.4273 23.7025 12.4587 23.7025H13.0637C13.0814 23.7025 13.099 23.7061 13.1153 23.7131C13.1316 23.72 13.1463 23.7303 13.1585 23.7431C13.1707 23.7559 13.1802 23.7711 13.1864 23.7878C13.1925 23.8044 13.1952 23.8221 13.1943 23.8398L12.6139 33.4994C12.6128 33.5174 12.6154 33.5353 12.6216 33.5522C12.6277 33.5691 12.6373 33.5846 12.6496 33.5976C12.6619 33.6107 12.6768 33.6211 12.6933 33.6282C12.7098 33.6353 12.7276 33.639 12.7456 33.6389H13.9913C14.0258 33.6389 14.059 33.6254 14.0836 33.6012C14.1083 33.5769 14.1224 33.544 14.123 33.5095L14.334 21.3529C14.3346 21.3187 14.3219 21.2856 14.2986 21.2606C14.2752 21.2356 14.2431 21.2207 14.2089 21.219C10.079 20.9957 8.52748 19.2098 8.23615 16.2653C8.23478 16.232 8.22093 16.2004 8.19736 16.1768C8.17378 16.1532 8.14221 16.1394 8.1089 16.138L6.57189 16.1012C6.54368 16.1006 6.51642 16.0909 6.49411 16.0736C6.47181 16.0563 6.45564 16.0323 6.44799 16.0052L6.37879 15.7596C6.37114 15.7325 6.35498 15.7085 6.33267 15.6912C6.31037 15.6739 6.2831 15.6642 6.25489 15.6636L5.04381 15.6402C5.01467 15.6395 4.98659 15.6291 4.96397 15.6107C4.94135 15.5924 4.92546 15.567 4.9188 15.5386L4.86299 15.3042C4.85624 15.2758 4.84015 15.2504 4.81728 15.2322C4.79441 15.214 4.76609 15.204 4.73686 15.2038L3.12953 15.1792C3.09517 15.1798 3.06241 15.1938 3.03822 15.2182C3.01403 15.2426 3.00033 15.2754 3.00005 15.3098C2.98219 20.4912 8.05867 23.2527 10.1917 23.8789C10.2101 23.8842 10.2272 23.8936 10.2416 23.9062C10.256 23.9188 10.2675 23.9345 10.2753 23.952C10.283 23.9696 10.2869 23.9886 10.2865 24.0078C10.2862 24.0269 10.2816 24.0458 10.2732 24.063Z" fill="#20C38C"/>
<path d="M42.7814 9.64399C42.899 9.64279 43.0156 9.66507 43.1245 9.70953C43.2334 9.75398 43.3323 9.81971 43.4155 9.90287C43.4986 9.98602 43.5644 10.0849 43.6088 10.1938C43.6533 10.3027 43.6755 10.4193 43.6744 10.5369V11.4299H50.3638C50.4856 11.4258 50.6069 11.4466 50.7204 11.4911C50.8338 11.5357 50.937 11.603 51.0234 11.6889C51.1075 11.7718 51.1739 11.8709 51.2184 11.9803C51.2629 12.0897 51.2847 12.207 51.2824 12.3251C51.2869 12.447 51.2663 12.5684 51.2217 12.6819C51.1771 12.7955 51.1096 12.8985 51.0234 12.9848C50.9372 13.071 50.8341 13.1385 50.7206 13.1831C50.6071 13.2276 50.4856 13.2483 50.3638 13.2437H43.6766V15.0096H49.2822C49.4853 15.0068 49.6869 15.0448 49.875 15.1215C50.0631 15.1982 50.2339 15.312 50.3771 15.456C50.5253 15.5945 50.6427 15.7625 50.7219 15.9492C50.8012 16.1359 50.8404 16.3371 50.837 16.5399V27.9932C50.838 28.4673 50.7403 28.9363 50.5502 29.3706C50.3643 29.7976 50.0992 30.1854 49.7688 30.5136C49.4379 30.8458 49.046 31.1111 48.6147 31.2949C48.1757 31.4832 47.7027 31.5794 47.225 31.5773C47.1053 31.5794 46.9864 31.5575 46.8752 31.513C46.7641 31.4686 46.6629 31.4024 46.5776 31.3184C46.4885 31.2337 46.4184 31.1311 46.3716 31.0175C46.3249 30.9038 46.3026 30.7816 46.3064 30.6587C46.3042 30.5397 46.3272 30.4216 46.3739 30.3121C46.4207 30.2026 46.4901 30.1043 46.5776 30.0236C46.6629 29.9396 46.7641 29.8734 46.8752 29.8289C46.9864 29.7845 47.1053 29.7626 47.225 29.7646C47.4602 29.7698 47.6941 29.7276 47.9127 29.6405C48.1313 29.5535 48.3302 29.4234 48.4975 29.2579C48.6664 29.0951 48.7996 28.8991 48.8888 28.6822C48.9779 28.4652 49.021 28.2322 49.0154 27.9977V16.8078H36.5139V30.6308C36.5181 30.7526 36.4972 30.874 36.4527 30.9874C36.4082 31.1009 36.3409 31.204 36.255 31.2905C36.0848 31.4566 35.8565 31.5495 35.6187 31.5495C35.381 31.5495 35.1526 31.4566 34.9825 31.2905C34.8966 31.204 34.8293 31.1009 34.7848 30.9874C34.7402 30.874 34.7194 30.7526 34.7235 30.6308V16.5455C34.7231 16.3436 34.7627 16.1436 34.8399 15.9571C34.9172 15.7706 35.0307 15.6012 35.1738 15.4588C35.317 15.3164 35.4869 15.2038 35.6738 15.1274C35.8607 15.0511 36.0609 15.0126 36.2628 15.014H41.8683V13.2482H35.1466C35.0267 13.2501 34.9077 13.2282 34.7963 13.1838C34.685 13.1393 34.5836 13.0732 34.4981 12.9892C34.4093 12.9044 34.3394 12.8018 34.2929 12.6881C34.2464 12.5745 34.2242 12.4523 34.2279 12.3296C34.2259 12.2105 34.2488 12.0923 34.2954 11.9827C34.3419 11.8731 34.411 11.7745 34.4981 11.6933C34.5836 11.6094 34.685 11.5433 34.7963 11.4988C34.9077 11.4543 35.0267 11.4324 35.1466 11.4344H41.8594V10.5414C41.8568 10.4233 41.8785 10.3059 41.923 10.1965C41.9676 10.0871 42.034 9.98792 42.1184 9.90518C42.205 9.81846 42.3086 9.75051 42.4227 9.70557C42.5368 9.66064 42.6589 9.63967 42.7814 9.64399ZM41.8438 24.389V22.6232H39.2006C39.0789 22.627 38.9577 22.6059 38.8445 22.5612C38.7312 22.5165 38.6283 22.4491 38.5421 22.3631C38.3753 22.1936 38.2818 21.9653 38.2818 21.7274C38.2818 21.4896 38.3753 21.2613 38.5421 21.0917C38.6284 21.006 38.7313 20.9388 38.8446 20.8942C38.9578 20.8497 39.079 20.8288 39.2006 20.8328H40.2811L38.9417 19.1362C38.8654 19.0479 38.8083 18.9448 38.7739 18.8334C38.7395 18.722 38.7286 18.6046 38.7419 18.4888C38.7541 18.3672 38.7906 18.2493 38.8493 18.1421C38.908 18.0349 38.9876 17.9406 39.0834 17.8648C39.1763 17.7894 39.2836 17.7338 39.3988 17.7014C39.514 17.6689 39.6345 17.6603 39.7531 17.6762C39.9886 17.7033 40.2042 17.8215 40.3537 18.0055L42.1396 20.2669C42.2713 20.4251 42.3387 20.6271 42.3282 20.8328H43.2C43.1895 20.6271 43.2568 20.4251 43.3886 20.2669L45.1745 18.0055C45.3242 17.8217 45.5396 17.7035 45.775 17.6762C45.8936 17.6605 46.0142 17.6691 46.1293 17.7015C46.2445 17.734 46.3518 17.7895 46.4448 17.8648C46.5406 17.9406 46.6202 18.0349 46.6789 18.1421C46.7376 18.2493 46.7741 18.3672 46.7863 18.4888C46.7993 18.6047 46.7882 18.7221 46.7536 18.8335C46.7191 18.9449 46.6618 19.048 46.5854 19.1362L45.246 20.8328H46.3287C46.4505 20.8286 46.5719 20.8495 46.6853 20.894C46.7988 20.9386 46.9019 21.0059 46.9884 21.0917C47.1544 21.2617 47.2473 21.4898 47.2473 21.7274C47.2473 21.965 47.1544 22.1932 46.9884 22.3631C46.902 22.4492 46.7989 22.5167 46.6854 22.5614C46.572 22.6062 46.4506 22.6272 46.3287 22.6232H43.6531V24.389H46.7852C46.9081 24.3853 47.0303 24.4075 47.144 24.4543C47.2576 24.501 47.3602 24.5712 47.4449 24.6602C47.5288 24.7456 47.5949 24.8468 47.6394 24.9579C47.6838 25.0691 47.7057 25.188 47.7038 25.3076C47.7064 25.4258 47.6848 25.5431 47.6402 25.6526C47.5957 25.762 47.5292 25.8611 47.4449 25.9439C47.3584 26.0298 47.2553 26.0971 47.1418 26.1416C47.0284 26.1861 46.907 26.207 46.7852 26.2028H43.6531V30.2022C43.6548 30.322 43.6328 30.441 43.5884 30.5523C43.5439 30.6636 43.4779 30.765 43.3942 30.8507C43.313 30.9378 43.2144 31.0069 43.1048 31.0534C42.9952 31.0999 42.877 31.1229 42.758 31.1208C42.6352 31.1246 42.513 31.1025 42.3994 31.056C42.2857 31.0094 42.1831 30.9395 42.0983 30.8507C42.0151 30.7648 41.9498 30.6632 41.9061 30.5519C41.8625 30.4406 41.8413 30.3217 41.8438 30.2022V26.2028H38.753C38.6314 26.2068 38.5102 26.1859 38.397 26.1414C38.2838 26.0968 38.1808 26.0296 38.0945 25.9439C38.01 25.8612 37.9433 25.7621 37.8986 25.6527C37.8539 25.5432 37.832 25.4258 37.8344 25.3076C37.8327 25.1879 37.8548 25.069 37.8995 24.9578C37.9441 24.8467 38.0104 24.7456 38.0945 24.6602C38.1789 24.5711 38.2812 24.5009 38.3947 24.4541C38.5082 24.4074 38.6303 24.3852 38.753 24.389H41.8438Z" fill="#292945"/>
<path d="M63.4612 9.55238C63.5802 9.55029 63.6984 9.57326 63.808 9.6198C63.9176 9.66633 64.0162 9.73539 64.0974 9.8225C64.1798 9.90436 64.2451 10.0018 64.2896 10.1091C64.334 10.2164 64.3567 10.3314 64.3564 10.4476V12.0962H71.1172C71.2362 12.0943 71.3544 12.1173 71.464 12.1638C71.5735 12.2103 71.6722 12.2793 71.7534 12.3663C71.8372 12.452 71.9032 12.5534 71.9476 12.6647C71.9921 12.776 72.0141 12.895 72.0124 13.0148C72.0136 13.1324 71.9913 13.2491 71.9469 13.358C71.9024 13.4668 71.8367 13.5658 71.7535 13.6489C71.6704 13.7321 71.5714 13.7978 71.4626 13.8423C71.3537 13.8867 71.237 13.909 71.1194 13.9078H65.4636C66.2056 14.8225 67.0472 15.6518 67.9729 16.3802C68.9262 17.1367 69.966 17.7774 71.0703 18.2889C71.1818 18.3378 71.282 18.409 71.3649 18.498C71.4478 18.5871 71.5117 18.6922 71.5525 18.8068C71.5956 18.9166 71.6146 19.0344 71.6085 19.1522C71.6023 19.27 71.5711 19.3852 71.5168 19.4899C71.4405 19.6448 71.3226 19.7754 71.1764 19.8672C71.0321 19.9595 70.8643 20.0083 70.6931 20.0078C70.6243 20.0101 70.5559 19.9979 70.4921 19.9721C70.4374 19.9487 70.3805 19.9219 70.3158 19.8906C68.0178 18.8335 65.9766 17.2904 64.3329 15.3678V18.4061C64.3341 18.5237 64.3118 18.6403 64.2674 18.7492C64.2229 18.8581 64.1572 18.957 64.0741 19.0402C63.9909 19.1233 63.892 19.1891 63.7831 19.2335C63.6742 19.278 63.5576 19.3002 63.44 19.299C63.3203 19.3009 63.2014 19.279 63.0903 19.2346C62.9791 19.1901 62.8779 19.124 62.7926 19.0401C62.7051 18.9591 62.6357 18.8606 62.589 18.751C62.5422 18.6413 62.5192 18.523 62.5213 18.4039V15.4381C62.1351 15.8567 61.7223 16.25 61.2857 16.6157C60.8526 16.9773 60.3927 17.3423 59.8949 17.7118C59.3971 18.0813 58.8624 18.453 58.282 18.828L56.3979 20.0558C56.2511 20.1519 56.0787 20.2014 55.9034 20.1976C55.7552 20.1943 55.6099 20.156 55.4792 20.086C55.3372 20.0174 55.2201 19.9062 55.1444 19.7679C55.0766 19.6692 55.0301 19.5575 55.0078 19.4399C54.9855 19.3223 54.9879 19.2014 55.0149 19.0847C55.0665 18.8534 55.2057 18.651 55.4033 18.5199C56.111 18.0645 56.7588 17.6445 57.3466 17.2597C57.9345 16.875 58.4725 16.503 58.9607 16.1435C59.4473 15.7834 59.8986 15.4225 60.3146 15.0608C60.7329 14.6979 61.1309 14.3123 61.5067 13.9056H55.9715C55.8539 13.9068 55.7372 13.8845 55.6283 13.84C55.5195 13.7956 55.4205 13.7298 55.3374 13.6467C55.2542 13.5635 55.1885 13.4646 55.144 13.3557C55.0996 13.2469 55.0773 13.1302 55.0785 13.0126C55.0766 12.8927 55.0985 12.7737 55.1429 12.6624C55.1874 12.551 55.2535 12.4497 55.3375 12.3641C55.4187 12.277 55.5173 12.2079 55.6269 12.1614C55.7365 12.1149 55.8546 12.0919 55.9737 12.094H62.5448V10.4453C62.545 10.3282 62.5692 10.2123 62.6158 10.1048C62.6624 9.99728 62.7306 9.90046 62.816 9.82026C62.8998 9.73423 63.0002 9.66612 63.1111 9.62007C63.222 9.57402 63.3411 9.55099 63.4612 9.55238ZM60.8191 30.2021C61.0556 30.1993 61.2902 30.1598 61.5145 30.0849C61.7558 30.0066 61.9852 29.8959 62.1965 29.7556C62.4069 29.6161 62.5872 29.4358 62.7267 29.2254C62.8684 29.0128 62.9424 28.7621 62.9388 28.5066V26.3211H55.9246C55.8071 26.322 55.6906 26.2995 55.5818 26.2549C55.4731 26.2104 55.3743 26.1446 55.2912 26.0615C55.2081 25.9784 55.1423 25.8796 55.0978 25.7709C55.0532 25.6621 55.0307 25.5456 55.0316 25.4281C55.0297 25.3083 55.0516 25.1892 55.0961 25.0779C55.1405 24.9666 55.2066 24.8652 55.2906 24.7796C55.3718 24.6925 55.4704 24.6234 55.58 24.5769C55.6896 24.5304 55.8078 24.5074 55.9268 24.5095H62.9399V24.2974C62.9356 24.1595 62.9656 24.0227 63.0274 23.8993C63.0892 23.776 63.1807 23.67 63.2937 23.5908L65.6255 21.7067H58.7742C58.6545 21.7085 58.5355 21.6864 58.4244 21.6418C58.3132 21.5971 58.2121 21.5308 58.1269 21.4466C58.0394 21.3659 57.9699 21.2676 57.9232 21.1581C57.8764 21.0487 57.8534 20.9305 57.8556 20.8115C57.8571 20.5683 57.9543 20.3355 58.1263 20.1635C58.2983 19.9916 58.5311 19.8943 58.7742 19.8929H68.2195C68.4114 19.8884 68.5988 19.9507 68.7497 20.0692C68.8944 20.1817 69.0046 20.3326 69.0679 20.5045C69.1466 20.6808 69.1549 20.8804 69.0913 21.0626C69.0308 21.2398 68.9254 21.3982 68.7855 21.5225L65.0395 24.5095H71.0938C71.2126 24.5075 71.3306 24.5305 71.44 24.577C71.5494 24.6236 71.6479 24.6926 71.7289 24.7796C71.8128 24.8652 71.879 24.9666 71.9234 25.0779C71.9679 25.1892 71.9898 25.3083 71.9878 25.4281C71.9887 25.5456 71.9662 25.6621 71.9217 25.7709C71.8771 25.8796 71.8114 25.9784 71.7283 26.0615C71.6452 26.1446 71.5464 26.2104 71.4377 26.2549C71.3289 26.2995 71.2124 26.322 71.0949 26.3211H64.7805V28.5111C64.7838 28.9675 64.683 29.4187 64.4858 29.8304C64.2928 30.2342 64.0251 30.5978 63.6967 30.902C63.3674 31.2083 62.9904 31.459 62.5805 31.6442C62.1741 31.8294 61.7408 31.9485 61.2969 31.997C61.2277 32.0153 61.1563 32.0232 61.0848 32.0204H60.8191C60.5849 32.0123 60.3624 31.9157 60.1966 31.7499C60.0309 31.5842 59.9342 31.3617 59.9262 31.1274C59.9247 31.0067 59.948 30.887 59.9947 30.7756C60.0413 30.6643 60.1103 30.5637 60.1974 30.48C60.2765 30.3936 60.3725 30.3243 60.4794 30.2765C60.5864 30.2287 60.702 30.2034 60.8191 30.2021Z" fill="#292945"/>
<path d="M83.0819 28.1339C83.0017 27.9123 82.8428 27.7279 82.6354 27.6159C82.5338 27.5545 82.4199 27.5163 82.3018 27.5039C82.1838 27.4916 82.0644 27.5054 81.9523 27.5445L81.1955 27.7878C81.1389 27.8059 81.0789 27.8104 81.0203 27.8009C80.9616 27.7914 80.9061 27.7682 80.8581 27.7332C80.8101 27.6982 80.7711 27.6523 80.7442 27.5993C80.7173 27.5464 80.7033 27.4878 80.7033 27.4284V24.2004C80.7033 24.1003 80.743 24.0043 80.8138 23.9336C80.8845 23.8628 80.9805 23.8231 81.0806 23.8231H81.4333C81.5514 23.8257 81.6688 23.804 81.7782 23.7595C81.8876 23.7149 81.9868 23.6485 82.0695 23.5641C82.153 23.4847 82.2191 23.3889 82.2637 23.2826C82.3082 23.1764 82.3303 23.0621 82.3285 22.9469C82.3297 22.8293 82.3074 22.7126 82.2629 22.6037C82.2185 22.4949 82.1527 22.3959 82.0696 22.3128C81.9864 22.2296 81.8875 22.1639 81.7786 22.1194C81.6698 22.075 81.5531 22.0527 81.4355 22.0539H81.0828C80.9827 22.0539 80.8868 22.0142 80.816 21.9434C80.7453 21.8727 80.7055 21.7767 80.7055 21.6766V19.019C80.7055 18.9189 80.7453 18.8229 80.816 18.7522C80.8868 18.6814 80.9827 18.6417 81.0828 18.6417C81.4496 18.6371 81.8002 18.4895 82.0599 18.2304C82.3197 17.9713 82.4681 17.6211 82.4736 17.2542V12.2581C82.4687 11.8911 82.3207 11.5405 82.0611 11.2809C81.8016 11.0214 81.4509 10.8734 81.0839 10.8685H77.5232C77.3365 10.8646 77.151 10.8992 76.9781 10.97C76.8053 11.0409 76.6489 11.1465 76.5186 11.2803C76.3838 11.4141 76.2777 11.5739 76.2069 11.7501C76.1361 11.9263 76.102 12.1152 76.1068 12.305V17.2755C76.1052 17.4579 76.1409 17.6387 76.2118 17.8069C76.2826 17.975 76.387 18.1269 76.5186 18.2532C76.6489 18.3871 76.8053 18.4927 76.9781 18.5635C77.151 18.6344 77.3365 18.669 77.5232 18.6651H78.5356C78.6353 18.6651 78.7309 18.7046 78.8016 18.7748C78.8723 18.8451 78.9123 18.9405 78.9129 19.0402V28.3203C78.9136 28.3559 78.9177 28.3914 78.9252 28.4263C78.9324 28.4612 78.9361 28.4967 78.9363 28.5323L78.5858 28.6495C78.5291 28.6685 78.4687 28.6737 78.4095 28.6646C78.3504 28.6556 78.2942 28.6326 78.2457 28.5976C78.1972 28.5626 78.1577 28.5166 78.1305 28.4633C78.1032 28.4101 78.0891 28.3511 78.0891 28.2912V21.9624C78.0903 21.8448 78.068 21.7281 78.0236 21.6193C77.9791 21.5104 77.9134 21.4115 77.8303 21.3283C77.7471 21.2451 77.6482 21.1794 77.5393 21.135C77.4304 21.0905 77.3138 21.0682 77.1962 21.0694C77.0798 21.0662 76.9641 21.0877 76.8566 21.1323C76.749 21.1769 76.6521 21.2437 76.5722 21.3284C76.4909 21.4128 76.4271 21.5125 76.3846 21.6217C76.3421 21.7309 76.3216 21.8474 76.3244 21.9646V29.0313C76.3236 29.1373 76.3476 29.2421 76.3947 29.3371L76.3479 29.384C76.2307 29.4164 76.121 29.4717 76.0253 29.5465C75.9295 29.6214 75.8495 29.7145 75.7898 29.8204C75.7324 29.9172 75.6974 30.0255 75.6873 30.1376C75.6773 30.2496 75.6925 30.3624 75.7317 30.4678C75.8567 30.8764 76.1391 31.0806 76.5789 31.0806C76.6224 31.0808 76.6657 31.0767 76.7084 31.0684C76.7441 31.0617 76.7899 31.0505 76.8457 31.0382L76.8758 31.0293L82.4914 29.2434C82.7178 29.1717 82.9078 29.0153 83.0216 28.8069C83.0801 28.7059 83.1158 28.5933 83.1262 28.4771C83.1366 28.3608 83.1215 28.2437 83.0819 28.1339ZM80.2791 16.8747H78.2778C78.1777 16.8747 78.0817 16.835 78.011 16.7642C77.9402 16.6935 77.9005 16.5975 77.9005 16.4975V13.0596C77.9005 12.9595 77.9402 12.8635 78.011 12.7928C78.0817 12.722 78.1777 12.6823 78.2778 12.6823H80.2791C80.3792 12.6823 80.4751 12.722 80.5459 12.7928C80.6167 12.8635 80.6564 12.9595 80.6564 13.0596V16.4975C80.6564 16.5975 80.6167 16.6935 80.5459 16.7642C80.4751 16.835 80.3792 16.8747 80.2791 16.8747Z" fill="#292945"/>
<path d="M93.0395 21.8306C93.0152 21.7132 92.9657 21.6025 92.8944 21.5061C92.8231 21.4097 92.7317 21.33 92.6265 21.2725C91.9679 20.8647 91.3637 20.4525 90.8138 20.0357C90.2687 19.6245 89.7495 19.1801 89.2589 18.7052C89.9083 17.9667 90.466 17.1522 90.9198 16.2797C91.4212 15.3008 91.7745 14.2527 91.9679 13.17C91.9993 13.0167 91.9869 12.8578 91.9322 12.7112C91.88 12.5664 91.8046 12.4311 91.709 12.3105C91.6171 12.1952 91.5033 12.0992 91.3741 12.0281C91.2598 11.9602 91.1297 11.9237 90.9968 11.9221H86.8557C86.9037 11.6988 86.9461 11.4823 86.9852 11.2624C87.0243 11.0425 87.06 10.8226 87.0968 10.6027C87.1194 10.4847 87.1176 10.3634 87.0914 10.2461C87.0653 10.1289 87.0154 10.0182 86.9447 9.92103C86.8741 9.82384 86.7843 9.74217 86.6809 9.68106C86.5775 9.61996 86.4626 9.58072 86.3434 9.56577C86.1071 9.5315 85.8669 9.59077 85.6737 9.73096C85.577 9.80027 85.4949 9.88802 85.4323 9.98917C85.3696 10.0903 85.3276 10.2029 85.3087 10.3203C85.172 11.3383 84.9354 12.3402 84.6021 13.3117C84.2185 14.4201 83.7537 15.4987 83.2113 16.5387C83.1503 16.6404 83.1124 16.7544 83.1002 16.8724C83.0881 16.9905 83.102 17.1097 83.141 17.2218C83.1948 17.4096 83.3098 17.5741 83.4678 17.6891C83.6257 17.8042 83.8175 17.8632 84.0128 17.8569C84.183 17.8611 84.3509 17.8169 84.4969 17.7293C84.643 17.6418 84.7611 17.5145 84.8376 17.3624L85.3087 16.35C85.5165 16.77 85.7526 17.1753 86.0152 17.5634C86.2667 17.9317 86.5272 18.2889 86.7966 18.6349C86.2685 19.1049 85.7054 19.534 85.1122 19.9185C84.54 20.2906 83.9785 20.6255 83.4279 20.9231C83.3237 20.9792 83.2324 21.0563 83.1596 21.1494C83.0868 21.2426 83.0341 21.3499 83.0048 21.4645C82.9731 21.5787 82.965 21.6982 82.9811 21.8157C82.9972 21.9332 83.0372 22.0461 83.0986 22.1476C83.1691 22.2934 83.2805 22.4156 83.4192 22.4993C83.558 22.5829 83.718 22.6244 83.8799 22.6186C84.0364 22.6186 84.1902 22.5783 84.3264 22.5014C84.9217 22.171 85.5382 21.799 86.176 21.3852C86.8234 20.9611 87.441 20.4931 88.0244 19.9844C88.5671 20.4939 89.1372 20.9735 89.7322 21.4209C90.3372 21.8764 90.9927 22.3228 91.6989 22.7604C91.843 22.8654 92.0163 22.9228 92.1945 22.9245C92.3468 22.9298 92.4976 22.8931 92.6305 22.8185C92.7634 22.7439 92.8732 22.6342 92.948 22.5014C93.0071 22.4013 93.0456 22.2904 93.0613 22.1752C93.077 22.06 93.0696 21.9429 93.0395 21.8306ZM88.3626 16.9506C88.3279 16.9971 88.2825 17.0347 88.2303 17.0602C88.1781 17.0857 88.1206 17.0984 88.0625 17.0972C88.0045 17.096 87.9475 17.0809 87.8964 17.0533C87.8453 17.0257 87.8016 16.9862 87.7688 16.9383C87.5589 16.6324 87.3569 16.3132 87.1627 15.9772C86.8608 15.4533 86.5931 14.9105 86.3612 14.352C86.3176 14.2862 86.2898 14.211 86.2801 14.1326C86.2704 14.0541 86.2791 13.9745 86.3054 13.9C86.3219 13.8537 86.3521 13.8136 86.392 13.7851C86.4319 13.7566 86.4796 13.741 86.5287 13.7404H89.5614C89.6112 13.7405 89.6603 13.7524 89.7046 13.7751C89.7489 13.7979 89.7871 13.8308 89.8162 13.8713C89.8453 13.9117 89.8644 13.9584 89.8719 14.0077C89.8794 14.0569 89.8751 14.1072 89.8594 14.1545C89.6809 14.6884 89.4522 15.2041 89.1763 15.6948C88.9307 16.1302 88.659 16.5503 88.3626 16.9528V16.9506Z" fill="#292945"/>
<path d="M88.0902 24.1345C88.0902 24.0061 88.0244 23.9113 87.9507 23.9113H87.8491C87.7743 23.9113 87.7129 24.0106 87.7085 24.1345L87.6326 26.4071C87.6326 26.5455 87.6928 26.6627 87.7732 26.6627H88.0255C88.107 26.6627 88.1706 26.5455 88.1661 26.4071L88.0902 24.1345ZM87.9105 26.5366C87.8851 26.5368 87.8601 26.5294 87.8389 26.5155C87.8176 26.5015 87.801 26.4815 87.7911 26.4581C87.7812 26.4347 87.7785 26.4088 87.7834 26.3838C87.7882 26.3589 87.8003 26.3359 87.8182 26.3178C87.8361 26.2998 87.859 26.2874 87.8839 26.2824C87.9089 26.2773 87.9347 26.2798 87.9583 26.2895C87.9818 26.2992 88.0019 26.3156 88.016 26.3368C88.0302 26.3579 88.0377 26.3828 88.0378 26.4082C88.0378 26.442 88.0244 26.4745 88.0006 26.4986C87.9767 26.5226 87.9444 26.5363 87.9105 26.5366Z" fill="#292945"/>
<path d="M89.5849 26.1414L87.7331 26.0297C87.7064 26.0282 87.6797 26.0322 87.6545 26.0414C87.6294 26.0506 87.6064 26.0648 87.5869 26.0832C87.5675 26.1016 87.552 26.1237 87.5415 26.1483C87.5309 26.1729 87.5255 26.1994 87.5255 26.2262V26.5789C87.5255 26.6057 87.5309 26.6322 87.5415 26.6568C87.552 26.6813 87.5675 26.7035 87.5869 26.7219C87.6064 26.7403 87.6294 26.7545 87.6545 26.7637C87.6797 26.7729 87.7064 26.7769 87.7331 26.7754L89.5849 26.6693C89.635 26.6665 89.6822 26.6445 89.7167 26.608C89.7511 26.5714 89.7703 26.5231 89.7702 26.4729V26.3322C89.7689 26.283 89.7491 26.236 89.7148 26.2007C89.6805 26.1653 89.6341 26.1441 89.5849 26.1414ZM87.9106 26.5365C87.8852 26.5367 87.8602 26.5294 87.839 26.5154C87.8177 26.5014 87.8011 26.4815 87.7912 26.458C87.7813 26.4346 87.7786 26.4088 87.7835 26.3838C87.7883 26.3588 87.8004 26.3358 87.8183 26.3178C87.8362 26.2997 87.8591 26.2874 87.884 26.2823C87.909 26.2773 87.9348 26.2798 87.9583 26.2894C87.9819 26.2991 88.002 26.3156 88.0161 26.3367C88.0303 26.3578 88.0378 26.3827 88.0378 26.4081C88.0378 26.442 88.0245 26.4745 88.0006 26.4985C87.9768 26.5225 87.9445 26.5362 87.9106 26.5365Z" fill="#292945"/>
<path d="M87.7799 23.0394C88.4259 23.0392 89.0575 23.2306 89.5947 23.5893C90.132 23.9481 90.5508 24.4581 90.7981 25.0548C91.0455 25.6516 91.1103 26.3083 90.9844 26.9419C90.8586 27.5755 90.5476 28.1576 90.0909 28.6145C89.6342 29.0713 89.0522 29.3825 88.4186 29.5086C87.7851 29.6347 87.1283 29.5701 86.5315 29.323C85.9346 29.0758 85.4245 28.6572 85.0656 28.1201C84.7066 27.5829 84.515 26.9515 84.515 26.3054C84.515 25.4394 84.859 24.6089 85.4712 23.9964C86.0835 23.384 86.9139 23.0397 87.7799 23.0394ZM87.7799 21.7123C86.8715 21.7123 85.9835 21.9817 85.2281 22.4864C84.4728 22.9911 83.8841 23.7084 83.5364 24.5477C83.1888 25.387 83.0978 26.3105 83.275 27.2015C83.4523 28.0925 83.8897 28.9109 84.5321 29.5533C85.1744 30.1957 85.9929 30.6331 86.8839 30.8104C87.7748 30.9876 88.6984 30.8966 89.5377 30.549C90.377 30.2013 91.0943 29.6126 91.599 28.8573C92.1037 28.1019 92.3731 27.2139 92.3731 26.3054C92.3719 25.0876 91.8876 23.92 91.0265 23.0589C90.1654 22.1978 88.9978 21.7135 87.7799 21.7123Z" fill="#292945"/>
<path d="M91.2502 26.2542H90.9432C90.8587 26.2542 90.7903 26.3226 90.7903 26.4071C90.7903 26.4915 90.8587 26.56 90.9432 26.56H91.2502C91.3346 26.56 91.4031 26.4915 91.4031 26.4071C91.4031 26.3226 91.3346 26.2542 91.2502 26.2542Z" fill="#292945"/>
<path d="M84.7194 26.2542H84.4124C84.328 26.2542 84.2595 26.3226 84.2595 26.4071C84.2595 26.4915 84.328 26.56 84.4124 26.56H84.7194C84.8039 26.56 84.8723 26.4915 84.8723 26.4071C84.8723 26.3226 84.8039 26.2542 84.7194 26.2542Z" fill="#292945"/>
<path d="M88.0356 23.1421V22.8352C88.0356 22.7507 87.9672 22.6823 87.8827 22.6823C87.7983 22.6823 87.7298 22.7507 87.7298 22.8352V23.1421C87.7298 23.2266 87.7983 23.295 87.8827 23.295C87.9672 23.295 88.0356 23.2266 88.0356 23.1421Z" fill="#292945"/>
<path d="M88.0356 29.7746V29.4676C88.0356 29.3832 87.9672 29.3147 87.8827 29.3147C87.7983 29.3147 87.7298 29.3832 87.7298 29.4676V29.7746C87.7298 29.859 87.7983 29.9275 87.8827 29.9275C87.9672 29.9275 88.0356 29.859 88.0356 29.7746Z" fill="#292945"/>
<path d="M105.65 28.7053C105.708 28.703 105.766 28.7125 105.82 28.7332C105.875 28.754 105.924 28.7855 105.966 28.8258C106.008 28.8662 106.041 28.9146 106.063 28.9681C106.086 29.0217 106.097 29.0792 106.097 29.1372C106.098 29.1969 106.087 29.2561 106.064 29.3115C106.042 29.3668 106.009 29.4173 105.967 29.4598C105.927 29.5031 105.878 29.5374 105.824 29.5605C105.769 29.5835 105.711 29.5949 105.651 29.5938H98.1003C98.0412 29.5949 97.9826 29.5835 97.9281 29.5605C97.8737 29.5374 97.8247 29.5031 97.7845 29.4598C97.7426 29.4173 97.7097 29.3669 97.6876 29.3115C97.6656 29.2561 97.6549 29.1969 97.6561 29.1372C97.6556 29.0806 97.6668 29.0244 97.6889 28.9722C97.7109 28.9199 97.7435 28.8728 97.7845 28.8336C97.8255 28.7918 97.8748 28.7588 97.9291 28.7367C97.9834 28.7146 98.0417 28.7039 98.1003 28.7053H105.65ZM98.8638 21.719C98.7431 21.7178 98.6277 21.6693 98.5423 21.584C98.4569 21.4986 98.4085 21.3832 98.4073 21.2624C98.4061 21.2032 98.4175 21.1444 98.4408 21.09C98.4641 21.0355 98.4987 20.9866 98.5424 20.9466C98.5847 20.9048 98.6349 20.872 98.6901 20.8499C98.7453 20.8279 98.8044 20.8171 98.8638 20.8182H104.867C104.926 20.8171 104.985 20.8279 105.04 20.8499C105.096 20.872 105.146 20.9048 105.188 20.9466C105.232 20.9868 105.266 21.0357 105.289 21.0901C105.313 21.1445 105.324 21.2033 105.323 21.2624C105.322 21.3832 105.274 21.4986 105.188 21.584C105.103 21.6693 104.987 21.7178 104.867 21.719H98.8638Z" fill="#292945"/>
<path d="M115.96 23.86C116.02 23.858 116.08 23.869 116.136 23.8923C116.191 23.9156 116.241 23.9506 116.282 23.995C116.363 24.0823 116.407 24.1975 116.405 24.3165C116.405 24.4349 116.358 24.5485 116.274 24.6322C116.19 24.7159 116.077 24.763 115.958 24.763H112.637V30.075C112.637 30.196 112.589 30.3122 112.503 30.3978C112.417 30.4834 112.301 30.5315 112.18 30.5315C112.059 30.5315 111.943 30.4834 111.857 30.3978C111.772 30.3122 111.724 30.196 111.724 30.075V24.7619H108.401C108.282 24.7619 108.169 24.7148 108.085 24.6311C108.001 24.5474 107.954 24.4338 107.954 24.3154C107.953 24.2559 107.964 24.1968 107.986 24.1416C108.009 24.0864 108.042 24.0362 108.084 23.9939C108.124 23.9505 108.173 23.916 108.227 23.8928C108.282 23.8695 108.34 23.8579 108.4 23.8588H111.722V19.8818C111.722 19.7607 111.771 19.6446 111.856 19.559C111.942 19.4734 112.058 19.4253 112.179 19.4253C112.3 19.4253 112.416 19.4734 112.502 19.559C112.587 19.6446 112.635 19.7607 112.635 19.8818V23.86H115.96Z" fill="#292945"/>
<path d="M126.245 28.7053C126.303 28.703 126.361 28.7125 126.415 28.7332C126.47 28.754 126.519 28.7855 126.561 28.8258C126.603 28.8662 126.636 28.9146 126.658 28.9681C126.681 29.0217 126.692 29.0792 126.692 29.1372C126.693 29.1969 126.682 29.2561 126.659 29.3115C126.637 29.3668 126.604 29.4173 126.562 29.4598C126.522 29.5031 126.473 29.5374 126.419 29.5604C126.364 29.5835 126.306 29.5949 126.246 29.5938H118.7C118.641 29.5949 118.582 29.5836 118.527 29.5605C118.472 29.5374 118.423 29.5031 118.383 29.4598C118.341 29.4173 118.308 29.3669 118.286 29.3115C118.264 29.2561 118.253 29.1969 118.254 29.1372C118.254 29.0805 118.265 29.0244 118.287 28.9722C118.309 28.9199 118.342 28.8728 118.383 28.8336C118.424 28.7917 118.474 28.7587 118.528 28.7366C118.583 28.7146 118.641 28.7039 118.7 28.7053H126.245ZM119.459 21.719C119.338 21.7178 119.223 21.6693 119.137 21.584C119.052 21.4986 119.004 21.3832 119.002 21.2624C119.001 21.2032 119.013 21.1444 119.036 21.09C119.059 21.0355 119.094 20.9866 119.137 20.9466C119.18 20.9048 119.23 20.872 119.285 20.8499C119.34 20.8279 119.399 20.8171 119.459 20.8182H125.462C125.521 20.8171 125.58 20.8279 125.635 20.8499C125.691 20.872 125.741 20.9048 125.783 20.9466C125.827 20.9866 125.862 21.0355 125.885 21.09C125.908 21.1444 125.92 21.2032 125.918 21.2624C125.917 21.3832 125.869 21.4986 125.783 21.584C125.698 21.6693 125.583 21.7178 125.462 21.719H119.459Z" fill="#292945"/>
<path d="M129.019 25.206C128.957 25.2067 128.896 25.1951 128.838 25.1719C128.781 25.1487 128.728 25.1144 128.684 25.0709C128.64 25.0303 128.604 24.9807 128.58 24.9253C128.555 24.8699 128.543 24.8099 128.544 24.7495C128.542 24.6903 128.554 24.6315 128.577 24.577C128.6 24.5225 128.635 24.4737 128.679 24.4336C128.721 24.3919 128.771 24.359 128.827 24.337C128.882 24.3149 128.941 24.3041 129 24.3052H136.559C136.618 24.3042 136.677 24.315 136.731 24.3371C136.786 24.3591 136.835 24.392 136.877 24.4336C136.919 24.4753 136.952 24.525 136.974 24.5796C136.996 24.6343 137.007 24.6928 137.006 24.7517C137.007 24.8111 136.996 24.8702 136.974 24.9254C136.952 24.9806 136.919 25.0308 136.877 25.0732C136.837 25.1167 136.788 25.1513 136.733 25.1745C136.679 25.1978 136.62 25.2093 136.56 25.2082H131.084L130.873 26.3244H135.683C135.75 26.3218 135.817 26.3352 135.879 26.3638C135.94 26.3923 135.993 26.4351 136.034 26.4885C136.073 26.5417 136.101 26.6024 136.115 26.6668C136.129 26.7312 136.129 26.7979 136.116 26.8624L135.669 28.9687C135.632 29.1601 135.558 29.3427 135.453 29.5067C135.349 29.6694 135.218 29.8139 135.067 29.9342C134.915 30.0545 134.745 30.1494 134.563 30.2155C134.377 30.282 134.181 30.3157 133.984 30.3149H132.334C132.277 30.3149 132.219 30.3035 132.166 30.2813C132.113 30.2591 132.065 30.2265 132.024 30.1854C131.981 30.1451 131.946 30.0962 131.923 30.0418C131.9 29.9874 131.888 29.9287 131.889 29.8695C131.889 29.8096 131.901 29.7503 131.924 29.695C131.947 29.6398 131.981 29.5898 132.024 29.548C132.064 29.5057 132.112 29.472 132.165 29.449C132.219 29.426 132.276 29.4141 132.334 29.4141H133.984C134.171 29.4128 134.353 29.3486 134.499 29.2318C134.645 29.115 134.748 28.9523 134.791 28.77L135.119 27.2141H130.345C130.279 27.2119 130.213 27.1963 130.153 27.1681C130.092 27.1399 130.038 27.0997 129.994 27.05C129.951 27.0006 129.921 26.9423 129.905 26.8794C129.888 26.8166 129.887 26.7508 129.9 26.6872L130.181 25.2127L129.019 25.206ZM130.225 23.65C130.126 23.6508 130.029 23.6314 129.938 23.593C129.847 23.5546 129.766 23.498 129.698 23.4268C129.552 23.2853 129.468 23.092 129.463 22.8888V20.6419C129.463 20.5419 129.483 20.4428 129.521 20.3504C129.559 20.2579 129.615 20.174 129.686 20.1033C129.757 20.0326 129.841 19.9767 129.933 19.9387C130.026 19.9006 130.125 19.8813 130.225 19.8817H135.359C135.459 19.8814 135.558 19.9009 135.65 19.939C135.743 19.9771 135.827 20.0331 135.897 20.1037C135.968 20.1743 136.024 20.2583 136.062 20.3506C136.1 20.443 136.12 20.542 136.119 20.6419V22.8888C136.119 22.9887 136.1 23.0876 136.062 23.18C136.024 23.2724 135.968 23.3563 135.897 23.427C135.826 23.4977 135.743 23.5538 135.65 23.5921C135.558 23.6303 135.459 23.65 135.359 23.65H130.225ZM130.365 22.7481H135.233V20.7825H130.365V22.7481Z" fill="#292945"/>
<path d="M99.9188 15.3366L99.1698 11.8964C99.1608 11.8482 99.1704 11.7984 99.1966 11.7569C99.2099 11.7357 99.2275 11.7176 99.2482 11.7038C99.269 11.6899 99.2925 11.6806 99.3171 11.6765C99.3316 11.6743 99.3463 11.6743 99.3607 11.6765C99.4017 11.6773 99.4412 11.6923 99.4723 11.7189C99.5055 11.7447 99.5275 11.7823 99.5337 11.8239L100.112 14.6043L100.748 11.8194C100.757 11.7783 100.78 11.7418 100.814 11.7167C100.848 11.6899 100.891 11.6758 100.935 11.6765C100.975 11.6772 101.014 11.6913 101.046 11.7167C101.08 11.7421 101.103 11.7785 101.112 11.8194L101.748 14.6043L102.326 11.8239C102.332 11.7824 102.354 11.7447 102.387 11.7189C102.418 11.6924 102.457 11.6774 102.498 11.6765C102.513 11.6742 102.528 11.6742 102.543 11.6765C102.567 11.6806 102.591 11.6899 102.611 11.7038C102.632 11.7177 102.649 11.7358 102.662 11.7569C102.689 11.798 102.699 11.8481 102.69 11.8964L101.941 15.3377C101.933 15.3816 101.909 15.4211 101.874 15.4493C101.843 15.4757 101.804 15.4903 101.763 15.4906C101.722 15.49 101.683 15.4763 101.651 15.4515C101.617 15.4266 101.594 15.39 101.585 15.3488L100.939 12.5237L100.287 15.3488C100.279 15.39 100.255 15.4266 100.221 15.4515C100.187 15.4774 100.145 15.4912 100.102 15.4906C100.061 15.4903 100.021 15.4757 99.9902 15.4493C99.9535 15.4216 99.9282 15.3815 99.9188 15.3366Z" fill="#292945"/>
<path d="M103.14 14.3286V11.9098C103.14 11.8851 103.145 11.8606 103.154 11.8379C103.164 11.8152 103.179 11.7948 103.197 11.7781C103.215 11.7607 103.235 11.7469 103.258 11.7377C103.281 11.7285 103.306 11.724 103.331 11.7245C103.355 11.7241 103.38 11.7286 103.403 11.7378C103.426 11.747 103.446 11.7607 103.464 11.7781C103.481 11.7953 103.495 11.8158 103.504 11.8384C103.513 11.8611 103.518 11.8854 103.517 11.9098V14.3286C103.517 14.477 103.555 14.6229 103.629 14.7517C103.701 14.8814 103.806 14.9902 103.933 15.0675C104.057 15.1454 104.202 15.1864 104.349 15.1859C104.497 15.186 104.642 15.145 104.767 15.0675C104.895 14.9903 105 14.8815 105.073 14.7517C105.147 14.6229 105.186 14.477 105.185 14.3286V11.9098C105.185 11.8854 105.189 11.8612 105.198 11.8386C105.208 11.8159 105.221 11.7954 105.238 11.7781C105.256 11.7609 105.276 11.7472 105.299 11.738C105.322 11.7288 105.346 11.7242 105.37 11.7245C105.395 11.7241 105.42 11.7287 105.443 11.7379C105.466 11.7471 105.487 11.7607 105.505 11.7781C105.523 11.795 105.537 11.8154 105.547 11.8381C105.557 11.8608 105.561 11.8852 105.561 11.9098V14.3286C105.563 14.5398 105.506 14.7473 105.397 14.928C105.29 15.1069 105.139 15.2547 104.957 15.3566C104.771 15.4591 104.562 15.5129 104.349 15.5129C104.136 15.5129 103.927 15.4591 103.741 15.3566C103.558 15.256 103.405 15.1079 103.3 14.928C103.192 14.7467 103.137 14.5393 103.14 14.3286Z" fill="#292945"/>
<path d="M106.195 14.255C106.172 14.0374 106.161 13.8187 106.16 13.5998C106.16 13.3766 106.173 13.1477 106.195 12.9189C106.21 12.6855 106.281 12.4591 106.4 12.2581C106.512 12.0708 106.672 11.9167 106.864 11.8117C107.058 11.7058 107.276 11.6516 107.498 11.6543C107.75 11.6518 107.998 11.7215 108.212 11.8552C108.426 11.9874 108.593 12.1823 108.692 12.4133C108.702 12.4365 108.707 12.4616 108.706 12.487C108.706 12.5243 108.695 12.5606 108.674 12.5919C108.656 12.6237 108.628 12.6485 108.594 12.6622C108.569 12.6728 108.542 12.6782 108.516 12.6778C108.479 12.6788 108.443 12.6687 108.412 12.6487C108.382 12.6288 108.358 12.6 108.344 12.5662C108.271 12.3981 108.152 12.2538 108.001 12.1499C107.855 12.044 107.678 11.9873 107.498 11.988C107.379 11.9857 107.261 12.0084 107.152 12.0548C107.043 12.1012 106.944 12.1701 106.864 12.257C106.687 12.4476 106.582 12.6933 106.567 12.9524C106.544 13.227 106.533 13.4424 106.533 13.5987C106.533 13.755 106.544 13.9626 106.567 14.2204C106.584 14.4816 106.689 14.7291 106.866 14.9225C106.946 15.0094 107.044 15.0782 107.153 15.1244C107.262 15.1705 107.379 15.1931 107.498 15.1904C107.679 15.1886 107.855 15.1296 108.001 15.0219C108.152 14.9176 108.27 14.7734 108.344 14.6055C108.356 14.5772 108.376 14.5523 108.4 14.5332C108.424 14.514 108.453 14.5011 108.483 14.4956C108.514 14.4901 108.545 14.4922 108.575 14.5016C108.604 14.511 108.631 14.5275 108.653 14.5497C108.67 14.5679 108.684 14.5894 108.693 14.6131C108.702 14.6367 108.705 14.6618 108.704 14.687C108.704 14.7107 108.699 14.7342 108.69 14.7562C108.59 14.9867 108.423 15.1813 108.21 15.3143C108.008 15.4383 107.778 15.508 107.542 15.5166C107.306 15.5252 107.071 15.4724 106.861 15.3634C106.672 15.2583 106.514 15.1041 106.404 14.9169C106.283 14.7158 106.212 14.489 106.195 14.255Z" fill="#292945"/>
<path d="M109.22 15.2685V11.9199C109.22 11.8952 109.224 11.8706 109.234 11.8479C109.244 11.8252 109.259 11.8048 109.277 11.7882C109.295 11.7707 109.315 11.7569 109.338 11.7475C109.361 11.7381 109.386 11.7334 109.411 11.7335C109.46 11.7339 109.507 11.7535 109.541 11.7882C109.559 11.8051 109.574 11.8255 109.583 11.8482C109.593 11.8709 109.598 11.8953 109.597 11.9199V13.4324H111.272V11.9199C111.271 11.8955 111.275 11.8712 111.285 11.8485C111.294 11.8259 111.308 11.8053 111.325 11.7882C111.342 11.7707 111.363 11.7567 111.385 11.7473C111.408 11.7379 111.432 11.7332 111.457 11.7335C111.507 11.7332 111.556 11.7529 111.592 11.7882C111.61 11.8049 111.625 11.8253 111.634 11.848C111.644 11.8707 111.648 11.8953 111.648 11.9199V15.2685C111.648 15.2937 111.644 15.3186 111.634 15.3419C111.624 15.3651 111.61 15.3861 111.592 15.4036C111.574 15.4215 111.553 15.4356 111.53 15.4452C111.507 15.4548 111.482 15.4596 111.457 15.4594C111.432 15.4598 111.408 15.455 111.385 15.4454C111.362 15.4358 111.342 15.4215 111.325 15.4036C111.308 15.3857 111.294 15.3646 111.285 15.3414C111.276 15.3182 111.271 15.2935 111.272 15.2685V13.7606H109.597V15.2685C109.597 15.2936 109.593 15.3185 109.583 15.3417C109.573 15.3649 109.559 15.386 109.541 15.4036C109.525 15.4211 109.504 15.4351 109.482 15.4447C109.459 15.4543 109.435 15.4593 109.411 15.4594C109.36 15.4591 109.312 15.4389 109.276 15.4032C109.24 15.3675 109.22 15.3191 109.22 15.2685Z" fill="#292945"/>
<path d="M112.172 15.4549C112.135 15.4426 112.102 15.4183 112.08 15.3857C112.056 15.3535 112.044 15.3141 112.045 15.2741C112.046 15.2541 112.05 15.2342 112.055 15.215L113.264 11.7737C113.28 11.7383 113.305 11.7073 113.335 11.6833C113.365 11.6591 113.402 11.6461 113.44 11.6465C113.48 11.6451 113.52 11.6573 113.552 11.6811C113.585 11.7036 113.611 11.736 113.626 11.7737L114.83 15.215C114.84 15.2347 114.845 15.2565 114.844 15.2786C114.845 15.3166 114.833 15.3537 114.811 15.3846C114.787 15.4153 114.754 15.4383 114.717 15.4505C114.696 15.4607 114.673 15.4657 114.649 15.465C114.611 15.4657 114.574 15.4535 114.544 15.4304C114.513 15.4074 114.489 15.3749 114.477 15.3377L114.174 14.4448H112.723L112.419 15.3377C112.407 15.3752 112.383 15.4078 112.351 15.4304C112.318 15.4537 112.279 15.4659 112.239 15.465C112.216 15.4672 112.193 15.4637 112.172 15.4549ZM114.058 14.1155L113.44 12.3095L112.834 14.1177L114.058 14.1155Z" fill="#292945"/>
<path d="M115.242 15.264V11.9154C115.241 11.8906 115.246 11.866 115.255 11.843C115.264 11.82 115.278 11.7991 115.295 11.7815C115.313 11.7627 115.334 11.7479 115.358 11.7381C115.382 11.7283 115.407 11.7237 115.433 11.7245C115.465 11.7238 115.496 11.7321 115.524 11.7485C115.552 11.7649 115.574 11.7887 115.589 11.8172L117.288 14.5932V11.9143C117.287 11.8895 117.292 11.8649 117.301 11.8419C117.31 11.8189 117.324 11.7979 117.341 11.7803C117.358 11.7621 117.379 11.7475 117.402 11.7377C117.425 11.7279 117.449 11.723 117.474 11.7234C117.525 11.7243 117.573 11.7447 117.608 11.7803C117.644 11.8159 117.664 11.8639 117.665 11.9143V15.2629C117.664 15.3033 117.651 15.3424 117.626 15.3745C117.602 15.4068 117.567 15.43 117.528 15.4404C117.51 15.4456 117.492 15.449 117.474 15.4504C117.442 15.45 117.41 15.4416 117.382 15.4258C117.352 15.41 117.328 15.3859 117.312 15.3566L115.625 12.5862V15.2651C115.624 15.3155 115.603 15.3635 115.568 15.3991C115.532 15.4347 115.484 15.4551 115.434 15.456C115.409 15.4565 115.384 15.4517 115.361 15.4419C115.338 15.432 115.318 15.4174 115.301 15.3991C115.282 15.3818 115.268 15.3609 115.257 15.3377C115.247 15.3144 115.242 15.2894 115.242 15.264Z" fill="#292945"/>
<path d="M118.316 14.4168C118.297 14.1333 118.287 13.8487 118.287 13.5652C118.287 13.3293 118.295 13.0647 118.311 12.7715C118.325 12.5689 118.392 12.3734 118.505 12.2045C118.616 12.035 118.77 11.8973 118.951 11.8049C119.134 11.709 119.337 11.6595 119.544 11.6609C119.731 11.6595 119.916 11.7012 120.084 11.7826C120.249 11.8605 120.394 11.9751 120.508 12.1174C120.622 12.2642 120.699 12.4366 120.731 12.6197C120.737 12.6492 120.735 12.6795 120.726 12.7081C120.717 12.7367 120.701 12.7627 120.68 12.7838C120.659 12.8067 120.633 12.8239 120.603 12.8337C120.573 12.8435 120.542 12.8455 120.511 12.8396C120.473 12.8333 120.438 12.8145 120.411 12.7861C120.385 12.7591 120.367 12.7249 120.36 12.6878C120.326 12.4923 120.224 12.315 120.073 12.1867C119.947 12.0741 119.788 12.0044 119.62 11.9876C119.452 11.9707 119.282 12.0076 119.136 12.0929C119.014 12.1653 118.911 12.266 118.835 12.3865C118.758 12.508 118.714 12.647 118.705 12.7905C118.685 13.0554 118.675 13.32 118.675 13.5841C118.675 13.8509 118.685 14.1177 118.705 14.3822C118.714 14.5239 118.759 14.661 118.835 14.7807C118.91 14.9008 119.012 15.0014 119.133 15.0743C119.253 15.1477 119.392 15.1863 119.533 15.1859C119.644 15.1901 119.755 15.1719 119.859 15.1324C119.964 15.0929 120.059 15.0329 120.14 14.956C120.296 14.8019 120.374 14.575 120.374 14.2751V13.8643H119.89C119.847 13.8627 119.807 13.8451 119.777 13.8151C119.747 13.7851 119.73 13.7449 119.728 13.7025C119.729 13.6606 119.745 13.6206 119.775 13.5908C119.789 13.5755 119.806 13.5632 119.826 13.5548C119.845 13.5463 119.865 13.5419 119.886 13.5417H120.582C120.626 13.542 120.668 13.5596 120.699 13.5908C120.73 13.6219 120.748 13.664 120.748 13.708V14.3253C120.754 14.5504 120.698 14.7728 120.586 14.9682C120.481 15.1467 120.326 15.29 120.14 15.3801C119.948 15.4744 119.737 15.5222 119.524 15.5196C119.32 15.521 119.118 15.4711 118.939 15.3745C118.759 15.2826 118.605 15.1462 118.492 14.9783C118.384 14.8103 118.323 14.6164 118.316 14.4168Z" fill="#292945"/>
<path d="M121.317 14.4358C121.315 14.4112 121.318 14.3865 121.326 14.3631C121.333 14.3397 121.346 14.3181 121.362 14.2996C121.394 14.2607 121.439 14.2358 121.489 14.2304C121.54 14.2264 121.59 14.2424 121.629 14.275C121.648 14.2902 121.664 14.3095 121.676 14.3314C121.687 14.3534 121.693 14.3776 121.695 14.4023C121.708 14.6141 121.801 14.8133 121.954 14.9604C122.03 15.0338 122.119 15.0913 122.218 15.1296C122.316 15.168 122.422 15.1863 122.527 15.1836C122.683 15.1865 122.837 15.148 122.974 15.072C123.09 15.007 123.188 14.9122 123.256 14.7973C123.324 14.6824 123.36 14.5515 123.361 14.4179C123.365 14.3022 123.329 14.1886 123.261 14.0953C123.186 14.0011 123.092 13.9248 122.984 13.8721C122.83 13.7974 122.671 13.7343 122.508 13.6835C122.317 13.6216 122.131 13.547 121.95 13.4602C121.798 13.3867 121.665 13.2794 121.561 13.1466C121.452 13.0034 121.396 12.8272 121.402 12.6476C121.397 12.4536 121.452 12.2627 121.561 12.1018C121.664 11.952 121.808 11.834 121.975 11.7614C122.146 11.6864 122.331 11.6484 122.518 11.6497C122.782 11.6425 123.041 11.7247 123.252 11.883C123.456 12.039 123.593 12.2675 123.635 12.5215C123.639 12.5485 123.638 12.5763 123.631 12.6029C123.624 12.6295 123.612 12.6543 123.594 12.6755C123.578 12.6982 123.557 12.7166 123.532 12.7291C123.508 12.7416 123.48 12.7477 123.453 12.747C123.409 12.7477 123.366 12.7318 123.333 12.7023C123.299 12.6741 123.275 12.6345 123.267 12.5907C123.238 12.4145 123.147 12.2548 123.009 12.1413C122.871 12.0278 122.697 11.9681 122.518 11.9734C122.375 11.9689 122.234 12.0028 122.109 12.0717C122.004 12.1296 121.917 12.2164 121.86 12.3217C121.806 12.4206 121.778 12.5316 121.778 12.6443C121.775 12.7587 121.808 12.8712 121.874 12.9646C121.945 13.0601 122.038 13.1368 122.146 13.1879C122.299 13.2617 122.458 13.324 122.621 13.3743C122.812 13.4366 122.998 13.5112 123.179 13.5975C123.33 13.6707 123.461 13.7768 123.565 13.9078C123.679 14.0535 123.737 14.2346 123.729 14.419C123.731 14.6164 123.676 14.8102 123.571 14.9771C123.464 15.1444 123.313 15.2788 123.134 15.3656C122.943 15.4609 122.73 15.5087 122.516 15.5051C122.311 15.5081 122.108 15.4622 121.923 15.3712C121.751 15.2844 121.604 15.1544 121.497 14.9939C121.392 14.8254 121.331 14.6337 121.317 14.4358Z" fill="#292945"/>
<path d="M124.381 15.2686V11.92C124.381 11.8943 124.386 11.8689 124.397 11.8455C124.407 11.8222 124.423 11.8015 124.443 11.7849C124.46 11.7673 124.481 11.7534 124.504 11.7441C124.527 11.7347 124.552 11.73 124.577 11.7302C124.601 11.7303 124.625 11.7352 124.647 11.7446C124.669 11.754 124.689 11.7677 124.706 11.7849C124.725 11.8015 124.739 11.8219 124.749 11.8446C124.759 11.8673 124.764 11.8919 124.763 11.9166V13.4291H126.437V11.92C126.437 11.8706 126.457 11.8231 126.492 11.7882C126.527 11.7532 126.574 11.7336 126.624 11.7336C126.674 11.7332 126.723 11.7529 126.759 11.7883C126.777 11.8051 126.791 11.8255 126.801 11.8482C126.81 11.8709 126.815 11.8954 126.815 11.92V15.2686C126.815 15.3192 126.795 15.3678 126.759 15.4036C126.723 15.4394 126.674 15.4595 126.624 15.4595C126.599 15.4599 126.575 15.4551 126.552 15.4455C126.529 15.4359 126.509 15.4216 126.492 15.4037C126.457 15.3676 126.437 15.3191 126.437 15.2686V13.7606H124.763V15.2686C124.763 15.2938 124.758 15.3188 124.749 15.342C124.739 15.3653 124.724 15.3862 124.706 15.4037C124.69 15.4213 124.669 15.4353 124.647 15.4449C124.625 15.4545 124.601 15.4594 124.577 15.4595C124.526 15.4592 124.478 15.439 124.442 15.4032C124.406 15.3675 124.386 15.3191 124.386 15.2686H124.381Z" fill="#292945"/>
<path d="M127.456 14.4068C127.439 14.1031 127.431 13.8308 127.432 13.5897C127.433 13.3486 127.441 13.0759 127.456 12.7715C127.471 12.5675 127.539 12.371 127.653 12.2011C127.765 12.0319 127.919 11.8941 128.099 11.8004C128.281 11.7051 128.484 11.6553 128.689 11.6553C128.895 11.6553 129.097 11.7051 129.279 11.8004C129.459 11.8934 129.613 12.0305 129.726 12.1989C129.84 12.3673 129.906 12.5638 129.917 12.7671C129.937 13.0416 129.947 13.3151 129.947 13.5897C129.947 13.8643 129.937 14.1377 129.917 14.4123C129.906 14.6153 129.84 14.8114 129.726 14.9794C129.613 15.1481 129.459 15.2856 129.279 15.379C129.098 15.4751 128.895 15.5246 128.69 15.523C128.483 15.5244 128.28 15.4749 128.097 15.379C127.916 15.2861 127.762 15.1476 127.651 14.9771C127.538 14.8068 127.471 14.6104 127.456 14.4068ZM129.537 14.3822C129.554 14.159 129.562 13.8966 129.562 13.5897C129.562 13.2827 129.554 13.0115 129.537 12.7961C129.528 12.6513 129.481 12.5113 129.402 12.3898C129.325 12.2677 129.219 12.1662 129.094 12.094C128.97 12.0216 128.829 11.9835 128.685 11.9835C128.542 11.9835 128.401 12.0216 128.277 12.094C128.151 12.1672 128.045 12.2694 127.968 12.392C127.89 12.5134 127.844 12.6523 127.834 12.7961C127.817 13.0893 127.809 13.3538 127.809 13.5897C127.809 13.8256 127.817 14.0897 127.834 14.3822C127.844 14.526 127.89 14.6649 127.968 14.7863C128.045 14.9095 128.151 15.0121 128.277 15.0854C128.401 15.157 128.541 15.1947 128.684 15.1947C128.827 15.1947 128.968 15.157 129.092 15.0854C129.218 15.0128 129.325 14.91 129.402 14.7863C129.479 14.6647 129.523 14.5257 129.531 14.3822H129.537Z" fill="#292945"/>
<path d="M130.53 14.3286V11.9098C130.53 11.8852 130.535 11.8608 130.545 11.8381C130.554 11.8154 130.568 11.795 130.586 11.7781C130.604 11.7607 130.625 11.7471 130.648 11.7379C130.672 11.7287 130.696 11.7242 130.721 11.7245C130.746 11.724 130.77 11.7284 130.793 11.7377C130.815 11.7469 130.836 11.7606 130.853 11.7781C130.871 11.7952 130.885 11.8157 130.894 11.8383C130.903 11.861 130.908 11.8853 130.908 11.9098V14.3286C130.907 14.477 130.946 14.623 131.019 14.7517C131.092 14.8812 131.196 14.9899 131.323 15.0676C131.448 15.1449 131.593 15.1858 131.74 15.1858C131.888 15.1858 132.032 15.1449 132.158 15.0676C132.285 14.9903 132.39 14.8818 132.463 14.7525C132.537 14.6232 132.575 14.4773 132.576 14.3286V11.9098C132.576 11.8853 132.581 11.861 132.59 11.8383C132.599 11.8156 132.613 11.795 132.63 11.7777C132.648 11.7605 132.669 11.7468 132.691 11.7377C132.714 11.7286 132.738 11.7241 132.763 11.7245C132.788 11.7242 132.812 11.7287 132.835 11.7379C132.858 11.7471 132.879 11.7608 132.897 11.7781C132.915 11.7948 132.93 11.8152 132.939 11.8379C132.949 11.8606 132.954 11.8851 132.954 11.9098V14.3286C132.956 14.5398 132.899 14.7474 132.79 14.928C132.681 15.1077 132.527 15.2555 132.343 15.3567C132.157 15.4591 131.948 15.5129 131.735 15.5129C131.522 15.5129 131.313 15.4591 131.127 15.3567C130.944 15.2556 130.792 15.1076 130.687 14.928C130.581 14.7464 130.526 14.539 130.53 14.3286Z" fill="#292945"/>
<path d="M134.446 15.2584V13.919L133.354 12.0081C133.338 11.98 133.329 11.948 133.33 11.9154C133.33 11.8811 133.338 11.8474 133.354 11.8172C133.371 11.7885 133.395 11.7649 133.424 11.7491C133.452 11.7336 133.484 11.7252 133.516 11.7245C133.55 11.723 133.584 11.7314 133.614 11.7486C133.643 11.7658 133.667 11.7912 133.683 11.8217L134.632 13.5797L135.587 11.8217C135.602 11.7908 135.626 11.7654 135.656 11.7491C135.684 11.7328 135.716 11.7244 135.749 11.7245C135.781 11.7252 135.813 11.7336 135.841 11.7491C135.871 11.7646 135.895 11.7882 135.911 11.8172C135.927 11.8474 135.935 11.8811 135.935 11.9154C135.936 11.948 135.927 11.98 135.911 12.0081L134.823 13.9123V15.2584C134.821 15.3084 134.8 15.3557 134.765 15.3913C134.748 15.4087 134.727 15.4224 134.704 15.4316C134.682 15.4408 134.657 15.4453 134.632 15.4448C134.608 15.4454 134.584 15.4409 134.561 15.4317C134.538 15.4225 134.518 15.4087 134.501 15.3913C134.483 15.3739 134.469 15.3532 134.46 15.3304C134.451 15.3076 134.446 15.2831 134.446 15.2584Z" fill="#292945"/>
<path d="M136.609 15.2685V11.9199C136.609 11.8953 136.614 11.8708 136.623 11.8482C136.633 11.8255 136.647 11.8051 136.665 11.7882C136.701 11.7528 136.75 11.7332 136.8 11.7335C136.824 11.7336 136.848 11.7385 136.871 11.7479C136.893 11.7573 136.913 11.771 136.93 11.7882C136.948 11.8048 136.963 11.8252 136.973 11.8479C136.982 11.8706 136.987 11.8952 136.987 11.9199V15.2685C136.987 15.2937 136.982 15.3187 136.972 15.342C136.962 15.3652 136.948 15.3862 136.93 15.4036C136.913 15.4212 136.893 15.4352 136.871 15.4448C136.848 15.4544 136.825 15.4594 136.8 15.4594C136.775 15.4594 136.75 15.4545 136.727 15.4449C136.704 15.4353 136.683 15.4212 136.665 15.4035C136.648 15.3858 136.634 15.3647 136.624 15.3416C136.614 15.3184 136.609 15.2936 136.609 15.2685Z" fill="#292945"/>
</g>
<defs>
<clipPath id="clip0_19550_238659">
<rect width="188" height="81" fill="white"/>
</clipPath>
</defs>
</svg>
