<svg width="16" height="16" viewBox="0 0 16 16" fill="none" xmlns="http://www.w3.org/2000/svg">
<g clip-path="url(#clip0_19421_188263)">
<path d="M7.99998 14.6666C9.84091 14.6666 11.5076 13.9204 12.714 12.714C13.9204 11.5076 14.6666 9.84091 14.6666 7.99998C14.6666 6.15905 13.9204 4.49238 12.714 3.28593C11.5076 2.07951 9.84091 1.33331 7.99998 1.33331C6.15905 1.33331 4.49238 2.07951 3.28593 3.28593C2.07951 4.49238 1.33331 6.15905 1.33331 7.99998C1.33331 9.84091 2.07951 11.5076 3.28593 12.714C4.49238 13.9204 6.15905 14.6666 7.99998 14.6666Z" stroke="#292945" stroke-width="1.33" stroke-linejoin="round"/>
<path d="M8 9.54158V8.20825C9.10457 8.20825 10 7.31282 10 6.20825C10 5.10369 9.10457 4.20825 8 4.20825C6.89543 4.20825 6 5.10369 6 6.20825" stroke="#20C38C" stroke-width="1.33" stroke-linecap="round" stroke-linejoin="round"/>
<path fill-rule="evenodd" clip-rule="evenodd" d="M8.00002 12.5416C8.46025 12.5416 8.83335 12.1685 8.83335 11.7083C8.83335 11.248 8.46025 10.8749 8.00002 10.8749C7.53979 10.8749 7.16669 11.248 7.16669 11.7083C7.16669 12.1685 7.53979 12.5416 8.00002 12.5416Z" fill="#20C38C"/>
</g>
<defs>
<clipPath id="clip0_19421_188263">
<rect width="16" height="16" fill="white"/>
</clipPath>
</defs>
</svg>
