<svg xmlns="http://www.w3.org/2000/svg" xmlns:xlink="http://www.w3.org/1999/xlink" viewBox="0 0 60 60"><defs><style>.cls-1{isolation:isolate;}.cls-2{fill:#e6effc;}.cls-3{fill:#d8d6d6;}.cls-4{fill:#fff;}.cls-5{fill:#c1272d;}.cls-22,.cls-6{fill:#e25a5a;}.cls-7{fill:#bf4545;}.cls-18,.cls-22,.cls-7,.cls-8{stroke:#fff;stroke-miterlimit:10;stroke-width:0px;}.cls-17,.cls-8{fill:#c64444;}.cls-9{fill:#c4b098;}.cls-10{fill:#9b3938;}.cls-11{fill:#d8cbbb;}.cls-12{fill:#f7efd3;}.cls-13{fill:#94b8f2;}.cls-14{fill:#dcdce5;}.cls-15{fill:#e6e6e6;}.cls-16{fill:#f9f9e3;}.cls-18{fill:#a5261c;}.cls-19{fill:#821119;}.cls-20{fill:#998675;}.cls-21{fill:#c7c7d3;}.cls-23{fill:#fcfbfb;}.cls-24{fill:url(#linear-gradient);}.cls-25{fill:url(#linear-gradient-2);}.cls-26,.cls-28{opacity:0.5;}.cls-27{fill:#191818;}.cls-28{mix-blend-mode:multiply;}.cls-29{fill:url(#linear-gradient-3);}.cls-30{fill:#f2f2f2;}.cls-31{fill:url(#linear-gradient-4);}</style><linearGradient id="linear-gradient" x1="14411.06" y1="-5110.83" x2="14412.16" y2="-5110.83" gradientTransform="matrix(-0.91, 0.41, 0.41, 0.91, 15264.11, -1198.48)" gradientUnits="userSpaceOnUse"><stop offset="0" stop-color="#fcfbfb" stop-opacity="0"/><stop offset="1" stop-color="#e0e0e0"/></linearGradient><linearGradient id="linear-gradient-2" x1="14412.36" y1="-5111.25" x2="14412.65" y2="-5111.55" xlink:href="#linear-gradient"/><linearGradient id="linear-gradient-3" x1="450.97" y1="1127.48" x2="452.68" y2="1127.48" gradientTransform="translate(78.92 -1198.48) rotate(24.16)" xlink:href="#linear-gradient"/><linearGradient id="linear-gradient-4" x1="452.99" y1="1874.28" x2="453.44" y2="1873.81" gradientTransform="matrix(0.91, 0.41, -0.31, 0.69, 198.17, -1464.27)" xlink:href="#linear-gradient"/></defs><g class="cls-1"><g id="图层_1" data-name="图层 1"><g id="手榴弹1"><path class="cls-2" d="M38.9,36.08a1.71,1.71,0,0,1,2.74-.84,1.7,1.7,0,0,1,1.81,1.36s1.48.22,1.21,1.24-.87.91-1.61.71c0,0-.37.6-1.48.15,0,0-1.44.59-2.06-.49,0,0-1.31.24-1.28-.92S38.8,36.06,38.9,36.08Z"/><path class="cls-2" d="M38.92,36.08a.51.51,0,0,1,.6,0"/><path class="cls-3" d="M38.92,36.09a.49.49,0,0,1,.59,0s0,0,0,0a.53.53,0,0,0-.62,0s0,0,0,0Z"/><path class="cls-2" d="M38.53,36.59c.19-.29.64-.55,1-.35"/><path class="cls-3" d="M38.54,36.59c.19-.27.61-.53.94-.34,0,0,0,0,0,0a.82.82,0,0,0-1,.36s0,0,0,0Z"/><path class="cls-2" d="M38.28,37a2.12,2.12,0,0,1,1.21-.7"/><path class="cls-3" d="M38.29,37a2.08,2.08,0,0,1,1.2-.7s0,0,0,0a2,2,0,0,0-1.22.7s0,0,0,0Z"/><path class="cls-2" d="M39.81,37.45a1.14,1.14,0,0,1-.45.73"/><path class="cls-3" d="M39.8,37.45a1.18,1.18,0,0,1-.45.72s0,0,0,0a1.14,1.14,0,0,0,.45-.74s0,0,0,0Z"/><path class="cls-2" d="M39.87,37.67a1.8,1.8,0,0,1-.32.55"/><path class="cls-3" d="M39.86,37.67a2.23,2.23,0,0,1-.31.54,0,0,0,1,0,0,0,1.83,1.83,0,0,0,.33-.55s0,0,0,0Z"/><path class="cls-2" d="M39.87,37.9a.23.23,0,0,1-.16.22"/><path class="cls-3" d="M39.86,37.9a.23.23,0,0,1-.15.21s0,0,0,0a.25.25,0,0,0,.17-.23,0,0,0,0,0,0,0Z"/><path class="cls-2" d="M42.14,38.63a1,1,0,0,0,.89-.38"/><path class="cls-3" d="M42.14,38.64a1,1,0,0,0,.91-.39s0,0,0,0a.94.94,0,0,1-.88.38s0,0,0,0Z"/><path class="cls-2" d="M42.46,38.44a.63.63,0,0,0,.48-.35"/><path class="cls-3" d="M42.46,38.45a.56.56,0,0,0,.3-.12.65.65,0,0,0,.19-.24s0,0,0,0a.71.71,0,0,1-.19.23.58.58,0,0,1-.28.12s0,0,0,0Z"/><path class="cls-2" d="M42.3,38.34a1.17,1.17,0,0,0,.54-.28"/><path class="cls-3" d="M42.3,38.36a1.22,1.22,0,0,0,.55-.29s0,0,0,0a1.09,1.09,0,0,1-.53.28s0,0,0,0Z"/><path class="cls-2" d="M41.44,35.63a.75.75,0,0,1,.92,0"/><path class="cls-3" d="M41.45,35.64a.75.75,0,0,1,.91,0s0,0,0,0a.79.79,0,0,0-.94,0s0,0,0,0Z"/><path class="cls-2" d="M41.73,35.76a.39.39,0,0,1,.6,0"/><path class="cls-3" d="M41.74,35.77a.36.36,0,0,1,.29-.14.37.37,0,0,1,.29.14s0,0,0,0A.42.42,0,0,0,42,35.6a.4.4,0,0,0-.31.15s0,0,0,0Z"/><path class="cls-2" d="M42,35.85c.13,0,.29,0,.35.1"/><path class="cls-3" d="M42,35.87c.12,0,.28,0,.34.09s0,0,0,0a.31.31,0,0,0-.36-.1s0,0,0,0Z"/><path class="cls-2" d="M44.22,37.16a1.17,1.17,0,0,1,.28.8"/><path class="cls-3" d="M44.21,37.17a1.14,1.14,0,0,1,.28.79,0,0,0,0,0,0,0,1.19,1.19,0,0,0-.29-.81s0,0,0,0Z"/><path class="cls-2" d="M44.06,37.32a.5.5,0,0,1,.16.58"/><path class="cls-3" d="M44.05,37.33a.39.39,0,0,1,.17.25.65.65,0,0,1,0,.31s0,0,0,0a.62.62,0,0,0,0-.33.4.4,0,0,0-.18-.26s0,0,0,0Z"/><path class="cls-2" d="M44,37.51a.23.23,0,0,1,0,.29"/><path class="cls-3" d="M44,37.52a.24.24,0,0,1,.05.14.21.21,0,0,1-.05.13s0,0,0,0a.3.3,0,0,0,0-.15.25.25,0,0,0,0-.15,0,0,0,1,0,0,0Z"/><path class="cls-2" d="M16.09,26.75s.78-2.4,3.22-1a2,2,0,0,1,2.11,1.59s1.74.26,1.42,1.45-1,1.07-1.88.84c0,0-.44.7-1.74.17,0,0-1.68.7-2.4-.57,0,0-1.54.29-1.51-1.08S16,26.73,16.09,26.75Z"/><path class="cls-2" d="M16.12,26.75a.62.62,0,0,1,.71,0"/><path class="cls-3" d="M16.12,26.76a.62.62,0,0,1,.7,0s0,0,0,0a.65.65,0,0,0-.73,0,0,0,0,1,0,0,0Z"/><path class="cls-2" d="M15.67,27.35c.22-.34.74-.64,1.12-.41"/><path class="cls-3" d="M15.68,27.36c.22-.33.71-.64,1.1-.41,0,0,0,0,0,0a.92.92,0,0,0-1.14.41s0,0,0,0Z"/><path class="cls-2" d="M15.37,27.8A2.51,2.51,0,0,1,16.79,27"/><path class="cls-3" d="M15.38,27.8A2.49,2.49,0,0,1,16.79,27s0,0,0,0a2.46,2.46,0,0,0-1.43.83s0,0,0,0Z"/><path class="cls-2" d="M17.16,28.36a1.37,1.37,0,0,1-.52.86"/><path class="cls-3" d="M17.15,28.36a1.41,1.41,0,0,1-.52.85s0,0,0,0a1.48,1.48,0,0,0,.53-.87,0,0,0,0,0,0,0Z"/><path class="cls-2" d="M17.24,28.62a2.31,2.31,0,0,1-.38.64"/><path class="cls-3" d="M17.22,28.62a1.84,1.84,0,0,1-.37.63s0,0,0,0a2.13,2.13,0,0,0,.38-.65s0,0,0,0Z"/><path class="cls-2" d="M17.24,28.88a.28.28,0,0,1-.19.26"/><path class="cls-3" d="M17.22,28.88a.26.26,0,0,1-.17.25s0,0,0,0a.3.3,0,0,0,.2-.28Z"/><path class="cls-2" d="M19.89,29.74a1.13,1.13,0,0,0,1.05-.45"/><path class="cls-3" d="M19.89,29.76A1.15,1.15,0,0,0,21,29.3a0,0,0,1,0,0,0,1.12,1.12,0,0,1-1,.44s0,0,0,0Z"/><path class="cls-2" d="M20.27,29.52a.73.73,0,0,0,.56-.41"/><path class="cls-3" d="M20.27,29.53a.69.69,0,0,0,.34-.14.7.7,0,0,0,.23-.28,0,0,0,1,0,0,0,.75.75,0,0,1-.23.27.65.65,0,0,1-.33.14s0,0,0,0Z"/><path class="cls-2" d="M20.08,29.41a1.37,1.37,0,0,0,.64-.34"/><path class="cls-3" d="M20.08,29.42a1.46,1.46,0,0,0,.65-.34s0,0,0,0a1.33,1.33,0,0,1-.63.33s0,0,0,0Z"/><path class="cls-2" d="M19.07,26.23a.9.9,0,0,1,1.09,0"/><path class="cls-3" d="M19.08,26.24a.9.9,0,0,1,1.07,0,0,0,0,1,0,0,0,.91.91,0,0,0-1.1,0s0,0,0,0Z"/><path class="cls-2" d="M19.41,26.38a.45.45,0,0,1,.71,0"/><path class="cls-3" d="M19.42,26.39a.42.42,0,0,1,.34-.17.44.44,0,0,1,.35.17s0,0,0,0a.49.49,0,0,0-.37-.18.47.47,0,0,0-.36.18s0,0,0,0Z"/><path class="cls-2" d="M19.71,26.49a.34.34,0,0,1,.41.11"/><path class="cls-3" d="M19.71,26.5c.14,0,.32,0,.4.11s0,0,0,0-.28-.15-.43-.11,0,0,0,0Z"/><path class="cls-2" d="M22.33,28a1.4,1.4,0,0,1,.33.94"/><path class="cls-3" d="M22.32,28a1.36,1.36,0,0,1,.33.93h0a1.38,1.38,0,0,0-.35-.95,0,0,0,1,0,0,0Z"/><path class="cls-2" d="M22.14,28.21a.58.58,0,0,1,.19.67"/><path class="cls-3" d="M22.13,28.22a.5.5,0,0,1,.2.29.67.67,0,0,1,0,.37s0,0,0,0a.87.87,0,0,0,0-.39.5.5,0,0,0-.21-.3s0,0,0,0Z"/><path class="cls-2" d="M22.06,28.43a.27.27,0,0,1,0,.34"/><path class="cls-3" d="M22.05,28.44a.31.31,0,0,1,.06.16.28.28,0,0,1-.06.16s0,0,0,0a.37.37,0,0,0,.05-.18.34.34,0,0,0-.05-.17s0,0,0,0Z"/><polygon class="cls-4" points="30.58 8.38 30.56 2.96 30.75 2.96 30.77 8.38 30.58 8.38"/><path class="cls-5" d="M31.34,3.62c.26.21.25.12.78.46a5.14,5.14,0,0,1,.72.5,3.47,3.47,0,0,0,.41.36,1.59,1.59,0,0,0,.68.24,2.47,2.47,0,0,0-.19.53,1.94,1.94,0,0,0-.1.74,1.58,1.58,0,0,0,.06.4c0,.11.14.44.1.33h0l-.43-.1C33,7,33,6.77,32.71,6.6s-.54,0-.84-.21-.16-.36-.46-.58a2.23,2.23,0,0,0-.64-.29h0L30.69,3h0A4,4,0,0,0,31.34,3.62Z"/><line class="cls-6" x1="27.83" y1="48.63" x2="28.67" y2="48.15"/><polygon class="cls-6" points="30.64 20.67 30.64 52.52 20.79 46.83 20.79 27.48 21.02 27.62 21.02 26.23 20.79 26.08 20.79 26.07 20.79 14.98 30.64 20.67"/><polygon class="cls-7" points="27.83 20.33 27.83 51.68 22.16 48.4 22.16 17.05 27.83 20.33"/><polygon class="cls-8" points="22.16 17.02 23 16.83 28.67 20.12 27.83 20.31 22.16 17.02"/><polygon class="cls-9" points="21.33 26.08 21.26 26.13 21.02 26.27 20.79 26.12 20.79 26.12 20.31 25.82 20.05 25.65 20.31 25.5 20.37 25.46 20.79 25.73 20.79 25.73 21.26 26.04 21.33 26.08"/><polygon class="cls-10" points="27.83 51.68 28.7 51.34 28.67 20.12 27.83 20.31 27.83 51.68"/><polygon class="cls-11" points="28.67 44.95 27.83 45.47 27.83 50.9 28.67 50.44 28.67 44.95"/><polygon class="cls-4" points="20.8 42.86 22.76 44 22.53 44.12 20.55 43.01 20.8 42.86"/><polyline class="cls-9" points="20.55 43.01 20.55 43.31 22.51 44.42 22.53 44.12 20.55 43.01"/><polygon class="cls-4" points="20.8 44.11 22.76 45.25 22.53 45.37 20.55 44.26 20.8 44.11"/><polyline class="cls-9" points="20.55 44.26 20.55 44.56 22.51 45.67 22.53 45.37 20.55 44.26"/><polygon class="cls-4" points="20.8 45.35 22.76 46.49 22.53 46.61 20.55 45.5 20.8 45.35"/><polyline class="cls-9" points="20.55 45.5 20.55 45.8 22.51 46.91 22.53 46.61 20.55 45.5"/><polygon class="cls-12" points="22.16 42.23 27.83 45.47 27.83 50.9 22.16 47.62 22.16 42.23"/><path class="cls-13" d="M23.27,44.26v.06l0,0v0Z"/><path class="cls-13" d="M23.31,44.34l0,0h0Z"/><path class="cls-13" d="M23.27,44.32v1.16l-.48-.28v-.37C22.83,44.42,23,44.21,23.27,44.32Z"/><polygon class="cls-13" points="23.07 45.48 23.07 47.29 22.79 47.13 22.79 45.32 23.07 45.48"/><polygon class="cls-13" points="23.52 45.73 23.52 47.55 23.14 47.33 23.14 45.51 23.52 45.73"/><polygon class="cls-13" points="23.83 45.91 23.83 47.73 23.58 47.59 23.58 45.77 23.83 45.91"/><path class="cls-13" d="M23.37,44.37h0V44.3l0,0Z"/><path class="cls-13" d="M23.83,45.55v.25l-.49-.28V44.36a1.51,1.51,0,0,1,.48,1.06S23.83,45.51,23.83,45.55Z"/><path class="cls-4" d="M23.24,44.25v0l0,0v-.06Zm0,.07h0l0,0Zm.07,0v.06h0v0Zm-.07,0h0l0,0Z"/><path class="cls-4" d="M23.89,45.45a1.76,1.76,0,0,0-.52-1.18v-.13l-.13-.07v.12c-.26-.1-.48.14-.51.59v2.43l1.16.67V45.45Zm-.55-1.15,0,0v0h0Zm-.55.53c0-.41.24-.62.48-.51h0l0,0v0h0l0,0,0,0v.06l0,0,0,0v1.16l-.48-.28Zm.28,2.46-.28-.16V45.32l.28.16Zm.45.26-.38-.22V45.51l.38.22Zm.31.18-.25-.15V45.77l.25.14Zm-.49-2.21V44.36a1.51,1.51,0,0,1,.48,1.06s0,.09,0,.13v.25Z"/><path class="cls-4" d="M23.31,44.34l0,0h0Z"/><path class="cls-4" d="M23.31,44.28l0,0h0Z"/><path class="cls-4" d="M23.27,44.26v.06l0,0v0Z"/><path class="cls-4" d="M23.31,44.28l0,0h0Z"/><path class="cls-4" d="M23.37,44.32v0h0V44.3Z"/><path class="cls-13" d="M24.86,45.14v.06l0,0v-.05Z"/><path class="cls-13" d="M24.89,45.21h0Z"/><path class="cls-13" d="M24.86,45.2v1.16l-.48-.28V45.7C24.41,45.29,24.62,45.08,24.86,45.2Z"/><polygon class="cls-13" points="24.66 46.35 24.66 48.17 24.38 48.01 24.38 46.19 24.66 46.35"/><polygon class="cls-13" points="25.1 46.61 25.1 48.42 24.72 48.2 24.72 46.39 25.1 46.61"/><polygon class="cls-13" points="25.41 46.79 25.41 48.6 25.17 48.46 25.17 46.65 25.41 46.79"/><path class="cls-13" d="M25,45.25l0,0v0l0,0Z"/><path class="cls-13" d="M25.41,46.43v.24l-.48-.28V45.23a1.58,1.58,0,0,1,.48,1.07Z"/><path class="cls-4" d="M24.83,45.12v.05l0,0v-.06Zm0,.08Zm.07,0v0l0,0v0Zm-.07,0h0l0,0Z"/><path class="cls-4" d="M25.47,46.32A1.73,1.73,0,0,0,25,45.14V45l-.13-.08v.13c-.27-.1-.48.14-.51.58v2.43l1.17.68v-2.3A.71.71,0,0,0,25.47,46.32Zm-.54-1.14,0,0v0l0,0Zm-.55.52c0-.41.24-.62.48-.5h0l0,0v-.05l0,0h0l0,0,0,0v.06h0v1.16l-.48-.28Zm.28,2.47L24.38,48V46.19l.28.16Zm.44.25-.38-.22V46.39l.38.22Zm.31.18-.24-.14V46.65l.24.14Zm-.48-2.21V45.23a1.58,1.58,0,0,1,.48,1.07v.37Z"/><path class="cls-4" d="M24.89,45.21h0Z"/><path class="cls-4" d="M24.89,45.16l0,0h0Z"/><path class="cls-4" d="M24.86,45.14v.06l0,0v-.05Z"/><path class="cls-4" d="M24.89,45.16l0,0h0Z"/><path class="cls-4" d="M25,45.2v0l0,0v0Z"/><path class="cls-13" d="M26.38,46v0l0,0v-.05Z"/><path class="cls-13" d="M26.41,46l0,0h0Z"/><path class="cls-13" d="M26.38,46v1.16l-.48-.28v-.37C25.93,46.11,26.13,45.9,26.38,46Z"/><polygon class="cls-13" points="26.17 47.17 26.17 48.98 25.89 48.82 25.89 47.01 26.17 47.17"/><polygon class="cls-13" points="26.62 47.43 26.62 49.24 26.24 49.02 26.24 47.21 26.62 47.43"/><polygon class="cls-13" points="26.93 47.6 26.93 49.42 26.68 49.28 26.68 47.46 26.93 47.6"/><path class="cls-13" d="M26.47,46.07l0,0V46l0,0Z"/><path class="cls-13" d="M26.93,47.24v.25l-.49-.28V46.05a1.5,1.5,0,0,1,.48,1.07A.49.49,0,0,1,26.93,47.24Z"/><path class="cls-4" d="M26.34,45.94V46l0,0v0Zm0,.07h0l0,0Zm.06,0v.06l0,0v0Zm-.06,0h0Z"/><path class="cls-4" d="M27,47.14A1.78,1.78,0,0,0,26.47,46v-.12l-.13-.08v.12c-.26-.09-.47.14-.51.59V48.9l1.16.67V47.14ZM26.44,46l0,0v0l0,0Zm-.54.53c0-.41.23-.62.48-.51h0l0,0v-.05l0,0h0l0,0h0v0l0,0,0,0v1.16l-.48-.28ZM26.17,49l-.27-.16V47l.27.16Zm.45.26L26.24,49V47.21l.38.22Zm.31.18-.25-.14V47.46l.25.15Zm-.49-2.21V46.05a1.5,1.5,0,0,1,.48,1.07.49.49,0,0,1,0,.12v.25Z"/><path class="cls-4" d="M26.41,46l0,0h0Z"/><path class="cls-4" d="M26.41,46h0Z"/><path class="cls-4" d="M26.38,46v0l0,0v-.05Z"/><path class="cls-4" d="M26.41,46h0Z"/><path class="cls-4" d="M26.47,46v0l0,0V46Z"/><path class="cls-13" d="M23.27,38.44v.06l0,0v0Z"/><path class="cls-13" d="M23.31,38.52l0,0h0Z"/><path class="cls-13" d="M23.27,38.5v1.16l-.48-.28V39C22.83,38.6,23,38.39,23.27,38.5Z"/><polygon class="cls-13" points="23.07 39.66 23.07 41.47 22.79 41.31 22.79 39.5 23.07 39.66"/><polygon class="cls-13" points="23.52 39.91 23.52 41.73 23.14 41.51 23.14 39.7 23.52 39.91"/><polygon class="cls-13" points="23.83 40.09 23.83 41.91 23.58 41.77 23.58 39.95 23.83 40.09"/><path class="cls-13" d="M23.37,38.56l0,0v-.06l0,0Z"/><path class="cls-13" d="M23.83,39.73V40l-.49-.28V38.54a1.51,1.51,0,0,1,.48,1.06S23.83,39.69,23.83,39.73Z"/><path class="cls-4" d="M23.24,38.43v0l0,0v-.06Zm0,.07h0l0,0Zm.07,0v.06l0,0V38.5Zm-.07,0h0l0,0Z"/><path class="cls-4" d="M23.89,39.63a1.78,1.78,0,0,0-.52-1.18v-.13l-.13-.07v.12c-.26-.09-.48.14-.51.59v2.43l1.16.67V39.63Zm-.55-1.15,0,0v.06l0,0Zm-.55.53c0-.41.24-.62.48-.51h0l0,0v0h0l0,0,0,0v.06l0,0,0,0v1.16l-.48-.28Zm.28,2.46-.28-.16V39.5l.28.16Zm.45.26-.38-.22V39.7l.38.21Zm.31.18-.25-.14V40l.25.14Zm-.49-2.21V38.54a1.51,1.51,0,0,1,.48,1.06s0,.09,0,.13V40Z"/><path class="cls-4" d="M23.31,38.52l0,0h0Z"/><path class="cls-4" d="M23.31,38.46l0,0h0Z"/><path class="cls-4" d="M23.27,38.44v.06l0,0v0Z"/><path class="cls-4" d="M23.31,38.46l0,0h0Z"/><path class="cls-4" d="M23.37,38.5v.06l0,0v-.06Z"/><path class="cls-13" d="M24.86,39.32v.06l0,0v0Z"/><path class="cls-13" d="M24.89,39.4l0,0h0Z"/><path class="cls-13" d="M24.86,39.38v1.16l-.48-.28v-.38C24.41,39.47,24.62,39.26,24.86,39.38Z"/><polygon class="cls-13" points="24.66 40.53 24.66 42.35 24.38 42.19 24.38 40.37 24.66 40.53"/><polygon class="cls-13" points="25.1 40.79 25.1 42.6 24.72 42.39 24.72 40.57 25.1 40.79"/><polygon class="cls-13" points="25.41 40.97 25.41 42.78 25.17 42.64 25.17 40.83 25.41 40.97"/><path class="cls-13" d="M25,39.43l0,0v0l0,0Z"/><path class="cls-13" d="M25.41,40.61v.25l-.48-.29V39.42a1.53,1.53,0,0,1,.48,1.06Z"/><path class="cls-4" d="M24.83,39.31v0l0,0v-.06Zm0,.07h0l0,0Zm.07,0v0l0,0v0Zm-.07,0h0l0,0Z"/><path class="cls-4" d="M25.47,40.5A1.73,1.73,0,0,0,25,39.32V39.2l-.13-.07v.12c-.27-.1-.48.14-.51.58v2.44l1.17.67v-2.3A.71.71,0,0,0,25.47,40.5Zm-.54-1.14,0,0v0l0,0Zm-.55.52c0-.41.24-.62.48-.5h0l0,0v0h0l0,0,0,0v.06l0,0,0,0v1.16l-.48-.28Zm.28,2.47-.28-.16V40.37l.28.16Zm.44.25-.38-.21V40.57l.38.22Zm.31.18-.24-.14V40.83l.24.14Zm-.48-2.21V39.42a1.53,1.53,0,0,1,.48,1.06v.38Z"/><path class="cls-4" d="M24.89,39.4l0,0h0Z"/><path class="cls-4" d="M24.89,39.34l0,0h0Z"/><path class="cls-4" d="M24.86,39.32v.06l0,0v0Z"/><path class="cls-4" d="M24.89,39.34l0,0h0Z"/><path class="cls-4" d="M25,39.38v0l0,0v0Z"/><path class="cls-13" d="M26.38,40.14v0l0,0v-.05Z"/><path class="cls-13" d="M26.41,40.21h0Z"/><path class="cls-13" d="M26.38,40.2v1.15l-.48-.27V40.7C25.93,40.29,26.13,40.08,26.38,40.2Z"/><polygon class="cls-13" points="26.17 41.35 26.17 43.16 25.89 43.01 25.89 41.19 26.17 41.35"/><polygon class="cls-13" points="26.62 41.61 26.62 43.42 26.24 43.2 26.24 41.39 26.62 41.61"/><polygon class="cls-13" points="26.93 41.79 26.93 43.6 26.68 43.46 26.68 41.65 26.93 41.79"/><path class="cls-13" d="M26.47,40.25l0,0v0l0,0Z"/><path class="cls-13" d="M26.93,41.42v.25l-.49-.28V40.23a1.5,1.5,0,0,1,.48,1.07A.49.49,0,0,1,26.93,41.42Z"/><path class="cls-4" d="M26.34,40.12v.05l0,0v0Zm0,.07h0Zm.06,0v0l0,0v0Zm-.06,0Z"/><path class="cls-4" d="M27,41.32a1.78,1.78,0,0,0-.52-1.18V40l-.13-.08v.13c-.26-.1-.47.14-.51.58v2.43l1.16.67V41.32Zm-.55-1.14,0,0v0l0,0Zm-.54.52c0-.41.23-.62.48-.5h0l0,0v-.05l0,0h0v0l0,0h0v1.15l-.48-.27Zm.27,2.46L25.9,43V41.19l.27.16Zm.45.26-.38-.22V41.39l.38.22Zm.31.18-.25-.14V41.64l.25.15Zm-.49-2.21V40.23a1.5,1.5,0,0,1,.48,1.07.49.49,0,0,1,0,.12v.25Z"/><path class="cls-4" d="M26.41,40.21h0Z"/><path class="cls-4" d="M26.41,40.15h0Z"/><path class="cls-4" d="M26.38,40.14v0l0,0v-.05Z"/><path class="cls-4" d="M26.41,40.15h0Z"/><path class="cls-4" d="M26.47,40.2v0l0,0v0Z"/><path class="cls-13" d="M24.75,25.63v0h0v0Z"/><path class="cls-13" d="M24.77,25.69l0,0h0Z"/><path class="cls-13" d="M24.75,25.67v.85l-.35-.2V26C24.42,25.74,24.57,25.59,24.75,25.67Z"/><polygon class="cls-13" points="24.6 26.52 24.6 27.84 24.39 27.72 24.39 26.4 24.6 26.52"/><polygon class="cls-13" points="24.92 26.7 24.92 28.03 24.64 27.87 24.64 26.54 24.92 26.7"/><polygon class="cls-13" points="25.15 26.84 25.15 28.16 24.97 28.05 24.97 26.73 25.15 26.84"/><path class="cls-13" d="M24.82,25.71h0v0h0Z"/><path class="cls-13" d="M25.15,26.57v.18l-.36-.2V25.7a1.13,1.13,0,0,1,.36.78Z"/><path class="cls-4" d="M24.72,25.62v0h0v0Zm0,.05h0l0,0Zm0,0v0h0v0Zm0,0Z"/><path class="cls-4" d="M25.19,26.49a1.28,1.28,0,0,0-.37-.86v-.09l-.1-.05v.09c-.19-.07-.35.1-.37.43v1.77l.85.49V26.6A.41.41,0,0,0,25.19,26.49Zm-.4-.83h0v0h0ZM24.4,26c0-.3.17-.45.35-.37h0v0h0v0l0,0,0,0v.85l-.35-.2Zm.2,1.8-.2-.12V26.4l.2.12Zm.32.19-.27-.16V26.54l.27.16Zm.23.13-.18-.1V26.73l.18.1Zm-.36-1.61V25.7a1.13,1.13,0,0,1,.36.78v.27Z"/><path class="cls-4" d="M24.77,25.69l0,0h0Z"/><path class="cls-4" d="M24.77,25.64h0Z"/><path class="cls-4" d="M24.75,25.63v0h0v0Z"/><path class="cls-4" d="M24.77,25.64h0Z"/><path class="cls-4" d="M24.82,25.67v0h0v0Z"/><path class="cls-13" d="M24.75,22.71v0l0,0v0Z"/><path class="cls-13" d="M24.77,22.76h0Z"/><path class="cls-13" d="M24.75,22.75v.84l-.35-.2v-.27C24.42,22.82,24.57,22.66,24.75,22.75Z"/><polygon class="cls-13" points="24.6 23.59 24.6 24.91 24.39 24.8 24.39 23.47 24.6 23.59"/><polygon class="cls-13" points="24.92 23.78 24.92 25.1 24.64 24.94 24.64 23.62 24.92 23.78"/><polygon class="cls-13" points="25.15 23.91 25.15 25.23 24.97 25.13 24.97 23.8 25.15 23.91"/><path class="cls-13" d="M24.82,22.79l0,0v0l0,0Z"/><path class="cls-13" d="M25.15,23.64v.19l-.36-.21v-.85a1.15,1.15,0,0,1,.36.78Z"/><path class="cls-4" d="M24.72,22.69v0l0,0v0Zm0,.06Zm0,0v0l0,0v0Zm0,0h0Z"/><path class="cls-4" d="M25.19,23.57a1.23,1.23,0,0,0-.37-.86v-.09l-.1-.06v.09c-.19-.07-.35.1-.37.43v1.77l.85.49V23.67A.34.34,0,0,0,25.19,23.57Zm-.4-.84,0,0v0l0,0Zm-.39.39c0-.3.17-.46.35-.37h0l0,0v0l0,0h0l0,0h0v0h0v.84l-.35-.2Zm.2,1.79-.2-.11V23.47l.2.12Zm.32.19-.27-.16V23.62l.27.16Zm.23.13-.18-.1V23.81l.18.1Zm-.36-1.61v-.85a1.15,1.15,0,0,1,.36.78v.28Z"/><path class="cls-4" d="M24.77,22.76h0Z"/><path class="cls-4" d="M24.77,22.72h0Z"/><path class="cls-4" d="M24.75,22.71v0l0,0v0Z"/><path class="cls-4" d="M24.77,22.72h0Z"/><path class="cls-4" d="M24.82,22.75v0l0,0v0Z"/><path class="cls-13" d="M24.75,19.78v0h0v0Z"/><path class="cls-13" d="M24.77,19.83h0Z"/><path class="cls-13" d="M24.75,19.82v.85l-.35-.21v-.27C24.42,19.89,24.57,19.74,24.75,19.82Z"/><polygon class="cls-13" points="24.6 20.66 24.6 21.99 24.39 21.87 24.39 20.55 24.6 20.66"/><polygon class="cls-13" points="24.92 20.85 24.92 22.18 24.64 22.02 24.64 20.69 24.92 20.85"/><polygon class="cls-13" points="25.15 20.98 25.15 22.31 24.97 22.2 24.97 20.88 25.15 20.98"/><path class="cls-13" d="M24.82,19.86h0v0h0Z"/><path class="cls-13" d="M25.15,20.72v.18l-.36-.21v-.84a1.13,1.13,0,0,1,.36.78Z"/><path class="cls-4" d="M24.72,19.77v0h0v0Zm0,.05Zm0,0v0h0v0Zm0,0Z"/><path class="cls-4" d="M25.19,20.64a1.26,1.26,0,0,0-.37-.86v-.09l-.1-.05v.09c-.19-.07-.35.1-.37.42v1.78l.85.49V20.75A.41.41,0,0,0,25.19,20.64Zm-.4-.83h0v0h0Zm-.39.38c0-.3.17-.45.35-.37h0v0h0v0h0v.85l-.35-.21Zm.2,1.8-.2-.12V20.55l.2.12Zm.32.19L24.65,22V20.69l.27.16Zm.23.13L25,22.2V20.88l.18.1Zm-.36-1.62v-.84a1.13,1.13,0,0,1,.36.78v.27Z"/><path class="cls-4" d="M24.77,19.83h0Z"/><path class="cls-4" d="M24.77,19.79h0Z"/><path class="cls-4" d="M24.75,19.78v0h0v0Z"/><path class="cls-4" d="M24.77,19.79h0Z"/><path class="cls-4" d="M24.82,19.82v0h0v0Z"/><polygon class="cls-4" points="30.63 46.67 30.64 47.11 28.66 45.86 28.18 46.17 27.89 46.33 21.87 42.82 21.72 42.74 21.95 42.56 20.43 41.69 20.78 41.48 22.15 42.29 22.15 42.67 27.82 45.96 28.66 45.48 30.63 46.67"/><polygon class="cls-11" points="27.89 46.33 27.88 46.74 21.72 43.12 21.72 42.74 21.87 42.82 27.89 46.33"/><polygon class="cls-11" points="28.66 45.86 28.66 46.2 30.62 47.43 30.64 47.11 28.66 45.86"/><polygon class="cls-11" points="21.95 42.56 21.72 42.74 21.72 42.79 20.43 42.03 20.43 41.69 21.95 42.56"/><polyline class="cls-9" points="27.88 46.74 28.66 46.2 28.66 45.86 27.89 46.33 27.88 46.74"/><polygon class="cls-4" points="30.64 46.11 30.63 46.52 28.67 45.31 28.18 45.62 27.89 45.78 21.86 42.33 21.72 42.25 21.94 42.08 20.42 41.22 20.77 41 22.14 41.8 22.14 42.18 27.83 45.42 28.67 44.93 30.64 46.11"/><polygon class="cls-11" points="27.89 45.78 27.88 46.2 21.72 42.63 21.72 42.25 21.86 42.33 27.89 45.78"/><polygon class="cls-11" points="28.67 45.31 28.67 45.65 30.63 46.87 30.63 46.52 28.67 45.31"/><polygon class="cls-11" points="21.94 42.08 21.72 42.25 21.72 42.3 20.42 41.56 20.42 41.22 21.94 42.08"/><polyline class="cls-9" points="27.88 46.2 28.67 45.65 28.67 45.31 27.89 45.78 27.88 46.2"/><polygon class="cls-11" points="26.27 38.9 23.14 37.09 23.14 36.94 26.27 38.74 26.27 38.9"/><polygon class="cls-13" points="26.13 38.14 24.93 37.45 24.93 34.62 26.13 35.31 26.13 38.14"/><path class="cls-14" d="M26.17,38.21l-1.27-.74V34.54l1.27.74ZM25,37.42l1.13.64V35.33L25,34.69Z"/><polygon class="cls-14" points="25.28 37.64 25.2 37.6 25.2 34.77 25.28 34.81 25.28 37.64"/><polygon class="cls-14" points="25.88 37.99 25.8 37.94 25.8 35.11 25.88 35.16 25.88 37.99"/><polygon class="cls-14" points="26.13 36.77 24.93 36.08 24.93 35.98 26.13 36.67 26.13 36.77"/><polygon class="cls-13" points="24.52 37.2 23.32 36.51 23.32 33.68 24.52 34.37 24.52 37.2"/><path class="cls-14" d="M24.55,37.28l-1.27-.74V33.61l1.27.74Zm-1.19-.79,1.12.64V34.4l-1.12-.64Z"/><polygon class="cls-14" points="23.66 36.71 23.59 36.67 23.59 33.84 23.66 33.88 23.66 36.71"/><polygon class="cls-14" points="24.26 37.06 24.18 37.01 24.18 34.18 24.26 34.23 24.26 37.06"/><polygon class="cls-14" points="24.52 35.84 23.32 35.15 23.32 35.05 24.52 35.74 24.52 35.84"/><polygon class="cls-12" points="26.27 38.74 23.14 36.93 23.14 36.78 26.27 38.59 26.27 38.74"/><polygon class="cls-4" points="26.36 38.87 23.07 36.97 23.07 36.82 26.36 38.71 26.36 38.87"/><polygon class="cls-11" points="25.75 34.25 23.71 33.07 23.71 32.97 25.75 34.15 25.75 34.25"/><polygon class="cls-13" points="25.66 33.75 24.88 33.3 24.88 31.46 25.66 31.91 25.66 33.75"/><path class="cls-14" d="M25.68,33.8l-.83-.48V31.41l.83.48Zm-.78-.52.73.43V31.93l-.73-.43Z"/><polygon class="cls-14" points="25.1 33.43 25.05 33.4 25.05 31.56 25.1 31.59 25.1 33.43"/><polygon class="cls-14" points="25.49 33.66 25.44 33.63 25.44 31.78 25.49 31.81 25.49 33.66"/><polygon class="cls-14" points="25.66 32.86 24.88 32.41 24.88 32.35 25.66 32.8 25.66 32.86"/><polygon class="cls-13" points="24.61 33.15 23.82 32.7 23.82 30.85 24.61 31.3 24.61 33.15"/><path class="cls-14" d="M24.63,33.19l-.83-.48V30.8l.83.48Zm-.78-.51.73.42V31.32l-.73-.42Z"/><polygon class="cls-14" points="24.05 32.82 24 32.8 24 30.95 24.05 30.98 24.05 32.82"/><polygon class="cls-14" points="24.44 33.05 24.39 33.02 24.39 31.17 24.44 31.2 24.44 33.05"/><polygon class="cls-14" points="24.61 32.26 23.82 31.8 23.82 31.74 24.61 32.19 24.61 32.26"/><polygon class="cls-12" points="25.75 34.15 23.71 32.97 23.71 32.87 25.75 34.05 25.75 34.15"/><polygon class="cls-4" points="25.8 34.23 23.66 32.99 23.66 32.89 25.8 34.13 25.8 34.23"/><polygon class="cls-13" points="22.1 22.35 21.35 21.91 21.35 16.5 22.1 16.94 22.1 22.35"/><path class="cls-14" d="M22.12,22.38l-.79-.46V16.46l.79.47Zm-.75-.48.71.42V17l-.71-.42Z"/><polygon class="cls-14" points="22.1 17.98 21.35 17.54 21.35 17.5 22.1 17.94 22.1 17.98"/><polygon class="cls-14" points="22.1 18.57 21.35 18.13 21.35 18.08 22.1 18.53 22.1 18.57"/><polygon class="cls-14" points="22.1 21.83 21.35 21.38 21.35 21.34 22.1 21.78 22.1 21.83"/><polygon class="cls-14" points="22.1 21.24 21.35 20.8 21.35 20.76 22.1 21.2 22.1 21.24"/><polygon class="cls-14" points="22.1 20.12 21.35 19.67 21.35 19.63 22.1 20.07 22.1 20.12"/><polygon class="cls-14" points="22.1 19.5 21.35 19.06 21.35 19.02 22.1 19.46 22.1 19.5"/><polygon class="cls-14" points="21.52 22.01 21.48 21.99 21.48 16.57 21.52 16.6 21.52 22.01"/><polygon class="cls-14" points="21.96 22.27 21.92 22.25 21.92 16.83 21.96 16.85 21.96 22.27"/><polygon class="cls-13" points="22.1 26.39 21.35 25.95 21.35 20.54 22.1 20.98 22.1 26.39"/><path class="cls-14" d="M22.12,26.43,21.33,26V20.51l.79.46Zm-.75-.49.71.42V21l-.71-.42Z"/><polygon class="cls-14" points="22.1 22.03 21.35 21.59 21.35 21.54 22.1 21.98 22.1 22.03"/><polygon class="cls-14" points="22.1 22.61 21.35 22.17 21.35 22.13 22.1 22.57 22.1 22.61"/><polygon class="cls-14" points="22.1 25.87 21.35 25.43 21.35 25.38 22.1 25.82 22.1 25.87"/><polygon class="cls-14" points="22.1 25.29 21.35 24.84 21.35 24.8 22.1 25.24 22.1 25.29"/><polygon class="cls-14" points="22.1 24.16 21.35 23.72 21.35 23.67 22.1 24.12 22.1 24.16"/><polygon class="cls-14" points="22.1 23.55 21.35 23.1 21.35 23.06 22.1 23.5 22.1 23.55"/><polygon class="cls-14" points="21.52 26.05 21.48 26.03 21.48 20.62 21.52 20.64 21.52 26.05"/><polygon class="cls-14" points="21.96 26.31 21.92 26.29 21.92 20.88 21.96 20.9 21.96 26.31"/><polygon class="cls-13" points="30.03 26.39 29.28 25.95 29.28 20.54 30.03 20.98 30.03 26.39"/><path class="cls-14" d="M30.05,26.43,29.26,26V20.51l.79.46Zm-.75-.49.71.42V21l-.71-.42Z"/><polygon class="cls-14" points="30.03 22.03 29.28 21.59 29.28 21.54 30.03 21.98 30.03 22.03"/><polygon class="cls-14" points="30.03 22.61 29.28 22.17 29.28 22.13 30.03 22.57 30.03 22.61"/><polygon class="cls-14" points="30.03 25.87 29.28 25.43 29.28 25.38 30.03 25.82 30.03 25.87"/><polygon class="cls-14" points="30.03 25.29 29.28 24.84 29.28 24.8 30.03 25.24 30.03 25.29"/><polygon class="cls-14" points="30.03 24.16 29.28 23.72 29.28 23.67 30.03 24.12 30.03 24.16"/><polygon class="cls-14" points="30.03 23.55 29.28 23.1 29.28 23.06 30.03 23.5 30.03 23.55"/><polygon class="cls-14" points="29.45 26.05 29.41 26.03 29.41 20.62 29.45 20.64 29.45 26.05"/><polygon class="cls-14" points="29.89 26.31 29.85 26.29 29.85 20.88 29.89 20.9 29.89 26.31"/><polygon class="cls-13" points="30.03 30.24 29.28 29.8 29.28 24.39 30.03 24.83 30.03 30.24"/><path class="cls-14" d="M30.05,30.28l-.79-.47V24.35l.79.47Zm-.75-.49.71.42V24.84l-.71-.42Z"/><polygon class="cls-14" points="30.03 25.88 29.28 25.43 29.28 25.39 30.03 25.83 30.03 25.88"/><polygon class="cls-14" points="30.03 26.46 29.28 26.02 29.28 25.98 30.03 26.42 30.03 26.46"/><polygon class="cls-14" points="30.03 29.72 29.28 29.28 29.28 29.23 30.03 29.67 30.03 29.72"/><polygon class="cls-14" points="30.03 29.14 29.28 28.69 29.28 28.65 30.03 29.09 30.03 29.14"/><polygon class="cls-14" points="30.03 28.01 29.28 27.57 29.28 27.52 30.03 27.96 30.03 28.01"/><polygon class="cls-14" points="30.03 27.39 29.28 26.95 29.28 26.91 30.03 27.35 30.03 27.39"/><polygon class="cls-14" points="29.45 29.9 29.41 29.88 29.41 24.47 29.45 24.49 29.45 29.9"/><polygon class="cls-14" points="29.89 30.16 29.85 30.14 29.85 24.72 29.89 24.75 29.89 30.16"/><polygon class="cls-4" points="27.85 31.78 22.14 28.48 22.14 26.6 27.85 29.9 27.85 31.78"/><polygon class="cls-15" points="28.67 31.2 27.84 31.71 27.84 29.93 28.67 29.41 28.67 31.2"/><polygon class="cls-4" points="28.67 22.27 30.64 23.41 30.41 23.53 28.42 22.42 28.67 22.27"/><polyline class="cls-9" points="28.42 22.42 28.42 22.72 30.39 23.83 30.41 23.53 28.42 22.42"/><polygon class="cls-4" points="28.67 23.52 30.64 24.66 30.41 24.78 28.42 23.67 28.67 23.52"/><polyline class="cls-9" points="28.42 23.67 28.42 23.97 30.39 25.08 30.41 24.78 28.42 23.67"/><polygon class="cls-4" points="28.67 24.76 30.64 25.91 30.41 26.02 28.42 24.91 28.67 24.76"/><polyline class="cls-9" points="28.42 24.91 28.42 25.21 30.39 26.32 30.41 26.02 28.42 24.91"/><polygon class="cls-4" points="28.67 26.44 30.64 27.59 30.41 27.7 28.42 26.59 28.67 26.44"/><polyline class="cls-9" points="28.42 26.59 28.42 26.9 30.39 28 30.41 27.7 28.42 26.59"/><polygon class="cls-4" points="28.67 27.69 30.64 28.84 30.41 28.95 28.42 27.84 28.67 27.69"/><polyline class="cls-9" points="28.42 27.84 28.42 28.15 30.39 29.25 30.41 28.95 28.42 27.84"/><polygon class="cls-12" points="23.15 18.21 23.15 29.42 22.7 29.16 22.7 17.95 23.15 18.21"/><polygon class="cls-12" points="23.86 18.62 23.86 29.83 23.41 29.57 23.41 18.36 23.86 18.62"/><polygon class="cls-4" points="23.86 19.19 22.7 18.52 22.7 18.32 23.86 18.99 23.86 19.19"/><polygon class="cls-11" points="23.86 19.12 22.7 18.44 22.7 18.36 23.86 19.04 23.86 19.12"/><polygon class="cls-4" points="23.86 20.38 22.7 19.71 22.7 19.51 23.86 20.18 23.86 20.38"/><polygon class="cls-11" points="23.86 20.31 22.7 19.63 22.7 19.55 23.86 20.23 23.86 20.31"/><polygon class="cls-4" points="23.86 21.57 22.7 20.9 22.7 20.7 23.86 21.37 23.86 21.57"/><polygon class="cls-11" points="23.86 21.5 22.7 20.82 22.7 20.74 23.86 21.42 23.86 21.5"/><polygon class="cls-4" points="23.86 22.76 22.7 22.09 22.7 21.89 23.86 22.56 23.86 22.76"/><polygon class="cls-11" points="23.86 22.69 22.7 22.02 22.7 21.93 23.86 22.61 23.86 22.69"/><polygon class="cls-4" points="23.86 23.95 22.7 23.28 22.7 23.08 23.86 23.75 23.86 23.95"/><polygon class="cls-11" points="23.86 23.88 22.7 23.21 22.7 23.13 23.86 23.8 23.86 23.88"/><polygon class="cls-4" points="23.86 25.14 22.7 24.47 22.7 24.27 23.86 24.94 23.86 25.14"/><polygon class="cls-11" points="23.86 25.07 22.7 24.4 22.7 24.32 23.86 24.99 23.86 25.07"/><polygon class="cls-4" points="23.86 26.34 22.7 25.66 22.7 25.46 23.86 26.13 23.86 26.34"/><polygon class="cls-11" points="23.86 26.26 22.7 25.59 22.7 25.51 23.86 26.18 23.86 26.26"/><polygon class="cls-4" points="23.86 27.52 22.7 26.85 22.7 26.65 23.86 27.32 23.86 27.52"/><polygon class="cls-11" points="23.86 27.45 22.7 26.78 22.7 26.7 23.86 27.37 23.86 27.45"/><polygon class="cls-4" points="23.86 28.72 22.7 28.04 22.7 27.84 23.86 28.52 23.86 28.72"/><polygon class="cls-11" points="23.86 28.64 22.7 27.97 22.7 27.89 23.86 28.56 23.86 28.64"/><polygon class="cls-4" points="23.86 29.71 23.86 29.83 23.41 29.57 23.15 29.42 22.7 29.16 22.7 29.03 23.15 29.29 23.41 29.45 23.86 29.71"/><polygon class="cls-11" points="23.86 29.75 23.86 29.83 23.41 29.57 23.15 29.42 22.7 29.16 22.7 29.08 23.15 29.34 23.41 29.49 23.86 29.75"/><polygon class="cls-12" points="26.14 19.93 26.14 31.14 25.7 30.89 25.7 19.67 26.14 19.93"/><polygon class="cls-12" points="26.85 20.35 26.85 31.56 26.4 31.3 26.4 20.09 26.85 20.35"/><polygon class="cls-4" points="26.85 20.92 25.7 20.24 25.7 20.04 26.85 20.72 26.85 20.92"/><polygon class="cls-11" points="26.85 20.85 25.7 20.17 25.7 20.09 26.85 20.77 26.85 20.85"/><polygon class="cls-4" points="26.85 22.11 25.7 21.43 25.7 21.23 26.85 21.91 26.85 22.11"/><polygon class="cls-11" points="26.85 22.04 25.7 21.36 25.7 21.28 26.85 21.95 26.85 22.04"/><polygon class="cls-4" points="26.85 23.3 25.7 22.62 25.7 22.42 26.85 23.1 26.85 23.3"/><polygon class="cls-11" points="26.85 23.23 25.7 22.55 25.7 22.47 26.85 23.15 26.85 23.23"/><polygon class="cls-4" points="26.85 24.49 25.7 23.82 25.7 23.61 26.85 24.29 26.85 24.49"/><polygon class="cls-11" points="26.85 24.42 25.7 23.74 25.7 23.66 26.85 24.34 26.85 24.42"/><polygon class="cls-4" points="26.85 25.68 25.7 25 25.7 24.8 26.85 25.48 26.85 25.68"/><polygon class="cls-11" points="26.85 25.61 25.7 24.93 25.7 24.85 26.85 25.53 26.85 25.61"/><polygon class="cls-4" points="26.85 26.87 25.7 26.2 25.7 26 26.85 26.67 26.85 26.87"/><polygon class="cls-11" points="26.85 26.8 25.7 26.12 25.7 26.04 26.85 26.72 26.85 26.8"/><polygon class="cls-4" points="26.85 28.06 25.7 27.39 25.7 27.19 26.85 27.86 26.85 28.06"/><polygon class="cls-11" points="26.85 27.99 25.7 27.31 25.7 27.23 26.85 27.91 26.85 27.99"/><polygon class="cls-4" points="26.85 29.25 25.7 28.58 25.7 28.38 26.85 29.05 26.85 29.25"/><polygon class="cls-11" points="26.85 29.18 25.7 28.5 25.7 28.42 26.85 29.1 26.85 29.18"/><polygon class="cls-4" points="26.85 30.44 25.7 29.77 25.7 29.57 26.85 30.24 26.85 30.44"/><polygon class="cls-11" points="26.85 30.37 25.7 29.7 25.7 29.61 26.85 30.29 26.85 30.37"/><polygon class="cls-4" points="26.85 31.43 26.85 31.56 26.4 31.3 26.14 31.14 25.7 30.89 25.7 30.76 26.14 31.02 26.4 31.17 26.85 31.43"/><polygon class="cls-11" points="26.85 31.48 26.85 31.56 26.4 31.3 26.14 31.14 25.7 30.89 25.7 30.8 26.14 31.06 26.4 31.22 26.85 31.48"/><path class="cls-13" d="M25.05,29.32c0,.28-.15.42-.34.32a.83.83,0,0,1-.34-.69c0-.28.15-.43.34-.33A.84.84,0,0,1,25.05,29.32Z"/><path class="cls-14" d="M24.71,28.58c-.21-.11-.37.05-.37.35a.91.91,0,0,0,.37.76c.2.11.37-.05.37-.36A.93.93,0,0,0,24.71,28.58Zm0,1.06a.83.83,0,0,1-.34-.69c0-.28.15-.43.34-.33a.84.84,0,0,1,.34.7C25.05,29.6,24.9,29.74,24.71,29.64Z"/><polygon class="cls-16" points="30.67 32.71 30.2 32.42 30.2 20.98 30.66 21.26 30.67 25.54 30.66 25.55 30.66 26.72 30.66 27.25 30.66 27.25 30.66 31.01 30.67 32.71"/><polygon class="cls-16" points="30.67 26.72 30.66 26.72 30.66 25.55 30.67 25.54 30.67 26.72"/><rect class="cls-16" x="28.78" y="29.13" width="3.77" transform="translate(-10.09 40.44) rotate(-59.04)"/><polygon class="cls-11" points="30.67 26.72 30.66 26.72 30.66 25.55 30.67 25.54 30.67 26.72"/><polygon class="cls-11" points="31.14 20.96 31.14 32.42 30.67 32.71 30.66 31.01 30.67 31.01 30.66 27.25 30.66 26.72 30.67 26.72 30.67 25.54 30.66 21.26 31.14 20.96"/><rect class="cls-11" x="28.78" y="29.13" width="3.77" transform="translate(-10.09 40.44) rotate(-59.04)"/><polygon class="cls-11" points="30.67 32.71 31.14 32.42 31.14 20.98 30.68 21.26 30.67 25.54 30.68 25.55 30.68 26.72 30.68 27.25 30.68 27.25 30.67 31.01 30.67 32.71"/><polygon class="cls-16" points="30.67 26.72 30.68 26.72 30.68 25.55 30.67 25.54 30.67 26.72"/><polygon class="cls-16" points="30.2 20.96 30.2 32.42 30.67 32.71 30.67 31.01 30.67 31.01 30.68 27.25 30.68 26.72 30.67 26.72 30.67 25.54 30.68 21.26 30.2 20.96"/><rect class="cls-11" x="30.67" y="27.25" height="3.77" transform="translate(-10.62 19.93) rotate(-30.96)"/><polygon class="cls-11" points="21.26 15.27 21.18 25.98 20.79 26.12 20.79 25.3 20.8 21.54 20.79 21.53 20.8 21.01 20.8 19.84 20.79 19.83 20.8 15.54 21.26 15.27"/><polygon class="cls-16" points="20.79 21.01 20.8 21.01 20.8 19.84 20.79 19.83 20.79 21.01"/><polyline class="cls-16" points="20.31 25.82 20.31 15.25 20.8 15.54 20.79 19.83 20.79 21.01 20.8 21.01 20.79 21.53 20.79 25.3 20.79 25.3 20.79 26.12"/><rect class="cls-16" x="20.79" y="21.53" height="3.77" transform="translate(-9.09 14.03) rotate(-30.96)"/><polygon class="cls-4" points="21.02 26.27 21.02 27.67 20.79 27.53 20.59 27.41 20.41 26.82 20.31 26.52 20.05 25.65 20.31 25.82 20.79 26.12 20.79 26.12 21.02 26.27"/><polygon class="cls-4" points="22.13 19.35 22.13 19.61 21.34 19.17 21.34 19.16 20.52 18.7 19.72 18.25 19.97 18.11 20.31 17.92 20.31 18.3 20.76 18.56 20.76 18.56 22.13 19.35"/><polygon class="cls-9" points="22.13 19.61 22.13 19.92 20.51 19.01 20.51 19 19.72 18.56 19.72 18.25 20.52 18.7 20.51 18.7 21.34 19.17 22.13 19.61"/><polygon class="cls-9" points="21.34 19.16 21.34 19.17 20.51 18.7 20.52 18.7 21.34 19.16"/><polygon class="cls-4" points="22.13 20.6 22.13 20.86 21.34 20.42 21.34 20.41 20.52 19.95 19.72 19.5 19.95 19.37 19.97 19.35 20.31 19.17 20.31 19.55 20.76 19.81 20.76 19.8 22.13 20.6"/><polygon class="cls-4" points="19.97 19.35 19.95 19.37 19.95 19.37 19.97 19.35"/><polygon class="cls-9" points="22.13 20.86 22.13 21.17 20.51 20.26 20.51 20.25 19.72 19.81 19.72 19.5 20.52 19.95 20.51 19.95 21.34 20.42 22.13 20.86"/><polygon class="cls-9" points="21.34 20.41 21.34 20.42 20.51 19.95 20.52 19.95 21.34 20.41"/><polygon class="cls-4" points="22.13 21.84 22.13 22.1 21.34 21.66 21.34 21.65 20.52 21.19 19.72 20.74 19.97 20.59 19.98 20.6 20.31 20.42 20.31 20.79 20.76 21.05 20.76 21.05 22.13 21.84"/><polygon class="cls-9" points="22.13 22.1 22.13 22.41 20.51 21.5 20.51 21.49 19.72 21.05 19.72 20.74 20.52 21.19 20.51 21.2 21.34 21.66 22.13 22.1"/><polygon class="cls-9" points="21.34 21.65 21.34 21.66 20.51 21.2 20.52 21.19 21.34 21.65"/><polygon class="cls-4" points="22.13 23.52 22.13 23.78 21.34 23.34 21.34 23.33 20.52 22.87 19.72 22.43 19.97 22.28 20.31 22.08 20.31 22.48 20.76 22.73 20.76 22.73 22.13 23.52"/><polygon class="cls-9" points="22.13 23.78 22.13 24.09 20.51 23.18 20.51 23.17 19.72 22.73 19.72 22.43 20.52 22.87 20.51 22.88 21.34 23.34 22.13 23.78"/><polygon class="cls-9" points="21.34 23.33 21.34 23.34 20.51 22.88 20.52 22.87 21.34 23.33"/><polygon class="cls-9" points="22.13 25.03 22.13 25.34 20.51 24.43 20.51 24.42 19.72 23.98 19.72 23.68 20.52 24.12 20.51 24.13 21.34 24.59 22.13 25.03"/><polygon class="cls-9" points="21.34 24.58 21.34 24.59 20.51 24.13 20.52 24.12 21.34 24.58"/><polygon class="cls-4" points="22.16 24.94 22.16 24.95 21.33 24.49 21.34 24.48 22.16 24.94"/><polygon class="cls-4" points="22.13 24.77 22.13 25.03 21.34 24.59 21.34 24.58 20.52 24.12 19.72 23.68 19.97 23.53 20.31 23.34 20.31 23.73 20.76 23.98 20.76 23.98 22.13 24.77"/><polygon class="cls-4" points="20.79 14.98 20.31 15.25 20.8 15.54 21.26 15.27 20.79 14.98"/><line class="cls-6" x1="33.43" y1="48.65" x2="32.59" y2="48.17"/><polygon class="cls-17" points="40.48 15 40.48 46.85 30.63 52.54 30.63 20.69 40.48 15"/><polygon class="cls-18" points="33.43 20.36 33.43 51.71 39.1 48.42 39.1 17.07 33.43 20.36"/><polygon class="cls-8" points="39.1 17.05 38.27 16.86 32.59 20.14 33.43 20.33 39.1 17.05"/><polygon class="cls-19" points="33.43 51.71 32.58 51.41 32.59 20.14 33.43 20.33 33.43 51.71"/><polygon class="cls-11" points="32.59 44.98 33.43 45.5 33.43 50.92 32.59 50.46 32.59 44.98"/><polygon class="cls-4" points="40.47 42.88 38.5 44.03 38.73 44.15 40.72 43.03 40.47 42.88"/><polyline class="cls-20" points="40.72 43.03 40.72 43.34 38.76 44.45 38.73 44.15 40.72 43.03"/><polygon class="cls-4" points="40.47 44.13 38.5 45.28 38.73 45.39 40.72 44.28 40.47 44.13"/><polyline class="cls-20" points="40.72 44.28 40.72 44.59 38.76 45.69 38.73 45.39 40.72 44.28"/><polygon class="cls-4" points="40.47 45.37 38.5 46.52 38.73 46.63 40.72 45.52 40.47 45.37"/><polyline class="cls-20" points="40.72 45.52 40.72 45.83 38.76 46.94 38.73 46.63 40.72 45.52"/><polygon class="cls-12" points="39.1 42.26 33.43 45.5 33.43 50.92 39.1 47.65 39.1 42.26"/><path class="cls-13" d="M38,44.29v.05l0,0v0Z"/><path class="cls-13" d="M38,44.36h0Z"/><path class="cls-13" d="M38,44.35V45.5l.48-.27v-.38C38.44,44.44,38.23,44.23,38,44.35Z"/><polygon class="cls-13" points="38.19 45.5 38.19 47.31 38.47 47.16 38.47 45.34 38.19 45.5"/><polygon class="cls-13" points="37.75 45.76 37.75 47.57 38.13 47.35 38.13 45.54 37.75 45.76"/><polygon class="cls-13" points="37.44 45.94 37.44 47.75 37.68 47.61 37.68 45.8 37.44 45.94"/><path class="cls-13" d="M37.89,44.4l0,0v-.05l0,0Z"/><path class="cls-13" d="M37.44,45.57v.25l.48-.28V44.38a1.58,1.58,0,0,0-.48,1.07Z"/><path class="cls-4" d="M38,44.29v.05l0,0v0Zm0,.07h0Zm-.07,0v0l0,0v-.05ZM38,44.3h0Z"/><path class="cls-4" d="M37.37,45.61V47.9l1.17-.67V44.8c0-.44-.25-.68-.51-.58v-.13l-.14.08v.12a1.73,1.73,0,0,0-.51,1.18A.66.66,0,0,0,37.37,45.61Zm.55-1.23,0,0v0l0,0Zm.55.85L38,45.5V44.35h0l0,0v-.05h0l0,0v0l0,0h0c.24-.12.45.09.48.5Zm-.28.27.28-.16v1.81l-.28.16Zm-.44.26.38-.22v1.81l-.38.22Zm-.31.18.24-.15v1.82l-.24.14Zm0-.12v-.37a1.58,1.58,0,0,1,.48-1.07v1.16Z"/><path class="cls-4" d="M38,44.36h0Z"/><path class="cls-4" d="M38,44.3h0Z"/><path class="cls-4" d="M38,44.29v.05l0,0v0Z"/><path class="cls-4" d="M38,44.3h0Z"/><path class="cls-4" d="M37.89,44.35v0l0,0v-.05Z"/><path class="cls-13" d="M36.4,45.16v.06l0,0v-.05Z"/><path class="cls-13" d="M36.37,45.24l0,0h0Z"/><path class="cls-13" d="M36.4,45.22v1.16l.48-.28v-.37C36.85,45.32,36.65,45.11,36.4,45.22Z"/><polygon class="cls-13" points="36.61 46.38 36.61 48.19 36.88 48.03 36.88 46.22 36.61 46.38"/><polygon class="cls-13" points="36.16 46.63 36.16 48.45 36.54 48.23 36.54 46.41 36.16 46.63"/><polygon class="cls-13" points="35.85 46.81 35.85 48.63 36.1 48.48 36.1 46.67 35.85 46.81"/><path class="cls-13" d="M36.31,45.27h0V45.2l0,0Z"/><path class="cls-13" d="M35.85,46.45v.25l.49-.28V45.26a1.47,1.47,0,0,0-.48,1.06A.62.62,0,0,0,35.85,46.45Z"/><path class="cls-4" d="M36.4,45.16v.06l0,0v-.05Zm0,.08,0,0h0Zm-.06,0v.05h0V45.2Zm.06,0,0,0h0Z"/><path class="cls-4" d="M35.79,46.49v2.29L37,48.11V45.68c0-.45-.25-.68-.51-.59V45l-.13.07v.13a1.78,1.78,0,0,0-.52,1.18Zm.55-1.23h0v-.05l0,0Zm.54.84-.48.28V45.22l0,0,0,0v-.06l0,0,0,0h0v.05l0,0h0c.25-.11.45.1.48.51Zm-.27.28.27-.16V48l-.27.16Zm-.45.25.38-.22v1.82l-.38.22Zm-.31.18.25-.14v1.82l-.25.14Zm0-.11v-.25a.62.62,0,0,1,0-.13,1.47,1.47,0,0,1,.48-1.06v1.16Z"/><path class="cls-4" d="M36.37,45.24l0,0h0Z"/><path class="cls-4" d="M36.37,45.18l0,0h0Z"/><path class="cls-4" d="M36.4,45.16v.06l0,0v-.05Z"/><path class="cls-4" d="M36.37,45.18l0,0h0Z"/><path class="cls-4" d="M36.31,45.22v.05h0V45.2Z"/><path class="cls-13" d="M34.89,46V46l0,0V46Z"/><path class="cls-13" d="M34.86,46.06l0,0h0Z"/><path class="cls-13" d="M34.89,46V47.2l.48-.28v-.38C35.34,46.13,35.13,45.92,34.89,46Z"/><polygon class="cls-13" points="35.09 47.19 35.09 49.01 35.37 48.85 35.37 47.03 35.09 47.19"/><polygon class="cls-13" points="34.65 47.45 34.65 49.26 35.03 49.05 35.03 47.23 34.65 47.45"/><polygon class="cls-13" points="34.34 47.63 34.34 49.44 34.58 49.3 34.58 47.49 34.34 47.63"/><path class="cls-13" d="M34.79,46.09l0,0v0l0,0Z"/><path class="cls-13" d="M34.34,47.27v.24l.48-.28V46.08a1.49,1.49,0,0,0-.48,1.06Z"/><path class="cls-4" d="M34.89,46V46l0,0V46Zm0,.08,0,0h0Zm-.07,0v.05l0,0v0Zm.07,0,0,0h0Z"/><path class="cls-4" d="M34.27,47.3v2.3l1.16-.68V46.49c0-.44-.24-.68-.51-.58v-.12l-.13.07V46a1.73,1.73,0,0,0-.51,1.18A.71.71,0,0,0,34.27,47.3Zm.55-1.23,0,0V46l0,0Zm.55.85-.48.28V46l0,0,0,0V46l0,0,0,0h0V46l0,0h0c.24-.12.45.09.48.5Zm-.28.27.28-.16v1.82l-.28.16Zm-.44.26.38-.22v1.82l-.38.21Zm-.31.18.24-.14V49.3l-.24.14Zm0-.12v-.37a1.49,1.49,0,0,1,.48-1.06v1.15Z"/><path class="cls-4" d="M34.86,46.06l0,0h0Z"/><path class="cls-4" d="M34.86,46l0,0h0Z"/><path class="cls-4" d="M34.89,46V46l0,0V46Z"/><path class="cls-4" d="M34.86,46l0,0h0Z"/><path class="cls-4" d="M34.79,46v.05l0,0v0Z"/><path class="cls-13" d="M38,38.47v.05l0,0v0Z"/><path class="cls-13" d="M38,38.54h0Z"/><path class="cls-13" d="M38,38.53v1.15l.48-.27V39C38.44,38.62,38.23,38.41,38,38.53Z"/><polygon class="cls-13" points="38.19 39.68 38.19 41.5 38.47 41.34 38.47 39.52 38.19 39.68"/><polygon class="cls-13" points="37.75 39.94 37.75 41.75 38.13 41.53 38.13 39.72 37.75 39.94"/><polygon class="cls-13" points="37.44 40.12 37.44 41.93 37.68 41.79 37.68 39.98 37.44 40.12"/><path class="cls-13" d="M37.89,38.58l0,0v-.05l0,0Z"/><path class="cls-13" d="M37.44,39.75V40l.48-.28V38.56a1.58,1.58,0,0,0-.48,1.07Z"/><path class="cls-4" d="M38,38.47v.05l0,0v0Zm0,.07h0Zm-.07,0v0l0,0v-.05Zm.07,0,0,0h0Z"/><path class="cls-4" d="M37.37,39.79v2.29l1.17-.67V39c0-.44-.25-.68-.51-.58v-.13l-.14.08v.12a1.73,1.73,0,0,0-.51,1.18A.71.71,0,0,0,37.37,39.79Zm.55-1.23,0,0v0l0,0Zm.55.85-.48.27V38.53h0l0,0v-.05l0,0,0,0h0l0,0v0l0,0h0c.24-.12.45.09.48.5Zm-.28.27.28-.16v1.82l-.28.16Zm-.44.26.38-.22v1.81l-.38.22Zm-.31.18.24-.14v1.81l-.24.14Zm0-.12v-.37a1.58,1.58,0,0,1,.48-1.07v1.16Z"/><path class="cls-4" d="M38,38.54h0Z"/><path class="cls-4" d="M38,38.49l0,0h0Z"/><path class="cls-4" d="M38,38.47v.05l0,0v0Z"/><path class="cls-4" d="M38,38.49l0,0h0Z"/><path class="cls-4" d="M37.89,38.53v0l0,0v-.05Z"/><path class="cls-13" d="M36.4,39.35v0l0,0v-.05Z"/><path class="cls-13" d="M36.37,39.42l0,0h0Z"/><path class="cls-13" d="M36.4,39.4v1.16l.48-.28v-.37C36.85,39.5,36.65,39.29,36.4,39.4Z"/><polygon class="cls-13" points="36.61 40.56 36.61 42.37 36.88 42.21 36.88 40.4 36.61 40.56"/><polygon class="cls-13" points="36.16 40.81 36.16 42.63 36.54 42.41 36.54 40.6 36.16 40.81"/><polygon class="cls-13" points="35.85 40.99 35.85 42.81 36.1 42.67 36.1 40.85 35.85 40.99"/><path class="cls-13" d="M36.31,39.46l0,0v-.06l0,0Z"/><path class="cls-13" d="M35.85,40.63v.25l.49-.28V39.44a1.49,1.49,0,0,0-.48,1.06A.62.62,0,0,0,35.85,40.63Z"/><path class="cls-4" d="M36.4,39.35v0l0,0v-.05Zm0,.07,0,0h0Zm-.06,0v.06l0,0v-.06Zm.06,0h0Z"/><path class="cls-4" d="M35.79,40.67V43L37,42.29V39.86c0-.45-.25-.68-.51-.59v-.12l-.13.08v.12a1.78,1.78,0,0,0-.52,1.18Zm.55-1.23,0,0V39.4l0,0Zm.54.84-.48.28V39.4l0,0,0,0v0h0l0,0h0l0,0v.05l0,0h0c.25-.11.45.1.48.51Zm-.27.28.27-.16v1.81l-.27.16Zm-.45.25.38-.21v1.81l-.38.22Zm-.31.18.25-.14v1.82l-.25.14Zm0-.11v-.25a.62.62,0,0,1,0-.13,1.49,1.49,0,0,1,.48-1.06V40.6Z"/><path class="cls-4" d="M36.37,39.42l0,0h0Z"/><path class="cls-4" d="M36.37,39.36h0Z"/><path class="cls-4" d="M36.4,39.35v0l0,0v-.05Z"/><path class="cls-4" d="M36.37,39.36h0Z"/><path class="cls-4" d="M36.31,39.4v.06l0,0v-.06Z"/><path class="cls-13" d="M34.89,40.16v.06l0,0v-.05Z"/><path class="cls-13" d="M34.86,40.24l0,0h0Z"/><path class="cls-13" d="M34.89,40.22v1.16l.48-.28v-.38C35.34,40.32,35.13,40.11,34.89,40.22Z"/><polygon class="cls-13" points="35.09 41.38 35.09 43.19 35.37 43.03 35.37 41.22 35.09 41.38"/><polygon class="cls-13" points="34.65 41.63 34.65 43.45 35.03 43.23 35.03 41.41 34.65 41.63"/><polygon class="cls-13" points="34.34 41.81 34.34 43.63 34.58 43.48 34.58 41.67 34.34 41.81"/><path class="cls-13" d="M34.79,40.27h0V40.2l0,0Z"/><path class="cls-13" d="M34.34,41.45v.25l.48-.28V40.26a1.51,1.51,0,0,0-.48,1.06Z"/><path class="cls-4" d="M34.89,40.16v.06l0,0v-.05Zm0,.08,0,0h0Zm-.07,0v.05h0V40.2Zm.07,0,0,0h0Z"/><path class="cls-4" d="M34.27,41.48v2.3l1.16-.67V40.68c0-.45-.24-.69-.51-.59V40l-.13.07v.12a1.76,1.76,0,0,0-.51,1.18A.71.71,0,0,0,34.27,41.48Zm.55-1.22h0v-.05l0,0Zm.55.84-.48.28V40.22l0,0,0,0v-.06l0,0,0,0h0v.05l0,0h0c.24-.11.45.1.48.5Zm-.28.27.28-.16V43l-.28.16Zm-.44.26.38-.22v1.82l-.38.22Zm-.31.18.24-.14v1.81l-.24.14Zm0-.11v-.38a1.51,1.51,0,0,1,.48-1.06v1.16Z"/><path class="cls-4" d="M34.86,40.24l0,0h0Z"/><path class="cls-4" d="M34.86,40.18l0,0h0Z"/><path class="cls-4" d="M34.89,40.16v.06l0,0v-.05Z"/><path class="cls-4" d="M34.86,40.18l0,0h0Z"/><path class="cls-4" d="M34.79,40.22v.05h0V40.2Z"/><path class="cls-13" d="M36.52,25.66v0l0,0v0Z"/><path class="cls-13" d="M36.49,25.71h0Z"/><path class="cls-13" d="M36.52,25.7v.84l.35-.2v-.27C36.84,25.77,36.7,25.61,36.52,25.7Z"/><polygon class="cls-13" points="36.67 26.54 36.67 27.86 36.87 27.75 36.87 26.42 36.67 26.54"/><polygon class="cls-13" points="36.34 26.73 36.34 28.05 36.62 27.89 36.62 26.57 36.34 26.73"/><polygon class="cls-13" points="36.12 26.86 36.12 28.18 36.3 28.08 36.3 26.75 36.12 26.86"/><path class="cls-13" d="M36.45,25.74l0,0v0l0,0Z"/><path class="cls-13" d="M36.12,26.59v.19l.35-.21v-.85a1.1,1.1,0,0,0-.35.78Z"/><path class="cls-4" d="M36.52,25.66v0l0,0v0Zm0,.05h0Zm0,0v0l0,0v0Zm0,0h0Z"/><path class="cls-4" d="M36.07,26.62v1.67l.85-.49V26c0-.33-.19-.5-.38-.43v-.09l-.09.06v.09a1.28,1.28,0,0,0-.38.86Zm.4-.9,0,0v0l0,0Zm.4.62-.35.2V25.7h0v0h0l0,0h0l0,0v0l0,0h0c.18-.09.32.07.35.37Zm-.2.2.2-.12v1.33l-.2.11Zm-.33.19.28-.16v1.32l-.28.16Zm-.22.13.18-.1v1.32l-.18.1Zm0-.08V26.5a1.1,1.1,0,0,1,.35-.78v.85Z"/><path class="cls-4" d="M36.49,25.71h0Z"/><path class="cls-4" d="M36.49,25.67h0Z"/><path class="cls-4" d="M36.52,25.66v0l0,0v0Z"/><path class="cls-4" d="M36.49,25.67h0Z"/><path class="cls-4" d="M36.45,25.7v0l0,0v0Z"/><path class="cls-13" d="M36.52,22.73v0l0,0v0Z"/><path class="cls-13" d="M36.49,22.78h0Z"/><path class="cls-13" d="M36.52,22.77v.85l.35-.21v-.27C36.84,22.84,36.7,22.69,36.52,22.77Z"/><polygon class="cls-13" points="36.67 23.61 36.67 24.94 36.87 24.82 36.87 23.5 36.67 23.61"/><polygon class="cls-13" points="36.34 23.8 36.34 25.13 36.62 24.97 36.62 23.64 36.34 23.8"/><polygon class="cls-13" points="36.12 23.93 36.12 25.26 36.3 25.15 36.3 23.83 36.12 23.93"/><path class="cls-13" d="M36.45,22.81h0v0h0Z"/><path class="cls-13" d="M36.12,23.67v.18l.35-.21V22.8a1.08,1.08,0,0,0-.35.78Z"/><path class="cls-4" d="M36.52,22.73v0l0,0v0Zm0,.05h0Zm0,0v0h0v0Zm0,0h0Z"/><path class="cls-4" d="M36.07,23.7v1.67l.85-.49V23.1c0-.32-.19-.49-.38-.42v-.09l-.09.05v.09a1.31,1.31,0,0,0-.38.86Zm.4-.9h0v0h0Zm.4.61-.35.21v-.85h0v0h0v0l0,0h0c.18-.08.32.07.35.37Zm-.2.2.2-.11v1.32l-.2.12Zm-.33.19.28-.16V25l-.28.16Zm-.22.13.18-.1v1.32l-.18.11Zm0-.08v-.27a1.08,1.08,0,0,1,.35-.78v.84Z"/><path class="cls-4" d="M36.49,22.78h0Z"/><path class="cls-4" d="M36.49,22.74h0Z"/><path class="cls-4" d="M36.52,22.73v0l0,0v0Z"/><path class="cls-4" d="M36.49,22.74h0Z"/><path class="cls-4" d="M36.45,22.77v0h0v0Z"/><path class="cls-13" d="M36.52,19.8v0h0v0Z"/><path class="cls-13" d="M36.49,19.86h0Z"/><path class="cls-13" d="M36.52,19.85v.84l.35-.2v-.28C36.84,19.92,36.7,19.76,36.52,19.85Z"/><polygon class="cls-13" points="36.67 20.69 36.67 22.01 36.87 21.9 36.87 20.57 36.67 20.69"/><polygon class="cls-13" points="36.34 20.88 36.34 22.2 36.62 22.04 36.62 20.72 36.34 20.88"/><polygon class="cls-13" points="36.12 21.01 36.12 22.33 36.3 22.23 36.3 20.9 36.12 21.01"/><path class="cls-13" d="M36.45,19.88h0v0l0,0Z"/><path class="cls-13" d="M36.12,20.74v.18l.35-.2v-.85a1.1,1.1,0,0,0-.35.78Z"/><path class="cls-4" d="M36.52,19.8v0h0v0Zm0,.06h0Zm0,0v0h0v0Zm0,0,0,0h0Z"/><path class="cls-4" d="M36.07,20.77v1.67l.85-.49V20.18c0-.33-.19-.5-.38-.43v-.09l-.09.06v.09a1.28,1.28,0,0,0-.38.86Zm.4-.9h0v0l0,0Zm.4.62-.35.2v-.84h0l0,0v0l0,0,0,0h0v0h0c.18-.09.32.07.35.36Zm-.2.2.2-.12V21.9l-.2.11Zm-.33.19.28-.16V22l-.28.16Zm-.22.13.18-.11v1.33l-.18.1Zm0-.09v-.27a1.1,1.1,0,0,1,.35-.78v.85Z"/><path class="cls-4" d="M36.49,19.86h0Z"/><path class="cls-4" d="M36.49,19.82l0,0h0Z"/><path class="cls-4" d="M36.52,19.8v0h0v0Z"/><path class="cls-4" d="M36.49,19.82l0,0h0Z"/><path class="cls-4" d="M36.45,19.85v0h0v0Z"/><polygon class="cls-4" points="30.63 46.7 30.62 47.1 32.6 45.88 33.09 46.19 33.38 46.35 39.39 42.84 39.54 42.76 39.31 42.59 40.83 41.71 40.48 41.5 39.11 42.32 39.11 42.69 33.44 45.99 32.6 45.51 30.63 46.7"/><polygon class="cls-11" points="33.38 46.35 33.39 46.76 39.54 43.14 39.54 42.76 39.4 42.84 33.38 46.35"/><polygon class="cls-20" points="32.6 45.88 32.6 46.22 30.62 47.43 30.62 47.1 32.6 45.88"/><polygon class="cls-20" points="39.32 42.59 39.54 42.76 39.54 42.81 40.84 42.06 40.84 41.71 39.32 42.59"/><polyline class="cls-9" points="33.39 46.76 32.6 46.22 32.6 45.88 33.38 46.35 33.39 46.76"/><polygon class="cls-4" points="30.63 46.1 30.63 46.52 32.59 45.33 33.08 45.65 33.38 45.81 39.4 42.36 39.55 42.27 39.33 42.1 40.84 41.24 40.5 41.02 39.12 41.83 39.12 42.2 33.44 45.44 32.59 44.96 30.63 46.1"/><polygon class="cls-11" points="33.38 45.81 33.38 46.22 39.55 42.66 39.55 42.27 39.4 42.36 33.38 45.81"/><polygon class="cls-20" points="32.59 45.33 32.59 45.67 30.63 46.87 30.63 46.52 32.59 45.33"/><polygon class="cls-20" points="39.33 42.1 39.55 42.27 39.55 42.32 40.84 41.58 40.84 41.24 39.33 42.1"/><polyline class="cls-9" points="33.38 46.22 32.59 45.67 32.59 45.33 33.38 45.81 33.38 46.22"/><polygon class="cls-4" points="30.63 32.93 30.64 33.36 28.66 32.11 28.18 32.42 27.89 32.58 21.87 29.07 21.72 28.99 21.95 28.82 20.43 27.94 20.78 27.73 22.15 28.54 22.15 28.92 27.82 32.21 28.66 31.73 30.63 32.93"/><polygon class="cls-11" points="27.89 32.58 27.88 32.99 21.72 29.37 21.72 28.99 21.87 29.07 27.89 32.58"/><polygon class="cls-11" points="28.66 32.11 28.66 32.45 30.62 33.68 30.64 33.36 28.66 32.11"/><polygon class="cls-11" points="21.95 28.82 21.72 28.99 21.72 29.04 20.43 28.29 20.43 27.94 21.95 28.82"/><polyline class="cls-9" points="27.88 32.99 28.66 32.45 28.66 32.11 27.89 32.58 27.88 32.99"/><polygon class="cls-4" points="30.64 32.36 30.63 32.77 28.67 31.56 28.18 31.87 27.89 32.04 21.86 28.58 21.72 28.5 21.94 28.33 20.42 27.47 20.77 27.25 22.14 28.05 22.14 28.43 27.83 31.67 28.67 31.18 30.64 32.36"/><polygon class="cls-11" points="27.89 32.04 27.88 32.45 21.72 28.88 21.72 28.5 21.86 28.58 27.89 32.04"/><polygon class="cls-11" points="28.67 31.56 28.67 31.9 30.63 33.12 30.63 32.77 28.67 31.56"/><polygon class="cls-11" points="21.94 28.33 21.72 28.5 21.72 28.55 20.42 27.81 20.42 27.47 21.94 28.33"/><polyline class="cls-9" points="27.88 32.45 28.67 31.9 28.67 31.56 27.89 32.04 27.88 32.45"/><polygon class="cls-4" points="30.63 32.95 30.62 33.35 32.6 32.13 33.09 32.44 33.38 32.6 39.39 29.1 39.54 29.01 39.31 28.84 40.83 27.96 40.48 27.75 39.11 28.57 39.11 28.94 33.44 32.24 32.6 31.76 30.63 32.95"/><polygon class="cls-11" points="33.38 32.6 33.39 33.01 39.54 29.39 39.54 29.01 39.4 29.1 33.38 32.6"/><polygon class="cls-20" points="32.6 32.13 32.6 32.47 30.62 33.68 30.62 33.35 32.6 32.13"/><polygon class="cls-20" points="39.32 28.84 39.54 29.01 39.54 29.06 40.84 28.31 40.84 27.96 39.32 28.84"/><polyline class="cls-9" points="33.39 33.01 32.6 32.47 32.6 32.13 33.38 32.6 33.39 33.01"/><polygon class="cls-4" points="30.63 32.35 30.63 32.77 32.59 31.59 33.08 31.9 33.38 32.06 39.4 28.61 39.55 28.52 39.33 28.35 40.84 27.49 40.5 27.28 39.12 28.08 39.12 28.45 33.44 31.7 32.59 31.21 30.63 32.35"/><polygon class="cls-11" points="33.38 32.06 33.38 32.47 39.55 28.91 39.55 28.52 39.4 28.61 33.38 32.06"/><polygon class="cls-20" points="32.59 31.58 32.59 31.92 30.63 33.12 30.63 32.77 32.59 31.58"/><polygon class="cls-20" points="39.33 28.35 39.55 28.52 39.55 28.57 40.84 27.83 40.84 27.49 39.33 28.35"/><polyline class="cls-9" points="33.38 32.47 32.59 31.92 32.59 31.58 33.38 32.06 33.38 32.47"/><polyline class="cls-20" points="32.84 48.1 32.84 48.41 30.63 49.65 30.63 49.35"/><polygon class="cls-11" points="34.99 38.92 38.13 37.11 38.13 36.96 34.99 38.77 34.99 38.92"/><polygon class="cls-13" points="35.13 38.16 36.33 37.47 36.33 34.64 35.13 35.33 35.13 38.16"/><path class="cls-14" d="M35.09,35.3l1.28-.73V37.5l-1.28.73Zm1.2-.59-1.12.65v2.73l1.12-.65Z"/><line class="cls-21" x1="36.02" y1="34.81" x2="36.02" y2="37.65"/><polygon class="cls-14" points="35.99 37.67 36.06 37.62 36.06 34.79 35.99 34.84 35.99 37.67"/><polygon class="cls-14" points="35.39 38.01 35.47 37.97 35.47 35.14 35.39 35.18 35.39 38.01"/><polygon class="cls-14" points="35.13 36.8 36.33 36.1 36.33 36 35.13 36.7 35.13 36.8"/><polygon class="cls-13" points="36.75 37.23 37.95 36.54 37.95 33.71 36.75 34.4 36.75 37.23"/><path class="cls-14" d="M36.71,34.37,38,33.63v2.94l-1.27.73Zm1.2-.59-1.12.65v2.73l1.12-.65Z"/><line class="cls-21" x1="37.64" y1="33.88" x2="37.64" y2="36.71"/><polygon class="cls-14" points="37.6 36.74 37.68 36.69 37.68 33.86 37.6 33.91 37.6 36.74"/><polygon class="cls-14" points="37.01 37.08 37.08 37.04 37.08 34.2 37.01 34.25 37.01 37.08"/><polygon class="cls-14" points="36.75 35.86 37.95 35.17 37.95 35.07 36.75 35.76 36.75 35.86"/><polygon class="cls-12" points="34.99 38.76 38.13 36.96 38.13 36.8 34.99 38.61 34.99 38.76"/><polygon class="cls-4" points="34.91 38.89 38.2 36.99 38.2 36.84 34.91 38.74 34.91 38.89"/><polygon class="cls-11" points="35.52 34.27 37.56 33.09 37.56 32.99 35.52 34.17 35.52 34.27"/><polygon class="cls-13" points="35.6 33.78 36.39 33.33 36.39 31.48 35.6 31.93 35.6 33.78"/><path class="cls-14" d="M35.58,31.91l.83-.48v1.92l-.83.47Zm.78-.38-.73.42v1.78l.73-.42Z"/><line class="cls-21" x1="36.19" y1="31.6" x2="36.19" y2="33.44"/><polygon class="cls-14" points="36.16 33.46 36.21 33.43 36.21 31.58 36.16 31.61 36.16 33.46"/><polygon class="cls-14" points="35.77 33.68 35.82 33.65 35.82 31.81 35.77 31.83 35.77 33.68"/><polygon class="cls-14" points="35.6 32.89 36.39 32.44 36.39 32.37 35.6 32.82 35.6 32.89"/><polygon class="cls-13" points="36.66 33.17 37.44 32.72 37.44 30.87 36.66 31.32 36.66 33.17"/><path class="cls-14" d="M36.63,31.31l.83-.48v1.91l-.83.48Zm.78-.39-.73.42v1.78l.73-.42Z"/><line class="cls-21" x1="37.24" y1="30.99" x2="37.24" y2="32.83"/><polygon class="cls-14" points="37.22 32.85 37.27 32.82 37.27 30.97 37.22 31 37.22 32.85"/><polygon class="cls-14" points="36.83 33.07 36.88 33.04 36.88 31.2 36.83 31.23 36.83 33.07"/><polygon class="cls-14" points="36.66 32.28 37.44 31.83 37.44 31.76 36.66 32.21 36.66 32.28"/><polygon class="cls-12" points="35.52 34.17 37.56 32.99 37.56 32.89 35.52 34.07 35.52 34.17"/><polygon class="cls-4" points="35.46 34.25 37.6 33.02 37.6 32.92 35.46 34.15 35.46 34.25"/><polygon class="cls-13" points="39.16 22.38 39.92 21.93 39.92 16.52 39.16 16.96 39.16 22.38"/><path class="cls-14" d="M39.15,17l.78-.46v5.45l-.78.47Zm.75-.4-.72.42v5.37l.72-.42Z"/><polygon class="cls-14" points="39.16 18.01 39.92 17.57 39.92 17.52 39.16 17.96 39.16 18.01"/><polygon class="cls-14" points="39.16 18.59 39.92 18.15 39.92 18.11 39.16 18.55 39.16 18.59"/><polygon class="cls-14" points="39.16 21.85 39.92 21.41 39.92 21.36 39.16 21.81 39.16 21.85"/><polygon class="cls-14" points="39.16 21.27 39.92 20.83 39.92 20.78 39.16 21.22 39.16 21.27"/><polygon class="cls-14" points="39.16 20.14 39.92 19.7 39.92 19.66 39.16 20.1 39.16 20.14"/><polygon class="cls-14" points="39.16 19.53 39.92 19.09 39.92 19.04 39.16 19.48 39.16 19.53"/><polygon class="cls-14" points="39.74 22.04 39.78 22.01 39.78 16.6 39.74 16.62 39.74 22.04"/><polygon class="cls-14" points="39.31 22.29 39.34 22.27 39.34 16.86 39.31 16.88 39.31 22.29"/><polygon class="cls-13" points="39.16 26.42 39.92 25.98 39.92 20.56 39.16 21 39.16 26.42"/><path class="cls-14" d="M39.15,21l.78-.46V26l-.78.46Zm.75-.4-.72.43v5.37L39.9,26Z"/><polygon class="cls-14" points="39.16 22.05 39.92 21.61 39.92 21.57 39.16 22.01 39.16 22.05"/><polygon class="cls-14" points="39.16 22.64 39.92 22.19 39.92 22.15 39.16 22.59 39.16 22.64"/><polygon class="cls-14" points="39.16 25.89 39.92 25.45 39.92 25.41 39.16 25.85 39.16 25.89"/><polygon class="cls-14" points="39.16 25.31 39.92 24.87 39.92 24.82 39.16 25.27 39.16 25.31"/><polygon class="cls-14" points="39.16 24.18 39.92 23.74 39.92 23.7 39.16 24.14 39.16 24.18"/><polygon class="cls-14" points="39.16 23.57 39.92 23.13 39.92 23.08 39.16 23.53 39.16 23.57"/><polygon class="cls-14" points="39.74 26.08 39.78 26.06 39.78 20.64 39.74 20.66 39.74 26.08"/><polygon class="cls-14" points="39.31 26.34 39.34 26.31 39.34 20.9 39.31 20.92 39.31 26.34"/><polygon class="cls-13" points="31.23 26.42 31.99 25.98 31.99 20.56 31.23 21 31.23 26.42"/><path class="cls-14" d="M31.22,21l.78-.46V26l-.78.46Zm.75-.4-.72.43v5.37L32,26Z"/><polygon class="cls-14" points="31.23 22.05 31.99 21.61 31.99 21.57 31.23 22.01 31.23 22.05"/><polygon class="cls-14" points="31.23 22.64 31.99 22.19 31.99 22.15 31.23 22.59 31.23 22.64"/><polygon class="cls-14" points="31.23 25.89 31.99 25.45 31.99 25.41 31.23 25.85 31.23 25.89"/><polygon class="cls-14" points="31.23 25.31 31.99 24.87 31.99 24.82 31.23 25.27 31.23 25.31"/><polygon class="cls-14" points="31.23 24.18 31.99 23.74 31.99 23.7 31.23 24.14 31.23 24.18"/><polygon class="cls-14" points="31.23 23.57 31.99 23.13 31.99 23.08 31.23 23.53 31.23 23.57"/><polygon class="cls-14" points="31.82 26.08 31.85 26.06 31.85 20.64 31.82 20.66 31.82 26.08"/><polygon class="cls-14" points="31.38 26.34 31.41 26.31 31.41 20.9 31.38 20.92 31.38 26.34"/><polygon class="cls-13" points="31.23 30.27 31.99 29.82 31.99 24.41 31.23 24.85 31.23 30.27"/><path class="cls-14" d="M31.22,24.84l.78-.46v5.46l-.78.46Zm.75-.4-.72.42v5.37l.72-.42Z"/><polygon class="cls-14" points="31.23 25.9 31.99 25.46 31.99 25.41 31.23 25.86 31.23 25.9"/><polygon class="cls-14" points="31.23 26.48 31.99 26.04 31.99 26 31.23 26.44 31.23 26.48"/><polygon class="cls-14" points="31.23 29.74 31.99 29.3 31.99 29.26 31.23 29.7 31.23 29.74"/><polygon class="cls-14" points="31.23 29.16 31.99 28.72 31.99 28.67 31.23 29.12 31.23 29.16"/><polygon class="cls-14" points="31.23 28.03 31.99 27.59 31.99 27.55 31.23 27.99 31.23 28.03"/><polygon class="cls-14" points="31.23 27.42 31.99 26.98 31.99 26.93 31.23 27.38 31.23 27.42"/><polygon class="cls-14" points="31.82 29.93 31.85 29.91 31.85 24.49 31.82 24.51 31.82 29.93"/><polygon class="cls-14" points="31.38 30.18 31.41 30.16 31.41 24.75 31.38 24.77 31.38 30.18"/><polygon class="cls-4" points="33.41 31.81 39.12 28.5 39.12 26.62 33.41 29.92 33.41 31.81"/><polygon class="cls-15" points="32.59 31.22 33.43 31.74 33.43 29.95 32.59 29.44 32.59 31.22"/><polygon class="cls-4" points="32.59 22.3 30.63 23.44 30.86 23.56 32.84 22.44 32.59 22.3"/><polyline class="cls-9" points="32.84 22.44 32.84 22.75 30.88 23.86 30.86 23.56 32.84 22.44"/><polygon class="cls-4" points="32.59 23.55 30.63 24.69 30.86 24.81 32.84 23.69 32.59 23.55"/><polyline class="cls-9" points="32.84 23.69 32.84 24 30.88 25.11 30.86 24.81 32.84 23.69"/><polygon class="cls-4" points="32.59 24.79 30.63 25.93 30.86 26.05 32.84 24.93 32.59 24.79"/><polyline class="cls-9" points="32.84 24.93 32.84 25.24 30.88 26.35 30.86 26.05 32.84 24.93"/><polygon class="cls-4" points="32.59 26.47 30.63 27.61 30.86 27.73 32.84 26.62 32.59 26.47"/><polyline class="cls-9" points="32.84 26.62 32.84 26.92 30.88 28.03 30.86 27.73 32.84 26.62"/><polygon class="cls-4" points="32.59 27.72 30.63 28.86 30.86 28.98 32.84 27.87 32.59 27.72"/><polyline class="cls-9" points="32.84 27.87 32.84 28.17 30.88 29.28 30.86 28.98 32.84 27.87"/><polygon class="cls-12" points="38.12 18.23 38.12 29.44 38.56 29.18 38.56 17.97 38.12 18.23"/><polygon class="cls-12" points="37.41 18.64 37.41 29.86 37.85 29.6 37.85 18.39 37.41 18.64"/><polygon class="cls-4" points="37.41 19.22 38.56 18.54 38.56 18.34 37.41 19.02 37.41 19.22"/><polygon class="cls-11" points="37.41 19.14 38.56 18.47 38.56 18.39 37.41 19.06 37.41 19.14"/><polygon class="cls-4" points="37.41 20.41 38.56 19.73 38.56 19.53 37.41 20.21 37.41 20.41"/><polygon class="cls-11" points="37.41 20.33 38.56 19.66 38.56 19.58 37.41 20.25 37.41 20.33"/><polygon class="cls-4" points="37.41 21.6 38.56 20.92 38.56 20.72 37.41 21.4 37.41 21.6"/><polygon class="cls-11" points="37.41 21.52 38.56 20.85 38.56 20.77 37.41 21.44 37.41 21.52"/><polygon class="cls-4" points="37.41 22.79 38.56 22.11 38.56 21.91 37.41 22.59 37.41 22.79"/><polygon class="cls-11" points="37.41 22.71 38.56 22.04 38.56 21.96 37.41 22.63 37.41 22.71"/><polygon class="cls-4" points="37.41 23.98 38.56 23.3 38.56 23.1 37.41 23.78 37.41 23.98"/><polygon class="cls-11" points="37.41 23.91 38.56 23.23 38.56 23.15 37.41 23.82 37.41 23.91"/><polygon class="cls-4" points="37.41 25.17 38.56 24.49 38.56 24.29 37.41 24.97 37.41 25.17"/><polygon class="cls-11" points="37.41 25.1 38.56 24.42 38.56 24.34 37.41 25.02 37.41 25.1"/><polygon class="cls-4" points="37.41 26.36 38.56 25.68 38.56 25.48 37.41 26.16 37.41 26.36"/><polygon class="cls-11" points="37.41 26.29 38.56 25.61 38.56 25.53 37.41 26.2 37.41 26.29"/><polygon class="cls-4" points="37.41 27.55 38.56 26.87 38.56 26.67 37.41 27.35 37.41 27.55"/><polygon class="cls-11" points="37.41 27.48 38.56 26.8 38.56 26.72 37.41 27.4 37.41 27.48"/><polygon class="cls-4" points="37.41 28.74 38.56 28.07 38.56 27.86 37.41 28.54 37.41 28.74"/><polygon class="cls-11" points="37.41 28.67 38.56 27.99 38.56 27.91 37.41 28.59 37.41 28.67"/><polygon class="cls-4" points="37.41 29.73 37.41 29.86 37.85 29.6 38.12 29.44 38.56 29.18 38.56 29.05 38.12 29.32 37.85 29.47 37.41 29.73"/><polygon class="cls-11" points="37.41 29.78 37.41 29.86 37.85 29.6 38.12 29.44 38.56 29.18 38.56 29.1 38.12 29.36 37.85 29.52 37.41 29.78"/><polygon class="cls-12" points="35.13 19.96 35.13 31.17 35.57 30.91 35.57 19.7 35.13 19.96"/><polygon class="cls-12" points="34.42 20.37 34.42 31.59 34.86 31.32 34.86 20.11 34.42 20.37"/><polygon class="cls-4" points="34.42 20.94 35.57 20.27 35.57 20.07 34.42 20.74 34.42 20.94"/><polygon class="cls-11" points="34.42 20.87 35.57 20.2 35.57 20.11 34.42 20.79 34.42 20.87"/><polygon class="cls-4" points="34.42 22.13 35.57 21.46 35.57 21.26 34.42 21.93 34.42 22.13"/><polygon class="cls-11" points="34.42 22.06 35.57 21.39 35.57 21.3 34.42 21.98 34.42 22.06"/><polygon class="cls-4" points="34.42 23.32 35.57 22.65 35.57 22.45 34.42 23.12 34.42 23.32"/><polygon class="cls-11" points="34.42 23.25 35.57 22.58 35.57 22.5 34.42 23.17 34.42 23.25"/><polygon class="cls-4" points="34.42 24.51 35.57 23.84 35.57 23.64 34.42 24.31 34.42 24.51"/><polygon class="cls-11" points="34.42 24.44 35.57 23.77 35.57 23.68 34.42 24.36 34.42 24.44"/><polygon class="cls-4" points="34.42 25.7 35.57 25.03 35.57 24.83 34.42 25.5 34.42 25.7"/><polygon class="cls-11" points="34.42 25.63 35.57 24.96 35.57 24.88 34.42 25.55 34.42 25.63"/><polygon class="cls-4" points="34.42 26.89 35.57 26.22 35.57 26.02 34.42 26.7 34.42 26.89"/><polygon class="cls-11" points="34.42 26.82 35.57 26.15 35.57 26.07 34.42 26.74 34.42 26.82"/><polygon class="cls-4" points="34.42 28.09 35.57 27.41 35.57 27.21 34.42 27.89 34.42 28.09"/><polygon class="cls-11" points="34.42 28.01 35.57 27.34 35.57 27.26 34.42 27.93 34.42 28.01"/><polygon class="cls-4" points="34.42 29.28 35.57 28.6 35.57 28.4 34.42 29.08 34.42 29.28"/><polygon class="cls-11" points="34.42 29.2 35.57 28.53 35.57 28.45 34.42 29.12 34.42 29.2"/><polygon class="cls-4" points="34.42 30.47 35.57 29.79 35.57 29.59 34.42 30.27 34.42 30.47"/><polygon class="cls-11" points="34.42 30.39 35.57 29.72 35.57 29.64 34.42 30.31 34.42 30.39"/><polygon class="cls-4" points="34.42 31.46 34.42 31.59 34.86 31.32 35.13 31.17 35.57 30.91 35.57 30.78 35.13 31.04 34.86 31.2 34.42 31.46"/><polygon class="cls-11" points="34.42 31.5 34.42 31.59 34.86 31.32 35.13 31.17 35.57 30.91 35.57 30.83 35.13 31.09 34.86 31.24 34.42 31.5"/><path class="cls-13" d="M36.21,29.34c0,.28.16.43.35.33a.9.9,0,0,0,.34-.7c0-.28-.16-.42-.34-.32A.84.84,0,0,0,36.21,29.34Z"/><path class="cls-14" d="M36.18,29.36c0,.3.17.46.38.35a.93.93,0,0,0,.37-.75c0-.31-.17-.47-.37-.36A.92.92,0,0,0,36.18,29.36Zm0,0a.84.84,0,0,1,.35-.69c.18-.1.34,0,.34.32a.9.9,0,0,1-.34.7C36.37,29.77,36.21,29.62,36.21,29.34Z"/><rect class="cls-16" x="30.6" y="27.27" height="3.77" transform="translate(-10.64 19.9) rotate(-30.96)"/><polygon class="cls-11" points="30.6 26.75 30.61 26.74 30.61 25.57 30.6 25.57 30.6 26.75"/><polygon class="cls-11" points="30.12 20.99 30.12 32.45 30.6 32.74 30.6 31.04 30.6 31.04 30.6 27.27 30.61 26.74 30.6 26.75 30.6 25.57 30.61 21.28 30.12 20.99"/><rect class="cls-11" x="30.6" y="27.27" height="3.77" transform="translate(-10.64 19.9) rotate(-30.96)"/><polygon class="cls-4" points="39.1 24.97 39.1 24.98 39.93 24.51 39.92 24.51 39.1 24.97"/><polygon class="cls-4" points="39.14 24.8 39.14 25.05 39.93 24.61 39.93 24.6 40.74 24.15 41.54 23.7 41.29 23.55 40.95 23.36 40.95 23.75 40.51 24.01 40.5 24 39.14 24.8"/><polygon class="cls-4" points="40.45 15 40.93 15.27 40.44 15.56 39.98 15.29 40.45 15"/><polyline class="cls-9" points="30.63 49.65 28.43 48.38 28.43 48.08 30.63 49.35"/><polyline class="cls-4" points="28.43 48.08 28.67 47.93 30.63 49.06 32.59 47.96 32.84 48.1 30.63 49.35"/><polyline class="cls-20" points="32.83 49.28 32.83 49.58 30.61 50.83 30.61 50.52"/><polyline class="cls-9" points="30.61 50.83 28.41 49.56 28.41 49.25 30.61 50.52"/><polyline class="cls-4" points="28.41 49.25 28.66 49.1 30.61 50.24 32.58 49.13 32.83 49.28 30.61 50.52"/><polyline class="cls-20" points="32.82 46.86 32.82 47.16 30.61 48.41 30.61 48.11"/><polyline class="cls-9" points="30.61 48.41 28.41 47.14 28.41 46.84 30.61 48.11"/><polyline class="cls-4" points="28.41 46.84 28.66 46.69 30.61 47.82 32.57 46.71 32.82 46.86 30.61 48.11"/><polygon class="cls-16" points="30.6 32.74 31.07 32.45 31.07 21 30.61 21.28 30.6 25.57 30.61 25.57 30.61 26.74 30.6 27.27 30.61 27.27 30.6 31.04 30.6 32.74"/><polygon class="cls-16" points="30.6 26.75 30.61 26.74 30.61 25.57 30.6 25.57 30.6 26.75"/><polygon class="cls-11" points="21.33 26.08 21.33 27.57 21.02 27.67 21.02 26.27 21.26 26.13 21.33 26.08"/><polygon class="cls-9" points="39.91 26.1 39.98 26.14 40.22 26.29 40.45 26.14 40.46 26.14 40.93 25.84 41.19 25.67 40.93 25.51 40.87 25.47 40.46 25.74 40.45 25.74 39.98 26.05 39.91 26.1"/><polygon class="cls-16" points="20.29 15.25 30.62 21.25 40.93 15.27 30.67 9.26 20.29 15.25"/><polygon class="cls-11" points="39.98 15.28 40.06 26 40.45 26.14 40.45 25.31 40.45 21.55 40.45 21.55 40.45 21.02 40.45 19.85 40.45 19.84 40.45 15.56 39.98 15.28"/><polygon class="cls-16" points="40.46 21.02 40.45 21.02 40.45 19.85 40.45 19.84 40.46 21.02"/><polyline class="cls-16" points="40.93 25.84 40.93 15.27 40.45 15.56 40.45 19.84 40.46 21.02 40.45 21.02 40.45 21.55 40.46 25.32 40.45 25.31 40.45 26.14"/><rect class="cls-16" x="38.57" y="23.43" width="3.77" transform="translate(-0.45 46.06) rotate(-59.04)"/><polygon class="cls-4" points="40.22 26.29 40.22 27.68 40.46 27.54 40.66 27.42 40.84 26.83 40.93 26.53 41.19 25.67 40.93 25.84 40.46 26.14 40.45 26.14 40.22 26.29"/><polygon class="cls-11" points="39.91 26.1 39.91 27.58 40.22 27.68 40.22 26.29 39.98 26.14 39.91 26.1"/><polygon class="cls-4" points="39.14 19.37 39.14 19.63 39.93 19.19 39.93 19.18 40.74 18.72 41.54 18.28 41.29 18.13 40.95 17.95 40.95 18.33 40.51 18.58 40.5 18.58 39.14 19.37"/><polygon class="cls-9" points="39.14 19.63 39.14 19.94 40.75 19.03 40.75 19.02 41.54 18.58 41.54 18.28 40.74 18.72 40.75 18.73 39.93 19.19 39.14 19.63"/><polygon class="cls-9" points="39.93 19.18 39.93 19.19 40.75 18.73 40.74 18.72 39.93 19.18"/><polygon class="cls-4" points="39.14 20.62 39.14 20.88 39.93 20.44 39.93 20.43 40.74 19.97 41.54 19.53 41.31 19.39 41.29 19.38 40.95 19.19 40.95 19.57 40.51 19.83 40.5 19.83 39.14 20.62"/><polygon class="cls-4" points="41.29 19.38 41.31 19.39 41.32 19.39 41.29 19.38"/><polygon class="cls-9" points="39.14 20.88 39.14 21.19 40.75 20.28 40.75 20.27 41.54 19.83 41.54 19.53 40.74 19.97 40.75 19.98 39.93 20.44 39.14 20.88"/><polygon class="cls-9" points="39.93 20.43 39.93 20.44 40.75 19.98 40.74 19.97 39.93 20.43"/><polygon class="cls-4" points="39.14 21.86 39.14 22.12 39.93 21.68 39.93 21.67 40.74 21.21 41.54 20.77 41.29 20.62 41.29 20.62 40.95 20.44 40.95 20.82 40.51 21.07 40.5 21.07 39.14 21.86"/><polygon class="cls-9" points="39.14 22.12 39.14 22.43 40.75 21.52 40.75 21.52 41.54 21.07 41.54 20.77 40.74 21.21 40.75 21.22 39.93 21.68 39.14 22.12"/><polygon class="cls-9" points="39.93 21.67 39.93 21.68 40.75 21.22 40.74 21.21 39.93 21.67"/><polygon class="cls-4" points="39.14 23.55 39.14 23.81 39.93 23.36 39.93 23.35 40.74 22.9 41.54 22.45 41.29 22.3 40.95 22.1 40.95 22.5 40.51 22.76 40.5 22.75 39.14 23.55"/><polygon class="cls-9" points="39.14 23.81 39.14 24.12 40.75 23.2 40.75 23.2 41.54 22.75 41.54 22.45 40.74 22.9 40.75 22.9 39.93 23.36 39.14 23.81"/><polygon class="cls-9" points="39.93 23.35 39.93 23.36 40.75 22.9 40.74 22.9 39.93 23.35"/><polygon class="cls-9" points="39.14 25.05 39.14 25.37 40.75 24.45 40.75 24.45 41.54 24 41.54 23.7 40.74 24.15 40.75 24.15 39.93 24.61 39.14 25.05"/><polygon class="cls-9" points="39.93 24.6 39.93 24.61 40.75 24.15 40.74 24.15 39.93 24.6"/><polygon class="cls-4" points="30.65 19.46 21.98 14.52 21.98 13.19 30.65 18.13 30.65 19.46"/><polygon class="cls-11" points="30.62 21.25 30.67 8.91 40.93 15.27 30.62 21.25"/><polygon class="cls-9" points="30.65 19.49 39.32 14.55 39.32 13.21 30.65 18.15 30.65 19.49"/><polygon class="cls-22" points="30.64 8.07 30.65 18.15 21.98 13.19 30.64 8.07"/><polyline class="cls-17" points="39.33 13.19 30.64 8.07 30.67 18.15"/><polygon class="cls-11" points="26.08 16.95 24.89 16.27 24.89 16.21 26.08 16.9 26.08 16.95"/><polygon class="cls-13" points="26.03 16.67 25.58 16.4 25.58 15.33 26.03 15.59 26.03 16.67"/><path class="cls-14" d="M26,16.69l-.48-.28V15.3l.48.28Zm-.45-.3.43.25v-1l-.43-.24Z"/><polygon class="cls-14" points="25.71 16.48 25.68 16.46 25.68 15.39 25.71 15.4 25.71 16.48"/><polygon class="cls-14" points="25.93 16.61 25.9 16.59 25.9 15.52 25.93 15.53 25.93 16.61"/><polygon class="cls-14" points="26.03 16.15 25.58 15.88 25.58 15.85 26.03 16.11 26.03 16.15"/><polygon class="cls-13" points="25.42 16.31 24.96 16.05 24.96 14.97 25.42 15.24 25.42 16.31"/><path class="cls-14" d="M25.43,16.34,25,16.06V15l.48.28ZM25,16l.42.24v-1L25,15Z"/><polygon class="cls-14" points="25.09 16.13 25.06 16.11 25.06 15.03 25.09 15.05 25.09 16.13"/><polygon class="cls-14" points="25.32 16.25 25.29 16.24 25.29 15.16 25.32 15.18 25.32 16.25"/><polygon class="cls-14" points="25.42 15.79 24.96 15.53 24.96 15.49 25.42 15.76 25.42 15.79"/><polygon class="cls-12" points="26.08 16.89 24.89 16.21 24.89 16.15 26.08 16.84 26.08 16.89"/><polygon class="cls-4" points="26.11 16.94 24.87 16.22 24.87 16.16 26.11 16.89 26.11 16.94"/><polygon class="cls-11" points="34.99 17.12 36.18 16.43 36.18 16.38 34.99 17.06 34.99 17.12"/><polygon class="cls-13" points="35.04 16.83 35.49 16.57 35.49 15.49 35.04 15.76 35.04 16.83"/><path class="cls-14" d="M35,15.75l.48-.28v1.11l-.48.28Zm.45-.23-.43.25v1l.43-.24Z"/><line class="cls-21" x1="35.38" y1="15.56" x2="35.38" y2="16.64"/><polygon class="cls-14" points="35.37 16.64 35.39 16.63 35.39 15.55 35.37 15.57 35.37 16.64"/><polygon class="cls-14" points="35.14 16.77 35.17 16.76 35.17 15.68 35.14 15.7 35.14 16.77"/><polygon class="cls-14" points="35.04 16.31 35.49 16.05 35.49 16.01 35.04 16.27 35.04 16.31"/><polygon class="cls-13" points="35.65 16.48 36.11 16.21 36.11 15.14 35.65 15.4 35.65 16.48"/><path class="cls-14" d="M35.64,15.39l.48-.28v1.12l-.48.28Zm.45-.22-.42.24v1l.42-.25Z"/><line class="cls-21" x1="35.99" y1="15.21" x2="35.99" y2="16.28"/><polygon class="cls-14" points="35.98 16.29 36.01 16.27 36.01 15.2 35.98 15.22 35.98 16.29"/><polygon class="cls-14" points="35.75 16.42 35.78 16.4 35.78 15.33 35.75 15.35 35.75 16.42"/><polygon class="cls-14" points="35.65 15.96 36.11 15.7 36.11 15.66 35.65 15.92 35.65 15.96"/><polygon class="cls-12" points="34.99 17.06 36.18 16.37 36.18 16.32 34.99 17 34.99 17.06"/><polygon class="cls-4" points="34.96 17.11 36.2 16.39 36.2 16.33 34.96 17.05 34.96 17.11"/><polygon class="cls-16" points="30.59 18.13 30.57 8.19 22.02 13.24 21.95 13.13 30.71 7.96 30.72 18.13 30.59 18.13"/><polygon class="cls-16" points="39.18 13.26 30.59 8.13 30.7 8.03 39.44 13.26 39.18 13.26"/><polygon class="cls-4" points="22.27 15.46 21.55 15.06 21.55 13.38 22.27 13.78 22.27 15.46"/><polygon class="cls-12" points="21.55 13.38 21.94 13.11 22.61 13.5 22.27 13.78 21.55 13.38"/><polyline class="cls-9" points="22.27 15.46 22.61 15.13 22.61 13.5 22.27 13.78 22.27 15.42"/><polygon class="cls-4" points="24.35 16.69 23.64 16.29 23.64 14.61 24.35 15.01 24.35 16.69"/><polygon class="cls-12" points="23.64 14.61 24.03 14.35 24.69 14.73 24.35 15.01 23.64 14.61"/><polyline class="cls-9" points="24.35 16.69 24.69 16.37 24.69 14.73 24.35 15.01 24.35 16.65"/><polygon class="cls-4" points="26.65 18.03 25.93 17.63 25.93 15.94 26.65 16.35 26.65 18.03"/><polygon class="cls-12" points="25.93 15.94 26.32 15.68 26.99 16.07 26.65 16.35 25.93 15.94"/><polyline class="cls-9" points="26.65 18.03 26.99 17.7 26.99 16.07 26.65 16.35 26.65 17.99"/><polygon class="cls-4" points="30.31 20.11 29.59 19.7 29.59 18.02 30.31 18.43 30.31 20.11"/><polygon class="cls-12" points="29.59 18.02 29.99 17.76 30.65 18.14 30.31 18.43 29.59 18.02"/><polyline class="cls-9" points="30.31 20.11 30.65 19.78 30.65 18.14 30.31 18.43 30.31 20.07"/><polygon class="cls-4" points="31.03 20.11 31.75 19.7 31.75 18.02 31.03 18.43 31.03 20.11"/><polygon class="cls-12" points="31.75 18.02 31.35 17.76 30.69 18.14 31.03 18.43 31.75 18.02"/><polyline class="cls-11" points="31.03 20.11 30.69 19.78 30.69 18.14 31.03 18.43 31.03 20.07"/><polygon class="cls-4" points="34.23 18.28 34.95 17.88 34.95 16.2 34.23 16.6 34.23 18.28"/><polygon class="cls-12" points="34.95 16.2 34.55 15.94 33.89 16.32 34.23 16.6 34.95 16.2"/><polyline class="cls-11" points="34.23 18.28 33.89 17.95 33.89 16.32 34.23 16.6 34.23 18.24"/><polygon class="cls-4" points="36.58 16.92 37.3 16.52 37.3 14.83 36.58 15.24 36.58 16.92"/><polygon class="cls-12" points="37.3 14.83 36.91 14.57 36.24 14.96 36.58 15.24 37.3 14.83"/><polyline class="cls-11" points="36.58 16.92 36.24 16.59 36.24 14.96 36.58 15.24 36.58 16.88"/><polygon class="cls-4" points="38.99 15.52 39.71 15.12 39.71 13.44 38.99 13.84 38.99 15.52"/><polygon class="cls-12" points="39.71 13.44 39.32 13.18 38.65 13.56 38.99 13.84 39.71 13.44"/><polyline class="cls-11" points="38.99 15.52 38.65 15.19 38.65 13.56 38.99 13.84 38.99 15.48"/><polygon class="cls-4" points="30.61 21.19 30.59 21.6 28.63 20.39 28.14 20.7 27.85 20.86 21.83 17.41 21.68 17.33 21.9 17.16 20.38 16.3 20.73 16.08 22.11 16.88 22.11 17.26 27.79 20.5 28.63 20.01 30.61 21.19"/><polygon class="cls-11" points="27.85 20.86 27.84 21.28 21.68 17.71 21.68 17.33 21.83 17.41 27.85 20.86"/><polygon class="cls-11" points="28.63 20.39 28.63 20.73 30.59 21.95 30.59 21.6 28.63 20.39"/><polygon class="cls-11" points="21.9 17.16 21.68 17.33 21.68 17.38 20.38 16.64 20.38 16.3 21.9 17.16"/><polyline class="cls-9" points="27.84 21.28 28.63 20.73 28.63 20.39 27.85 20.86 27.84 21.28"/><polygon class="cls-4" points="30.59 21.18 30.59 21.6 32.56 20.41 33.05 20.73 33.34 20.89 39.37 17.44 39.51 17.35 39.29 17.18 40.81 16.32 40.46 16.11 39.09 16.91 39.09 17.28 33.4 20.52 32.56 20.04 30.59 21.18"/><polygon class="cls-11" points="33.34 20.89 33.35 21.3 39.51 17.73 39.51 17.35 39.37 17.44 33.34 20.89"/><polygon class="cls-20" points="32.56 20.41 32.56 20.75 30.59 21.95 30.59 21.6 32.56 20.41"/><polygon class="cls-20" points="39.29 17.18 39.51 17.35 39.51 17.4 40.81 16.66 40.81 16.32 39.29 17.18"/><polyline class="cls-9" points="33.35 21.3 32.56 20.75 32.56 20.41 33.34 20.89 33.35 21.3"/><path class="cls-23" d="M22.84,37.57s.41-.16.55-.08a1.74,1.74,0,0,0,.33.12.87.87,0,0,1-1.12.21l0-.12Z"/><path class="cls-24" d="M22.84,37.57s.41-.16.55-.08a1.74,1.74,0,0,0,.33.12.87.87,0,0,1-1.12.21l0-.12Z"/><path class="cls-23" d="M22.08,37.89c-.13,0-.61,0-.5.23s.15.43.36.34A.56.56,0,0,0,22.3,38C22.3,37.84,22.14,37.88,22.08,37.89Z"/><path class="cls-23" d="M22.68,37.56a2.62,2.62,0,0,1-.49-.15.31.31,0,0,0-.35,0s.2.08.25.17.15.29.29.23A1.16,1.16,0,0,0,22.68,37.56Z"/><path class="cls-23" d="M22.86,37.62s.09-.29.27-.27c0,0,0,0,.05,0s0,0-.08-.05-.06-.12-.16,0a1.36,1.36,0,0,1-.4.34s-.37.18-.44.35h0l.18.13A.8.8,0,0,0,22.86,37.62Z"/><path class="cls-25" d="M22.68,37.56a2.62,2.62,0,0,1-.49-.15.31.31,0,0,0-.35,0s.2.08.25.17.15.29.29.23A1.16,1.16,0,0,0,22.68,37.56Z"/><g class="cls-26"><path class="cls-27" d="M23,37.3s0,0,0,0a0,0,0,1,0,0,0Z"/></g><g class="cls-26"><path class="cls-27" d="M22.14,37.89a.07.07,0,0,0,.06,0,.07.07,0,0,0,.05,0s0,0,0,0,0,0,0,0,0,0,0,0,0,0,0,0Z"/></g><g class="cls-26"><path class="cls-27" d="M22.29,38.06l0,0s0,0,0,0l0,0,0,0s0,0,0,0l0,0s0,0,0,0a.05.05,0,0,0,0,0l0,0s0,0,0,0Z"/></g><g class="cls-28"><path class="cls-3" d="M23.56,37.67l.06,0s0,0,0,0l-.06,0s0,0,0,0Z"/><path class="cls-3" d="M23.49,37.69l.09.05s0,0,0,0a.14.14,0,0,1-.08,0Z"/><path class="cls-3" d="M23.38,37.71a.55.55,0,0,0,.15.08s0,0,0,0a.39.39,0,0,1-.14-.08Z"/><path class="cls-3" d="M23.3,37.73l.16.1h0l-.15-.1Z"/><path class="cls-3" d="M23.23,37.75l.16.1h0l-.15-.1Z"/><path class="cls-3" d="M23.17,37.78a.6.6,0,0,0,.15.09s0,0,0,0l-.15-.08Z"/><path class="cls-3" d="M23.1,37.81l.12.1h0l-.13-.1Z"/><path class="cls-3" d="M23.05,37.83a.58.58,0,0,0,.12.1s0,0,0,0a.35.35,0,0,1-.11-.1Z"/><path class="cls-3" d="M23,37.87l.07.06h0L23,37.86Z"/><path class="cls-3" d="M23,37.88l.05,0a0,0,0,0,0,0,0l-.06,0Z"/><path class="cls-3" d="M22.91,37.87l0,0h0l0,0Z"/><path class="cls-3" d="M22.86,37.87l0,0h0l0,0Z"/></g><g class="cls-28"><path class="cls-3" d="M22,37.4l0,0h0s0,0,0,0,0,0,0,0Z"/><path class="cls-3" d="M22.07,37.4l-.09.05s0,0,0,0l.09-.06Z"/><path class="cls-3" d="M22.11,37.41a.26.26,0,0,0-.11.07h0a.24.24,0,0,1,.12-.07,0,0,0,0,0,0,0Z"/><path class="cls-3" d="M22.18,37.42l-.11,0h0l.1,0Z"/><path class="cls-3" d="M22.24,37.46l-.11,0h0l.1,0s0,0,0,0Z"/><path class="cls-3" d="M22.29,37.48l-.12.05h0l.12-.06Z"/><path class="cls-3" d="M22.36,37.49l-.13.06s0,0,0,0l.14-.06Z"/><path class="cls-3" d="M22.42,37.51Z"/><path class="cls-3" d="M22.4,37.52l-.15,0s0,0,0,0l.16,0Z"/></g><path class="cls-23" d="M30.12,15s-.63-.24-.85-.12a3.27,3.27,0,0,1-.5.19,1.32,1.32,0,0,0,1.72.32l0-.18Z"/><path class="cls-29" d="M30.12,15s-.63-.24-.85-.12a3.27,3.27,0,0,1-.5.19,1.32,1.32,0,0,0,1.72.32l0-.18Z"/><path class="cls-30" d="M31.29,15.46c.22,0,1,0,.79.35s-.23.67-.57.54a.88.88,0,0,1-.55-.73C31,15.38,31.2,15.45,31.29,15.46Z"/><path class="cls-23" d="M30.38,14.94a4.57,4.57,0,0,0,.75-.22.46.46,0,0,1,.54.06c0,.05-.31.13-.38.26s-.24.45-.46.35A1.5,1.5,0,0,1,30.38,14.94Z"/><path class="cls-30" d="M30.09,15s-.14-.45-.41-.41l-.09,0s0,0,.13-.08.09-.19.24,0a2.47,2.47,0,0,0,.62.52s.58.27.68.53h0l-.27.21A1.22,1.22,0,0,1,30.09,15Z"/><path class="cls-31" d="M30.45,14.79a5.92,5.92,0,0,0,.7-.11.62.62,0,0,1,.52.09s-.28.08-.34.18-.19.33-.41.24A2,2,0,0,1,30.45,14.79Z"/><g class="cls-26"><path class="cls-27" d="M29.83,14.58a.06.06,0,1,0,0-.12.06.06,0,0,0,0,.12Z"/></g><g class="cls-26"><path class="cls-27" d="M31.16,15.43l0,0h0s0,0,0,0h-.06a0,0,0,0,0-.05,0,0,0,0,0,0,0,.05.11.11,0,0,0,.11.07.12.12,0,0,0,.1-.07s0,0,0-.05-.05,0-.05,0Z"/></g><g class="cls-26"><path class="cls-27" d="M31,15.76a.34.34,0,0,0,.08-.09s0-.05,0-.07,0,0-.06,0h0a.06.06,0,0,0-.06,0s0,0,0,.05,0,0,.07,0h0s0,0,0,0h0l0,.05a0,0,0,0,0,0,0Z"/></g><g class="cls-28"><path class="cls-3" d="M29,15.1a.18.18,0,0,1-.09,0s0,0,0,0h0l.1,0s0-.05,0,0Z"/><path class="cls-3" d="M29.1,15.13a.33.33,0,0,1-.13.07s0,0,0,0,0,0,0,0a.42.42,0,0,0,.14-.09s0,0,0,0Z"/><path class="cls-3" d="M29.27,15.16a1.19,1.19,0,0,1-.22.12s0,0,0,0h0a.76.76,0,0,0,.23-.13,0,0,0,0,0,0,0Z"/><path class="cls-3" d="M29.39,15.19a1.43,1.43,0,0,1-.24.16s0,0,0,0a1.43,1.43,0,0,0,.24-.16s0,0,0,0Z"/><path class="cls-3" d="M29.5,15.23l-.24.15s0,0,0,0l.24-.15s0,0,0,0Z"/><path class="cls-3" d="M29.6,15.27l-.23.14s0,0,0,0a1.71,1.71,0,0,0,.23-.13s0-.05,0,0Z"/><path class="cls-3" d="M29.7,15.31a.84.84,0,0,1-.18.15s0,0,0,0h0l.19-.16a0,0,0,1,0,0,0Z"/><path class="cls-3" d="M29.78,15.34a.55.55,0,0,1-.18.16s0,.05,0,0a.55.55,0,0,0,.18-.16,0,0,0,0,0,0,0Z"/><path class="cls-3" d="M29.84,15.4l-.11.1s0,0,0,0h0l.1-.1s0,0,0,0Z"/><path class="cls-3" d="M29.91,15.42l-.08.06s0,0,0,0l.09-.07s0,0,0,0Z"/><path class="cls-3" d="M30,15.41l-.06.06s0,0,0,0l.06-.06s0,0,0,0Z"/><path class="cls-3" d="M30.09,15.41l-.06,0v0h0l0,0s0,0,0,0a0,0,0,0,0,0,0Z"/></g><g class="cls-28"><path class="cls-3" d="M31.39,14.72l0,0h0a0,0,0,0,0,0,0l0,0h0s0,0,0,0Z"/><path class="cls-3" d="M31.31,14.72l.14.08s0,0,0,0a0,0,0,0,0,0,0,.67.67,0,0,1-.14-.09h0a0,0,0,0,0,0,0Z"/><path class="cls-3" d="M31.24,14.74a.45.45,0,0,1,.17.11s0,0,0,0a.55.55,0,0,0-.19-.12s0,0,0,0Z"/><path class="cls-3" d="M31.14,14.76a.76.76,0,0,0,.16.06s0,0,0,0l-.15-.06h0a0,0,0,0,0,0,0Z"/><path class="cls-3" d="M31,14.82a.44.44,0,0,1,.16.06h0a0,0,0,0,0,0,0,.85.85,0,0,0-.17-.06s0,0,0,0Z"/><path class="cls-3" d="M31,14.84l.18.09h0a0,0,0,0,0,0,0L31,14.81h0s0,0,0,0Z"/><path class="cls-3" d="M30.85,14.86l.21.1h0a0,0,0,0,0,0,0l-.21-.09s0,0,0,0,0,0,0,0Z"/><path class="cls-3" d="M30.77,14.89a0,0,0,1,0,0,0s0,0,0,0Z"/><path class="cls-3" d="M30.79,14.91,31,15a0,0,0,0,0,0,0l-.24-.08a0,0,0,0,0,0,0Z"/></g></g></g></g></svg>