<svg width="60" height="60" viewBox="0 0 60 60" fill="none" xmlns="http://www.w3.org/2000/svg">
<path d="M38.9 36.0799C38.9786 35.8063 39.1242 35.5567 39.3237 35.3536C39.5232 35.1506 39.7702 35.0006 40.0423 34.9171C40.3144 34.8337 40.6031 34.8195 40.8821 34.8759C41.1611 34.9322 41.4216 35.0574 41.64 35.2399C42.0561 35.2047 42.4705 35.3239 42.8043 35.5747C43.1381 35.8255 43.368 36.1904 43.45 36.5999C43.45 36.5999 44.93 36.8199 44.66 37.8399C44.39 38.8599 43.79 38.7499 43.05 38.5499C43.05 38.5499 42.68 39.1499 41.57 38.6999C41.57 38.6999 40.13 39.2899 39.51 38.2099C39.51 38.2099 38.2 38.4499 38.23 37.2899C38.26 36.1299 38.8 36.0599 38.9 36.0799Z" fill="#E6EFFC"/>
<path d="M38.92 36.08C39.0072 36.0166 39.1122 35.9824 39.22 35.9824C39.3278 35.9824 39.4329 36.0166 39.52 36.08" fill="#E6EFFC"/>
<path d="M38.92 36.0899C39.005 36.0258 39.1086 35.9911 39.215 35.9911C39.3215 35.9911 39.425 36.0258 39.51 36.0899C39.4198 36.0248 39.3113 35.9897 39.2 35.9897C39.0887 35.9897 38.9803 36.0248 38.89 36.0899H38.92Z" fill="#D8D6D6"/>
<path d="M38.53 36.5899C38.72 36.2999 39.17 36.0399 39.53 36.2399Z" fill="#E6EFFC"/>
<path d="M38.54 36.5899C38.73 36.3199 39.15 36.0599 39.48 36.2499C39.2977 36.1814 39.097 36.18 38.9138 36.246C38.7305 36.312 38.5768 36.441 38.48 36.6099L38.54 36.5899Z" fill="#D8D6D6"/>
<path d="M38.28 37C38.5926 36.6366 39.0192 36.3899 39.49 36.3Z" fill="#E6EFFC"/>
<path d="M38.29 37C38.598 36.6361 39.0216 36.389 39.49 36.3C39.012 36.378 38.5785 36.6267 38.27 37H38.29Z" fill="#D8D6D6"/>
<path d="M39.81 37.45C39.7607 37.7426 39.5993 38.0045 39.36 38.18Z" fill="#E6EFFC"/>
<path d="M39.8 37.4499C39.7445 37.7375 39.5841 37.9941 39.35 38.1699C39.5915 37.9921 39.7532 37.7262 39.8 37.4299V37.4499Z" fill="#D8D6D6"/>
<path d="M39.87 37.6699C39.7969 37.8708 39.6885 38.057 39.55 38.2199Z" fill="#E6EFFC"/>
<path d="M39.8601 37.6699C39.7825 37.8635 39.6781 38.0453 39.55 38.2099C39.6916 38.0474 39.8033 37.8612 39.8801 37.6599L39.8601 37.6699Z" fill="#D8D6D6"/>
<path d="M39.87 37.8999C39.8702 37.9488 39.8547 37.9965 39.826 38.0361C39.7972 38.0757 39.7566 38.105 39.71 38.1199" fill="#E6EFFC"/>
<path d="M39.86 37.8999C39.8588 37.9459 39.8439 37.9905 39.8172 38.0279C39.7905 38.0653 39.7531 38.0939 39.71 38.1099C39.7584 38.0935 39.8007 38.0627 39.8311 38.0216C39.8615 37.9805 39.8786 37.931 39.88 37.8799L39.86 37.8999Z" fill="#D8D6D6"/>
<path d="M42.14 38.63C42.3084 38.6472 42.4784 38.6213 42.634 38.5548C42.7897 38.4884 42.9259 38.3835 43.03 38.25" fill="#E6EFFC"/>
<path d="M42.14 38.64C42.3125 38.6596 42.4871 38.6339 42.6467 38.5655C42.8062 38.4971 42.9452 38.3884 43.05 38.25C42.9509 38.3865 42.8169 38.4937 42.6621 38.5606C42.5073 38.6275 42.3373 38.6514 42.17 38.63L42.14 38.64Z" fill="#D8D6D6"/>
<path d="M42.46 38.4398C42.5626 38.4255 42.6601 38.386 42.7438 38.325C42.8275 38.2639 42.8949 38.1832 42.94 38.0898" fill="#E6EFFC"/>
<path d="M42.46 38.4498C42.5696 38.4402 42.6739 38.3985 42.76 38.3298C42.8415 38.2661 42.9066 38.1838 42.95 38.0898C42.9036 38.1791 42.8389 38.2575 42.76 38.3198C42.679 38.3841 42.5823 38.4255 42.48 38.4398L42.46 38.4498Z" fill="#D8D6D6"/>
<path d="M42.3 38.3401C42.5016 38.296 42.6879 38.1994 42.84 38.0601Z" fill="#E6EFFC"/>
<path d="M42.3 38.3601C42.5054 38.3125 42.6948 38.2126 42.85 38.0701C42.703 38.2111 42.5194 38.3081 42.32 38.3501L42.3 38.3601Z" fill="#D8D6D6"/>
<path d="M41.4399 35.63C41.5715 35.5279 41.7334 35.4724 41.8999 35.4724C42.0665 35.4724 42.2284 35.5279 42.3599 35.63" fill="#E6EFFC"/>
<path d="M41.45 35.6399C41.5808 35.5401 41.7406 35.4861 41.905 35.4861C42.0695 35.4861 42.2293 35.5401 42.36 35.6399C42.224 35.5392 42.0593 35.4849 41.89 35.4849C41.7208 35.4849 41.5561 35.5392 41.42 35.6399H41.45Z" fill="#D8D6D6"/>
<path d="M41.73 35.7599C41.7666 35.7159 41.8124 35.6804 41.8643 35.6561C41.9161 35.6318 41.9727 35.6191 42.03 35.6191C42.0873 35.6191 42.1438 35.6318 42.1957 35.6561C42.2475 35.6804 42.2934 35.7159 42.33 35.7599" fill="#E6EFFC"/>
<path d="M41.7399 35.7699C41.7741 35.7256 41.8181 35.6899 41.8684 35.6656C41.9188 35.6413 41.9741 35.6291 42.0299 35.6299C42.0857 35.6298 42.1408 35.6424 42.191 35.6667C42.2412 35.6909 42.2853 35.7262 42.3199 35.7699C42.2827 35.7194 42.2346 35.678 42.1792 35.6486C42.1238 35.6192 42.0626 35.6025 41.9999 35.5999C41.9404 35.6002 41.8816 35.6138 41.828 35.6398C41.7743 35.6657 41.7272 35.7033 41.6899 35.7499L41.7399 35.7699Z" fill="#D8D6D6"/>
<path d="M42 35.8499C42.13 35.8499 42.29 35.8499 42.35 35.9499Z" fill="#E6EFFC"/>
<path d="M42 35.87C42.12 35.87 42.28 35.87 42.34 35.96C42.299 35.9065 42.2417 35.8677 42.1767 35.8497C42.1118 35.8316 42.0427 35.8353 41.98 35.86L42 35.87Z" fill="#D8D6D6"/>
<path d="M44.22 37.1599C44.41 37.3822 44.5099 37.6676 44.5 37.9599Z" fill="#E6EFFC"/>
<path d="M44.2099 37.1699C44.4002 37.3881 44.5003 37.6706 44.49 37.9599C44.4977 37.6632 44.3943 37.3743 44.2 37.1499L44.2099 37.1699Z" fill="#D8D6D6"/>
<path d="M44.0601 37.3201C44.1461 37.3863 44.2082 37.4787 44.2371 37.5833C44.2659 37.6879 44.26 37.7991 44.2201 37.9001" fill="#E6EFFC"/>
<path d="M44.05 37.3301C44.0936 37.3583 44.1311 37.395 44.1602 37.4379C44.1894 37.4808 44.2098 37.5292 44.22 37.5801C44.245 37.6819 44.245 37.7882 44.22 37.89C44.2499 37.7821 44.2499 37.668 44.22 37.5601C44.2093 37.5068 44.1878 37.4562 44.1568 37.4115C44.1259 37.3668 44.0861 37.3289 44.04 37.3L44.05 37.3301Z" fill="#D8D6D6"/>
<path d="M44 37.51C44.0333 37.551 44.0515 37.6022 44.0515 37.655C44.0515 37.7078 44.0333 37.759 44 37.8" fill="#E6EFFC"/>
<path d="M44 37.52C44.0311 37.5602 44.0486 37.6092 44.05 37.66C44.0486 37.7077 44.031 37.7536 44 37.79C44.0127 37.7408 44.0127 37.6892 44 37.64C44.0154 37.5912 44.0154 37.5388 44 37.49V37.52Z" fill="#D8D6D6"/>
<path d="M16.09 26.75C16.09 26.75 16.87 24.35 19.31 25.75C19.7949 25.7132 20.2766 25.8544 20.6649 26.147C21.0533 26.4397 21.3217 26.8638 21.42 27.34C21.42 27.34 23.16 27.6 22.84 28.79C22.52 29.98 21.84 29.86 20.96 29.63C20.96 29.63 20.52 30.33 19.22 29.8C19.22 29.8 17.54 30.5 16.82 29.23C16.82 29.23 15.28 29.52 15.31 28.15C15.34 26.78 16 26.73 16.09 26.75Z" fill="#E6EFFC"/>
<path d="M16.12 26.7499C16.2241 26.6772 16.348 26.6382 16.475 26.6382C16.602 26.6382 16.7259 26.6772 16.83 26.7499" fill="#E6EFFC"/>
<path d="M16.12 26.7599C16.2231 26.6894 16.3451 26.6516 16.47 26.6516C16.5949 26.6516 16.7169 26.6894 16.82 26.7599C16.7123 26.6868 16.5851 26.6477 16.455 26.6477C16.3248 26.6477 16.1977 26.6868 16.09 26.7599H16.12Z" fill="#D8D6D6"/>
<path d="M15.67 27.3499C15.89 27.0099 16.41 26.7099 16.79 26.9399Z" fill="#E6EFFC"/>
<path d="M15.68 27.3601C15.9 27.0301 16.39 26.7201 16.78 26.9501C16.5726 26.8688 16.3427 26.8655 16.133 26.941C15.9233 27.0164 15.7482 27.1653 15.64 27.3601H15.68Z" fill="#D8D6D6"/>
<path d="M15.37 27.8C15.7412 27.3828 16.2409 27.1013 16.79 27Z" fill="#E6EFFC"/>
<path d="M15.38 27.8C15.7476 27.3835 16.2439 27.1019 16.79 27C16.2318 27.1034 15.7266 27.3966 15.36 27.83L15.38 27.8Z" fill="#D8D6D6"/>
<path d="M17.16 28.3599C17.1019 28.7021 16.916 29.0094 16.64 29.2199Z" fill="#E6EFFC"/>
<path d="M17.15 28.3598C17.0859 28.697 16.901 28.9992 16.63 29.2098C16.9041 28.9917 17.0919 28.6834 17.16 28.3398L17.15 28.3598Z" fill="#D8D6D6"/>
<path d="M17.24 28.6199C17.1487 28.8523 17.0204 29.0685 16.86 29.2599Z" fill="#E6EFFC"/>
<path d="M17.22 28.6199C17.14 28.8525 17.0142 29.0667 16.85 29.2499C17.0142 29.0575 17.1429 28.8374 17.23 28.5999L17.22 28.6199Z" fill="#D8D6D6"/>
<path d="M17.24 28.8799C17.239 28.9375 17.2202 28.9934 17.1862 29.0399C17.1522 29.0865 17.1046 29.1214 17.05 29.1399" fill="#E6EFFC"/>
<path d="M17.22 28.8799C17.2213 28.934 17.2056 28.9873 17.1751 29.0321C17.1446 29.0769 17.1009 29.1111 17.05 29.1299C17.1081 29.1093 17.1584 29.0715 17.1942 29.0214C17.23 28.9713 17.2495 28.9114 17.25 28.8499L17.22 28.8799Z" fill="#D8D6D6"/>
<path d="M19.89 29.74C20.0892 29.7651 20.2915 29.7366 20.4761 29.6575C20.6606 29.5784 20.8208 29.4516 20.94 29.29" fill="#E6EFFC"/>
<path d="M19.89 29.76C20.0995 29.7932 20.314 29.7677 20.5099 29.6865C20.7058 29.6054 20.8754 29.4716 21 29.3C20.8848 29.4527 20.7324 29.5732 20.5573 29.6503C20.3823 29.7273 20.1904 29.7582 20 29.74L19.89 29.76Z" fill="#D8D6D6"/>
<path d="M20.27 29.5199C20.3901 29.5034 20.5041 29.4572 20.6019 29.3857C20.6996 29.3141 20.778 29.2193 20.83 29.1099" fill="#E6EFFC"/>
<path d="M20.27 29.5299C20.3939 29.5148 20.5114 29.4664 20.61 29.3899C20.7099 29.3183 20.7893 29.2218 20.84 29.1099C20.786 29.217 20.7072 29.3095 20.61 29.3799C20.5153 29.4565 20.401 29.5051 20.28 29.5199L20.27 29.5299Z" fill="#D8D6D6"/>
<path d="M20.08 29.4101C20.3199 29.3562 20.541 29.2388 20.72 29.0701Z" fill="#E6EFFC"/>
<path d="M20.08 29.4201C20.322 29.3639 20.5458 29.2469 20.73 29.0801C20.5538 29.2452 20.336 29.3593 20.1 29.4101L20.08 29.4201Z" fill="#D8D6D6"/>
<path d="M19.0699 26.2299C19.2266 26.1107 19.4181 26.0461 19.6149 26.0461C19.8118 26.0461 20.0033 26.1107 20.1599 26.2299" fill="#E6EFFC"/>
<path d="M19.08 26.2399C19.2349 26.1255 19.4224 26.0637 19.615 26.0637C19.8077 26.0637 19.9952 26.1255 20.15 26.2399C19.9918 26.1199 19.7987 26.0549 19.6 26.0549C19.4014 26.0549 19.2083 26.1199 19.05 26.2399H19.08Z" fill="#D8D6D6"/>
<path d="M19.41 26.38C19.4521 26.326 19.506 26.2823 19.5675 26.2522C19.629 26.2222 19.6966 26.2065 19.765 26.2065C19.8335 26.2065 19.9011 26.2222 19.9626 26.2522C20.0241 26.2823 20.078 26.326 20.12 26.38" fill="#E6EFFC"/>
<path d="M19.42 26.39C19.4593 26.3369 19.5106 26.2938 19.5697 26.2643C19.6287 26.2348 19.694 26.2196 19.76 26.22C19.8275 26.2196 19.8941 26.2347 19.9548 26.2642C20.0155 26.2936 20.0686 26.3367 20.11 26.39C20.0651 26.3349 20.0087 26.2903 19.9448 26.2592C19.8809 26.2282 19.811 26.2113 19.74 26.21C19.6704 26.2114 19.602 26.2283 19.5398 26.2595C19.4775 26.2906 19.4229 26.3352 19.38 26.39H19.42Z" fill="#D8D6D6"/>
<path d="M19.71 26.4899C19.7806 26.459 19.8597 26.4531 19.9342 26.473C20.0087 26.493 20.0742 26.5378 20.12 26.5999" fill="#E6EFFC"/>
<path d="M19.7099 26.4999C19.8499 26.4999 20.0299 26.4999 20.1099 26.6099C20.1099 26.6099 19.8299 26.4599 19.6799 26.4999H19.7099Z" fill="#D8D6D6"/>
<path d="M22.33 28C22.5515 28.2623 22.6689 28.5968 22.66 28.94Z" fill="#E6EFFC"/>
<path d="M22.32 28C22.5426 28.2577 22.6604 28.5896 22.65 28.93C22.658 28.5804 22.5329 28.2409 22.3 27.98L22.32 28Z" fill="#D8D6D6"/>
<path d="M22.14 28.21C22.24 28.286 22.3125 28.3925 22.3468 28.5133C22.381 28.6341 22.3752 28.7628 22.33 28.88" fill="#E6EFFC"/>
<path d="M22.13 28.2199C22.2296 28.2891 22.3007 28.3922 22.33 28.5099C22.3647 28.6308 22.3647 28.7591 22.33 28.8799C22.3595 28.7516 22.3595 28.6183 22.33 28.4899C22.3005 28.367 22.2254 28.2598 22.12 28.1899L22.13 28.2199Z" fill="#D8D6D6"/>
<path d="M22.0601 28.4299C22.099 28.478 22.1203 28.538 22.1203 28.5999C22.1203 28.6618 22.099 28.7218 22.0601 28.7699" fill="#E6EFFC"/>
<path d="M22.05 28.4399C22.0846 28.4866 22.1054 28.542 22.1101 28.5999C22.1072 28.6582 22.0862 28.7141 22.05 28.7599C22.0818 28.7052 22.0991 28.6432 22.1 28.5799C22.0987 28.5198 22.0814 28.4612 22.05 28.4099V28.4399Z" fill="#D8D6D6"/>
<path d="M30.5801 8.37996L30.5601 2.95996H30.7501L30.7701 8.37996H30.5801Z" fill="white"/>
<path d="M31.3401 3.62C31.6001 3.83 31.5901 3.74 32.1201 4.08C32.3739 4.22586 32.6147 4.39313 32.8401 4.58C32.9671 4.71058 33.1042 4.83095 33.2501 4.94C33.4554 5.07102 33.688 5.15313 33.9301 5.18C33.8467 5.34885 33.783 5.52667 33.7401 5.71C33.6591 5.94786 33.6252 6.19918 33.6401 6.45C33.6428 6.58535 33.663 6.71979 33.7001 6.85C33.7001 6.96 33.8401 7.29 33.8001 7.18L33.3701 7.08C33.0001 7 33.0001 6.77 32.7101 6.6C32.4201 6.43 32.1701 6.6 31.8701 6.39C31.5701 6.18 31.7101 6.03 31.4101 5.81C31.2134 5.68012 30.9974 5.58224 30.7701 5.52L30.6901 3C30.8828 3.23042 31.1008 3.43839 31.3401 3.62Z" fill="#C1272D"/>
<path d="M30.64 20.67V52.52L20.79 46.83V27.48L21.02 27.62V26.23L20.79 26.08V26.07V14.98L30.64 20.67Z" fill="#E25A5A"/>
<path d="M27.83 20.33V51.68L22.16 48.4001V17.05L27.83 20.33Z" fill="#BF4545"/>
<path d="M22.16 17.0201L23 16.8301L28.67 20.1201L27.83 20.3101L22.16 17.0201Z" fill="#C64444"/>
<path d="M21.33 26.08L21.26 26.13L21.0201 26.27L20.7901 26.12L20.31 25.82L20.05 25.65L20.31 25.5L20.3701 25.46L20.7901 25.73L21.26 26.04L21.33 26.08Z" fill="#C4B098"/>
<path d="M27.83 51.6799L28.7 51.3399L28.67 20.1199L27.83 20.3099V51.6799Z" fill="#9B3938"/>
<path d="M28.67 44.95L27.83 45.47V50.9L28.67 50.4399V44.95Z" fill="#D8CBBB"/>
<path d="M20.8 42.8599L22.76 43.9999L22.5301 44.1199L20.55 43.0099L20.8 42.8599Z" fill="white"/>
<path d="M20.55 43.01V43.31L22.51 44.42L22.5301 44.12L20.55 43.01Z" fill="#C4B098"/>
<path d="M20.8 44.1099L22.76 45.2499L22.5301 45.3699L20.55 44.2599L20.8 44.1099Z" fill="white"/>
<path d="M20.55 44.26V44.56L22.51 45.67L22.5301 45.37L20.55 44.26Z" fill="#C4B098"/>
<path d="M20.8 45.3499L22.76 46.4899L22.5301 46.6099L20.55 45.4999L20.8 45.3499Z" fill="white"/>
<path d="M20.55 45.5V45.8L22.51 46.91L22.5301 46.61L20.55 45.5Z" fill="#C4B098"/>
<path d="M22.16 42.23L27.83 45.47V50.9L22.16 47.62V42.23Z" fill="#F7EFD3"/>
<path d="M23.27 44.32V45.48L22.79 45.2V44.83C22.83 44.42 23 44.21 23.27 44.32Z" fill="#94B8F2"/>
<path d="M23.07 45.4801V47.2901L22.79 47.1301V45.3201L23.07 45.4801Z" fill="#94B8F2"/>
<path d="M23.52 45.73V47.55L23.14 47.33V45.51L23.52 45.73Z" fill="#94B8F2"/>
<path d="M23.83 45.91V47.73L23.58 47.59V45.77L23.83 45.91Z" fill="#94B8F2"/>
<path d="M23.83 45.5499V45.7999L23.34 45.5199V44.3599C23.4861 44.496 23.6038 44.6598 23.6862 44.8418C23.7686 45.0237 23.814 45.2202 23.82 45.4199C23.82 45.4199 23.83 45.5099 23.83 45.5499Z" fill="#94B8F2"/>
<path d="M23.89 45.4501C23.8722 45.0051 23.6864 44.5835 23.37 44.2701V44.1401L23.24 44.0701V44.1901C22.98 44.0901 22.76 44.3301 22.73 44.7801V47.2101L23.89 47.8801V45.4501ZM22.79 44.8301C22.79 44.4201 23.03 44.2101 23.27 44.3201V44.3801V45.5401L22.79 45.2601V44.8301ZM23.07 47.2901L22.79 47.1301V45.3201L23.07 45.4801V47.2901ZM23.52 47.5501L23.14 47.3301V45.5101L23.52 45.7301V47.5501ZM23.83 47.7301L23.58 47.5801V45.7701L23.83 45.9101V47.7301ZM23.34 45.5201V44.3601C23.4861 44.4962 23.6038 44.66 23.6862 44.842C23.7686 45.0239 23.8141 45.2204 23.82 45.4201C23.82 45.4201 23.82 45.5101 23.82 45.5501V45.8001L23.34 45.5201Z" fill="white"/>
<path d="M24.86 45.2001V46.3601L24.38 46.0801V45.7001C24.41 45.2901 24.62 45.0801 24.86 45.2001Z" fill="#94B8F2"/>
<path d="M24.66 46.3499V48.1699L24.38 48.0099V46.1899L24.66 46.3499Z" fill="#94B8F2"/>
<path d="M25.1 46.6099V48.4199L24.72 48.1999V46.3899L25.1 46.6099Z" fill="#94B8F2"/>
<path d="M25.41 46.7899V48.5999L25.17 48.4599V46.6499L25.41 46.7899Z" fill="#94B8F2"/>
<path d="M25.4101 46.43V46.67L24.9301 46.39V45.23C25.2214 45.5119 25.3932 45.8949 25.4101 46.3V46.43Z" fill="#94B8F2"/>
<path d="M25.47 46.3199C25.4686 45.8812 25.3006 45.4594 25 45.1399V44.9999L24.87 44.9199V45.0499C24.6 44.9499 24.39 45.1899 24.36 45.6299V48.0599L25.53 48.7399V46.4399C25.5138 46.3981 25.4937 46.3579 25.47 46.3199ZM24.38 45.6999C24.38 45.2899 24.62 45.0799 24.86 45.1999V45.1499V45.2099V46.3699L24.38 46.0899V45.6999ZM24.66 48.1699L24.38 47.9999V46.1899L24.66 46.3499V48.1699ZM25.1 48.4199L24.72 48.1999V46.3899L25.1 46.6099V48.4199ZM25.41 48.5999L25.17 48.4599V46.6499L25.41 46.7899V48.5999ZM24.93 46.3899V45.2299C25.2213 45.5118 25.3932 45.8949 25.41 46.2999V46.6699L24.93 46.3899Z" fill="white"/>
<path d="M26.38 46.0001V47.1601L25.9 46.8801V46.5101C25.93 46.1101 26.13 45.9001 26.38 46.0001Z" fill="#94B8F2"/>
<path d="M26.17 47.17V48.98L25.89 48.82V47.01L26.17 47.17Z" fill="#94B8F2"/>
<path d="M26.62 47.43V49.24L26.24 49.02V47.21L26.62 47.43Z" fill="#94B8F2"/>
<path d="M26.9301 47.6V49.42L26.6801 49.28V47.46L26.9301 47.6Z" fill="#94B8F2"/>
<path d="M26.9301 47.2401V47.4901L26.4401 47.21V46.05C26.5878 46.187 26.7065 46.3524 26.789 46.5362C26.8714 46.72 26.916 46.9186 26.9201 47.12C26.9283 47.1595 26.9317 47.1998 26.9301 47.2401Z" fill="#94B8F2"/>
<path d="M27 47.14C26.9678 46.7082 26.7794 46.3029 26.47 46V45.8801L26.34 45.8V45.92C26.08 45.83 25.87 46.06 25.83 46.51V48.9001L26.99 49.57V47.14H27ZM25.9 46.53C25.9 46.12 26.13 45.9101 26.38 46.0201V45.9701V47.1301L25.9 46.85V46.53ZM26.17 49L25.9 48.84V47L26.17 47.16V49ZM26.62 49.26L26.24 49V47.21L26.62 47.43V49.26ZM26.93 49.44L26.68 49.3V47.46L26.93 47.6101V49.44ZM26.44 47.23V46.05C26.5877 46.187 26.7064 46.3524 26.7889 46.5362C26.8713 46.72 26.9159 46.9186 26.92 47.12C26.9249 47.1599 26.9249 47.2002 26.92 47.2401V47.4901L26.44 47.23Z" fill="white"/>
<path d="M23.27 38.5V39.66L22.79 39.38V39C22.83 38.6 23 38.39 23.27 38.5Z" fill="#94B8F2"/>
<path d="M23.07 39.66V41.47L22.79 41.31V39.5L23.07 39.66Z" fill="#94B8F2"/>
<path d="M23.52 39.91V41.7299L23.14 41.5099V39.7L23.52 39.91Z" fill="#94B8F2"/>
<path d="M23.83 40.09V41.91L23.58 41.77V39.95L23.83 40.09Z" fill="#94B8F2"/>
<path d="M23.83 39.73V40L23.34 39.72V38.54C23.4861 38.6762 23.6038 38.84 23.6862 39.0219C23.7686 39.2039 23.814 39.4004 23.82 39.6C23.82 39.6 23.83 39.69 23.83 39.73Z" fill="#94B8F2"/>
<path d="M23.89 39.63C23.8702 39.1855 23.6847 38.7645 23.37 38.45V38.32L23.24 38.25V38.37C22.98 38.28 22.76 38.51 22.73 38.96V41.39L23.89 42.06V39.63ZM22.79 39.01C22.79 38.6 23.03 38.39 23.27 38.5V38.56V39.72L22.79 39.44V39.01ZM23.07 41.47L22.79 41.31V39.5L23.07 39.66V41.47ZM23.52 41.73L23.14 41.51V39.7L23.52 39.91V41.73ZM23.83 41.91L23.58 41.77V40L23.83 40.14V41.91ZM23.34 39.7V38.54C23.4861 38.6762 23.6038 38.84 23.6862 39.0219C23.7686 39.2039 23.8141 39.4003 23.82 39.6C23.82 39.6 23.82 39.69 23.82 39.73V40L23.34 39.7Z" fill="white"/>
<path d="M24.86 39.38V40.54L24.38 40.26V39.88C24.41 39.47 24.62 39.26 24.86 39.38Z" fill="#94B8F2"/>
<path d="M24.66 40.5299V42.3499L24.38 42.1899V40.3699L24.66 40.5299Z" fill="#94B8F2"/>
<path d="M25.1 40.7901V42.6001L24.72 42.3901V40.5701L25.1 40.7901Z" fill="#94B8F2"/>
<path d="M25.41 40.9701V42.7801L25.17 42.6401V40.8301L25.41 40.9701Z" fill="#94B8F2"/>
<path d="M25.4101 40.6099V40.8599L24.9301 40.5699V39.4199C25.2234 39.6962 25.3959 40.0772 25.4101 40.4799V40.6099Z" fill="#94B8F2"/>
<path d="M25.47 40.4999C25.4686 40.0612 25.3006 39.6394 25 39.3199V39.1999L24.87 39.1299V39.2499C24.6 39.1499 24.39 39.3899 24.36 39.8299V42.2699L25.53 42.9399V40.6399C25.5151 40.5912 25.4949 40.5443 25.47 40.4999ZM24.38 39.8799C24.38 39.4699 24.62 39.2599 24.86 39.3799V39.4399V40.5999L24.38 40.3199V39.8799ZM24.66 42.3499L24.38 42.1899V40.3699L24.66 40.5299V42.3499ZM25.1 42.5999L24.72 42.3899V40.5699L25.1 40.7899V42.5999ZM25.41 42.7799L25.17 42.6399V40.8299L25.41 40.9699V42.7799ZM24.93 40.5699V39.4199C25.2233 39.6962 25.3958 40.0771 25.41 40.4799V40.8599L24.93 40.5699Z" fill="white"/>
<path d="M26.38 40.2001V41.3501L25.9 41.0801V40.7001C25.93 40.2901 26.13 40.0801 26.38 40.2001Z" fill="#94B8F2"/>
<path d="M26.17 41.3499V43.1599L25.89 43.0099V41.1899L26.17 41.3499Z" fill="#94B8F2"/>
<path d="M26.62 41.6099V43.4199L26.24 43.1999V41.3899L26.62 41.6099Z" fill="#94B8F2"/>
<path d="M26.9301 41.7899V43.5999L26.6801 43.4599V41.6499L26.9301 41.7899Z" fill="#94B8F2"/>
<path d="M26.9301 41.42V41.67L26.4401 41.39V40.23C26.5878 40.367 26.7065 40.5323 26.789 40.7161C26.8714 40.9 26.916 41.0985 26.9201 41.3C26.9283 41.3394 26.9317 41.3797 26.9301 41.42Z" fill="#94B8F2"/>
<path d="M27 41.3199C26.9802 40.8754 26.7947 40.4544 26.48 40.1399V39.9999L26.35 39.9199V40.0499C26.09 39.9499 25.88 40.1899 25.84 40.6299V43.0599L27 43.7299V41.3199ZM25.91 40.6999C25.91 40.2899 26.14 40.0799 26.39 40.1999V40.1499V41.2999L25.91 41.0299V40.6999ZM26.18 43.1599L25.9 42.9999V41.1899L26.17 41.3499L26.18 43.1599ZM26.63 43.4199L26.25 43.1999V41.3899L26.63 41.6099V43.4199ZM26.94 43.5999L26.69 43.4599V41.6399L26.94 41.7899V43.5999ZM26.45 41.3899V40.2299C26.5977 40.3669 26.7164 40.5322 26.7989 40.7161C26.8813 40.8999 26.9259 41.0985 26.93 41.2999C26.9349 41.3398 26.9349 41.3801 26.93 41.4199V41.6699L26.45 41.3899Z" fill="white"/>
<path d="M24.75 25.67V26.52L24.4 26.32V26C24.42 25.74 24.57 25.59 24.75 25.67Z" fill="#94B8F2"/>
<path d="M24.6 26.5199V27.8399L24.39 27.7199V26.3999L24.6 26.5199Z" fill="#94B8F2"/>
<path d="M24.92 26.7V28.03L24.64 27.87V26.54L24.92 26.7Z" fill="#94B8F2"/>
<path d="M25.15 26.84V28.16L24.97 28.05V26.73L25.15 26.84Z" fill="#94B8F2"/>
<path d="M25.15 26.57V26.75L24.79 26.5499V25.7C25.008 25.9024 25.1374 26.1827 25.15 26.4799V26.57Z" fill="#94B8F2"/>
<path d="M25.19 26.49C25.1797 26.1669 25.0475 25.8596 24.82 25.63V25.54L24.72 25.49V25.58C24.53 25.51 24.37 25.68 24.35 26.01V27.78L25.2 28.27V26.6C25.2016 26.563 25.1983 26.526 25.19 26.49ZM24.4 26C24.4 25.7 24.57 25.55 24.75 25.63V26.48L24.4 26.28V26ZM24.6 27.8L24.4 27.68V26.4L24.6 26.52V27.8ZM24.92 27.99L24.65 27.83V26.54L24.92 26.7V27.99ZM25.15 28.12L24.97 28.02V26.73L25.15 26.83V28.12ZM24.79 26.51V25.7C25.008 25.9025 25.1373 26.1827 25.15 26.48V26.75L24.79 26.51Z" fill="white"/>
<path d="M24.75 22.7501V23.5901L24.4 23.3901V23.1201C24.42 22.8201 24.57 22.6601 24.75 22.7501Z" fill="#94B8F2"/>
<path d="M24.6 23.59V24.91L24.39 24.8V23.47L24.6 23.59Z" fill="#94B8F2"/>
<path d="M24.92 23.7799V25.0999L24.64 24.9399V23.6199L24.92 23.7799Z" fill="#94B8F2"/>
<path d="M25.15 23.91V25.23L24.97 25.13V23.8L25.15 23.91Z" fill="#94B8F2"/>
<path d="M25.15 23.64V23.83L24.79 23.62V22.77C25.0063 22.9738 25.1353 23.2533 25.15 23.55V23.64Z" fill="#94B8F2"/>
<path d="M25.19 23.5701C25.1848 23.2458 25.0519 22.9367 24.82 22.7101V22.6201L24.72 22.5601V22.6501C24.53 22.5801 24.37 22.7501 24.35 23.0801V24.8501L25.2 25.3401V23.6701C25.2016 23.6364 25.1982 23.6027 25.19 23.5701ZM24.4 23.1201C24.4 22.8201 24.57 22.6601 24.75 22.7501V23.5901L24.4 23.3901V23.1201ZM24.6 24.9101L24.4 24.8001V23.4701L24.6 23.5901V24.9101ZM24.92 25.1001L24.65 24.9401V23.6201L24.92 23.7801V25.1001ZM25.15 25.2301L24.97 25.1301V23.8101L25.15 23.9101V25.2301ZM24.79 23.6201V22.7701C25.0062 22.9738 25.1352 23.2533 25.15 23.5501V23.8301L24.79 23.6201Z" fill="white"/>
<path d="M24.75 19.8199V20.6699L24.4 20.4599V20.1899C24.42 19.8899 24.57 19.7399 24.75 19.8199Z" fill="#94B8F2"/>
<path d="M24.6 20.66V21.99L24.39 21.8701V20.55L24.6 20.66Z" fill="#94B8F2"/>
<path d="M24.92 20.8499V22.1799L24.64 22.0199V20.6899L24.92 20.8499Z" fill="#94B8F2"/>
<path d="M25.15 20.9799V22.3099L24.97 22.1999V20.8799L25.15 20.9799Z" fill="#94B8F2"/>
<path d="M25.15 20.7199V20.8999L24.79 20.6899V19.8499C25.008 20.0523 25.1374 20.3326 25.15 20.6299V20.7199Z" fill="#94B8F2"/>
<path d="M25.19 20.6399C25.1817 20.3163 25.0492 20.0084 24.82 19.7799V19.6899L24.72 19.6399V19.7299C24.53 19.6599 24.37 19.8299 24.35 20.1499V21.9299L25.2 22.4199V20.7499C25.2016 20.7129 25.1983 20.6759 25.19 20.6399ZM24.4 20.1899C24.4 19.8899 24.57 19.7399 24.75 19.8199V20.6699L24.4 20.4599V20.1899ZM24.6 21.9899L24.4 21.8699V20.5499L24.6 20.6699V21.9899ZM24.92 22.1799L24.65 21.9999V20.6899L24.92 20.8499V22.1799ZM25.15 22.3099L25 22.1999V20.8799L25.18 20.9799L25.15 22.3099ZM24.79 20.6899V19.8499C25.008 20.0524 25.1373 20.3326 25.15 20.6299V20.8999L24.79 20.6899Z" fill="white"/>
<path d="M30.6301 46.67L30.6401 47.11L28.6601 45.86L28.1801 46.17L27.8901 46.33L21.8701 42.82L21.7201 42.74L21.9501 42.56L20.4301 41.69L20.7801 41.48L22.1501 42.29V42.67L27.8201 45.96L28.6601 45.48L30.6301 46.67Z" fill="white"/>
<path d="M27.89 46.33L27.88 46.74L21.72 43.12V42.74L21.87 42.82L27.89 46.33Z" fill="#D8CBBB"/>
<path d="M28.66 45.8599V46.1999L30.62 47.4299L30.64 47.1099L28.66 45.8599Z" fill="#D8CBBB"/>
<path d="M21.9501 42.5599L21.7201 42.7399V42.7899L20.4301 42.0299V41.6899L21.9501 42.5599Z" fill="#D8CBBB"/>
<path d="M27.88 46.7399L28.66 46.1999V45.8599L27.89 46.3299L27.88 46.7399Z" fill="#C4B098"/>
<path d="M30.64 46.11L30.63 46.52L28.67 45.31L28.18 45.62L27.89 45.78L21.86 42.33L21.72 42.25L21.94 42.08L20.42 41.22L20.77 41L22.14 41.8V42.18L27.83 45.42L28.67 44.93L30.64 46.11Z" fill="white"/>
<path d="M27.89 45.78L27.88 46.2L21.72 42.63V42.25L21.86 42.33L27.89 45.78Z" fill="#D8CBBB"/>
<path d="M28.67 45.3101V45.6501L30.63 46.8701V46.5201L28.67 45.3101Z" fill="#D8CBBB"/>
<path d="M21.94 42.08L21.72 42.25V42.3L20.42 41.56V41.22L21.94 42.08Z" fill="#D8CBBB"/>
<path d="M27.88 46.2001L28.67 45.6501V45.3101L27.89 45.7801L27.88 46.2001Z" fill="#C4B098"/>
<path d="M26.27 38.8999L23.14 37.0899V36.9399L26.27 38.7399V38.8999Z" fill="#D8CBBB"/>
<path d="M26.1301 38.1399L24.9301 37.4499V34.6199L26.1301 35.3099V38.1399Z" fill="#94B8F2"/>
<path d="M26.17 38.21L24.9 37.47V34.54L26.17 35.28V38.21ZM25 37.42L26.13 38.06V35.33L25 34.69V37.42Z" fill="#DCDCE5"/>
<path d="M25.28 37.64L25.2 37.6V34.77L25.28 34.81V37.64Z" fill="#DCDCE5"/>
<path d="M25.88 37.9899L25.8 37.9399V35.1099L25.88 35.1599V37.9899Z" fill="#DCDCE5"/>
<path d="M26.1301 36.77L24.9301 36.08V35.98L26.1301 36.67V36.77Z" fill="#DCDCE5"/>
<path d="M24.5199 37.1999L23.3199 36.5099V33.6799L24.5199 34.3699V37.1999Z" fill="#94B8F2"/>
<path d="M24.55 37.2799L23.28 36.5399V33.6099L24.55 34.3499V37.2799ZM23.36 36.4899L24.48 37.1299V34.3999L23.36 33.7599V36.4899Z" fill="#DCDCE5"/>
<path d="M23.66 36.7098L23.59 36.6698V33.8398L23.66 33.8798V36.7098Z" fill="#DCDCE5"/>
<path d="M24.2601 37.0599L24.1801 37.0099V34.1799L24.2601 34.2299V37.0599Z" fill="#DCDCE5"/>
<path d="M24.5199 35.84L23.3199 35.1501V35.05L24.5199 35.7401V35.84Z" fill="#DCDCE5"/>
<path d="M26.27 38.74L23.14 36.93V36.78L26.27 38.59V38.74Z" fill="#F7EFD3"/>
<path d="M26.3599 38.8701L23.0699 36.9701V36.8201L26.3599 38.7101V38.8701Z" fill="white"/>
<path d="M25.75 34.25L23.71 33.07V32.97L25.75 34.15V34.25Z" fill="#D8CBBB"/>
<path d="M25.66 33.75L24.88 33.3V31.46L25.66 31.91V33.75Z" fill="#94B8F2"/>
<path d="M25.68 33.7999L24.85 33.3199V31.4099L25.68 31.8899V33.7999ZM24.9 33.2799L25.63 33.7099V31.9299L24.9 31.4999V33.2799Z" fill="#DCDCE5"/>
<path d="M25.1 33.4301L25.05 33.4001V31.5601L25.1 31.5901V33.4301Z" fill="#DCDCE5"/>
<path d="M25.4901 33.66L25.4401 33.63V31.78L25.4901 31.81V33.66Z" fill="#DCDCE5"/>
<path d="M25.66 32.8599L24.88 32.4099V32.3499L25.66 32.7999V32.8599Z" fill="#DCDCE5"/>
<path d="M24.6099 33.1499L23.8199 32.6999V30.8499L24.6099 31.2999V33.1499Z" fill="#94B8F2"/>
<path d="M24.63 33.19L23.8 32.71V30.8L24.63 31.2801V33.19ZM23.85 32.68L24.58 33.1V31.32L23.85 30.9V32.68Z" fill="#DCDCE5"/>
<path d="M24.05 32.82L24 32.7999V30.95L24.05 30.9799V32.82Z" fill="#DCDCE5"/>
<path d="M24.44 33.0499L24.39 33.0199V31.1699L24.44 31.1999V33.0499Z" fill="#DCDCE5"/>
<path d="M24.6099 32.26L23.8199 31.8V31.74L24.6099 32.19V32.26Z" fill="#DCDCE5"/>
<path d="M25.75 34.1499L23.71 32.9699V32.8699L25.75 34.0499V34.1499Z" fill="#F7EFD3"/>
<path d="M25.8 34.2299L23.66 32.9899V32.8899L25.8 34.1299V34.2299Z" fill="white"/>
<path d="M22.1 22.35L21.35 21.91V16.5L22.1 16.94V22.35Z" fill="#94B8F2"/>
<path d="M22.12 22.38L21.33 21.92V16.46L22.12 16.93V22.38ZM21.37 21.9L22.08 22.32V17L21.37 16.58V21.9Z" fill="#DCDCE5"/>
<path d="M22.1 17.98L21.35 17.54V17.5L22.1 17.94V17.98Z" fill="#DCDCE5"/>
<path d="M22.1 18.5701L21.35 18.1301V18.0801L22.1 18.5301V18.5701Z" fill="#DCDCE5"/>
<path d="M22.1 21.8298L21.35 21.3798V21.3398L22.1 21.7798V21.8298Z" fill="#DCDCE5"/>
<path d="M22.1 21.24L21.35 20.8V20.76L22.1 21.2V21.24Z" fill="#DCDCE5"/>
<path d="M22.1 20.1199L21.35 19.6699V19.6299L22.1 20.0699V20.1199Z" fill="#DCDCE5"/>
<path d="M22.1 19.5L21.35 19.06V19.02L22.1 19.46V19.5Z" fill="#DCDCE5"/>
<path d="M21.52 22.0101L21.48 21.9901V16.5701L21.52 16.6001V22.0101Z" fill="#DCDCE5"/>
<path d="M21.96 22.2701L21.92 22.2501V16.8301L21.96 16.8501V22.2701Z" fill="#DCDCE5"/>
<path d="M22.1 26.39L21.35 25.95V20.54L22.1 20.98V26.39Z" fill="#94B8F2"/>
<path d="M22.12 26.43L21.33 26V20.51L22.12 20.97V26.43ZM21.37 25.94L22.08 26.36V21L21.37 20.58V25.94Z" fill="#DCDCE5"/>
<path d="M22.1 22.03L21.35 21.59V21.54L22.1 21.98V22.03Z" fill="#DCDCE5"/>
<path d="M22.1 22.6099L21.35 22.1699V22.1299L22.1 22.5699V22.6099Z" fill="#DCDCE5"/>
<path d="M22.1 25.8699L21.35 25.4299V25.3799L22.1 25.8199V25.8699Z" fill="#DCDCE5"/>
<path d="M22.1 25.2901L21.35 24.84V24.8L22.1 25.24V25.2901Z" fill="#DCDCE5"/>
<path d="M22.1 24.1599L21.35 23.7199V23.6699L22.1 24.1199V24.1599Z" fill="#DCDCE5"/>
<path d="M22.1 23.5501L21.35 23.1001V23.0601L22.1 23.5001V23.5501Z" fill="#DCDCE5"/>
<path d="M21.52 26.0499L21.48 26.0299V20.6199L21.52 20.6399V26.0499Z" fill="#DCDCE5"/>
<path d="M21.96 26.3099L21.92 26.2899V20.8799L21.96 20.8999V26.3099Z" fill="#DCDCE5"/>
<path d="M30.03 26.39L29.28 25.95V20.54L30.03 20.98V26.39Z" fill="#94B8F2"/>
<path d="M30.05 26.43L29.26 26V20.51L30.05 20.97V26.43ZM29.3 25.94L30.01 26.36V21L29.3 20.58V25.94Z" fill="#DCDCE5"/>
<path d="M30.03 22.03L29.28 21.59V21.54L30.03 21.98V22.03Z" fill="#DCDCE5"/>
<path d="M30.03 22.6099L29.28 22.1699V22.1299L30.03 22.5699V22.6099Z" fill="#DCDCE5"/>
<path d="M30.03 25.8699L29.28 25.4299V25.3799L30.03 25.8199V25.8699Z" fill="#DCDCE5"/>
<path d="M30.03 25.2901L29.28 24.84V24.8L30.03 25.24V25.2901Z" fill="#DCDCE5"/>
<path d="M30.03 24.1599L29.28 23.7199V23.6699L30.03 24.1199V24.1599Z" fill="#DCDCE5"/>
<path d="M30.03 23.5501L29.28 23.1001V23.0601L30.03 23.5001V23.5501Z" fill="#DCDCE5"/>
<path d="M29.45 26.0499L29.41 26.0299V20.6199L29.45 20.6399V26.0499Z" fill="#DCDCE5"/>
<path d="M29.89 26.3099L29.85 26.2899V20.8799L29.89 20.8999V26.3099Z" fill="#DCDCE5"/>
<path d="M30.03 30.2399L29.28 29.7999V24.3899L30.03 24.8299V30.2399Z" fill="#94B8F2"/>
<path d="M30.05 30.2799L29.26 29.8099V24.3499L30.05 24.8199V30.2799ZM29.3 29.7899L30.01 30.2099V24.8399L29.3 24.4199V29.7899Z" fill="#DCDCE5"/>
<path d="M30.03 25.8799L29.28 25.4299V25.3899L30.03 25.8299V25.8799Z" fill="#DCDCE5"/>
<path d="M30.03 26.46L29.28 26.02V25.98L30.03 26.42V26.46Z" fill="#DCDCE5"/>
<path d="M30.03 29.72L29.28 29.28V29.23L30.03 29.67V29.72Z" fill="#DCDCE5"/>
<path d="M30.03 29.1399L29.28 28.6899V28.6499L30.03 29.0899V29.1399Z" fill="#DCDCE5"/>
<path d="M30.03 28.01L29.28 27.57V27.52L30.03 27.96V28.01Z" fill="#DCDCE5"/>
<path d="M30.03 27.3899L29.28 26.9499V26.9099L30.03 27.3499V27.3899Z" fill="#DCDCE5"/>
<path d="M29.45 29.9L29.41 29.88V24.47L29.45 24.49V29.9Z" fill="#DCDCE5"/>
<path d="M29.89 30.16L29.85 30.14V24.72L29.89 24.75V30.16Z" fill="#DCDCE5"/>
<path d="M27.85 31.7799L22.14 28.4799V26.5999L27.85 29.8999V31.7799Z" fill="white"/>
<path d="M28.67 31.1999L27.84 31.7099V29.9299L28.67 29.4099V31.1999Z" fill="#E6E6E6"/>
<path d="M28.67 22.27L30.64 23.41L30.41 23.53L28.42 22.42L28.67 22.27Z" fill="white"/>
<path d="M28.42 22.4199V22.7199L30.39 23.8299L30.41 23.5299L28.42 22.4199Z" fill="#C4B098"/>
<path d="M28.67 23.52L30.64 24.66L30.41 24.78L28.42 23.67L28.67 23.52Z" fill="white"/>
<path d="M28.42 23.6699V23.9699L30.39 25.0799L30.41 24.7799L28.42 23.6699Z" fill="#C4B098"/>
<path d="M28.67 24.76L30.64 25.91L30.41 26.02L28.42 24.91L28.67 24.76Z" fill="white"/>
<path d="M28.42 24.9099V25.2099L30.39 26.3199L30.41 26.0199L28.42 24.9099Z" fill="#C4B098"/>
<path d="M28.67 26.4399L30.64 27.5899L30.41 27.6999L28.42 26.5899L28.67 26.4399Z" fill="white"/>
<path d="M28.42 26.5898V26.8998L30.39 27.9998L30.41 27.6998L28.42 26.5898Z" fill="#C4B098"/>
<path d="M28.67 27.6899L30.64 28.8399L30.41 28.9499L28.42 27.8399L28.67 27.6899Z" fill="white"/>
<path d="M28.42 27.8398V28.1498L30.39 29.2498L30.41 28.9498L28.42 27.8398Z" fill="#C4B098"/>
<path d="M23.15 18.2099V29.42L22.7 29.16V17.95L23.15 18.2099Z" fill="#F7EFD3"/>
<path d="M23.86 18.6199V29.8299L23.41 29.5699V18.3599L23.86 18.6199Z" fill="#F7EFD3"/>
<path d="M23.86 19.1901L22.7 18.5201V18.3201L23.86 18.9901V19.1901Z" fill="white"/>
<path d="M23.86 19.1199L22.7 18.4399V18.3599L23.86 19.0399V19.1199Z" fill="#D8CBBB"/>
<path d="M23.86 20.38L22.7 19.71V19.51L23.86 20.18V20.38Z" fill="white"/>
<path d="M23.86 20.31L22.7 19.63V19.55L23.86 20.23V20.31Z" fill="#D8CBBB"/>
<path d="M23.86 21.57L22.7 20.9V20.7L23.86 21.37V21.57Z" fill="white"/>
<path d="M23.86 21.5L22.7 20.82V20.74L23.86 21.42V21.5Z" fill="#D8CBBB"/>
<path d="M23.86 22.7599L22.7 22.0899V21.8899L23.86 22.5599V22.7599Z" fill="white"/>
<path d="M23.86 22.6899L22.7 22.0199V21.9299L23.86 22.6099V22.6899Z" fill="#D8CBBB"/>
<path d="M23.86 23.9501L22.7 23.2801V23.0801L23.86 23.7501V23.9501Z" fill="white"/>
<path d="M23.86 23.8799L22.7 23.2099V23.1299L23.86 23.7999V23.8799Z" fill="#D8CBBB"/>
<path d="M23.86 25.14L22.7 24.47V24.27L23.86 24.94V25.14Z" fill="white"/>
<path d="M23.86 25.0701L22.7 24.4001V24.3201L23.86 24.9901V25.0701Z" fill="#D8CBBB"/>
<path d="M23.86 26.34L22.7 25.66V25.46L23.86 26.13V26.34Z" fill="white"/>
<path d="M23.86 26.26L22.7 25.59V25.51L23.86 26.18V26.26Z" fill="#D8CBBB"/>
<path d="M23.86 27.5199L22.7 26.8499V26.6499L23.86 27.3199V27.5199Z" fill="white"/>
<path d="M23.86 27.45L22.7 26.78V26.7L23.86 27.37V27.45Z" fill="#D8CBBB"/>
<path d="M23.86 28.7198L22.7 28.0398V27.8398L23.86 28.5198V28.7198Z" fill="white"/>
<path d="M23.86 28.6399L22.7 27.9699V27.8899L23.86 28.5599V28.6399Z" fill="#D8CBBB"/>
<path d="M23.86 29.71V29.83L23.41 29.57L23.15 29.42L22.7 29.16V29.03L23.15 29.29L23.41 29.45L23.86 29.71Z" fill="white"/>
<path d="M23.86 29.7501V29.8301L23.41 29.5701L23.15 29.4201L22.7 29.1601V29.0801L23.15 29.3401L23.41 29.4901L23.86 29.7501Z" fill="#D8CBBB"/>
<path d="M26.1399 19.9299V31.1399L25.7 30.8899V19.6699L26.1399 19.9299Z" fill="#F7EFD3"/>
<path d="M26.85 20.3498V31.5598L26.4 31.2998V20.0898L26.85 20.3498Z" fill="#F7EFD3"/>
<path d="M26.85 20.92L25.7 20.24V20.04L26.85 20.72V20.92Z" fill="white"/>
<path d="M26.85 20.8498L25.7 20.1698V20.0898L26.85 20.7698V20.8498Z" fill="#D8CBBB"/>
<path d="M26.85 22.11L25.7 21.43V21.23L26.85 21.91V22.11Z" fill="white"/>
<path d="M26.85 22.04L25.7 21.36V21.28L26.85 21.95V22.04Z" fill="#D8CBBB"/>
<path d="M26.85 23.2999L25.7 22.6199V22.4199L26.85 23.0999V23.2999Z" fill="white"/>
<path d="M26.85 23.23L25.7 22.55V22.47L26.85 23.15V23.23Z" fill="#D8CBBB"/>
<path d="M26.85 24.4899L25.7 23.8199V23.6099L26.85 24.2899V24.4899Z" fill="white"/>
<path d="M26.85 24.4199L25.7 23.7399V23.6599L26.85 24.3399V24.4199Z" fill="#D8CBBB"/>
<path d="M26.85 25.68L25.7 25V24.8L26.85 25.48V25.68Z" fill="white"/>
<path d="M26.85 25.6099L25.7 24.9299V24.8499L26.85 25.5299V25.6099Z" fill="#D8CBBB"/>
<path d="M26.85 26.87L25.7 26.2V26L26.85 26.67V26.87Z" fill="white"/>
<path d="M26.85 26.8L25.7 26.12V26.04L26.85 26.72V26.8Z" fill="#D8CBBB"/>
<path d="M26.85 28.0599L25.7 27.3899V27.1899L26.85 27.8599V28.0599Z" fill="white"/>
<path d="M26.85 27.99L25.7 27.31V27.23L26.85 27.91V27.99Z" fill="#D8CBBB"/>
<path d="M26.85 29.2499L25.7 28.5799V28.3799L26.85 29.0499V29.2499Z" fill="white"/>
<path d="M26.85 29.1799L25.7 28.4999V28.4199L26.85 29.0999V29.1799Z" fill="#D8CBBB"/>
<path d="M26.85 30.4401L25.7 29.7701V29.5701L26.85 30.2401V30.4401Z" fill="white"/>
<path d="M26.85 30.3699L25.7 29.6999V29.6099L26.85 30.2899V30.3699Z" fill="#D8CBBB"/>
<path d="M26.85 31.43V31.56L26.4 31.3L26.1399 31.14L25.7 30.89V30.76L26.1399 31.02L26.4 31.17L26.85 31.43Z" fill="white"/>
<path d="M26.85 31.48V31.56L26.4 31.3L26.1399 31.14L25.7 30.89V30.8L26.1399 31.06L26.4 31.22L26.85 31.48Z" fill="#D8CBBB"/>
<path d="M25.05 29.3199C25.05 29.5999 24.9 29.7399 24.71 29.6399C24.6018 29.5609 24.5144 29.4568 24.4552 29.3367C24.396 29.2165 24.3668 29.0838 24.37 28.9499C24.37 28.6699 24.52 28.5199 24.71 28.6199C24.8189 28.7005 24.9067 28.8063 24.9659 28.9282C25.0251 29.05 25.054 29.1845 25.05 29.3199Z" fill="#94B8F2"/>
<path d="M24.71 28.58C24.5 28.47 24.34 28.63 24.34 28.93C24.3356 29.0771 24.367 29.2232 24.4314 29.3555C24.4959 29.4879 24.5915 29.6027 24.71 29.69C24.91 29.8 25.08 29.64 25.08 29.33C25.0812 29.1847 25.0483 29.0413 24.9841 28.911C24.9198 28.7808 24.826 28.6674 24.71 28.58ZM24.71 29.64C24.6019 29.5609 24.5145 29.4569 24.4552 29.3367C24.396 29.2166 24.3668 29.0839 24.37 28.95C24.37 28.67 24.52 28.52 24.71 28.62C24.8189 28.7006 24.9068 28.8063 24.966 28.9282C25.0252 29.0501 25.054 29.1845 25.05 29.32C25.05 29.6 24.9 29.74 24.71 29.64Z" fill="#DCDCE5"/>
<path d="M30.67 32.71L30.2 32.42V20.98L30.66 21.26L30.67 25.54L30.66 25.55V26.72V27.25V31.01L30.67 32.71Z" fill="#F9F9E3"/>
<path d="M30.67 26.72H30.66V25.55L30.67 25.54V26.72Z" fill="#F9F9E3"/>
<path d="M30.67 26.72H30.66V25.55L30.67 25.54V26.72Z" fill="#D8CBBB"/>
<path d="M31.14 20.96V32.42L30.67 32.71L30.66 31.01H30.67L30.66 27.25V26.72H30.67V25.54L30.66 21.26L31.14 20.96Z" fill="#D8CBBB"/>
<path d="M30.67 32.71L31.14 32.42V20.98L30.68 21.26L30.67 25.54L30.68 25.55V26.72V27.25L30.67 31.01V32.71Z" fill="#D8CBBB"/>
<path d="M30.67 26.72H30.68V25.55L30.67 25.54V26.72Z" fill="#F9F9E3"/>
<path d="M30.2 20.96V32.42L30.67 32.71V31.01L30.68 27.25V26.72H30.67V25.54L30.68 21.26L30.2 20.96Z" fill="#F9F9E3"/>
<path d="M21.26 15.27L21.18 25.98L20.79 26.12V25.3L20.8 21.54L20.79 21.53L20.8 21.01V19.84L20.79 19.83L20.8 15.54L21.26 15.27Z" fill="#D8CBBB"/>
<path d="M20.79 21.0101H20.8V19.8401L20.79 19.8301V21.0101Z" fill="#F9F9E3"/>
<path d="M20.3101 25.82V15.25L20.8001 15.54L20.7901 19.83V21.01H20.8001L20.7901 21.53V25.3V26.12" fill="#F9F9E3"/>
<path d="M21.0201 26.2699V27.6699L20.7901 27.5299L20.59 27.4099L20.41 26.8199L20.31 26.5199L20.05 25.6499L20.31 25.8199L20.7901 26.1199L21.0201 26.2699Z" fill="white"/>
<path d="M22.13 19.3499V19.6099L21.34 19.1699V19.1599L20.52 18.6999L19.72 18.2499L19.97 18.1099L20.31 17.9199V18.2999L20.76 18.5599L22.13 19.3499Z" fill="white"/>
<path d="M22.13 19.61V19.92L20.51 19.01V19L19.72 18.56V18.25L20.52 18.7H20.51L21.34 19.17L22.13 19.61Z" fill="#C4B098"/>
<path d="M21.34 19.16V19.17L20.51 18.7H20.52L21.34 19.16Z" fill="#C4B098"/>
<path d="M22.13 20.5999V20.8599L21.34 20.4199V20.4099L20.52 19.9499L19.72 19.4999L19.95 19.3699L19.97 19.3499L20.31 19.1699V19.5499L20.76 19.8099V19.7999L22.13 20.5999Z" fill="white"/>
<path d="M19.9699 19.3499L19.95 19.3699L19.9699 19.3499Z" fill="white"/>
<path d="M22.13 20.86V21.17L20.51 20.26V20.25L19.72 19.81V19.5L20.52 19.95H20.51L21.34 20.42L22.13 20.86Z" fill="#C4B098"/>
<path d="M21.34 20.41V20.42L20.51 19.95H20.52L21.34 20.41Z" fill="#C4B098"/>
<path d="M22.13 21.8399V22.0999L21.34 21.6599V21.6499L20.52 21.1899L19.72 20.7399L19.97 20.5899L19.98 20.5999L20.31 20.4199V20.7899L20.76 21.0499L22.13 21.8399Z" fill="white"/>
<path d="M22.13 22.1V22.41L20.51 21.5V21.49L19.72 21.05V20.74L20.52 21.19L20.51 21.2L21.34 21.66L22.13 22.1Z" fill="#C4B098"/>
<path d="M21.34 21.6499V21.6599L20.51 21.1999L20.52 21.1899L21.34 21.6499Z" fill="#C4B098"/>
<path d="M22.13 23.5201V23.7801L21.34 23.3401V23.3301L20.52 22.8701L19.72 22.4301L19.97 22.2801L20.31 22.0801V22.4801L20.76 22.7301L22.13 23.5201Z" fill="white"/>
<path d="M22.13 23.7799V24.0899L20.51 23.1799V23.1699L19.72 22.7299V22.4299L20.52 22.8699L20.51 22.8799L21.34 23.3399L22.13 23.7799Z" fill="#C4B098"/>
<path d="M21.34 23.3299V23.3399L20.51 22.8799L20.52 22.8699L21.34 23.3299Z" fill="#C4B098"/>
<path d="M22.13 25.0299V25.3399L20.51 24.4299V24.4199L19.72 23.9799V23.6799L20.52 24.1199L20.51 24.1299L21.34 24.5899L22.13 25.0299Z" fill="#C4B098"/>
<path d="M21.34 24.5799V24.5899L20.51 24.1299L20.52 24.1199L21.34 24.5799Z" fill="#C4B098"/>
<path d="M22.16 24.94V24.95L21.33 24.49L21.34 24.48L22.16 24.94Z" fill="white"/>
<path d="M22.13 24.7698V25.0298L21.34 24.5898V24.5798L20.52 24.1198L19.72 23.6798L19.97 23.5298L20.31 23.3398V23.7298L20.76 23.9798L22.13 24.7698Z" fill="white"/>
<path d="M20.7901 14.98L20.3101 15.25L20.8001 15.54L21.2601 15.27L20.7901 14.98Z" fill="white"/>
<path d="M40.48 15V46.85L30.63 52.54V20.69L40.48 15Z" fill="#C64444"/>
<path d="M33.4301 20.3601V51.7101L39.1001 48.4201V17.0701L33.4301 20.3601Z" fill="#A5261C"/>
<path d="M39.1 17.0499L38.27 16.8599L32.59 20.1399L33.43 20.3299L39.1 17.0499Z" fill="#C64444"/>
<path d="M33.43 51.7099L32.58 51.4099L32.59 20.1399L33.43 20.3299V51.7099Z" fill="#821119"/>
<path d="M32.59 44.98L33.43 45.5V50.92L32.59 50.46V44.98Z" fill="#D8CBBB"/>
<path d="M40.47 42.8799L38.5 44.0299L38.73 44.1499L40.72 43.0299L40.47 42.8799Z" fill="white"/>
<path d="M40.72 43.03V43.34L38.76 44.45L38.73 44.15L40.72 43.03Z" fill="#998675"/>
<path d="M40.47 44.1299L38.5 45.2799L38.73 45.3899L40.72 44.2799L40.47 44.1299Z" fill="white"/>
<path d="M40.72 44.28V44.59L38.76 45.69L38.73 45.39L40.72 44.28Z" fill="#998675"/>
<path d="M40.47 45.3699L38.5 46.5199L38.73 46.6299L40.72 45.5199L40.47 45.3699Z" fill="white"/>
<path d="M40.72 45.52V45.83L38.76 46.94L38.73 46.63L40.72 45.52Z" fill="#998675"/>
<path d="M39.1001 42.26L33.4301 45.5V50.92L39.1001 47.65V42.26Z" fill="#F7EFD3"/>
<path d="M38 44.35V45.5L38.48 45.23V44.85C38.44 44.44 38.23 44.23 38 44.35Z" fill="#94B8F2"/>
<path d="M38.1899 45.4998V47.3098L38.4699 47.1598V45.3398L38.1899 45.4998Z" fill="#94B8F2"/>
<path d="M37.75 45.76V47.57L38.13 47.35V45.54L37.75 45.76Z" fill="#94B8F2"/>
<path d="M37.4399 45.94V47.75L37.6799 47.6101V45.8L37.4399 45.94Z" fill="#94B8F2"/>
<path d="M37.4399 45.5699V45.8199L37.9199 45.5399V44.3799C37.6286 44.6618 37.4568 45.0448 37.4399 45.4499V45.5699Z" fill="#94B8F2"/>
<path d="M37.37 45.6098V47.8998L38.54 47.2298V44.7998C38.54 44.3598 38.29 44.1198 38.03 44.2198V44.0898L37.89 44.1698V44.2898C37.5748 44.6031 37.3922 45.0256 37.38 45.4698C37.3717 45.516 37.3684 45.563 37.37 45.6098ZM38.47 45.2298L38 45.4998V44.3498V44.2998C38.24 44.1798 38.45 44.3898 38.48 44.7998L38.47 45.2298ZM38.19 45.4998L38.47 45.3398V47.1498L38.19 47.3098V45.4998ZM37.75 45.7598L38.13 45.5398V47.3498L37.75 47.5698V45.7598ZM37.44 45.9398L37.68 45.7898V47.6098L37.44 47.7498V45.9398ZM37.44 45.8198V45.4498C37.4568 45.0448 37.6287 44.6617 37.92 44.3798V45.5398L37.44 45.8198Z" fill="white"/>
<path d="M36.4 45.2199V46.3799L36.88 46.0999V45.7299C36.85 45.3199 36.65 45.1099 36.4 45.2199Z" fill="#94B8F2"/>
<path d="M36.61 46.38V48.19L36.88 48.03V46.22L36.61 46.38Z" fill="#94B8F2"/>
<path d="M36.16 46.6299V48.4499L36.54 48.2299V46.4099L36.16 46.6299Z" fill="#94B8F2"/>
<path d="M35.85 46.8099V48.6299L36.1 48.4799V46.6699L35.85 46.8099Z" fill="#94B8F2"/>
<path d="M35.85 46.45V46.7L36.34 46.42V45.26C36.1921 45.3947 36.0732 45.5582 35.9906 45.7405C35.9081 45.9228 35.8636 46.12 35.86 46.32C35.8521 46.3629 35.8487 46.4064 35.85 46.45Z" fill="#94B8F2"/>
<path d="M36.4 45.1599V45.2199V45.1699V45.1599ZM36.34 45.2399V45.2899V45.1999V45.2399Z" fill="white"/>
<path d="M35.79 46.49V48.78L37 48.11V45.68C37 45.23 36.75 45 36.49 45.09V45L36.36 45.07V45.2C36.0453 45.5145 35.8598 45.9355 35.84 46.38L35.79 46.49ZM36.88 46.1L36.4 46.38V45.22V45.16V45.21C36.65 45.1 36.85 45.31 36.88 45.72V46.1ZM36.61 46.38L36.88 46.22V48L36.61 48.16V46.38ZM36.16 46.63L36.54 46.41V48.23L36.16 48.45V46.63ZM35.85 46.81L36.1 46.67V48.49L35.85 48.63V46.81ZM35.85 46.7V46.45C35.8455 46.4068 35.8455 46.3632 35.85 46.32C35.8537 46.1199 35.8982 45.9227 35.9807 45.7405C36.0632 45.5582 36.1821 45.3947 36.33 45.26V46.42L35.85 46.7Z" fill="white"/>
<path d="M34.89 46V47.2L35.37 46.9199V46.54C35.34 46.13 35.13 45.92 34.89 46Z" fill="#94B8F2"/>
<path d="M35.09 47.19V49.01L35.37 48.85V47.03L35.09 47.19Z" fill="#94B8F2"/>
<path d="M34.65 47.45V49.26L35.03 49.05V47.23L34.65 47.45Z" fill="#94B8F2"/>
<path d="M34.34 47.63V49.44L34.58 49.3V47.49L34.34 47.63Z" fill="#94B8F2"/>
<path d="M34.34 47.2701V47.5101L34.82 47.2301V46.0801C34.6729 46.2155 34.5547 46.3792 34.4722 46.5613C34.3898 46.7434 34.3448 46.9402 34.34 47.1401V47.2701Z" fill="#94B8F2"/>
<path d="M34.27 47.3V49.6L35.43 48.92V46.49C35.43 46.05 35.19 45.81 34.92 45.91V45.79L34.79 45.86V46C34.4748 46.3133 34.2921 46.7358 34.28 47.18C34.2733 47.2197 34.2699 47.2598 34.27 47.3ZM35.37 46.92L34.89 47.2V46C35.13 45.88 35.34 46.09 35.37 46.5V46.92ZM35.09 47.19L35.37 47.03V48.85L35.09 49.01V47.19ZM34.65 47.45L35.03 47.23V49.05L34.65 49.26V47.45ZM34.34 47.63L34.58 47.49V49.3L34.34 49.44V47.63ZM34.34 47.51V47.14C34.3448 46.9402 34.3898 46.7434 34.4723 46.5612C34.5547 46.3791 34.673 46.2155 34.82 46.08V47.23L34.34 47.51Z" fill="white"/>
<path d="M38 38.5299V39.6799L38.48 39.4099V38.9999C38.44 38.6199 38.23 38.4099 38 38.5299Z" fill="#94B8F2"/>
<path d="M38.1899 39.68V41.5L38.4699 41.34V39.52L38.1899 39.68Z" fill="#94B8F2"/>
<path d="M37.75 39.94V41.75L38.13 41.53V39.72L37.75 39.94Z" fill="#94B8F2"/>
<path d="M37.4399 40.12V41.93L37.6799 41.79V39.98L37.4399 40.12Z" fill="#94B8F2"/>
<path d="M37.4399 39.7501V40.0001L37.9199 39.7201V38.5601C37.6286 38.8419 37.4568 39.225 37.4399 39.6301V39.7501Z" fill="#94B8F2"/>
<path d="M37.37 39.79V42.08L38.54 41.41V39C38.54 38.56 38.29 38.32 38.03 38.42V38.29L37.89 38.37V38.49C37.5747 38.8033 37.3921 39.2258 37.38 39.67C37.3733 39.7097 37.3699 39.7498 37.37 39.79ZM38.47 39.41L37.99 39.68V38.53V38.48C38.23 38.36 38.44 38.57 38.47 38.98V39.41ZM38.19 39.68L38.47 39.52V41.34L38.19 41.5V39.68ZM37.75 39.94L38.13 39.72V41.53L37.75 41.75V39.94ZM37.44 40.12L37.68 39.98V41.79L37.44 41.93V40.12ZM37.44 40V39.63C37.4568 39.225 37.6287 38.8419 37.92 38.56V39.72L37.44 40Z" fill="white"/>
<path d="M36.4 39.3998V40.5598L36.88 40.2798V39.9098C36.85 39.4998 36.65 39.2898 36.4 39.3998Z" fill="#94B8F2"/>
<path d="M36.61 40.5599V42.3699L36.88 42.2099V40.3999L36.61 40.5599Z" fill="#94B8F2"/>
<path d="M36.16 40.8099V42.6299L36.54 42.4099V40.5999L36.16 40.8099Z" fill="#94B8F2"/>
<path d="M35.85 40.9899V42.8099L36.1 42.6699V40.8499L35.85 40.9899Z" fill="#94B8F2"/>
<path d="M35.85 40.6299V40.8799L36.34 40.5999V39.4399C36.193 39.5754 36.0747 39.739 35.9922 39.9212C35.9098 40.1033 35.8648 40.3001 35.86 40.4999C35.8521 40.5428 35.8487 40.5864 35.85 40.6299Z" fill="#94B8F2"/>
<path d="M35.79 40.6699V42.9999L37 42.2899V39.8599C37 39.4099 36.75 39.1799 36.49 39.2699V39.1499L36.36 39.2299V39.3499C36.0453 39.6644 35.8598 40.0854 35.84 40.5299L35.79 40.6699ZM36.88 40.2799L36.4 40.5599V39.3999V39.4499C36.65 39.3399 36.85 39.5499 36.88 39.9599V40.2799ZM36.61 40.5599L36.88 40.3999V42.2099L36.61 42.3699V40.5599ZM36.16 40.8099L36.54 40.5999V42.4099L36.16 42.6299V40.8099ZM35.85 40.9899L36.1 40.8499V42.6699L35.85 42.8099V40.9899ZM35.85 40.8799V40.6299C35.8455 40.5867 35.8455 40.5431 35.85 40.4999C35.8548 40.3001 35.8998 40.1032 35.9823 39.9211C36.0647 39.739 36.183 39.5753 36.33 39.4399V40.5999L35.85 40.8799Z" fill="white"/>
<path d="M34.89 40.22V41.38L35.37 41.1V40.72C35.34 40.32 35.13 40.11 34.89 40.22Z" fill="#94B8F2"/>
<path d="M35.09 41.38V43.19L35.37 43.03V41.22L35.09 41.38Z" fill="#94B8F2"/>
<path d="M34.65 41.6299V43.4499L35.03 43.2299V41.4099L34.65 41.6299Z" fill="#94B8F2"/>
<path d="M34.34 41.8099V43.6299L34.58 43.4799V41.6699L34.34 41.8099Z" fill="#94B8F2"/>
<path d="M34.34 41.45V41.7L34.82 41.42V40.26C34.6738 40.3962 34.5562 40.56 34.4738 40.7419C34.3914 40.9239 34.3459 41.1204 34.34 41.32V41.45Z" fill="#94B8F2"/>
<path d="M34.8899 40.1599V40.2199V40.1699V40.1599ZM34.8199 40.2399V40.2899V40.1999V40.2399Z" fill="white"/>
<path d="M34.27 41.48V43.78L35.43 43.11V40.68C35.43 40.23 35.19 39.99 34.92 40.09V40L34.79 40.07V40.19C34.4773 40.505 34.2952 40.9264 34.28 41.37C34.2738 41.4064 34.2705 41.4431 34.27 41.48ZM35.37 41.1L34.89 41.38V40.22V40.16V40.21C35.13 40.1 35.34 40.31 35.37 40.71V41.1ZM35.09 41.37L35.37 41.21V43L35.09 43.16V41.37ZM34.65 41.63L35.03 41.41V43.23L34.65 43.45V41.63ZM34.34 41.81L34.58 41.67V43.48L34.34 43.62V41.81ZM34.34 41.7V41.32C34.3459 41.1203 34.3914 40.9239 34.4738 40.7419C34.5562 40.56 34.6739 40.3962 34.82 40.26V41.42L34.34 41.7Z" fill="white"/>
<path d="M36.52 25.7V26.54L36.87 26.34V26.07C36.84 25.77 36.7 25.61 36.52 25.7Z" fill="#94B8F2"/>
<path d="M36.67 26.5399V27.8599L36.87 27.7499V26.4199L36.67 26.5399Z" fill="#94B8F2"/>
<path d="M36.34 26.7301V28.0501L36.62 27.8901V26.5701L36.34 26.7301Z" fill="#94B8F2"/>
<path d="M36.12 26.86V28.18L36.3 28.08V26.75L36.12 26.86Z" fill="#94B8F2"/>
<path d="M36.12 26.59V26.78L36.47 26.57V25.72C36.3626 25.82 36.2762 25.9406 36.2161 26.0746C36.156 26.2085 36.1233 26.3532 36.12 26.5V26.59Z" fill="#94B8F2"/>
<path d="M36.0699 26.62V28.29L36.9199 27.8V26C36.9199 25.67 36.7299 25.5 36.5399 25.57V25.48L36.4499 25.54V25.63C36.2188 25.8581 36.0829 26.1655 36.0699 26.49V26.62ZM36.8699 26.34L36.5199 26.54V25.7C36.6999 25.61 36.8399 25.77 36.8699 26.07V26.34ZM36.6699 26.54L36.8699 26.42V27.75L36.6699 27.86V26.54ZM36.3399 26.73L36.6199 26.57V27.89L36.3399 28.05V26.73ZM36.1199 26.86L36.2999 26.76V28.08L36.1199 28.18V26.86ZM36.1199 26.78V26.5C36.1233 26.3532 36.156 26.2085 36.2161 26.0746C36.2762 25.9406 36.3625 25.8201 36.4699 25.72V26.57L36.1199 26.78Z" fill="white"/>
<path d="M36.52 22.7698V23.6198L36.87 23.4098V23.1398C36.84 22.8398 36.7 22.6898 36.52 22.7698Z" fill="#94B8F2"/>
<path d="M36.67 23.61V24.94L36.87 24.82V23.5L36.67 23.61Z" fill="#94B8F2"/>
<path d="M36.34 23.7999V25.1299L36.62 24.9699V23.6399L36.34 23.7999Z" fill="#94B8F2"/>
<path d="M36.12 23.9301V25.2601L36.3 25.1501V23.8301L36.12 23.9301Z" fill="#94B8F2"/>
<path d="M36.12 23.67V23.85L36.47 23.64V22.8C36.3616 22.8994 36.2747 23.0198 36.2145 23.1539C36.1543 23.2881 36.1222 23.4331 36.12 23.58V23.67Z" fill="#94B8F2"/>
<path d="M36.0699 23.6998V25.3698L36.9199 24.8798V23.0998C36.9199 22.7798 36.7299 22.6098 36.5399 22.6798V22.5898L36.4499 22.6398V22.7298C36.2212 22.9596 36.0858 23.266 36.0699 23.5898V23.6998ZM36.8699 23.4098L36.5199 23.6198V22.7698C36.6999 22.6898 36.8399 22.8398 36.8699 23.1398V23.4098ZM36.6699 23.6098L36.8699 23.4998V24.8198L36.6699 24.9398V23.6098ZM36.3399 23.7998L36.6199 23.6398V24.9998L36.3399 25.1598V23.7998ZM36.1199 23.9298L36.2999 23.8298V25.1498L36.1199 25.2598V23.9298ZM36.1199 23.8498V23.5798C36.1221 23.4329 36.1543 23.2879 36.2145 23.1537C36.2747 23.0196 36.3616 22.8992 36.4699 22.7998V23.6398L36.1199 23.8498Z" fill="white"/>
<path d="M36.52 19.85V20.69L36.87 20.49V20.21C36.84 19.92 36.7 19.76 36.52 19.85Z" fill="#94B8F2"/>
<path d="M36.67 20.6901V22.0101L36.87 21.9001V20.5701L36.67 20.6901Z" fill="#94B8F2"/>
<path d="M36.34 20.88V22.2L36.62 22.04V20.72L36.34 20.88Z" fill="#94B8F2"/>
<path d="M36.12 21.0099V22.3299L36.3 22.2299V20.8999L36.12 21.0099Z" fill="#94B8F2"/>
<path d="M36.12 20.7399V20.9199L36.47 20.7199V19.8699C36.3626 19.9699 36.2762 20.0905 36.2161 20.2245C36.156 20.3584 36.1233 20.5031 36.12 20.6499V20.7399Z" fill="#94B8F2"/>
<path d="M36.0699 20.7699V22.4399L36.9199 21.9499V20.1799C36.9199 19.8499 36.7299 19.6799 36.5399 19.7499V19.6599L36.4499 19.7199V19.8099C36.2188 20.038 36.0829 20.3454 36.0699 20.6699V20.7699ZM36.8699 20.4899L36.5199 20.6899V19.8499C36.6999 19.7599 36.8399 19.9199 36.8699 20.2099V20.4899ZM36.6699 20.6899L36.8699 20.5699V21.8999L36.6699 22.0099V20.6899ZM36.3399 20.8799L36.6199 20.7199V21.9999L36.3399 22.1599V20.8799ZM36.1199 21.0099L36.2999 20.8999V22.2299L36.1199 22.3299V21.0099ZM36.1199 20.9199V20.6499C36.1233 20.5031 36.156 20.3585 36.2161 20.2245C36.2762 20.0906 36.3625 19.97 36.4699 19.8699V20.7199L36.1199 20.9199Z" fill="white"/>
<path d="M30.63 46.7L30.62 47.1L32.6 45.88L33.09 46.19L33.38 46.35L39.39 42.84L39.54 42.76L39.31 42.59L40.83 41.71L40.48 41.5L39.11 42.32V42.69L33.44 45.99L32.6 45.51L30.63 46.7Z" fill="white"/>
<path d="M33.38 46.35L33.39 46.76L39.54 43.14V42.76L39.4 42.84L33.38 46.35Z" fill="#D8CBBB"/>
<path d="M32.6 45.8799V46.2199L30.62 47.4299V47.0999L32.6 45.8799Z" fill="#998675"/>
<path d="M39.3199 42.59L39.5399 42.76V42.81L40.8399 42.06V41.71L39.3199 42.59Z" fill="#998675"/>
<path d="M33.39 46.7599L32.6 46.2199V45.8799L33.38 46.3499L33.39 46.7599Z" fill="#C4B098"/>
<path d="M30.63 46.1V46.52L32.59 45.33L33.08 45.65L33.38 45.81L39.4 42.36L39.55 42.27L39.33 42.1L40.84 41.24L40.5 41.02L39.12 41.83V42.2L33.44 45.44L32.59 44.96L30.63 46.1Z" fill="white"/>
<path d="M33.38 45.81V46.22L39.55 42.66V42.27L39.4 42.36L33.38 45.81Z" fill="#D8CBBB"/>
<path d="M32.59 45.3301V45.6701L30.63 46.8701V46.5201L32.59 45.3301Z" fill="#998675"/>
<path d="M39.33 42.1L39.55 42.27V42.32L40.84 41.58V41.24L39.33 42.1Z" fill="#998675"/>
<path d="M33.38 46.2201L32.59 45.6701V45.3301L33.38 45.8101V46.2201Z" fill="#C4B098"/>
<path d="M30.6301 32.93L30.6401 33.36L28.6601 32.11L28.1801 32.42L27.8901 32.58L21.8701 29.07L21.7201 28.99L21.9501 28.82L20.4301 27.94L20.7801 27.73L22.1501 28.54V28.92L27.8201 32.21L28.6601 31.73L30.6301 32.93Z" fill="white"/>
<path d="M27.89 32.58L27.88 32.99L21.72 29.37V28.99L21.87 29.07L27.89 32.58Z" fill="#D8CBBB"/>
<path d="M28.66 32.1099V32.4499L30.62 33.6799L30.64 33.3599L28.66 32.1099Z" fill="#D8CBBB"/>
<path d="M21.9501 28.8199L21.7201 28.9899V29.0399L20.4301 28.2899V27.9399L21.9501 28.8199Z" fill="#D8CBBB"/>
<path d="M27.88 32.9899L28.66 32.4499V32.1099L27.89 32.5799L27.88 32.9899Z" fill="#C4B098"/>
<path d="M30.64 32.36L30.63 32.77L28.67 31.56L28.18 31.87L27.89 32.04L21.86 28.58L21.72 28.5L21.94 28.33L20.42 27.47L20.77 27.25L22.14 28.05V28.43L27.83 31.67L28.67 31.18L30.64 32.36Z" fill="white"/>
<path d="M27.89 32.04L27.88 32.45L21.72 28.88V28.5L21.86 28.58L27.89 32.04Z" fill="#D8CBBB"/>
<path d="M28.67 31.5601V31.9001L30.63 33.1201V32.7701L28.67 31.5601Z" fill="#D8CBBB"/>
<path d="M21.94 28.33L21.72 28.5V28.55L20.42 27.81V27.47L21.94 28.33Z" fill="#D8CBBB"/>
<path d="M27.88 32.4501L28.67 31.9001V31.5601L27.89 32.0401L27.88 32.4501Z" fill="#C4B098"/>
<path d="M30.63 32.95L30.62 33.35L32.6 32.13L33.09 32.44L33.38 32.6L39.39 29.1L39.54 29.01L39.31 28.84L40.83 27.96L40.48 27.75L39.11 28.57V28.94L33.44 32.24L32.6 31.76L30.63 32.95Z" fill="white"/>
<path d="M33.38 32.6L33.39 33.01L39.54 29.39V29.01L39.4 29.1L33.38 32.6Z" fill="#D8CBBB"/>
<path d="M32.6 32.1299V32.4699L30.62 33.6799V33.3499L32.6 32.1299Z" fill="#998675"/>
<path d="M39.3199 28.84L39.5399 29.01V29.06L40.8399 28.31V27.96L39.3199 28.84Z" fill="#998675"/>
<path d="M33.39 33.0099L32.6 32.4699V32.1299L33.38 32.5999L33.39 33.0099Z" fill="#C4B098"/>
<path d="M30.63 32.35V32.77L32.59 31.59L33.08 31.9L33.38 32.06L39.4 28.61L39.55 28.52L39.33 28.35L40.84 27.49L40.5 27.28L39.12 28.08V28.45L33.44 31.7L32.59 31.21L30.63 32.35Z" fill="white"/>
<path d="M33.38 32.06V32.47L39.55 28.91V28.52L39.4 28.61L33.38 32.06Z" fill="#D8CBBB"/>
<path d="M32.59 31.5801V31.9201L30.63 33.1201V32.7701L32.59 31.5801Z" fill="#998675"/>
<path d="M39.33 28.35L39.55 28.52V28.57L40.84 27.83V27.49L39.33 28.35Z" fill="#998675"/>
<path d="M33.38 32.4701L32.59 31.9201V31.5801L33.38 32.0601V32.4701Z" fill="#C4B098"/>
<path d="M32.84 48.0999V48.4099L30.63 49.6499V49.3499" fill="#998675"/>
<path d="M34.99 38.92L38.13 37.11V36.96L34.99 38.77V38.92Z" fill="#D8CBBB"/>
<path d="M35.13 38.1599L36.33 37.4699V34.6399L35.13 35.3299V38.1599Z" fill="#94B8F2"/>
<path d="M35.09 35.3001L36.37 34.5701V37.5001L35.09 38.2301V35.3001ZM36.29 34.7101L35.17 35.3601V38.0901L36.29 37.4401V34.7101Z" fill="#DCDCE5"/>
<path d="M35.99 37.67L36.06 37.62V34.79L35.99 34.84V37.67Z" fill="#DCDCE5"/>
<path d="M35.39 38.0099L35.47 37.9699V35.1399L35.39 35.1799V38.0099Z" fill="#DCDCE5"/>
<path d="M35.13 36.8L36.33 36.1V36L35.13 36.7V36.8Z" fill="#DCDCE5"/>
<path d="M36.75 37.23L37.95 36.54V33.71L36.75 34.4V37.23Z" fill="#94B8F2"/>
<path d="M36.71 34.3699L38 33.6299V36.5699L36.73 37.2999L36.71 34.3699ZM37.91 33.7799L36.79 34.4299V37.1599L37.91 36.5099V33.7799Z" fill="#DCDCE5"/>
<path d="M37.6 36.7399L37.68 36.6899V33.8599L37.6 33.9099V36.7399Z" fill="#DCDCE5"/>
<path d="M37.01 37.08L37.08 37.04V34.2L37.01 34.25V37.08Z" fill="#DCDCE5"/>
<path d="M36.75 35.8601L37.95 35.1701V35.0701L36.75 35.7601V35.8601Z" fill="#DCDCE5"/>
<path d="M34.99 38.76L38.13 36.96V36.8L34.99 38.6101V38.76Z" fill="#F7EFD3"/>
<path d="M34.91 38.8898L38.2 36.9898V36.8398L34.91 38.7398V38.8898Z" fill="white"/>
<path d="M35.52 34.27L37.56 33.09V32.99L35.52 34.17V34.27Z" fill="#D8CBBB"/>
<path d="M35.6 33.78L36.39 33.33V31.48L35.6 31.93V33.78Z" fill="#94B8F2"/>
<path d="M35.58 31.9099L36.41 31.4299V33.3499L35.58 33.8199V31.9099ZM36.36 31.5299L35.63 31.9499V33.7299L36.36 33.3099V31.5299Z" fill="#DCDCE5"/>
<path d="M36.16 33.4601L36.21 33.4301V31.5801L36.16 31.6101V33.4601Z" fill="#DCDCE5"/>
<path d="M35.77 33.6801L35.82 33.6501V31.8101L35.77 31.8301V33.6801Z" fill="#DCDCE5"/>
<path d="M35.6 32.8899L36.39 32.4399V32.3699L35.6 32.8199V32.8899Z" fill="#DCDCE5"/>
<path d="M36.66 33.1699L37.44 32.7199V30.8699L36.66 31.3199V33.1699Z" fill="#94B8F2"/>
<path d="M36.63 31.3101L37.46 30.8301V32.7401L36.63 33.2201V31.3101ZM37.41 30.9201L36.68 31.3401V33.1201L37.41 32.7001V30.9201Z" fill="#DCDCE5"/>
<path d="M37.22 32.85L37.27 32.82V30.97L37.22 31V32.85Z" fill="#DCDCE5"/>
<path d="M36.83 33.07L36.88 33.04V31.2L36.83 31.2299V33.07Z" fill="#DCDCE5"/>
<path d="M36.66 32.28L37.44 31.83V31.76L36.66 32.21V32.28Z" fill="#DCDCE5"/>
<path d="M35.52 34.1699L37.56 32.9899V32.8899L35.52 34.0699V34.1699Z" fill="#F7EFD3"/>
<path d="M35.46 34.2499L37.6 33.0199V32.9199L35.46 34.1499V34.2499Z" fill="white"/>
<path d="M39.16 22.38L39.92 21.93V16.52L39.16 16.96V22.38Z" fill="#94B8F2"/>
<path d="M39.15 17L39.93 16.54V21.99L39.15 22.46V17ZM39.9 16.6L39.18 17.02V22.39L39.9 21.97V16.6Z" fill="#DCDCE5"/>
<path d="M39.16 18.01L39.92 17.57V17.52L39.16 17.96V18.01Z" fill="#DCDCE5"/>
<path d="M39.16 18.5899L39.92 18.1499V18.1099L39.16 18.5499V18.5899Z" fill="#DCDCE5"/>
<path d="M39.16 21.8499L39.92 21.4099V21.3599L39.16 21.8099V21.8499Z" fill="#DCDCE5"/>
<path d="M39.16 21.27L39.92 20.83V20.78L39.16 21.22V21.27Z" fill="#DCDCE5"/>
<path d="M39.16 20.1399L39.92 19.6999V19.6599L39.16 20.0999V20.1399Z" fill="#DCDCE5"/>
<path d="M39.16 19.53L39.92 19.09V19.04L39.16 19.48V19.53Z" fill="#DCDCE5"/>
<path d="M39.74 22.0399L39.78 22.0099V16.5999L39.74 16.6199V22.0399Z" fill="#DCDCE5"/>
<path d="M39.3101 22.2899L39.3401 22.2699V16.8599L39.3101 16.8799V22.2899Z" fill="#DCDCE5"/>
<path d="M39.16 26.4201L39.92 25.9801V20.5601L39.16 21.0001V26.4201Z" fill="#94B8F2"/>
<path d="M39.15 21L39.93 20.54V26L39.15 26.46V21ZM39.9 20.6L39.18 21.03V26.4L39.9 26V20.6Z" fill="#DCDCE5"/>
<path d="M39.16 22.0501L39.92 21.6101V21.5701L39.16 22.0101V22.0501Z" fill="#DCDCE5"/>
<path d="M39.16 22.6399L39.92 22.1899V22.1499L39.16 22.5899V22.6399Z" fill="#DCDCE5"/>
<path d="M39.16 25.8899L39.92 25.4499V25.4099L39.16 25.8499V25.8899Z" fill="#DCDCE5"/>
<path d="M39.16 25.3101L39.92 24.8701V24.8201L39.16 25.2701V25.3101Z" fill="#DCDCE5"/>
<path d="M39.16 24.18L39.92 23.74V23.7L39.16 24.1399V24.18Z" fill="#DCDCE5"/>
<path d="M39.16 23.5701L39.92 23.1301V23.0801L39.16 23.5301V23.5701Z" fill="#DCDCE5"/>
<path d="M39.74 26.0799L39.78 26.0599V20.6399L39.74 20.6599V26.0799Z" fill="#DCDCE5"/>
<path d="M39.3101 26.3399L39.3401 26.3099V20.8999L39.3101 20.9199V26.3399Z" fill="#DCDCE5"/>
<path d="M31.23 26.4201L31.99 25.9801V20.5601L31.23 21.0001V26.4201Z" fill="#94B8F2"/>
<path d="M31.22 21L32 20.54V26L31.22 26.46V21ZM31.97 20.6L31.25 21.03V26.4L32 26L31.97 20.6Z" fill="#DCDCE5"/>
<path d="M31.23 22.0501L31.99 21.6101V21.5701L31.23 22.0101V22.0501Z" fill="#DCDCE5"/>
<path d="M31.23 22.6399L31.99 22.1899V22.1499L31.23 22.5899V22.6399Z" fill="#DCDCE5"/>
<path d="M31.23 25.8899L31.99 25.4499V25.4099L31.23 25.8499V25.8899Z" fill="#DCDCE5"/>
<path d="M31.23 25.3101L31.99 24.8701V24.8201L31.23 25.2701V25.3101Z" fill="#DCDCE5"/>
<path d="M31.23 24.18L31.99 23.74V23.7L31.23 24.1399V24.18Z" fill="#DCDCE5"/>
<path d="M31.23 23.5701L31.99 23.1301V23.0801L31.23 23.5301V23.5701Z" fill="#DCDCE5"/>
<path d="M31.8199 26.0799L31.8499 26.0599V20.6399L31.8199 20.6599V26.0799Z" fill="#DCDCE5"/>
<path d="M31.38 26.3399L31.41 26.3099V20.8999L31.38 20.9199V26.3399Z" fill="#DCDCE5"/>
<path d="M31.23 30.2699L31.99 29.8199V24.4099L31.23 24.8499V30.2699Z" fill="#94B8F2"/>
<path d="M31.22 24.8399L32 24.3799V29.8399L31.22 30.2999V24.8399ZM31.97 24.4399L31.25 24.8599V30.2299L31.97 29.8099V24.4399Z" fill="#DCDCE5"/>
<path d="M31.23 25.8999L31.99 25.4599V25.4099L31.23 25.8599V25.8999Z" fill="#DCDCE5"/>
<path d="M31.23 26.48L31.99 26.04V26L31.23 26.44V26.48Z" fill="#DCDCE5"/>
<path d="M31.23 29.74L31.99 29.3V29.26L31.23 29.7V29.74Z" fill="#DCDCE5"/>
<path d="M31.23 29.1599L31.99 28.7199V28.6699L31.23 29.1199V29.1599Z" fill="#DCDCE5"/>
<path d="M31.23 28.0301L31.99 27.59V27.55L31.23 27.99V28.0301Z" fill="#DCDCE5"/>
<path d="M31.23 27.4199L31.99 26.9799V26.9299L31.23 27.3799V27.4199Z" fill="#DCDCE5"/>
<path d="M31.8199 29.93L31.8499 29.91V24.49L31.8199 24.51V29.93Z" fill="#DCDCE5"/>
<path d="M31.38 30.18L31.41 30.16V24.75L31.38 24.77V30.18Z" fill="#DCDCE5"/>
<path d="M33.41 31.8099L39.12 28.4999V26.6199L33.41 29.9199V31.8099Z" fill="white"/>
<path d="M32.59 31.2199L33.43 31.7399V29.9499L32.59 29.4399V31.2199Z" fill="#E6E6E6"/>
<path d="M32.59 22.3L30.63 23.4401L30.86 23.56L32.84 22.4401L32.59 22.3Z" fill="white"/>
<path d="M32.84 22.4399V22.7499L30.88 23.8599L30.86 23.5599L32.84 22.4399Z" fill="#C4B098"/>
<path d="M32.59 23.55L30.63 24.6901L30.86 24.81L32.84 23.6901L32.59 23.55Z" fill="white"/>
<path d="M32.84 23.6899V23.9999L30.88 25.1099L30.86 24.8099L32.84 23.6899Z" fill="#C4B098"/>
<path d="M32.59 24.79L30.63 25.93L30.86 26.05L32.84 24.93L32.59 24.79Z" fill="white"/>
<path d="M32.84 24.9299V25.2399L30.88 26.3499L30.86 26.0499L32.84 24.9299Z" fill="#C4B098"/>
<path d="M32.59 26.47L30.63 27.61L30.86 27.73L32.84 26.62L32.59 26.47Z" fill="white"/>
<path d="M32.84 26.6199V26.9199L30.88 28.0299L30.86 27.7299L32.84 26.6199Z" fill="#C4B098"/>
<path d="M32.59 27.72L30.63 28.86L30.86 28.98L32.84 27.87L32.59 27.72Z" fill="white"/>
<path d="M32.84 27.8699V28.1699L30.88 29.2799L30.86 28.9799L32.84 27.8699Z" fill="#C4B098"/>
<path d="M38.12 18.23V29.44L38.56 29.18V17.97L38.12 18.23Z" fill="#F7EFD3"/>
<path d="M37.41 18.6399V29.8599L37.85 29.5999V18.3899L37.41 18.6399Z" fill="#F7EFD3"/>
<path d="M37.41 19.2198L38.56 18.5398V18.3398L37.41 19.0198V19.2198Z" fill="white"/>
<path d="M37.41 19.1399L38.56 18.4699V18.3899L37.41 19.0599V19.1399Z" fill="#D8CBBB"/>
<path d="M37.41 20.41L38.56 19.73V19.53L37.41 20.21V20.41Z" fill="white"/>
<path d="M37.41 20.3301L38.56 19.6601V19.5801L37.41 20.2501V20.3301Z" fill="#D8CBBB"/>
<path d="M37.41 21.6L38.56 20.92V20.72L37.41 21.4V21.6Z" fill="white"/>
<path d="M37.41 21.52L38.56 20.85V20.77L37.41 21.44V21.52Z" fill="#D8CBBB"/>
<path d="M37.41 22.7899L38.56 22.1099V21.9099L37.41 22.5899V22.7899Z" fill="white"/>
<path d="M37.41 22.71L38.56 22.04V21.96L37.41 22.63V22.71Z" fill="#D8CBBB"/>
<path d="M37.41 23.9799L38.56 23.2999V23.0999L37.41 23.7799V23.9799Z" fill="white"/>
<path d="M37.41 23.9099L38.56 23.2299V23.1499L37.41 23.8199V23.9099Z" fill="#D8CBBB"/>
<path d="M37.41 25.17L38.56 24.49V24.29L37.41 24.97V25.17Z" fill="white"/>
<path d="M37.41 25.0998L38.56 24.4198V24.3398L37.41 25.0198V25.0998Z" fill="#D8CBBB"/>
<path d="M37.41 26.36L38.56 25.68V25.48L37.41 26.16V26.36Z" fill="white"/>
<path d="M37.41 26.29L38.56 25.61V25.53L37.41 26.2V26.29Z" fill="#D8CBBB"/>
<path d="M37.41 27.5499L38.56 26.8699V26.6699L37.41 27.3499V27.5499Z" fill="white"/>
<path d="M37.41 27.48L38.56 26.8V26.72L37.41 27.4V27.48Z" fill="#D8CBBB"/>
<path d="M37.41 28.7399L38.56 28.0699V27.8599L37.41 28.5399V28.7399Z" fill="white"/>
<path d="M37.41 28.6699L38.56 27.9899V27.9099L37.41 28.5899V28.6699Z" fill="#D8CBBB"/>
<path d="M37.41 29.73V29.8601L37.85 29.6L38.12 29.4401L38.56 29.18V29.05L38.12 29.32L37.85 29.47L37.41 29.73Z" fill="white"/>
<path d="M37.41 29.7799V29.8599L37.85 29.5999L38.12 29.4399L38.56 29.1799V29.0999L38.12 29.3599L37.85 29.5199L37.41 29.7799Z" fill="#D8CBBB"/>
<path d="M35.13 19.9599V31.17L35.57 30.91V19.7L35.13 19.9599Z" fill="#F7EFD3"/>
<path d="M34.42 20.3699V31.5899L34.86 31.3199V20.1099L34.42 20.3699Z" fill="#F7EFD3"/>
<path d="M34.42 20.9401L35.57 20.2701V20.0701L34.42 20.7401V20.9401Z" fill="white"/>
<path d="M34.42 20.8699L35.57 20.1999V20.1099L34.42 20.7899V20.8699Z" fill="#D8CBBB"/>
<path d="M34.42 22.13L35.57 21.46V21.26L34.42 21.93V22.13Z" fill="white"/>
<path d="M34.42 22.06L35.57 21.39V21.3L34.42 21.98V22.06Z" fill="#D8CBBB"/>
<path d="M34.42 23.32L35.57 22.65V22.45L34.42 23.12V23.32Z" fill="white"/>
<path d="M34.42 23.25L35.57 22.58V22.5L34.42 23.17V23.25Z" fill="#D8CBBB"/>
<path d="M34.42 24.5099L35.57 23.8399V23.6399L34.42 24.3099V24.5099Z" fill="white"/>
<path d="M34.42 24.4399L35.57 23.7699V23.6799L34.42 24.3599V24.4399Z" fill="#D8CBBB"/>
<path d="M34.42 25.7001L35.57 25.0301V24.8301L34.42 25.5001V25.7001Z" fill="white"/>
<path d="M34.42 25.6299L35.57 24.9599V24.8799L34.42 25.5499V25.6299Z" fill="#D8CBBB"/>
<path d="M34.42 26.89L35.57 26.22V26.02L34.42 26.7V26.89Z" fill="white"/>
<path d="M34.42 26.8201L35.57 26.1501V26.0701L34.42 26.7401V26.8201Z" fill="#D8CBBB"/>
<path d="M34.42 28.09L35.57 27.41V27.21L34.42 27.89V28.09Z" fill="white"/>
<path d="M34.42 28.01L35.57 27.34V27.26L34.42 27.93V28.01Z" fill="#D8CBBB"/>
<path d="M34.42 29.2799L35.57 28.5999V28.3999L34.42 29.0799V29.2799Z" fill="white"/>
<path d="M34.42 29.2L35.57 28.53V28.45L34.42 29.12V29.2Z" fill="#D8CBBB"/>
<path d="M34.42 30.4698L35.57 29.7898V29.5898L34.42 30.2698V30.4698Z" fill="white"/>
<path d="M34.42 30.3899L35.57 29.7199V29.6399L34.42 30.3099V30.3899Z" fill="#D8CBBB"/>
<path d="M34.42 31.46V31.59L34.86 31.32L35.13 31.17L35.57 30.91V30.78L35.13 31.04L34.86 31.2L34.42 31.46Z" fill="white"/>
<path d="M34.42 31.5001V31.5901L34.86 31.3201L35.13 31.1701L35.57 30.9101V30.8301L35.13 31.0901L34.86 31.2401L34.42 31.5001Z" fill="#D8CBBB"/>
<path d="M36.21 29.3399C36.21 29.6199 36.37 29.7699 36.56 29.6699C36.6654 29.5861 36.7507 29.4797 36.8096 29.3585C36.8684 29.2374 36.8993 29.1046 36.9 28.9699C36.9 28.6899 36.74 28.5499 36.56 28.6499C36.4506 28.7284 36.3617 28.8321 36.3008 28.9522C36.2399 29.0723 36.2088 29.2053 36.21 29.3399Z" fill="#94B8F2"/>
<path d="M36.1801 29.3599C36.1801 29.6599 36.3501 29.8199 36.5601 29.7099C36.676 29.6224 36.7699 29.5091 36.8341 29.3788C36.8984 29.2486 36.9312 29.1051 36.9301 28.9599C36.9301 28.6499 36.7601 28.4899 36.5601 28.5999C36.4403 28.6867 36.3432 28.8011 36.2771 28.9334C36.2109 29.0657 36.1776 29.212 36.1801 29.3599ZM36.1801 29.3599C36.1788 29.2252 36.21 29.0923 36.2709 28.9722C36.3318 28.8521 36.4207 28.7484 36.5301 28.6699C36.7101 28.5699 36.8701 28.6699 36.8701 28.9899C36.8694 29.1246 36.8385 29.2574 36.7796 29.3785C36.7208 29.4997 36.6355 29.6061 36.5301 29.6899C36.3701 29.7699 36.2101 29.6199 36.2101 29.3399L36.1801 29.3599Z" fill="#DCDCE5"/>
<path d="M30.6 26.7501L30.61 26.7401V25.5701H30.6V26.7501Z" fill="#D8CBBB"/>
<path d="M30.12 20.99V32.45L30.6 32.74V31.04V27.27L30.61 26.74L30.6 26.75V25.57L30.61 21.28L30.12 20.99Z" fill="#D8CBBB"/>
<path d="M39.1 24.97V24.98L39.93 24.51H39.92L39.1 24.97Z" fill="white"/>
<path d="M39.14 24.7999V25.0499L39.93 24.6099V24.5999L40.74 24.1499L41.54 23.6999L41.29 23.5499L40.95 23.3599V23.7499L40.51 24.0099L40.5 23.9999L39.14 24.7999Z" fill="white"/>
<path d="M40.45 15L40.93 15.27L40.44 15.56L39.98 15.29L40.45 15Z" fill="white"/>
<path d="M30.6301 49.6501L28.4301 48.3801V48.0801L30.6301 49.3501" fill="#C4B098"/>
<path d="M28.4301 48.0799L28.6701 47.9299L30.6301 49.0599L32.5901 47.9599L32.8401 48.0999L30.6301 49.3499" fill="white"/>
<path d="M32.83 49.28V49.58L30.61 50.83V50.52" fill="#998675"/>
<path d="M30.61 50.83L28.41 49.56V49.25L30.61 50.52" fill="#C4B098"/>
<path d="M28.41 49.2499L28.66 49.0999L30.61 50.2399L32.58 49.1299L32.83 49.2799L30.61 50.5199" fill="white"/>
<path d="M32.82 46.8599V47.1599L30.61 48.4099V48.1099" fill="#998675"/>
<path d="M30.61 48.4098L28.41 47.1398V46.8398L30.61 48.1098" fill="#C4B098"/>
<path d="M28.41 46.8399L28.66 46.6899L30.61 47.8199L32.57 46.7099L32.82 46.8599L30.61 48.1099" fill="white"/>
<path d="M30.6 32.74L31.07 32.45V21L30.61 21.28L30.6 25.57H30.61V26.74L30.6 27.27H30.61L30.6 31.04V32.74Z" fill="#F9F9E3"/>
<path d="M30.6 26.7501L30.61 26.7401V25.5701H30.6V26.7501Z" fill="#F9F9E3"/>
<path d="M21.33 26.0801V27.5701L21.02 27.6701V26.2701L21.26 26.1301L21.33 26.0801Z" fill="#D8CBBB"/>
<path d="M39.91 26.1L39.98 26.14L40.22 26.29L40.45 26.14H40.46L40.93 25.84L41.19 25.67L40.93 25.51L40.87 25.47L40.46 25.74H40.45L39.98 26.05L39.91 26.1Z" fill="#C4B098"/>
<path d="M20.29 15.25L30.62 21.25L40.93 15.27L30.67 9.26001L20.29 15.25Z" fill="#F9F9E3"/>
<path d="M39.98 15.28L40.06 26L40.45 26.14V25.31V21.55V21.02V19.85V19.84V15.56L39.98 15.28Z" fill="#D8CBBB"/>
<path d="M40.4599 21.0198H40.45V19.8498V19.8398L40.4599 21.0198Z" fill="#F9F9E3"/>
<path d="M40.93 25.84V15.27L40.45 15.56V19.84L40.4599 21.02H40.45V21.55L40.4599 25.32L40.45 25.31V26.14" fill="#F9F9E3"/>
<path d="M40.22 26.2899V27.6799L40.46 27.5399L40.66 27.4199L40.84 26.8299L40.93 26.5299L41.19 25.6699L40.93 25.8399L40.46 26.1399H40.45L40.22 26.2899Z" fill="white"/>
<path d="M39.91 26.0999V27.5799L40.22 27.6799V26.2899L39.98 26.1399L39.91 26.0999Z" fill="#D8CBBB"/>
<path d="M39.14 19.37V19.6299L39.93 19.19V19.18L40.74 18.7199L41.54 18.28L41.29 18.1299L40.95 17.95V18.33L40.51 18.58H40.5L39.14 19.37Z" fill="white"/>
<path d="M39.14 19.63V19.94L40.75 19.03V19.02L41.54 18.58V18.28L40.74 18.72L40.75 18.73L39.93 19.19L39.14 19.63Z" fill="#C4B098"/>
<path d="M39.9301 19.18V19.19L40.7501 18.73L40.7401 18.72L39.9301 19.18Z" fill="#C4B098"/>
<path d="M39.14 20.6199V20.8799L39.93 20.4399V20.4299L40.74 19.9699L41.54 19.5299L41.31 19.3899L41.29 19.3799L40.95 19.1899V19.5699L40.51 19.8299H40.5L39.14 20.6199Z" fill="white"/>
<path d="M41.29 19.3799L41.31 19.3899H41.32L41.29 19.3799Z" fill="white"/>
<path d="M39.14 20.88V21.19L40.75 20.28V20.27L41.54 19.83V19.53L40.74 19.97L40.75 19.98L39.93 20.44L39.14 20.88Z" fill="#C4B098"/>
<path d="M39.9301 20.43V20.44L40.7501 19.98L40.7401 19.97L39.9301 20.43Z" fill="#C4B098"/>
<path d="M39.14 21.8599V22.1199L39.93 21.6799V21.6699L40.74 21.2099L41.54 20.7699L41.29 20.6199L40.95 20.4399V20.8199L40.51 21.0699H40.5L39.14 21.8599Z" fill="white"/>
<path d="M39.14 22.12V22.43L40.75 21.52L41.54 21.07V20.77L40.74 21.21L40.75 21.22L39.93 21.68L39.14 22.12Z" fill="#C4B098"/>
<path d="M39.9301 21.67V21.68L40.7501 21.22L40.7401 21.21L39.9301 21.67Z" fill="#C4B098"/>
<path d="M39.14 23.5499V23.8099L39.93 23.3599V23.3499L40.74 22.8999L41.54 22.4499L41.29 22.2999L40.95 22.0999V22.4999L40.51 22.7599L40.5 22.7499L39.14 23.5499Z" fill="white"/>
<path d="M39.14 23.8099V24.12L40.75 23.2L41.54 22.75V22.45L40.74 22.9H40.75L39.93 23.36L39.14 23.8099Z" fill="#C4B098"/>
<path d="M39.9301 23.3499V23.3599L40.7501 22.8999H40.7401L39.9301 23.3499Z" fill="#C4B098"/>
<path d="M39.14 25.0499V25.37L40.75 24.45L41.54 24V23.7L40.74 24.15H40.75L39.93 24.61L39.14 25.0499Z" fill="#C4B098"/>
<path d="M39.9301 24.5999V24.6099L40.7501 24.1499H40.7401L39.9301 24.5999Z" fill="#C4B098"/>
<path d="M30.65 19.4599L21.98 14.5199V13.1899L30.65 18.1299V19.4599Z" fill="white"/>
<path d="M30.62 21.2499L30.67 8.90991L40.93 15.2699L30.62 21.2499Z" fill="#D8CBBB"/>
<path d="M30.65 19.49L39.32 14.55V13.21L30.65 18.15V19.49Z" fill="#C4B098"/>
<path d="M30.64 8.07007L30.65 18.1501L21.98 13.1901L30.64 8.07007Z" fill="#E25A5A"/>
<path d="M39.33 13.1901L30.64 8.07007L30.67 18.1501" fill="#C64444"/>
<path d="M26.08 16.95L24.89 16.27V16.21L26.08 16.9V16.95Z" fill="#D8CBBB"/>
<path d="M26.03 16.6701L25.58 16.4001V15.3301L26.03 15.5901V16.6701Z" fill="#94B8F2"/>
<path d="M26 16.69L25.52 16.41V15.3L26 15.58V16.69ZM25.55 16.39L25.98 16.64V15.64L25.55 15.4V16.39Z" fill="#DCDCE5"/>
<path d="M25.7101 16.4799L25.6801 16.4599V15.3899L25.7101 15.3999V16.4799Z" fill="#DCDCE5"/>
<path d="M25.93 16.61L25.9 16.59V15.52L25.93 15.53V16.61Z" fill="#DCDCE5"/>
<path d="M26.03 16.1499L25.58 15.8799V15.8499L26.03 16.1099V16.1499Z" fill="#DCDCE5"/>
<path d="M25.42 16.31L24.96 16.05V14.97L25.42 15.24V16.31Z" fill="#94B8F2"/>
<path d="M25.43 16.34L25 16.06V15L25.48 15.28L25.43 16.34ZM25 16L25.42 16.24V15.24L25 15V16Z" fill="#DCDCE5"/>
<path d="M25.0901 16.13L25.0601 16.11V15.03L25.0901 15.05V16.13Z" fill="#DCDCE5"/>
<path d="M25.32 16.2499L25.29 16.2399V15.1599L25.32 15.1799V16.2499Z" fill="#DCDCE5"/>
<path d="M25.42 15.79L24.96 15.53V15.49L25.42 15.76V15.79Z" fill="#DCDCE5"/>
<path d="M26.08 16.8899L24.89 16.2099V16.1499L26.08 16.8399V16.8899Z" fill="#F7EFD3"/>
<path d="M26.11 16.9399L24.87 16.2199V16.1599L26.11 16.8899V16.9399Z" fill="white"/>
<path d="M34.99 17.1199L36.18 16.4299V16.3799L34.99 17.0599V17.1199Z" fill="#D8CBBB"/>
<path d="M35.04 16.83L35.49 16.57V15.49L35.04 15.76V16.83Z" fill="#94B8F2"/>
<path d="M35 15.75L35.48 15.47V16.58L35 16.86V15.75ZM35.45 15.52L35.02 15.77V16.77L35.45 16.53V15.52Z" fill="#DCDCE5"/>
<path d="M35.37 16.64L35.39 16.63V15.55L35.37 15.57V16.64Z" fill="#DCDCE5"/>
<path d="M35.14 16.7699L35.17 16.7599V15.6799L35.14 15.6999V16.7699Z" fill="#DCDCE5"/>
<path d="M35.04 16.31L35.49 16.05V16.01L35.04 16.27V16.31Z" fill="#DCDCE5"/>
<path d="M35.65 16.4799L36.11 16.2099V15.1399L35.65 15.3999V16.4799Z" fill="#94B8F2"/>
<path d="M35.64 15.3899L36.12 15.1099V16.2299L35.64 16.5099V15.3899ZM36.09 15.1699L35.67 15.4099V16.4099L36.09 16.1599V15.1699Z" fill="#DCDCE5"/>
<path d="M35.98 16.29L36.01 16.27V15.2L35.98 15.22V16.29Z" fill="#DCDCE5"/>
<path d="M35.75 16.4201L35.78 16.4001V15.3301L35.75 15.3501V16.4201Z" fill="#DCDCE5"/>
<path d="M35.65 15.9599L36.11 15.6999V15.6599L35.65 15.9199V15.9599Z" fill="#DCDCE5"/>
<path d="M34.99 17.0601L36.18 16.3701V16.3201L34.99 17.0001V17.0601Z" fill="#F7EFD3"/>
<path d="M34.96 17.1101L36.2 16.3901V16.3301L34.96 17.0501V17.1101Z" fill="white"/>
<path d="M30.59 18.13L30.57 8.18996L22.02 13.24L21.95 13.13L30.7099 7.95996L30.7199 18.13H30.59Z" fill="#F9F9E3"/>
<path d="M39.18 13.26L30.59 8.13003L30.7 8.03003L39.44 13.26H39.18Z" fill="#F9F9E3"/>
<path d="M22.2701 15.4599L21.55 15.0599V13.3799L22.2701 13.7799V15.4599Z" fill="white"/>
<path d="M21.55 13.3799L21.9401 13.1099L22.6101 13.4999L22.2701 13.7799L21.55 13.3799Z" fill="#F7EFD3"/>
<path d="M22.27 15.46L22.61 15.13V13.5L22.27 13.78V15.42" fill="#C4B098"/>
<path d="M24.35 16.6899L23.64 16.2899V14.6099L24.35 15.0099V16.6899Z" fill="white"/>
<path d="M23.64 14.6099L24.03 14.3499L24.69 14.7299L24.35 15.0099L23.64 14.6099Z" fill="#F7EFD3"/>
<path d="M24.35 16.69L24.69 16.37V14.73L24.35 15.01V16.65" fill="#C4B098"/>
<path d="M26.6501 18.0299L25.9301 17.6299V15.9399L26.6501 16.3499V18.0299Z" fill="white"/>
<path d="M25.9301 15.9399L26.3201 15.6799L26.9901 16.0699L26.6501 16.3499L25.9301 15.9399Z" fill="#F7EFD3"/>
<path d="M26.65 18.0301L26.99 17.7001V16.0701L26.65 16.3501V17.9901" fill="#C4B098"/>
<path d="M30.31 20.11L29.59 19.7V18.02L30.31 18.43V20.11Z" fill="white"/>
<path d="M29.59 18.02L29.99 17.76L30.65 18.14L30.31 18.43L29.59 18.02Z" fill="#F7EFD3"/>
<path d="M30.3101 20.1099L30.6501 19.7799V18.1399L30.3101 18.4299V20.0699" fill="#C4B098"/>
<path d="M31.03 20.11L31.75 19.7V18.02L31.03 18.43V20.11Z" fill="white"/>
<path d="M31.7501 18.02L31.3501 17.76L30.6901 18.14L31.0301 18.43L31.7501 18.02Z" fill="#F7EFD3"/>
<path d="M31.0301 20.1099L30.6901 19.7799V18.1399L31.0301 18.4299V20.0699" fill="#D8CBBB"/>
<path d="M34.23 18.28L34.95 17.8799V16.2L34.23 16.6V18.28Z" fill="white"/>
<path d="M34.95 16.1999L34.55 15.9399L33.89 16.3199L34.23 16.5999L34.95 16.1999Z" fill="#F7EFD3"/>
<path d="M34.23 18.2801L33.89 17.9501V16.3201L34.23 16.6001V18.2401" fill="#D8CBBB"/>
<path d="M36.58 16.9201L37.3 16.5201V14.8301L36.58 15.2401V16.9201Z" fill="white"/>
<path d="M37.3 14.8301L36.91 14.5701L36.24 14.9601L36.58 15.2401L37.3 14.8301Z" fill="#F7EFD3"/>
<path d="M36.58 16.92L36.24 16.59V14.96L36.58 15.24V16.88" fill="#D8CBBB"/>
<path d="M38.99 15.5199L39.71 15.1199V13.4399L38.99 13.8399V15.5199Z" fill="white"/>
<path d="M39.71 13.4399L39.32 13.1799L38.65 13.5599L38.99 13.8399L39.71 13.4399Z" fill="#F7EFD3"/>
<path d="M38.99 15.5201L38.65 15.1901V13.5601L38.99 13.8401V15.4801" fill="#D8CBBB"/>
<path d="M30.61 21.1901L30.59 21.6001L28.63 20.3901L28.14 20.7001L27.85 20.8601L21.83 17.4101L21.68 17.3301L21.9 17.1601L20.38 16.3001L20.73 16.0801L22.11 16.8801V17.2601L27.79 20.5001L28.63 20.0101L30.61 21.1901Z" fill="white"/>
<path d="M27.8501 20.8601L27.8401 21.2801L21.6801 17.7101V17.3301L21.8301 17.4101L27.8501 20.8601Z" fill="#D8CBBB"/>
<path d="M28.63 20.3899V20.7299L30.59 21.9499V21.5999L28.63 20.3899Z" fill="#D8CBBB"/>
<path d="M21.9 17.16L21.68 17.33V17.38L20.38 16.64V16.3L21.9 17.16Z" fill="#D8CBBB"/>
<path d="M27.84 21.2799L28.63 20.7299V20.3899L27.85 20.8599L27.84 21.2799Z" fill="#C4B098"/>
<path d="M30.59 21.1799V21.5999L32.56 20.4099L33.05 20.7299L33.34 20.8899L39.37 17.4399L39.51 17.3499L39.29 17.1799L40.81 16.3199L40.46 16.1099L39.09 16.9099V17.2799L33.4 20.5199L32.56 20.0399L30.59 21.1799Z" fill="white"/>
<path d="M33.34 20.8899L33.35 21.2999L39.51 17.7299V17.3499L39.37 17.4399L33.34 20.8899Z" fill="#D8CBBB"/>
<path d="M32.56 20.4099V20.7499L30.59 21.9499V21.5999L32.56 20.4099Z" fill="#998675"/>
<path d="M39.29 17.1801L39.51 17.3501V17.4001L40.81 16.6601V16.3201L39.29 17.1801Z" fill="#998675"/>
<path d="M33.3501 21.2999L32.5601 20.7499V20.4099L33.3401 20.8899L33.3501 21.2999Z" fill="#C4B098"/>
<path d="M22.84 37.5699C22.84 37.5699 23.25 37.4099 23.39 37.4899C23.4956 37.541 23.6062 37.5812 23.72 37.6099C23.5898 37.7738 23.4049 37.8852 23.1991 37.9238C22.9934 37.9624 22.7807 37.9255 22.6 37.8199V37.6999L22.84 37.5699Z" fill="#FCFBFB"/>
<path d="M22.84 37.5699C22.84 37.5699 23.25 37.4099 23.39 37.4899C23.4956 37.541 23.6062 37.5812 23.72 37.6099C23.5898 37.7738 23.4049 37.8852 23.1991 37.9238C22.9934 37.9624 22.7807 37.9255 22.6 37.8199V37.6999L22.84 37.5699Z" fill="url(#paint0_linear_111_753)"/>
<path d="M22.08 37.89C21.95 37.89 21.47 37.89 21.58 38.12C21.69 38.35 21.73 38.55 21.94 38.46C22.0365 38.4238 22.1212 38.3618 22.1847 38.2806C22.2482 38.1994 22.2881 38.1023 22.3 38C22.3 37.84 22.14 37.88 22.08 37.89Z" fill="#FCFBFB"/>
<path d="M22.68 37.5601C22.5121 37.5262 22.348 37.476 22.19 37.4101C22.1384 37.3748 22.0774 37.356 22.015 37.356C21.9525 37.356 21.8915 37.3748 21.84 37.4101C21.84 37.4101 22.04 37.4901 22.09 37.5801C22.14 37.6701 22.24 37.8701 22.38 37.8101C22.4934 37.7443 22.5948 37.6598 22.68 37.5601Z" fill="#FCFBFB"/>
<path d="M22.86 37.6199C22.86 37.6199 22.95 37.3299 23.13 37.3499C23.13 37.3499 23.13 37.3499 23.18 37.3499C23.23 37.3499 23.18 37.3499 23.1 37.2999C23.02 37.2499 23.04 37.1799 22.94 37.2999C22.83 37.4381 22.6941 37.5536 22.54 37.6399C22.54 37.6399 22.17 37.8199 22.1 37.9899L22.28 38.1199C22.4107 38.0917 22.5324 38.0312 22.6337 37.9438C22.735 37.8565 22.8128 37.7451 22.86 37.6199Z" fill="#FCFBFB"/>
<path d="M22.68 37.5601C22.5121 37.5262 22.348 37.476 22.19 37.4101C22.1384 37.3748 22.0774 37.356 22.015 37.356C21.9525 37.356 21.8915 37.3748 21.84 37.4101C21.84 37.4101 22.04 37.4901 22.09 37.5801C22.14 37.6701 22.24 37.8701 22.38 37.8101C22.4934 37.7443 22.5948 37.6598 22.68 37.5601Z" fill="url(#paint1_linear_111_753)"/>
<g opacity="0.5">
<path d="M22.14 37.8899C22.1494 37.8943 22.1596 37.8966 22.17 37.8966C22.1804 37.8966 22.1906 37.8943 22.2 37.8899C22.2161 37.896 22.2339 37.896 22.25 37.8899H22.14Z" fill="#191818"/>
</g>
<g style="mix-blend-mode:multiply" opacity="0.5">
<path d="M23.49 37.6899L23.58 37.7399C23.5539 37.7477 23.5261 37.7477 23.5 37.7399L23.49 37.6899Z" fill="#D8D6D6"/>
<path d="M23.38 37.71C23.4256 37.7442 23.4762 37.7712 23.53 37.79C23.4783 37.7733 23.4306 37.7461 23.39 37.71H23.38Z" fill="#D8D6D6"/>
<path d="M23.3 37.73L23.46 37.83L23.31 37.73H23.3Z" fill="#D8D6D6"/>
<path d="M23.23 37.75L23.39 37.85L23.24 37.75H23.23Z" fill="#D8D6D6"/>
<path d="M23.17 37.78C23.2154 37.8172 23.2659 37.8475 23.32 37.87L23.17 37.79V37.78Z" fill="#D8D6D6"/>
<path d="M23.1 37.8098L23.22 37.9098L23.09 37.8098H23.1Z" fill="#D8D6D6"/>
<path d="M23.05 37.8298C23.0854 37.8684 23.1257 37.9021 23.17 37.9298C23.1266 37.9048 23.0891 37.8707 23.06 37.8298H23.05Z" fill="#D8D6D6"/>
<path d="M23 37.8699L23.07 37.9299L23 37.8599V37.8699Z" fill="#D8D6D6"/>
</g>
<g style="mix-blend-mode:multiply" opacity="0.5">
<path d="M22.07 37.3999L21.98 37.4499L22.07 37.3899V37.3999Z" fill="#D8D6D6"/>
<path d="M22.11 37.4099C22.068 37.4235 22.0301 37.4476 22 37.4799C22.0322 37.4453 22.074 37.4209 22.12 37.4099H22.11Z" fill="#D8D6D6"/>
<path d="M22.2899 37.48L22.1699 37.53L22.2899 37.47V37.48Z" fill="#D8D6D6"/>
<path d="M22.36 37.49L22.23 37.55L22.37 37.49H22.36Z" fill="#D8D6D6"/>
</g>
<path d="M30.12 15C30.12 15 29.49 14.76 29.27 14.88C29.1088 14.9569 28.9416 15.0205 28.77 15.07C28.9682 15.3241 29.2526 15.497 29.5694 15.5559C29.8862 15.6149 30.2137 15.5559 30.49 15.39V15.21L30.12 15Z" fill="#FCFBFB"/>
<path d="M30.12 15C30.12 15 29.49 14.76 29.27 14.88C29.1088 14.9569 28.9416 15.0205 28.77 15.07C28.9682 15.3241 29.2526 15.497 29.5694 15.5559C29.8862 15.6149 30.2137 15.5559 30.49 15.39V15.21L30.12 15Z" fill="url(#paint2_linear_111_753)"/>
<path d="M31.29 15.46C31.51 15.46 32.29 15.46 32.08 15.81C31.87 16.16 31.85 16.48 31.51 16.35C31.3602 16.2904 31.2297 16.1907 31.1328 16.062C31.0358 15.9333 30.976 15.7804 30.96 15.62C31 15.38 31.2 15.45 31.29 15.46Z" fill="#F2F2F2"/>
<path d="M30.38 14.94C30.6358 14.8882 30.8867 14.8146 31.13 14.72C31.2147 14.6714 31.3127 14.651 31.4098 14.6617C31.5069 14.6725 31.598 14.714 31.67 14.78C31.67 14.83 31.36 14.91 31.29 15.04C31.22 15.17 31.05 15.49 30.83 15.39C30.6495 15.2739 30.4961 15.1205 30.38 14.94Z" fill="#FCFBFB"/>
<path d="M30.09 14.9999C30.09 14.9999 29.95 14.5499 29.68 14.5899H29.59C29.59 14.5899 29.59 14.5899 29.72 14.5099C29.85 14.4299 29.81 14.3199 29.96 14.5099C30.1366 14.7162 30.3461 14.8919 30.58 15.0299C30.58 15.0299 31.16 15.2999 31.26 15.5599L30.99 15.7699C30.7869 15.7286 30.5977 15.6362 30.4403 15.5015C30.2828 15.3668 30.1622 15.1942 30.09 14.9999Z" fill="#F2F2F2"/>
<path d="M30.45 14.7899C30.6853 14.7672 30.919 14.7305 31.15 14.6799C31.2379 14.6557 31.3301 14.6512 31.42 14.6668C31.5099 14.6824 31.5952 14.7176 31.67 14.7699C31.67 14.7699 31.39 14.8499 31.33 14.9499C31.27 15.0499 31.14 15.2799 30.92 15.1899C30.7435 15.0817 30.585 14.9467 30.45 14.7899Z" fill="url(#paint3_linear_111_753)"/>
<g opacity="0.5">
<path d="M29.83 14.58C29.8459 14.58 29.8612 14.5736 29.8724 14.5624C29.8837 14.5511 29.89 14.5359 29.89 14.52C29.89 14.504 29.8837 14.4888 29.8724 14.4775C29.8612 14.4663 29.8459 14.46 29.83 14.46C29.8141 14.46 29.7988 14.4663 29.7876 14.4775C29.7763 14.4888 29.77 14.504 29.77 14.52C29.77 14.5359 29.7763 14.5511 29.7876 14.5624C29.7988 14.5736 29.8141 14.58 29.83 14.58Z" fill="#191818"/>
</g>
<g opacity="0.5">
<path d="M31 15.76C31.0318 15.735 31.0589 15.7045 31.08 15.67C31.08 15.67 31.08 15.62 31.08 15.6C31.08 15.58 31.08 15.6 31.02 15.6C31.0108 15.5947 31.0005 15.5919 30.99 15.5919C30.9794 15.5919 30.9691 15.5947 30.96 15.6C30.96 15.6 30.96 15.6 30.96 15.65C30.96 15.7 30.96 15.65 31.03 15.65V15.7L31 15.76Z" fill="#191818"/>
</g>
<g style="mix-blend-mode:multiply" opacity="0.5">
<path d="M29 15.0999C28.9705 15.1075 28.9396 15.1075 28.91 15.0999H29.01H29Z" fill="#D8D6D6"/>
<path d="M29.1001 15.1299C29.0626 15.1627 29.0182 15.1866 28.9701 15.1999C29.0223 15.1795 29.0699 15.1489 29.1101 15.1099L29.1001 15.1299Z" fill="#D8D6D6"/>
<path d="M29.2701 15.1599C29.2011 15.2075 29.1274 15.2478 29.05 15.2799C29.1337 15.2503 29.2116 15.2063 29.2801 15.1499L29.2701 15.1599Z" fill="#D8D6D6"/>
<path d="M29.6 15.2698L29.37 15.4098C29.4499 15.3725 29.5268 15.329 29.6 15.2798C29.6 15.2298 29.6 15.2798 29.6 15.2798V15.2698Z" fill="#D8D6D6"/>
<path d="M29.7 15.3098C29.6473 15.368 29.5867 15.4185 29.52 15.4598L29.71 15.2998L29.7 15.3098Z" fill="#D8D6D6"/>
<path d="M29.84 15.3999L29.73 15.4999L29.83 15.3999H29.84Z" fill="#D8D6D6"/>
<path d="M29.9101 15.4199L29.8301 15.4799L29.9201 15.4099L29.9101 15.4199Z" fill="#D8D6D6"/>
</g>
<g style="mix-blend-mode:multiply" opacity="0.5">
<path d="M31.3101 14.72L31.4501 14.8C31.3998 14.7759 31.3528 14.7457 31.3101 14.71V14.72Z" fill="#D8D6D6"/>
<path d="M31.24 14.74C31.3043 14.7633 31.3624 14.8009 31.41 14.85C31.3556 14.7973 31.2909 14.7565 31.22 14.73L31.24 14.74Z" fill="#D8D6D6"/>
<path d="M31.14 14.76C31.1909 14.786 31.2446 14.8061 31.3 14.82L31.15 14.76H31.14Z" fill="#D8D6D6"/>
<path d="M31 14.8201C31.0567 14.8294 31.1111 14.8498 31.16 14.8801C31.1056 14.8541 31.0486 14.834 30.99 14.8201H31Z" fill="#D8D6D6"/>
<path d="M31 14.8401L31.18 14.9301L31 14.8101V14.8401Z" fill="#D8D6D6"/>
<path d="M30.85 14.8599L31.06 14.9599L30.85 14.8699V14.8599Z" fill="#D8D6D6"/>
<path d="M30.79 14.9099L31 14.9999L30.76 14.9199L30.79 14.9099Z" fill="#D8D6D6"/>
</g>
<defs>
<linearGradient id="paint0_linear_111_753" x1="54.605" y1="59.1992" x2="53.604" y2="59.6502" gradientUnits="userSpaceOnUse">
<stop stop-color="#FCFBFB" stop-opacity="0"/>
<stop offset="1" stop-color="#E0E0E0"/>
</linearGradient>
<linearGradient id="paint1_linear_111_753" x1="53.2499" y1="59.3502" x2="52.863" y2="59.1961" gradientUnits="userSpaceOnUse">
<stop stop-color="#FCFBFB" stop-opacity="0"/>
<stop offset="1" stop-color="#E0E0E0"/>
</linearGradient>
<linearGradient id="paint2_linear_111_753" x1="28.9258" y1="14.8154" x2="30.486" y2="15.5153" gradientUnits="userSpaceOnUse">
<stop stop-color="#FCFBFB" stop-opacity="0"/>
<stop offset="1" stop-color="#E0E0E0"/>
</linearGradient>
<linearGradient id="paint3_linear_111_753" x1="29.3641" y1="14.709" x2="29.8424" y2="14.435" gradientUnits="userSpaceOnUse">
<stop stop-color="#FCFBFB" stop-opacity="0"/>
<stop offset="1" stop-color="#E0E0E0"/>
</linearGradient>
</defs>
</svg>
