<svg width="252" height="252" viewBox="0 0 252 252" fill="none" xmlns="http://www.w3.org/2000/svg">
<path d="M116.456 30.441L217.152 88.4825V175.647L116.456 117.722V30.441Z" fill="#231815"/>
<path d="M74.0413 173.931C72.2912 174.985 70.3807 176.08 68.418 177.126C68.2033 177.241 67.9887 177.353 67.774 177.466C66.6007 178.08 65.4492 178.661 64.3171 179.208C58.7047 181.363 53.912 181.918 50.5506 182.007C48.1998 182.068 46.4844 182.098 44.2659 181.478C40.8264 180.517 36.4392 178.067 34.5764 174.604C34.5525 174.562 34.5308 174.521 34.5091 174.478C34.0494 173.589 33.7588 172.634 33.6916 171.624C33.6807 171.466 33.6764 171.307 33.6764 171.151C33.6764 169.017 34.6002 167.109 34.7347 166.842C35.4265 165.448 36.3113 164.506 37.3479 163.559C38.1785 162.8 39.3604 161.802 40.9544 160.696C41.5681 160.269 42.2425 159.826 42.982 159.378C43.8755 158.831 44.8644 158.272 45.9531 157.716L48.833 159.378L74.0413 173.931Z" fill="#EEEEEF"/>
<path d="M95.9446 202.902V203.785C95.7473 203.919 95.5391 204.056 95.3222 204.197L93.6003 203.204C94.1013 202.917 94.5654 202.633 94.9969 202.356L95.9446 202.902Z" fill="#F7F7F7"/>
<path d="M45.9185 69.8148L45.9488 152.403L116.456 111.724V30.441L45.9185 69.8148Z" fill="#595757"/>
<path d="M66.0977 181.474V187.331L96.3155 204.769L96.3199 198.957L66.0977 181.474Z" fill="#C8C9CA"/>
<path d="M45.9465 152.431L146.667 210.564L217.143 169.874L116.456 111.724L45.9465 152.431Z" fill="#C8BB9B"/>
<path d="M153.206 158.042V198.925C153.206 201.15 150.278 202.952 146.667 202.952C143.056 202.952 140.129 201.15 140.129 198.925V158.042C140.129 155.817 143.056 154.014 146.667 154.014C150.278 154.014 153.206 155.817 153.206 158.042Z" fill="white"/>
<path d="M72.6426 111.535V152.418C72.6426 154.643 69.715 156.446 66.1042 156.446C62.4934 156.446 59.5657 154.643 59.5657 152.418V111.535C59.5657 109.31 62.4934 107.508 66.1042 107.508C69.715 107.508 72.6426 109.31 72.6426 111.535Z" fill="white"/>
<path d="M45.9465 111.732L146.667 169.874L217.143 129.175L116.456 70.9317L45.9465 111.732Z" fill="#C8BB9B"/>
<path d="M45.9164 111.761V123.389L146.637 181.522V169.902L45.9164 111.761Z" fill="#EEEEEF"/>
<path d="M217.144 129.175V140.803L210.317 144.746L210.113 144.863L200.05 150.673L199.849 150.79L189.784 156.6L189.582 156.717L179.518 162.526L179.316 162.644L169.254 168.453L169.05 168.57L158.987 174.38L158.783 174.497L146.667 181.493V169.874L158.783 162.878L158.987 162.761L169.05 156.949L169.254 156.832L179.316 151.02L179.518 150.905L189.582 145.093L189.784 144.976L199.849 139.164L200.05 139.047L210.113 133.235L210.317 133.12L217.144 129.175Z" fill="#EEEEEF"/>
<path d="M45.9465 152.431V158.245L146.667 216.378V210.564L45.9465 152.431Z" fill="#DBDCDC"/>
<path opacity="0.7" d="M74.0413 135.622C72.9939 136.253 71.89 136.9 70.7515 137.539C69.986 137.969 69.2074 138.396 68.4202 138.817C68.2055 138.932 67.9908 139.044 67.7761 139.157C66.6029 139.771 65.4513 140.352 64.3193 140.899C64.2 140.944 64.0808 140.99 63.9615 141.035C58.503 143.078 53.8404 143.614 50.5528 143.698C48.202 143.759 46.4866 143.789 44.268 143.169C41.451 142.382 37.9985 140.597 35.8168 138.073C35.3354 137.515 34.9147 136.923 34.5785 136.297C34.5547 136.256 34.533 136.214 34.5113 136.171C34.2598 135.687 34.0602 135.184 33.9193 134.662C33.8239 134.308 33.7545 133.948 33.7154 133.577C33.7046 133.49 33.6981 133.406 33.6916 133.317C33.6807 133.159 33.6764 133 33.6764 132.844C33.6764 130.71 34.6002 128.802 34.7347 128.535C35.4265 127.141 36.3113 126.2 37.3479 125.252C38.1785 124.493 39.3604 123.495 40.9544 122.389C41.5681 121.962 42.2425 121.52 42.982 121.071C43.8755 120.524 44.8644 119.965 45.9531 119.41L48.833 121.071L70.4956 133.577L74.0413 135.622Z" fill="white"/>
<path d="M106.367 210.577L86.2247 222.186L106.367 204.763V210.577Z" fill="#9E9E9F"/>
<path d="M66.0977 187.331L45.9554 198.94L66.0977 181.517V187.331Z" fill="#9E9E9F"/>
<path d="M217.144 169.874V175.688L146.667 216.378V210.564L217.144 169.874Z" fill="#EEEEEF"/>
<path d="M97.7639 202.347V202.926C97.4538 203.141 97.1198 203.364 96.7642 203.592C96.3088 203.885 95.8187 204.184 95.2895 204.487C95.0792 204.607 94.8645 204.728 94.6433 204.85C92.7349 205.893 90.4014 206.934 87.6646 207.725C81.9329 209.382 77.2876 209.113 75.9626 209.013C72.072 208.718 63.1806 208.044 58.9951 201.564C58.5766 200.916 57.7286 199.569 57.2819 197.762V197.76C57.2819 197.756 57.2797 197.749 57.2776 197.743C57.2212 197.515 57.1735 197.283 57.1323 197.042C57.0477 196.546 56.9956 196.019 56.9935 195.468C56.9935 195.468 56.9935 195.468 56.9935 195.466C56.9935 195.173 57.0043 194.874 57.0347 194.566C57.399 190.684 60.1857 187.167 64.3712 185.05C64.9914 184.735 65.6442 184.454 66.323 184.204L67.789 185.05L97.6468 202.28L97.7639 202.347Z" fill="#F7F7F7"/>
<path d="M97.7641 202.926V206.415C97.7034 206.457 97.6427 206.5 97.582 206.541C95.3504 208.07 91.9977 209.985 87.604 211.256C81.8723 212.913 77.2271 212.644 75.902 212.544C72.0115 212.249 63.1201 211.575 58.9346 205.097C58.3512 204.19 56.9351 201.935 56.9351 198.964C56.9351 198.682 56.9308 198.359 56.9351 198.064C56.9416 197.669 56.998 195.874 56.998 195.468C57.0002 196.019 57.0522 196.546 57.1368 197.043C57.178 197.285 57.2257 197.517 57.2821 197.743C57.2842 197.75 57.2842 197.754 57.2864 197.76V197.763C57.731 199.569 58.5789 200.916 58.9996 201.564C63.1851 208.042 72.0766 208.716 75.9671 209.013C77.2921 209.113 81.9374 209.382 87.6691 207.725C90.4059 206.934 92.7394 205.893 94.6478 204.85C94.869 204.728 95.0837 204.607 95.294 204.487C95.821 204.186 96.3133 203.885 96.7687 203.592C97.12 203.364 97.454 203.141 97.7641 202.926Z" fill="#C8C9CA"/>
<path d="M96.66 201.718V202.258C96.3715 202.46 96.0592 202.666 95.7274 202.878C95.3024 203.152 94.8448 203.431 94.3525 203.713C94.1573 203.826 93.9557 203.939 93.7496 204.052C91.9692 205.023 89.794 205.997 87.2394 206.734C81.8937 208.28 77.5607 208.029 76.3246 207.936C72.6965 207.66 64.4036 207.031 60.5 200.989C60.1097 200.384 59.3181 199.129 58.9017 197.444V197.442C58.9017 197.437 58.8996 197.431 58.8974 197.426C58.8453 197.214 58.7998 196.999 58.7608 196.771C58.6827 196.307 58.635 195.817 58.6328 195.303C58.6328 195.303 58.6328 195.303 58.6328 195.301C58.6328 195.028 58.6437 194.748 58.6697 194.462C59.0102 190.84 61.6104 187.559 65.5117 185.588C66.0908 185.295 66.698 185.03 67.3334 184.798L68.6997 185.588L96.5472 201.657L96.66 201.718Z" fill="#3E3A39"/>
<path d="M67.3878 184.666L67.2707 184.623L66.9909 184.753L66.954 184.536L66.7675 184.751L66.8022 184.827L66.49 184.391L66.2644 184.66L66.1169 184.527L65.9521 184.48L65.8112 184.343L65.6355 184.202L65.3796 184.228L65.089 184.217L65.4967 184.837L65.2582 184.846L64.8396 184.725L64.6835 184.794L64.9958 185.36L64.51 185.093L64.4818 185.345V185.735L64.0416 185.208L63.8399 185.482L63.9245 185.805L64.0936 186.113L63.9266 186.238L63.8355 186.462L63.4495 186.321L63.2695 186.611L63.1242 186.29L62.9681 186.212L62.7339 186.436L62.6775 185.948L62.3956 186.421L62.2676 186.301L62.0919 186.204L62.2047 186.505L62.0291 186.614L61.63 186.503L61.8838 186.969L61.578 186.937L61.3785 187.019L61.5671 187.305L60.999 187.314L61.0879 187.535L61.1464 187.737L61.1399 187.921L61.3394 188.264L61.2917 188.459L60.8905 188.4L60.7691 188.533L60.8884 188.845L60.639 188.882L60.7235 189.149L60.6737 189.29L59.9623 189.151L60.1857 189.45L60.4481 189.758L60.1055 189.814L60.112 190.044L59.6848 190.01L59.6219 190.2L59.5004 190.359L59.9905 190.751L59.5481 190.769L59.2055 190.773L59.4874 191.189L59.3399 191.324L59.2879 191.606L59.1296 191.688L58.8585 191.562L58.6633 191.591L58.4703 191.692L58.3966 191.875L58.2361 192.053L58.646 192.235L58.6828 192.406L58.3662 192.579L58.7089 192.777L58.1385 192.833L58.3359 193.083L58.6568 193.219L58.6004 193.384L58.5484 193.562L58.3337 193.761L58.5527 193.898L58.685 194.091L58.505 194.238L58.5636 194.499L58.1602 194.408L57.9282 194.444L58.2795 194.917L57.8891 194.88L58.1472 195.104L57.5812 195.336L58.3445 195.273L57.8544 195.676L58.0453 195.772L58.2491 195.863L58.1385 196.075L58.4616 196.199L58.0843 196.368L58.6547 196.609L58.5028 196.776L58.0041 196.915L58.518 197.112L58.2339 197.301L58.5961 197.437L58.6503 197.615L58.685 197.791L58.5983 197.984L58.531 198.179L58.5766 198.348L58.7587 198.244L58.8455 198.261L58.8889 198.591L59.0754 198.567L59.1686 198.875L59.4505 198.604L59.7173 198.593L59.3291 199.181L59.3877 199.133L59.3746 199.27L59.4636 199.508L59.1339 199.526L59.1513 199.751L59.4657 200.144L59.4289 200.309L58.9713 200.326L58.9171 200.642L59.2684 200.647L59.366 200.805L59.5091 200.94L59.4028 201.2L59.2532 201.508L59.5156 201.579L59.7325 201.905L59.945 201.302L60.1879 201.922L60.357 201.801L60.4178 201.195L60.6541 201.501L60.832 201.519L60.9686 201.111L61.1551 201.49L61.4197 201.388L61.6951 201.627L61.4826 201.827L61.3373 201.974L61.5476 202.219L61.1638 202.278L61.064 202.427L60.9296 202.57L60.7344 202.722L61.2375 202.952L61.2202 203.002L61.2765 203.162L61.45 203.126L61.604 203.288L61.8057 202.952L62.0009 202.982L62.1245 203.351L62.3066 203.388L62.5387 203.41L62.4346 203.754L62.7035 203.752L62.7339 203.965L62.9507 203.997L62.8597 204.412L63.2327 204.162L63.3498 204.427L63.5428 204.418L63.6794 204.67L63.9765 204.225L63.931 204.73L64.1673 204.913L64.4102 204.947L64.6249 204.234L64.7962 204.776L64.9372 204.874L65.2582 204.483L65.3167 204.748L65.4664 204.847L65.8047 204.748L65.7504 205.051L65.6333 205.507L66.1343 204.98L66.1603 205.329H66.3403L66.362 205.826L66.6027 205.633L66.7827 205.63L67.0668 205.359L66.9974 205.83L66.9714 206.016L67.0646 206.162L67.1319 206.331L67.314 206.474L67.3444 206.663L67.4854 206.806L67.6177 206.936L67.8584 206.687L67.9473 207.164L68.1425 207.092L68.3398 206.986L68.5523 206.832L68.6716 207.166L68.8603 207.164L69.0446 207.48L69.2333 207.32L69.422 207.524L69.5738 207.513L69.8492 206.801L69.9468 207.177L70.1051 206.89L70.348 207.467L70.5106 207.313L70.6668 207.088L70.8337 207.216L71.0289 207.105L71.1959 207.016L71.441 207.302L71.4973 206.791L71.6752 206.654L71.9116 207.09L72.1046 207.049L72.3887 206.94L72.4515 207.196L72.7638 207.044L72.8332 207.224L72.8723 207.732L72.9785 207.135L73.293 207.448L73.2865 207.112L73.7657 207.465L73.6682 207.003L74.0065 207.331L74.0607 206.945L74.2363 206.979L74.5616 206.851L74.3036 207.413L74.5898 207.352L74.733 207.446L75.0322 207.25L74.9975 207.756L75.0886 207.964L75.5137 207.389L75.4703 207.903L75.6677 207.918L75.8281 208.016L76.0537 207.799L76.3291 207.784L76.3139 208.163L76.2185 208.512L76.3464 208.625L76.585 208.643L76.8214 208.651L77.0578 208.276L77.1597 208.402L77.3483 208.471L77.6455 208.692L77.8124 208.608L77.9057 208.296L78.09 208.66L78.3915 208.636L78.3112 208.033L78.3828 207.873L78.5064 207.756L78.8772 207.959L79.0052 207.821L79.1917 207.86L79.4519 208.053L79.4151 207.491L79.5755 207.437L79.8987 207.608L80.0808 207.599L80.2044 207.543L80.2565 207.63L80.2912 207.793L80.5449 207.795L80.6403 207.949L81.0459 207.881L80.7206 208.354L81.0264 208.356L81.1738 208.484L81.4189 208.775L81.3083 208.265L81.8656 208.382L81.9155 208.209L81.9025 208.003L81.588 207.534L82.1541 207.819L82.1454 207.537L82.3124 207.613L82.41 207.647L82.3536 207.879L82.809 207.808L83.0714 207.864L83.015 208.092L82.7634 208.452L83.1126 208.421L83.1863 208.565L83.2926 208.382L83.6873 208.864L83.388 208.339L83.3837 208.153L83.7372 208.185L83.5398 207.842L84.1058 208.048L84.2772 208.057L84.2381 207.814L84.5309 208.001L84.6176 207.745L84.661 207.508L84.6545 207.203L84.8627 207.194L85.0709 207.231L85.2617 207.482L85.4374 207.057L85.5935 207.266L85.7714 207.144L85.9774 207.454L86.166 207.311L86.2875 207.131L86.2485 206.88L86.4133 206.784L86.8318 206.866L86.6128 206.485L86.7299 206.32L86.9142 206.281L87.1051 206.311L87.2005 206.064L87.3545 206.034L87.6841 206.346L87.7513 206.09L87.8728 205.828L88.0831 205.869L88.3152 205.672L88.3889 206.342L88.6383 205.906L88.7879 205.897L89.02 206.045L88.9788 205.821L89.2715 205.711L89.1609 205.515L89.2238 205.346L89.187 205.166L88.9744 204.904L89.4776 205.023L89.4429 204.72L89.6055 204.915L89.8007 204.709L89.8918 205.067L90.0501 205.162L90.2474 205.138L90.4491 204.988L90.6942 205.025L90.898 204.843L90.6291 204.481L90.5792 204.275L91.1865 204.338L91.1127 204.117L91.2732 204.045L91.2971 203.843L91.4619 203.863L91.6397 203.603L91.7872 203.93L91.9715 203.915L92.158 204.11L92.3575 203.93L92.4746 203.698L92.4269 203.535L92.9842 203.468L92.9279 203.26L92.6416 203.061L92.7934 202.887L92.8411 202.716L93.0536 202.588L92.4248 202.195L92.7869 202.067L93.0905 202.184L93.032 201.803L93.2011 201.72L93.3161 201.558L93.4418 201.375L93.7845 201.523L93.8799 201.911L94.151 201.577L94.1683 201.974L94.4568 201.74L94.6194 201.796L94.8645 201.631L94.91 201.935L95.0401 201.981L95.0618 201.755L95.5584 201.955L95.1637 201.417L95.4153 201.388L95.45 201.215L95.7341 201.154L95.4327 200.922L95.424 200.766L95.6408 200.603L96.1071 200.404L95.411 200.274L95.3893 200.113L95.6734 199.881L95.6213 199.708L95.771 199.385L95.4955 199.283L95.2288 199.376L94.9924 199.506L94.8731 199.309L94.8189 198.944L94.7235 198.793L94.383 199.031L94.2833 198.636L94.0859 199.157L93.8062 198.595L93.6891 198.994L93.4483 198.649L93.3009 199.317L93.1599 198.94L92.9756 198.908L92.9322 198.682L92.6785 198.73L92.5072 198.671L92.286 198.695L92.4638 198.107L92.3098 198.112L92.0149 198.151L91.9563 197.96L91.6636 197.975L91.8999 197.455L91.5811 197.513L91.399 197.294L91.2038 197.68L91.0195 197.487L90.8742 197.756L90.6877 197.366L90.5445 197.435L90.4166 197.424L90.1737 197.444L90.3016 197.181L89.7291 197.214L89.7074 197.036L90.2886 196.589L89.8592 196.6L89.8983 196.184L89.6684 196.212L89.5578 196.019L89.1262 196.529L88.9961 196.379L89.0677 195.835L88.6752 196.192L88.5429 196.06L88.3672 195.999L88.3108 195.759L88.2978 195.446L87.8814 195.789L87.9682 195.288L87.6732 195.368L87.7166 195.138L87.8706 194.904L87.5648 194.796L87.5757 194.592L87.7405 194.249L87.3328 194.247L87.2395 193.957L87.0508 193.878L86.8427 193.931L86.7039 193.787L86.5044 193.876L86.1183 194.249L85.9579 194.087L85.7952 193.97L86.0836 193.38L85.8863 193.319L85.7497 193.167L85.4808 193.213L85.3073 193.64L85.1338 193.482L84.9516 193.492L84.7109 193.41L84.4593 193.295L84.3444 193.466L84.1752 193.31L83.9649 193.757L84.0082 193.436L83.6526 193.427L83.6222 193.234L83.5789 193.059L83.8391 192.753L83.2991 192.868L83.2883 192.792L83.323 192.397L82.8892 192.538L83.2687 191.987L83.0931 191.877L82.6854 192.007L82.5986 191.849L82.475 191.673L82.243 191.862L82.0413 191.979L81.9198 191.621L81.8288 191.319L81.6032 191.456L81.588 191.179L81.0806 191.556L80.9353 191.441L80.8702 191.248L81.0134 190.753L80.7878 190.74L80.5579 190.964L80.3736 190.94L80.1285 190.866L79.9117 190.862L79.8163 191.064L79.6861 191.2L79.6645 191.588L79.3912 191.421L79.0312 191.727L78.9423 191.512L78.8881 191.252L78.823 191.018L78.7731 190.751L78.2722 191.261L78.4175 190.645L77.936 190.933L78.0185 190.634L77.8666 190.506L77.8927 190.305L77.55 190.294L77.6173 190.103L77.511 190.094L77.3874 189.825L77.459 189.569L77.4047 189.398L77.2659 189.253L77.5197 188.949L77.305 188.804L77.1423 188.567L76.8322 188.459L76.7693 189.11L76.47 188.726L76.3963 189.025L76.2358 189.103L76.0081 188.982L75.8476 189.038L75.5093 189.331L75.3814 189.006L75.3554 188.776L75.1949 188.624L75.364 188.377L75.2881 188.207L75.2296 188.027L75.0583 187.949L75.1493 187.514L74.6072 187.917L74.5551 187.696L74.6267 187.34L74.2233 187.57L74.1409 187.418L74.1496 187.032L73.8438 187.225L73.8265 186.891L73.4795 187.158L73.473 186.798L73.2474 186.841L73.1347 186.88L73.0197 186.991L72.7964 186.854L72.5275 186.67L72.5123 187.108L72.3865 187.357L72.1371 187.412L71.9441 187.01L71.5299 187.021L71.8335 186.692L71.801 186.518L71.853 186.327L71.3477 186.223L71.3564 186.058L71.3521 185.926L71.3868 185.82L71.1807 185.77L71.4041 185.184L71.2696 185.078L70.979 185.141L70.7362 185.158L70.6668 184.922L70.5019 184.822L70.1398 185.245L70.194 184.608L69.8839 184.922L69.7082 184.861L69.5369 184.775L69.4805 184.419L69.2983 184.861L69.114 184.525L68.9579 184.673L68.7735 184.423L68.6543 184.308L68.2921 184.833L68.2639 184.486L68.0427 184.458L67.7781 184.358L67.7976 184.861L67.5374 184.54L67.3878 184.666Z" fill="#608A69"/>
<path d="M153.206 122.96V157.66C153.206 159.885 150.278 161.687 146.667 161.687C143.056 161.687 140.129 159.885 140.129 157.66V122.96H153.206Z" fill="white"/>
<path d="M146.667 126.987C150.278 126.987 153.206 125.184 153.206 122.96C153.206 120.735 150.278 118.932 146.667 118.932C143.056 118.932 140.129 120.735 140.129 122.96C140.129 125.184 143.056 126.987 146.667 126.987Z" fill="white"/>
<path d="M72.6426 76.4531V111.153C72.6426 113.379 69.7149 115.181 66.1041 115.181C62.4933 115.181 59.5657 113.379 59.5657 111.153V76.4531H72.6426Z" fill="white"/>
<path d="M66.1042 80.4802C69.7153 80.4802 72.6426 78.6772 72.6426 76.4531C72.6426 74.2289 69.7153 72.4259 66.1042 72.4259C62.4931 72.4259 59.5657 74.2289 59.5657 76.4531C59.5657 78.6772 62.4931 80.4802 66.1042 80.4802Z" fill="white"/>
<path d="M74.3841 93.2643L73.2933 92.6333V168.219L74.3841 168.85V93.2643Z" fill="white"/>
<path d="M74.3841 93.2643L75.4597 92.6332V168.217L74.3841 168.837V93.2643Z" fill="#DBDCDC"/>
<path d="M81.1155 97.144L80.0225 96.5195V172.103L81.1112 172.734L81.1155 97.144Z" fill="white"/>
<path d="M82.189 96.5195V145.305L82.1868 172.101L82.1413 172.129L81.1155 172.723V97.144L82.189 96.5195Z" fill="#DBDCDC"/>
<path d="M87.8468 101.024L87.8403 148.573L86.7538 147.944V100.408L87.8468 101.024Z" fill="white"/>
<path d="M88.9203 100.408L88.9159 149.194L87.8468 148.575V101.024L88.9203 100.408Z" fill="#DBDCDC"/>
<path d="M94.5784 104.906L94.5697 152.462L93.4854 151.835V104.294L94.5784 104.906Z" fill="white"/>
<path d="M95.6517 104.294L95.6474 153.084L94.5782 152.466V104.906L95.6517 104.294Z" fill="#DBDCDC"/>
<path d="M101.308 108.785L101.297 156.348L100.215 155.723V108.182L101.308 108.785Z" fill="white"/>
<path d="M102.381 108.182L102.377 156.973L101.308 156.357V108.785L102.381 108.182Z" fill="#DBDCDC"/>
<path d="M108.039 112.665L108.017 188.264L107.406 187.908L106.946 187.639V112.069L108.039 112.665Z" fill="white"/>
<path d="M108.039 112.665L109.113 112.069L109.102 187.641L108.039 188.259V112.665Z" fill="#DBDCDC"/>
<path d="M114.771 116.547L113.678 115.955V191.525L114.743 192.146L114.771 116.547Z" fill="white"/>
<path d="M114.771 116.547L115.844 115.955L115.831 191.525L114.771 192.146V116.547Z" fill="#DBDCDC"/>
<path d="M121.502 120.427L120.409 119.843V195.41L121.47 196.03L121.502 120.427Z" fill="white"/>
<path d="M121.502 120.427L122.576 119.843L122.561 195.412L121.502 196.03V120.427Z" fill="#DBDCDC"/>
<path opacity="0.5" d="M107.406 187.908V188.667L82.139 174.083L82.1412 172.129L82.1867 172.101L82.1889 145.305L86.7539 147.944L87.8404 148.573L87.8469 148.576L88.916 149.194L93.4854 151.835L94.5697 152.462L94.5784 152.466L95.6475 153.084L100.215 155.723L101.297 156.348L101.308 156.357L102.377 156.973L106.946 159.614V187.639L107.406 187.908Z" fill="#231815"/>
<path opacity="0.6" d="M82.189 145.305L82.1868 172.101L82.1413 172.129L82.1565 145.286L82.189 145.305Z" fill="#595757"/>
<path opacity="0.6" d="M107.406 187.908L106.946 187.639V159.614L107.404 159.878L107.406 187.908Z" fill="#595757"/>
<path d="M45.964 76.8586L146.667 134.989L217.144 94.2901L116.456 36.1597L45.964 76.8586Z" fill="#C8C9CA"/>
<path opacity="0.5" d="M73.8786 92.8284V168.62L116.456 193.141V117.722L73.8786 92.8284Z" fill="#BEE1DC"/>
<path d="M74.0414 168.62C72.9939 169.251 71.8901 169.898 70.7516 170.537C69.986 170.967 69.2075 171.394 68.4203 171.815C68.2056 171.93 67.9909 172.042 67.7762 172.155C66.6029 172.769 65.4514 173.35 64.3194 173.897C58.7069 176.052 53.9142 176.607 50.5528 176.696C48.202 176.757 46.4866 176.787 44.2681 176.167C40.8286 175.207 36.4415 172.756 34.5786 169.293C34.5548 169.251 34.5331 169.21 34.5114 169.167C34.2598 168.683 34.0603 168.18 33.9193 167.657C33.8239 167.304 33.7545 166.944 33.7155 166.573C33.7046 166.486 33.6981 166.402 33.6916 166.313C33.6808 166.155 33.6765 165.996 33.6765 165.84C33.6765 163.706 34.6003 161.798 34.7348 161.531C35.4265 160.137 36.3114 159.195 37.348 158.248C38.1786 157.489 39.3605 156.491 40.9544 155.385C41.5681 154.958 42.2426 154.516 42.9821 154.067C43.8756 153.52 44.8645 152.961 45.9531 152.405L48.8331 154.067L70.4957 166.573L74.0414 168.62Z" fill="#C8BB9B"/>
<path d="M74.0412 168.62V172.437C73.7918 172.587 73.5424 172.736 73.2887 172.888C71.7511 173.801 70.1051 174.734 68.4201 175.632C68.2054 175.746 67.9907 175.859 67.776 175.972C66.6028 176.586 65.4512 177.167 64.3192 177.713C58.7067 179.869 53.914 180.424 50.5526 180.513C48.2018 180.574 46.4864 180.604 44.2679 179.984C40.8285 179.023 36.4413 176.573 34.5784 173.109C34.5546 173.068 34.5329 173.027 34.5112 172.984C34.3659 172.702 34.2379 172.415 34.1273 172.121C33.8888 171.485 33.7392 170.819 33.6915 170.13C33.6806 169.971 33.6763 169.813 33.6763 169.657V166.571H33.7153C33.7543 166.942 33.8237 167.302 33.9192 167.655C33.9777 167.874 34.0471 168.091 34.1273 168.302C34.2379 168.597 34.3659 168.883 34.5112 169.165C34.5329 169.208 34.5546 169.249 34.5784 169.29C36.4413 172.754 40.8285 175.202 44.2679 176.165C46.4864 176.785 48.2018 176.755 50.5526 176.694C53.914 176.607 58.7067 176.052 64.3192 173.894C65.4512 173.346 66.6049 172.767 67.776 172.153C67.9907 172.04 68.2054 171.928 68.4201 171.813C69.2073 171.392 69.988 170.967 70.7514 170.535C71.621 170.047 72.4711 169.555 73.2887 169.069C73.5403 168.922 73.7918 168.77 74.0412 168.62Z" fill="#EEEEEF"/>
<path d="M58.2103 94.6393V129.017C58.2103 129.097 58.2059 129.177 58.1973 129.255C58.1908 129.335 58.1799 129.416 58.1626 129.496H58.2103V164.196C58.2103 166.421 55.2826 168.223 51.6718 168.223C48.061 168.223 45.1334 166.421 45.1334 164.196V129.496H45.1811C45.1659 129.418 45.1529 129.338 45.1464 129.255C45.1377 129.177 45.1334 129.097 45.1334 129.017V94.6393H45.155C45.4218 96.7103 48.2389 98.3411 51.6718 98.3411C55.1048 98.3411 57.9219 96.7103 58.1886 94.6393H58.2103Z" fill="#F7F7F7"/>
<path d="M45.1809 129.493H45.1399C45.1378 129.467 45.1378 129.441 45.1356 129.415C45.1356 129.39 45.1356 129.366 45.1356 129.338V129.014C45.1356 129.094 45.1399 129.174 45.1486 129.252C45.1529 129.336 45.1636 129.415 45.1809 129.493Z" fill="#F7F7F7"/>
<path d="M58.2099 129.017V129.34C58.2099 129.366 58.2099 129.392 58.2099 129.418C58.2099 129.444 58.2077 129.469 58.2056 129.495H58.1646C58.1797 129.418 58.1926 129.338 58.1991 129.256C58.2056 129.176 58.2099 129.096 58.2099 129.017Z" fill="#F7F7F7"/>
<path d="M58.1887 94.3161C58.1952 94.3682 58.2017 94.4224 58.2038 94.4744V94.4766C58.1995 94.5308 58.1952 94.585 58.1887 94.6392C57.9219 96.7103 55.1048 98.3411 51.6719 98.3411C48.2389 98.3411 45.4219 96.7103 45.1551 94.6392C45.1486 94.585 45.1421 94.5308 45.1399 94.4766V94.4744C45.1443 94.4202 45.1486 94.3682 45.1551 94.3161H45.1334C45.1334 92.0911 48.0611 90.2889 51.6719 90.2889C55.2827 90.2889 58.2103 92.0911 58.2103 94.3161H58.1887Z" fill="#F7F7F7"/>
<path d="M45.1544 94.6348H45.1334C45.1334 94.582 45.1355 94.5293 45.1376 94.4766C45.1439 94.5314 45.1481 94.5842 45.1544 94.6348Z" fill="#F7F7F7"/>
<path d="M58.2096 94.6348H58.1885C58.1949 94.582 58.2012 94.5293 58.2033 94.4766C58.2075 94.5293 58.2096 94.582 58.2096 94.6348Z" fill="#F7F7F7"/>
<path d="M74.0416 135.705V146.854C72.9941 147.485 71.8903 148.131 70.7517 148.771C69.9862 149.2 69.2077 149.627 68.4204 150.048C68.2058 150.163 67.9911 150.276 67.7764 150.389C66.6031 151.002 65.4516 151.583 64.3195 152.13C58.7071 154.286 53.9144 154.841 50.553 154.93C48.2022 154.99 46.4868 155.021 44.2683 154.401C40.8288 153.44 36.4417 150.989 34.5788 147.526C34.5549 147.485 34.5333 147.444 34.5116 147.4C34.26 146.917 34.0605 146.413 33.9195 145.891C33.8241 145.537 33.7547 145.177 33.7157 144.806C33.7048 144.72 33.6983 144.633 33.6918 144.546C33.681 144.388 33.6766 144.23 33.6766 144.073V133.89C34.3814 138.652 40.0156 142.059 44.2314 143.234C44.9883 143.447 45.6887 143.581 46.3719 143.668C47.5993 143.82 48.7834 143.809 50.18 143.774C50.193 143.774 50.206 143.774 50.219 143.774C50.3253 143.772 50.4316 143.77 50.5378 143.766C51.0843 143.75 51.6677 143.724 52.2879 143.683C55.491 143.458 59.6353 142.772 64.3564 140.957C65.6988 140.307 67.0737 139.61 68.4725 138.867C70.4134 137.832 72.3045 136.75 74.0416 135.705Z" fill="white"/>
<path d="M45.1333 120.778V122.044C44.8276 122.216 44.537 122.385 44.2551 122.552C44.2117 122.578 44.1705 122.604 44.1293 122.63L45.1333 120.778Z" fill="#F7F7F7"/>
<path d="M74.1153 135.661C74.0914 135.676 74.0676 135.692 74.0415 135.707C72.3066 136.752 70.4156 137.834 68.4725 138.869C67.0737 139.613 65.6988 140.309 64.3564 140.959C62.1725 141.799 60.1102 142.397 58.2104 142.818C56.0006 143.31 54.0098 143.564 52.2879 143.685C51.6676 143.729 51.0843 143.755 50.5378 143.768C50.4293 143.77 50.3231 143.772 50.219 143.776C50.206 143.776 50.193 143.776 50.18 143.776C48.7812 143.811 47.5971 143.822 46.3718 143.67C45.9685 143.62 45.5586 143.551 45.1357 143.46C44.8408 143.397 44.5415 143.323 44.2314 143.236C40.0155 142.061 34.3814 138.654 33.6766 133.892C33.6484 133.712 33.6289 133.532 33.618 133.347C33.4619 131.018 34.5202 128.834 34.6633 128.544C35.3573 127.145 36.2464 126.202 37.2852 125.25C38.7317 123.927 41.2495 121.88 45.1357 119.796V120.782L44.1294 122.632C44.0362 122.688 43.9408 122.745 43.8497 122.803C43.3466 123.111 42.8803 123.415 42.4553 123.706C42.388 123.751 42.3208 123.797 42.2557 123.842C42.0541 123.981 41.861 124.118 41.6767 124.25C41.642 124.276 41.6073 124.3 41.5726 124.326C41.5054 124.376 41.4382 124.423 41.3731 124.473C41.3406 124.497 41.308 124.521 41.2755 124.545C41.2126 124.593 41.1519 124.638 41.0933 124.681C40.9047 124.825 40.7268 124.963 40.5599 125.094C39.4625 125.961 38.6666 126.709 37.9618 127.793C37.6127 128.329 36.3592 130.257 36.3961 132.311C36.4134 133.219 36.6802 134.087 37.1334 134.896C37.1876 134.993 37.244 135.091 37.3069 135.186C38.8792 137.711 42.2167 139.634 45.1357 140.437C45.2767 140.476 45.4176 140.513 45.5586 140.547C46.953 140.883 48.4429 140.825 51.4269 140.703C51.4985 140.701 51.5701 140.697 51.6416 140.695C51.6546 140.695 51.6655 140.695 51.6763 140.693C52.4505 140.658 53.1879 140.604 53.8883 140.536C55.543 140.376 56.9873 140.137 58.2148 139.873C61.0297 139.268 62.7039 138.535 63.1463 138.32C63.8923 137.96 64.647 137.583 65.4147 137.188C65.9937 136.889 66.473 136.637 66.6378 136.548C67.3382 136.173 69.0016 135.507 71.3481 134.061L74.1153 135.661Z" fill="#EEEEEF"/>
<path d="M45.1336 122.047V128.095C42.2341 129.333 40.1869 130.86 38.7665 132.497C38.0877 133.278 37.552 134.085 37.1313 134.898C36.6781 134.089 36.4113 133.222 36.394 132.313C36.3571 130.259 37.6106 128.331 37.9597 127.796C38.6646 126.711 39.4604 125.963 40.5578 125.096C40.7248 124.963 40.9026 124.827 41.0913 124.684C41.1498 124.638 41.2105 124.593 41.2734 124.547C41.306 124.523 41.3385 124.499 41.371 124.475C41.4361 124.428 41.5033 124.378 41.5705 124.328C41.6052 124.302 41.6399 124.278 41.6746 124.252C41.859 124.12 42.0498 123.983 42.2537 123.844C42.3187 123.799 42.3859 123.753 42.4532 123.708C42.8804 123.417 43.3445 123.114 43.8476 122.806C43.9409 122.749 44.0341 122.693 44.1274 122.634C44.1686 122.608 44.2119 122.584 44.2531 122.558C44.5372 122.385 44.83 122.216 45.1336 122.047Z" fill="#717071"/>
<path d="M45.1466 129.255C45.1531 129.335 45.1639 129.416 45.1813 129.496H45.1335V140.434C42.2145 139.634 38.877 137.711 37.3047 135.184L38.7664 132.493L44.1273 122.628L45.1335 120.778V129.017C45.1335 129.097 45.1379 129.177 45.1466 129.255Z" fill="#C8BB9B"/>
<path d="M58.2101 129.017V129.34C58.2101 129.366 58.2101 129.392 58.2101 129.418C58.2101 129.444 58.2079 129.469 58.2058 129.495H58.1648C58.1799 129.418 58.1928 129.338 58.1993 129.256C58.2058 129.176 58.2101 129.096 58.2101 129.017Z" fill="#C8BB9B"/>
<path d="M41.4833 99.7464V174.816L40.3903 174.185V99.2064C40.7547 99.3994 41.119 99.5794 41.4833 99.7464Z" fill="white"/>
<path d="M42.5591 100.202V174.183L41.4856 174.805V99.7486C41.8434 99.9113 42.2012 100.063 42.5591 100.202Z" fill="#DBDCDC"/>
<path d="M35.9037 95.7822V168.091L34.8107 167.46V94.3118C35.123 94.8258 35.4916 95.3159 35.9037 95.7822Z" fill="white"/>
<path d="M36.9768 96.8556V167.456L35.9033 168.076V95.7822C36.2351 96.1573 36.5951 96.5152 36.9768 96.8556Z" fill="#DBDCDC"/>
<path d="M48.8633 101.334V176.523L47.7703 175.892V101.314C48.1282 101.33 48.4903 101.334 48.8633 101.334Z" fill="white"/>
<path d="M49.9368 101.319V175.89L48.8633 176.51V101.334C49.2103 101.332 49.5659 101.327 49.9368 101.319Z" fill="#DBDCDC"/>
<path d="M56.3927 100.716V176.002L55.2997 175.371V100.891C55.6575 100.839 56.0218 100.781 56.3927 100.716Z" fill="white"/>
<path d="M57.4661 100.512V175.367L56.3926 175.987V100.714C56.744 100.655 57.1018 100.586 57.4661 100.512Z" fill="#DBDCDC"/>
<path d="M63.9331 98.7597V174.348L62.8401 173.717V99.0416C63.1632 98.931 63.4863 98.8139 63.816 98.6925L63.9331 98.7597Z" fill="white"/>
<path d="M65.0068 98.1308V173.714L63.9333 174.335V98.7597L64.6251 98.3542L65.0068 98.1308Z" fill="#DBDCDC"/>
<path d="M70.8166 95.1077V170.368L69.7236 169.737V95.7149C70.0922 95.5132 70.4566 95.3115 70.8166 95.1077Z" fill="white"/>
<path d="M71.8922 94.4962V169.735L70.8187 170.357V95.1077C71.1787 94.9039 71.5365 94.7 71.8922 94.4962Z" fill="#DBDCDC"/>
<path d="M74.5317 108.926C70.4243 111.496 66.035 113.472 61.4895 114.797C58.5597 115.651 54.8101 116.744 50.3015 116.744C48.868 116.744 47.3565 116.634 45.7734 116.369C43.3575 115.966 40.046 115.415 37.0554 112.767C35.7347 111.596 34.6569 110.186 33.8372 108.564V108.091C34.6634 109.852 35.7889 111.37 37.192 112.613C40.1371 115.222 43.4139 115.766 45.8059 116.165C52.3292 117.252 57.5903 115.718 61.4331 114.597C65.9613 113.279 70.3311 111.31 74.4233 108.751L74.5317 108.926Z" fill="#D6D7D7"/>
<path d="M74.5317 125.356C70.4243 127.926 66.0349 129.901 61.4895 131.226C58.5596 132.081 54.81 133.172 50.3014 133.172C48.868 133.172 47.3564 133.061 45.7733 132.796C43.3574 132.393 40.0459 131.842 37.0554 129.194C35.7347 128.023 34.6568 126.614 33.8371 124.992V124.519C34.6633 126.28 35.7889 127.798 37.192 129.04C40.137 131.649 43.4138 132.194 45.8058 132.593C52.3291 133.679 57.5902 132.146 61.4331 131.027C65.9612 129.708 70.331 127.739 74.4232 125.18L74.5317 125.356Z" fill="#D6D7D7"/>
<path d="M74.5317 141.788C70.4243 144.358 66.0349 146.333 61.4895 147.658C58.5596 148.513 54.81 149.603 50.3014 149.603C48.868 149.603 47.3564 149.493 45.7733 149.228C43.3574 148.825 40.0459 148.274 37.0554 145.626C35.7347 144.455 34.6568 143.045 33.8371 141.423V140.951C34.6633 142.712 35.7889 144.23 37.192 145.472C40.137 148.081 43.4138 148.625 45.8058 149.024C52.3291 150.109 57.5902 148.578 61.4331 147.456C65.9612 146.136 70.331 144.169 74.4232 141.61L74.5317 141.788Z" fill="#D6D7D7"/>
<path d="M74.5317 158.217C70.4243 160.787 66.0349 162.763 61.4895 164.088C58.5596 164.942 54.81 166.035 50.3014 166.035C48.868 166.035 47.3564 165.925 45.7733 165.66C43.3574 165.257 40.0459 164.706 37.0554 162.058C35.7347 160.887 34.6568 159.477 33.8371 157.855V157.38C34.6633 159.141 35.7889 160.659 37.192 161.904C40.137 164.513 43.4138 165.057 45.8058 165.456C52.3291 166.541 57.5902 165.01 61.4331 163.888C65.9612 162.57 70.331 160.601 74.4232 158.042L74.5317 158.217Z" fill="#D6D7D7"/>
<path opacity="0.4" d="M74.9221 92.9477L74.5946 169.28C73.7575 169.776 72.1744 170.919 71.2853 171.418C70.5024 171.858 69.7065 172.294 68.9019 172.723C68.6829 172.84 68.4617 172.958 68.2427 173.073C67.0434 173.701 65.8658 174.296 64.7078 174.855C58.9674 177.061 54.0684 177.629 50.6311 177.718C48.2283 177.778 46.4738 177.811 44.2054 177.176C40.6879 176.193 36.201 173.688 34.2991 170.147C34.2752 170.106 34.2535 170.062 34.2318 170.019C34.0822 169.731 33.7916 169.306 33.6788 169.006V90.1198C33.8632 90.6142 34.26 93.0149 34.5398 93.4725C34.8607 93.9995 35.2359 94.5004 35.6588 94.9775C35.9971 95.3614 36.3658 95.7279 36.7561 96.077C37.8036 97.0139 39.0094 97.8185 40.2498 98.4799C40.6207 98.6772 40.9937 98.8616 41.3667 99.0329C41.7332 99.1999 42.0997 99.356 42.464 99.497C43.0604 99.7312 43.6481 99.9264 44.2098 100.083C45.5001 100.443 46.6235 100.588 47.7945 100.636C48.1589 100.651 48.5297 100.655 48.9114 100.653C49.267 100.653 49.6314 100.646 50.0087 100.638C50.2126 100.633 50.4208 100.627 50.6355 100.623C52.0277 100.588 53.6607 100.473 55.4932 100.202C55.8575 100.148 56.2305 100.089 56.6122 100.02C56.9701 99.9567 57.3366 99.8873 57.7096 99.8136C59.4141 99.4666 61.2553 98.983 63.2049 98.3086C63.5345 98.1958 63.8663 98.0765 64.2025 97.9507C64.3716 97.8878 64.5429 97.825 64.7143 97.7577C64.8184 97.7078 64.9246 97.6558 65.0309 97.6037L65.4213 97.3739V97.4129C66.5641 96.8491 67.7265 96.257 68.9084 95.6259C69.3552 95.3874 69.8019 95.1467 70.2443 94.9038C70.6195 94.6978 70.9925 94.4896 71.3612 94.2814C71.732 94.0732 72.0985 93.865 72.4585 93.6547C72.9356 93.3836 74.4558 93.2253 74.9221 92.9477Z" fill="#ABD8C8"/>
<path d="M47.989 77.4916L68.4718 89.2434C68.4545 89.2543 68.435 89.263 68.4176 89.2738C68.2029 89.3887 67.9882 89.5015 67.7735 89.6143C66.6003 90.228 65.4487 90.8092 64.3167 91.3557C58.7043 93.5113 53.9116 94.0665 50.5502 94.1554C48.1994 94.2161 46.484 94.2465 44.2654 93.6263C40.826 92.6656 36.4388 90.215 34.5759 86.7517C34.5521 86.7105 34.5304 86.6693 34.5087 86.6259C34.049 85.7367 33.7584 84.7825 33.6911 83.772C33.6803 83.6136 33.676 83.4553 33.676 83.2992C33.676 81.1653 34.5998 79.2568 34.7343 78.9901C35.4261 77.5957 36.3109 76.6545 37.3475 75.7068C38.1781 74.9478 39.36 73.9502 40.9539 72.8442C41.5677 72.4169 42.2421 71.9745 42.9816 71.5256C43.8751 70.9791 44.864 70.4196 45.9526 69.8645L47.9955 71.0442L47.989 77.4916Z" fill="#C8C9CA"/>
<path d="M74.0413 86.0775C73.176 86.5979 72.2717 87.1293 71.3435 87.6584V84.5204L74.0413 86.0775Z" fill="#C8C9CA"/>
<path d="M68.4725 89.2416C69.4463 88.7232 70.407 88.1919 71.3416 87.6584V90.8876L68.4725 89.2416Z" fill="#EEEEEF"/>
<path d="M74.0413 86.0775V93.2297C71.1158 94.995 68.0754 96.6627 65.0089 98.1677V98.1308C60.6499 100.208 55.1828 101.15 50.5506 101.306C45.22 101.759 39.5707 99.792 35.9036 95.7822C32.6528 92.6051 33.8932 87.3115 33.6742 83.2973C33.9561 90.1697 42.8909 94.3682 48.9306 94.1839C58.7654 94.2858 65.7593 91.2172 74.0413 86.0775Z" fill="#EEEEEF"/>
<path d="M65.0046 98.1308V98.1674C64.8774 98.23 64.7523 98.2925 64.6251 98.3529L65.0046 98.1308Z" fill="#DBDCDC"/>
<path d="M74.1152 86.0926C72.3607 87.1509 70.4415 88.2504 68.4724 89.2979C67.0736 90.0417 65.6987 90.7379 64.3563 91.3885C58.7221 93.5528 53.9099 94.1123 50.5377 94.1969C48.1782 94.2576 46.4563 94.2901 44.2291 93.6655C39.855 92.4446 33.9519 88.823 33.6158 83.7765C33.4596 81.4474 34.5179 79.2636 34.6611 78.973C35.355 77.5742 36.2442 76.6309 37.2829 75.6788C38.8249 74.2692 41.5812 72.0355 45.9185 69.8126L47.5298 70.743L47.8941 70.6671L47.9939 71.0206C44.5804 72.7533 42.0778 74.3234 40.5619 75.5248C39.4646 76.3923 38.6687 77.1405 37.9639 78.2248C37.6147 78.7605 36.3613 80.6884 36.3981 82.7421C36.4155 83.6508 36.6822 84.5182 37.1355 85.3271C38.6947 88.1203 42.4378 90.2239 45.5585 90.9764C46.9529 91.3126 48.4428 91.254 51.4268 91.1326C58.373 90.8528 62.4197 89.1006 63.1462 88.7514C63.8922 88.3914 64.6469 88.0141 65.4146 87.6194C65.9936 87.3201 66.4729 87.0685 66.6377 86.9796C67.3382 86.6044 69.0015 85.9387 71.348 84.4922L74.1152 86.0926Z" fill="#F7F7F7"/>
<path d="M48.0016 71.0156C47.9997 71.0175 47.9958 71.0175 47.9919 71.0195V71.0098L48.0016 71.0156Z" fill="white"/>
<path d="M47.9916 71.0206L47.9895 77.4897C41.8782 79.359 38.6947 82.2997 37.1311 85.3271C36.6778 84.5182 36.4111 83.6508 36.3937 82.7421C36.3569 80.6884 37.6103 78.7605 37.9595 78.2248C38.6643 77.1405 39.4602 76.3923 40.5575 75.5249C42.0756 74.3234 44.4806 72.8314 47.9916 71.0206Z" fill="#9E9E9F"/>
<path d="M71.1094 166.977L56.02 175.673L106.367 204.752L121.47 196.03L71.1094 166.977Z" fill="#DBDCDC"/>
<path d="M111.424 190.224L108.902 188.769L108.9 159.978L83.6506 145.388L83.6355 174.183L81.2001 172.778L81.2196 137.893L111.42 155.346L111.424 190.224Z" fill="#C8C9CA"/>
<path d="M69.7255 146.663L67.9646 147.66L67.8865 182.573L69.7255 181.485V146.663Z" fill="#888888"/>
<path d="M98.1067 163.062L96.311 164.058L96.2698 198.973L98.1067 197.901V163.062Z" fill="#888888"/>
<path d="M66.0997 146.626L67.9647 147.697L67.8867 182.573L66.0975 181.493L66.0997 146.626Z" fill="#C8C9CA"/>
<path d="M94.5133 162.993L96.3154 164.062L96.298 198.94L94.5089 197.86L94.5133 162.993Z" fill="#C8C9CA"/>
<path d="M81.2173 137.893L66.0997 146.626L67.9669 147.704L83.0086 138.927L81.2173 137.893Z" fill="#EEEEEF"/>
<path d="M88.3111 141.989L73.2043 150.718L75.0715 151.796L90.1111 143.033L88.3111 141.989Z" fill="#EEEEEF"/>
<path d="M95.4026 146.088L80.3066 154.808L82.1738 155.886L97.2155 147.136L95.4026 146.088Z" fill="#EEEEEF"/>
<path d="M102.494 150.187L87.4089 158.9L89.2761 159.978L104.318 151.241L102.494 150.187Z" fill="#EEEEEF"/>
<path d="M109.586 154.286L94.5135 162.993L96.3807 164.071L111.42 155.346L109.586 154.286Z" fill="#EEEEEF"/>
<path d="M67.9647 150.603V147.697L83.0086 138.936V141.684L67.9647 150.603Z" fill="#9E9E9F"/>
<path d="M75.0519 154.698V151.79L90.111 143.039V145.774L75.0519 154.698Z" fill="#999999"/>
<path d="M82.139 158.79V155.884L97.2154 147.14V149.864L82.139 158.79Z" fill="#939393"/>
<path d="M89.2239 162.884V159.976L104.318 151.243V153.952L89.2239 162.884Z" fill="#8E8E8E"/>
<path d="M96.311 166.977V164.071L111.42 155.346V158.042L96.311 166.977Z" fill="#888888"/>
<path d="M74.5988 143.846L79.8513 146.878L77.3573 148.318L74.5945 146.672L74.5988 143.846Z" fill="#888888"/>
<path d="M81.6769 147.94L86.9316 150.972L84.4355 152.414L81.6726 150.772L81.6769 147.94Z" fill="#888888"/>
<path d="M88.7792 152.03L94.0339 155.062L91.5378 156.502L88.7749 154.86L88.7792 152.03Z" fill="#888888"/>
<path d="M95.8773 156.118L101.132 159.15L98.6358 160.592L95.873 158.948L95.8773 156.118Z" fill="#888888"/>
<path d="M66.0997 146.626L96.3154 164.071L96.3111 166.977L66.0975 149.523L66.0997 146.626Z" fill="#C8C9CA"/>
<path d="M66.0997 146.626L96.3154 164.071L98.1479 162.993L67.7392 145.609L66.0997 146.626Z" fill="#EEEEEF"/>
<path d="M72.738 142.768L102.951 160.212L104.784 159.135L74.4577 141.799L72.738 142.768Z" fill="#EEEEEF"/>
<path opacity="0.6" d="M80.2676 137.286L63.7144 146.804L95.9903 165.424L112.381 155.782L80.2676 137.286Z" fill="#B6DFE4"/>
<path d="M56.0309 175.681L66.0977 181.517L45.9553 198.94L35.8994 193.124L56.0309 175.681Z" fill="#DBDCDC"/>
<path d="M96.3199 198.94L106.367 204.763L86.2248 222.186L76.171 216.37L96.3199 198.94Z" fill="#DBDCDC"/>
<path d="M121.47 196.03L121.502 201.868L106.367 210.577V204.763L121.47 196.03Z" fill="#9E9E9F"/>
<path d="M47.9894 77.4896L118.143 37.1334V30.441L47.92 70.9686L47.9894 77.4896Z" fill="#9E9E9F"/>
<path d="M116.456 38.1049V31.4168L215.762 89.274L215.53 95.1077L116.456 38.1049Z" fill="#DBDCDC"/>
<path d="M217.144 87.6584L146.637 128.264L143.952 126.661L212.991 87.6584L116.456 31.4168L47.9223 71.0509L45.9185 69.8126L116.456 29.4L118.143 30.441L217.144 87.6584Z" fill="#F7F7F7"/>
<path d="M217.144 94.5048V87.6584L145.624 128.847L145.889 135.28L217.144 94.5048Z" fill="#DBDCDC"/>
<path d="M71.3434 87.6584V95.587L115.692 121.337V113.658L71.3434 87.6584Z" fill="#DBDCDC"/>
<path opacity="0.9" d="M146.667 134.989L146.648 216.326L217.152 175.647V94.366L146.667 134.989Z" fill="#DBDCDC"/>
<path d="M71.3434 87.6584L115.647 113.658L118.589 111.949L74.115 86.0927L71.3434 87.6584Z" fill="#F7F7F7"/>
<path opacity="0.8" d="M117.62 142.872C116.479 143.258 113.428 146.049 112.572 145.006C110.704 143.913 108.826 142.817 106.959 141.729C102.054 138.864 97.133 135.993 92.2275 133.128C80.6665 126.377 69.1011 119.628 57.5423 112.879C57.3081 112.743 57.0674 112.604 56.8331 112.465C54.2785 110.977 51.7086 109.472 49.1518 107.983C45.0552 105.588 40.9262 103.181 36.8296 100.787L37.053 100.661L40.2235 98.8786C40.4252 98.9979 40.6312 99.1106 40.8351 99.2212C43.522 100.646 46.5972 101.201 49.6181 101.164C54.8965 101.004 60.2661 100.188 65.0827 97.9374V97.9743C66.6462 97.2066 68.2575 96.3673 69.7995 95.5215C70.2527 95.27 70.5411 94.9707 70.9922 95.3849C83.887 102.906 96.7817 110.424 109.681 117.945C107.762 119.711 106.426 122.198 106.369 124.963C106.404 124.944 106.423 124.93 106.426 124.93C106.465 125.735 106.45 126.644 106.426 127.598C106.413 128.105 106.397 128.628 106.389 129.155C106.352 131.02 106.374 132.941 106.762 134.531C108.403 139.079 113.187 141.675 117.62 142.872Z" fill="#D9EEF1"/>
<path d="M40.7266 100.616L114.244 143.128L115.692 142.291L41.928 99.9221L40.7266 100.616Z" fill="#F7F7F7"/>
<path d="M106.426 127.598C106.413 128.106 106.398 128.628 106.389 129.155L58.6354 100.716L60.0906 99.8765L106.426 127.598Z" fill="#F7F7F7"/>
<path d="M42.1342 99.8049C41.1843 100.354 39.5839 101.28 38.621 101.833L37.8273 101.369C38.3955 101.041 40.7159 99.7008 41.2364 99.3994C41.5313 99.5425 41.8327 99.677 42.1342 99.8049Z" fill="white"/>
<path d="M43.0687 100.171C41.941 100.822 40.5314 101.637 39.4015 102.288L38.6208 101.833C39.5902 101.273 41.1776 100.356 42.134 99.8049C42.4441 99.935 42.7564 100.056 43.0687 100.171Z" fill="#DBDCDC"/>
<path d="M49.6723 101.129C48.4362 101.842 44.8015 103.942 43.5112 104.685L42.7175 104.223L47.8463 101.261L48.0827 101.124C48.6075 101.142 49.1345 101.14 49.6723 101.129Z" fill="white"/>
<path d="M51.3227 101.084C49.3297 102.234 46.311 103.977 44.292 105.144L43.5134 104.689C44.3353 104.214 48.2085 101.978 48.9394 101.555L49.6767 101.13C50.2254 101.119 50.7632 101.108 51.3227 101.084Z" fill="#DBDCDC"/>
<path d="M64.3887 98.3107C59.4616 101.156 53.3243 104.699 48.3993 107.545C48.2345 107.449 47.7639 107.174 47.6078 107.083C49.8285 105.801 54.22 103.264 56.4667 101.969C57.1889 101.551 59.8606 100.011 60.6283 99.5663C61.8579 99.2172 63.1656 98.7813 64.3887 98.3107Z" fill="white"/>
<path d="M71.012 95.396C64.0224 99.4319 56.1785 103.962 49.1846 108C49.0263 107.909 48.5687 107.64 48.4039 107.545C53.5956 104.561 59.8803 100.889 65.0829 97.9355V97.9724C66.872 97.0941 68.7587 96.1073 70.5305 95.1141C70.6173 95.164 70.9317 95.3483 71.012 95.396Z" fill="#DBDCDC"/>
<path d="M75.1214 97.7924C68.0473 101.878 60.3725 106.311 53.2941 110.399L52.5025 109.937C59.5744 105.853 67.2666 101.414 74.3342 97.3327L75.1214 97.7924Z" fill="white"/>
<path d="M75.9043 98.2479C68.8302 102.334 61.1532 106.766 54.0747 110.854L53.2962 110.399C60.3768 106.311 68.0516 101.88 75.1279 97.7946L75.9043 98.2479Z" fill="#DBDCDC"/>
<path d="M80.0138 100.644C73.0178 104.684 65.1695 109.219 58.1843 113.255C58.0737 113.19 57.4903 112.851 57.3949 112.795C64.4039 108.748 72.2219 104.233 79.2288 100.189L80.0138 100.644Z" fill="white"/>
<path d="M80.7989 101.102C73.8289 105.127 65.9112 109.7 58.9672 113.71L58.1887 113.255C65.1739 109.223 73.0308 104.687 80.0247 100.649L80.7989 101.102Z" fill="#DBDCDC"/>
<path d="M84.9064 103.496C78.5566 107.165 69.3399 112.489 63.0769 116.109C62.9749 116.048 62.4024 115.716 62.2875 115.649C68.724 111.932 77.6198 106.799 84.1257 103.041L84.9064 103.496Z" fill="white"/>
<path d="M85.6939 103.956C79.5566 107.499 69.8975 113.079 63.86 116.566L63.0836 116.111C69.3163 112.513 78.6068 107.148 84.9218 103.502L85.6939 103.956Z" fill="#DBDCDC"/>
<path d="M89.7967 106.35C85.3726 108.907 72.1678 116.536 67.9649 118.965L67.1777 118.505C71.7709 115.853 84.2449 108.651 89.0181 105.897L89.7967 106.35Z" fill="white"/>
<path d="M90.5862 106.81C86.6502 109.082 72.4239 117.299 68.7502 119.422L67.9738 118.969C72.0964 116.588 85.4834 108.861 89.8142 106.359L90.5862 106.81Z" fill="#DBDCDC"/>
<path d="M94.689 109.202L73.9546 121.188L72.8573 121.821L72.0701 121.361L73.9546 120.275L93.9148 108.751L94.689 109.202Z" fill="white"/>
<path d="M95.4806 109.664C95.0577 109.909 74.0523 122.04 73.6424 122.279L72.866 121.825L73.9547 121.196L94.7108 109.212L95.4806 109.664Z" fill="#DBDCDC"/>
<path d="M99.395 111.947L77.5481 124.56L76.7544 124.096L98.6013 111.483L99.395 111.947Z" fill="white"/>
<path d="M100.176 112.403L78.3287 125.015L77.548 124.56L99.3949 111.947L100.176 112.403Z" fill="#DBDCDC"/>
<path d="M104.287 114.799L82.4403 127.416L81.6466 126.952L103.496 114.339L104.287 114.799Z" fill="white"/>
<path d="M105.07 115.256L83.2211 127.871L82.4404 127.416L104.289 114.801L105.07 115.256Z" fill="#DBDCDC"/>
<path d="M109.18 117.653L87.331 130.27L86.5394 129.808L108.391 117.193L109.18 117.653Z" fill="white"/>
<path d="M109.412 117.787C109.499 117.837 109.592 117.894 109.681 117.943C109.421 118.184 109.171 118.438 108.935 118.702C106.91 119.871 88.3199 130.606 88.1139 130.725L87.3353 130.272L109.187 117.655C109.2 117.662 109.21 117.67 109.223 117.677C109.254 117.694 109.282 117.711 109.31 117.729C109.319 117.733 109.328 117.74 109.338 117.744C109.362 117.759 109.386 117.772 109.412 117.787Z" fill="#DBDCDC"/>
<path d="M106.443 123.998C106.404 124.311 106.378 124.629 106.369 124.955C105.398 125.516 92.284 133.089 92.2211 133.126L91.4317 132.664C91.5184 132.614 105.263 124.677 106.443 123.998Z" fill="white"/>
<path d="M106.445 125.822C106.445 125.822 106.434 125.829 106.419 125.837C106.411 125.842 106.4 125.848 106.387 125.857C105.435 126.405 93.0647 133.549 93.004 133.584L92.2255 133.128C92.3079 133.08 105.4 125.521 106.369 124.963C106.404 124.944 106.424 124.933 106.426 124.931C106.421 125.035 106.419 125.139 106.419 125.243C106.419 125.436 106.428 125.629 106.445 125.822Z" fill="#DBDCDC"/>
<path d="M96.3242 135.52L106.419 129.693V130.606L97.1136 135.98L96.3242 135.52Z" fill="white"/>
<path d="M97.1179 135.984L106.419 130.615V131.517L97.8965 136.438L97.1179 135.984Z" fill="#DBDCDC"/>
<path d="M107.289 135.783C106.989 135.956 102.45 138.578 102.004 138.836L101.216 138.376L106.58 135.28L106.953 135.063C107.052 135.308 107.165 135.548 107.289 135.783Z" fill="white"/>
<path d="M107.688 136.464C106.937 136.897 103.6 138.825 102.786 139.294L102.01 138.838C102.483 138.565 106.968 135.978 107.293 135.789C107.412 136.019 107.547 136.245 107.688 136.464Z" fill="#DBDCDC"/>
<path d="M110.62 139.539C109.462 140.209 108.052 141.022 106.896 141.69C106.712 141.582 106.298 141.341 106.109 141.23C107.315 140.536 108.757 139.699 109.963 139.005C110.175 139.192 110.394 139.367 110.62 139.539Z" fill="white"/>
<path d="M111.32 140.048C110.256 140.662 108.735 141.54 107.679 142.15C107.61 142.109 106.99 141.746 106.903 141.697C108.061 141.029 109.47 140.213 110.629 139.545C110.854 139.719 111.084 139.886 111.32 140.048Z" fill="#DBDCDC"/>
<path d="M115.692 142.291C114.502 142.978 112.984 143.859 111.787 144.548L111.002 144.091C111.997 143.516 113.78 142.486 114.758 141.922C115.066 142.054 115.378 142.176 115.692 142.291Z" fill="white"/>
<path d="M116.694 142.625C115.419 143.36 113.84 144.273 112.572 145.006L111.795 144.553C112.994 143.859 114.51 142.985 115.705 142.295C116.039 142.419 116.371 142.527 116.694 142.625Z" fill="#DBDCDC"/>
<g opacity="0.8">
<path d="M214.402 160.956V161.204L207.576 165.155L207.372 165.272L197.311 171.095L197.108 171.214L187.045 177.037L186.841 177.156L176.779 182.979L176.575 183.096L166.512 188.921L166.308 189.038L156.246 194.863L156.042 194.98L143.926 201.991V201.744L156.042 194.733L156.246 194.616L166.308 188.791L166.512 188.674L176.575 182.851L176.779 182.734L186.841 176.909L187.045 176.792L197.108 170.967L197.311 170.85L207.372 165.027L207.576 164.91L214.402 160.956Z" fill="#C8C9CA"/>
<path d="M213.706 144.906V145.151L206.879 149.103L206.678 149.22L196.615 155.045L196.411 155.162L186.349 160.987L186.145 161.104L176.083 166.927L175.879 167.044L165.816 172.869L165.612 172.986L155.55 178.811L155.346 178.928L143.23 185.939V185.694L155.346 178.681L155.55 178.564L165.612 172.741L165.816 172.621L175.879 166.799L176.083 166.682L186.145 160.857L186.349 160.739L196.411 154.914L196.615 154.8L206.678 148.975L206.879 148.857L213.706 144.906Z" fill="#C8C9CA"/>
<path d="M214.554 127.802V128.047L207.727 131.998L207.523 132.116L197.461 137.941L197.259 138.058L187.194 143.88L186.993 144L176.928 149.823L176.726 149.94L166.662 155.765L166.46 155.882L156.395 161.707L156.194 161.824L144.078 168.835V168.59L156.194 161.577L156.395 161.459L166.46 155.634L166.662 155.517L176.726 149.695L176.928 149.577L186.993 143.752L187.194 143.635L197.259 137.81L197.461 137.693L207.523 131.87L207.727 131.753L214.554 127.802Z" fill="#C8C9CA"/>
<path d="M213.706 112.06V112.307L206.879 116.258L206.678 116.376L196.615 122.198L196.411 122.315L186.349 128.14L186.145 128.258L176.082 134.083L175.879 134.2L165.816 140.022L165.612 140.142L155.55 145.965L155.346 146.084L143.23 153.095V152.848L155.346 145.837L155.55 145.719L165.612 139.895L165.816 139.777L175.879 133.955L176.082 133.835L186.145 128.013L186.349 127.893L196.411 122.07L196.615 121.953L206.678 116.128L206.879 116.013L213.706 112.06Z" fill="#C8C9CA"/>
<path d="M217.143 130.55V130.795L210.317 134.746L210.113 134.863L200.05 140.688L199.849 140.805L189.784 146.63L189.582 146.747L179.518 152.57L179.316 152.687L169.253 158.512L169.049 158.629L158.987 164.454L158.783 164.571L146.667 171.583V171.338L158.783 164.324L158.987 164.207L169.049 158.384L169.253 158.265L179.316 152.442L179.518 152.325L189.582 146.5L189.784 146.383L199.849 140.558L200.05 140.443L210.113 134.618L210.317 134.501L217.143 130.55Z" fill="#C8C9CA"/>
<path d="M217.143 139.088V139.333L210.317 143.284L210.113 143.403L200.05 149.226L199.849 149.343L189.784 155.168L189.582 155.285L179.518 161.11L179.316 161.225L169.253 167.05L169.049 167.167L158.987 172.992L158.783 173.109L146.667 180.121V179.873L158.783 172.862L158.987 172.745L169.049 166.92L169.253 166.803L179.316 160.98L179.518 160.861L189.582 155.038L189.784 154.921L199.849 149.096L200.05 148.979L210.113 143.156L210.317 143.039L217.143 139.088Z" fill="#C8C9CA"/>
<path d="M158.987 162.761V174.38L158.783 174.497V162.878L158.987 162.761Z" fill="#C8C9CA"/>
<path d="M169.254 156.832V168.453L169.05 168.57V156.949L169.254 156.832Z" fill="#C8C9CA"/>
<path d="M179.518 150.905V162.526L179.316 162.644V151.02L179.518 150.905Z" fill="#C8C9CA"/>
<path d="M189.784 144.976V156.6L189.582 156.717V145.093L189.784 144.976Z" fill="#C8C9CA"/>
<path d="M200.05 139.047V150.673L199.849 150.79V139.164L200.05 139.047Z" fill="#C8C9CA"/>
<path d="M210.317 133.12V144.746L210.113 144.863V133.235L210.317 133.12Z" fill="#C8C9CA"/>
</g>
<path d="M217.152 94.366V175.647L206.973 181.522V100.232L217.152 94.366Z" fill="#DBDCDC"/>
<path d="M156.792 129.04V210.475L146.613 216.35L146.455 134.941L156.792 129.04Z" fill="#DBDCDC"/>
<path d="M78.7432 205.053L61.8646 195.29L72.8661 185.503L89.7447 195.266L78.7432 205.053Z" fill="#DBDCDC"/>
<path d="M78.5044 203.676L63.6752 195.099L73.3409 186.501L88.17 195.078L78.5044 203.676Z" fill="#C3BDB0"/>
<path d="M61.8646 195.29V196.778L78.7344 206.485V205.053L61.8646 195.29Z" fill="#9E9E9F"/>
<path d="M89.7445 195.266V197.207L78.7343 206.485V205.054L89.7445 195.266Z" fill="#888888"/>
<path d="M72.1871 191.408C72.2218 191.293 72.3909 191.051 72.4451 190.992C72.6707 190.751 73.2714 189.971 73.6119 190.007C73.6856 190.016 73.64 190.057 73.7008 190.064C73.6357 190.133 73.6856 190.081 73.6032 190.174C73.421 190.38 73.1239 190.654 72.9027 190.86C72.9114 190.871 72.9222 190.875 72.9331 190.884C73.2107 190.892 73.4882 190.886 73.7658 190.871C73.7485 190.825 73.7333 190.777 73.7181 190.732C73.6639 190.749 73.601 190.745 73.5555 190.717C73.5099 190.688 73.4861 190.667 73.4449 190.639C73.6357 190.578 73.8179 190.541 74.0131 190.482C74.0434 190.474 74.1171 190.443 74.154 190.428C74.1605 190.426 74.1627 190.415 74.1692 190.413C74.0347 190.324 73.8981 190.235 73.7637 190.148C73.755 190.116 73.755 190.086 73.742 190.053C73.8027 190.042 73.7116 190.016 73.8005 190.007C74.0781 189.981 74.6159 190.467 74.8285 190.634C74.8285 190.634 74.8371 190.643 74.8371 190.645C75.0236 190.751 75.2362 191.046 75.1342 191.215C75.0583 191.343 74.9608 191.402 74.9109 191.467C74.6441 191.812 74.1844 192.386 73.9827 192.636C73.781 192.883 73.8439 192.744 73.6661 192.872C73.6119 192.772 73.5858 192.707 73.6097 192.593C73.6444 192.571 73.8092 192.397 73.8266 192.389C73.9372 192.328 74.3102 191.888 74.3058 191.877C74.154 191.571 73.961 191.398 73.8266 191.113C73.6466 191.098 73.4774 191.096 73.2974 191.094C73.1152 191.092 72.9266 191.079 72.7466 191.029C72.7075 191.066 72.6099 191.161 72.5861 191.194C72.4993 191.309 72.4386 191.38 72.3931 191.506C72.6143 191.61 73.1543 191.894 73.2974 191.983C73.5707 192.15 73.6466 192.183 73.5858 192.423C73.5446 192.408 73.5186 192.402 73.4839 192.391C73.1825 192.191 72.9005 192.016 72.5796 191.825C72.5449 191.805 72.3996 191.76 72.3432 191.732C72.3389 191.729 72.3172 191.714 72.3085 191.71C72.2196 191.647 72.1394 191.562 72.1654 191.447C72.1654 191.428 72.1849 191.417 72.1871 191.408ZM73.3321 191.372C73.4102 191.491 73.5988 191.745 73.5251 191.89C73.5078 191.922 73.4904 191.931 73.4774 191.946C73.4254 192.003 73.3364 191.946 73.3169 191.914C73.241 191.786 73.1196 191.58 73.1911 191.445C73.202 191.424 73.215 191.415 73.2258 191.408C73.2605 191.389 73.2974 191.389 73.3321 191.372ZM73.5468 191.129C73.6292 191.198 73.8894 191.406 73.8287 191.532C73.8027 191.584 73.7745 191.584 73.7485 191.627C73.7376 191.619 73.7029 191.593 73.6986 191.588C73.6053 191.51 73.3451 191.313 73.4145 191.174C73.434 191.133 73.4557 191.139 73.4752 191.107C73.4947 191.12 73.5229 191.142 73.5468 191.129ZM73.9111 190.74C73.9176 190.797 73.9437 190.823 73.9979 190.866C74.0087 190.875 74.0955 190.894 74.1237 190.862C74.1258 190.858 74.1432 190.847 74.1432 190.838C74.0716 190.784 74.0044 190.743 73.9111 190.74ZM74.1865 190.645C74.2559 190.695 74.321 190.727 74.4034 190.74C74.4598 190.799 74.5249 190.864 74.4923 190.951C74.4902 190.955 74.4902 190.955 74.4858 190.96C74.3817 191.044 74.2017 191.059 74.0716 191.083C74.0933 191.298 74.3037 191.508 74.4381 191.658C74.4381 191.66 74.4424 191.666 74.449 191.664C74.5682 191.506 74.8046 191.252 74.8914 191.113C74.9781 190.975 74.8783 190.96 74.8263 190.877C74.7959 190.829 74.6637 190.749 74.6398 190.723C74.5704 190.643 74.4099 190.569 74.3492 190.58C74.2559 190.597 74.2516 190.606 74.1865 190.645Z" fill="#9C3C2E"/>
<path d="M77.2053 192.042C77.2227 192.059 77.24 192.063 77.2552 192.083C77.3788 192.226 77.2184 192.423 77.1294 192.545C77.1728 192.569 77.1555 192.569 77.214 192.597C77.2726 192.627 77.4049 192.684 77.4764 192.723C77.5241 192.775 77.5892 192.946 77.5653 192.996C77.5415 193.046 77.5328 193.057 77.5133 193.076C77.3962 193.182 77.2552 193.215 77.1425 193.321C77.1338 193.328 77.1143 193.336 77.1186 193.36C77.1229 193.384 77.0796 193.373 77.1381 193.419C77.1967 193.464 77.2899 193.54 77.3984 193.612C77.5068 193.686 77.6196 193.876 77.6326 194.033C77.522 194.147 77.4461 194.165 77.2769 194.247C77.1425 194.312 76.8562 194.414 76.6805 194.453C76.5244 194.31 76.481 194.087 76.4333 193.889C76.4658 193.883 76.4984 193.876 76.5309 193.87C76.5829 193.963 76.6393 194.043 76.7239 194.113C76.7261 194.115 76.7261 194.119 76.7348 194.121C76.9299 194.173 77.1338 193.996 77.2682 193.874C77.2704 193.872 77.2769 193.863 77.2813 193.855C77.2856 193.846 77.2856 193.831 77.2704 193.82C77.2097 193.777 77.0839 193.686 77.0297 193.644C76.9776 193.603 76.9972 193.46 77.0579 193.417C77.0557 193.486 77.0601 193.575 77.0297 193.644C76.8844 193.532 76.7933 193.456 76.6545 193.349C76.6285 193.33 76.6133 193.326 76.5873 193.306C76.4116 193.577 76.2208 193.813 76.0191 194.08C75.9974 194.108 75.9324 194.213 75.8955 194.247C75.8586 194.282 75.8304 194.293 75.7762 194.236C75.7524 194.212 75.7133 194.022 75.722 193.967C75.9128 193.766 76.1037 193.495 76.2577 193.284C76.2924 193.237 76.3531 193.159 76.3422 193.148C76.1752 192.998 75.9736 192.9 75.7892 192.773C75.7979 192.72 75.7675 192.666 75.7892 192.612C75.7936 192.603 75.7415 192.595 75.8283 192.586C75.915 192.575 76.403 192.855 76.4962 192.955C76.5656 192.874 76.6111 192.807 76.6784 192.729C76.7001 192.705 76.7391 192.658 76.7651 192.629C76.687 192.582 76.609 192.536 76.5309 192.488C76.5179 192.395 76.5049 192.304 76.494 192.211C76.6263 192.289 76.7651 192.365 76.8931 192.447C76.9148 192.419 76.8866 192.454 76.9191 192.41C76.9516 192.369 77.047 192.248 77.0796 192.185C77.1186 192.124 77.1533 192.085 77.2053 192.042ZM76.9668 192.757C76.8931 192.868 76.8193 192.979 76.7348 193.083C76.7868 193.126 76.8367 193.167 76.8866 193.208C77.0102 193.1 77.1338 192.992 77.2466 192.872C77.1923 192.84 77.0991 192.779 77.0535 192.753C77.008 192.727 76.9907 192.72 76.9668 192.757ZM77.5892 192.319C77.6217 192.337 77.6608 192.373 77.689 192.397C77.8017 192.497 77.8256 192.616 77.8256 192.762C77.8104 192.783 77.7974 192.803 77.7822 192.825C77.767 192.814 77.7388 192.788 77.7193 192.801C77.6326 192.701 77.4331 192.46 77.4938 192.326C77.5241 192.261 77.5567 192.3 77.5892 192.319Z" fill="#9C3C2E"/>
<path d="M79.4259 194.429C79.4497 194.458 79.4931 194.473 79.5105 194.505C79.5755 194.625 79.5213 194.709 79.428 194.818C79.3782 194.876 79.2676 194.993 79.2025 195.056C79.1374 195.119 79.0746 195.173 79.0095 195.232C79.1505 195.217 79.2892 195.197 79.428 195.178C79.4519 195.217 79.4801 195.256 79.5061 195.292C79.4692 195.316 79.4324 195.338 79.3955 195.36C79.0746 195.442 78.7558 195.551 78.45 195.681C78.4348 195.598 78.4218 195.525 78.4153 195.438C78.5758 195.275 78.9097 195.013 79.0464 194.889C79.1808 194.765 79.1765 194.759 79.2589 194.67C79.3413 194.583 79.3651 194.525 79.4259 194.429ZM79.697 194.002C79.7447 194.043 79.7924 194.085 79.8401 194.126C79.8227 194.165 79.8574 194.195 79.8835 194.219C79.8444 194.228 79.8054 194.234 79.7642 194.243C79.7533 194.265 79.723 194.304 79.7143 194.321C79.7078 194.338 79.7143 194.34 79.7273 194.347C79.8553 194.418 79.9832 194.49 80.096 194.588C80.096 194.631 80.109 194.696 80.0786 194.731C79.9702 194.854 79.7837 194.809 79.6427 194.785C79.6254 194.768 79.608 194.752 79.5929 194.735C79.6406 194.679 79.697 194.638 79.7512 194.59C79.7577 194.596 79.7642 194.601 79.7707 194.607C79.5668 194.445 79.3825 194.375 79.1244 194.438C79.042 194.425 78.9596 194.412 78.875 194.399C78.9011 194.366 78.9271 194.336 78.9509 194.301C79.2068 194.249 79.517 194.212 79.697 194.002ZM80.7899 194.958C80.9071 195.021 81.0719 195.151 81.1174 195.21C81.1977 195.314 81.3126 195.39 81.2627 195.498C81.2128 195.607 80.9895 195.605 80.8919 195.631C80.7422 195.754 80.4603 195.759 80.2782 195.787C80.2196 195.731 79.9615 195.587 79.8965 195.639C79.8314 195.689 79.8509 195.707 79.8032 195.752C79.8119 195.757 79.8292 195.77 79.8357 195.774C80.0743 195.93 80.341 196.093 80.5579 196.257C80.6208 196.305 80.6078 196.314 80.6642 196.353C80.6468 196.37 80.6425 196.39 80.6251 196.407C80.5406 196.498 80.3888 196.529 80.2847 196.607C80.2825 196.609 80.276 196.62 80.2738 196.626C80.2565 196.696 80.2825 196.741 80.3345 196.787C80.2543 196.795 80.1806 196.808 80.096 196.815C80.0092 196.724 79.8249 196.542 79.7447 196.485C79.6145 196.394 79.5256 196.379 79.4302 196.301C79.3348 196.223 79.3478 196.106 79.3109 196.01C79.3673 195.93 79.2849 196.073 79.3738 195.941C79.4627 195.809 79.7577 195.425 79.9051 195.26C79.9398 195.138 79.968 195.039 79.9962 194.926C80.0526 194.85 80.109 194.772 80.1654 194.694C80.1567 194.685 80.148 194.679 80.1394 194.67C80.1741 194.646 80.2131 194.622 80.2391 194.585C80.2673 194.609 80.2521 194.598 80.289 194.629C80.3259 194.659 80.3454 194.703 80.4148 194.748C80.4842 194.794 80.714 194.919 80.7899 194.958ZM79.6167 196.023C79.582 196.054 79.5798 196.082 79.5625 196.106C79.5451 196.127 79.5929 196.14 79.5994 196.147C79.6753 196.229 80.0916 196.509 80.1827 196.446C80.2738 196.383 80.2369 196.366 80.3085 196.316C80.302 196.32 80.3042 196.323 80.2998 196.327C80.2868 196.307 80.2738 196.288 80.2586 196.268C80.1285 196.166 79.7859 195.878 79.6167 196.023ZM80.0873 195.386C80.0743 195.399 80.0656 195.407 80.0613 195.423C80.057 195.438 80.0743 195.449 80.096 195.464C80.1979 195.538 80.3324 195.631 80.4625 195.555C80.4755 195.548 80.482 195.531 80.4863 195.52C80.4928 195.507 80.4733 195.496 80.4625 195.488C80.3627 195.412 80.2044 195.275 80.0873 195.386ZM80.2673 194.898C80.2348 194.963 80.2023 195.026 80.1697 195.091C80.1676 195.089 80.1632 195.086 80.161 195.082C80.328 195.199 80.7487 195.561 80.9656 195.377C80.9656 195.362 80.9331 195.31 80.9287 195.305C80.7791 195.186 80.482 194.865 80.2673 194.898ZM80.61 194.366C80.6381 194.392 80.6663 194.412 80.6924 194.44C80.7357 194.503 80.8116 194.694 80.7878 194.755C80.7639 194.815 80.7596 194.791 80.7379 194.835C80.7292 194.826 80.6989 194.802 80.6945 194.796C80.6165 194.716 80.5037 194.579 80.5492 194.468C80.5688 194.416 80.5883 194.41 80.61 194.366Z" fill="#9C3C2E"/>
<path d="M70.7514 191.968C70.7904 192.076 70.8143 192.178 70.7492 192.28C70.6711 192.328 70.5822 192.373 70.5107 192.43C70.5844 192.469 70.7817 192.61 70.875 192.569C70.914 192.623 71.0095 192.727 70.9769 192.801C70.9726 192.812 70.9769 192.812 70.9617 192.82C70.7969 192.909 70.4152 192.664 70.2743 192.597C70.1333 192.627 70.001 192.664 69.8601 192.703C69.8601 192.697 69.8275 192.681 69.9143 192.731C69.9989 192.781 70.2634 192.913 70.3871 192.974C70.5801 193.089 70.7817 193.28 70.9639 193.378C71.1461 193.475 71.2393 193.755 71.1417 193.833C70.7167 194.173 70.348 194.393 69.8861 194.601C69.8687 194.581 69.8601 194.583 69.8384 194.564C69.7126 194.455 69.6432 194.278 69.576 194.128C69.5955 194.102 69.6172 194.074 69.6389 194.048C69.7365 194.119 69.834 194.186 69.9338 194.258C70.2808 194.102 70.5952 193.95 70.8208 193.612C70.836 193.59 70.4152 193.243 70.3372 193.239C70.2287 193.237 70.1377 193.258 70.0357 193.26C70.0553 193.321 70.0769 193.38 70.0965 193.44C70.0075 193.51 69.8492 193.432 69.7603 193.397C69.7495 193.425 69.7256 193.427 69.7148 193.46C69.7061 193.493 69.7169 193.51 69.769 193.542C69.821 193.575 69.9446 193.649 70.0119 193.686C70.0249 193.746 70.0314 193.803 70.0422 193.861C70.0184 193.892 69.9967 193.92 69.9728 193.95C69.8319 193.866 69.6909 193.779 69.55 193.694C69.4676 193.759 69.3938 193.846 69.3201 193.918C69.2268 194.009 69.101 194.137 68.9644 194.074C68.9709 194.035 68.9753 193.998 68.9818 193.961C69.0772 193.835 69.1726 193.694 69.268 193.575C69.281 193.558 69.2724 193.547 69.2702 193.545C69.2203 193.516 68.9536 193.382 68.9471 193.378C68.8647 193.302 68.7736 193.247 68.8603 193.163C68.9492 193.078 69.3049 193.286 69.3895 193.339C69.4155 193.334 69.4328 193.328 69.4567 193.323C69.4459 193.315 69.4892 193.273 69.4589 193.267C69.4285 193.26 69.4068 193.234 69.3656 193.204C69.3244 193.172 69.2247 193.119 69.1726 193.085C69.1791 193.044 69.1878 193.005 69.1965 192.966C69.4047 192.992 69.6042 193.054 69.8037 193.117C69.8319 193.096 69.8709 193.098 69.9056 193.083C69.9143 193.078 69.9295 193.054 69.936 193.046C69.9425 193.037 69.9338 193.028 69.9316 193.028C69.8861 192.992 69.7083 192.846 69.6519 192.887C69.5955 192.929 69.5803 192.985 69.5304 193.028C69.4979 193.005 69.4654 192.985 69.4285 192.957C69.4459 192.922 69.4155 192.731 69.4047 192.723C69.2876 192.625 69.1856 192.556 69.0468 192.545C68.8885 192.846 68.728 193.146 68.5697 193.447C68.535 193.434 68.5025 193.434 68.4656 193.419C68.4548 193.414 68.444 193.412 68.4309 193.395C68.3247 193.263 68.483 192.976 68.5437 192.842C68.6326 192.705 68.83 192.406 68.895 192.308C68.9601 192.211 68.8929 192.315 68.9341 192.256C69.1769 192.36 69.4329 192.449 69.6627 192.586C69.7733 192.538 69.9078 192.504 70.0054 192.428C69.9446 192.393 69.7343 192.172 69.782 192.109C69.8319 192.046 69.8687 192.072 69.9251 192.1C70.0184 192.148 70.1268 192.237 70.2222 192.291C70.3827 192.313 70.4803 192.189 70.5714 192.074C70.5757 192.029 70.6017 191.992 70.6299 191.957C70.6668 191.957 70.7102 191.961 70.7514 191.968Z" fill="#9C3C2E"/>
<path d="M72.7942 193.933C72.8397 193.967 72.8831 194.004 72.9308 194.037C72.831 194.254 72.779 194.375 72.6077 194.579C72.484 194.729 72.2694 194.935 72.1132 195.115C72.046 195.195 71.9375 195.375 71.8551 195.462C71.8616 195.481 71.8465 195.481 71.8703 195.505C72.0286 195.639 72.6532 196.012 72.7465 196.069C73.0457 196.257 73.4014 196.455 73.3862 196.748C73.3862 196.754 73.3819 196.756 73.3775 196.758C73.306 196.802 73.3146 196.836 73.2062 196.763C73.0978 196.689 72.8896 196.516 72.7725 196.409C72.3626 196.164 71.9679 195.9 71.5407 195.691C71.467 195.505 71.5537 195.344 71.6817 195.197C71.9202 194.924 72.2 194.659 72.4342 194.382C72.5665 194.23 72.6771 194.089 72.7942 193.933ZM73.8568 194.984C73.8156 195.013 73.8308 195.056 73.7982 195.091C73.6811 195.219 73.5142 195.269 73.345 195.314C73.332 195.318 73.2995 195.323 73.2843 195.327C73.3407 195.505 73.3905 195.683 73.4274 195.865C73.4057 195.893 73.384 195.921 73.3623 195.95C73.2886 195.971 73.2127 195.995 73.1411 196.017C73.0956 195.793 73.1151 195.579 72.9633 195.37C72.9503 195.353 72.5795 195.388 72.5296 195.418C72.4168 195.401 72.3236 195.39 72.2195 195.375C72.2065 195.355 72.1934 195.334 72.1804 195.312C72.1934 195.297 72.2065 195.279 72.2195 195.264C72.4298 195.249 72.6358 195.223 72.844 195.182C72.8571 195.164 72.8701 195.151 72.8831 195.134C72.8462 195.054 72.7877 194.82 72.8224 194.752C72.8571 194.685 72.8614 194.716 72.8874 194.668C72.9937 194.757 73.0414 194.846 73.1195 194.965C73.1411 194.997 73.1303 195.05 73.2062 195.082C73.2843 195.112 73.6096 194.924 73.6811 194.854C73.7462 194.898 73.7961 194.941 73.8568 194.984ZM74.1582 194.655C74.2081 194.69 74.2884 194.841 74.2558 194.93C74.1929 194.913 74.1929 194.939 74.117 194.9C74.0411 194.861 74.026 194.82 73.9067 194.744C73.6942 194.611 73.3819 194.414 73.152 194.238C73.1303 194.221 73.0804 194.189 73.0457 194.156C73.011 194.124 73.0067 194.022 73.0262 193.967C73.0696 193.97 73.1238 193.98 73.165 193.98C73.2648 194.056 73.2236 194.028 73.3515 194.124C73.5662 194.282 73.8915 194.477 74.1582 194.655Z" fill="#9C3C2E"/>
<path d="M76.7281 197.236C76.9211 197.392 77.0036 197.535 76.8951 197.765C76.6284 198.075 76.3009 198.543 75.865 198.61C75.8542 198.602 75.8412 198.595 75.8303 198.584C75.7544 198.387 75.5267 197.96 75.5614 197.763C75.5766 197.678 75.5983 197.728 75.6156 197.665C75.6438 197.689 75.6698 197.704 75.698 197.723C75.7848 197.871 75.8563 198.064 75.9778 198.185C75.9843 198.192 75.9778 198.192 75.9908 198.194C76.2424 198.233 76.5199 197.782 76.6436 197.619C76.6457 197.615 76.6631 197.585 76.6652 197.578C76.6826 197.543 76.6349 197.468 76.6219 197.461C76.4679 197.383 76.2944 197.301 76.1404 197.374C75.5983 197.63 75.2253 197.591 74.6831 197.359C74.7156 197.331 74.746 197.303 74.7785 197.277C75.1472 197.346 75.6395 197.472 75.9279 197.157C75.9387 197.125 75.7067 196.958 75.8585 196.923C76.045 196.876 76.5221 197.153 76.7281 197.236ZM76.2489 196.283C76.2619 196.333 76.2727 196.435 76.2532 196.476C76.2337 196.518 76.2294 196.513 76.212 196.544C75.9127 196.683 75.62 196.676 75.2968 196.628C75.2751 196.611 75.2535 196.594 75.2318 196.576C75.2513 196.55 75.2686 196.524 75.2882 196.496C75.6178 196.483 75.9387 196.379 76.2489 196.283ZM76.7672 196.097C76.8127 196.134 76.8344 196.138 76.8973 196.197C76.9168 196.487 77.3462 197.57 77.4243 197.682C77.6693 198.031 77.6238 197.969 77.7821 198.224C77.7409 198.229 77.7192 198.263 77.6823 198.272C77.4134 198.123 77.1272 197.834 77.0556 197.559C76.9233 197.047 76.8387 196.641 76.7346 196.149C76.7455 196.134 76.7563 196.114 76.7672 196.097Z" fill="#9C3C2E"/>
<path d="M78.9684 198.548C78.9944 198.576 79.0443 198.591 79.066 198.626C79.1419 198.751 79.1007 198.849 79.0205 198.979C78.9771 199.049 78.8904 199.185 78.8383 199.263C78.7884 199.341 78.7385 199.404 78.6887 199.48C78.8231 199.443 78.9576 199.409 79.092 199.376C79.1246 199.417 79.1593 199.456 79.194 199.497C79.1593 199.526 79.1267 199.552 79.092 199.58C78.7798 199.697 78.5065 199.886 78.2311 200.07C78.2072 199.983 78.1769 199.905 78.1573 199.812C78.2853 199.615 78.539 199.261 78.6453 199.103C78.7516 198.944 78.7494 198.944 78.8166 198.834C78.8838 198.725 78.9077 198.654 78.9684 198.548ZM79.2894 198.047C79.3436 198.09 79.3978 198.133 79.4542 198.177C79.4347 198.22 79.4737 198.253 79.5062 198.279C79.4607 198.29 79.4152 198.298 79.3696 198.311C79.3566 198.335 79.3219 198.383 79.3132 198.402C79.3046 198.422 79.3132 198.424 79.3284 198.433C79.4802 198.506 79.6299 198.582 79.7665 198.689C79.7687 198.736 79.7903 198.81 79.7578 198.851C79.6385 198.994 79.4195 198.947 79.2569 198.927C79.2352 198.91 79.2135 198.892 79.1896 198.877C79.2352 198.812 79.2937 198.758 79.3523 198.706C79.3588 198.712 79.3675 198.717 79.374 198.723C79.1397 198.558 78.9294 198.487 78.6518 198.587C78.5629 198.58 78.474 198.574 78.3872 198.567C78.4111 198.528 78.4371 198.489 78.461 198.45C78.7407 198.363 79.092 198.285 79.2894 198.047ZM80.5841 199.122C80.7185 199.2 80.9029 199.354 80.9527 199.426C81.0416 199.552 81.1566 199.634 81.1002 199.756C81.0438 199.877 80.8031 199.868 80.6903 199.894C80.519 200.018 80.2176 200.011 80.018 200.04C79.9595 199.979 79.6884 199.816 79.6212 199.875C79.554 199.933 79.5756 199.951 79.5258 200.001C79.5344 200.005 79.5518 200.02 79.5583 200.024C79.799 200.198 80.0679 200.378 80.2826 200.562C80.3455 200.616 80.3325 200.627 80.3889 200.669C80.3694 200.69 80.365 200.708 80.3455 200.731C80.2566 200.849 80.1048 200.901 79.9747 200.953C79.9638 200.957 79.9638 200.968 79.9595 200.974C79.9313 201.05 79.9573 201.102 80.0115 201.159C79.927 201.167 79.8467 201.185 79.7578 201.189C79.6754 201.087 79.4954 200.881 79.413 200.818C79.2807 200.718 79.1983 200.703 79.1029 200.616C79.0075 200.53 79.0378 200.402 79.0161 200.3C79.079 200.213 78.9858 200.365 79.0855 200.222C79.1853 200.079 79.4694 199.641 79.6082 199.445C79.6385 199.311 79.6537 199.196 79.6754 199.07C79.734 198.984 79.7925 198.895 79.8511 198.806C79.8402 198.797 79.8294 198.788 79.8185 198.78C79.8576 198.751 79.9031 198.723 79.9313 198.684C79.966 198.71 79.9486 198.702 79.9942 198.734C80.0397 198.769 80.0658 198.819 80.1482 198.871C80.2306 198.923 80.4995 199.072 80.5841 199.122ZM79.3241 200.306C79.2872 200.341 79.2807 200.376 79.2612 200.402C79.2417 200.428 79.2894 200.441 79.2959 200.447C79.374 200.536 79.7882 200.836 79.8836 200.77C79.979 200.703 79.9486 200.679 80.0224 200.623C80.0159 200.627 80.018 200.63 80.0137 200.634C80.0007 200.61 79.9877 200.588 79.9747 200.564C79.8402 200.454 79.4976 200.139 79.3241 200.306ZM79.8164 199.589C79.8034 199.602 79.7947 199.612 79.7882 199.63C79.7817 199.647 79.8033 199.658 79.825 199.675C79.9313 199.76 80.0831 199.827 80.2132 199.786C80.2523 199.773 80.2306 199.76 80.2458 199.747C80.2609 199.734 80.2327 199.719 80.2219 199.71C80.1243 199.628 79.94 199.458 79.8164 199.589ZM79.9877 199.04C79.9552 199.114 79.9226 199.185 79.8923 199.259C79.8879 199.257 79.8858 199.252 79.8814 199.25C80.0658 199.376 80.545 199.81 80.7857 199.612C80.7857 199.595 80.751 199.534 80.7445 199.53C80.5711 199.38 80.2414 199.005 79.9877 199.04ZM80.3694 198.437C80.4019 198.467 80.4344 198.489 80.467 198.522C80.5168 198.595 80.6057 198.812 80.5797 198.884C80.5515 198.955 80.5494 198.925 80.5255 198.977C80.5147 198.966 80.48 198.938 80.4735 198.931C80.3845 198.84 80.2458 198.682 80.2978 198.554C80.3217 198.493 80.3455 198.487 80.3694 198.437Z" fill="#9C3C2E"/>
<path opacity="0.3" d="M156.793 129.04L206.973 100.232V135.414L156.793 164.101V129.04Z" fill="#90CDB0"/>
<path opacity="0.3" d="M156.793 175.647L207.09 146.76V175.647L156.793 204.817V175.647Z" fill="#90CDB0"/>
<path d="M166.115 191.193V191.195C166.12 191.249 166.124 191.303 166.131 191.357H166.109V191.033H166.131C166.124 191.087 166.12 191.139 166.115 191.193Z" fill="white"/>
<path d="M179.186 191.033V191.357H179.164C179.171 191.303 179.177 191.249 179.179 191.195V191.193C179.175 191.139 179.171 191.087 179.164 191.035H179.186V191.033Z" fill="white"/>
<path d="M166.109 191.033H166.13C166.124 191.084 166.117 191.137 166.115 191.187C166.111 191.137 166.109 191.086 166.109 191.033Z" fill="white"/>
<path d="M179.185 191.033C179.185 191.086 179.183 191.136 179.181 191.187C179.177 191.134 179.173 191.084 179.167 191.033H179.185Z" fill="white"/>
<path d="M146.455 210.521C145.408 211.152 144.304 211.798 143.165 212.438C142.4 212.867 141.621 213.294 140.834 213.715C140.619 213.83 140.404 213.943 140.19 214.056C139.017 214.669 137.865 215.251 136.733 215.797C131.121 217.953 126.328 218.508 122.966 218.597C120.616 218.657 118.9 218.688 116.682 218.068C113.242 217.107 108.855 214.656 106.992 211.193C106.968 211.152 106.947 211.111 106.925 211.067C106.673 210.584 106.474 210.081 106.333 209.558C106.238 209.204 106.168 208.844 106.129 208.474C106.118 208.387 106.112 208.3 106.105 208.213C106.094 208.055 106.09 207.897 106.09 207.741C106.09 205.607 107.014 203.698 107.148 203.431C107.84 202.037 108.725 201.096 109.762 200.148C110.592 199.389 111.774 198.392 113.368 197.286C113.982 196.858 114.656 196.416 115.396 195.967C116.289 195.42 117.278 194.861 118.367 194.306L121.247 195.967L142.909 208.474L146.455 210.521Z" fill="#C8BB9B"/>
<path d="M146.667 210.124V216.378C143.61 218.228 140.441 219.137 136.605 220.325C128.017 222.984 123.749 223.118 116.679 221.884C112.366 220.642 106.517 217.209 106.105 212.03C106.053 211.761 106.109 208.812 106.09 208.471H106.129C106.229 209.43 106.534 210.347 106.99 211.193C114.094 221.188 125.252 219.601 136.731 215.797C139.999 214.218 143.557 212.004 146.667 210.124Z" fill="#EEEEEF"/>
<path d="M130.623 136.54V170.917C130.623 170.997 130.619 171.077 130.61 171.155C130.604 171.236 130.593 171.316 130.576 171.396H130.623V206.097C130.623 208.322 127.696 210.124 124.085 210.124C120.474 210.124 117.547 208.322 117.547 206.097V171.396H117.594C117.579 171.318 117.566 171.238 117.56 171.155C117.551 171.077 117.547 170.997 117.547 170.917V136.54H117.568C117.835 138.611 120.652 140.242 124.085 140.242C127.518 140.242 130.335 138.611 130.602 136.54H130.623Z" fill="#F7F7F7"/>
<path d="M117.594 171.393H117.553C117.551 171.368 117.551 171.342 117.549 171.316C117.549 171.29 117.549 171.266 117.549 171.238V170.915C117.549 170.995 117.553 171.074 117.562 171.152C117.566 171.234 117.579 171.314 117.594 171.393Z" fill="#F7F7F7"/>
<path d="M130.623 170.915V171.238C130.623 171.264 130.623 171.29 130.623 171.316C130.623 171.342 130.621 171.368 130.619 171.393H130.578C130.593 171.316 130.606 171.236 130.612 171.154C130.619 171.074 130.623 170.995 130.623 170.915Z" fill="#F7F7F7"/>
<path d="M130.602 136.214C130.608 136.266 130.615 136.321 130.617 136.373V136.375C130.613 136.429 130.608 136.483 130.602 136.537C130.335 138.609 127.518 140.239 124.085 140.239C120.652 140.239 117.835 138.609 117.568 136.537C117.562 136.483 117.555 136.429 117.553 136.375V136.373C117.557 136.318 117.562 136.266 117.568 136.214H117.547C117.547 133.989 120.474 132.187 124.085 132.187C127.696 132.187 130.623 133.989 130.623 136.214H130.602Z" fill="#F7F7F7"/>
<path d="M117.568 136.535H117.547C117.547 136.482 117.549 136.43 117.551 136.377C117.557 136.43 117.561 136.482 117.568 136.535Z" fill="#F7F7F7"/>
<path d="M130.623 136.535H130.602C130.608 136.482 130.615 136.43 130.617 136.377C130.621 136.43 130.623 136.482 130.623 136.535Z" fill="#F7F7F7"/>
<path d="M146.455 177.605V188.754C145.407 189.385 144.304 190.031 143.165 190.671C142.399 191.101 141.621 191.528 140.834 191.949C140.619 192.063 140.404 192.176 140.19 192.289C139.016 192.903 137.865 193.484 136.733 194.03C131.12 196.186 126.328 196.741 122.966 196.83C120.615 196.891 118.9 196.921 116.682 196.301C113.242 195.34 108.855 192.89 106.992 189.426C106.968 189.385 106.947 189.344 106.925 189.301C106.673 188.817 106.474 188.314 106.333 187.791C106.237 187.438 106.168 187.078 106.129 186.707C106.118 186.62 106.112 186.533 106.105 186.447C106.094 186.288 106.09 186.13 106.09 185.974V175.79C106.795 180.552 112.429 183.959 116.645 185.135C117.402 185.347 118.102 185.482 118.785 185.568C120.013 185.72 121.197 185.709 122.593 185.675C122.606 185.675 122.619 185.675 122.632 185.675C122.739 185.672 122.845 185.67 122.951 185.666C123.498 185.651 124.081 185.625 124.701 185.584C127.904 185.358 132.049 184.673 136.77 182.858C138.112 182.207 139.487 181.511 140.886 180.767C142.827 179.73 144.72 178.648 146.455 177.605Z" fill="white"/>
<path d="M117.547 162.678V163.945C117.241 164.116 116.95 164.285 116.669 164.452C116.625 164.478 116.584 164.504 116.543 164.53L117.547 162.678Z" fill="#F7F7F7"/>
<path d="M146.529 177.56C146.505 177.575 146.481 177.59 146.455 177.605C144.72 178.65 142.829 179.733 140.886 180.767C139.487 181.511 138.112 182.207 136.77 182.858C134.586 183.697 132.524 184.295 130.624 184.716C128.414 185.208 126.423 185.462 124.701 185.584C124.081 185.627 123.498 185.653 122.951 185.666C122.843 185.668 122.736 185.67 122.632 185.675C122.619 185.675 122.606 185.675 122.593 185.675C121.195 185.709 120.01 185.72 118.785 185.568C118.382 185.518 117.972 185.449 117.549 185.358C117.254 185.295 116.955 185.221 116.645 185.135C112.429 183.959 106.795 180.552 106.09 175.79C106.062 175.61 106.042 175.43 106.031 175.246C105.875 172.917 106.934 170.733 107.077 170.442C107.771 169.043 108.66 168.1 109.699 167.148C111.145 165.825 113.663 163.778 117.549 161.694V162.681L116.543 164.53C116.45 164.587 116.354 164.643 116.263 164.702C115.76 165.01 115.294 165.313 114.869 165.604C114.801 165.649 114.734 165.695 114.669 165.74C114.467 165.879 114.274 166.016 114.09 166.148C114.055 166.174 114.021 166.198 113.986 166.224C113.919 166.274 113.852 166.322 113.786 166.372C113.754 166.395 113.721 166.419 113.689 166.443C113.626 166.491 113.565 166.536 113.507 166.58C113.318 166.723 113.14 166.862 112.973 166.992C111.876 167.859 111.08 168.607 110.375 169.692C110.026 170.227 108.773 172.155 108.809 174.209C108.827 175.118 109.094 175.985 109.547 176.794C109.601 176.892 109.657 176.989 109.718 177.085C111.29 179.609 114.628 181.532 117.547 182.335C117.688 182.374 117.829 182.411 117.97 182.445C119.364 182.782 120.854 182.723 123.838 182.602C123.91 182.599 123.981 182.595 124.053 182.593C124.066 182.593 124.077 182.593 124.088 182.591C124.862 182.556 125.599 182.502 126.3 182.435C127.954 182.274 129.399 182.036 130.626 181.771C133.441 181.166 135.115 180.433 135.557 180.218C136.303 179.858 137.058 179.481 137.826 179.086C138.405 178.787 138.884 178.535 139.049 178.447C139.749 178.071 141.413 177.406 143.759 175.959L146.529 177.56Z" fill="#EEEEEF"/>
<path d="M117.547 163.945V169.993C114.647 171.231 112.6 172.758 111.18 174.396C110.501 175.176 109.965 175.983 109.545 176.796C109.091 175.987 108.825 175.12 108.807 174.211C108.77 172.157 110.024 170.23 110.373 169.694C111.078 168.61 111.874 167.861 112.971 166.994C113.138 166.862 113.316 166.725 113.505 166.582C113.563 166.536 113.624 166.491 113.687 166.445C113.719 166.421 113.752 166.398 113.784 166.374C113.849 166.326 113.917 166.276 113.984 166.226C114.019 166.2 114.053 166.176 114.088 166.15C114.272 166.018 114.463 165.881 114.667 165.743C114.732 165.697 114.799 165.652 114.867 165.606C115.294 165.315 115.758 165.012 116.261 164.704C116.354 164.647 116.447 164.591 116.541 164.533C116.582 164.507 116.625 164.483 116.666 164.457C116.951 164.285 117.243 164.114 117.547 163.945Z" fill="#717071"/>
<path d="M117.56 171.155C117.566 171.236 117.577 171.316 117.595 171.396H117.547V182.335C114.628 181.535 111.29 179.611 109.718 177.085L111.18 174.393L116.541 164.528L117.547 162.678V170.917C117.547 170.995 117.551 171.075 117.56 171.155Z" fill="#C8BB9B"/>
<path d="M130.624 170.915V171.238C130.624 171.264 130.624 171.29 130.624 171.316C130.624 171.342 130.621 171.368 130.619 171.394H130.578C130.593 171.316 130.606 171.236 130.613 171.154C130.619 171.074 130.624 170.995 130.624 170.915Z" fill="#C8BB9B"/>
<path d="M113.897 141.647V216.716L112.804 216.085V141.105C113.168 141.298 113.532 141.48 113.897 141.647Z" fill="white"/>
<path d="M114.972 142.1V216.081L113.899 216.703V141.647C114.257 141.812 114.617 141.963 114.972 142.1Z" fill="#DBDCDC"/>
<path d="M108.317 137.68V209.989L107.224 209.358V136.21C107.536 136.724 107.905 137.216 108.317 137.68Z" fill="white"/>
<path d="M109.39 138.756V209.356L108.317 209.976V137.68C108.649 138.056 109.009 138.413 109.39 138.756Z" fill="#DBDCDC"/>
<path d="M121.277 143.232V218.421L120.184 217.79V143.215C120.542 143.228 120.904 143.234 121.277 143.232Z" fill="white"/>
<path d="M122.35 143.217V217.788L121.277 218.408V143.232C121.624 143.232 121.979 143.226 122.35 143.217Z" fill="#DBDCDC"/>
<path d="M128.806 142.614V217.901L127.713 217.269V142.792C128.071 142.738 128.435 142.679 128.806 142.614Z" fill="white"/>
<path d="M129.88 142.41V217.265L128.806 217.885V142.612C129.157 142.553 129.515 142.486 129.88 142.41Z" fill="#DBDCDC"/>
<path d="M136.347 140.66V216.248L135.254 215.617V140.94C135.577 140.829 135.9 140.712 136.23 140.591L136.347 140.66Z" fill="white"/>
<path d="M137.42 140.029V215.613L136.347 216.233V140.66L137.041 140.252L137.42 140.029Z" fill="#DBDCDC"/>
<path d="M143.23 137.006V212.267L142.137 211.635V137.615C142.506 137.411 142.87 137.21 143.23 137.006Z" fill="white"/>
<path d="M144.306 136.394V211.633L143.232 212.256V137.006C143.592 136.802 143.95 136.598 144.306 136.394Z" fill="#DBDCDC"/>
<path d="M146.945 150.824C142.838 153.394 138.448 155.37 133.903 156.695C130.973 157.549 127.223 158.642 122.715 158.642C121.281 158.642 119.77 158.532 118.187 158.267C115.771 157.864 112.459 157.313 109.469 154.665C108.148 153.494 107.07 152.084 106.25 150.462V149.99C107.077 151.75 108.202 153.269 109.605 154.511C112.55 157.12 115.827 157.664 118.219 158.063C124.742 159.15 130.004 157.617 133.846 156.495C138.375 155.177 142.744 153.208 146.837 150.649L146.945 150.824Z" fill="#D6D7D7"/>
<path d="M146.945 167.256C142.838 169.826 138.448 171.802 133.903 173.127C130.973 173.981 127.223 175.072 122.715 175.072C121.281 175.072 119.77 174.961 118.187 174.697C115.771 174.294 112.459 173.743 109.469 171.095C108.148 169.924 107.07 168.514 106.25 166.892V166.419C107.077 168.18 108.202 169.698 109.605 170.941C112.55 173.55 115.827 174.094 118.219 174.493C124.742 175.58 130.004 174.046 133.846 172.927C138.375 171.609 142.744 169.64 146.837 167.081L146.945 167.256Z" fill="#D6D7D7"/>
<path d="M146.945 183.686C142.838 186.256 138.448 188.231 133.903 189.556C130.973 190.411 127.223 191.502 122.715 191.502C121.281 191.502 119.77 191.391 118.187 191.126C115.771 190.723 112.459 190.172 109.469 187.524C108.148 186.353 107.07 184.944 106.25 183.322V182.849C107.077 184.61 108.202 186.128 109.605 187.37C112.55 189.979 115.827 190.524 118.219 190.923C124.742 192.007 130.004 190.476 133.846 189.355C138.375 188.034 142.744 186.067 146.837 183.508L146.945 183.686Z" fill="#D6D7D7"/>
<path d="M146.945 200.116C142.838 202.685 138.448 204.661 133.903 205.986C130.973 206.84 127.223 207.933 122.715 207.933C121.281 207.933 119.77 207.823 118.187 207.558C115.771 207.155 112.459 206.604 109.469 203.956C108.148 202.785 107.07 201.375 106.25 199.753V199.278C107.077 201.039 108.202 202.557 109.605 203.802C112.55 206.411 115.827 206.955 118.219 207.354C124.742 208.439 130.004 206.908 133.846 205.787C138.375 204.468 142.744 202.499 146.837 199.94L146.945 200.116Z" fill="#D6D7D7"/>
<path opacity="0.4" d="M146.455 134.59L146.613 211.425C145.776 211.922 144.587 212.817 143.698 213.318C142.915 213.758 142.12 214.194 141.315 214.624C141.096 214.741 140.875 214.858 140.656 214.973C139.456 215.602 138.279 216.196 137.121 216.756C131.38 218.961 126.481 219.529 123.044 219.618C120.641 219.679 118.887 219.711 116.618 219.076C113.101 218.094 108.614 215.589 106.712 212.047C106.688 212.006 106.667 211.963 106.645 211.919C106.495 211.631 106.129 210.868 106.016 210.566L106.252 133.946C106.437 134.44 106.673 134.918 106.953 135.375C107.274 135.902 107.649 136.403 108.072 136.88C108.41 137.264 108.779 137.63 109.169 137.98C110.217 138.917 111.422 139.721 112.663 140.382C113.034 140.58 113.407 140.764 113.78 140.935C114.146 141.102 114.513 141.259 114.877 141.4C115.473 141.634 116.061 141.829 116.623 141.985C117.913 142.345 119.037 142.49 120.208 142.538C120.572 142.553 120.943 142.558 121.324 142.555C121.68 142.555 122.044 142.549 122.422 142.54C122.626 142.536 122.834 142.529 123.049 142.525C124.441 142.49 126.074 142.375 127.906 142.104C128.271 142.05 128.644 141.992 129.025 141.922C129.383 141.859 129.75 141.79 130.123 141.716C131.827 141.369 133.668 140.886 135.618 140.211C135.948 140.098 136.279 139.979 136.616 139.853C136.785 139.79 136.956 139.728 137.127 139.66C137.231 139.61 137.338 139.558 137.444 139.506L137.834 139.276V139.316C138.977 138.752 140.14 138.16 141.321 137.529C141.768 137.29 142.215 137.049 142.657 136.806C143.033 136.6 143.406 136.392 143.774 136.184C144.145 135.976 144.512 135.768 144.872 135.557C145.349 135.282 145.988 134.865 146.455 134.59Z" fill="#ABD8C8"/>
<path d="M120.402 119.39L140.885 131.142C140.868 131.152 140.848 131.161 140.831 131.172C140.616 131.287 140.401 131.4 140.187 131.512C139.013 132.126 137.862 132.707 136.73 133.254C131.117 135.409 126.325 135.965 122.963 136.054C120.613 136.114 118.897 136.145 116.679 135.524C113.239 134.564 108.852 132.113 106.989 128.65C106.965 128.609 106.944 128.567 106.922 128.524C106.462 127.635 106.172 126.681 106.104 125.67C106.093 125.512 106.089 125.353 106.089 125.197C106.089 123.063 107.013 121.155 107.147 120.888C107.839 119.494 108.724 118.553 109.761 117.605C110.591 116.846 111.773 115.848 113.367 114.742C113.981 114.315 114.655 113.873 115.395 113.424C116.288 112.877 117.277 112.318 118.366 111.763L120.409 112.942L120.402 119.39Z" fill="#C8C9CA"/>
<path d="M146.455 127.978C145.589 128.498 144.685 129.03 143.757 129.559V126.421L146.455 127.978Z" fill="#C8C9CA"/>
<path d="M140.886 131.142C141.859 130.624 142.82 130.092 143.755 129.559V132.788L140.886 131.142Z" fill="#EEEEEF"/>
<path d="M106.088 125.007C106.101 125.175 106.107 125.352 106.114 125.544C106.098 125.367 106.09 125.188 106.088 125.007Z" fill="#EEEEEF"/>
<path d="M137.418 140.029V140.066C137.291 140.128 137.166 140.191 137.038 140.251L137.418 140.029Z" fill="#DBDCDC"/>
<path d="M146.91 128.108C145.155 129.166 143.271 130.125 141.3 131.174C139.901 131.918 138.112 132.638 136.769 133.289C131.135 135.453 126.323 136.013 122.951 136.097C120.591 136.158 118.869 136.19 116.642 135.566C112.268 134.345 106.365 130.723 106.029 125.677C105.873 123.348 106.931 121.164 107.074 120.873C107.768 119.475 108.657 118.531 109.696 117.579C111.238 116.17 113.994 113.936 118.332 111.713L119.943 112.643L120.405 112.91V112.921C116.913 114.53 114.489 116.224 112.973 117.425C111.876 118.293 111.08 119.041 110.375 120.125C110.026 120.661 108.772 122.589 108.809 124.642C108.826 125.551 109.093 126.419 109.546 127.227C111.106 130.021 114.849 132.124 117.969 132.877C119.364 133.213 120.854 133.154 123.838 133.033C130.784 132.753 134.831 131.001 135.557 130.652C136.303 130.292 137.361 129.953 138.127 129.559C138.706 129.259 139.361 128.936 139.526 128.847C140.226 128.472 142.377 127.672 144.724 126.226L146.91 128.108Z" fill="#F7F7F7"/>
<path d="M146.455 134.978C145.451 135.585 144.423 136.147 143.382 136.733C143.28 136.791 143.178 136.848 143.078 136.904C141.287 137.908 139.461 138.871 137.654 139.762C137.576 139.801 137.498 139.84 137.42 139.877V139.84C137.396 139.851 137.372 139.862 137.351 139.873C135.596 140.697 133.705 141.332 131.775 141.814C131.673 141.84 131.571 141.864 131.472 141.888C129.474 142.367 127.438 142.681 125.471 142.857C125.369 142.868 125.267 142.876 125.167 142.885C124.419 142.948 123.684 142.991 122.964 143.017C121.663 143.124 120.327 143.087 119.002 142.911C118.9 142.896 118.798 142.883 118.698 142.868C116.675 142.564 114.678 141.933 112.865 140.988C112.763 140.935 112.661 140.881 112.561 140.825C110.906 139.918 109.412 138.745 108.195 137.312C108.091 137.19 107.992 137.067 107.892 136.941C107.658 136.646 107.436 136.34 107.228 136.026C105.509 133.848 106.192 128.455 106.118 125.551C106.252 127.149 106.914 128.585 107.892 129.841C107.989 129.966 108.091 130.09 108.195 130.214C109.375 131.595 110.934 132.745 112.561 133.636C112.663 133.692 112.765 133.746 112.865 133.798C114.157 134.477 115.48 134.996 116.681 135.338C117.378 135.46 118.048 135.564 118.7 135.648C118.802 135.661 118.904 135.674 119.004 135.685C121.181 135.952 123.157 136.006 125.169 135.837C125.271 135.828 125.373 135.82 125.473 135.809C127.36 135.629 129.294 135.256 131.474 134.675C131.573 134.649 131.678 134.62 131.777 134.592C133.289 134.182 134.917 133.675 136.733 133.068C136.939 132.968 137.145 132.87 137.353 132.773C137.455 132.725 137.557 132.677 137.656 132.632C139.463 131.792 141.295 131.018 143.08 130.166C143.182 130.118 143.284 130.068 143.384 130.019C144.425 129.513 145.448 128.975 146.435 128.377L146.455 134.978Z" fill="#EEEEEF"/>
<path d="M120.414 112.914C120.413 112.916 120.409 112.916 120.405 112.918V112.908L120.414 112.914Z" fill="white"/>
<path d="M120.405 112.921L120.403 119.39C114.291 121.259 111.108 124.2 109.544 127.228C109.091 126.419 108.824 125.551 108.807 124.642C108.77 122.589 110.023 120.661 110.373 120.125C111.077 119.041 111.873 118.293 112.971 117.425C114.491 116.224 116.915 114.53 120.405 112.921Z" fill="#9E9E9F"/>
<path d="M108.191 130.209V137.309C108.087 137.188 107.987 137.064 107.887 136.939V129.836C107.985 129.962 108.087 130.086 108.191 130.209Z" fill="#DBDCDC"/>
<path d="M112.862 133.794V140.985C112.761 140.933 112.659 140.879 112.559 140.823V133.631C112.659 133.688 112.761 133.742 112.862 133.794Z" fill="#DBDCDC"/>
<path d="M118.999 135.681V142.909C118.897 142.894 118.795 142.881 118.696 142.866V135.644C118.798 135.657 118.9 135.67 118.999 135.681Z" fill="#DBDCDC"/>
<path d="M125.471 135.804V142.857C125.369 142.868 125.267 142.876 125.167 142.885V135.833C125.267 135.824 125.369 135.815 125.471 135.804Z" fill="#DBDCDC"/>
<path d="M131.775 134.59V141.814C131.673 141.84 131.571 141.864 131.471 141.887V134.672C131.571 134.644 131.673 134.618 131.775 134.59Z" fill="#DBDCDC"/>
<path d="M137.654 132.63V139.764C137.576 139.803 137.498 139.842 137.42 139.879V139.842C137.396 139.853 137.372 139.864 137.351 139.875V132.77C137.453 132.723 137.552 132.675 137.654 132.63Z" fill="#DBDCDC"/>
<path d="M143.382 130.016V136.733C143.28 136.791 143.178 136.848 143.078 136.904V130.162C143.18 130.114 143.282 130.066 143.382 130.016Z" fill="#DBDCDC"/>
<path d="M36.6259 89.3803V96.5325C36.5218 96.4327 36.4221 96.333 36.3223 96.2311V89.0789C36.4221 89.1808 36.524 89.2806 36.6259 89.3803Z" fill="#DBDCDC"/>
<path d="M42.7655 93.1299V100.282C42.6961 100.256 42.6267 100.23 42.5595 100.202C42.527 100.189 42.4944 100.176 42.4619 100.163V93.0128C42.5617 93.054 42.6636 93.093 42.7655 93.1299Z" fill="#DBDCDC"/>
<path d="M49.2368 94.1816V101.332C49.1349 101.334 49.033 101.334 48.9332 101.334V94.1838C49.033 94.1816 49.1327 94.1816 49.2368 94.1816Z" fill="#DBDCDC"/>
<path d="M55.5388 93.7045V100.857C55.4586 100.87 55.3784 100.881 55.3003 100.894C55.2786 100.896 55.2569 100.9 55.2352 100.902V93.75C55.335 93.7349 55.4369 93.7197 55.5388 93.7045Z" fill="#DBDCDC"/>
<path d="M61.4202 92.3535V99.5056C61.3183 99.5382 61.2164 99.5685 61.1166 99.5967V92.4467C61.2164 92.4142 61.3183 92.3838 61.4202 92.3535Z" fill="#DBDCDC"/>
<path d="M67.1475 89.9376V97.0898C67.0456 97.1419 66.9437 97.1939 66.8439 97.246V90.0959C66.9459 90.0417 67.0478 89.9897 67.1475 89.9376Z" fill="#DBDCDC"/>
</svg>
