<svg width="60" height="60" viewBox="0 0 60 60" fill="none" xmlns="http://www.w3.org/2000/svg">
<path d="M38 26.3201C38 26.3201 38 26.5201 37.93 26.8801C37.67 28.6101 36.74 35.0001 32 39.0001C35.0117 35.5645 37.0519 31.3875 37.91 26.9001V26.7501C37.91 26.6501 37.97 26.5601 37.99 26.4801L38 26.3201Z" fill="#808080"/>
<path d="M22.22 25.11L22.53 24.78C22.53 24.78 33.17 23.96 35.28 21.78C35.28 21.78 33.28 24.66 22.22 25.11Z" fill="#B2B2B2"/>
<path d="M33.35 26.41H33.29V26.8H33.42C33.36 26.66 33.35 26.54 33.35 26.41ZM36.64 26.1C36.64 26.2 36.64 26.31 36.64 26.41V26.47C37.49 26.47 37.8 26.56 37.9 26.67C37.9 26.57 37.9 26.46 37.95 26.36V26.18C37.5187 26.0969 37.0783 26.07 36.64 26.1ZM33.35 26.4H33.29V26.79H33.42C33.42 26.67 33.42 26.55 33.42 26.42L33.35 26.4ZM33.35 26.4H33.29V26.79H33.42C33.36 26.66 33.35 26.54 33.35 26.41V26.4Z" fill="#CBCBCB"/>
<path d="M33.2901 26.41V26.8H33.4201C33.4362 26.9814 33.4629 27.1617 33.5001 27.34C33.7301 28.34 34.3401 29.05 35.0501 29.05C35.9501 29.05 36.6801 27.91 36.7001 26.49C37.5501 26.49 37.8601 26.58 37.9601 26.69V26.84C37.1299 31.1901 35.1829 35.2496 32.3101 38.62C31.8173 38.5814 31.3216 38.6185 30.8401 38.73C36.8401 23.12 25.9301 25.12 22.4901 25.31L22.3101 25.03C28.0001 24.73 31.5801 23.79 33.8101 22.67C38.1201 20.5 37.4401 17.67 37.3901 17.46C38.2557 20.2958 38.4643 23.2915 38.0001 26.22C37.5477 26.1173 37.0834 26.0769 36.6201 26.1C36.6447 25.6204 36.5218 25.1447 36.2679 24.7371C36.014 24.3295 35.6414 24.0094 35.2001 23.82C35.1271 23.8101 35.0531 23.8101 34.9801 23.82C34.0701 23.82 33.3401 24.98 33.3301 26.42L33.2901 26.41Z" fill="#CBCBCB"/>
<path d="M33.45 27.3199C33.3854 27.0208 33.3519 26.7159 33.35 26.4099C33.35 24.9699 34.09 23.7999 35 23.7999C35.073 23.79 35.147 23.79 35.22 23.7999C34.65 23.8799 33.27 24.3499 33.45 27.3199Z" fill="#808080"/>
<path d="M22.4 25.3899C22.4 25.3899 27.67 24.7399 29.48 25.8499C29.48 25.8499 28.12 24.6399 22.22 25.1099" fill="#808080"/>
<path d="M33.7 26.36C33.7 26.36 36.8199 25.79 37.7599 26.16C36.404 26.1543 35.0488 26.2211 33.7 26.36Z" fill="#B2B2B2"/>
<path d="M37.94 26.8801C37.94 26.8801 37.94 26.8101 37.94 26.7501C37.84 26.6401 37.53 26.5401 36.68 26.5501C35.5818 26.5921 34.4867 26.6956 33.4 26.8601H33.27V26.4701H33.33C34.4194 26.3022 35.5182 26.202 36.62 26.1701C37.0833 26.147 37.5476 26.1874 38 26.2901C38.1852 26.3174 38.3531 26.4139 38.47 26.5601C38.47 26.5601 38.61 26.7001 37.94 26.8801Z" fill="#989898"/>
<path d="M23.9401 40.6101L21.8101 40.9401L31.7901 41.8801L38.2101 40.8001L28.6501 40.0701L23.9401 40.6101Z" fill="#824141"/>
<path d="M19.58 42.4999L28.65 41.1499L40.42 42.2399L32.17 44.2799L19.58 42.4999Z" fill="#824141"/>
<path d="M19.58 49.09V42.5L32.17 44.28V52.58L19.58 49.09Z" fill="#8E5754"/>
<path d="M40.42 42.24V48.69L32.17 52.58V44.28L40.42 42.24Z" fill="#C67D79"/>
<path d="M38.21 40.8V42.21L31.79 43.68V41.8801L38.21 40.8Z" fill="#C67D79"/>
<path d="M21.8101 42.4499V40.9399L31.7901 41.8799V43.6799L21.8101 42.4499Z" fill="#8C5554"/>
<path d="M29.7499 38.03L23.0699 38.53L23.7099 39.81L27.7199 39.63L28.6499 40.24L30.3499 39.63L32.8499 40.45L37.3999 38.93L29.7499 38.03Z" fill="#989898"/>
<path d="M27.7999 25.8501H28.0199C28.0199 25.8501 27.1099 32.8501 25.6899 38.7301L27.7999 25.8501Z" fill="url(#paint0_linear_93_7076)"/>
<path d="M28.4599 27C28.4599 27 25.6999 38.54 25.6899 38.7H25.7599L28.5699 27.51L28.4599 27Z" fill="url(#paint1_linear_93_7076)"/>
<path d="M28.74 28.8401C28.74 28.8401 25.74 38.5101 25.74 38.8401L25.82 38.9601C25.82 38.9601 28.64 29.4301 28.82 29.3001L28.74 28.8401Z" fill="url(#paint2_linear_93_7076)"/>
<path d="M28.79 30.8701L25.79 38.9301L25.9 38.9901C25.9 38.9901 28.66 31.5201 28.74 31.5101L28.79 30.8701Z" fill="url(#paint3_linear_93_7076)"/>
<path d="M28.64 32.99L25.92 38.99L26.39 38.38L28.65 33.28L28.64 32.99Z" fill="url(#paint4_linear_93_7076)"/>
<path d="M28.5 34.6201L25.92 38.9901L28.43 35.0501L28.5 34.6201Z" fill="url(#paint5_linear_93_7076)"/>
<path d="M28.28 36L25.92 39C26.0847 38.8828 26.2626 38.7855 26.45 38.71L28.28 36.28V36Z" fill="url(#paint6_linear_93_7076)"/>
<path d="M26 5.78005L26.4 5.30005C26.4 5.30005 35.64 15.61 22.6 22.49C22.6 22.49 33.79 15.34 26 5.78005Z" fill="#B2B2B2"/>
<path d="M26.4 5.30005C27.07 6.13005 29.7 9.61005 29 13.9C28.5573 16.0289 27.5643 18.0046 26.12 19.63C25.0157 20.8909 23.6949 21.9441 22.22 22.74C26.22 21.85 27.92 24.13 28.5 27.21C28.5 27.33 28.55 27.46 28.57 27.59C28.59 27.72 28.63 27.99 28.65 28.19V28.5C28.8074 31.8643 28.4705 35.2335 27.65 38.5C28.3355 38.4468 29.0233 38.5671 29.65 38.85C39.17 14.14 26.4 5.30005 26.4 5.30005ZM30.64 24C30.1041 23.8867 29.6294 23.5785 29.3079 23.135C28.9864 22.6916 28.841 22.1446 28.9 21.6C28.8402 21.0432 29.0001 20.485 29.3456 20.0443C29.6911 19.6035 30.195 19.315 30.75 19.24C31.1279 19.2648 31.4895 19.4031 31.7875 19.6368C32.0855 19.8706 32.306 20.1889 32.42 20.55C32.5296 20.8719 32.5837 21.2101 32.58 21.55C32.6199 22.1267 32.4432 22.6975 32.0844 23.1507C31.7255 23.6039 31.2104 23.9068 30.64 24Z" fill="#E5E5E5"/>
<path d="M32.42 20.5501C32.306 20.1889 32.0855 19.8706 31.7876 19.6369C31.4896 19.4031 31.1279 19.2648 30.75 19.2401C30.195 19.3151 29.6912 19.6036 29.3457 20.0444C29.0002 20.4851 28.8403 21.0433 28.9 21.6001C28.8411 22.1446 28.9864 22.6917 29.3079 23.1351C29.6294 23.5785 30.1041 23.8868 30.64 24.0001H30.52C29.9236 23.9442 29.3733 23.6558 28.9878 23.1974C28.6023 22.7389 28.4127 22.1472 28.46 21.5501C28.4128 20.9541 28.6027 20.3635 28.9884 19.9066C29.3741 19.4498 29.9245 19.1636 30.52 19.1101C30.9453 19.1292 31.3548 19.2772 31.6942 19.5344C32.0335 19.7915 32.2866 20.1458 32.42 20.5501Z" fill="#989898"/>
<path d="M22.22 22.74L22.4 22.92C23.5846 22.6156 24.8301 22.6433 26 23C25.4205 22.7025 24.7866 22.526 24.1367 22.4813C23.4869 22.4366 22.8347 22.5246 22.22 22.74Z" fill="#666666"/>
<path d="M30.75 9.73991C31.3243 9.73991 31.79 9.27429 31.79 8.69991C31.79 8.12554 31.3243 7.65991 30.75 7.65991C30.1756 7.65991 29.71 8.12554 29.71 8.69991C29.71 9.27429 30.1756 9.73991 30.75 9.73991Z" fill="url(#paint7_linear_93_7076)"/>
<path d="M30.78 27.86L30.49 27.58L30.78 27.51V27.86Z" fill="#B2B2B2"/>
<path d="M28.6801 28.5001C27.7801 28.3901 27.6801 28.3001 27.6801 28.3001L28.3501 28.1001C28.3001 28.1801 28.5401 28.1901 28.6301 28.1901L28.6801 28.5001Z" fill="#4D4D4D"/>
<path d="M28.5699 27.59L26.5699 27.9L26.1899 27.58L28.4999 27.21C28.5199 27.33 28.5499 27.46 28.5699 27.59Z" fill="#808080"/>
<path d="M28.08 25.6499C25.5122 26.0882 22.979 26.7098 20.5 27.5099C20.5 27.5099 27.03 25.8999 28.14 25.8099V25.6999" fill="#808080"/>
<path d="M30.13 38.0699L29.75 38.8099C29.75 38.8099 35.67 24.0999 31.83 13.4299C31.83 13.4299 36.67 21.8299 30.13 38.0699Z" fill="url(#paint8_linear_93_7076)"/>
<path d="M30.49 27.58C30.49 27.58 27.95 27.97 27.28 28.15C28.3931 27.7082 29.5826 27.4907 30.78 27.51L30.49 27.58Z" fill="#989898"/>
<path d="M30.78 27.8501C30.78 27.8501 27.69 28.1201 27.78 28.3401C27.5924 28.3419 27.4107 28.2742 27.27 28.1501C28.3159 27.8431 29.3924 27.6519 30.48 27.5801L30.78 27.8501Z" fill="#666666"/>
<path d="M33 37.1501L37.39 37.05C37.39 37.05 40.18 38.96 37.52 40.73L32.46 41.4501C32.8203 41.4436 33.1737 41.3491 33.4891 41.1748C33.8046 41.0005 34.0727 40.7517 34.27 40.4501C34.5259 39.8425 34.5366 39.1594 34.2998 38.5442C34.063 37.9289 33.5972 37.4293 33 37.1501Z" fill="#E5E5E5"/>
<path d="M28.92 25.26C28.92 25.26 31.86 24.26 33.73 25.17L28.92 25.26Z" fill="#B2B2B2"/>
<path d="M20.26 27.1801L20.5 27.5101C20.5 27.5101 32.85 23.9101 33.43 25.6301C33.43 25.6301 34.06 25.6301 33.98 25.3701C33.9699 25.3263 33.9477 25.2861 33.9158 25.2543C33.884 25.2225 33.8439 25.2002 33.8 25.1901C33.3783 25.097 32.9506 25.0335 32.52 25.0001C31.3249 24.8946 30.1206 24.9961 28.96 25.3001C26.69 25.7601 25.55 25.9801 25.27 26.0501C23.9 26.3101 22.21 26.7101 20.26 27.1801Z" fill="#989898"/>
<path d="M28.89 39.63L29.75 38.81L31.33 38.21L32.79 38.31C32.79 38.31 34.32 39.31 33.59 39.87C33.2768 40.0341 32.9332 40.1321 32.5806 40.1579C32.2279 40.1837 31.8738 40.1368 31.54 40.02L28.89 39.63Z" fill="#808080"/>
<path d="M28.16 38.8099C28.4602 39.0268 28.7094 39.3066 28.89 39.6299C29.0187 39.4237 29.1941 39.2507 29.402 39.1248C29.61 38.9989 29.8446 38.9236 30.087 38.9051C30.3293 38.8866 30.5726 38.9254 30.7973 39.0183C31.0219 39.1112 31.2215 39.2556 31.38 39.4399C31.38 39.4399 32.59 40.5899 33.11 39.9699C33.11 39.9699 33.72 39.2399 32.64 38.2199L33 37.1499C33.5863 37.4439 34.0416 37.9464 34.2766 38.5587C34.5115 39.1711 34.5092 39.8492 34.27 40.4599C34.048 40.8374 33.7141 41.1364 33.3145 41.3156C32.915 41.4948 32.4695 41.5452 32.04 41.4599C31.713 41.2895 31.4266 41.0508 31.2 40.7599C31.2 40.7599 29.94 39.6799 29.78 41.0899V41.2899H27.87C27.87 41.2899 27.96 40.1599 27.51 40.0399C27.3458 39.9528 27.1605 39.9132 26.9751 39.9256C26.7896 39.938 26.6112 40.0018 26.46 40.1099C25.9371 40.4627 25.3296 40.6698 24.7 40.7099C24.062 40.7456 23.4279 40.5888 22.88 40.2599C22.5054 40.029 22.1682 39.7424 21.88 39.4099L23.06 38.5999C23.2121 38.8515 23.4262 39.0599 23.6818 39.2052C23.9374 39.3505 24.226 39.4279 24.52 39.4299C25.2152 39.4177 25.8882 39.1829 26.44 38.7599C26.44 38.7599 27 38.2299 28.16 38.8099Z" fill="#666666"/>
<path d="M22.86 47L22.16 46.8801V47.1C22.16 47.28 22.16 47.36 22.03 47.39C21.9125 47.4245 21.7875 47.4245 21.67 47.39C21.6426 47.2718 21.6092 47.1549 21.57 47.0401H21.84H21.89V46.82L21.23 46.71V46.4001L21.89 46.51V46.37L22.03 46.2901L21.55 46.2201V45.92L22.33 46.0401H22.39L22.56 46.2401C22.4448 46.3649 22.3096 46.4696 22.16 46.55L22.86 46.67V47ZM21.48 46H21.24V45.44H21.5C21.4694 45.3606 21.4326 45.2837 21.39 45.21L21.61 45.1C21.6733 45.2049 21.7269 45.3154 21.77 45.43H21.7H21.96C21.96 45.34 21.89 45.2201 21.85 45.1301L22.08 45.05C22.1422 45.1634 22.1892 45.2844 22.22 45.41H22.1H22.31C22.3676 45.3016 22.4145 45.1877 22.45 45.07L22.74 45.21L22.6 45.4501H22.85V46.03H22.58V45.7701L21.48 45.6101V46Z" fill="#D8B25D"/>
<path d="M23.42 46.6101C23.3276 46.4904 23.2237 46.3798 23.11 46.2801L23.26 46.0601C23.3782 46.1471 23.4856 46.2478 23.58 46.3601L23.42 46.6101ZM23.16 47.4301C23.23 47.2501 23.34 46.9601 23.42 46.6801L23.64 46.9101C23.57 47.1701 23.48 47.4301 23.4 47.6701L23.16 47.4301ZM23.56 45.9301C23.48 45.8401 23.33 45.6901 23.22 45.5901L23.37 45.3701C23.4955 45.463 23.6126 45.5667 23.72 45.6801L23.56 45.9301ZM24.84 47.0601C24.84 47.1301 24.84 47.2001 24.84 47.2601H24.96V47.5801H24.81C24.7994 47.6557 24.7792 47.7296 24.75 47.8001C24.7328 47.8323 24.7066 47.8589 24.6747 47.8766C24.6428 47.8944 24.6064 47.9025 24.57 47.9001C24.4872 47.9132 24.4028 47.9132 24.32 47.9001C24.311 47.7908 24.2875 47.6832 24.25 47.5801L24.44 47.6301C24.4502 47.6374 24.4624 47.6414 24.475 47.6414C24.4875 47.6414 24.4998 47.6374 24.51 47.6301L23.71 47.4901C23.71 47.3501 23.76 47.1801 23.78 46.9901H23.61V46.6601H23.81V46.3801L23.56 46.1401C23.7081 45.933 23.8134 45.6984 23.87 45.4501L24.15 45.5801C24.15 45.5801 24.15 45.6701 24.15 45.7201L24.97 45.8301V46.1701L24 46.0001L23.94 46.1201L24.88 46.2501C24.8837 46.3 24.8837 46.3502 24.88 46.4001C24.88 46.5301 24.88 46.6401 24.88 46.7501H25.02V47.0901L24.84 47.0601ZM24.02 47.1201H24.23L24.1 47.0001H24.17H24.04L24.02 47.1201ZM24.08 46.6001H24.26L24.16 46.4501H24.22H24.09L24.08 46.6001ZM24.55 47.2101C24.5555 47.1436 24.5555 47.0767 24.55 47.0101H24.32L24.45 47.2001L24.55 47.2101ZM24.36 46.4701C24.4063 46.5184 24.4466 46.5721 24.48 46.6301H24.62V46.5001L24.36 46.4701Z" fill="#D8B25D"/>
<path d="M25.94 47.1H25.72V47.66C25.72 47.83 25.72 47.93 25.63 47.98C25.5267 48.0174 25.4134 48.0174 25.31 47.98C25.2979 47.8475 25.271 47.7167 25.23 47.59H25.39V47.14H25.22L25.16 46.77H25.39V46.37H25.18V46H25.39V45.52H25.69V46H25.89V46.35H25.69V46.67H25.87L25.94 47.1ZM27.25 46.66C27.2537 46.7133 27.2537 46.7667 27.25 46.82C27.2711 47.287 27.2102 47.7541 27.07 48.2C27.0487 48.233 27.0189 48.2597 26.9837 48.2773C26.9485 48.2949 26.9093 48.3027 26.87 48.3C26.7804 48.3122 26.6896 48.3122 26.6 48.3C26.5936 48.1732 26.5666 48.0482 26.52 47.93L26.72 47.98C26.7325 47.9862 26.7462 47.9894 26.76 47.9894C26.7739 47.9894 26.7876 47.9862 26.8 47.98C26.896 47.6762 26.9399 47.3584 26.93 47.04C26.8395 47.5202 26.5762 47.9506 26.19 48.25C26.1179 48.1595 26.0376 48.0758 25.95 48C26.1274 47.8906 26.2796 47.745 26.3968 47.5726C26.514 47.4003 26.5935 47.2052 26.63 47H26.54C26.461 47.2829 26.3011 47.5366 26.08 47.73C26.0112 47.6429 25.9341 47.5625 25.85 47.49C26.0367 47.3608 26.1769 47.175 26.25 46.96C26.1983 46.9417 26.1418 46.9417 26.09 46.96C26.0577 46.831 26.0177 46.7042 25.97 46.58C26.054 46.5668 26.1331 46.5324 26.2 46.48C26.3003 46.4187 26.3971 46.3519 26.49 46.28L25.98 46.21V45.84L26.84 45.95H26.92L27.15 46.2C26.9813 46.364 26.7971 46.5114 26.6 46.64L27.25 46.66Z" fill="#D8B25D"/>
<path d="M28.44 47.6499C28.44 47.7699 28.44 47.8799 28.38 47.9299C28.3488 47.945 28.3147 47.9528 28.28 47.9528C28.2454 47.9528 28.2112 47.945 28.18 47.9299C28.1765 47.8282 28.1597 47.7273 28.13 47.6299V48.5299H27.84V46.7499H27.78V47.9399H27.53V46.3499H27.84V45.8999H28.13V46.3999H28.44V47.6499ZM28.18 47.6499V46.8499H28.11V47.6799L28.18 47.6499ZM29.54 48.3899C29.54 48.3899 29.54 48.3399 29.54 48.3099V47.9999C29.6079 48.0799 29.6891 48.1476 29.78 48.1999C29.7928 48.3329 29.7928 48.4669 29.78 48.5999C29.7699 48.663 29.7421 48.7219 29.7 48.7699C29.6519 48.7894 29.5981 48.7894 29.55 48.7699H29.42C29.3476 48.7528 29.2837 48.7102 29.24 48.6499C29.2077 48.5321 29.2077 48.4077 29.24 48.2899V47.8099L29.02 47.8799C29.02 47.7299 28.94 47.4999 28.89 47.2799V47.4499C28.9179 47.6741 28.8994 47.9016 28.8358 48.1183C28.7721 48.335 28.6647 48.5364 28.52 48.7099C28.4441 48.6041 28.3569 48.5069 28.26 48.4199C28.378 48.284 28.4658 48.1246 28.5175 47.9522C28.5693 47.7798 28.5837 47.5983 28.56 47.4199V45.9999L29.56 46.1299V48.3099L29.54 48.3899ZM29 46.8799C29.05 47.0399 29.1 47.2299 29.15 47.4099V46.4999H28.8V46.9899L29 46.8799Z" fill="#D8B25D"/>
<defs>
<linearGradient id="paint0_linear_93_7076" x1="25.6899" y1="32.2601" x2="28.0199" y2="32.2601" gradientUnits="userSpaceOnUse">
<stop stop-color="#4D4D4D"/>
<stop offset="0.33" stop-color="#828282"/>
<stop offset="0.63" stop-color="#AAAAAA"/>
<stop offset="0.86" stop-color="#C2C2C2"/>
<stop offset="1" stop-color="#CBCBCB"/>
</linearGradient>
<linearGradient id="paint1_linear_93_7076" x1="25.6899" y1="32.85" x2="28.5699" y2="32.85" gradientUnits="userSpaceOnUse">
<stop stop-color="#4D4D4D"/>
<stop offset="0.33" stop-color="#828282"/>
<stop offset="0.63" stop-color="#AAAAAA"/>
<stop offset="0.86" stop-color="#C2C2C2"/>
<stop offset="1" stop-color="#CBCBCB"/>
</linearGradient>
<linearGradient id="paint2_linear_93_7076" x1="25.73" y1="33.8801" x2="28.76" y2="33.8801" gradientUnits="userSpaceOnUse">
<stop stop-color="#4D4D4D"/>
<stop offset="0.33" stop-color="#828282"/>
<stop offset="0.63" stop-color="#AAAAAA"/>
<stop offset="0.86" stop-color="#C2C2C2"/>
<stop offset="1" stop-color="#CBCBCB"/>
</linearGradient>
<linearGradient id="paint3_linear_93_7076" x1="25.81" y1="34.9301" x2="28.79" y2="34.9301" gradientUnits="userSpaceOnUse">
<stop stop-color="#4D4D4D"/>
<stop offset="0.33" stop-color="#828282"/>
<stop offset="0.63" stop-color="#AAAAAA"/>
<stop offset="0.86" stop-color="#C2C2C2"/>
<stop offset="1" stop-color="#CBCBCB"/>
</linearGradient>
<linearGradient id="paint4_linear_93_7076" x1="25.92" y1="35.99" x2="28.65" y2="35.99" gradientUnits="userSpaceOnUse">
<stop stop-color="#4D4D4D"/>
<stop offset="0.33" stop-color="#828282"/>
<stop offset="0.63" stop-color="#AAAAAA"/>
<stop offset="0.86" stop-color="#C2C2C2"/>
<stop offset="1" stop-color="#CBCBCB"/>
</linearGradient>
<linearGradient id="paint5_linear_93_7076" x1="25.92" y1="36.8001" x2="28.5" y2="36.8001" gradientUnits="userSpaceOnUse">
<stop stop-color="#4D4D4D"/>
<stop offset="0.33" stop-color="#828282"/>
<stop offset="0.63" stop-color="#AAAAAA"/>
<stop offset="0.86" stop-color="#C2C2C2"/>
<stop offset="1" stop-color="#CBCBCB"/>
</linearGradient>
<linearGradient id="paint6_linear_93_7076" x1="25.92" y1="37.51" x2="28.28" y2="37.51" gradientUnits="userSpaceOnUse">
<stop stop-color="#4D4D4D"/>
<stop offset="0.33" stop-color="#828282"/>
<stop offset="0.63" stop-color="#AAAAAA"/>
<stop offset="0.86" stop-color="#C2C2C2"/>
<stop offset="1" stop-color="#CBCBCB"/>
</linearGradient>
<linearGradient id="paint7_linear_93_7076" x1="31.36" y1="7.93991" x2="30.05" y2="9.56991" gradientUnits="userSpaceOnUse">
<stop stop-color="#FFFFCF"/>
<stop offset="1" stop-color="#8B6239"/>
</linearGradient>
<linearGradient id="paint8_linear_93_7076" x1="31.82" y1="26.3699" x2="31.37" y2="30.2299" gradientUnits="userSpaceOnUse">
<stop stop-color="#989898"/>
<stop offset="0.26" stop-color="#878787"/>
<stop offset="0.72" stop-color="#6F6F6F"/>
<stop offset="1" stop-color="#666666"/>
</linearGradient>
</defs>
</svg>
