<svg width="60" height="60" viewBox="0 0 60 60" fill="none" xmlns="http://www.w3.org/2000/svg">
<path d="M29.52 4.58005L29.53 4.80005L29.48 5.63005H29.43L29.35 4.55005L29.48 4.57005L29.52 4.58005Z" fill="#EDEDE6"/>
<path d="M29.52 4.98999L30.25 7.49999L30.23 7.89999L29.49 5.36999L29.52 4.98999Z" fill="#BDB9B6"/>
<path d="M30.23 7.90012V12.2501C29.73 12.9601 29.55 8.41012 29.54 7.02012V6.22012C29.54 5.82012 29.54 5.39012 29.49 5.37012L30.23 7.90012Z" fill="#EDEDE6"/>
<path d="M30.23 11.44V12C29.83 12.3 29.62 8.63995 29.54 6.99995V6.19995C29.79 11.2 30.21 11.39 30.23 11.42V11.44Z" fill="#CFCFC7"/>
<path d="M30.23 10.9401C30.23 10.9401 29.79 11.0501 29.55 5.1001C29.55 5.1001 29.79 9.8101 30.23 10.4801V10.9401Z" fill="#BDB9B6"/>
<path d="M30.23 10.05C30.23 10.05 29.94 10.54 29.66 5.45996C29.728 6.78807 29.9188 8.10704 30.23 9.39996V10.05Z" fill="#E4E3DA"/>
<path d="M30.23 9C30.23 9 30 9.06 29.83 6C29.8834 6.80799 30.0174 7.60863 30.23 8.39V9Z" fill="#CFCFC7"/>
<path d="M34.49 11.21L33.94 11.38C33.6049 10.6815 33.0865 10.087 32.44 9.66004C32.2192 9.49191 31.9519 9.39594 31.6745 9.3852C31.3971 9.37446 31.1232 9.44948 30.89 9.60004L30.4 8.88004L30.75 8.63004L30.87 8.80004L31.2 8.54004L31.39 8.75004L31.73 8.54004L31.87 8.79004L32.46 8.73004L33.01 9.47004L33.21 9.39004L33.57 9.97004H33.76L34.05 10.61L34.17 10.52L34.49 11.21Z" fill="#E4E3DA"/>
<path d="M34.85 14.9999C33.9924 14.7277 33.1701 14.3551 32.4 13.8899C31.5883 13.4093 30.8188 12.8607 30.1 12.2499V9.1499L34.85 11.9099V14.9999Z" fill="#9E9E9F"/>
<path d="M34.1301 12.1199C34.1301 13.1199 33.3901 13.4299 32.4801 12.8999C32.011 12.6116 31.6163 12.217 31.328 11.748C31.0396 11.2789 30.8656 10.7486 30.8201 10.1999C30.8045 10.039 30.8282 9.87663 30.8892 9.72684C30.9502 9.57706 31.0465 9.44429 31.1701 9.33993C31.3728 9.22347 31.6055 9.16986 31.8387 9.18588C32.072 9.2019 32.2952 9.28685 32.4801 9.42993C33.0203 9.76975 33.4618 10.2457 33.7601 10.8099C33.9856 11.2111 34.1124 11.6601 34.1301 12.1199Z" fill="#BDB9B6"/>
<path d="M31.35 9.6499V11.3699C31.1886 11.0606 31.0997 10.7186 31.09 10.3699C31.0785 10.2382 31.0957 10.1056 31.1406 9.98123C31.1855 9.85689 31.257 9.74383 31.35 9.6499Z" fill="#CFCFC7"/>
<path d="M31.77 9.48999V12C31.6049 11.8042 31.4639 11.5893 31.35 11.36V9.64999C31.4669 9.54916 31.6156 9.49254 31.77 9.48999Z" fill="#BDB9B6"/>
<path d="M32.19 9.57001V12.42C32.0379 12.2963 31.8974 12.1591 31.77 12.01V9.49001C31.9139 9.4892 32.0565 9.51638 32.19 9.57001Z" fill="#CFCFC7"/>
<path d="M32.5999 9.78007V12.6901L32.4799 12.6201C32.3751 12.5662 32.2776 12.4989 32.1899 12.4201V9.57007C32.2911 9.60265 32.3883 9.64624 32.4799 9.70007L32.5999 9.78007Z" fill="#BDB9B6"/>
<path d="M33 10.14V12.82C32.8534 12.8016 32.7113 12.7576 32.58 12.69V9.78003C32.7336 9.88315 32.8746 10.004 33 10.14Z" fill="#CFCFC7"/>
<path d="M33.44 10.6699V12.7699C33.3082 12.8282 33.1619 12.8457 33.02 12.8199V10.1399C33.1792 10.3005 33.32 10.4783 33.44 10.6699Z" fill="#BDB9B6"/>
<path d="M33.8599 11.8299V12.1099C33.8574 12.2479 33.8169 12.3826 33.7428 12.499C33.6687 12.6155 33.5639 12.7092 33.4399 12.7699V10.6699C33.6682 11.0187 33.8121 11.4159 33.8599 11.8299Z" fill="#CFCFC7"/>
<path d="M32.48 9.77002L32.87 10.83L33.74 11.47L33.11 11.75L33.26 12.76L32.48 11.87L31.69 11.85L31.84 11.02L31.21 10L32.09 10.38L32.48 9.77002Z" fill="#BCB1B1"/>
<path d="M30.1 7.5V9.64L31.01 10.17V8.06L30.87 7.89L30.86 7.88L30.72 7.71L30.71 7.7L30.59 7.55H30.57H30.55L30.41 7.53H30.4L30.26 7.52H30.25L30.11 7.5H30.1Z" fill="#CFCFC7"/>
<path d="M30.87 7.88989V10.0799L31.01 10.1599V8.05989L30.87 7.88989Z" fill="#BDB9B6"/>
<path d="M30.72 7.70996V9.98996L30.86 10.07V7.87996L30.72 7.70996Z" fill="#CFCFC7"/>
<path d="M30.5699 7.55005V9.90005L30.7099 9.98005V7.70005L30.5899 7.55005H30.5699Z" fill="#BDB9B6"/>
<path d="M30.41 7.53003V9.81003L30.55 9.90003V7.55003L30.41 7.53003Z" fill="#CFCFC7"/>
<path d="M30.26 7.52002V9.73002L30.4 9.81002V7.53002L30.26 7.52002Z" fill="#BDB9B6"/>
<path d="M30.11 7.5V9.64L30.25 9.72V7.52L30.11 7.5Z" fill="#CFCFC7"/>
<path d="M30.58 10.2101L30.92 10.1201L31.06 10.2301L31.03 10.3601L30.58 10.4601V10.2101Z" fill="#BDB9B6"/>
<path d="M30.58 10.4799L30.92 10.3899L31.06 10.4899L31.03 10.6299L30.58 10.7299V10.4799Z" fill="#E0E0DC"/>
<path d="M30.58 10.7499L30.92 10.6499L31.06 10.7599L31.03 10.8899L30.58 10.9899V10.7499Z" fill="#BDB9B6"/>
<path d="M30.58 11.0199L30.92 10.9199L31.06 11.0299L31.03 11.1599L30.58 11.2599V11.0199Z" fill="#E0E0DC"/>
<path d="M30.58 11.2899L30.92 11.1899L31.06 11.2999L31.03 11.4299L30.58 11.5299V11.2899Z" fill="#BDB9B6"/>
<path d="M30.58 11.55L30.92 11.46L31.06 11.57L31.03 11.7L30.58 11.8V11.55Z" fill="#E0E0DC"/>
<path d="M30.58 11.82L30.92 11.73L31.06 11.84L31.03 11.97L30.58 12.07V11.82Z" fill="#BDB9B6"/>
<path d="M30.58 12.09L30.92 11.99L31.06 12.1L31.03 12.23L30.58 12.33V12.09Z" fill="#E0E0DC"/>
<path d="M30.58 12.36L30.92 12.26L31.06 12.37L31.03 12.5L30.58 12.6V12.36Z" fill="#BDB9B6"/>
<path d="M30.5301 10.1899L30.2001 9.69989L30.05 9.63989L30.09 9.80989L30.5301 10.4299V10.1899Z" fill="#BDB9B6"/>
<path d="M30.5301 10.4499L30.2001 9.95991L30.05 9.90991L30.09 10.0799L30.5301 10.6999V10.4499Z" fill="#E0E0DC"/>
<path d="M30.5301 10.7199L30.2001 10.2299L30.05 10.1799L30.09 10.3499L30.5301 10.9599V10.7199Z" fill="#BDB9B6"/>
<path d="M30.5301 10.9899L30.2001 10.4999L30.05 10.4399L30.09 10.6199L30.5301 11.2299V10.9899Z" fill="#E0E0DC"/>
<path d="M30.5301 11.26L30.2001 10.77L30.05 10.71L30.09 10.89L30.5301 11.5V11.26Z" fill="#BDB9B6"/>
<path d="M30.5301 11.53L30.2001 11.04L30.05 10.98L30.09 11.15L30.5301 11.77V11.53Z" fill="#E0E0DC"/>
<path d="M30.5301 11.79L30.2001 11.3L30.05 11.25L30.09 11.42L30.5301 12.04V11.79Z" fill="#BDB9B6"/>
<path d="M30.5301 12.06L30.2001 11.57L30.05 11.52L30.09 11.69L30.5301 12.3V12.06Z" fill="#E0E0DC"/>
<path d="M30.5301 12.33L30.2001 11.84L30.05 11.78L30.09 11.96L30.5301 12.57V12.33Z" fill="#BDB9B6"/>
<path d="M34.88 10.27V12.41L33.96 11.88L33.97 9.78001V9.77001H34.11H34.12H34.26H34.27L34.39 9.76001L34.41 9.79001H34.42L34.56 9.94001L34.57 9.95001L34.72 10.1L34.73 10.11L34.87 10.26L34.88 10.27Z" fill="#CFCFC7"/>
<path d="M34.11 9.77002V11.96L33.97 11.88V9.77002H34.11Z" fill="#BDB9B6"/>
<path d="M34.26 9.77002V12.05L34.12 11.96V9.77002H34.26Z" fill="#CFCFC7"/>
<path d="M34.41 9.79001V12.13L34.27 12.05V9.77001L34.39 9.76001L34.41 9.79001Z" fill="#BDB9B6"/>
<path d="M34.56 9.94004V12.22L34.42 12.14V9.79004L34.56 9.94004Z" fill="#CFCFC7"/>
<path d="M34.7199 10.1V12.31L34.5699 12.23V9.94995L34.7199 10.1Z" fill="#BDB9B6"/>
<path d="M34.87 10.2601V12.4001L34.73 12.3201V10.1101L34.87 10.2601Z" fill="#CFCFC7"/>
<path d="M34.4199 11.47L34.1899 11.55V14.49L34.4199 14.78L34.6299 14.75V11.8L34.4199 11.47Z" fill="#EEEEEF"/>
<path d="M34.45 12.1901L34.7799 12.0901L34.93 12.2001L34.8899 12.3301L34.45 12.4301V12.1901Z" fill="#E0E0DC"/>
<path d="M34.45 12.4601L34.7799 12.3601L34.93 12.4701L34.8899 12.6001L34.45 12.7001V12.4601Z" fill="#BDB9B6"/>
<path d="M34.45 12.7199L34.7799 12.6299L34.93 12.7399L34.8899 12.8699L34.45 12.9699V12.7199Z" fill="#E0E0DC"/>
<path d="M34.45 12.9899L34.7799 12.8999L34.93 13.0099L34.8899 13.1399L34.45 13.2399V12.9899Z" fill="#BDB9B6"/>
<path d="M34.45 13.2599L34.7799 13.1599L34.93 13.2699L34.8899 13.3999L34.45 13.5099V13.2599Z" fill="#E0E0DC"/>
<path d="M34.45 13.5299L34.7799 13.4299L34.93 13.5399L34.8899 13.6699L34.45 13.7699V13.5299Z" fill="#BDB9B6"/>
<path d="M34.45 13.8L34.7799 13.7L34.93 13.81L34.8899 13.94L34.45 14.04V13.8Z" fill="#E0E0DC"/>
<path d="M34.45 14.06L34.7799 13.97L34.93 14.08L34.8899 14.21L34.45 14.31V14.06Z" fill="#BDB9B6"/>
<path d="M34.45 14.33L34.7799 14.24L34.93 14.35L34.8899 14.48L34.45 14.58V14.33Z" fill="#E0E0DC"/>
<path d="M34.45 14.6L34.7799 14.51L34.93 14.61L34.8899 14.74L34.45 14.84V14.6Z" fill="#BDB9B6"/>
<path d="M34.4 12.1601L34.06 11.6701L33.92 11.6101L33.95 11.7901L34.4 12.4001V12.1601Z" fill="#E0E0DC"/>
<path d="M34.4 12.4299L34.06 11.9399L33.92 11.8799L33.95 12.0599L34.4 12.6699V12.4299Z" fill="#BDB9B6"/>
<path d="M34.4 12.6999L34.06 12.2099L33.92 12.1499L33.95 12.3299L34.4 12.9399V12.6999Z" fill="#E0E0DC"/>
<path d="M34.4 12.9599L34.06 12.4799L33.92 12.4199L33.95 12.5899L34.4 13.2099V12.9599Z" fill="#BDB9B6"/>
<path d="M34.4 13.2299L34.06 12.7399L33.92 12.6899L33.95 12.8599L34.4 13.4799V13.2299Z" fill="#E0E0DC"/>
<path d="M34.4 13.5L34.06 13.01L33.92 12.95L33.95 13.13L34.4 13.74V13.5Z" fill="#BDB9B6"/>
<path d="M34.4 13.77L34.06 13.28L33.92 13.22L33.95 13.4L34.4 14.01V13.77Z" fill="#E0E0DC"/>
<path d="M34.4 14.04L34.06 13.55L33.92 13.49L33.95 13.67L34.4 14.28V14.04Z" fill="#BDB9B6"/>
<path d="M34.4 14.3L34.06 13.82L33.92 13.76L33.95 13.93L34.4 14.55V14.3Z" fill="#E0E0DC"/>
<path d="M34.4 14.57L34.06 14.08L33.92 14.03L33.95 14.2L34.4 14.82V14.57Z" fill="#BDB9B6"/>
<path d="M25.71 11.19L26.26 11.36C26.6047 10.6648 27.1253 10.0719 27.77 9.64003C27.993 9.47607 28.2605 9.38353 28.5372 9.3746C28.8139 9.36568 29.0868 9.44078 29.32 9.59003L29.8 8.86003L29.45 8.61003L29.34 8.79003L29 8.53003L28.81 8.73003L28.47 8.53003L28.32 8.78003L27.73 8.71003L27.18 9.45003L27 9.37003L26.63 9.96003H26.44L26.16 10.6L26 10.5L25.71 11.19Z" fill="#E4E3DA"/>
<path d="M25.35 14.9999C26.2066 14.7209 27.0285 14.3451 27.8 13.8799C28.6133 13.4018 29.3829 12.853 30.1 12.2399V9.12988L25.35 11.8899V14.9999Z" fill="#9E9E9F"/>
<path d="M26.08 12.0999C26.08 13.0999 26.82 13.4099 27.73 12.8799C28.1964 12.5921 28.5887 12.1987 28.8753 11.7314C29.1619 11.2642 29.3348 10.7362 29.38 10.1899C29.3937 10.0248 29.3661 9.85881 29.2998 9.70695C29.2335 9.55509 29.1304 9.42209 29 9.31992C28.7992 9.203 28.5679 9.14908 28.3361 9.16512C28.1043 9.18117 27.8827 9.26645 27.7 9.40992C27.1572 9.74675 26.7151 10.2234 26.42 10.7899C26.2059 11.1941 26.0895 11.6427 26.08 12.0999Z" fill="#BDB9B6"/>
<path d="M28.85 9.62988V11.3499C29.0142 11.0412 29.1065 10.6993 29.12 10.3499C29.1303 10.2174 29.1114 10.0843 29.0648 9.95996C29.0181 9.83558 28.9448 9.72291 28.85 9.62988Z" fill="#CFCFC7"/>
<path d="M28.4399 9.47998V12C28.6032 11.8049 28.741 11.5898 28.8499 11.36V9.62998C28.7351 9.53347 28.59 9.48038 28.4399 9.47998Z" fill="#BDB9B6"/>
<path d="M28 9.55004V12.41C28.1546 12.2854 28.2954 12.1446 28.42 11.99V9.48004C28.2765 9.47058 28.1327 9.49454 28 9.55004Z" fill="#CFCFC7"/>
<path d="M27.6 9.76005V12.68L27.73 12.61L28.02 12.41V9.55005C27.9205 9.58687 27.8236 9.6303 27.73 9.68005L27.6 9.76005Z" fill="#BDB9B6"/>
<path d="M27.1801 10.12V12.81C27.3256 12.787 27.467 12.7432 27.6001 12.68V9.76001C27.4464 9.86313 27.3055 9.98396 27.1801 10.12Z" fill="#CFCFC7"/>
<path d="M26.76 10.6501V12.7601C26.8933 12.8128 27.038 12.83 27.18 12.8101V10.1201C27.0238 10.2833 26.8832 10.4607 26.76 10.6501Z" fill="#BDB9B6"/>
<path d="M26.35 11.8099V12.0899C26.3497 12.2286 26.3879 12.3646 26.4603 12.4829C26.5326 12.6011 26.6364 12.697 26.76 12.7599V10.6499C26.5345 10.9992 26.3941 11.3965 26.35 11.8099Z" fill="#E0E0DC"/>
<path d="M27.73 9.75L27.34 10.81L26.46 11.46L27.1 11.74L26.95 12.74L27.73 11.85L28.51 11.83L28.36 11L28.99 9.99L28.12 10.36L27.73 9.75Z" fill="#BCB1B1"/>
<path d="M26.5 13C26.6719 13.1314 26.8766 13.2131 27.0918 13.236C27.3069 13.259 27.5243 13.2223 27.72 13.13V13.25C27.72 13.25 26.78 13.9 26.31 13.25C26.31 13.21 26.21 13 26.5 13Z" fill="#CFCFC7"/>
<path d="M26.3201 13.23C26.5347 13.3473 26.7754 13.4087 27.0201 13.4087C27.2647 13.4087 27.5054 13.3473 27.7201 13.23V13.35C27.7201 13.35 26.6501 14.08 26.1101 13.48C26.1101 13.51 26.0001 13.31 26.3201 13.23Z" fill="#BDB9B6"/>
<path d="M28.94 11.5299C28.6455 12.1258 28.23 12.6537 27.72 13.0799V13.1999C28.3663 12.8431 28.8657 12.2693 29.13 11.5799C29.13 11.5799 29.23 11.2499 28.94 11.5299Z" fill="#CFCFC7"/>
<path d="M29.12 11.61C28.767 12.2472 28.2911 12.808 27.72 13.26V13.38C28.4286 12.9914 28.9932 12.3847 29.33 11.65C29.33 11.65 29.44 11.31 29.12 11.61Z" fill="#BDB9B6"/>
<path d="M30.1099 7.47998V9.61998L29.1899 10.15V8.03998H29.1999L29.3399 7.86998L29.3499 7.85998L29.4899 7.68998L29.4999 7.67998L29.6199 7.53998L29.6399 7.52998H29.6499L29.7899 7.51998H29.7999L29.9399 7.49998H29.9499L30.0999 7.47998H30.1099Z" fill="#CFCFC7"/>
<path d="M29.34 7.87012V10.0601L29.2 10.1401V8.04012L29.34 7.87012Z" fill="#BDB9B6"/>
<path d="M29.49 7.68994V9.96994L29.35 10.0499V7.85994L29.49 7.68994Z" fill="#CFCFC7"/>
<path d="M29.64 7.53003V9.88003L29.5 9.97003V7.68003L29.62 7.54003L29.64 7.53003Z" fill="#BDB9B6"/>
<path d="M29.79 7.52002V9.80002L29.65 9.88002V7.53002L29.79 7.52002Z" fill="#CFCFC7"/>
<path d="M29.9401 7.5V9.71L29.8 9.79V7.52L29.9401 7.5Z" fill="#BDB9B6"/>
<path d="M30.1 7.47998V9.61998L29.95 9.69998V7.49998L30.1 7.47998Z" fill="#CFCFC7"/>
<path d="M29.62 10.2001L29.28 10.1001L29.14 10.2101L29.18 10.3401L29.62 10.4401V10.2001Z" fill="#BDB9B6"/>
<path d="M29.62 10.4601L29.28 10.3701L29.14 10.4801L29.18 10.6101L29.62 10.7101V10.4601Z" fill="#E0E0DC"/>
<path d="M29.62 10.7299L29.28 10.6399L29.14 10.7399L29.18 10.8799L29.62 10.9799V10.7299Z" fill="#BDB9B6"/>
<path d="M29.62 10.9999L29.28 10.8999L29.14 11.0099L29.18 11.1399L29.62 11.2399V10.9999Z" fill="#E0E0DC"/>
<path d="M29.62 11.2699L29.28 11.1699L29.14 11.2799L29.18 11.4099L29.62 11.5099V11.2699Z" fill="#BDB9B6"/>
<path d="M29.62 11.5399L29.28 11.4399L29.14 11.5499L29.18 11.6799L29.62 11.7799V11.5399Z" fill="#E0E0DC"/>
<path d="M29.62 11.8L29.28 11.71L29.14 11.82L29.18 11.95L29.62 12.05V11.8Z" fill="#BDB9B6"/>
<path d="M29.62 12.07L29.28 11.98L29.14 12.09L29.18 12.22L29.62 12.32V12.07Z" fill="#E0E0DC"/>
<path d="M29.62 12.34L29.28 12.24L29.14 12.35L29.18 12.48L29.62 12.58V12.34Z" fill="#BDB9B6"/>
<path d="M29.67 10.4399L30.01 9.94989L30.15 9.88989L30.11 10.0599L29.67 10.6799V10.4399Z" fill="#E0E0DC"/>
<path d="M29.67 10.6999L30.01 10.2199L30.15 10.1599L30.11 10.3299L29.67 10.9499V10.6999Z" fill="#BDB9B6"/>
<path d="M29.67 10.9699L30.01 10.4799L30.15 10.4299L30.11 10.5999L29.67 11.2199V10.9699Z" fill="#E0E0DC"/>
<path d="M29.67 11.2399L30.01 10.7499L30.15 10.6899L30.11 10.8699L29.67 11.4799V11.2399Z" fill="#BDB9B6"/>
<path d="M29.67 11.51L30.01 11.02L30.15 10.96L30.11 11.14L29.67 11.75V11.51Z" fill="#E0E0DC"/>
<path d="M29.67 11.78L30.01 11.29L30.15 11.23L30.11 11.4L29.67 12.02V11.78Z" fill="#BDB9B6"/>
<path d="M29.67 12.04L30.01 11.56L30.15 11.5L30.11 11.67L29.67 12.29V12.04Z" fill="#E0E0DC"/>
<path d="M29.67 12.31L30.01 11.82L30.15 11.77L30.11 11.94L29.67 12.56V12.31Z" fill="#BDB9B6"/>
<path d="M25.33 10.26V12.39L26.24 11.86V9.76L26.1 9.75H26.09H25.94H25.93H25.81L25.79 9.77L25.78 9.78L25.64 9.93L25.63 9.94L25.49 10.09L25.48 10.1L25.34 10.24L25.33 10.26Z" fill="#CFCFC7"/>
<path d="M26.1 9.75V11.94L26.24 11.86V9.76L26.1 9.75Z" fill="#BDB9B6"/>
<path d="M25.9399 9.75V12.03L26.0899 11.95V9.75H25.9399Z" fill="#CFCFC7"/>
<path d="M25.79 9.77V12.12L25.93 12.04V9.75H25.81L25.79 9.77Z" fill="#BDB9B6"/>
<path d="M25.64 9.93003V12.21L25.78 12.12V9.78003L25.64 9.93003Z" fill="#CFCFC7"/>
<path d="M25.49 10.0899V12.2899L25.63 12.2099V9.93994L25.49 10.0899Z" fill="#BDB9B6"/>
<path d="M25.34 10.2401V12.3801L25.48 12.3001V10.1001L25.34 10.2401Z" fill="#CFCFC7"/>
<path d="M25.7899 11.45L26.0199 11.54V14.47L25.7899 14.76L25.5699 14.73V11.79L25.7899 11.45Z" fill="#EEEEEF"/>
<path d="M25.76 12.1701L25.42 12.0801L25.28 12.1801L25.31 12.3201L25.76 12.4101V12.1701Z" fill="#E0E0DC"/>
<path d="M25.76 12.4401L25.42 12.3401L25.28 12.4501L25.31 12.5801L25.76 12.6801V12.4401Z" fill="#BDB9B6"/>
<path d="M25.76 12.7101L25.42 12.6101L25.28 12.7201L25.31 12.8501L25.76 12.9501V12.7101Z" fill="#E0E0DC"/>
<path d="M25.76 12.9699L25.42 12.8799L25.28 12.9899L25.31 13.1199L25.76 13.2199V12.9699Z" fill="#BDB9B6"/>
<path d="M25.76 13.2399L25.42 13.1499L25.28 13.2599L25.31 13.3899L25.76 13.4899V13.2399Z" fill="#E0E0DC"/>
<path d="M25.76 13.5099L25.42 13.4099L25.28 13.5199L25.31 13.6599L25.76 13.7599V13.5099Z" fill="#BDB9B6"/>
<path d="M25.76 13.7799L25.42 13.6799L25.28 13.7899L25.31 13.9199L25.76 14.0199V13.7799Z" fill="#E0E0DC"/>
<path d="M25.76 14.05L25.42 13.95L25.28 14.06L25.31 14.19L25.76 14.29V14.05Z" fill="#BDB9B6"/>
<path d="M25.76 14.31L25.42 14.22L25.28 14.33L25.31 14.46L25.76 14.56V14.31Z" fill="#E0E0DC"/>
<path d="M25.76 14.58L25.42 14.49L25.28 14.6L25.31 14.73L25.76 14.83V14.58Z" fill="#BDB9B6"/>
<path d="M25.8101 12.1401L26.1401 11.6501L26.2901 11.6001L26.2501 11.7701L25.8101 12.3901V12.1401Z" fill="#E0E0DC"/>
<path d="M25.8101 12.4101L26.1401 11.9201L26.2901 11.8701L26.2501 12.0401L25.8101 12.6501V12.4101Z" fill="#BDB9B6"/>
<path d="M25.8101 12.6799L26.1401 12.1899L26.2901 12.1299L26.2501 12.3099L25.8101 12.9199V12.6799Z" fill="#E0E0DC"/>
<path d="M25.8101 12.9499L26.1401 12.4599L26.2901 12.3999L26.2501 12.5799L25.8101 13.1899V12.9499Z" fill="#BDB9B6"/>
<path d="M25.8101 13.2099L26.1401 12.7299L26.2901 12.6699L26.2501 12.8399L25.8101 13.4599V13.2099Z" fill="#E0E0DC"/>
<path d="M25.8101 13.4799L26.1401 12.9899L26.2901 12.9399L26.2501 13.1099L25.8101 13.7299V13.4799Z" fill="#BDB9B6"/>
<path d="M25.8101 13.75L26.1401 13.26L26.2901 13.21L26.2501 13.38L25.8101 13.99V13.75Z" fill="#E0E0DC"/>
<path d="M25.8101 14.02L26.1401 13.53L26.2901 13.47L26.2501 13.65L25.8101 14.26V14.02Z" fill="#BDB9B6"/>
<path d="M25.8101 14.29L26.1401 13.8L26.2901 13.74L26.2501 13.92L25.8101 14.53V14.29Z" fill="#E0E0DC"/>
<path d="M25.8101 14.55L26.1401 14.07L26.2901 14.01L26.2501 14.18L25.8101 14.8V14.55Z" fill="#BDB9B6"/>
<path d="M30.22 19.54V52.54L27.72 51.0999L27.66 51.06L24.54 49.2599L24.47 49.22L22.27 47.9399V14.95L24.47 16.22L24.6 16.3L27.66 18.06L27.8 18.14L30.22 19.54Z" fill="#F1F0ED"/>
<path d="M38.17 14.95L30.22 19.54V52.57L38.16 47.97L38.17 14.95Z" fill="#CFCFC7"/>
<path d="M30.22 31.1501V31.3101L27.8 29.9101L27.66 29.8401L24.6 28.0701L24.47 27.9901L22.27 26.7201V26.5601L24.47 27.8301L24.6 27.9101L27.66 29.6801L27.8 29.7601L30.22 31.1501Z" fill="#CFCFC7"/>
<path d="M30.22 34.83V34.98L27.8 33.59L27.66 33.51L24.6 31.74L24.47 31.66L22.27 30.39V30.23L24.47 31.5L24.6 31.58L27.66 33.35L27.8 33.43L30.22 34.83Z" fill="#CFCFC7"/>
<path d="M30.22 38.4999V38.6599L27.8 37.2599L27.66 37.1799L24.6 35.4099L24.47 35.3399L22.27 34.0599V33.9099L24.47 35.1799L24.6 35.2599L27.66 37.0199L27.8 37.0999L30.22 38.4999Z" fill="#CFCFC7"/>
<path d="M30.22 42.1701V42.3301L27.8 40.9301L27.66 40.8501L24.6 39.0901L24.47 39.0101L22.27 37.7401V37.5801L24.47 38.8501L24.6 38.9301L27.66 40.6901L27.8 40.7701L30.22 42.1701Z" fill="#CFCFC7"/>
<path d="M30.22 45.84V46L27.8 44.6L27.66 44.52L24.6 42.76L24.47 42.68L22.27 41.41V41.25L24.47 42.52L24.6 42.6L27.66 44.37L27.8 44.45L30.22 45.84Z" fill="#CFCFC7"/>
<path d="M30.22 49.5099V49.6699L27.8 48.2699L27.66 48.1999L24.6 46.4299L24.47 46.3499L22.27 45.0799V44.9199L24.47 46.1899L24.6 46.2699L27.66 48.0399L27.8 48.1199L30.22 49.5099Z" fill="#CFCFC7"/>
<path d="M24.6 16.3V49.26H24.47V16.22L24.6 16.3Z" fill="#CFCFC7"/>
<path d="M27.8 18.1401V51.1001H27.66V18.0601L27.8 18.1401Z" fill="#CFCFC7"/>
<path d="M30.22 31.1501V31.3001L32.64 29.9101L32.77 29.8301L35.83 28.0601L35.97 27.9801L38.17 26.7101V26.5601L35.97 27.8301L35.83 27.9101L32.77 29.6701L32.64 29.7501L30.22 31.1501Z" fill="#B2ACAA"/>
<path d="M30.22 34.82V34.98L32.64 33.58L32.77 33.5L35.83 31.73L35.97 31.66L38.17 30.39V30.23L35.97 31.5L35.83 31.58L32.77 33.34L32.64 33.42L30.22 34.82Z" fill="#B2ACAA"/>
<path d="M30.22 38.4899V38.6499L32.64 37.2499L32.77 37.1699L35.83 35.4099L35.97 35.3299L38.17 34.0599V33.8999L35.97 35.1699L35.83 35.2499L32.77 37.0199L32.64 37.0899L30.22 38.4899Z" fill="#B2ACAA"/>
<path d="M30.22 42.1601V42.3201L32.64 40.9201L32.77 40.8401L35.83 39.0801L35.97 39.0001L38.17 37.7301V37.5701L35.97 38.8401L35.83 38.9201L32.77 40.6901L32.64 40.7701L30.22 42.1601Z" fill="#B2ACAA"/>
<path d="M30.22 45.84V45.99L32.64 44.6L32.77 44.52L35.83 42.75L35.97 42.67L38.17 41.4V41.24L35.97 42.52L35.83 42.59L32.77 44.36L32.64 44.44L30.22 45.84Z" fill="#B2ACAA"/>
<path d="M30.22 49.5099V49.6599L32.64 48.2699L32.77 48.1899L35.83 46.4199L35.97 46.3399L38.17 45.0799V44.9199L35.97 46.1899L35.83 46.2699L32.77 48.0299L32.64 48.1099L30.22 49.5099Z" fill="#B2ACAA"/>
<path d="M35.83 16.29V49.25H35.97V16.21L35.83 16.29Z" fill="#B2ACAA"/>
<path d="M32.64 18.13V51.09H32.77V18.05L32.64 18.13Z" fill="#B2ACAA"/>
<path d="M24.54 23.55V49.26L27.71 51.09V25.39L24.54 23.55Z" fill="#A47E77"/>
<path d="M22.27 15.1499L20.2 16.3299L30.2299 22.2299V20.9899L22.27 16.4199V15.1499Z" fill="#F7F7F7"/>
<path d="M30.2299 22.2301V23.5501L25.91 20.9601L25.77 20.8801L22.7099 19.1001L22.58 19.0201L20.2 17.6301V16.3301L22.58 17.7101L22.7099 17.7901L25.77 19.5701L25.91 19.6501L30.2299 22.2301Z" fill="#E4E3DA"/>
<path d="M22.2701 19.47L20.3 20.64L30.23 26.51V25.27L22.2701 20.68V19.47Z" fill="#F7F7F7"/>
<path d="M30.23 26.5099V27.8299L26.01 25.2699L25.8701 25.1999L22.81 23.4099L22.68 23.3299L20.3 21.9499V20.6399L22.68 22.0199L22.81 22.0999L25.8701 23.8799L26.01 23.9599L30.23 26.5099Z" fill="#E4E3DA"/>
<path d="M38.17 15.77L39.8 16.68L30.22 22.25V21L38.17 16.52V15.77Z" fill="#F1F0ED"/>
<path d="M39.8 17.9899V16.6799L30.22 22.2499V23.5699L39.8 17.9899Z" fill="#E4E3DA"/>
<path d="M38.17 20.04L39.76 20.98L30.22 26.52V25.28L38.17 20.79V20.04Z" fill="#F1F0ED"/>
<path d="M39.76 22.28V20.98L30.22 26.52V27.84L39.76 22.28Z" fill="#E4E3DA"/>
<path d="M22.21 44.8999L21.9 45.1299L30.21 50.0699V49.4999L22.21 44.8999Z" fill="#BDB9B6"/>
<path d="M38.16 44.8899L30.21 49.4999V50.0699L38.6 45.1799L38.16 44.8899Z" fill="#989391"/>
<path d="M22.21 45.8899L21.9 46.1199L30.21 51.0499V50.4899L22.21 45.8899Z" fill="#B2ACAA"/>
<path d="M38.16 45.8799L30.21 50.4899V51.0499L38.6 46.1699L38.16 45.8799Z" fill="#888888"/>
<path d="M22.21 46.8799L21.9 47.0999L30.21 52.0399V51.4799L22.21 46.8799Z" fill="#A19B9A"/>
<path d="M38.16 46.8799L30.21 51.4799V52.0399L38.6 47.1499L38.16 46.8799Z" fill="#717071"/>
<path d="M30.21 50.0699V50.8799L29.49 50.4599L29.45 50.4399L28.13 49.6599L28.08 49.6299L26.76 48.8499L26.71 48.8199L25.39 48.0399L25.35 48.0199L24.03 47.2399L23.98 47.2099L22.66 46.4299L22.62 46.3999L21.9 45.9799V45.1299L22.62 45.5599L22.66 45.5899L23.98 46.3699L24.03 46.3999L25.35 47.1799L25.39 47.2099L26.71 47.9899L26.76 48.0199L28.08 48.7999L28.13 48.8299L29.45 49.6199L29.49 49.6399L30.21 50.0699Z" fill="#DBDCDC"/>
<path d="M38.6 45.1799V46.0199L37.93 46.4199L37.88 46.4399L36.56 47.2099L36.52 47.2299L35.19 47.9999L35.15 48.0199L33.83 48.7899L33.78 48.8099L32.46 49.5799L32.42 49.5999L31.1 50.3699L31.05 50.3999L30.21 50.8799V50.0699L31.05 49.5799L31.1 49.5499L32.42 48.7799L32.46 48.7599L33.78 47.9899L33.83 47.9599L35.15 47.1899L35.19 47.1699L36.52 46.3999L36.56 46.3699L37.88 45.5999L37.93 45.5799L38.6 45.1799Z" fill="#B4B4B5"/>
<path d="M30.21 51.0501V51.8701L28.77 51.0201L28.72 50.9901L27.4 50.2201L27.36 50.1901L26.04 49.4101L25.99 49.3801L24.67 48.6001L24.62 48.5801L23.3 47.8001L23.26 47.7701L21.94 46.9901L21.9 46.9701V46.1201L21.94 46.1401L23.26 46.9301L23.3 46.9501L24.62 47.7401L24.67 47.7701L25.99 48.5501L26.04 48.5801L27.36 49.3601L27.4 49.3901L28.72 50.1701L28.77 50.2001L30.21 51.0501Z" fill="#DBDCDC"/>
<path d="M38.6 46.1699V47.0099L37.32 47.7599L37.27 47.7799L35.95 48.5499L35.91 48.5699L34.59 49.3399L34.54 49.3599L33.22 50.1299L33.17 50.1499L31.85 50.9199L31.81 50.9399L30.21 51.8699V51.0499L31.81 50.1199L31.85 50.0999L33.17 49.3299L33.22 49.2999L34.54 48.5299L34.59 48.5099L35.91 47.7399L35.95 47.7099L37.27 46.9399L37.32 46.9199L38.6 46.1699Z" fill="#B4B4B5"/>
<path d="M30.21 52.0301V52.8401L29.49 52.4301L29.45 52.4001L28.13 51.6301L28.08 51.6101L26.76 50.8401L26.71 50.8101L25.39 50.0501L25.35 50.0201L24.03 49.2501L23.98 49.2201L22.66 48.4601L22.62 48.4301L21.9 48.0201V47.1001L22.62 47.5201L22.66 47.5501L23.98 48.3301L24.03 48.3601L25.35 49.1401L25.39 49.1701L26.71 49.9501L26.76 49.9801L28.08 50.7701L28.13 50.7901L29.45 51.5801L29.49 51.6101L30.21 52.0301Z" fill="#DBDCDC"/>
<path d="M38.6 47.1399V47.9899L37.93 48.3799L37.88 48.4099L36.56 49.1699L36.52 49.1999L35.19 49.9599L35.15 49.9899L33.83 50.7499L33.78 50.7799L32.46 51.5399L32.42 51.5699L31.1 52.3299L31.05 52.3599L30.21 52.8399V52.0299L31.05 51.5399L31.1 51.5099L32.42 50.7399L32.46 50.7199L33.78 49.9499L33.83 49.9199L35.15 49.1599L35.19 49.1299L36.52 48.3599L36.56 48.3299L37.88 47.5599L37.93 47.5399L38.6 47.1399Z" fill="#B4B4B5"/>
<path d="M22.27 14.9501L30.22 19.5401L38.17 14.9501L30.22 10.3601L22.27 14.9501Z" fill="#F7F7F7"/>
<path d="M22.11 7.75L22.2 7.98L21.89 8.85L21.68 8.86L21.22 7.81L21.89 7.77L22.11 7.75Z" fill="#E0E0DC"/>
<path d="M22.13 8.16992L26.03 10.3599L25.91 10.7799L22 8.56992L22.13 8.16992Z" fill="#BDB9B6"/>
<path d="M25.91 10.7801V15.2001C23.26 16.2001 22.32 11.6301 22.26 10.2001C22.26 9.93007 22.26 9.73007 22.26 9.66007C22.2648 9.57013 22.2648 9.48 22.26 9.39007C22.1904 9.11162 22.1035 8.83776 22 8.57007L25.91 10.7801Z" fill="#EDEDE6"/>
<path d="M25.91 14.38V15C23.78 15.5 22.65 11.89 22.26 10.29C22.26 10.02 22.26 9.81998 22.26 9.74998C22.2649 9.66005 22.2649 9.56992 22.26 9.47998C23.61 14.43 25.84 14.42 25.96 14.48L25.91 14.38Z" fill="#CFCFC7"/>
<path d="M25.91 13.87C25.91 13.87 23.55 14.2 22.3 8.27002C22.3 8.27002 23.5701 12.94 25.93 13.4L25.91 13.87Z" fill="#BDB9B6"/>
<path d="M25.91 13.0001C25.91 13.0001 24.38 13.6301 22.86 8.61011C22.86 8.61011 24.28 12.0401 25.86 12.3401L25.91 13.0001Z" fill="#E4E3DA"/>
<path d="M25.9 11.9401C25.9 11.9401 24.69 12.1101 23.78 9.1001C23.78 9.1001 25.1 11.4801 25.92 11.3201L25.9 11.9401Z" fill="#CFCFC7"/>
<path d="M38.86 7.80005L38.72 8.00005L38.95 8.69005L39.16 8.74005L39.72 8.03005L39.07 7.85005L38.86 7.80005Z" fill="#EDEDE6"/>
<path d="M38.79 8.16992L34.89 10.3599L35 10.7799L38.92 8.56992L38.79 8.16992Z" fill="#BCB1B1"/>
<path d="M35 10.78V15.2C37.65 16.2 38.59 11.63 38.65 10.2C38.65 9.93004 38.65 9.73004 38.65 9.66004C38.6451 9.57011 38.6451 9.47997 38.65 9.39004C38.7031 9.10186 38.7766 8.81781 38.87 8.54004L35 10.78Z" fill="#E0E0DC"/>
<path d="M35 14.38V15C37.13 15.5 38.26 11.89 38.65 10.29C38.65 10.02 38.65 9.81998 38.65 9.74998C38.6451 9.66005 38.6451 9.56991 38.65 9.47998C37.3 14.43 35.08 14.42 34.96 14.48L35 14.38Z" fill="#BDB9B6"/>
<path d="M35 13.87C35 13.87 37.36 14.2 38.61 8.27002C38.61 8.27002 37.34 12.94 34.99 13.4L35 13.87Z" fill="#BCB1B1"/>
<path d="M35 13.0001C35 13.0001 36.53 13.6301 38.06 8.61011C38.06 8.61011 36.63 12.0401 35.06 12.3401L35 13.0001Z" fill="#CFCFC7"/>
<path d="M35 11.9401C35 11.9401 36.2 12.1101 37.12 9.1001C37.12 9.1001 35.79 11.4801 34.97 11.3201L35 11.9401Z" fill="#BDB9B6"/>
<path d="M30.34 17.6899L30.35 12.9699L30.53 12.8999V17.5899L30.34 17.6899Z" fill="#BCB1B1"/>
<path d="M26.3199 11.7999L30.0999 13.9799L33.8699 11.7999L30.0999 9.62988L26.3199 11.7999Z" fill="#E4E3DA"/>
<path d="M24.47 16.2201L24.6 16.3001L32.51 11.6901L32.39 11.6101L24.47 16.2201Z" fill="#EDEDE6"/>
<path d="M27.66 18.06L27.8 18.14L35.71 13.54L35.59 13.47L27.66 18.06Z" fill="#EDEDE6"/>
<path d="M35.9701 16.2099L35.8301 16.2899L27.9301 11.6999L28.0501 11.6299L35.9701 16.2099Z" fill="#CFCFC7"/>
<path d="M32.77 18.05L32.64 18.13L24.73 13.56L24.85 13.49L32.77 18.05Z" fill="#CFCFC7"/>
<path d="M26.71 11.56V10.9L26.91 10.8C26.91 10.99 26.91 11.09 26.91 11.28C26.9816 11.3423 27.0626 11.3929 27.15 11.43C27.1965 11.442 27.2454 11.4409 27.2913 11.4268C27.3372 11.4126 27.3782 11.3861 27.41 11.35H27.46C27.5128 11.4053 27.5734 11.4525 27.64 11.49C27.69 11.49 27.73 11.49 27.92 11.49H28.19L28.35 11.73C28.56 12.06 28.62 12.19 28.74 12.2C28.7923 12.1974 28.8419 12.1761 28.88 12.14L29.06 12.48C29.15 12.65 29.2 12.73 29.28 12.74C29.3159 12.7503 29.354 12.7503 29.39 12.74L29.5 13.02V13.63L26.71 11.56Z" fill="#BCB1B1"/>
<path d="M30 13.9301L29.48 14.1201C29.1666 13.4452 28.6758 12.868 28.06 12.4501C27.8486 12.2942 27.5927 12.2101 27.33 12.2101C27.0673 12.2101 26.8115 12.2942 26.6 12.4501L26.14 11.7401L26.47 11.4801L26.58 11.6501L26.89 11.3801L27.07 11.5801L27.39 11.3601L27.53 11.6101L28.08 11.5201L28.6 12.2401L28.78 12.1501L29.13 12.7301H29.31L29.58 13.3601L29.69 13.2601L30 13.9301Z" fill="#E4E3DA"/>
<path d="M30.33 17.69C29.5247 17.4535 28.7521 17.1176 28.03 16.69C27.2623 16.2309 26.5362 15.7056 25.86 15.12V12L30.33 14.6V17.69Z" fill="#9E9E9F"/>
<path d="M29.65 14.86C29.65 15.86 28.95 16.19 28.1 15.69C27.6513 15.4029 27.2764 15.0144 27.0054 14.5558C26.7345 14.0973 26.575 13.5815 26.54 13.05C26.5266 12.8895 26.5494 12.7281 26.6065 12.5776C26.6636 12.4271 26.7536 12.2912 26.87 12.18C27.0457 12.0429 27.2621 11.9685 27.485 11.9685C27.7078 11.9685 27.9242 12.0429 28.1 12.18C28.6174 12.5057 29.0331 12.9699 29.3 13.52C29.5239 13.9315 29.644 14.3915 29.65 14.86Z" fill="#F7F7F7"/>
<path d="M27 12.48V14.2C26.8434 13.8894 26.758 13.5478 26.75 13.2C26.735 12.9364 26.8249 12.6776 27 12.48Z" fill="#E0E0DC"/>
<path d="M27.43 12.3101V14.8301C27.2617 14.6383 27.1173 14.4267 27 14.2001V12.4801C27.1155 12.3692 27.2699 12.3081 27.43 12.3101Z" fill="#CFCFC7"/>
<path d="M27.8201 12.3701V15.2301C27.6779 15.1092 27.5473 14.9753 27.4301 14.8301V12.3101C27.5628 12.302 27.6958 12.3224 27.8201 12.3701Z" fill="#EDEDE6"/>
<path d="M28.2199 12.5701V15.4801L28.0999 15.4201L27.8199 15.2301V12.3701L28.0999 12.4901L28.2199 12.5701Z" fill="#CFCFC7"/>
<path d="M28.61 12.9101V15.6001C28.4746 15.5804 28.343 15.5399 28.22 15.4801V12.5701C28.3637 12.6666 28.4947 12.7809 28.61 12.9101Z" fill="#EDEDE6"/>
<path d="M29 13.4299V15.5299C28.8794 15.5903 28.744 15.6146 28.61 15.5999V12.9099C28.7595 13.0677 28.8904 13.2422 29 13.4299Z" fill="#CFCFC7"/>
<path d="M29.4 14.5699V14.8499C29.3988 14.9884 29.3612 15.1241 29.291 15.2434C29.2208 15.3628 29.1204 15.4616 29 15.5299V13.4299C29.2177 13.7748 29.3545 14.1646 29.4 14.5699Z" fill="#E0E0DC"/>
<path d="M28.1 12.5601L28.46 13.6101L29.29 14.2201L28.69 14.5201L28.83 15.5201L28.1 14.6601L27.36 14.6701L27.5 13.8301L26.91 12.8401L27.73 13.1801L28.1 12.5601Z" fill="#BCB1B1"/>
<path d="M29.25 15.72C29.0945 15.855 28.9036 15.9428 28.6998 15.9729C28.496 16.003 28.2879 15.9742 28.1 15.89V16C28.1 16 28.99 16.61 29.43 16C29.43 16 29.52 15.76 29.25 15.72Z" fill="#CFCFC7"/>
<path d="M29.42 16C29.2248 16.1248 29.0006 16.1968 28.7692 16.2091C28.5379 16.2214 28.3073 16.1734 28.1 16.07V16.19C28.1 16.19 29.1 16.88 29.62 16.27C29.62 16.27 29.73 16.06 29.42 16Z" fill="#BDB9B6"/>
<path d="M27 14.38C27.2725 14.9561 27.6606 15.4701 28.14 15.89V16C27.524 15.6542 27.0549 15.0962 26.82 14.43C26.82 14.43 26.69 14.11 27 14.38Z" fill="#CFCFC7"/>
<path d="M26.79 14.4701C27.1167 15.0847 27.562 15.6285 28.1 16.0701V16.1901C27.4204 15.8179 26.8878 15.2254 26.59 14.5101C26.59 14.5101 26.48 14.1801 26.79 14.4701Z" fill="#BDB9B6"/>
<path d="M25.86 10.3701V12.5101L26.72 13.0101V10.9001L26.58 10.7401L26.57 10.7301L26.44 10.5601L26.43 10.5501L26.32 10.4101H26.3H26.29L26.15 10.4001H26.14L26.01 10.3901L26 10.3801H25.87L25.86 10.3701Z" fill="#CFCFC7"/>
<path d="M26.58 10.74V12.93L26.72 13V10.9L26.58 10.74Z" fill="#BDB9B6"/>
<path d="M26.4399 10.5601V12.8401L26.5699 12.9201V10.7301L26.4399 10.5601Z" fill="#CFCFC7"/>
<path d="M26.3 10.4099V12.7599L26.43 12.8399V10.5499L26.32 10.4099H26.3Z" fill="#BDB9B6"/>
<path d="M26.15 10.3999V12.6799L26.29 12.7599V10.4099L26.15 10.3999Z" fill="#CFCFC7"/>
<path d="M26.01 10.3899V12.5899L26.14 12.6699V10.3999L26.01 10.3899Z" fill="#BDB9B6"/>
<path d="M25.87 10.3799V12.5099L26 12.5899V10.3799H25.87Z" fill="#CFCFC7"/>
<path d="M26.2899 12.0901L26.0699 12.1801V15.1201L26.2899 15.3901L26.4899 15.3501V12.4101L26.2899 12.0901Z" fill="#EEEEEF"/>
<path d="M26.3101 12.8L26.6301 12.7L26.7701 12.8L26.7301 12.93L26.3101 13.05V12.8Z" fill="#E0E0DC"/>
<path d="M26.3101 13.07L26.6301 12.96L26.7701 13.07L26.7301 13.2L26.3101 13.31V13.07Z" fill="#BDB9B6"/>
<path d="M26.3101 13.34L26.6301 13.23L26.7701 13.34L26.7301 13.47L26.3101 13.58V13.34Z" fill="#E0E0DC"/>
<path d="M26.3101 13.61L26.6301 13.5L26.7701 13.6L26.7301 13.74L26.3101 13.85V13.61Z" fill="#BDB9B6"/>
<path d="M26.3101 13.88L26.6301 13.77L26.7701 13.87L26.7301 14.01L26.3101 14.12V13.88Z" fill="#E0E0DC"/>
<path d="M26.3101 14.14L26.6301 14.04L26.7701 14.14L26.7301 14.27L26.3101 14.39V14.14Z" fill="#BDB9B6"/>
<path d="M26.3101 14.41L26.6301 14.3L26.7701 14.41L26.7301 14.54L26.3101 14.65V14.41Z" fill="#E0E0DC"/>
<path d="M26.3101 14.6801L26.6301 14.5701L26.7701 14.6801L26.7301 14.8101L26.3101 14.9201V14.6801Z" fill="#BDB9B6"/>
<path d="M26.3101 14.9501L26.6301 14.8401L26.7701 14.9401L26.7301 15.0801L26.3101 15.1901V14.9501Z" fill="#E0E0DC"/>
<path d="M26.3101 15.2101L26.6301 15.1101L26.7701 15.2101L26.7301 15.3501L26.3101 15.4601V15.2101Z" fill="#BDB9B6"/>
<path d="M26.2701 12.78L25.9501 12.3L25.8101 12.25L25.8501 12.42L26.2701 13.02V12.78Z" fill="#E0E0DC"/>
<path d="M26.2701 13.04L25.9501 12.57L25.8101 12.52L25.8501 12.69L26.2701 13.29V13.04Z" fill="#BDB9B6"/>
<path d="M26.2701 13.31L25.9501 12.84L25.8101 12.78L25.8501 12.96L26.2701 13.56V13.31Z" fill="#E0E0DC"/>
<path d="M26.2701 13.58L25.9501 13.1L25.8101 13.05L25.8501 13.22L26.2701 13.82V13.58Z" fill="#BDB9B6"/>
<path d="M26.2701 13.8501L25.9501 13.3701L25.8101 13.3201L25.8501 13.4901L26.2701 14.0901V13.8501Z" fill="#E0E0DC"/>
<path d="M26.2701 14.1201L25.9501 13.6401L25.8101 13.5901L25.8501 13.7601L26.2701 14.3601V14.1201Z" fill="#BDB9B6"/>
<path d="M26.2701 14.3801L25.9501 13.9101L25.8101 13.8601L25.8501 14.0301L26.2701 14.6301V14.3801Z" fill="#E0E0DC"/>
<path d="M26.2701 14.6501L25.9501 14.1801L25.8101 14.1201L25.8501 14.3001L26.2701 14.9001V14.6501Z" fill="#BDB9B6"/>
<path d="M26.2701 14.9199L25.9501 14.4399L25.8101 14.3899L25.8501 14.5599L26.2701 15.1599V14.9199Z" fill="#E0E0DC"/>
<path d="M26.2701 15.1899L25.9501 14.7099L25.8101 14.6599L25.8501 14.8299L26.2701 15.4299V15.1899Z" fill="#BDB9B6"/>
<path d="M30.36 12.98V15.12L29.5 14.62V12.52L29.63 12.51H29.64L29.78 12.5H29.79L29.9 12.49L29.92 12.51L29.93 12.52L30.06 12.66L30.07 12.67L30.2 12.82L30.21 12.83L30.35 12.97L30.36 12.98Z" fill="#CFCFC7"/>
<path d="M29.63 12.51V14.7L29.5 14.62V12.52L29.63 12.51Z" fill="#BDB9B6"/>
<path d="M29.78 12.5V14.78L29.64 14.7V12.51L29.78 12.5Z" fill="#CFCFC7"/>
<path d="M29.92 12.51V14.86L29.79 14.78V12.5L29.9 12.49L29.92 12.51Z" fill="#BDB9B6"/>
<path d="M30.0601 12.66V14.94L29.9301 14.87V12.52L30.0601 12.66Z" fill="#CFCFC7"/>
<path d="M30.1999 12.8199V15.0299L30.0699 14.9499V12.6699L30.1999 12.8199Z" fill="#BDB9B6"/>
<path d="M30.35 12.9701V15.1101L30.21 15.0301V12.8301L30.35 12.9701Z" fill="#CFCFC7"/>
<path d="M29.93 14.2L29.71 14.29V17.23L29.93 17.5L30.13 17.46V14.52L29.93 14.2Z" fill="#EEEEEF"/>
<path d="M29.95 14.91L30.27 14.8L30.41 14.91L30.37 15.04L29.95 15.16V14.91Z" fill="#E0E0DC"/>
<path d="M29.95 15.1801L30.27 15.0701L30.41 15.1801L30.37 15.3101L29.95 15.4301V15.1801Z" fill="#BDB9B6"/>
<path d="M29.95 15.4501L30.27 15.3401L30.41 15.4501L30.37 15.5801L29.95 15.6901V15.4501Z" fill="#E0E0DC"/>
<path d="M29.95 15.7201L30.27 15.6101L30.41 15.7101L30.37 15.8501L29.95 15.9601V15.7201Z" fill="#BDB9B6"/>
<path d="M29.95 15.9799L30.27 15.8799L30.41 15.9799L30.37 16.1099L29.95 16.2299V15.9799Z" fill="#E0E0DC"/>
<path d="M29.95 16.2499L30.27 16.1399L30.41 16.2499L30.37 16.3799L29.95 16.4999V16.2499Z" fill="#BDB9B6"/>
<path d="M29.95 16.5199L30.27 16.4099L30.41 16.5199L30.37 16.6499L29.95 16.7699V16.5199Z" fill="#E0E0DC"/>
<path d="M29.95 16.7899L30.27 16.6799L30.41 16.7899L30.37 16.9199L29.95 17.0299V16.7899Z" fill="#BDB9B6"/>
<path d="M29.95 17.0599L30.27 16.95L30.41 17.0499L30.37 17.19L29.95 17.2999V17.0599Z" fill="#E0E0DC"/>
<path d="M29.95 17.32L30.27 17.22L30.41 17.32L30.37 17.45L29.95 17.57V17.32Z" fill="#BDB9B6"/>
<path d="M29.91 14.8901L29.59 14.4101L29.45 14.3601L29.49 14.5301L29.91 15.1301V14.8901Z" fill="#E0E0DC"/>
<path d="M29.91 15.1499L29.59 14.6799L29.45 14.6299L29.49 14.7999L29.91 15.3999V15.1499Z" fill="#BDB9B6"/>
<path d="M29.91 15.4199L29.59 14.9499L29.45 14.8899L29.49 15.0699L29.91 15.6699V15.4199Z" fill="#E0E0DC"/>
<path d="M29.91 15.6899L29.59 15.2099L29.45 15.1599L29.49 15.3399L29.91 15.9299V15.6899Z" fill="#BDB9B6"/>
<path d="M29.91 15.9599L29.59 15.4799L29.45 15.4299L29.49 15.5999L29.91 16.1999V15.9599Z" fill="#E0E0DC"/>
<path d="M29.91 16.23L29.59 15.75L29.45 15.7L29.49 15.87L29.91 16.47V16.23Z" fill="#BDB9B6"/>
<path d="M29.91 16.49L29.59 16.02L29.45 15.96L29.49 16.14L29.91 16.74V16.49Z" fill="#E0E0DC"/>
<path d="M29.91 16.76L29.59 16.29L29.45 16.23L29.49 16.41L29.91 17.01V16.76Z" fill="#BDB9B6"/>
<path d="M29.91 17.03L29.59 16.55L29.45 16.5L29.49 16.68L29.91 17.27V17.03Z" fill="#E0E0DC"/>
<path d="M29.91 17.3L29.59 16.82L29.45 16.77L29.49 16.94L29.91 17.54V17.3Z" fill="#BDB9B6"/>
<path d="M25.86 10.37L26.02 10.3L26.49 10.31L26.29 10.41L25.86 10.37Z" fill="#EDEDE6"/>
<path d="M26.72 10.9001L26.29 10.4101L26.49 10.3101L26.91 10.8001L26.72 10.9001Z" fill="#BDB9B6"/>
<path d="M29.5 12.5199L29.68 12.4299L30.06 12.3899L29.9 12.4899L29.5 12.5199Z" fill="#EDEDE6"/>
<path d="M30.35 12.9699L29.9 12.4899L30.06 12.3899L30.53 12.8999L30.35 12.9699Z" fill="#BCB1B1"/>
<path d="M30.54 17.75L30.52 13.03L30.34 12.96V17.65L30.54 17.75Z" fill="#BCB1B1"/>
<path d="M34.16 11.6199V10.9999L33.96 10.8999C33.96 11.0999 33.96 11.1999 33.96 11.3899C33.8914 11.4486 33.8137 11.4959 33.73 11.5299C33.6837 11.5444 33.634 11.5446 33.5876 11.5303C33.5411 11.516 33.5001 11.488 33.47 11.4499H33.41C33.3598 11.508 33.2987 11.5556 33.23 11.5899C33.23 11.5899 33.15 11.5899 32.96 11.5899H32.68L32.52 11.8399C32.32 12.1599 32.25 12.2899 32.14 12.2999C32.0895 12.2972 32.0408 12.2798 32 12.2499L31.82 12.5799C31.73 12.7499 31.68 12.8299 31.6 12.8499C31.5608 12.8616 31.5191 12.8616 31.48 12.8499L31.37 13.1399V13.7499L34.16 11.6199Z" fill="#BDB9B6"/>
<path d="M30.88 13.9999L31.4 14.1799C31.7101 13.5056 32.2018 12.9308 32.82 12.5199C33.0286 12.3618 33.2832 12.2762 33.545 12.2762C33.8068 12.2762 34.0614 12.3618 34.27 12.5199L34.73 11.8199L34.4 11.5499L34.29 11.7199L33.99 11.4499L33.8 11.6499L33.49 11.4299L33.35 11.6799L32.79 11.5899L32.27 12.3099L32.09 12.2299L31.75 12.7999H31.57L31.3 13.4299L31.19 13.3299L30.88 13.9999Z" fill="#CFCFC7"/>
<path d="M30.54 17.7601C31.3457 17.5162 32.1208 17.1807 32.85 16.7601C33.6126 16.2913 34.3321 15.7559 35 15.1601V12.0801L30.52 14.6801L30.54 17.7601Z" fill="#888888"/>
<path d="M31.22 14.92C31.22 15.92 31.92 16.25 32.78 15.75C33.2282 15.4658 33.6025 15.0791 33.872 14.6219C34.1414 14.1646 34.2984 13.6499 34.33 13.12C34.3433 12.959 34.3216 12.7969 34.2663 12.645C34.2111 12.4931 34.1236 12.3549 34.01 12.24C33.8343 12.103 33.6178 12.0286 33.395 12.0286C33.1721 12.0286 32.9557 12.103 32.78 12.24C32.2596 12.5651 31.8405 13.0293 31.57 13.58C31.3521 13.994 31.2323 14.4524 31.22 14.92Z" fill="#EDEDE6"/>
<path d="M33.84 12.55V14.26C33.9966 13.9494 34.082 13.6078 34.09 13.26C34.0995 13.1309 34.0822 13.0011 34.0391 12.8789C33.9961 12.7568 33.9283 12.6448 33.84 12.55Z" fill="#CFCFC7"/>
<path d="M33.45 12.3701V14.8901C33.6008 14.6938 33.7315 14.4827 33.84 14.2601V12.5501C33.7346 12.447 33.5968 12.3834 33.45 12.3701Z" fill="#BDB9B6"/>
<path d="M33.05 12.4299V15.2899C33.1957 15.1695 33.3296 15.0355 33.4501 14.8899V12.3699C33.314 12.3625 33.1779 12.3829 33.05 12.4299Z" fill="#CFCFC7"/>
<path d="M32.66 12.6299V15.5399L32.78 15.4799L33.05 15.2899V12.4299C32.9546 12.4609 32.8637 12.5046 32.78 12.5599L32.66 12.6299Z" fill="#BDB9B6"/>
<path d="M32.26 12.9999V15.6899C32.3999 15.6765 32.5359 15.6358 32.66 15.5699V12.6299C32.5162 12.7414 32.3824 12.8652 32.26 12.9999Z" fill="#CFCFC7"/>
<path d="M31.87 13.49V15.6C31.9932 15.6514 32.127 15.672 32.26 15.66V13C32.115 13.1508 31.9845 13.3149 31.87 13.49Z" fill="#BDB9B6"/>
<path d="M31.48 14.63V14.91C31.4795 15.049 31.5151 15.1857 31.5835 15.3067C31.6519 15.4277 31.7506 15.5288 31.87 15.6V13.49C31.6551 13.8355 31.5218 14.2253 31.48 14.63Z" fill="#CFCFC7"/>
<path d="M32.78 12.6299L32.41 13.6699L31.59 14.2799L32.18 14.5899L32.04 15.5799L32.78 14.7199L33.52 14.7299L33.38 13.8999L33.97 12.8999L33.15 13.2499L32.78 12.6299Z" fill="#BDB9B6"/>
<path d="M31.62 15.78C31.7755 15.9151 31.9664 16.0028 32.1702 16.033C32.3739 16.0631 32.582 16.0343 32.77 15.95V16.07C32.77 16.07 31.89 16.69 31.45 16.07C31.45 16 31.35 15.82 31.62 15.78Z" fill="#BDB9B6"/>
<path d="M31.46 16.0601C31.6522 16.1878 31.8751 16.2617 32.1055 16.274C32.3359 16.2863 32.5654 16.2366 32.77 16.1301V16.2501C32.77 16.2501 31.77 16.9401 31.26 16.3301C31.26 16.3301 31.15 16.1201 31.46 16.0601Z" fill="#B2ACAA"/>
<path d="M33.92 14.4499C33.6539 15.044 33.2614 15.573 32.77 15.9999V16.1199C33.386 15.7742 33.8552 15.2161 34.09 14.5499C34.09 14.5499 34.19 14.1799 33.92 14.4499Z" fill="#BDB9B6"/>
<path d="M34.09 14.5299C33.7645 15.1482 33.3152 15.6928 32.77 16.1299V16.2499C33.4514 15.877 33.9869 15.2851 34.29 14.5699C34.29 14.5699 34.39 14.2399 34.09 14.5299Z" fill="#B2ACAA"/>
<path d="M35.02 10.4399V12.5699L34.16 13.0699V10.9599L34.29 10.7999L34.3 10.7899L34.44 10.6299L34.45 10.6099L34.56 10.4699H34.58H34.59L34.72 10.4599H34.73L34.87 10.4499H34.88L35.01 10.4399H35.02Z" fill="#CFCFC7"/>
<path d="M34.29 10.8V12.99L34.16 13.07V10.96L34.29 10.8Z" fill="#B2ACAA"/>
<path d="M34.44 10.6299V12.9099L34.3 12.9799V10.7899L34.44 10.6299Z" fill="#CFCFC7"/>
<path d="M34.58 10.47V12.82L34.45 12.9V10.61L34.56 10.47H34.58Z" fill="#B2ACAA"/>
<path d="M34.72 10.46V12.74L34.59 12.82V10.47L34.72 10.46Z" fill="#CFCFC7"/>
<path d="M34.87 10.45V12.66L34.73 12.73V10.46L34.87 10.45Z" fill="#B2ACAA"/>
<path d="M35.01 10.4399V12.5699L34.88 12.6499V10.4499L35.01 10.4399Z" fill="#CFCFC7"/>
<path d="M34.59 12.1499L34.8 12.2399V15.1799L34.59 15.4599L34.39 15.4199V12.4699L34.59 12.1499Z" fill="#E4E3DA"/>
<path d="M34.56 12.87L34.24 12.76L34.11 12.86L34.14 13L34.56 13.11V12.87Z" fill="#CFCFC7"/>
<path d="M34.56 13.13L34.24 13.03L34.11 13.13L34.14 13.26L34.56 13.38V13.13Z" fill="#BCB1B1"/>
<path d="M34.56 13.4L34.24 13.29L34.11 13.4L34.14 13.53L34.56 13.65V13.4Z" fill="#CFCFC7"/>
<path d="M34.56 13.6701L34.24 13.5601L34.11 13.6701L34.14 13.8001L34.56 13.9101V13.6701Z" fill="#BCB1B1"/>
<path d="M34.56 13.9401L34.24 13.8301L34.11 13.9301L34.14 14.0701L34.56 14.1801V13.9401Z" fill="#CFCFC7"/>
<path d="M34.56 14.2101L34.24 14.1001L34.11 14.2001L34.14 14.3401L34.56 14.4501V14.2101Z" fill="#BCB1B1"/>
<path d="M34.56 14.4701L34.24 14.3701L34.11 14.4701L34.14 14.6001L34.56 14.7201V14.4701Z" fill="#CFCFC7"/>
<path d="M34.56 14.7399L34.24 14.6299L34.11 14.7399L34.14 14.8699L34.56 14.9899V14.7399Z" fill="#BCB1B1"/>
<path d="M34.56 15.0099L34.24 14.8999L34.11 15.0099L34.14 15.1399L34.56 15.2499V15.0099Z" fill="#CFCFC7"/>
<path d="M34.56 15.2799L34.24 15.1699L34.11 15.2699L34.14 15.4099L34.56 15.5199V15.2799Z" fill="#BCB1B1"/>
<path d="M34.61 12.8401L34.93 12.3601L35.06 12.3101L35.03 12.4801L34.61 13.0801V12.8401Z" fill="#CFCFC7"/>
<path d="M34.61 13.1101L34.93 12.6301L35.06 12.5801L35.03 12.7501L34.61 13.3501V13.1101Z" fill="#BCB1B1"/>
<path d="M34.61 13.3801L34.93 12.9001L35.06 12.8501L35.03 13.0201L34.61 13.6201V13.3801Z" fill="#CFCFC7"/>
<path d="M34.61 13.6401L34.93 13.1701L35.06 13.1101L35.03 13.2901L34.61 13.8901V13.6401Z" fill="#BCB1B1"/>
<path d="M34.61 13.9099L34.93 13.4399L35.06 13.3799L35.03 13.5599L34.61 14.1499V13.9099Z" fill="#CFCFC7"/>
<path d="M34.61 14.1799L34.93 13.6999L35.06 13.6499L35.03 13.8199L34.61 14.4199V14.1799Z" fill="#BCB1B1"/>
<path d="M34.61 14.4499L34.93 13.9699L35.06 13.9199L35.03 14.0899L34.61 14.6899V14.4499Z" fill="#CFCFC7"/>
<path d="M34.61 14.7099L34.93 14.2399L35.06 14.1899L35.03 14.3599L34.61 14.9599V14.7099Z" fill="#BCB1B1"/>
<path d="M34.61 14.98L34.93 14.51L35.06 14.45L35.03 14.63L34.61 15.23V14.98Z" fill="#CFCFC7"/>
<path d="M34.61 15.25L34.93 14.78L35.06 14.72L35.03 14.9L34.61 15.49V15.25Z" fill="#BCB1B1"/>
<path d="M30.52 13.04V15.18L31.38 14.68V12.58L31.24 12.57H31.23L31.1 12.56H31.09L30.98 12.55L30.96 12.57L30.95 12.58L30.81 12.73L30.8 12.74L30.67 12.88L30.66 12.89L30.53 13.04H30.52Z" fill="#CFCFC7"/>
<path d="M31.24 12.5701V14.7601L31.38 14.6801V12.5801L31.24 12.5701Z" fill="#B2ACAA"/>
<path d="M31.1 12.5601V14.8401L31.23 14.7601V12.5701L31.1 12.5601Z" fill="#CFCFC7"/>
<path d="M30.96 12.57V14.92L31.09 14.85V12.56L30.98 12.55L30.96 12.57Z" fill="#B2ACAA"/>
<path d="M30.8101 12.7301V15.0101L30.9501 14.9301V12.5801L30.8101 12.7301Z" fill="#CFCFC7"/>
<path d="M30.67 12.88V15.09L30.8 15.01V12.74L30.67 12.88Z" fill="#B2ACAA"/>
<path d="M30.53 13.0399V15.1699L30.66 15.0999V12.8899L30.53 13.0399Z" fill="#CFCFC7"/>
<path d="M30.95 14.26L31.17 14.35V17.29L30.95 17.57L30.75 17.53V14.58L30.95 14.26Z" fill="#E4E3DA"/>
<path d="M30.92 14.9801L30.61 14.8701L30.47 14.9701L30.5 15.1101L30.92 15.2201V14.9801Z" fill="#CFCFC7"/>
<path d="M30.92 15.2399L30.61 15.1399L30.47 15.2399L30.5 15.3699L30.92 15.4899V15.2399Z" fill="#BCB1B1"/>
<path d="M30.92 15.5099L30.61 15.3999L30.47 15.5099L30.5 15.6399L30.92 15.7599V15.5099Z" fill="#CFCFC7"/>
<path d="M30.92 15.7799L30.61 15.6699L30.47 15.7799L30.5 15.9099L30.92 16.0199V15.7799Z" fill="#BCB1B1"/>
<path d="M30.92 16.0499L30.61 15.9399L30.47 16.0399L30.5 16.1799L30.92 16.2899V16.0499Z" fill="#CFCFC7"/>
<path d="M30.92 16.32L30.61 16.21L30.47 16.31L30.5 16.45L30.92 16.56V16.32Z" fill="#BCB1B1"/>
<path d="M30.92 16.58L30.61 16.48L30.47 16.58L30.5 16.71L30.92 16.83V16.58Z" fill="#CFCFC7"/>
<path d="M30.92 16.85L30.61 16.74L30.47 16.85L30.5 16.98L30.92 17.09V16.85Z" fill="#BCB1B1"/>
<path d="M30.92 17.12L30.61 17.01L30.47 17.12L30.5 17.25L30.92 17.36V17.12Z" fill="#CFCFC7"/>
<path d="M30.92 17.39L30.61 17.28L30.47 17.38L30.5 17.52L30.92 17.63V17.39Z" fill="#BCB1B1"/>
<path d="M30.97 14.9499L31.29 14.4699L31.42 14.4199L31.39 14.5899L30.97 15.1899V14.9499Z" fill="#CFCFC7"/>
<path d="M30.97 15.2199L31.29 14.7399L31.42 14.6899L31.39 14.8599L30.97 15.4599V15.2199Z" fill="#BCB1B1"/>
<path d="M30.97 15.48L31.29 15.01L31.42 14.96L31.39 15.13L30.97 15.73V15.48Z" fill="#CFCFC7"/>
<path d="M30.97 15.75L31.29 15.28L31.42 15.22L31.39 15.4L30.97 16V15.75Z" fill="#BCB1B1"/>
<path d="M30.97 16.02L31.29 15.54L31.42 15.49L31.39 15.67L30.97 16.27V16.02Z" fill="#CFCFC7"/>
<path d="M30.97 16.29L31.29 15.81L31.42 15.76L31.39 15.93L30.97 16.53V16.29Z" fill="#BCB1B1"/>
<path d="M30.97 16.56L31.29 16.08L31.42 16.03L31.39 16.2L30.97 16.8V16.56Z" fill="#CFCFC7"/>
<path d="M30.97 16.82L31.29 16.35L31.42 16.3L31.39 16.47L30.97 17.07V16.82Z" fill="#BCB1B1"/>
<path d="M30.97 17.0901L31.29 16.6201L31.42 16.5601L31.39 16.7401L30.97 17.3401V17.0901Z" fill="#CFCFC7"/>
<path d="M30.97 17.3601L31.29 16.8801L31.42 16.8301L31.39 17.0001L30.97 17.6101V17.3601Z" fill="#BCB1B1"/>
<path d="M35.02 10.4401L34.86 10.3701H34.39L34.59 10.4701L35.02 10.4401Z" fill="#BDB9B6"/>
<path d="M34.16 10.9601L34.59 10.4701L34.39 10.3701L33.96 10.8601L34.16 10.9601Z" fill="#EDEDE6"/>
<path d="M31.3801 12.58L31.2001 12.49L30.8101 12.45L30.9801 12.55L31.3801 12.58Z" fill="#BDB9B6"/>
<path d="M30.53 13.04L30.98 12.55L30.81 12.45L30.35 12.96L30.53 13.04Z" fill="#E4E3DA"/>
<path d="M30.91 18.9999C30.98 18.9399 31.27 19.0599 31.29 14.7899V14.4299C31.0687 15.9447 30.9285 17.4702 30.87 18.9999C30.87 18.9999 30.73 18.9999 30.91 18.9999Z" fill="#BCB1B1"/>
<path d="M31.28 13.52L31.26 13.66L31.33 14.8L31.38 14.99L31.49 14.33L31.33 13.72L31.28 13.52Z" fill="#EDEDE6"/>
<path d="M31.28 13.9201L30.34 12.8101L30.37 13.3201L31.31 14.4401L31.28 13.9201Z" fill="#BDB9B6"/>
<path d="M30.37 13.3201V17.7501C31 20.9701 31.23 17.2201 31.24 15.8701C31.24 15.6101 31.24 15.4101 31.24 15.3401V15.1001C31.24 14.7501 31.3 14.4501 31.3 14.4401L30.37 13.3201Z" fill="#EDEDE6"/>
<path d="M30.37 16.9201V17.4901C30.88 19.7901 31.15 17.1401 31.24 15.8701C31.24 15.6101 31.24 15.4101 31.24 15.3401V15.1001C30.92 18.9101 30.39 17.0101 30.36 16.9301L30.37 16.9201Z" fill="#CFCFC7"/>
<path d="M30.37 16.4101C30.37 16.4101 30.93 18.7401 31.23 13.8701C31.23 13.8701 30.93 17.4601 30.36 15.9201L30.37 16.4101Z" fill="#BDB9B6"/>
<path d="M30.37 15.51C30.37 15.51 30.73 17.44 31.1 13.72C31.1 13.72 30.76 15.93 30.37 14.86V15.51Z" fill="#E4E3DA"/>
<path d="M30.37 14.5C30.37 14.5 30.66 15.68 30.88 13.45C30.88 13.45 30.56 14.71 30.37 13.86V14.5Z" fill="#CFCFC7"/>
<path d="M30.34 12.81L30.47 12.78L31.26 13.66L31.28 13.92L30.34 12.81Z" fill="#EDEDE6"/>
<path d="M31.3101 13.56L31.4201 13.52L31.5901 14.28L31.4901 14.33L31.3101 13.56Z" fill="#CFCFC7"/>
<path d="M31.39 14.95L31.48 14.91L31.59 14.28L31.49 14.33L31.39 14.95Z" fill="#B2ACAA"/>
<path d="M21.22 7.80992L22.15 7.66992L22.11 7.74992L21.22 7.80992Z" fill="#EDEDE6"/>
<path d="M22.2 7.97992L22.11 7.74992L22.15 7.66992L22.27 7.95992L22.2 7.97992Z" fill="#BDB9B6"/>
<path d="M22.13 8.16996L22.2 7.97996L22.27 7.95996L22.21 8.16996H22.13Z" fill="#BDB9B6"/>
<path d="M26 10.2999L22.21 8.16992H22.13L25.95 10.3299L26 10.2999Z" fill="#E4E3DA"/>
<path d="M22 8.57007L21.89 8.85007L21.96 8.81007L22.03 8.67007L22 8.57007Z" fill="#BCB1B1"/>
<path d="M34.89 10.3799L34.86 10.3699L38.77 8.12988L38.79 8.16988L34.89 10.3799Z" fill="#EDEDE6"/>
<path d="M38.86 7.80003L38.94 7.78003L39.73 8.00003L39.72 8.03003L38.86 7.80003Z" fill="#E4E3DA"/>
<path d="M29.52 4.58008H29.57L29.6 4.80008H29.53L29.52 4.58008Z" fill="#BCB1B1"/>
<path d="M29.35 4.55003L29.42 4.53003L29.57 4.58003H29.52L29.35 4.55003Z" fill="#BDB9B6"/>
<path d="M29.53 4.80005L29.52 4.99005H29.59L29.6 4.80005H29.53Z" fill="#A19B9A"/>
<path d="M29.52 4.98999H29.59L30.35 7.52999L30.25 7.51999L29.52 4.98999Z" fill="#EDEDE6"/>
<path d="M29.4801 5.63012H29.5101L29.4901 5.37012L29.4301 5.63012H29.4801Z" fill="#A19B9A"/>
<path d="M25.8101 9.74994L25.5301 10.0399L25.4301 9.98994L25.7401 9.68994L25.8101 9.74994Z" fill="#EDEDE6"/>
<path d="M26.24 9.75994L25.81 9.74994L25.74 9.68994L26.17 9.69994L26.24 9.75994Z" fill="#CFCFC7"/>
<path d="M26.24 10.2599L26.41 9.88989L26.44 9.94989L26.28 10.3099H26.24V10.2599Z" fill="#EDEDE6"/>
<path d="M26.63 9.95989L26.59 9.88989H26.41L26.44 9.94989L26.63 9.95989Z" fill="#CFCFC7"/>
<path d="M26.95 9.31006L27 9.37006L26.63 9.96006L26.59 9.89006L26.95 9.31006Z" fill="#EDEDE6"/>
<path d="M27.19 9.45006L27.15 9.38006L26.95 9.31006L27 9.37006L27.19 9.45006Z" fill="#CFCFC7"/>
<path d="M27.71 8.66992L27.74 8.70992L27.19 9.44992L27.15 9.37992L27.71 8.66992Z" fill="#EDEDE6"/>
<path d="M28.33 8.77992L28.31 8.72992L27.71 8.66992L27.74 8.70992L28.33 8.77992Z" fill="#CFCFC7"/>
<path d="M28.4501 8.46997L28.4801 8.52997L28.3301 8.77997L28.3101 8.72997L28.4501 8.46997Z" fill="#EDEDE6"/>
<path d="M28.7999 8.68997L28.82 8.72997L28.4799 8.52997L28.45 8.46997L28.7999 8.68997Z" fill="#CFCFC7"/>
<path d="M28.99 8.47998L29.01 8.52998L28.82 8.72998L28.8 8.68998L28.99 8.47998Z" fill="#EDEDE6"/>
<path d="M29.5499 7.51001L29.6499 7.53001L29.1999 8.04001L29.0699 7.98001L29.5499 7.51001Z" fill="#E0E0DC"/>
<path d="M29.0699 8.57998V7.97998L29.1999 8.03998L29.1899 8.66998L29.0699 8.57998Z" fill="#B2ACAA"/>
<path d="M29.55 7.50997L30.21 7.46997L30.25 7.52997H29.65L29.55 7.50997Z" fill="#CFCFC7"/>
<path d="M29.19 8.66998L29.07 8.53998L28.99 8.47998L29.01 8.52998L29.19 8.66998Z" fill="#CFCFC7"/>
<path d="M30.34 7.46997L30.25 7.52997L30.55 7.54997L30.64 7.50997L30.34 7.46997Z" fill="#EDEDE6"/>
<path d="M31.01 8.06001L30.55 7.55001L30.64 7.51001L31.1 8.02001L31.01 8.06001Z" fill="#B2ACAA"/>
<path d="M31.01 8.69002V8.06002L31.1 8.02002L31.11 8.61002L31.01 8.69002Z" fill="#A19B9A"/>
<path d="M33.97 9.76994L34.13 9.69994L34.54 9.68994L34.39 9.75994L33.97 9.76994Z" fill="#EDEDE6"/>
<path d="M34.88 10.2699L35 10.1799L34.54 9.68994L34.39 9.75994L34.88 10.2699Z" fill="#B2ACAA"/>
<path d="M34.88 10.3599V10.2699L35 10.1799V10.2799L34.88 10.3599Z" fill="#A19B9A"/>
<path d="M31.11 8.58001L31.01 8.69001L31.2 8.54001L31.26 8.51001L31.11 8.58001Z" fill="#EDEDE6"/>
<path d="M31.3899 8.75001L31.2 8.54001L31.26 8.51001L31.4599 8.71001L31.3899 8.75001Z" fill="#A19B9A"/>
<path d="M31.73 8.54001L31.79 8.51001L31.98 8.78001L31.88 8.79001L31.73 8.54001Z" fill="#A19B9A"/>
<path d="M32.46 8.72995L32.55 8.69995L33.11 9.42995L33.01 9.45995L32.46 8.72995Z" fill="#A19B9A"/>
<path d="M33.21 9.3901L33.28 9.3501L33.66 9.9701H33.57L33.21 9.3901Z" fill="#A19B9A"/>
<path d="M33.76 9.96994L33.84 9.93994L33.97 10.2699V10.4199L33.76 9.96994Z" fill="#A19B9A"/>
<path d="M33.5699 9.96994L33.6399 9.93994H33.8399L33.7599 9.96994H33.5699Z" fill="#EDEDE6"/>
<path d="M33.01 9.4601L33.09 9.4001L33.28 9.3501L33.21 9.3901L33.01 9.4601Z" fill="#EDEDE6"/>
<path d="M31.97 8.76995L31.88 8.78995L32.46 8.72995L32.55 8.69995L31.97 8.76995Z" fill="#EDEDE6"/>
<path d="M28.1 12.5601L27.9 13.7901L28.46 13.6101L28.1 12.5601Z" fill="#A19B9A"/>
<path d="M29.29 14.2201L27.9 13.7901L28.46 13.6101L29.29 14.2201Z" fill="#CFCFC7"/>
<path d="M27.73 13.1801L27.9 13.7901L28.1 12.5601L27.73 13.1801Z" fill="#EDEDE6"/>
<path d="M26.91 12.8401L27.9 13.7901L27.73 13.1801L26.91 12.8401Z" fill="#E4E3DA"/>
<path d="M27.5 13.8301L27.9 13.7901L26.91 12.8401L27.5 13.8301Z" fill="#BCB1B1"/>
<path d="M27.36 14.67L27.9 13.79L27.5 13.83L27.36 14.67Z" fill="#E0E0DC"/>
<path d="M28.1 14.66L27.9 13.79L27.36 14.67L28.1 14.66Z" fill="#A19B9A"/>
<path d="M28.83 15.52L27.9 13.79L28.1 14.66L28.83 15.52Z" fill="#CFCFC7"/>
<path d="M28.69 14.52L27.9 13.79L29.29 14.22L28.69 14.52Z" fill="#A19B9A"/>
<path d="M28.83 15.52L27.9 13.79L28.69 14.52L28.83 15.52Z" fill="#BDB9B6"/>
<path d="M32.78 12.6299L32.94 13.9499L32.41 13.6699L32.78 12.6299Z" fill="#BDB9B6"/>
<path d="M31.59 14.2799L32.41 13.6699L32.94 13.9499L31.59 14.2799Z" fill="#B2ACAA"/>
<path d="M32.18 14.59L31.59 14.28L32.94 13.95L32.18 14.59Z" fill="#A19B9A"/>
<path d="M32.04 15.58L32.94 13.95L32.18 14.59L32.04 15.58Z" fill="#BDB9B6"/>
<path d="M33.15 13.2499L32.94 13.9499L32.78 12.6299L33.15 13.2499Z" fill="#A19B9A"/>
<path d="M33.9699 12.8999L33.3799 13.8999L32.9399 13.9499L33.9699 12.8999Z" fill="#A19B9A"/>
<path d="M33.5199 14.7299L33.4599 14.6599L32.9399 13.9499L33.3799 13.8999L33.5199 14.7299Z" fill="#B2ACAA"/>
<path d="M32.94 13.95L33.52 14.73L32.85 14.72L32.94 13.95Z" fill="#9E9A99"/>
<path d="M32.04 15.58L32.94 13.95L32.18 14.59L32.04 15.58Z" fill="#B2ACAA"/>
<path d="M27.84 36.1199L28.63 35.6599L29.4 36.1199L28.63 36.5699L27.84 36.1199Z" fill="#F4D87F"/>
<path d="M28.63 35.7101L29.33 36.1201L28.63 36.5201L27.92 36.1201L28.63 35.7101ZM28.63 35.6201L27.77 36.1201L28.63 36.6101L29.48 36.1201L28.63 35.6201Z" fill="#B07C54"/>
<path d="M28.66 36.6299L29.44 36.1799L29.45 40.0499L28.66 40.5099V36.6299Z" fill="#F4D87F"/>
<path d="M29.4 36.2501V40.0001L28.69 40.4101V36.6501L29.39 36.2501M29.47 36.1201L28.62 36.6101V40.6101L29.47 40.1101V36.1101V36.1201Z" fill="#B07C54"/>
<path d="M27.8101 40.0499V36.1799L28.5901 36.6299V40.5099L27.8101 40.0499Z" fill="#F4D87F"/>
<path d="M27.84 36.2501L28.55 36.6501V40.4401L27.84 40.0001V36.2501ZM27.77 36.1201V40.1201L28.63 40.6201V36.6201L27.77 36.1301V36.1201Z" fill="#B07C54"/>
<path d="M28.22 36.8501H28.17V39.9501H28.22V36.8501Z" fill="#B07C54"/>
<path d="M28.25 37C28.25 37 28.25 37 28.25 37.06H28.31C28.31 37.06 28.31 37.06 28.37 37.06V37H28.31C28.31 37 28.31 37 28.26 37H28.19V36.95H28.14C28.14 36.95 28.14 36.95 28.08 36.95V37.0099C28.08 37.0099 28.08 37.01 28.08 37.07H28.14H28.2H28.27L28.25 37Z" fill="#B07C54"/>
<path d="M28.25 37.33C28.25 37.33 28.25 37.33 28.25 37.39H28.31C28.31 37.39 28.31 37.39 28.37 37.39V37.33V37.27H28.31H28.26H28.19C28.19 37.27 28.19 37.27 28.19 37.21C28.19 37.21 28.19 37.21 28.14 37.21H28.08V37.27C28.08 37.27 28.08 37.27 28.14 37.27H28.2H28.27L28.25 37.33Z" fill="#B07C54"/>
<path d="M28.25 38.08C28.25 38.08 28.25 38.13 28.25 38.14H28.31C28.31 38.14 28.31 38.14 28.37 38.14C28.37 38.14 28.37 38.14 28.37 38.09V38.03H28.31C28.31 38.03 28.31 38.03 28.26 38.03H28.19V37.98H28.14C28.14 37.98 28.14 37.98 28.08 37.98V38.04C28.08 38.04 28.08 38.04 28.08 38.1H28.14H28.2H28.27L28.25 38.08Z" fill="#B07C54"/>
<path d="M28.25 38.39C28.25 38.39 28.25 38.44 28.25 38.45H28.31C28.31 38.45 28.31 38.45 28.37 38.45V38.39V38.33H28.31C28.31 38.33 28.31 38.33 28.26 38.33H28.19V38.28C28.19 38.28 28.19 38.28 28.19 38.22C28.19 38.22 28.19 38.22 28.14 38.22H28.08V38.28C28.08 38.28 28.08 38.28 28.14 38.28H28.2H28.27L28.25 38.39Z" fill="#B07C54"/>
<path d="M28.25 39.35C28.25 39.35 28.25 39.35 28.25 39.41H28.31H28.37C28.37 39.41 28.37 39.36 28.37 39.35V39.29C28.37 39.29 28.32 39.29 28.31 39.29C28.31 39.29 28.31 39.29 28.26 39.29H28.19V39.23H28.14C28.14 39.23 28.14 39.23 28.08 39.23V39.29V39.35H28.14C28.1493 39.3544 28.1596 39.3567 28.17 39.3567C28.1803 39.3567 28.1906 39.3544 28.2 39.35H28.27C28.27 39.35 28.23 39.34 28.25 39.35Z" fill="#B07C54"/>
<path d="M28.25 39.6701C28.25 39.6701 28.25 39.6701 28.25 39.7301H28.31C28.31 39.7301 28.31 39.7301 28.37 39.7301V39.6701H28.31C28.31 39.6701 28.31 39.6701 28.26 39.6701H28.19V39.6201H28.14C28.14 39.6201 28.14 39.6201 28.08 39.6201V39.6801V39.7301H28.14H28.2H28.27L28.25 39.6701Z" fill="#B07C54"/>
<path d="M29.1 36.8501H29.05V39.9501H29.1V36.8501Z" fill="#B07C54"/>
<path d="M29.05 36.9999H29.12H29.17C29.17 36.9999 29.17 36.9999 29.23 36.9999C29.23 36.9999 29.23 36.9999 29.23 36.9399C29.23 36.9399 29.23 36.9399 29.23 36.8799H29.17H29.11C29.11 36.8799 29.11 36.8799 29.11 36.9299H29.04C29.0307 36.9254 29.0204 36.9231 29.01 36.9231C28.9997 36.9231 28.9894 36.9254 28.98 36.9299C28.98 36.9299 28.98 36.9299 28.92 36.9299V36.9899H28.98H29.03L29 36.9999H29.05Z" fill="#B07C54"/>
<path d="M29.05 37.28H29.12H29.17H29.23C29.23 37.28 29.23 37.28 29.23 37.22C29.23 37.22 29.23 37.22 29.17 37.22C29.17 37.22 29.17 37.22 29.11 37.22V37.28H29.04H28.98C28.98 37.28 28.98 37.28 28.92 37.28V37.34C28.92 37.34 28.92 37.34 28.92 37.4H28.98C28.98 37.4 28.98 37.4 29.03 37.4V37.34L29.05 37.28Z" fill="#B07C54"/>
<path d="M29.0499 37.9999H29.1199H29.1699C29.1699 37.9999 29.1699 37.9999 29.2299 37.9999C29.2299 37.9999 29.2299 37.9999 29.2299 37.9399C29.2299 37.9399 29.2299 37.9399 29.2299 37.8799H29.1699H29.1099V37.9299L28.9999 37.9999C28.9999 37.9999 28.9999 37.9999 28.9399 37.9999V38.0599C28.9399 38.0599 28.9399 38.0599 28.9399 38.1099H28.9999H29.0499V38.0499V37.9999Z" fill="#B07C54"/>
<path d="M29.05 38.34H29.12H29.17H29.23C29.23 38.34 29.23 38.34 29.23 38.28C29.23 38.28 29.23 38.28 29.17 38.28C29.17 38.28 29.17 38.28 29.11 38.28V38.34V38.39H29.04C29.0307 38.3856 29.0204 38.3833 29.01 38.3833C28.9997 38.3833 28.9894 38.3856 28.98 38.39C28.98 38.39 28.98 38.39 28.92 38.39V38.45C28.92 38.45 28.92 38.45 28.92 38.51H28.98C28.98 38.51 28.98 38.51 29.03 38.51V38.45L29.05 38.34Z" fill="#B07C54"/>
<path d="M29.05 39.2999H29.12C29.12 39.2999 29.12 39.2999 29.17 39.2999C29.17 39.2999 29.17 39.2999 29.23 39.2999V39.2399C29.23 39.2399 29.23 39.2399 29.23 39.1799H29.17H29.11C29.11 39.1799 29.11 39.1799 29.11 39.2399H29.04C29.0307 39.2355 29.0204 39.2332 29.01 39.2332C28.9997 39.2332 28.9894 39.2355 28.98 39.2399H28.92V39.2999V39.3599C28.92 39.3599 28.92 39.3599 28.98 39.3599H29.03V39.2999C29.03 39.2999 29.06 39.3099 29.05 39.2999Z" fill="#B07C54"/>
<path d="M29.05 39.61H29.12H29.17C29.17 39.61 29.17 39.61 29.23 39.61C29.23 39.61 29.23 39.61 29.23 39.56C29.23 39.56 29.23 39.56 29.23 39.5H29.17C29.1609 39.4947 29.1506 39.4919 29.14 39.4919C29.1295 39.4919 29.1192 39.4947 29.11 39.5C29.11 39.5 29.11 39.5 29.11 39.55H29.04C29.0307 39.5455 29.0204 39.5432 29.01 39.5432C28.9997 39.5432 28.9894 39.5455 28.98 39.55C28.98 39.55 28.98 39.55 28.92 39.55V39.61H28.98H29.03V39.55L29.05 39.61Z" fill="#B07C54"/>
<path d="M22.08 32.94L22.86 32.48L23.64 32.94L22.86 33.39L22.08 32.94Z" fill="#F4D87F"/>
<path d="M22.86 32.5299L23.57 32.9399L22.86 33.3399L22.15 32.9399L22.86 32.5299ZM22.86 32.4399L22.01 32.9399L22.86 33.4299L23.71 32.9399L22.86 32.4399Z" fill="#B07C54"/>
<path d="M22.9 33.45L23.68 33V36.87L22.9 37.33V33.45Z" fill="#F4D87F"/>
<path d="M23.64 33.0699V36.8499L22.93 37.2599V33.4699L23.63 33.0699M23.7 32.9399L22.85 33.4299V37.4299L23.71 36.9299V32.9299L23.7 32.9399Z" fill="#B07C54"/>
<path d="M22.04 36.87V33L22.83 33.45V37.33L22.04 36.87Z" fill="#F4D87F"/>
<path d="M22.08 33.0699L22.79 33.4699V37.2599L22.08 36.8499V33.0699ZM22 32.9399V36.9399L22.85 37.4399V33.4399L22 32.9399Z" fill="#B07C54"/>
<path d="M22.46 33.6699H22.41V36.7699H22.46V33.6699Z" fill="#B07C54"/>
<path d="M22.4801 33.8399V33.8999H22.5401H22.6001V33.8399C22.6001 33.8399 22.6001 33.8399 22.5501 33.8399H22.5001H22.4301H22.3701C22.3701 33.8399 22.3201 33.8399 22.3101 33.8399V33.8999V33.9599C22.3101 33.9599 22.3601 33.9599 22.3701 33.9599C22.3701 33.9599 22.3701 33.9599 22.4201 33.9599H22.4901C22.4901 33.9599 22.4601 33.8299 22.4801 33.8399Z" fill="#B07C54"/>
<path d="M22.4801 34.15V34.21H22.5401H22.6001C22.6001 34.21 22.6001 34.21 22.6001 34.15V34.09H22.5501C22.5501 34.09 22.5501 34.09 22.5001 34.09H22.4301C22.4301 34.09 22.4301 34.09 22.4301 34.03C22.4301 34.03 22.3801 34.03 22.3701 34.03H22.3101V34.09H22.3701C22.3701 34.09 22.3701 34.09 22.4201 34.09H22.4901C22.4901 34.09 22.4601 34.14 22.4801 34.15Z" fill="#B07C54"/>
<path d="M22.4801 34.9001V34.96H22.5401H22.6001V34.91V34.85C22.6001 34.85 22.6001 34.85 22.5501 34.85H22.5001H22.4301C22.4301 34.85 22.4301 34.85 22.4301 34.8H22.3701C22.3701 34.8 22.3201 34.8 22.3101 34.8V34.8601V34.92C22.3101 34.92 22.3601 34.92 22.3701 34.92C22.3701 34.92 22.3701 34.92 22.4201 34.92H22.4901C22.4901 34.92 22.4601 34.8901 22.4801 34.9001Z" fill="#B07C54"/>
<path d="M22.4801 35.21V35.27H22.5401H22.6001C22.6001 35.27 22.6001 35.27 22.6001 35.21V35.15H22.5501H22.5001H22.4301C22.4301 35.15 22.4301 35.15 22.4301 35.1C22.4301 35.1 22.4301 35.1 22.4301 35.04C22.4301 35.04 22.3801 35.04 22.3701 35.04H22.3101V35.1H22.3701C22.3701 35.1 22.3701 35.1 22.4201 35.1H22.4901C22.4901 35.1 22.4601 35.2 22.4801 35.21Z" fill="#B07C54"/>
<path d="M22.4801 36.17H22.5401C22.5401 36.17 22.5901 36.17 22.6001 36.17V36.11V36.05C22.6001 36.05 22.6001 36.05 22.5501 36.05H22.5001H22.4301V35.99H22.3701C22.3701 35.99 22.3201 35.99 22.3101 35.99V36.04C22.3101 36.04 22.3101 36.09 22.3101 36.1C22.3101 36.1 22.3601 36.1 22.3701 36.1H22.4201H22.4901C22.4901 36.1 22.4601 36.16 22.4801 36.17Z" fill="#B07C54"/>
<path d="M22.4801 36.4899V36.5499H22.5401H22.6001V36.4899C22.6001 36.4899 22.6001 36.4899 22.5501 36.4899H22.5001H22.4301V36.4399H22.3701C22.3701 36.4399 22.3201 36.4399 22.3101 36.4399V36.4999V36.5599C22.3101 36.5599 22.3601 36.5599 22.3701 36.5599C22.3701 36.5599 22.3701 36.5599 22.4201 36.5599H22.4901C22.4901 36.5599 22.4601 36.4799 22.4801 36.4899Z" fill="#B07C54"/>
<path d="M23.34 33.6699H23.29V36.7699H23.34V33.6699Z" fill="#B07C54"/>
<path d="M23.29 33.7799H23.36C23.36 33.7799 23.36 33.7799 23.41 33.7799C23.41 33.7799 23.41 33.7799 23.41 33.7199V33.6599C23.41 33.6599 23.41 33.6599 23.35 33.6599H23.29H23.22H23.17C23.17 33.6599 23.17 33.6599 23.11 33.6599C23.11 33.6599 23.11 33.6599 23.11 33.7199H23.17H23.23V33.6599C23.23 33.6599 23.29 33.7999 23.29 33.7799Z" fill="#B07C54"/>
<path d="M23.29 34.1H23.36C23.36 34.1 23.36 34.1 23.41 34.1V34.04H23.35C23.35 34.04 23.35 34.04 23.29 34.04C23.29 34.04 23.29 34.04 23.29 34.1H23.22C23.22 34.1 23.22 34.1 23.17 34.1H23.11C23.11 34.1 23.11 34.1 23.11 34.16C23.11 34.16 23.11 34.16 23.11 34.22H23.17H23.23V34.16C23.23 34.16 23.29 34.12 23.29 34.1Z" fill="#B07C54"/>
<path d="M23.29 34.84H23.36C23.36 34.84 23.36 34.84 23.41 34.84C23.41 34.84 23.41 34.84 23.41 34.78V34.72C23.41 34.72 23.41 34.72 23.35 34.72H23.29C23.29 34.72 23.29 34.72 23.29 34.77H23.22H23.17C23.17 34.77 23.17 34.77 23.11 34.77C23.11 34.77 23.11 34.77 23.11 34.83V34.88H23.17H23.23V34.82C23.23 34.82 23.29 34.86 23.29 34.84Z" fill="#B07C54"/>
<path d="M23.29 35.1601H23.36C23.36 35.1601 23.36 35.1601 23.41 35.1601V35.1001H23.35C23.35 35.1001 23.35 35.1001 23.29 35.1001C23.29 35.1001 23.29 35.1001 23.29 35.1601C23.29 35.1601 23.29 35.1601 23.29 35.2101H23.22H23.17H23.11C23.11 35.2101 23.11 35.2101 23.11 35.2701C23.11 35.2701 23.11 35.2701 23.11 35.3301H23.17H23.23V35.2701C23.23 35.2701 23.29 35.1801 23.29 35.1601Z" fill="#B07C54"/>
<path d="M23.29 36.12H23.36H23.41V36.06V36.01C23.41 36.01 23.41 36.01 23.35 36.01H23.29V36.07H23.22H23.17C23.17 36.07 23.17 36.07 23.11 36.07C23.11 36.07 23.11 36.07 23.11 36.13V36.19C23.11 36.19 23.11 36.19 23.17 36.19H23.23C23.23 36.19 23.29 36.14 23.29 36.12Z" fill="#B07C54"/>
<path d="M23.29 36.4301H23.36C23.36 36.4301 23.36 36.4301 23.41 36.4301C23.41 36.4301 23.41 36.4301 23.41 36.3701V36.3101C23.41 36.3101 23.41 36.3101 23.35 36.3101H23.29V36.3601H23.22H23.17C23.17 36.3601 23.17 36.3601 23.11 36.3601C23.11 36.3601 23.11 36.3601 23.11 36.4201H23.17H23.23V36.3601C23.23 36.3601 23.29 36.4501 23.29 36.4301Z" fill="#B07C54"/>
<path d="M23.52 18.2599V19.5699L23.39 19.4899V18.1799L23.52 18.2599Z" fill="#CFCFC7"/>
<path d="M23.54 22.52L23.52 23.83L23.39 23.75L23.4 22.45L23.54 22.52Z" fill="#CFCFC7"/>
<path d="M26.72 20.13V21.43L26.58 21.35V20.05L26.72 20.13Z" fill="#CFCFC7"/>
<path d="M26.7199 24.3901V25.7101L26.5699 25.6101L26.5799 24.3101L26.7199 24.3901Z" fill="#CFCFC7"/>
<path d="M36.9 18.38V19.6901L37.04 19.6101V18.3L36.9 18.38Z" fill="#BDB9B6"/>
<path d="M36.9 22.6601V23.9701L37.04 23.8901V22.5801L36.9 22.6601Z" fill="#BDB9B6"/>
<path d="M33.71 20.2399V21.5499L33.84 21.4799V20.1599L33.71 20.2399Z" fill="#BDB9B6"/>
<path d="M33.71 24.5199V25.8299L33.84 25.7499V24.4399L33.71 24.5199Z" fill="#BDB9B6"/>
<path d="M24.47 17.6799L23.39 18.1799L23.52 18.2599L24.6 17.7599L24.47 17.6799Z" fill="#EDEDE6"/>
<path d="M27.66 19.52L26.58 20.05L26.72 20.13L27.8 19.59L27.66 19.52Z" fill="#EDEDE6"/>
<path d="M24.47 21.95L23.4 22.45L23.54 22.52L24.6 22.03L24.47 21.95Z" fill="#EDEDE6"/>
<path d="M27.66 23.79L27.8 23.87L26.72 24.39L26.58 24.31L27.66 23.79Z" fill="#EDEDE6"/>
<path d="M32.64 19.6401L33.71 20.2401L33.84 20.1601L32.78 19.5601L32.64 19.6401Z" fill="#E4E3DA"/>
<path d="M35.83 17.84L36.9 18.38L37.04 18.3L35.97 17.75L35.83 17.84Z" fill="#E4E3DA"/>
<path d="M35.83 22.11L35.97 22.04L37.04 22.58L36.9 22.66L35.83 22.11Z" fill="#E4E3DA"/>
<path d="M32.64 23.9101L32.77 23.8401L33.84 24.4401L33.71 24.5201L32.64 23.9101Z" fill="#E4E3DA"/>
<path d="M22.66 45.5901V46.4301L22.62 46.4001V45.5601L22.66 45.5901Z" fill="#B2ACAA"/>
<path d="M24.03 46.4001V47.2401L23.98 47.2101V46.3701L24.03 46.4001Z" fill="#B2ACAA"/>
<path d="M25.39 47.2099V48.0399L25.35 48.0199V47.1799L25.39 47.2099Z" fill="#B2ACAA"/>
<path d="M26.76 48.02V48.85L26.71 48.82V47.99L26.76 48.02Z" fill="#B2ACAA"/>
<path d="M28.13 48.8301V49.66L28.08 49.6301V48.8L28.13 48.8301Z" fill="#B2ACAA"/>
<path d="M29.49 49.6401V50.4601L29.45 50.4401V49.6201L29.49 49.6401Z" fill="#B2ACAA"/>
<path d="M23.3 46.9499V47.7999L23.26 47.7699V46.9299L23.3 46.9499Z" fill="#B2ACAA"/>
<path d="M24.67 47.77V48.6L24.62 48.58V47.74L24.67 47.77Z" fill="#B2ACAA"/>
<path d="M26.04 48.5801V49.41L25.99 49.3801V48.55L26.04 48.5801Z" fill="#B2ACAA"/>
<path d="M27.4 49.3901V50.2201L27.36 50.1901V49.3601L27.4 49.3901Z" fill="#B2ACAA"/>
<path d="M28.77 50.1999V51.0199L28.72 50.9899V50.1699L28.77 50.1999Z" fill="#B2ACAA"/>
<path d="M37.93 45.5801V46.4201L37.88 46.4401V45.6001L37.93 45.5801Z" fill="#A19B9A"/>
<path d="M36.56 46.3701V47.2101L36.52 47.2301V46.4001L36.56 46.3701Z" fill="#A19B9A"/>
<path d="M35.19 47.1699V47.9999L35.15 48.0199V47.1899L35.19 47.1699Z" fill="#A19B9A"/>
<path d="M33.83 47.96V48.79L33.78 48.81V47.99L33.83 47.96Z" fill="#A19B9A"/>
<path d="M32.46 48.76V49.58L32.42 49.6V48.78L32.46 48.76Z" fill="#A19B9A"/>
<path d="M31.1 49.55V50.37L31.05 50.4001V49.5801L31.1 49.55Z" fill="#A19B9A"/>
<path d="M37.93 47.54V48.38L37.88 48.41V47.56L37.93 47.54Z" fill="#A19B9A"/>
<path d="M36.56 48.3301V49.1701L36.52 49.2001V48.3601L36.56 48.3301Z" fill="#A19B9A"/>
<path d="M35.19 49.1299V49.9599L35.15 49.9899V49.1599L35.19 49.1299Z" fill="#A19B9A"/>
<path d="M33.83 49.9199V50.7499L33.78 50.7799V49.9499L33.83 49.9199Z" fill="#A19B9A"/>
<path d="M32.46 50.72V51.54L32.42 51.57V50.74L32.46 50.72Z" fill="#A19B9A"/>
<path d="M31.1 51.51V52.33L31.05 52.36V51.54L31.1 51.51Z" fill="#A19B9A"/>
<path d="M37.32 46.9199V47.7599L37.27 47.7799V46.9399L37.32 46.9199Z" fill="#A19B9A"/>
<path d="M35.95 47.71V48.55L35.91 48.57V47.74L35.95 47.71Z" fill="#A19B9A"/>
<path d="M34.59 48.51V49.34L34.54 49.36V48.53L34.59 48.51Z" fill="#A19B9A"/>
<path d="M33.22 49.3V50.1301L33.17 50.1501V49.3301L33.22 49.3Z" fill="#A19B9A"/>
<path d="M31.8501 50.1001V50.9201L31.8101 50.9401V50.1201L31.8501 50.1001Z" fill="#A19B9A"/>
<path d="M22.66 47.55V48.46L22.62 48.43V47.52L22.66 47.55Z" fill="#B2ACAA"/>
<path d="M24.03 48.3601V49.2501L23.98 49.2201V48.3301L24.03 48.3601Z" fill="#B2ACAA"/>
<path d="M25.39 49.1699V50.0499L25.35 50.0199V49.1399L25.39 49.1699Z" fill="#B2ACAA"/>
<path d="M26.76 49.9799V50.84L26.71 50.81V49.95L26.76 49.9799Z" fill="#B2ACAA"/>
<path d="M28.13 50.79V51.63L28.08 51.61V50.77L28.13 50.79Z" fill="#B2ACAA"/>
<path d="M29.49 51.6101V52.4301L29.45 52.4001V51.5801L29.49 51.6101Z" fill="#B2ACAA"/>
<path d="M22 49.8201C22 49.8201 21.43 53.5001 29.83 52.5901L22 49.8201Z" fill="#B2ACAA"/>
<path d="M29.65 52.5401L29.27 52.5901H28.81H28.2H27.74H27.13H26.67C26.45 52.5901 26.23 52.5901 26 52.5901H25.54L25 52.4701L24.54 52.3601L24.07 52.2201L23.61 52.0001C23.4504 51.9288 23.2966 51.8452 23.15 51.7501C22.9864 51.6438 22.8325 51.5233 22.69 51.3901C22.5897 51.2998 22.4992 51.1992 22.42 51.0901C22.1406 50.7122 21.9804 50.2595 21.96 49.7901V49.7001V49.0701C22.0164 49.4696 22.1598 49.8519 22.38 50.1901C22.4579 50.3155 22.5484 50.4328 22.65 50.5401C22.7893 50.6916 22.9434 50.829 23.11 50.9501C23.2568 51.0536 23.4105 51.1472 23.57 51.2301C23.7187 51.3097 23.8724 51.3798 24.03 51.4401C24.18 51.4901 24.33 51.5501 24.5 51.5901L24.96 51.7001C25.1379 51.7414 25.3182 51.7715 25.5 51.7901H25.96C26.17 51.7901 26.4 51.7901 26.63 51.7901H27.09H27.7H28.16L28.77 51.7401L29.23 51.6801L29.58 51.6301L29.65 52.5401Z" fill="#CFCFC7"/>
<path d="M22.42 50.22V51.12C22.1406 50.7421 21.9804 50.2895 21.96 49.82V49V49.08C22.0256 49.4898 22.1829 49.8794 22.42 50.22Z" fill="#F7F7F7"/>
<path d="M23.1499 51.0001V51.8001C22.9864 51.6938 22.8324 51.5733 22.6899 51.4401V50.5901C22.8293 50.7416 22.9834 50.879 23.1499 51.0001Z" fill="#F7F7F7"/>
<path d="M24.07 51.47V52.22L23.61 52V51.23C23.758 51.3199 23.9116 51.4 24.07 51.47Z" fill="#F7F7F7"/>
<path d="M25 51.7301V52.4701L24.54 52.3601V51.6201L25 51.7301Z" fill="#F7F7F7"/>
<path d="M26 51.8701V52.6101H25.54V51.8701H26Z" fill="#F7F7F7"/>
<path d="M27.13 51.8999V52.6799H26.67V51.8999H27.13Z" fill="#F7F7F7"/>
<path d="M28.2 51.8501V52.6601H27.74V51.8601L28.2 51.8501Z" fill="#F7F7F7"/>
<path d="M29.2701 51.74V52.59H28.8101V51.8L29.2701 51.74Z" fill="#F7F7F7"/>
<path d="M24.15 48.3599L24.9 48.7699C25.12 48.8899 25.35 49.0099 25.64 49.1999C25.93 49.3899 26.04 49.4599 26.23 49.5699C26.42 49.6799 26.56 49.9499 26.76 50.0499L27.37 50.3799C27.59 50.4899 27.89 50.3799 28.09 50.4999C28.29 50.6199 28.49 50.7799 28.68 50.8699C28.87 50.9599 29.13 51.0999 29.3 51.1899C29.65 51.3599 29.86 51.4399 29.84 51.5499C29.7717 51.6575 29.681 51.749 29.5739 51.8181C29.4669 51.8871 29.3461 51.9321 29.22 51.9499C29.02 52.0099 28.73 51.8099 28.46 51.8499C28.19 51.8899 28 51.9499 27.75 51.9599C27.5 51.9699 27.26 52.1799 27.01 52.1699C26.76 52.1599 26.52 52.1699 26.27 52.1699C26.0215 52.1514 25.7744 52.118 25.53 52.0699C25.29 52.0199 25.08 51.8099 24.85 51.7299C24.62 51.6499 24.36 51.7299 24.07 51.5799C23.8224 51.4692 23.5877 51.3317 23.37 51.1699C23.1514 51.0153 22.9473 50.8412 22.76 50.6499C22.5473 50.4807 22.3529 50.2896 22.18 50.0799C22.0714 49.8339 21.9942 49.5752 21.95 49.3099C21.899 49.2003 21.8726 49.0808 21.8726 48.9599C21.8726 48.839 21.899 48.7196 21.95 48.6099C21.95 48.5299 21.86 48.2399 21.88 48.0099C21.8841 47.8335 21.9556 47.6653 22.08 47.5399C22.24 47.4199 22.46 47.4499 22.78 47.6199C23.1 47.7899 23.13 47.9699 23.38 48.1199C23.63 48.2699 23.91 48.2299 24.15 48.3599Z" fill="#77A47B"/>
<path d="M22.43 48.13C22.59 48.27 22.23 48.36 22.28 48.13C22.23 48.32 21.96 48.13 22.17 48.04C21.96 48.09 22.05 47.77 22.17 47.9C22.01 47.77 22.37 47.67 22.32 47.9C22.37 47.71 22.63 47.9 22.43 48C22.67 47.94 22.59 48.27 22.43 48.13Z" fill="#B36D7A"/>
<path d="M22.27 48C22.54 48.23 22.27 48.3 22.33 48C22.25 48.32 22.03 48.13 22.38 48C22.03 48.09 22.1 47.83 22.38 48.06C22.11 47.83 22.38 47.75 22.31 48.06C22.62 47.93 22.4 47.74 22.31 48.06C22.61 48 22.54 48.23 22.27 48Z" fill="#F9D9CD"/>
<path d="M22.65 48.83C22.81 48.96 22.45 49.06 22.5 48.83C22.45 49.02 22.18 48.83 22.39 48.73C22.18 48.79 22.27 48.46 22.39 48.6C22.23 48.46 22.58 48.37 22.53 48.6C22.58 48.41 22.85 48.6 22.65 48.69C22.89 48.64 22.81 49 22.65 48.83Z" fill="#B36D7A"/>
<path d="M22.49 48.6899C22.76 48.9199 22.49 48.9999 22.55 48.6899C22.47 49.0099 22.25 48.8199 22.6 48.6899C22.25 48.7799 22.32 48.5099 22.6 48.7399C22.34 48.5099 22.6 48.4399 22.54 48.7399C22.85 48.5999 22.63 48.4199 22.54 48.7399C22.83 48.6499 22.76 48.9199 22.49 48.6899Z" fill="#F9D9CD"/>
<path d="M23.13 48.1601C23.29 48.2901 22.93 48.3901 22.98 48.1601C22.93 48.3501 22.66 48.1601 22.87 48.0601C22.66 48.1201 22.75 47.7901 22.87 47.9301C22.71 47.7901 23.07 47.7001 23.02 47.9301C23.07 47.7401 23.33 47.9301 23.13 48.0201C23.37 48.0001 23.29 48.2901 23.13 48.1601Z" fill="#B36D7A"/>
<path d="M23 48C23.27 48.23 23 48.31 23.06 48C22.98 48.33 22.76 48.14 23.06 48C22.71 48.09 22.78 47.82 23.06 48.05C22.79 47.82 23.06 47.75 22.99 48.05C23.3 47.91 23.08 47.73 22.99 48.05C23.31 48 23.24 48.25 23 48Z" fill="#F9D9CD"/>
<path d="M22.65 49.44C22.81 49.58 22.45 49.67 22.5 49.44C22.45 49.63 22.18 49.44 22.39 49.35C22.18 49.35 22.27 49.08 22.39 49.21C22.23 49.08 22.58 48.98 22.53 49.21C22.58 49.02 22.85 49.21 22.65 49.31C22.89 49.25 22.81 49.58 22.65 49.44Z" fill="#B36D7A"/>
<path d="M22.49 49.3101C22.76 49.5401 22.49 49.6101 22.55 49.3101C22.47 49.6301 22.25 49.4401 22.6 49.3101C22.25 49.4001 22.32 49.1401 22.6 49.3701C22.34 49.1401 22.6 49.0601 22.54 49.3701C22.85 49.2401 22.63 49.0501 22.54 49.3701C22.83 49.2701 22.76 49.5401 22.49 49.3101Z" fill="#F9D9CD"/>
<path d="M23.6 49.0499C23.75 49.1899 23.4 49.2799 23.45 49.0499C23.4 49.2399 23.13 49.0499 23.34 48.9499C23.13 49.0099 23.22 48.6799 23.34 48.8199C23.19 48.6799 23.54 48.5899 23.49 48.8199C23.54 48.6299 23.81 48.8199 23.6 48.9099C23.84 48.8599 23.75 49.1899 23.6 49.0499Z" fill="#B36D7A"/>
<path d="M23.44 48.91C23.7 49.14 23.44 49.22 23.5 48.91C23.41 49.23 23.2 49.04 23.55 48.91C23.2 49 23.27 48.74 23.55 48.97C23.29 48.74 23.55 48.66 23.49 48.97C23.79 48.84 23.57 48.65 23.49 48.97C23.77 48.88 23.7 49.14 23.44 48.91Z" fill="#F9D9CD"/>
<path d="M25.51 51.71C25.66 51.84 25.31 51.94 25.36 51.71C25.31 51.9 25.04 51.71 25.24 51.61C25.04 51.66 25.12 51.34 25.24 51.47C25.08 51.34 25.44 51.24 25.39 51.47C25.44 51.28 25.71 51.47 25.5 51.57C25.75 51.51 25.66 51.84 25.51 51.71Z" fill="#B36D7A"/>
<path d="M25.35 51.5701C25.61 51.8001 25.35 51.8701 25.41 51.5701C25.32 51.8901 25.1 51.7101 25.46 51.5701C25.1 51.6701 25.17 51.4001 25.46 51.6301C25.19 51.4001 25.46 51.3201 25.4 51.6301C25.48 51.3001 25.7 51.4901 25.35 51.6301C25.68 51.5301 25.61 51.8001 25.35 51.5701Z" fill="#F9D9CD"/>
<path d="M23.6 49.69C23.75 49.82 23.4 49.92 23.45 49.69C23.4 49.88 23.13 49.69 23.34 49.59C23.13 49.65 23.22 49.32 23.34 49.45C23.19 49.32 23.54 49.22 23.49 49.45C23.54 49.26 23.81 49.45 23.6 49.55C23.84 49.5 23.75 49.82 23.6 49.69Z" fill="#B36D7A"/>
<path d="M23.44 49.55C23.7 49.78 23.44 49.86 23.5 49.55C23.41 49.88 23.2 49.69 23.55 49.55C23.2 49.65 23.27 49.38 23.55 49.61C23.29 49.38 23.55 49.31 23.49 49.61C23.79 49.47 23.57 49.29 23.49 49.61C23.77 49.51 23.7 49.78 23.44 49.55Z" fill="#F9D9CD"/>
<path d="M23 50.33C23.16 50.47 22.8 50.56 22.85 50.33C22.8 50.52 22.53 50.33 22.74 50.23C22.53 50.29 22.62 49.96 22.74 50.1C22.59 49.96 22.94 49.87 22.89 50.1C22.94 49.91 23.21 50.1 23.01 50.2C23.27 50.14 23.19 50.47 23 50.33Z" fill="#B36D7A"/>
<path d="M22.87 50.19C23.14 50.42 22.87 50.5 22.93 50.19C22.85 50.51 22.63 50.32 22.98 50.19C22.63 50.28 22.7 50.02 22.98 50.25C22.72 50.02 22.98 49.94 22.92 50.25C23.23 50.12 23.01 49.93 22.92 50.25C23.21 50.16 23.14 50.42 22.87 50.19Z" fill="#F9D9CD"/>
<path d="M23.8201 51.0999C23.9701 51.2299 23.6201 51.3299 23.6701 51.0999C23.6201 51.2899 23.3501 51.0999 23.5601 50.9999C23.3501 51.0599 23.4401 50.7299 23.5601 50.8599C23.4101 50.7299 23.7601 50.6299 23.7101 50.8599C23.7601 50.6699 24.0301 50.8599 23.8201 50.9599C24.0601 50.9099 24.0001 51.2299 23.8201 51.0999Z" fill="#B36D7A"/>
<path d="M23.6601 51C23.9201 51.23 23.6601 51.31 23.7201 51C23.6301 51.33 23.4201 51.14 23.7701 51C23.4201 51.1 23.4901 50.83 23.7701 51.06C23.5101 50.83 23.7701 50.75 23.7101 51.06C23.7901 50.73 24.0101 50.92 23.6601 51.06C24.0001 50.92 23.9201 51.19 23.6601 51Z" fill="#F9D9CD"/>
<path d="M26 49.9401C26.16 50.0701 25.81 50.1701 25.86 49.9401C25.86 50.1301 25.54 49.9401 25.74 49.8401C25.54 49.9001 25.62 49.5701 25.74 49.7101C25.58 49.5701 25.94 49.4801 25.89 49.7101C25.94 49.5201 26.21 49.7101 26 49.8001C26.22 49.7501 26.13 50.0701 26 49.9401Z" fill="#B36D7A"/>
<path d="M25.81 49.8C26.08 50.03 25.81 50.11 25.88 49.8C25.79 50.12 25.57 49.93 25.88 49.8C25.53 49.89 25.6 49.62 25.88 49.85C25.61 49.62 25.88 49.55 25.82 49.85C25.9 49.53 26.12 49.71 25.77 49.85C26.15 49.76 26.08 50 25.81 49.8Z" fill="#F9D9CD"/>
<path d="M25.06 50.0001C25.22 50.1301 24.86 50.2301 24.91 50.0001C24.86 50.1901 24.59 50.0001 24.8 49.9001C24.59 49.9601 24.68 49.6301 24.8 49.7601C24.64 49.6301 25 49.5301 24.95 49.7601C25 49.5701 25.26 49.7601 25.06 49.8601C25.3 49.8201 25.22 50.1401 25.06 50.0001Z" fill="#B36D7A"/>
<path d="M24.9 49.8701C25.17 50.1001 24.9 50.1801 24.96 49.8701C24.88 50.2001 24.66 50.0101 25.01 49.8701C24.66 49.9701 24.73 49.7001 25.01 49.9301C24.74 49.7001 25.01 49.6301 24.94 49.9301C25.25 49.7901 25.03 49.6101 24.94 49.9301C25.24 49.8301 25.17 50.1001 24.9 49.8701Z" fill="#F9D9CD"/>
<path d="M24.9999 49.22C25.2099 49.27 24.9999 49.51 24.8999 49.32C24.9599 49.51 24.5999 49.43 24.7499 49.32C24.5999 49.46 24.4899 49.14 24.6999 49.18C24.4899 49.18 24.7499 48.89 24.8099 49.08C24.7499 48.89 25.1099 48.97 24.9599 49.08C25.1099 48.94 25.2099 49.27 24.9999 49.22Z" fill="#B36D7A"/>
<path d="M24.79 49.1699C25.15 49.2499 24.94 49.4499 24.84 49.1699C24.94 49.4899 24.65 49.4199 24.9 49.1699C24.65 49.4099 24.56 49.1699 24.9 49.2299C24.54 49.1499 24.75 48.9499 24.85 49.2299C24.75 48.9099 25.04 48.9799 24.79 49.2299C25.06 48.9999 25.15 49.2499 24.79 49.1699Z" fill="#F9D9CD"/>
<path d="M26.78 51.8001C26.99 51.8501 26.78 52.0901 26.67 51.9001C26.74 52.0901 26.37 52.0101 26.52 51.9001C26.37 52.0401 26.27 51.7201 26.52 51.7601C26.31 51.7601 26.5699 51.4801 26.6299 51.6601C26.5699 51.4801 26.93 51.5501 26.78 51.6601C26.89 51.5201 27 51.8501 26.78 51.8001Z" fill="#B36D7A"/>
<path d="M26.57 51.75C26.92 51.83 26.72 52.03 26.57 51.75C26.68 52.07 26.38 52.01 26.63 51.75C26.38 52 26.3 51.75 26.63 51.81C26.48 51.54 26.28 51.73 26.63 51.81C26.52 51.5 26.82 51.56 26.57 51.81C26.84 51.57 26.92 51.83 26.57 51.75Z" fill="#F9D9CD"/>
<path d="M27.57 51.48C27.78 51.53 27.52 51.77 27.46 51.58C27.52 51.77 27.16 51.69 27.31 51.58C27.16 51.72 27.06 51.4 27.31 51.45C27.1 51.4 27.31 51.16 27.41 51.34C27.35 51.16 27.71 51.24 27.57 51.34C27.67 51.21 27.78 51.53 27.57 51.48Z" fill="#B36D7A"/>
<path d="M27.3599 51.43C27.7099 51.51 27.4999 51.71 27.3599 51.43C27.4599 51.75 27.1699 51.69 27.4199 51.43C27.1699 51.67 27.0899 51.43 27.4199 51.48C27.2699 51.21 27.0699 51.4 27.4199 51.48C27.3099 51.16 27.6099 51.22 27.3499 51.48C27.6299 51.25 27.7099 51.51 27.3599 51.43Z" fill="#F9D9CD"/>
<path d="M28.3901 51.6399C28.6001 51.6399 28.3401 51.9299 28.2801 51.7399C28.3401 51.9299 27.9801 51.8499 28.1301 51.7399C27.9801 51.8799 27.8801 51.5599 28.1301 51.6099C27.9201 51.6099 28.1301 51.3199 28.2301 51.4999C28.1701 51.3199 28.5301 51.3999 28.3801 51.4999C28.4901 51.3699 28.6001 51.6899 28.3901 51.6399Z" fill="#B36D7A"/>
<path d="M28.17 51.5999C28.53 51.6699 28.32 51.8699 28.17 51.5499C28.27 51.8699 27.98 51.8099 28.23 51.5499C27.98 51.7899 27.89 51.5499 28.23 51.5499C27.87 51.4799 28.08 51.2799 28.23 51.5999C28.12 51.2799 28.41 51.3399 28.16 51.5999C28.44 51.4099 28.53 51.6699 28.17 51.5999Z" fill="#F9D9CD"/>
<path d="M29.2499 51.5899C29.4599 51.5899 29.2499 51.8799 29.1499 51.6899C29.2099 51.8799 28.8499 51.7999 28.9999 51.6899C28.8499 51.8299 28.7399 51.4999 28.9499 51.5499C28.7399 51.4999 28.9999 51.2599 29.0599 51.4499C28.9999 51.2599 29.3599 51.3399 29.2099 51.4499C29.3599 51.3099 29.4599 51.6299 29.2499 51.5899Z" fill="#B36D7A"/>
<path d="M29 51.5401C29.36 51.6201 29.15 51.8201 29 51.5401C29.11 51.8601 28.81 51.7901 29.07 51.5401C28.81 51.7801 28.73 51.54 29.07 51.6C28.71 51.52 28.92 51.32 29.02 51.6C28.92 51.28 29.21 51.35 28.96 51.6C29.31 51.36 29.4 51.6201 29 51.5401Z" fill="#F9D9CD"/>
<path d="M28.78 51.0001C28.99 51.0001 28.73 51.2901 28.67 51.1101C28.73 51.2901 28.37 51.2201 28.52 51.1101C28.37 51.2601 28.27 50.9301 28.52 50.9801C28.31 50.9801 28.52 50.6901 28.62 50.8801C28.56 50.6901 28.92 50.7701 28.77 50.8801C28.88 50.7301 29 51.0501 28.78 51.0001Z" fill="#B36D7A"/>
<path d="M28.56 51.0001C28.92 51.0801 28.71 51.2701 28.61 51.0001C28.71 51.3101 28.42 51.2501 28.67 51.0001C28.42 51.2401 28.33 51.0001 28.67 51.0601C28.52 50.7801 28.31 50.9801 28.67 51.0601C28.56 50.7401 28.86 50.8001 28.6 51.0601C28.84 50.7701 28.92 51.0001 28.56 51.0001Z" fill="#F9D9CD"/>
<path d="M28.06 50.8201C28.27 50.8201 28.06 51.1101 27.95 50.9201C28.01 51.1101 27.65 51.0301 27.8 50.9201C27.65 51.0601 27.54 50.7301 27.75 50.7801C27.54 50.7801 27.8 50.4901 27.86 50.6801C27.8 50.4901 28.16 50.5701 28.01 50.6801C28.16 50.5401 28.27 50.8601 28.06 50.8201Z" fill="#B36D7A"/>
<path d="M27.8401 50.77C28.2001 50.85 27.9901 51.05 27.8901 50.77C27.9901 51.09 27.7001 51.02 27.9501 50.77C27.7001 51.01 27.6101 50.77 27.9501 50.83C27.8001 50.55 27.5901 50.75 27.9501 50.83C27.8501 50.51 28.1401 50.58 27.8901 50.83C28.1101 50.59 28.2001 50.85 27.8401 50.77Z" fill="#F9D9CD"/>
<path d="M29.71 51.2801C29.92 51.2801 29.66 51.5701 29.6 51.3801C29.66 51.5701 29.3 51.4901 29.45 51.3801C29.3 51.5201 29.2 51.2001 29.45 51.2401C29.24 51.2401 29.45 50.9501 29.56 51.1401C29.49 50.9501 29.86 51.0301 29.71 51.1401C29.82 51.0001 29.92 51.3201 29.71 51.2801Z" fill="#B36D7A"/>
<path d="M29.5 51.23C29.85 51.31 29.65 51.51 29.5 51.23C29.61 51.55 29.31 51.48 29.56 51.23C29.31 51.47 29.23 51.23 29.56 51.29C29.41 51.01 29.21 51.21 29.56 51.29C29.45 50.97 29.75 51.04 29.49 51.29C29.77 51.05 29.85 51.31 29.5 51.23Z" fill="#F9D9CD"/>
<path d="M24.32 50.3101C24.53 50.3101 24.27 50.6001 24.21 50.4101C24.27 50.6001 23.91 50.5201 24.06 50.4101C23.91 50.5501 23.81 50.2301 24.06 50.2701C23.85 50.2701 24.06 49.9801 24.16 50.1701C24.1 49.9801 24.46 50.0601 24.31 50.1701C24.42 50.0001 24.53 50.3501 24.32 50.3101Z" fill="#B36D7A"/>
<path d="M24.1 50.26C24.46 50.34 24.25 50.54 24.1 50.26C24.2 50.58 23.91 50.51 24.16 50.26C23.91 50.5 23.82 50.26 24.16 50.32C24.01 50.04 23.8 50.24 24.16 50.32C24.05 50 24.34 50.07 24.09 50.32C24.37 50.08 24.46 50.34 24.1 50.26Z" fill="#F9D9CD"/>
<path d="M26.11 51.0899C26.32 51.0899 26.06 51.3799 26 51.1899C26.06 51.3799 25.7 51.2999 25.85 51.1899C25.7 51.3299 25.6 51.0099 25.85 51.0499C25.64 51.0499 25.85 50.7599 25.95 50.9499C25.89 50.7599 26.25 50.8399 26.1 50.9499C26.21 50.8099 26.32 51.1299 26.11 51.0899Z" fill="#B36D7A"/>
<path d="M25.89 51C26.25 51.08 26.04 51.28 25.94 51C26.04 51.32 25.75 51.25 26 51C25.75 51.24 25.66 51 26 51.06C25.85 50.78 25.64 50.98 26 51.06C25.89 50.74 26.18 50.81 25.93 51.06C26.16 50.86 26.25 51.12 25.89 51Z" fill="#F9D9CD"/>
<path d="M26.19 50.4099C26.14 50.2199 26.5 50.3199 26.34 50.4099C26.5 50.2799 26.58 50.5999 26.34 50.5499C26.55 50.5499 26.28 50.8299 26.23 50.6399C26.23 50.8299 25.93 50.7299 26.08 50.6399C25.93 50.7699 25.84 50.4499 26.08 50.4999C25.87 50.4499 26.14 50.2199 26.19 50.4099Z" fill="#B36D7A"/>
<path d="M26.24 50.6C26.16 50.28 26.45 50.36 26.18 50.6C26.45 50.37 26.51 50.6 26.18 50.54C26.53 50.63 26.31 50.82 26.23 50.54C26.31 50.86 26.03 50.78 26.29 50.54C26.03 50.77 25.96 50.54 26.29 50.6C25.94 50.47 26.16 50.28 26.24 50.6Z" fill="#F9D9CD"/>
<path d="M27.1099 50.73C27.0599 50.54 27.4199 50.64 27.2599 50.73C27.4199 50.6 27.4999 50.92 27.2599 50.87C27.4599 50.92 27.1899 51.15 27.1399 50.96C27.1899 51.15 26.8399 51.06 26.9899 50.96C26.8399 51.1 26.7499 50.77 26.9899 50.83C26.7899 50.77 27.0599 50.54 27.1099 50.73Z" fill="#B36D7A"/>
<path d="M27.16 50.92C27.08 50.6 27.3701 50.68 27.1001 50.92C27.3701 50.69 27.4401 50.92 27.1001 50.86C27.4501 50.96 27.2301 51.14 27.1001 50.86C27.1901 51.18 26.9 51.1 27.17 50.86C26.9 51.08 26.83 50.86 27.17 50.91C26.86 50.79 27.08 50.6 27.16 50.92Z" fill="#F9D9CD"/>
<path d="M26.9401 50.1901C26.8901 50.0001 27.2401 50.0901 27.0801 50.1901C27.2401 50.0501 27.3301 50.3801 27.0801 50.3301C27.2901 50.3801 27.01 50.6101 26.97 50.4201C26.97 50.6101 26.6601 50.5101 26.8201 50.4201C26.6601 50.5501 26.5801 50.2301 26.8201 50.2801C26.6201 50.2301 26.8901 50.0001 26.9401 50.1901Z" fill="#B36D7A"/>
<path d="M27 50.38C26.91 50.06 27.2 50.14 26.93 50.38C27.27 50.38 27.2 50.16 26.93 50.38C27.28 50.47 27.06 50.66 26.98 50.38C27.06 50.7 26.77 50.62 27.04 50.38C26.77 50.61 26.7 50.38 27.04 50.44C26.68 50.25 26.9 50.06 27 50.38Z" fill="#F9D9CD"/>
<path d="M25.06 50.89C25.22 51.02 24.86 51.11 24.91 50.89C24.86 51.08 24.59 50.89 24.8 50.8C24.59 50.85 24.68 50.53 24.8 50.66C24.64 50.53 25 50.43 24.95 50.66C25 50.47 25.26 50.66 25.06 50.76C25.3 50.69 25.22 51 25.06 50.89Z" fill="#B36D7A"/>
<path d="M24.9 50.75C25.17 50.98 24.9 51.05 24.96 50.75C24.88 51.07 24.66 50.89 25.01 50.75C24.66 50.85 24.73 50.58 25.01 50.81C24.74 50.58 25.01 50.5 24.94 50.81C25.25 50.67 25.03 50.48 24.94 50.81C25.24 50.71 25.17 51 24.9 50.75Z" fill="#F9D9CD"/>
<path d="M24.28 48.8099C24.44 48.9399 24.08 49.0399 24.13 48.8099C24.08 48.9999 23.81 48.8099 24.02 48.7099C23.81 48.7699 23.9 48.4399 24.02 48.5699C23.87 48.4399 24.22 48.3399 24.17 48.5699C24.22 48.3799 24.49 48.5699 24.29 48.6699C24.52 48.6199 24.44 48.9399 24.28 48.8099Z" fill="#B36D7A"/>
<path d="M24.12 48.6699C24.39 48.8999 24.12 48.9799 24.18 48.6699C24.1 48.9999 23.88 48.8099 24.23 48.6699C23.88 48.7699 23.95 48.4999 24.23 48.7299C23.97 48.4999 24.23 48.4299 24.17 48.7299C24.48 48.5899 24.26 48.4099 24.17 48.7299C24.46 48.6299 24.39 48.8999 24.12 48.6699Z" fill="#F9D9CD"/>
<path d="M26 45.1199C26.24 44.9099 26 44.6399 25.78 44.8399C25.56 45.0399 25.46 45.3799 25.78 45.4399C25.78 45.5599 25.59 45.5499 25.6 45.7599C25.61 45.9699 25.6 46.0799 25.5 46.0499C25.426 45.9687 25.3729 45.8708 25.345 45.7646C25.3171 45.6583 25.3154 45.5469 25.34 45.4399C25.64 45.1599 25.48 45.1999 25.72 44.7399C25.66 44.6599 25.38 44.4799 25.44 44.3599C25.91 44.2299 26.06 44.7499 26.31 44.9899C26.76 44.8799 27.31 45.7499 26.6 45.3799C26.8 45.1399 26.54 45.1599 26.31 45.0899C26.08 45.0199 26.25 45.6699 26 45.1199Z" fill="#EFE6C6"/>
<path d="M26.79 46.8C27.13 47.12 27.1 46.64 27.05 46.39C27.23 46.39 27.19 46.94 27.3 47.14C26.94 47.28 26.12 46.54 26.41 46.02C26.56 46.27 26.43 46.64 26.79 46.8Z" fill="#EFE6C6"/>
<path d="M26.07 45.47C26.21 45.7 26.54 45.61 26.55 45.94C26.26 45.7 25.95 46.51 25.73 46C26.61 45.85 25.86 45.73 26.07 45.47Z" fill="#EFE6C6"/>
<path d="M26.48 44.8599C26.53 44.8599 26.6 44.7999 26.55 44.6999C26.42 44.1399 27.12 45.1599 26.49 44.8799L26.48 44.8599Z" fill="#EFE6C6"/>
<path d="M26.3101 45.4401C26.3601 45.4401 26.4201 45.4401 26.3701 45.3001C26.6401 45.1401 26.7101 45.8401 26.3101 45.4401Z" fill="#EFE6C6"/>
<path d="M26.3 42.2601C26.49 42.1201 26.35 41.9601 26.24 41.7801C26.13 41.6001 26.06 41.9901 26.02 41.7801C25.98 41.5701 25.95 41.3101 26.02 41.1201C26.0692 41.1933 26.1127 41.2702 26.15 41.3501C26.54 41.9101 26.45 41.1701 26.62 41.3501C26.79 41.5301 26.62 41.6201 26.74 41.7601C26.86 41.9001 27.02 41.7601 27.12 41.9401C27.22 42.1201 26.85 42.2701 26.71 42.3901C26.57 42.5101 26.47 42.2501 26.35 42.3301L26.3 42.2601ZM26.56 41.7801C26.56 42.0301 26.92 42.3101 26.87 41.9201C26.82 41.8601 26.59 41.6301 26.56 41.7801ZM26.56 41.9901C26.41 41.9401 26.56 42.2401 26.62 42.2101C26.68 42.1801 26.59 42.0601 26.55 42.0001L26.56 41.9901ZM26.3 41.6601C26.3 41.6001 26.23 41.5001 26.19 41.5701C26.15 41.6401 26.22 41.6701 26.29 41.6601H26.3ZM26.48 41.8201C26.48 41.7501 26.48 41.7201 26.38 41.7401V41.8301L26.48 41.8201Z" fill="#EFE6C6"/>
<path d="M26.17 43.26C26.4 43.49 26.38 42.93 26.17 42.91C25.68 42.91 25.54 42.44 26.11 42.74C26.25 42.74 27.11 43.33 26.57 43.13C26.26 42.91 26.57 43.49 26.35 43.54C26.13 43.59 25.93 43.07 26.14 43.26H26.17Z" fill="#EFE6C6"/>
<path d="M26.42 42.7199C26.84 42.2699 25.42 42.5799 25.55 42.1499C25.89 41.9899 27.7 42.9799 26.42 42.7299V42.7199Z" fill="#EFE6C6"/>
<path d="M25.81 41.39C25.8588 41.4438 25.8932 41.5092 25.91 41.58C25.91 41.64 25.91 41.7 25.96 41.77C26.01 41.84 25.96 41.93 25.96 41.91C25.96 41.89 25.91 41.91 25.9 41.82C25.8825 41.7253 25.8592 41.6317 25.83 41.54C25.8345 41.5001 25.8345 41.4598 25.83 41.42C25.74 41.36 25.76 41.35 25.81 41.39Z" fill="#EFE6C6"/>
<path d="M27 30.0001C27.23 31.2501 26.76 30.6501 26.71 29.8601C26.35 29.8101 25.6 30.3301 25.42 29.6101C25.69 29.7501 26.76 29.9201 26.34 29.3401C26.19 29.3401 26.28 29.6701 26.08 29.4201C26.27 28.5901 25.62 29.0901 25.42 28.5401C26.69 28.9901 26.55 29.1301 26.51 27.8201C26.94 28.0201 26.31 28.8201 26.87 29.0301C26.87 29.1201 26.81 29.1001 26.77 29.0301C26.73 28.9601 26.71 29.4001 26.77 29.5501C26.83 29.7001 26.93 30.3801 27.02 29.9501L27 30.0001ZM26.65 29.4901C26.65 29.3301 26.47 28.7401 26.39 29.0701C26.49 29.2101 26.52 29.6101 26.67 29.5101L26.65 29.4901ZM26.37 29.1601C26.37 29.0801 26.28 28.8401 26.17 28.9501C26.06 29.0601 26.3 29.3701 26.39 29.1801L26.37 29.1601Z" fill="#EFE6C6"/>
<path d="M27 29.0001V28.7401C27 28.6901 27 28.6801 27.05 28.7401C27.1037 28.7919 27.1418 28.8577 27.16 28.9301C27.1891 29.007 27.2059 29.088 27.21 29.1701C27.2114 29.1819 27.2104 29.1939 27.2071 29.2053C27.2039 29.2168 27.1983 29.2275 27.1909 29.2368C27.1834 29.2461 27.1742 29.2538 27.1638 29.2595C27.1533 29.2652 27.1418 29.2688 27.13 29.2701C27.13 29.2701 27 29.1001 27 29.0001Z" fill="#EFE6C6"/>
<path d="M25.9301 28.27C26.7301 28.39 26.4601 28.91 25.9301 28.27Z" fill="#EFE6C6"/>
<path d="M25.9 29.2401C26.14 29.4601 25.9 29.7701 25.83 29.3801C25.87 29.3601 25.82 29.1901 25.9 29.2401Z" fill="#EFE6C6"/>
<path d="M26.83 32.85C27.09 33.07 26.74 33.57 26.58 33.79C26.12 33.87 26.1999 32.99 26.0599 32.93C26.5499 33.02 26.24 33.24 26.34 33.42C26.52 33.96 26.71 33.26 26.78 33.01C26.56 32.85 26.16 32.93 25.95 32.73C26.096 32.6808 26.2514 32.6661 26.404 32.6869C26.5567 32.7077 26.7024 32.7635 26.83 32.85Z" fill="#EFE6C6"/>
<path d="M26.35 32.4601C25.85 32.0401 26.35 31.6101 26.6 32.2901C27.1 31.8801 26.52 31.8001 26.22 31.6001C26.45 31.6001 26.98 31.7101 26.94 32.0201C26.9 32.3301 26.65 32.7101 26.35 32.4601ZM26.2 32.0601C26.2 32.1401 26.29 32.3501 26.37 32.2501C26.45 32.1501 26.27 31.8801 26.2 32.0601Z" fill="#EFE6C6"/>
<path d="M25.9 31.79C25.9459 31.8533 25.9798 31.9245 26 32V32.1C26.0049 32.1499 26.0049 32.2002 26 32.25C26 32.25 26 32.25 26 32.3C25.9708 32.2752 25.9469 32.2445 25.93 32.21C25.9265 32.1534 25.9265 32.0967 25.93 32.04C25.9252 31.9835 25.9252 31.9266 25.93 31.87C25.93 31.87 25.9 31.83 25.9 31.79Z" fill="#EFE6C6"/>
<path d="M25.84 33.2401C25.7816 33.1823 25.7401 33.1097 25.72 33.0301V32.8801V32.8101L25.79 32.8701C25.8176 32.9283 25.841 32.9885 25.86 33.0501V33.1501C25.86 33.1501 25.86 33.2201 25.86 33.2401H25.84Z" fill="#EFE6C6"/>
<path d="M26.16 35.4901C26.25 35.4301 26.42 35.4301 26.4 35.3101C26.1 35.1901 25.73 35.7201 25.48 35.3101C25.48 35.2001 25.61 35.2601 25.67 35.2601C26 35.3201 26.43 35.0901 26.67 35.1901C27.09 35.5701 26.43 35.5001 26.17 35.5201L26.16 35.4901Z" fill="#EFE6C6"/>
<path d="M26.34 36.57C26.34 36.57 26.34 36.57 26.34 36.49L26.29 36.44C26.2738 36.4282 26.2602 36.4132 26.2499 36.396C26.2396 36.3789 26.2328 36.3598 26.23 36.34C26.23 36.34 26.23 36.27 26.23 36.27C26.23 36.27 26.23 36.27 26.31 36.33L26.37 36.42C26.37 36.48 26.45 36.42 26.44 36.42C26.4375 36.3792 26.4264 36.3394 26.4074 36.3032C26.3885 36.267 26.3621 36.2353 26.33 36.21L26.25 36.14C26.2383 36.1111 26.2383 36.0788 26.25 36.05L26.36 36.13C26.36 36.13 26.43 36.13 26.44 36.13C26.45 36.13 26.44 36.08 26.44 36.06C26.4449 35.9934 26.4449 35.9266 26.44 35.86C26.4453 35.8491 26.4481 35.8371 26.4481 35.825C26.4481 35.8129 26.4453 35.8009 26.44 35.79C26.44 35.79 26.44 35.79 26.38 35.79L26.17 35.86C26.17 35.86 26.17 35.86 26.12 35.86C26.07 35.86 26.12 35.79 26.12 35.78L26.32 35.73H26.44C26.4633 35.7357 26.4843 35.7484 26.5003 35.7662C26.5164 35.784 26.5267 35.8062 26.53 35.83C26.5348 35.8865 26.5348 35.9434 26.53 36C26.5348 36.0599 26.5348 36.1201 26.53 36.18C26.5091 36.3995 26.5091 36.6205 26.53 36.84C26.535 36.8932 26.535 36.9468 26.53 37C26.53 37 26.53 37 26.46 37L26.35 36.9V36.85C26.41 36.85 26.43 36.85 26.42 36.85C26.4169 36.8238 26.4069 36.799 26.3911 36.7779C26.3753 36.7569 26.3542 36.7403 26.33 36.73L26.26 36.67L26.34 36.57Z" fill="#EFE6C6"/>
<path d="M26.08 35.6101C26.08 35.6101 26.08 35.6701 26.08 35.6901C26.0899 35.8199 26.0899 35.9503 26.08 36.0801C26.0703 36.1966 26.0703 36.3136 26.08 36.4301C26.08 36.5101 26.08 36.5901 26.08 36.6701C26.037 36.5728 26.0198 36.466 26.03 36.3601C26.03 36.2401 26.03 36.1301 26.03 36.0101C26.0461 35.9074 26.0461 35.8028 26.03 35.7001C26.0243 35.6737 26.0243 35.6465 26.03 35.6201L26.08 35.6101Z" fill="#EFE6C6"/>
<path d="M26.74 34.9399C26.66 35.0699 26.45 34.9399 26.33 34.9399C26.42 34.7299 26.7 34.6499 26.74 34.9399Z" fill="#EFE6C6"/>
<path d="M26.06 34.87C26.0563 34.8368 26.0563 34.8033 26.06 34.77C26.06 34.72 26.06 34.77 26.06 34.77C26.085 34.7817 26.1123 34.7877 26.14 34.7877C26.1676 34.7877 26.1949 34.7817 26.22 34.77C26.22 34.77 26.11 34.91 26.06 34.87Z" fill="#EFE6C6"/>
<path d="M26 38.87C26.0048 38.8101 26.0048 38.7499 26 38.69C26.0055 38.6704 26.0055 38.6496 26 38.63C25.96 38.6007 25.9316 38.5582 25.92 38.51C25.92 38.51 25.92 38.51 26 38.51C26.0427 38.5206 26.0873 38.5206 26.13 38.51V38.46L26.04 38.37C26.04 38.37 26.04 38.37 26.12 38.37C26.1623 38.3831 26.2076 38.3831 26.25 38.37C26.25 38.37 26.25 38.37 26.25 38.3V38.22L26.46 38.31C26.4737 38.3188 26.4853 38.3305 26.494 38.3443C26.5026 38.3582 26.5081 38.3738 26.51 38.39C26.51 38.47 26.51 38.5 26.45 38.49C26.39 38.48 26.38 38.49 26.45 38.61C26.52 38.73 26.45 38.7 26.45 38.7H26.33C26.28 38.7 26.27 38.7 26.33 38.8C26.39 38.9 26.39 38.98 26.33 39.02C26.33 39.02 26.25 39.15 26.19 39.19C26.1831 39.2094 26.1831 39.2306 26.19 39.25C26.1855 39.2865 26.1855 39.3234 26.19 39.36V39.44H26.27L26.39 39.39C26.369 39.4275 26.342 39.4613 26.31 39.49C26.2675 39.5289 26.2205 39.5624 26.17 39.59C26.17 39.59 26.17 39.65 26.17 39.71C26.17 39.77 26.17 39.91 26.17 40C26.17 40.09 26.17 40.07 26.07 40C26.0222 39.929 25.9687 39.8621 25.91 39.8C25.84 39.71 25.82 39.62 25.91 39.59L26.07 39.49C26.0753 39.4791 26.078 39.4671 26.078 39.455C26.078 39.4428 26.0753 39.4309 26.07 39.42C26.075 39.3567 26.075 39.2932 26.07 39.23C26.0723 39.2025 26.067 39.1748 26.0547 39.1501C26.0423 39.1254 26.0234 39.1046 26 39.09L25.81 38.96C25.7853 38.9435 25.7651 38.9212 25.7512 38.895C25.7372 38.8688 25.7299 38.8396 25.73 38.81C25.73 38.81 25.73 38.81 25.79 38.81C25.84 38.9 25.85 38.91 25.91 38.92H26.04C26.04 38.92 25.94 38.91 26 38.87Z" fill="#EFE6C6"/>
<path d="M26.37 39.66C26.3099 39.3664 26.3099 39.0636 26.37 38.77C26.4129 39.2133 26.5715 39.6374 26.83 40C26.76 40 26.64 39.8 26.56 39.84C26.64 40.6 26.32 40.14 26.37 39.66Z" fill="#EFE6C6"/>
<path d="M26.75 37.94C27.05 38.17 26.67 38.32 26.48 38.1C26.58 38.05 26.63 37.84 26.75 37.94Z" fill="#EFE6C6"/>
<path d="M27 39.35V39.3L26.86 39.07V38.96C26.86 38.96 26.97 38.96 27.03 39.11C27.0558 39.1395 27.0761 39.1733 27.09 39.21C27.0944 39.2498 27.0944 39.2901 27.09 39.33C27.09 39.33 27.06 39.41 27 39.35Z" fill="#EFE6C6"/>
<path d="M26.1501 37.9C26.1501 37.9 26.0901 37.95 26.0501 37.96C26.0101 37.97 25.9501 37.86 25.9301 37.82C25.9862 37.8097 26.0439 37.8097 26.1001 37.82C26.1001 37.82 26.1301 37.86 26.1501 37.9Z" fill="#EFE6C6"/>
</svg>
