<svg id="图层_1" data-name="图层 1" xmlns="http://www.w3.org/2000/svg" viewBox="0 0 60 60"><defs><style>.cls-1{fill:#948175;}.cls-2{fill:#0a6035;}.cls-3{fill:#46af82;}.cls-4{fill:#7f71a3;}.cls-5{fill:#006837;}.cls-6{fill:#508999;}.cls-7{fill:#72a0ad;}.cls-8{fill:#c7c7c7;}.cls-9{fill:#8ec1bf;}.cls-10{fill:#949494;}.cls-11{fill:#5182af;}.cls-12{fill:#e1e1e1;}.cls-13{fill:#ededed;}.cls-14{fill:#1b9cc9;}.cls-15{fill:#8dc7cc;}.cls-16{fill:#78aad1;}.cls-17{fill:#fff;}.cls-18{fill:#5c9aa9;}.cls-19{fill:#aeaeae;}.cls-20{fill:#d9edea;}.cls-21{fill:none;}.cls-22,.cls-36{fill:#8bdfea;}.cls-22,.cls-33{opacity:0.8;}.cls-23{fill:#64b28e;}.cls-24{fill:#666;}.cls-25{fill:#7fceda;}.cls-26{fill:#1589b7;}.cls-26,.cls-27{opacity:0.7;}.cls-27{fill:#3bb1e0;}.cls-28{fill:#e9f4f4;}.cls-29{fill:gray;}.cls-30{fill:#348da5;}.cls-31{fill:#eaf4f2;}.cls-32{fill:#bc272d;}.cls-33,.cls-34{fill:#68abb9;}.cls-35{fill:#5bbdd3;}.cls-37{fill:#347ba3;opacity:0.95;}.cls-38{fill:#5d97c1;}.cls-39{fill:#83abb7;}.cls-40{fill:#22b073;}.cls-41{fill:#55a0a0;}.cls-42{fill:#237c6b;}</style></defs><rect class="cls-1" x="52.36" y="31.78" width="0.94" height="5.69" transform="translate(105.67 69.25) rotate(-180)"/><path class="cls-2" d="M53.76,29.51c.23.19.18.27.44.36a.68.68,0,0,1,.46.3c.11.18.42.37.42.57a1.31,1.31,0,0,1-.23.58c-.09.18-.21.24-.17.42a2.86,2.86,0,0,1,0,.49c0,.16-.07.1-.26.5-.1.21-.13.33-.28.43s0,.23,0,.24a1.73,1.73,0,0,1-.56,0c-.33,0-.47.5-.64.38s-.13-.57-.29-.58v-.09c-.22,0-.4.69-.61.76s-.31-.28-.62-.65-.4-.28-.44-.46c-.11-.45.24-.93.13-1.08s-.31.2-.41.09.05-.67.17-1a1.41,1.41,0,0,1,.23-.52c.28-.33.41-.2.64-.5s.22-.29.37-.39.38.11.6-.07.11-.74.24-.74.09.34.28.71S53.65,29.42,53.76,29.51Z"/><path class="cls-3" d="M53.79,30c.3,0,.4.37.58.46s.41.17.47.41.29.49.23.75a3.13,3.13,0,0,1-.27.67c.05.26.27.24.28.46,0,.06-.4.22-.53.46a2.86,2.86,0,0,1-.28.5c-.22.15-.43,0-.6,0-.33.17-.34.55-.41.62s-.19.07-.51-.38a1.13,1.13,0,0,1-.56.32c-.23.06-.33-.14-.52-.4s-.13-.38-.27-.64-.31-.43-.28-.61.2-.45-.19-.38a1,1,0,0,1-.17-.78c.07-.25.35-.44.52-.65s.3-.51.51-.62c.14-.33.34-.3.44-.35a2.42,2.42,0,0,1,.59-.09c.25-.63.28-.53.41-.24S53.57,29.83,53.79,30Z"/><path class="cls-2" d="M54.61,33.3l-.07-.08,0,0a.37.37,0,0,1-.3,0c-.18-.1-.17-.38-.33-.47s-.21.06-.28,0a.5.5,0,0,1,0-.49c.11-.1.25.49.61.52.13,0,.23-.07.32-.08s.33,0,.34.05S54.9,33,54.61,33.3Z"/><path class="cls-2" d="M52.38,31.23c.34,0,.51-.62.62-.51a.73.73,0,0,1,0,.51c-.06.23-.28.34-.43.44s-.37.18-.53,0-.07-.15-.31-.5-.26-.29-.31-.5a.64.64,0,0,1,0-.47c.05,0,.12.18.31.46S52.11,31.24,52.38,31.23Z"/><path class="cls-2" d="M53,32.26s-.06.46-.26.56-.28-.1-.28-.1c-.28-.54-.38-.48-.38-.48a.89.89,0,0,0,0,.52s.09.43.31.55.15,0,.33-.05c.39,0,.41,0,.59-.06s.34-.34.31-.43-.52.25-.64,0S53,32.29,53,32.26Z"/><path class="cls-2" d="M53.67,30.54c0-.05-.16-.07-.38.14a.6.6,0,0,0-.26.54c0,.2.25.15.63.47s.43.67.61.61.27-.46.23-.55-.12.12-.27,0-.15-.4-.32-.49-.19,0-.25-.08S53.75,30.65,53.67,30.54Z"/><path class="cls-2" d="M51.39,33.28c.1.37.57.57.6.47s-.08-.11-.25-.48a2.64,2.64,0,0,1-.15-.52,4.5,4.5,0,0,0-.22-.48,3.26,3.26,0,0,1-.16-.49s.08.18.18.43.19.43.15.57-.22.06-.23.17Z"/><rect class="cls-1" x="5.81" y="28.81" width="0.66" height="3.99" transform="translate(12.27 61.62) rotate(-180)"/><path class="cls-2" d="M6.79,27.22c.16.13.12.19.31.25a.66.66,0,0,1,.44.61,3.7,3.7,0,0,0,0,.69c0,.18.18.19.18.35s-.11.15-.25.43-.24.15-.35.23,0,0,0,0-.24-.06-.36-.06-.34.56-.46.48-.08-.29-.2-.3v-.05c-.16,0-.31.2-.46.24s-.1-.11-.32-.37-.37-.14-.4-.26c-.07-.31.18-.66.11-.76s-.22.15-.3.07,0-.5.09-.75a1.08,1.08,0,0,1,.14-.41c.2-.23.38-.06.55-.27s.06-.32.16-.39.3.14.45,0,.11-.26.2-.26,0,.05.14.3S6.71,27.15,6.79,27.22Z"/><path class="cls-3" d="M6.8,27.56c.3,0,.39.28.52.4a.62.62,0,0,1,.24.55c0,.21.09.41,0,.62a.52.52,0,0,1,.08.64c-.08.16-.25.33-.37.53s-.43-.16-.54-.16c-.52.27-.2.56-.58,0-.28.27-.46.31-.64.2A1.15,1.15,0,0,1,5,29.87c-.1-.45.26-.75-.19-.67a1,1,0,0,1,.07-.89,1.69,1.69,0,0,1,.66-.57c.21-.5.31-.27.69-.3.18-.44.24-.5.33-.31A1,1,0,0,0,6.8,27.56Z"/><path class="cls-2" d="M7.39,29.88l0-.06v0a.25.25,0,0,1-.21,0c-.13-.07-.12-.26-.24-.33s-.14,0-.19,0a.37.37,0,0,1,0-.34c.08-.07.18.34.43.36a.65.65,0,0,0,.22-.05c.15,0,.23,0,.25,0S7.59,29.64,7.39,29.88Z"/><path class="cls-2" d="M5.82,28.42c.23,0,.36-.43.43-.35a.45.45,0,0,1,0,.36c-.1.36-.46.49-.66.31s-.06-.09-.23-.34-.18-.2-.22-.35,0-.31,0-.34,0,.17.19.36S5.63,28.43,5.82,28.42Z"/><path class="cls-2" d="M6.25,29.15s0,.32-.19.39-.19-.07-.19-.07c-.2-.38-.27-.34-.27-.34s0,.22,0,.37.06.3.21.38.11,0,.24,0,.28,0,.41-.05.24-.23.21-.3-.36.18-.44,0S6.27,29.17,6.25,29.15Z"/><path class="cls-2" d="M6.73,27.94s-.12-.05-.27.1a.41.41,0,0,0-.18.38c0,.13.17.1.44.33s.3.47.43.43.18-.33.16-.39-.09.08-.19,0-.11-.28-.23-.34-.13,0-.17-.06S6.78,28,6.73,27.94Z"/><path class="cls-2" d="M5.12,29.86c.07.26.4.4.43.33s-.06-.08-.18-.33-.08-.41-.21-.72S5,28.8,5,28.81s.29.47.23.7c0,0,0,0-.06.12A.35.35,0,0,0,5.12,29.86Z"/><path class="cls-2" d="M6,31.39c.19.12.2.19.42.25a.64.64,0,0,1,.51.55c0,.3-.15.41-.09.62s.21.19.22.33-.13.15-.29.4-.25.12-.38.19,0,0,0,0c-.2,0-.3-.05-.43-.05-.28,0-.4.52-.54.44s-.11-.25-.25-.26v0c-.18,0-.36.17-.53.21s-.17-.11-.42-.35-.39-.1-.42-.22c-.09-.28.18-.6.1-.7s-.24.15-.33.08,0-.46.07-.7a1,1,0,0,1,.2-.38c.23-.21.42,0,.61-.23s.09-.29.21-.36.35.12.53,0,.13-.23.24-.23,0,0,.19.27S5.93,31.33,6,31.39Z"/><path class="cls-3" d="M6.06,31.71c.29,0,.43.27.59.35s.35.21.34.47a1.35,1.35,0,0,1,0,.68c0,.17.21.15.22.29s-.48.7-.69.77a1,1,0,0,0-.9.1c-.22-.48-.54-.19-.87,0-.27,0-.37-.19-.52-.46s-.31-.51-.24-.72c-.39.09-.46-.33-.31-.73s.56-.41.82-.64c.24-.47.47-.22.84-.26.2-.39.15-.32.26-.15S5.88,31.59,6.06,31.71Z"/><path class="cls-2" d="M6.7,33.78l0,0h0a.42.42,0,0,1-.27,0c-.15-.07-.1-.31-.24-.37s-.19.07-.26,0a.29.29,0,0,1,0-.32c.1-.06.22.26.52.27a1.19,1.19,0,0,0,.25,0c.18,0,.29,0,.31,0S6.94,33.56,6.7,33.78Z"/><path class="cls-2" d="M4.91,32.51c.28,0,.45-.44.54-.37s0,.22-.07.34a.49.49,0,0,1-.71.32c-.1-.06-.06-.09-.26-.32s-.21-.18-.26-.31,0-.27,0-.29.1.1.26.28S4.68,32.52,4.91,32.51Z"/><path class="cls-2" d="M5.42,33.17s-.06.31-.23.37S5,33.45,5,33.45c-.23-.34-.31-.3-.31-.3s-.05.21,0,.34a.57.57,0,0,0,.25.36c.08,0,.13,0,.28,0,.32,0,.34,0,.49-.06s.28-.19.25-.25-.43.16-.52,0S5.45,33.19,5.42,33.17Z"/><path class="cls-2" d="M6,32.07s-.13-.07-.31.06-.26.3-.26.37.21.15.53.35.38.32.53.28.26-.23.23-.29-.08,0-.2-.06-.17-.17-.3-.23-.22,0-.27,0S6,32.14,6,32.07Z"/><path class="cls-2" d="M4.1,33.82c.08.24.48.36.5.3s-.08-.07-.22-.3-.1-.38-.25-.66-.21-.31-.22-.3.35.43.28.64c0,0-.06,0-.06.11A.26.26,0,0,0,4.1,33.82Z"/><path class="cls-4" d="M5,31.81a.31.31,0,0,1,0,.25c-.08.16-.57,0-.58.12s.22.15.25.11-.11-.14-.1-.3a.32.32,0,0,1,.16-.28A.28.28,0,0,1,5,31.81Z"/><path class="cls-4" d="M6.24,32s.31,0,.3.18-.19.14-.37.12a.64.64,0,0,1-.31-.09c-.15-.07-.24,0-.25-.08s.15-.15.25-.2A.41.41,0,0,1,6.24,32Z"/><path class="cls-4" d="M6.53,33.57a.28.28,0,0,1,0,.21c0,.12-.38,0-.39.09s.13.12.15.09-.12-.12-.12-.24a.35.35,0,0,1,.14-.24A.28.28,0,0,1,6.53,33.57Z"/><path class="cls-4" d="M5.25,33.46s.23.07.22.17a.31.31,0,0,1-.3.17c-.07,0,0-.06-.21-.13s-.18,0-.19-.06.13-.11.2-.14A.34.34,0,0,1,5.25,33.46Z"/><path class="cls-4" d="M6.7,32.92s.22,0,.2.13-.13.11-.25.1a.41.41,0,0,1-.22-.07c-.11,0-.17,0-.18,0s.11-.12.18-.15A.3.3,0,0,1,6.7,32.92Z"/><path class="cls-4" d="M4.33,32.61a.29.29,0,0,1-.09.34c-.07.06-.16.07-.2,0a.26.26,0,0,1,0-.23C4.15,32.56,4.27,32.52,4.33,32.61Z"/><path class="cls-2" d="M5.53,34.16c.2.12.2.2.42.25a.62.62,0,0,1,.51.55c0,.3-.14.42-.09.63s.21.18.22.32-.13.15-.29.4-.25.12-.38.19,0,0,0,0c-.2.05-.3,0-.43,0-.28,0-.4.53-.54.45s-.11-.26-.24-.27v-.05c-.18,0-.36.17-.53.22s-.17-.12-.42-.36-.39-.1-.42-.21c-.09-.29.19-.61.1-.7s-.24.14-.33.07,0-.46.08-.69a1,1,0,0,1,.19-.39c.23-.2.42,0,.61-.23s.09-.29.21-.36.35.13.53,0,.14-.23.24-.23,0,0,.19.28S5.44,34.1,5.53,34.16Z"/><path class="cls-3" d="M5.61,34.5c.19.12.2.19.42.25a.64.64,0,0,1,.51.55c0,.3-.14.41-.09.62s.21.19.22.33-.13.15-.29.4-.25.12-.38.19,0,0,0,0c-.2,0-.3-.05-.43-.05-.28,0-.4.52-.54.45S4.89,37,4.76,37v0c-.18,0-.36.17-.53.21s-.17-.11-.42-.35-.39-.1-.42-.22c-.09-.28.19-.6.1-.7s-.24.15-.33.08,0-.46.07-.7a1.13,1.13,0,0,1,.2-.38c.23-.2.42,0,.61-.23s.09-.29.21-.36.35.12.53,0,.14-.23.24-.23,0,0,.19.28S5.52,34.44,5.61,34.5Z"/><path class="cls-2" d="M6.21,36.55l0,0h0a.33.33,0,0,1-.26,0c-.16-.07-.11-.31-.25-.37s-.19.07-.25,0-.07-.27,0-.31.21.25.51.27l.26,0c.17,0,.28,0,.3,0S6.45,36.33,6.21,36.55Z"/><path class="cls-2" d="M4.42,35.28c.28,0,.46-.44.55-.37s0,.23-.08.34a.5.5,0,0,1-.71.33c-.09-.07-.06-.1-.26-.32s-.21-.19-.26-.32,0-.27,0-.29.11.1.26.28S4.2,35.29,4.42,35.28Z"/><path class="cls-2" d="M4.93,36s-.06.3-.23.36-.23-.09-.23-.09c-.23-.34-.31-.29-.31-.29s0,.2,0,.33a.56.56,0,0,0,.26.36c.07,0,.12,0,.27,0,.32,0,.35,0,.49-.06s.28-.19.25-.25-.42.17-.52,0S5,36,4.93,36Z"/><path class="cls-2" d="M5.48,34.84s-.13-.07-.31.06-.26.31-.25.37.21.15.52.36.38.31.53.28a.33.33,0,0,0,.24-.3s-.08,0-.21-.06-.17-.17-.3-.23-.22,0-.27,0S5.54,34.91,5.48,34.84Z"/><path class="cls-2" d="M3.61,36.59c.08.24.48.36.5.3s-.08-.07-.22-.3-.1-.38-.25-.66a1,1,0,0,0-.21-.3s.34.43.27.64c0,0-.06,0-.06.11A.26.26,0,0,0,3.61,36.59Z"/><path class="cls-4" d="M4.55,34.58a.28.28,0,0,1,0,.25C4.5,35,4,34.88,4,35s.22.15.25.12-.1-.15-.1-.31a.33.33,0,0,1,.16-.28A.28.28,0,0,1,4.55,34.58Z"/><path class="cls-4" d="M5.76,34.79s.31,0,.29.17-.19.14-.36.12A.62.62,0,0,1,5.38,35c-.16-.07-.25,0-.26-.08s.15-.15.25-.19A.42.42,0,0,1,5.76,34.79Z"/><path class="cls-4" d="M6,36.34a.36.36,0,0,1,0,.22c-.06.12-.39,0-.4.09s.13.11.15.09-.12-.13-.12-.25a.35.35,0,0,1,.14-.24C5.91,36.23,6,36.32,6,36.34Z"/><path class="cls-4" d="M4.76,36.23s.23.07.22.17-.18.19-.3.17,0,0-.21-.12-.18,0-.18-.07.12-.11.19-.14A.34.34,0,0,1,4.76,36.23Z"/><path class="cls-4" d="M6.21,35.7s.22,0,.21.12-.14.11-.26.1-.06,0-.22-.06-.17,0-.17-.06.1-.11.18-.15A.25.25,0,0,1,6.21,35.7Z"/><path class="cls-4" d="M3.84,35.39a.29.29,0,0,1-.08.33c-.08.06-.16.07-.21,0a.27.27,0,0,1,0-.23C3.66,35.33,3.79,35.29,3.84,35.39Z"/><rect class="cls-1" x="54.12" y="37.49" width="0.66" height="3.99" transform="translate(108.89 78.98) rotate(-180)"/><path class="cls-2" d="M55,35.87c.3,0,.39.28.53.4a.62.62,0,0,1,.23.55c0,.21.09.41,0,.62a.54.54,0,0,1,.07.64c-.07.16-.25.33-.37.53s-.42-.16-.54-.16c-.51.27-.2.57-.58,0-.27.27-.46.31-.64.21a1.17,1.17,0,0,1-.53-.5c-.11-.45.25-.74-.2-.66a1,1,0,0,1,.07-.9,1.77,1.77,0,0,1,.66-.57c.21-.5.31-.27.69-.3.18-.44.25-.5.34-.3A.87.87,0,0,0,55,35.87Z"/><path class="cls-3" d="M55.1,36.25c.31,0,.4.27.53.39a.62.62,0,0,1,.24.55c0,.21.09.41,0,.62a.54.54,0,0,1,.08.64,6.1,6.1,0,0,1-.38.53c-.15.1-.42-.16-.53-.16-.52.27-.2.57-.58,0-.28.26-.46.3-.64.2a1.19,1.19,0,0,1-.54-.5c-.1-.44.26-.74-.19-.66a1,1,0,0,1,.07-.9,1.77,1.77,0,0,1,.66-.57c.21-.5.31-.27.69-.3.18-.44.24-.5.33-.3A1.16,1.16,0,0,0,55.1,36.25Z"/><path class="cls-2" d="M55.7,38.56l-.05-.06v0a.28.28,0,0,1-.21,0c-.13-.08-.12-.27-.24-.33s-.14,0-.19,0a.39.39,0,0,1,0-.35c.08-.07.18.35.43.37.09,0,.16,0,.22,0s.23,0,.25,0S55.9,38.32,55.7,38.56Z"/><path class="cls-2" d="M54.13,37.11c.23,0,.35-.44.43-.36a.55.55,0,0,1,0,.36c-.1.36-.46.49-.66.31s-.06-.09-.23-.33-.18-.21-.22-.35-.05-.32,0-.34.05.16.18.36S53.94,37.12,54.13,37.11Z"/><path class="cls-2" d="M54.56,37.83s-.05.33-.19.39-.2-.07-.2-.07c-.19-.37-.26-.33-.26-.33s0,.22,0,.36a.67.67,0,0,0,.21.39c.07,0,.11,0,.24,0s.28,0,.41,0,.23-.24.21-.3-.36.18-.44,0S54.58,37.85,54.56,37.83Z"/><path class="cls-2" d="M55,36.62s-.12,0-.27.1a.41.41,0,0,0-.18.38c0,.14.17.11.44.33s.3.47.43.43.18-.32.16-.38-.09.07-.19,0-.11-.28-.23-.35-.13,0-.17,0S55.09,36.7,55,36.62Z"/><path class="cls-2" d="M53.43,38.54c.07.27.4.41.42.34s-.05-.08-.17-.34-.08-.41-.21-.72-.16-.34-.17-.33.29.47.23.7c0,0-.06.06-.06.13A.31.31,0,0,0,53.43,38.54Z"/><polygon class="cls-5" points="50.33 49.55 47.41 51.67 41.83 53.41 41.86 51.27 44.34 46.64 50.33 49.55"/><path class="cls-6" d="M5.62,16.51a3.92,3.92,0,0,0,1,3.11L10.17,19s-1.65-2.81.15-4.82l-4.47.3A10.56,10.56,0,0,0,5.62,16.51Z"/><path class="cls-7" d="M5.79,14.78l3-.53-.32,0-2.67.43Z"/><path class="cls-7" d="M5.69,15.38,9,14.81v-.07l-3.27.57Z"/><path class="cls-7" d="M5.64,16,9,15.4v-.07l-3.33.59Z"/><path class="cls-7" d="M5.62,16.51,9,16v-.07l-3.35.53Z"/><path class="cls-7" d="M5.66,17.44v.07L9,16.58v-.06Z"/><path class="cls-7" d="M5.86,18.41a.14.14,0,0,1,0,.06L9,17.17l0-.06Z"/><path class="cls-7" d="M6.24,19.17l0,.06L9.4,17.76l0-.06Z"/><polygon class="cls-8" points="6.64 19.62 9.94 23.62 9.96 19.05 6.64 19.62 6.64 19.62"/><path class="cls-9" d="M10,19.3l4.16-1.48L13.46,14l-4.78.3C7.5,16.63,10,19.3,10,19.3Z"/><polygon class="cls-10" points="6.86 31.06 6.81 32.71 7.05 32.79 7.05 32.41 6.86 31.06"/><polygon class="cls-11" points="9.94 18.71 9.94 23.68 13.28 27.96 13.28 24.72 9.94 18.71"/><path class="cls-12" d="M9.94,23.62v8a10.34,10.34,0,0,0-.17,1.93c.12,0,3.57,1.41,3.57,1.41V26.55Z"/><path class="cls-11" d="M45.08,23.83l3.36,1.83V41.21s-8.75,2-8.56,2.24-.34-18.72-.34-18.72Z"/><path class="cls-13" d="M52.15,34.24l1.23.38s.33,5.48-2.37,6h0l-.78-1S52,34.2,52.15,34.24Z"/><polygon class="cls-11" points="44.66 47.45 43.39 48.48 43.39 44.61 44.66 42.9 44.66 47.45"/><path class="cls-14" d="M49.61,39.83a5.84,5.84,0,0,1-1.46.14V25.42l.28.24.32.25,3.42,6v5.67a3.27,3.27,0,0,1-2.57,2.25Z"/><polygon class="cls-15" points="48.15 26.33 48.15 39.97 44.98 42.63 44.98 28.3 48.15 26.33"/><polygon class="cls-13" points="42.56 40.7 44.98 42.63 44.98 28.3 42.58 26.48 42.56 40.7"/><path class="cls-16" d="M37.1,35.79a11.65,11.65,0,0,0,4.18-1V28.45c-9,.32-21.37,1.6-28-4.93V31C19.46,36.63,29.33,36.19,37.1,35.79Z"/><path class="cls-12" d="M14.78,28.06v4.07c.18.13.38.25.57.36V28.56l0,0A9,9,0,0,0,17.51,30v1.79l.59.25V30.27h0a6.35,6.35,0,0,0,3,.74v3.87l.48.13h0V31.33a10.19,10.19,0,0,0,4.21.64l-.09,3.82.4,0,.2,0,.19,0V32.16c.39.43,4.14.38,4.82.36h.1l-.05,1.87,0,1.73h.8v-3.7h4.58v3.43h0l.14,0h0l.17,0V32.52h4.18V31.33c-1.47.12-2.86.2-4.18.25V28.74h-.37V31.6c-1.64,0-3.16.06-4.58,0V28.74h-.8v2.85c-1.77-.06-3.37-.2-4.82-.39V28.43l-.63-.08h-.07v2.77a37.36,37.36,0,0,1-4.21-.86V27.6l-.51-.12h0V30.1A22,22,0,0,1,18.18,29l.05-2.37-.72-.25v2.3a13.87,13.87,0,0,1-2.1-1.27l.05-1.86-.68-.33v1.67a4.5,4.5,0,0,1-.89-1,3.86,3.86,0,0,1,0,.9A9,9,0,0,0,14.78,28.06Z"/><polygon class="cls-6" points="44.66 42.9 44.66 47.45 45.19 47.45 45.19 43.48 44.66 42.9 44.66 42.9"/><polygon class="cls-17" points="48.15 32.8 44.98 34.25 42.57 32.72 42.57 32.33 44.98 33.73 48.15 32.33 48.15 32.8"/><polygon class="cls-17" points="48.15 33.99 44.98 35.44 42.57 33.9 42.57 33.52 44.98 34.92 48.15 33.52 48.15 33.99"/><polygon class="cls-17" points="48.15 35.33 44.98 36.78 42.57 35.25 42.57 34.86 44.98 36.26 48.15 34.86 48.15 35.33"/><polygon class="cls-17" points="48.15 36.67 44.98 38.12 42.57 36.59 42.57 36.21 44.98 37.6 48.15 36.21 48.15 36.67"/><polygon class="cls-18" points="37.7 16.79 51.8 23.24 49 26.01 36.63 17.92 37.7 16.79 37.7 16.79"/><polygon class="cls-17" points="48.15 38.02 44.98 39.47 42.57 37.93 42.57 37.55 44.98 38.95 48.15 37.55 48.15 38.02"/><polygon class="cls-17" points="48.15 39.36 44.98 40.81 42.57 39.28 42.57 38.89 44.98 40.29 48.15 38.89 48.15 39.36"/><path class="cls-11" d="M51,40.59v1.63s2.2-1.89,2.4-4V34.63a12.2,12.2,0,0,0-.19,1.67C53.13,37.78,52.69,39.78,51,40.59Z"/><polygon class="cls-19" points="42.56 40.7 42.9 40.97 42.92 26.74 42.58 26.48 42.56 40.7"/><polygon class="cls-19" points="42.91 30.62 42.91 31.46 44.66 32.73 44.66 42.37 44.98 42.63 44.98 28.11 44.66 28.06 44.66 31.82 42.91 30.62"/><path class="cls-12" d="M45,28.3l-2.4-1.82s2.36-.72,2.68-1.55l2.89,1.4-2.76,1.72L45,28.3Z"/><polygon class="cls-13" points="47.88 30.15 47.88 28.2 45.9 29.2 45.9 31.25 47.88 30.15"/><path class="cls-11" d="M47,29.44c0,.65.67.65.66,0S47,28.78,47,29.44Z"/><path class="cls-11" d="M46.18,29.91c0,.65.67.65.66,0S46.17,29.26,46.18,29.91Z"/><polygon class="cls-19" points="45.67 30.96 45.67 28.86 45.9 29.2 45.9 31.25 45.67 30.96"/><polygon class="cls-17" points="47.56 27.84 47.88 28.2 45.9 29.2 45.67 28.86 47.56 27.84"/><polygon class="cls-13" points="44.98 28.31 44.98 42.63 45.39 42.22 45.39 32.75 46.18 32.32 46.2 41.65 46.8 41.15 46.8 31.99 47.5 31.6 47.47 40.53 48.15 39.98 48.15 30.32 45.39 31.83 45.39 28.05 44.98 28.31"/><path class="cls-17" d="M51.57,32.46v6.21h0A2.83,2.83,0,0,0,52,38v-6Z"/><path class="cls-17" d="M50.48,33.45v6.09a4.36,4.36,0,0,0,.53-.31V33Z"/><path class="cls-17" d="M49,34.79v5.14a5.36,5.36,0,0,0,.6-.1V34.25Z"/><polygon class="cls-13" points="52.02 32.05 51.57 32.46 51.01 32.97 50.48 33.45 49.61 34.25 49.01 34.79 48.76 35.02 48.76 25.91 54.22 30.04 52.02 32.05 52.02 32.05"/><path class="cls-6" d="M51.26,28,54,30.25c3.13-1.16,3.16-5.07,1.89-7.63L51,20C55.82,24.41,51.26,28,51.26,28Z"/><polygon class="cls-19" points="13.9 24.61 13.41 24.22 15.35 28.5 13.9 24.61 13.9 24.61"/><polygon class="cls-17" points="12.73 23.58 14.78 28.06 15.35 28.56 13.49 24.27 12.73 23.58 12.73 23.58"/><polygon class="cls-19" points="16.8 26.15 16.33 25.96 18.11 30.27 16.8 26.15 16.8 26.15"/><polygon class="cls-17" points="15.62 25.66 17.51 30.04 18.11 30.27 16.33 25.96 15.62 25.66 15.62 25.66"/><polygon class="cls-19" points="20.53 27.33 21.62 31.33 20.89 27.4 20.53 27.33 21.62 31.33 20.53 27.33"/><polygon class="cls-8" points="36.73 32.33 37.55 28.72 37.32 28.73 36.73 32.33"/><polygon class="cls-17" points="37.32 28.73 32.13 28.78 32.37 28.81 37.32 28.73"/><polygon class="cls-17" points="32.15 32.41 32.37 28.81 31.54 28.79 31.45 32.47 31.45 32.52 32.15 32.41"/><polygon class="cls-17" points="19.88 27.16 21.11 31.17 21.62 31.33 20.53 27.33 26.18 28.36 26.18 28.38 25.42 28.29 25.83 31.97 26.54 32.16 26.43 28.4 31.4 28.79 32.13 28.78 19.88 27.16"/><polygon class="cls-17" points="38.37 28.86 37.1 32.52 36.73 32.41 37.55 28.72 38.37 28.86 38.37 28.86"/><path class="cls-20" d="M13.28,29.3V31C19.8,36.25,29,36.54,36.91,35.81h0l.58-.07h.26V34.17C19.58,35.69,13.28,29.3,13.28,29.3Z"/><path class="cls-21" d="M31.35,32.52v1.87h0l.05-1.87Z"/><path class="cls-21" d="M18.1,32.08l0-1.8h0Z"/><path class="cls-21" d="M15.35,28.56V30l0-1.45Z"/><path class="cls-22" d="M12.75,14c.1,14.12,22.85,13.29,32.45,10.18L48.56,26c.55-.86,1.84-2.8,1.33-5a4.43,4.43,0,0,0-2.52-2.79l-.86-.32S42.79,16.62,35,14.27c0,.37.27,3.65-1.68,4.91a6,6,0,0,1-2.84.66,8.1,8.1,0,0,1-3-.18,6.72,6.72,0,0,1-3.78-3.45,1.73,1.73,0,0,1,.11-1.28c.59-.84,1-1.54,2.09-1.62C21.14,13.64,17.88,13.68,12.75,14Z"/><path class="cls-23" d="M13.28,40.33v1.89s6,7.62,24.49,4V44.26h-.1l-.71.21-.19.06-1.33.34-.19,0-1.32.27-.2,0c-.45.08-.89.14-1.32.2l-.2,0-1.32.12H30.7c-.45,0-.89.05-1.33.05h-.19c-.45,0-.89,0-1.32,0h-.2c-.45,0-.89-.06-1.32-.1l-.2,0c-.45-.05-.89-.12-1.32-.18l-.19,0c-.46-.07-.9-.16-1.33-.26l-.19,0c-.46-.11-.9-.22-1.33-.34l-.19-.06c-.46-.14-.9-.28-1.32-.43l-.2-.07c-.47-.17-.92-.35-1.35-.53l-.19-.09c-.47-.2-.91-.41-1.32-.62l-.2-.1c-.48-.25-.93-.5-1.32-.73l-.2-.12c-.53-.32-1-.62-1.32-.87L14,40.83c-.32-.23-.53-.4-.63-.49Z"/><polygon class="cls-24" points="8.89 44.56 13.27 42.15 13.27 36.91 8.89 44.56"/><path class="cls-8" d="M1.89,39.18l7,5.38L13.28,37,7.1,32.33Z"/><polygon class="cls-10" points="45.19 47.45 51.01 49.91 45.19 43.48 45.19 47.45"/><path class="cls-25" d="M37,17.59l4.92,7.3h0a9.54,9.54,0,0,0,3.17-1.06l3.36,1.83h0a8.31,8.31,0,0,0,1.28-3.8l-12-5.07-.4.45-.31.34Z"/><path class="cls-26" d="M13.28,31v9.31C20,45.71,29.65,47,37.77,44.26V35.7l-.14,0C29.45,36.6,20,36.38,13.28,31Z"/><path class="cls-27" d="M36.93,35.81l.17,0-.14,0Z"/><path class="cls-28" d="M36.77,35.83v8.73L37,44.5V35.81Z"/><path class="cls-28" d="M35.25,36v9l.19,0V36Z"/><path class="cls-28" d="M33.73,36.06v9.19l.2,0V36.05Z"/><path class="cls-28" d="M32.21,36.11v9.35l.2,0V36.11Z"/><path class="cls-28" d="M30.7,36.12V45.6h.19V36.12Z"/><path class="cls-28" d="M29.18,36.07v9.58h.19V36.08Z"/><path class="cls-28" d="M27.66,36v9.63h.2V36Z"/><path class="cls-28" d="M26.14,35.83v9.66l.2,0V35.86Z"/><path class="cls-28" d="M24.63,35.63v9.65l.19,0V35.66Z"/><path class="cls-28" d="M23.11,35.36V45l.19.05V35.4Z"/><path class="cls-28" d="M21.59,35v9.55l.19.06V35.07Z"/><path class="cls-28" d="M20.07,34.59v9.48l.2.07V34.65Z"/><path class="cls-28" d="M18.53,34.05v9.41l.19.08V34.12Z"/><path class="cls-28" d="M17,33.39v9.35l.2.1V33.49Z"/><path class="cls-28" d="M15.49,32.58v9.31l.2.11V32.7Z"/><path class="cls-28" d="M14,31.57v9.3a1.33,1.33,0,0,0,.19.14v-9.3Z"/><polygon class="cls-29" points="43.42 44.44 43.39 48.48 41.62 54.56 43.42 44.44"/><path class="cls-8" d="M32.92,52l8.7,2.54c.6-3.36,1.21-6.76,1.8-10.12l-6.68-1.51C35.47,46,34.19,49,32.92,52Z"/><polygon class="cls-13" points="36.34 43.87 43.13 46.09 43.15 45.98 43.17 45.87 43.17 45.85 36.43 43.66 36.4 43.73 36.36 43.84 36.34 43.87"/><polygon class="cls-13" points="36.02 44.65 42.97 46.97 42.98 46.93 43 46.85 43.02 46.74 36.1 44.44 36.04 44.61 36.02 44.65"/><polygon class="cls-13" points="35.68 45.45 42.81 47.87 42.86 47.63 35.77 45.23 35.68 45.45"/><polygon class="cls-13" points="35.34 46.25 42.65 48.79 42.69 48.55 35.44 46.04 35.34 46.25"/><polygon class="cls-13" points="35 47.07 42.48 49.73 42.53 49.48 35.09 46.85 35 47.07"/><polygon class="cls-13" points="34.65 47.91 42.31 50.69 42.36 50.44 34.74 47.69 34.65 47.91"/><polygon class="cls-13" points="34.24 48.89 42.15 51.51 42.19 51.25 34.33 48.66 34.24 48.89"/><polygon class="cls-13" points="33.9 49.77 41.99 52.51 42.03 52.27 42.04 52.24 33.99 49.54 33.98 49.55 33.95 49.63 33.9 49.77"/><polygon class="cls-13" points="33.55 50.66 41.84 53.54 41.86 53.41 41.88 53.27 41.88 53.26 33.64 50.42 33.61 50.51 33.56 50.63 33.55 50.66"/><polygon class="cls-13" points="33.18 51.41 41.5 54.15 41.52 54.02 41.54 53.89 41.54 53.88 33.27 51.17 33.24 51.26 33.2 51.38 33.18 51.41"/><path class="cls-13" d="M41.11,54.37l.51.19,1.79-10.14h0l-.51.08Z"/><path class="cls-13" d="M32.92,52l.52.15,3.61-9-.31-.21L34.4,48.51,33.78,50Z"/><path class="cls-13" d="M37.77,37.91s-15.36,3.88-24.49-4.54v.57s6.27,8.44,24.49,4.48Z"/><path class="cls-13" d="M37.77,42s-15.36,3.88-24.49-4.54v.7s6.27,8.48,24.49,4.52Z"/><path class="cls-12" d="M44.66,42.89l6.35,7,4.56-3.86c-1.52-1.88-3-3.8-4.56-5.65Z"/><path class="cls-13" d="M39.54,36.06v5.36l.23,0,1.41.33V36.38Z"/><path class="cls-13" d="M41.6,36.47V41.9c.5.1.92.18,1.27.23l.06-3.33v-2Z"/><path class="cls-13" d="M37.77,35.7V41l1.31.34V36Z"/><polygon class="cls-13" points="37.77 34.17 37.77 35.7 39.08 35.96 39.08 41.25 39.54 41.36 39.54 36.05 41.18 36.38 41.18 41.73 41.65 41.84 41.65 36.47 43.02 36.75 43.05 35.39 41.65 35.06 41.18 34.96 39.54 34.58 39.53 34.57 39.52 34.57 37.77 34.17"/><path class="cls-12" d="M36.74,42.93a10.77,10.77,0,0,0,6.59,1.66h0a12.87,12.87,0,0,0,7.76-4.06c-.55-.6-.6-.83-1.19-1.14-.32-.13-.79-.28-.93-.16l-.86.74A11.13,11.13,0,0,1,45,42.06c-1.77.55-5.23-.66-7.19-1.1C37.54,41.48,37,42.41,36.74,42.93Z"/><polygon class="cls-13" points="43.39 34.83 43.05 35.39 37.77 34.17 38.14 33.57 43.39 34.83"/><polygon class="cls-17" points="37.77 37.62 37.77 38.05 39.08 38.24 41.59 38.6 42.93 38.8 42.94 38.47 41.59 38.25 39.08 37.83 37.77 37.62"/><polygon class="cls-17" points="37.77 36.79 37.77 37.23 41.59 37.8 42.95 38 42.96 37.66 41.59 37.43 37.77 36.79"/><path class="cls-20" d="M39.08,34.48V41.3l.46.12V34.58h0Z"/><polygon class="cls-20" points="41.18 34.96 41.18 41.8 41.65 41.9 41.65 35.06 41.18 34.96"/><polygon class="cls-30" points="37.77 34.17 37.77 35.7 39.08 35.96 39.54 36.05 41.18 36.38 41.65 36.47 43.02 36.75 43.03 36.75 43.05 35.39 41.65 35.06 41.18 34.96 39.54 34.58 39.53 34.57 39.52 34.57 37.77 34.17"/><line class="cls-21" x1="12.81" y1="31.06" x2="12.82" y2="30.78"/><line class="cls-21" x1="6.2" y1="33.51" x2="12.36" y2="38.57"/><polygon class="cls-12" points="6.15 33.58 12.32 38.65 12.36 38.57 12.41 38.49 6.25 33.44 6.2 33.51 6.15 33.58"/><line class="cls-21" x1="5.58" y1="34.33" x2="11.84" y2="39.47"/><polygon class="cls-12" points="5.53 34.4 11.8 39.55 11.84 39.47 11.89 39.39 5.63 34.26 5.53 34.4"/><line class="cls-21" x1="4.96" y1="35.15" x2="11.32" y2="40.37"/><polygon class="cls-12" points="4.91 35.22 11.28 40.45 11.32 40.37 11.37 40.29 5.01 35.08 4.96 35.15 4.91 35.22"/><line class="cls-21" x1="4.34" y1="35.97" x2="10.8" y2="41.27"/><polygon class="cls-12" points="4.28 36.04 10.76 41.35 10.8 41.27 10.85 41.19 4.39 35.9 4.34 35.97 4.28 36.04"/><line class="cls-21" x1="3.72" y1="36.78" x2="10.28" y2="42.17"/><polygon class="cls-12" points="3.66 36.85 10.23 42.25 10.28 42.17 10.32 42.09 3.77 36.71 3.66 36.85"/><line class="cls-21" x1="3.1" y1="37.6" x2="9.76" y2="43.07"/><polygon class="cls-12" points="3.04 37.67 9.71 43.15 9.76 43.07 9.8 42.99 3.15 37.53 3.04 37.67"/><line class="cls-21" x1="2.47" y1="38.42" x2="9.24" y2="43.97"/><polygon class="cls-12" points="2.42 38.49 9.19 44.05 9.24 43.97 9.28 43.89 2.53 38.35 2.47 38.42 2.42 38.49"/><path class="cls-12" d="M1.89,39.18l.33.25,5-6.55a3.16,3.16,0,0,1-.2-.53Z"/><path class="cls-12" d="M7,32.35a3.16,3.16,0,0,0,.2.53,6.11,6.11,0,0,0,1.32,1.83A7.32,7.32,0,0,0,13.28,37v-3.3S9,33.24,9.34,29.12V26.55s-2,1.75-2.29,3.27A4.81,4.81,0,0,0,7,32.35Z"/><polygon class="cls-13" points="46.41 44.82 46.56 45 51.6 41.11 51.45 40.93 46.41 44.82"/><polygon class="cls-13" points="46.93 45.4 47.09 45.58 52.09 41.72 51.94 41.53 46.93 45.4"/><polygon class="cls-13" points="47.45 45.98 47.61 46.16 52.58 42.33 52.43 42.14 47.45 45.98"/><polygon class="cls-13" points="47.98 46.56 48.14 46.74 53.07 42.93 52.92 42.75 47.98 46.56"/><polygon class="cls-13" points="48.5 47.14 48.66 47.32 53.55 43.54 53.41 43.36 48.5 47.14"/><polygon class="cls-13" points="49.03 47.72 49.19 47.9 54.04 44.15 53.9 43.96 49.03 47.72"/><polygon class="cls-13" points="49.55 48.3 49.71 48.48 54.53 44.76 54.38 44.57 49.55 48.3"/><polygon class="cls-13" points="50.08 48.88 50.24 49.06 55.02 45.36 54.87 45.18 50.08 48.88"/><polygon class="cls-13" points="50.6 49.46 50.76 49.64 55.51 45.97 55.36 45.78 50.6 49.46"/><path class="cls-6" d="M12.55,40.79v1.76l.14.11c.19.16.39.3.58.45l.23.17.58.41.23.16.58.37.23.15.58.34.23.14c.27.14.53.29.8.42l.23.12.79.38.24.11.79.34.24.09.79.3.23.08.8.26.23.08.8.22.23.07.59.15.24.05.57.13.23,0,.58.11.23,0,.6.1.24,0,.6.08.23,0,.61.06.23,0,.6.05h.24l.61,0h1.09l.62,0h.54l.31,0,.23,0,.62-.07.24,0,.61-.08L33,48c.2,0,.41-.05.61-.09l.24,0,.62-.1.23,0h0v0l.22-.47.08-.18,0,0,0-.06.18-.39.08-.17.06-.14,0-.06.13-.28.07-.17.12-.25h0c-.34.1-.68.2-1,.28h0l-.19.05h0l-.62.15-.24,0-.42.09-.19,0-.24,0-.61.1-.24,0-.24,0-.19,0-.19,0-.23,0-.62.06-.23,0H30l-.37,0h-.23l-.62,0H27.65l-.53,0h-.3l-.61,0-.23,0-.38,0-.19,0h0l-.24,0-.6-.09-.23,0-.22,0-.2,0-.16,0-.23,0L22.93,46,22.69,46l-.12,0-.2-.05-.27-.07-.23-.06-.8-.24h0l-.19-.06h0c-.27-.08-.54-.18-.8-.27l-.23-.09-.28-.1-.19-.08L19,44.75l-.24-.1L18,44.29h0l-.2-.09,0,0-.79-.4-.23-.13-.26-.14-.19-.11-.35-.2-.23-.14-.58-.36L15,42.59l-.06,0-.13-.09-.45-.31L14.08,42c-.22-.15-.41-.3-.58-.43l-.06,0-.17-.14,0,0c-.25-.2-.43-.36-.55-.47l-.07-.07Z"/><path class="cls-8" d="M14.08,42v1.71l.23.16v-1.7Z"/><path class="cls-8" d="M14.89,42.55v1.67l.23.15V42.7L15,42.59Z"/><path class="cls-8" d="M15.7,43.06v1.65l.23.14V43.2Z"/><path class="cls-8" d="M16.73,43.65v1.62l.23.12V43.78Z"/><path class="cls-8" d="M17.75,44.18v1.59l.24.11V44.29l-.2-.09Z"/><path class="cls-8" d="M18.78,44.65v1.57l.24.09V44.75Z"/><path class="cls-8" d="M19.81,45.06v1.55l.23.08V45.15Z"/><path class="cls-8" d="M20.84,45.42V47l.23.08V45.5h0l-.19-.06Z"/><path class="cls-8" d="M21.87,45.74v1.51l.23.07V45.8Z"/><path class="cls-8" d="M22.69,46v1.52l.24.05V46Z"/><path class="cls-8" d="M23.5,46.13v1.52l.23,0V46.18Z"/><path class="cls-8" d="M24.31,46.28V47.8l.23,0V46.32Z"/><path class="cls-8" d="M25.14,46.41v1.53l.24,0V46.44Z"/><path class="cls-8" d="M26,46.51v1.54l.23,0V46.53Z"/><path class="cls-8" d="M26.82,46.57v1.57l.23,0V46.59h-.23Z"/><path class="cls-8" d="M27.65,46.61v1.6h.24v-1.6Z"/><path class="cls-8" d="M28.5,46.62v1.63h.24V46.62H28.5Z"/><path class="cls-8" d="M29.36,46.6v1.66h.23V46.59Z"/><path class="cls-8" d="M30.21,46.55v1.69h.23v-1.7Z"/><path class="cls-8" d="M31.06,46.47v1.74l.23,0V46.44Z"/><path class="cls-8" d="M31.91,46.36v1.76l.24,0V46.32Z"/><path class="cls-8" d="M32.76,46.22V48L33,48V46.17Z"/><path class="cls-8" d="M33.61,46.05V47.9l.24,0V46Z"/><path class="cls-8" d="M34.47,45.85v1.92l.23,0V45.79l-.19.05Z"/><path class="cls-8" d="M12.55,40.79v1.76l.14.11V40.87l-.07-.07Z"/><path class="cls-8" d="M13.27,41.36v1.75l.23.17V41.55l-.06,0Z"/><polygon class="cls-29" points="41.18 38.54 39.54 38.31 39.54 41.42 41.18 41.8 41.18 38.54 41.18 38.54"/><path class="cls-13" d="M48.76,25.91V35l.43-.39L54,30.25l-.55-.48-4.25-3.53Zm.43,1.15V34l.36-.32.14-.13.29-.27.13-.12,0,0,.14-.13.27-.24.14-.13,0,0,.14-.13.26-.23.13-.12.06,0,.14-.13.23-.21.14-.13.07-.07L52,31.4l.21-.19.14-.12.09-.09.14-.13.2-.17.13-.13.44-.39-.76-.57-.14-.11L52,29.18l-.14-.11-.45-.33-.14-.1-.44-.33-.14-.11-.44-.33-.14-.1-.44-.33-.14-.1Z"/><polygon class="cls-13" points="49.19 27.06 53.37 30.18 49.19 33.99 49.19 27.06"/><polygon class="cls-17" points="49.19 27.89 49.19 28.12 49.56 28.38 49.7 28.48 50.14 28.8 50.28 28.9 50.72 29.21 50.86 29.31 51.3 29.63 51.44 29.73 51.88 30.04 51.88 30.05 52.02 30.14 52.47 30.46 52.61 30.56 52.8 30.7 52.93 30.57 52.61 30.34 52.47 30.24 52.02 29.92 51.88 29.82 51.44 29.51 51.3 29.41 50.86 29.09 50.72 28.99 50.28 28.67 50.14 28.57 49.7 28.26 49.56 28.16 49.19 27.89"/><polygon class="cls-17" points="49.19 28.81 49.19 29.03 49.55 29.3 49.7 29.4 50.14 29.71 50.28 29.81 50.72 30.13 50.86 30.23 51.3 30.54 51.3 30.55 51.44 30.64 51.44 30.64 51.88 30.96 52.02 31.06 52.23 31.21 52.37 31.09 52.02 30.84 51.88 30.74 51.44 30.42 51.3 30.32 50.86 30.01 50.72 29.91 50.28 29.59 50.14 29.49 50.14 29.49 49.7 29.18 49.7 29.17 49.55 29.07 49.55 29.07 49.19 28.81"/><polygon class="cls-17" points="49.19 29.73 49.19 29.95 49.55 30.21 49.69 30.31 50.13 30.63 50.27 30.73 50.72 31.05 50.86 31.14 51.3 31.46 51.44 31.56 51.67 31.73 51.8 31.6 51.44 31.34 51.3 31.24 50.86 30.92 50.72 30.82 50.27 30.51 50.13 30.41 49.69 30.09 49.55 29.99 49.55 29.99 49.19 29.73"/><polygon class="cls-17" points="49.19 30.65 49.19 30.87 49.55 31.13 49.55 31.13 49.69 31.23 50.13 31.54 50.27 31.64 50.71 31.96 50.85 32.06 51.11 32.24 51.24 32.12 50.85 31.84 50.72 31.74 50.27 31.42 50.13 31.32 49.69 31.01 49.69 31.01 49.55 30.91 49.19 30.65"/><polygon class="cls-17" points="49.19 31.57 49.19 31.79 49.55 32.05 49.69 32.15 50.13 32.46 50.27 32.56 50.54 32.76 50.68 32.63 50.27 32.34 50.13 32.24 49.69 31.92 49.55 31.82 49.19 31.57"/><polygon class="cls-17" points="49.19 32.48 49.19 32.71 49.55 32.96 49.69 33.06 49.98 33.27 50.12 33.15 49.69 32.84 49.55 32.74 49.19 32.48"/><polygon class="cls-17" points="52.46 31 52.6 30.87 52.61 30.56 52.61 30.34 52.61 29.61 52.47 29.5 52.47 30.24 52.47 30.46 52.46 31"/><polygon class="cls-17" points="51.88 31.53 52.02 31.41 52.02 31.06 52.02 30.84 52.02 30.14 52.02 29.92 52.03 29.18 51.88 29.07 51.88 29.82 51.88 30.04 51.88 30.05 51.88 30.74 51.88 30.96 51.88 31.53"/><polygon class="cls-17" points="51.3 32.07 51.44 31.94 51.44 31.56 51.44 31.34 51.44 30.64 51.44 30.64 51.44 30.42 51.44 29.73 51.44 29.51 51.44 28.74 51.3 28.64 51.3 29.41 51.3 29.63 51.3 30.32 51.3 30.54 51.3 30.55 51.3 31.24 51.3 31.46 51.3 32.07"/><polygon class="cls-17" points="50.71 32.6 50.85 32.47 50.85 32.06 50.85 31.84 50.86 31.14 50.86 30.92 50.86 30.23 50.86 30.01 50.86 29.31 50.86 29.09 50.86 28.31 50.72 28.2 50.72 28.99 50.72 29.21 50.72 29.91 50.72 30.13 50.72 30.82 50.72 31.05 50.72 31.74 50.71 31.96 50.71 32.6"/><polygon class="cls-17" points="50.13 33.13 50.27 33 50.27 32.56 50.27 32.34 50.27 31.64 50.27 31.42 50.27 30.73 50.27 30.51 50.28 29.81 50.28 29.59 50.28 28.9 50.28 28.67 50.28 27.87 50.14 27.77 50.14 28.57 50.14 28.8 50.14 29.49 50.14 29.49 50.14 29.71 50.13 30.41 50.13 30.63 50.13 31.32 50.13 31.54 50.13 32.24 50.13 32.46 50.13 33.13"/><polygon class="cls-17" points="49.55 33.66 49.69 33.54 49.69 33.06 49.69 32.84 49.69 32.15 49.69 31.92 49.69 31.23 49.69 31.01 49.69 31.01 49.69 30.31 49.69 30.09 49.7 29.4 49.7 29.18 49.7 29.17 49.7 28.48 49.7 28.26 49.7 27.44 49.56 27.34 49.56 28.16 49.56 28.38 49.55 29.07 49.55 29.07 49.55 29.3 49.55 29.99 49.55 29.99 49.55 30.21 49.55 30.91 49.55 31.13 49.55 31.13 49.55 31.82 49.55 32.05 49.55 32.74 49.55 32.96 49.55 33.66"/><path class="cls-20" d="M44.67,24.3v.86l-.28,0v-.9c-.23,0-.44,0-.68-.05,0,.1,0,.85,0,.92l-.21,0c0-.11,0-.8,0-.92a3.31,3.31,0,0,1-.7-.12l-.15-.05c-.43-.15-.8-.4-.79-.81,0-.64,1.1-1.17,2.36-1.15v.41c-2.77,0-2.76,1.49,0,1.48,2.41,0,2.74-1.37.12-1.48v-.4C46.87,22,47,24.26,44.67,24.3Z"/><path class="cls-8" d="M44.13,24h.14c0-1.61,0-3.84-.05-5.46C44.19,20.15,44.16,22.37,44.13,24Z"/><path class="cls-13" d="M44.1,19.24c0,.26.23.26.23,0S44.09,19,44.1,19.24Z"/><path class="cls-13" d="M44.1,20c0,.26.23.26.23,0S44.09,19.74,44.1,20Z"/><path class="cls-13" d="M44.07,20.86c0,.28.26.28.26,0S44.07,20.57,44.07,20.86Z"/><path class="cls-13" d="M42.72,24.53v.71a2.21,2.21,0,0,0,2.78,0v-.52l-.25.23h0a2.41,2.41,0,0,1-2.29,0h0A.48.48,0,0,1,42.72,24.53Z"/><path class="cls-20" d="M45,25.53V43.39A2.64,2.64,0,0,0,45.5,43V25.21A2,2,0,0,1,45,25.53Z"/><path class="cls-20" d="M42.72,25.24v18a3.65,3.65,0,0,0,.43.23v-18A2,2,0,0,1,42.72,25.24Z"/><path class="cls-20" d="M43.69,25.67l0,17.93a2,2,0,0,0,.65,0h0V25.69a2.33,2.33,0,0,1-.64,0Z"/><path class="cls-31" d="M45.5,26.06a3,3,0,0,1-2.78.1v.48a4.37,4.37,0,0,0,2.78-.11Z"/><path class="cls-31" d="M45.5,27.86a3,3,0,0,1-2.78.1v.49a4.33,4.33,0,0,0,2.78-.12Z"/><path class="cls-31" d="M45.5,29.67a3,3,0,0,1-2.78.09v.49a4.33,4.33,0,0,0,2.78-.12Z"/><path class="cls-31" d="M45.5,31.47a3,3,0,0,1-2.78.1v.48a4.37,4.37,0,0,0,2.78-.11Z"/><path class="cls-31" d="M45.5,33.27a3,3,0,0,1-2.78.1v.48a4.37,4.37,0,0,0,2.78-.11Z"/><path class="cls-31" d="M45.5,35.08a3,3,0,0,1-2.78.09v.49a4.33,4.33,0,0,0,2.78-.12Z"/><path class="cls-31" d="M45.5,36.88a3,3,0,0,1-2.78.1v.48a4.33,4.33,0,0,0,2.78-.12Z"/><path class="cls-31" d="M45.5,38.68a3,3,0,0,1-2.78.1v.48a4.37,4.37,0,0,0,2.78-.11Z"/><path class="cls-31" d="M45.5,40.48a3,3,0,0,1-2.78.1v.49A4.33,4.33,0,0,0,45.5,41Z"/><path class="cls-31" d="M45.5,42.29a3,3,0,0,1-2.78.1v.48a4.33,4.33,0,0,0,2.78-.12Z"/><path class="cls-17" d="M43.15,43.45a2.6,2.6,0,0,0,.56.15h0l0-17.93a2.37,2.37,0,0,1-.53-.18Z"/><path class="cls-17" d="M44.37,25.69V43.58a2.19,2.19,0,0,0,.58-.19h0V25.53A2.3,2.3,0,0,1,44.37,25.69Z"/><path class="cls-13" d="M44.82,22.87v1.06l.27-.05v-.66l.25-.56L45,22.58Z"/><path class="cls-13" d="M43.06,22.6l.17.58v.73l.2,0V22.88l-.15-.32Z"/><path class="cls-13" d="M45.25,24.92h0l.25-.23.1-.56-.22.08Z"/><path class="cls-13" d="M42.93,24.92c-.26-.14-.24-.61-.34-.87l.15.05C42.8,24.3,42.88,24.77,42.93,24.92Z"/><path class="cls-20" d="M6.63,13.6c0,.28.23.54.6.72a7.3,7.3,0,0,0,.87.16c0,.12,0,.73.05.83l.18.06c0-.07,0-.77,0-.86.22,0,.4,0,.61.05v.81l.25,0v-.77a2.2,2.2,0,0,0,.84-.16h0a.44.44,0,0,0,.14-.08c1.39-.76.11-1.74-1.36-1.74v.36c2.35.1,2.05,1.3-.11,1.3-2.47,0-2.47-1.32,0-1.3v-.36C7.62,12.56,6.62,13,6.63,13.6Z"/><path class="cls-8" d="M8.73,14.27h.12V11.62h0l0-2.26,0,2.26v1.32l0,1.2Z"/><path class="cls-13" d="M8.7,10c0,.23.21.23.21,0S8.69,9.78,8.7,10Z"/><path class="cls-13" d="M8.7,10.69c0,.23.21.23.21,0S8.69,10.46,8.7,10.69Z"/><ellipse class="cls-13" cx="8.79" cy="11.46" rx="0.12" ry="0.2"/><path class="cls-13" d="M7.46,14.76v.64a1.92,1.92,0,0,0,2.5,0V14.9l-.23.22h0a2.1,2.1,0,0,1-2.06,0h0A.48.48,0,0,1,7.46,14.76Z"/><path class="cls-20" d="M9.47,15.66V31.71a2.11,2.11,0,0,0,.49-.32v-16A1.75,1.75,0,0,1,9.47,15.66Z"/><path class="cls-20" d="M7.46,15.4V31.55a1.86,1.86,0,0,0,.39.21V15.63A2,2,0,0,1,7.46,15.4Z"/><path class="cls-20" d="M8.33,15.78l0,16.12a2.21,2.21,0,0,0,.58,0h0V15.81A1.83,1.83,0,0,1,8.33,15.78Z"/><path class="cls-31" d="M10,16.14a2.68,2.68,0,0,1-2.5.09v.43a4,4,0,0,0,2.5-.1Z"/><path class="cls-31" d="M10,17.76a2.68,2.68,0,0,1-2.5.09v.43a4,4,0,0,0,2.5-.1Z"/><path class="cls-31" d="M10,19.38a2.68,2.68,0,0,1-2.5.09v.43a4,4,0,0,0,2.5-.1Z"/><path class="cls-31" d="M10,21a2.68,2.68,0,0,1-2.5.09v.43a4,4,0,0,0,2.5-.1Z"/><path class="cls-31" d="M10,22.62a2.68,2.68,0,0,1-2.5.09v.43A4,4,0,0,0,10,23Z"/><path class="cls-31" d="M10,24.24a2.68,2.68,0,0,1-2.5.09v.43a4,4,0,0,0,2.5-.1Z"/><path class="cls-31" d="M10,25.86a2.68,2.68,0,0,1-2.5.09v.43a4,4,0,0,0,2.5-.1Z"/><path class="cls-31" d="M10,27.48a2.68,2.68,0,0,1-2.5.09V28a4,4,0,0,0,2.5-.1Z"/><path class="cls-31" d="M10,29.1a2.68,2.68,0,0,1-2.5.09v.43a4,4,0,0,0,2.5-.1Z"/><path class="cls-31" d="M10,30.72a2.68,2.68,0,0,1-2.5.09v.43a4,4,0,0,0,2.5-.1Z"/><path class="cls-17" d="M7.85,31.76a2,2,0,0,0,.5.14h0l0-16.12a1.77,1.77,0,0,1-.45-.14h0Z"/><polyline class="cls-21" points="8.35 31.9 8.35 31.91 8.35 31.9"/><path class="cls-17" d="M8.94,15.81V31.88a2.2,2.2,0,0,0,.53-.17v-16A1.85,1.85,0,0,1,8.94,15.81Z"/><path class="cls-13" d="M9.35,13.27v1l.24,0v-.6l.23-.5L9.53,13Z"/><path class="cls-13" d="M7.77,13l.15.53v.66l.18,0v-1L8,13Z"/><path class="cls-13" d="M9.73,15.12h0L10,14.9l.09-.5a.77.77,0,0,1-.2.07Z"/><path class="cls-13" d="M7.33,14.34l.13.42v0a.46.46,0,0,0,.21.33h0l-.2-.74Z"/><polygon class="cls-12" points="9.34 25.37 9.34 31.63 9.94 32.06 10.41 32.39 11.36 33.07 12 33.53 12.73 34.05 13.28 33.63 13.34 27.54 12.83 28.2 12 27.53 11.36 27.01 10.41 26.24 9.94 25.86 9.34 25.37"/><polygon class="cls-17" points="12.82 29.83 9.34 27.16 9.34 27.5 12.81 30.11 12.82 29.83 12.82 29.83"/><polygon class="cls-17" points="12.82 28.89 9.34 26.21 9.34 26.55 12.81 29.16 12.82 28.89 12.82 28.89"/><polygon class="cls-20" points="11.36 26.81 11.36 33.07 12 33.53 12 27.32 11.36 26.81"/><polygon class="cls-12" points="9.94 23.62 9.34 24.22 12.89 27.33 13.34 26.55 9.94 23.62"/><polygon class="cls-10" points="13.34 26.55 13.34 27.54 12.83 28.2 12.89 27.33 13.34 26.55"/><polygon class="cls-20" points="9.94 25.82 9.94 32.06 10.41 32.39 10.41 26.18 9.94 25.82"/><polygon class="cls-30" points="9.34 25.37 9.34 24.22 12.89 27.33 12.83 28.2 9.34 25.37"/><polygon class="cls-19" points="12.83 28.2 12.73 34.05 13.28 33.68 13.34 27.54 12.83 28.2 12.83 28.2"/><polygon class="cls-29" points="11.32 29.66 10.41 28.79 10.41 32.39 11.36 33.07 11.32 29.66"/><path class="cls-13" d="M12.55,40.79C19.34,46.57,29,48,35.72,45.51c.18-.22.4-.52.34-.76a26.36,26.36,0,0,1-22.71-4.36A2.06,2.06,0,0,0,12.55,40.79Z"/><polygon class="cls-12" points="8.89 44.56 8.45 44.18 12.73 36.93 13.28 36.98 8.89 44.56"/><polygon class="cls-13" points="51.13 40.53 55.57 46.05 55.22 46.34 50.85 40.81 51.13 40.53"/><polygon class="cls-13" points="46.1 43.92 45.73 44.08 51.01 49.91 51.33 49.64 46.1 43.92"/><path class="cls-32" d="M18.6,32.46s-.1,0-.13.06h-.1s-.12,0-.15.08h-.07a3.73,3.73,0,0,0,.67-1.26c.13.23.45.55.19.78,0,0,0,.05-.05,0s0,0,0,0,0,0,0,0-.09.11-.16.14v0c-.05,0-.06.06-.1.07h0Z"/><path class="cls-32" d="M18.87,33.23a5.66,5.66,0,0,1-.11,1.31c-.31-.22-.2-.68-.17-1s0-.82,0-1A1,1,0,0,1,18.87,33.23Z"/><path class="cls-32" d="M21,34.78c0,.09-.07.08-.11.08h-.07s-.09,0-.12,0c-.43,0-.57-.82-.8-1.13h0c0,.19,0,.35,0,.53a.4.4,0,0,0,0,.11c.22-.1.5.45.15.44h0s0,0,0,0-.05,0-.07,0c0,.21,0,.47-.1.6a.84.84,0,0,1-.14-.62c-.22,0-.3-.32-.4-.47a.72.72,0,0,0,.41,0c0-.21,0-.44,0-.65-.05,0-.08.15-.14.22a.05.05,0,0,1,0,0s0,0,0,0h0l0,0a.4.4,0,0,1-.12.1s-.05,0-.08.06-.15,0-.22.06h-.12s0,0-.07,0a1.42,1.42,0,0,0,.22-.2h0s0,0,0,0l0,0h0s.05-.06.07-.07a3.15,3.15,0,0,0,.46-.8s-.06,0-.07,0c-.25.05-.33-.3-.44-.47a.94.94,0,0,0,.44,0l.13,0c0-.4-.06-.83-.05-1.21.27.26.46.51.32.89a.1.1,0,0,1,0,.1.17.17,0,0,1,0,.07s0,.08,0,.12h0a.25.25,0,0,0,.17,0c.2-.14.5.43.14.42h0s0,0-.05,0a.32.32,0,0,0-.14,0H20L20,33s0,.07,0,.09a.45.45,0,0,0,.11.41A12.16,12.16,0,0,0,21,34.78Z"/><path class="cls-32" d="M23,34.13c.34,0,.54-.42.43-.71-.15,0-.27,0-.43,0a.76.76,0,0,1-.16-.37,2.2,2.2,0,0,0,.81.05c0-.23-.14-.47-.15-.7l.07.06c.18.13.39.39.28.62.33,0,1.31,0,1,.53a4.6,4.6,0,0,0-1.23-.21h-.13l0,0c.12.12.31.43.15.59h0c.14,0,.35,0,.53,0l-.08-.28h0a.94.94,0,0,1,.24.28c.26.34.11.78-.15.16C23.83,34.35,23.11,34.66,23,34.13Z"/><path class="cls-32" d="M23.51,35.9c0,.27,0,.78-.19.3s.1-1.12-.1-1.65a.53.53,0,0,1,.29.6s0,0,0,0c.34-.14.65.41,1,.49-.16,0-.62-.29-.82-.16-.13,0-.22,0-.18.17s.43-.11.52.1S23.61,35.91,23.51,35.9Z"/><path class="cls-32" d="M24.45,35c-.14.58.11,1.2-.05,1.77,0,.13-.12-.1-.17-.14s-.31-.29-.07-.31a7.71,7.71,0,0,0,0-1c-.06-.2.09-.58-.15-.5s-.48.1-.45-.16l.39-.13s.13-.06.17-.05.24.23.29.32a0,0,0,0,0,0,0s0,.1,0,.15Z"/><path class="cls-32" d="M27.64,33.76c.22.12.36.5.05.65a.2.2,0,0,0-.08,0c-.38.21-.19-.14-.12-.39h-.07a.12.12,0,0,0-.09.1.46.46,0,0,1-.07.14l-.05.06a1.21,1.21,0,0,1-.43.49c0-.19.38-.81.31-1.1,0-.09.13,0,.17,0a.46.46,0,0,1,.1.18h0c.13,0,.18-.17.26-.21Zm-.45.78c.51.21.2,1.06.32,1.53.32-.48.08.45,0,.63,0,0,0,.06-.05.1s-.22,0-.28-.14,0-.3,0-.37a7.22,7.22,0,0,0,0-1.75Zm-.07-.88h0S27.1,33.65,27.12,33.66Zm.74.71c.51.65-.27,1.48,0,0C27.86,34.41,27.86,34.37,27.86,34.37Zm.36-.65c.21.1.4.34.28.57,0,0,0,.09,0,.12.23,0,.48-.2.63,0s.31.44,0,.5h-.06c-.32.25-.32-.1-.26-.35-.23,0-.64.23-.77,0v0s.16-.07.23-.09C28.31,34.24,28.18,33.91,28.22,33.72Zm.37,1.11a.45.45,0,0,1,.22.28c-.07.09,0,.22-.08.34s-.36.12-.44,0a3.89,3.89,0,0,0,0,.42,4.32,4.32,0,0,0,.57-.14c.31.06.35.5.23.74s.16.28-.07.39c-.22-.16-.53-.09-.73-.25,0,0,0,.11,0,.14s0,.16,0,.18-.12,0-.14-.09c-.06-.64,0-1.39-.07-2,0-.11.16.11.2.15,0,.25,0,.35.28.25,0-.37-.07-.11-.26-.27S28.54,34.91,28.59,34.83ZM28.81,36s-.08,0-.09,0-.06,0-.08,0c-.23,0-.37,0-.31.26s0,.23.28.19.19,0,.18-.17a1.68,1.68,0,0,1,0-.2s0,0,0,0A.48.48,0,0,0,28.81,36Z"/><path class="cls-33" d="M12.82,15.53c.07,1.63.62,2.55,2,4.31l8.51-4a7,7,0,0,1-.23-1.49Z"/><path class="cls-34" d="M18.34,22.72a18.21,18.21,0,0,0,4.42,1.71l2.41-5.74-.46-.5-.32-.36-.09-.09Z"/><path class="cls-34" d="M26.55,25.1l.49,0q1.65.15,3.12.24L30,19.91h0a9.64,9.64,0,0,1-1.23-.05Z"/><path class="cls-34" d="M33.62,19.49l.15,6c1.57,0,2.94,0,4.13-.11l-3.19-6.33a9.55,9.55,0,0,1-1,.33Z"/><path class="cls-35" d="M22.52,14.38a7.74,7.74,0,0,0,1.2,2.84,6.22,6.22,0,0,0,1,1.13,8,8,0,0,0,4.83,1.71,9.69,9.69,0,0,0,3.69-.25,11,11,0,0,0,4-2.35,3.78,3.78,0,0,0,1-1.31,3.47,3.47,0,0,0,.24-.86,30.75,30.75,0,0,0-7.75-1.85,31.64,31.64,0,0,0-4.22-.15c-1.54.05-3,.11-4.13.23C22.3,13.69,22.46,14.09,22.52,14.38Z"/><path class="cls-36" d="M22.53,14.33c0,.07,0,.15,0,.23s.57-.05.57,0l6.7-.08-5.24,3.77.12.13.06.06,5.35-3.85-.72,5.5h.21l.71-5.41,2.6,5.12h0l.22-.05-2.54-5,5.31,3.9.23-.15-5.4-4,7.18.66s-.63-.25-1.06-.39l-.51-.17-5.39-.37,1.61-.54c-.18,0-.42,0-.61-.06l-1.68.53-1.05-.85h-.44l1.09.87Z"/><path class="cls-13" d="M10,19.3l0,.89a15.67,15.67,0,0,0,2,3.44,12.82,12.82,0,0,0,4,3.36,25.55,25.55,0,0,0,7.17,2.87,33.09,33.09,0,0,0,6.91.75,56.21,56.21,0,0,0,6.59-.11,54,54,0,0,0,7.37-1.08l0-.49A41.37,41.37,0,0,1,17,24.09,48.58,48.58,0,0,1,10,19.3Z"/><path class="cls-37" d="M14.33,19.13a9.85,9.85,0,0,0,1.26,1.54c2.87,2.83,7.08,4,11,4.42,5.16.49,10.55.78,15.66-.27l1.91,4.11c-8,1.44-19.67,2.4-27.39-2a16.24,16.24,0,0,1-2.13-1.44l-.13-.1A14.55,14.55,0,0,1,11,21.25a1.19,1.19,0,0,1-.08-.16,14.65,14.65,0,0,1-.95-2l3.62-1.25"/><polygon class="cls-13" points="7.46 19.47 6.64 19.62 6.86 19.93 7.46 19.73 7.46 19.47 7.46 19.47"/><polygon class="cls-12" points="39.24 17.39 39.75 17.47 39.37 17.78 39.04 17.59 39.24 17.39"/><polygon class="cls-19" points="39.37 18.25 39.37 17.78 39.04 17.59 39.04 18.05 39.37 18.25"/><polygon class="cls-13" points="39.75 17.47 39.77 17.66 39.37 18.25 39.37 17.78 39.75 17.47"/><polygon class="cls-12" points="37.16 19.48 37.68 19.56 37.3 19.87 36.97 19.68 37.16 19.48"/><polygon class="cls-19" points="37.3 20.34 37.3 19.87 36.97 19.68 36.97 20.14 37.3 20.34"/><polygon class="cls-13" points="37.68 19.56 37.7 19.75 37.3 20.34 37.3 19.87 37.68 19.56"/><polygon class="cls-12" points="33.58 20.7 33.78 21.04 33.05 21.23 33.05 20.78 33.58 20.7"/><polygon class="cls-13" points="33.78 21.59 33.78 21.04 33.05 21.23 33.05 21.68 33.78 21.59"/><polygon class="cls-19" points="33.05 20.78 33 21.21 33.05 21.68 33.05 21.23 33.05 20.78"/><path class="cls-12" d="M29,21.24l-.27.47-.64-.37.3-.27Z"/><polygon class="cls-19" points="28.98 21.79 28.95 21.24 28.69 21.71 28.69 22.16 28.98 21.79"/><polygon class="cls-13" points="28.05 21.34 27.99 21.83 28.69 22.16 28.69 21.71 28.05 21.34"/><path class="cls-12" d="M23.91,19.29l.47.44s-.38.13-.38.14l-.51-.38Z"/><polygon class="cls-19" points="24.37 20.17 24.38 19.73 24 19.87 24 20.36 24.37 20.17"/><polygon class="cls-13" points="23.49 19.49 23.44 20.04 24 20.36 24 19.87 23.49 19.49"/><path class="cls-12" d="M20.45,13.64l.26.53-.24.06s-.3-.47-.3-.47Z"/><polygon class="cls-19" points="20.68 14.6 20.71 14.17 20.47 14.23 20.44 14.72 20.68 14.6"/><polygon class="cls-13" points="20.17 13.76 20.11 14.3 20.44 14.72 20.47 14.23 20.17 13.76"/><path class="cls-12" d="M21.62,16.59,22,17s-.32.12-.32.13-.44-.37-.44-.37Z"/><polygon class="cls-19" points="22.02 17.46 22.02 17.02 21.7 17.16 21.7 17.65 22.02 17.46"/><polygon class="cls-13" points="21.26 16.79 21.21 17.34 21.7 17.65 21.7 17.16 21.26 16.79"/><path class="cls-38" d="M40.43,25.14c.08.22.17.44.24.66.16.46.29.94.46,1.38a9.88,9.88,0,0,0,.6,1.17,10.28,10.28,0,0,1,.49.93l.16,0c-.36-.82-.87-1.47-1.18-2.33-.17-.46-.3-.94-.47-1.4l-.15-.41Z"/><path class="cls-38" d="M38.31,25.38c0,.2.09.41.14.62.28,1.23.58,2.46.88,3.69l.14,0c-.35-1.43-.69-2.86-1-4.3Z"/><path class="cls-38" d="M35.93,25.5c0,.18,0,.35,0,.52v1.66c0,.55,0,1.09,0,1.64,0,.23,0,.45,0,.68h.13c-.06-.85,0-1.71-.05-2.56,0-.64,0-1.29,0-1.93Z"/><path class="cls-38" d="M32.88,30.12H33c.07-1.54.13-3.07.2-4.61h-.14l0,.39Z"/><path class="cls-38" d="M30,30.09h.14c.1-.76.22-1.53.36-2.28s.33-1.59.53-2.37H30.9c-.09.32-.17.64-.24,1-.24,1.05-.44,2.13-.59,3.22C30.05,29.78,30,29.93,30,30.09Z"/><path class="cls-38" d="M27.48,29.92h.15c.23-.79.47-1.59.71-2.38s.45-1.49.69-2.24h-.15l-.24.76c-.33,1.08-.66,2.17-1,3.26Z"/><path class="cls-38" d="M24.8,29.57l.14,0c.43-1.51.85-3,1.27-4.53l-.14,0-.15.54C25.54,26.91,25.17,28.24,24.8,29.57Z"/><path class="cls-38" d="M22.6,29.13l.15,0c.32-.86.62-1.72.9-2.61.19-.59.37-1.2.55-1.8l-.15,0c-.05.17-.09.34-.14.51-.29,1-.59,1.92-.93,2.85C22.86,28.43,22.73,28.78,22.6,29.13Z"/><path class="cls-38" d="M19.84,28.31l.14.05c.39-.8.76-1.6,1.12-2.42.26-.58.5-1.17.74-1.76l-.14-.05-.21.52c-.38.91-.78,1.81-1.19,2.7Z"/><path class="cls-38" d="M16.58,26.83l.15.08a2.85,2.85,0,0,1,.23-.26c.57-.68,1.14-1.38,1.69-2.1.31-.4.61-.8.91-1.22l-.15-.06-.14.19c-.54.73-1.09,1.45-1.66,2.15C17.27,26,16.93,26.43,16.58,26.83Z"/><path class="cls-38" d="M17.58,22.26l-.95,1c-.67.73-1.35,1.47-2,2.19l-.13-.1.87-.94,2.09-2.26Z"/><path class="cls-38" d="M15.72,20.79c-.52.43-1.05.84-1.59,1.24s-1.15.86-1.74,1.27l-.11-.14.24-.17c.92-.65,1.83-1.33,2.73-2l.34-.27Z"/><path class="cls-38" d="M10.91,21.09l2.87-1.82.45-.29.1.15-3.13,2-.21.13Z"/><path class="cls-39" d="M53.4,21.76l2.55,1a.59.59,0,0,1,0-.08l-2.49-1Z"/><path class="cls-39" d="M53.68,22.27l2.49,1.07,0-.08-2.45-1.05Z"/><path class="cls-39" d="M53.8,22.83,56.38,24l0-.07-2.55-1.19Z"/><path class="cls-39" d="M54.14,23.7,56.6,25s0-.06,0-.08l-2.42-1.3Z"/><path class="cls-39" d="M54.17,24.37l2.51,1.55v-.07l-2.49-1.54Z"/><path class="cls-39" d="M54.08,25l2.54,2a.17.17,0,0,0,0-.07l-2.53-2Z"/><path class="cls-39" d="M53.79,25.63l2.6,2.21a.14.14,0,0,0,0-.06l-2.59-2.21Z"/><path class="cls-39" d="M53.35,26.06,56,28.56l0,0L53.38,26Z"/><path class="cls-39" d="M53,26.46l2.52,2.75,0,0-2.53-2.76Z"/><path class="cls-39" d="M52.45,27,55,29.71l0,0L52.48,27Z"/><path class="cls-39" d="M51.87,27.56l2.53,2.5.05,0-2.56-2.52Z"/><path class="cls-9" d="M48.44,25.66h0L51.26,28c5.93-3.12,1.35-7.25,1.35-7.25l-5.24-2.46c1.06,1,2.4,2.49,2.35,3.61A8.31,8.31,0,0,1,48.44,25.66Z"/><path class="cls-2" d="M51.62,40.76c.06.15,0,.13.12.25s.11.4.37.67.4.12.66.39.11.4.37.67.38.09.61.32c.07.08,0,.08.13.11s.14,0,.27,0a1.71,1.71,0,0,0,.49-.12s.16.23.19.22,0-.06,0-.07.13-.33.22-.5c0,0,.09,0,.09,0s0-.25.07-.3.12-.1.11-.19a.23.23,0,0,0-.14-.19s-.06-.11-.09-.19,0,0,0,0,.06,0,.06,0c0-.24.21-.4.24-.74l-.19,0s.23,0,.23,0c0-.18-.25-.32-.36-.48s-.19-.4-.34-.45-.39.17-.62,0-.31-.1-.43-.3-.09-.5-.18-.5,0,.37-.22.5-.49-.33-.72-.19-.15.21-.34.43a6.34,6.34,0,0,1-.52.51C51.65,40.57,51.69,40.6,51.62,40.76Z"/><path class="cls-40" d="M51.63,41c.13.14.42.27.61.45s.17.47.34.65.4.27.56.43.42.28.57.43.31.4.44.54a1.57,1.57,0,0,0,.58-.07c.17,0,.35-.09.42-.35.3-.46.46-.49.1-.74a.63.63,0,0,1,0-.72c.11-.22.4-.47.21-.72a.78.78,0,0,0-.55-.44c-.21,0-.44,0-.66-.07s-.53-.88-.62-.86-.16.28-.34.41-.28,0-.52.11-.36.29-.56.45S51.79,40.89,51.63,41Z"/><path class="cls-2" d="M55.08,43.1v0l0-.07a.43.43,0,0,1-.27,0c-.18-.09-.15-.33-.31-.41s-.2.07-.28,0-.14-.39-.07-.45.29.5.64.53c.11,0,.22,0,.3,0s.28,0,.29,0S55.36,42.81,55.08,43.1Z"/><path class="cls-2" d="M52.94,41.38c.32,0,.52-.59.63-.5s0,.29-.09.45a.68.68,0,0,1-.3.44.52.52,0,0,1-.56,0c-.11-.08-.06-.16-.29-.45s-.28-.25-.33-.43,0-.41,0-.43.11.19.29.43S52.68,41.39,52.94,41.38Z"/><path class="cls-2" d="M53.29,42.62a1.15,1.15,0,0,0,.39.51s.1-.06.15-.09.33-.32.3-.4,0,0,0,0l0,0c-.09-.06-.46.18-.56,0s0-.41,0-.43S53.48,42.53,53.29,42.62Z"/><path class="cls-2" d="M54.19,40.76s-.1,0-.31.2-.33.29-.32.38.22.16.59.43.41.42.58.38A.34.34,0,0,0,55,41.8c0-.06-.11.08-.25,0s-.17-.31-.32-.39-.16,0-.22-.11S54.27,40.85,54.19,40.76Z"/><path class="cls-2" d="M46.31,45.57c.23,0,.39.42.64.47s.49,0,.67.2.52.33.53.64a1.38,1.38,0,0,1-.31.63c-.12.18-.27.21-.22.4a2.17,2.17,0,0,1,.13.48c-.06.08-.16.3-.35.57s-.31.38-.47.43a3.67,3.67,0,0,1-.69.2c-.44,0-.7.6-.93.48-.21-.43-.29-.54-.49-.46a4.09,4.09,0,0,0-.74.29c-.12.07-.25-.19-.53-.45s-.75-.31-.8-.47.13-.4.15-.57.05-.33,0-.41c-.35.08-.46-.18-.49-.44a1.47,1.47,0,0,1,0-.76c.13-.3.49-.33.71-.47a8.17,8.17,0,0,0,.68-.52c.19-.37.32-.46.49-.49s.53.14.86.1c.19-.36.18-.52.29-.5a.63.63,0,0,1,.54.29A1,1,0,0,0,46.31,45.57Z"/><path class="cls-3" d="M46.44,46.11c.23,0,.39.42.64.48s.49,0,.66.19.52.34.53.65a1.29,1.29,0,0,1-.3.62c-.13.18-.27.22-.22.4a2.17,2.17,0,0,1,.12.49,5.08,5.08,0,0,1-.35.56,1.09,1.09,0,0,1-.46.44,6.27,6.27,0,0,1-.69.2c-.45,0-.71.6-.93.47-.21-.42-.29-.53-.49-.46a5.22,5.22,0,0,0-.74.3c-.12.07-.25-.2-.54-.46s-.74-.31-.79-.46S43,49.12,43,49s0-.33,0-.42c-.36.09-.46-.17-.5-.43a1.61,1.61,0,0,1,0-.76c.13-.31.48-.34.7-.48a4.23,4.23,0,0,0,.68-.52c.2-.37.33-.45.5-.49s.52.15.86.1c.19-.36.18-.51.29-.5a.66.66,0,0,1,.54.29A.88.88,0,0,0,46.44,46.11Z"/><path class="cls-2" d="M47.51,49.5l0-.08,0,0a.81.81,0,0,1-.39,0c-.25-.1-.21-.4-.43-.49s-.3.11-.41,0-.15-.45,0-.52.37.47.86.5c.16,0,.3.12.42.12.28,0,.46-.15.48-.1S47.9,49.14,47.51,49.5Z"/><path class="cls-2" d="M44.56,47.37c.45,0,.76-.71.9-.6s0,.41-.11.59a1,1,0,0,1-.45.61.8.8,0,0,1-.75-.09c-.15-.1-.1-.15-.43-.51s-.46-.27-.53-.48a.43.43,0,0,1,.15-.47c.07,0,.18.09.44.38S44.19,47.39,44.56,47.37Z"/><path class="cls-2" d="M45.38,48.47c-.05,0-.09.49-.37.59s-.37-.16-.37-.16c-.37-.55-.51-.47-.51-.47s-.08.33,0,.54c0,0,.12.46.42.58.12.05.2,0,.45-.06.52,0,.56,0,.8-.1s.44-.31.4-.4-.69.27-.85,0S45.43,48.49,45.38,48.47Z"/><path class="cls-2" d="M46.3,46.66s-.14.05-.43.26-.47.35-.45.46.31.19.82.52.58.5.83.45.39-.31.35-.4-.15.09-.35,0-.23-.37-.45-.47-.22,0-.3-.15S46.41,46.77,46.3,46.66Z"/><path class="cls-2" d="M43.24,49.51c.13.38.77.58.82.47s-.14-.1-.36-.48a1.86,1.86,0,0,1-.21-.54,2.48,2.48,0,0,0-.27-.48C43,48.11,43,48,42.94,48s.13.16.26.42.24.46.19.6-.24.06-.24.17A2.38,2.38,0,0,0,43.24,49.51Z"/><path class="cls-19" d="M50.7,49.32s-4.56,3.82-8.85,3.82v.54s5.56-.21,8.85-3.9Z"/><path class="cls-13" d="M50.3,49.15l.4.17s-4.13,3.82-8.85,3.82l.2-.48A13.26,13.26,0,0,0,50.3,49.15Z"/><path class="cls-41" d="M48.77,48.62a2.22,2.22,0,0,1,.61,0,.54.54,0,0,1,.39.45c0,.16-.09.37-.37.62a4.1,4.1,0,0,1-.55.56c-.21.13-.5.17-.73.3s-.42.33-.65.45-.58,0-.81.12-.41.33-.67.42-.45.3-.7.37-.53.11-.77.16a7.2,7.2,0,0,1-.8,0A2.91,2.91,0,0,1,43,52c-.33,0-.69-.06-.75-.28a1,1,0,0,1,.07-.61c.08-.17.31-.29.42-.4a.91.91,0,0,1,.67-.35c.21,0,.42.26.7.29a3,3,0,0,0,.73-.1,3.19,3.19,0,0,0,.61-.28c.17-.09.36-.21.6-.33s.34-.29.56-.42.57-.13.76-.24a5.94,5.94,0,0,1,.72-.3C48.31,48.83,48.5,48.63,48.77,48.62Z"/><path class="cls-4" d="M48.77,49.13c.14,0,.28,0,.31.06a.44.44,0,0,1-.24.47c-.13,0-.27-.17-.3-.25a.41.41,0,0,1,0-.29C48.56,49.05,48.67,49.13,48.77,49.13Z"/><path class="cls-4" d="M47.45,50s-.33.11-.33.13.52-.14.55,0-.14.19-.24.25-.27.22-.35.15a.41.41,0,0,1-.08-.33C47.07,50,47.45,50,47.45,50Z"/><path class="cls-4" d="M47.62,49.29s-.26.09-.26.12.55-.15.58,0-.15.19-.25.25-.21.16-.29.09a.21.21,0,0,1,0-.23C47.43,49.3,47.62,49.27,47.62,49.29Z"/><path class="cls-4" d="M45.76,50.48s.14.1.12.21-.39.25-.39.32.12.06.13,0-.06-.09-.1-.24a.29.29,0,0,1,0-.29A.15.15,0,0,1,45.76,50.48Z"/><path class="cls-4" d="M44.32,51s.24.07.26.21a.39.39,0,0,1-.21.39c-.08,0-.1-.06-.32-.06s-.21,0-.23,0,.13-.16.2-.24S44.26,51,44.32,51Z"/><path class="cls-4" d="M43.72,50.61s.23,0,.26.09-.1.21-.25.26,0,.1-.27.09-.22,0-.24,0,.1-.19.17-.27A.4.4,0,0,1,43.72,50.61Z"/><path class="cls-4" d="M43.11,50.55c.1.07.08.31,0,.46s-.22.23-.31.15-.07-.24-.05-.33S43,50.48,43.11,50.55Z"/><path class="cls-4" d="M43.29,51.27a.31.31,0,0,1,0,.41c-.08.1-.18.15-.27.07a.25.25,0,0,1-.07-.26C43,51.3,43.18,51.2,43.29,51.27Z"/><path class="cls-4" d="M48.48,49.69c.1,0,.2,0,.22.09a.29.29,0,0,1-.18.31c-.1,0-.14-.1-.17-.16s-.11-.16-.08-.22S48.41,49.69,48.48,49.69Z"/><path class="cls-4" d="M47.71,50.34s-.17.07-.17.09.39-.12.41,0-.13.18-.2.22-.17.1-.23,0a.26.26,0,0,1-.08-.21C47.49,50.32,47.7,50.33,47.71,50.34Z"/><path class="cls-4" d="M46.55,50.72s.1.06.09.13-.33.2-.33.25.19,0,.21,0-.16-.07-.19-.18a.37.37,0,0,1,.07-.27C46.46,50.62,46.53,50.71,46.55,50.72Z"/><path class="cls-4" d="M45.5,51s.15,0,.17.11a.23.23,0,0,1-.15.25c-.05,0-.05,0-.21,0s-.14,0-.15,0,.05-.15.1-.21A.4.4,0,0,1,45.5,51Z"/><path class="cls-4" d="M46.57,50s.18-.06.2.05-.09.17-.2.21,0,0-.19,0-.15,0-.16,0,.05-.15.11-.21A.23.23,0,0,1,46.57,50Z"/><path class="cls-4" d="M45.07,50.7a.33.33,0,0,1,0,.34c-.05.09-.11.13-.17.06a.25.25,0,0,1,0-.23C44.92,50.72,45,50.63,45.07,50.7Z"/><path class="cls-42" d="M11.67,43.64c.17.17.3.39.48.55s.55.09.74.24.12.61.32.76.56,0,.76.17.43.21.63.34.41.23.62.36.37.29.58.41.43.2.65.31.22.6.43.71.46.17.67.27l.66.31c.22.1.51,0,.73.14s.48.1.7.19l.67.25c.23.08.48.08.71.16s.4.3.62.38.38.42.6.49.55-.13.78-.06.39.4.62.46.53-.16.76-.1.48.06.72.11.44.26.67.3.51-.15.74-.12.44.44.68.46.5,0,.73,0a5.14,5.14,0,0,0,.7-.17c.27,0,.52.07.72,0s.45-.25.66-.31.44-.13.67-.17a3.88,3.88,0,0,1,.7,0c.21,0,.43.1.7.14s.57.16.85.18a1.76,1.76,0,0,0,1-.1c0-.13.13-.48.25-.77s-.07-.56,0-.78.36-.68.33-.82c-.24.05-.5.37-.73.41s-.5-.11-.74-.07-.46.13-.69.16-.45.29-.69.31-.49-.1-.72-.09-.48.16-.71.17-.49-.29-.72-.29-.48,0-.71,0-.49.15-.72.13-.47-.1-.71-.13-.5.19-.74.16-.45-.23-.68-.27-.44-.27-.67-.31-.55.29-.78.24-.39-.41-.62-.47-.55.21-.78.14-.33-.56-.55-.63-.52.07-.74,0-.51,0-.73-.08-.43-.24-.64-.32-.37-.37-.58-.46-.57.1-.79,0-.41-.25-.62-.36-.26-.55-.46-.66-.45-.17-.66-.29-.4-.26-.6-.37l-.61-.37c-.21-.12-.53,0-.73-.16s-.27-.47-.47-.59-.48-.15-.67-.27-.55,0-.74-.17-.4-.29-.58-.39-.28-.58-.46-.66a1.16,1.16,0,0,0-.89,0c-.12.1,0,.47,0,.82A3.79,3.79,0,0,0,11.67,43.64Z"/><path class="cls-3" d="M11.61,42.5c.18.14.46.2.65.35s.33.34.52.48.35.31.55.45.25.45.45.58.63-.1.83,0,.4.23.61.36.35.3.56.42.25.52.46.64l.63.32c.21.11.49.07.7.18s.4.27.62.37.54-.08.76,0,.29.55.51.64.55-.12.77,0,.48.09.7.16.47.12.69.19.44.19.67.25.48.08.71.13.37.53.6.58.49,0,.72.08l.72.11c.23,0,.5-.1.73-.07s.49,0,.72,0,.48,0,.71,0,.49-.07.72-.06.48.17.71.18.49.28.72.28.48-.29.71-.3.5.27.73.25.46-.32.69-.34.48-.09.71-.12.5.11.73.08.44-.3.66-.33.66.24.88.19c.08-.22.14-.57.22-.79s0-.5.09-.73c-.22,0-.48,0-.72,0s-.44.23-.68.27l-.72.11c-.23,0-.47,0-.71,0s-.48,0-.72,0-.48,0-.72,0-.47-.08-.71-.08-.47.09-.72.09-.48.27-.73.26-.45-.36-.7-.37-.5.24-.74.21-.45-.25-.69-.28-.48,0-.72,0-.51.15-.75.11-.45-.24-.69-.29-.5,0-.73,0-.39-.42-.63-.49-.45-.16-.68-.23-.52,0-.75-.06-.44-.23-.67-.31-.55.05-.77,0-.4-.34-.62-.44-.38-.37-.6-.47-.62.15-.83,0-.31-.51-.52-.62-.6.08-.81,0-.21-.63-.42-.75-.54-.06-.74-.19-.51-.11-.72-.24-.38-.33-.57-.47-.3-.44-.49-.58-.47,0-.66-.12l-.51.26C12.13,42.43,11.81,42.39,11.61,42.5Z"/><rect class="cls-1" x="32.33" y="44.82" width="0.78" height="5.86" transform="translate(65.43 95.5) rotate(-180)"/><path class="cls-2" d="M33.62,42.39c.31,0,.43.39.62.48s.41.18.47.43.3.5.25.77a4.35,4.35,0,0,1-.28.69c0,.26.28.25.29.47s-.41.23-.56.48a2.67,2.67,0,0,1-.28.51c-.22.15-.44,0-.61,0-.35.17-.36.55-.43.63s-.2.08-.53-.39a1.17,1.17,0,0,1-.58.33c-.24.06-.34-.15-.53-.42s-.14-.39-.28-.65-.32-.44-.29-.63.2-.47-.2-.4c-.11-.19-.25-.36-.22-.57s.25-.37.35-.56.13-.44.27-.59.49-.17.65-.27c.15-.33.16-.5.27-.55s.32,0,.64,0c.15-.36.19-.35.27-.34s.1.12.21.37S33.47,42.27,33.62,42.39Z"/><path class="cls-3" d="M33.72,42.93c.31,0,.43.4.61.48s.42.19.48.43.3.5.25.77a5.11,5.11,0,0,1-.28.7c0,.26.27.24.29.47,0,.06-.42.23-.56.48a3,3,0,0,1-.28.51c-.23.15-.45-.05-.62-.05-.35.17-.35.56-.42.64s-.2.07-.53-.39a1.21,1.21,0,0,1-.58.33c-.24.06-.34-.15-.53-.42s-.14-.39-.29-.65-.31-.45-.28-.64.2-.46-.2-.39a1,1,0,0,1-.22-.58c0-.2.24-.36.35-.55a3,3,0,0,1,.27-.6c.16-.16.49-.17.65-.26.15-.34.16-.51.27-.55s.31,0,.64,0c.15-.37.18-.35.27-.34s.09.11.21.36S33.57,42.82,33.72,42.93Z"/><path class="cls-2" d="M34.58,46.34l-.07-.09,0,0a.42.42,0,0,1-.31,0c-.19-.11-.17-.39-.35-.49s-.21.06-.29,0a.57.57,0,0,1,0-.51c.12-.1.27.51.64.53a1.27,1.27,0,0,0,.32-.07c.22,0,.34,0,.36,0S34.88,46,34.58,46.34Z"/><path class="cls-2" d="M32.28,44.2c.34,0,.52-.64.63-.53a.73.73,0,0,1,.06.53c-.06.24-.29.35-.45.46s-.37.18-.54,0-.07-.16-.32-.52-.27-.3-.32-.51-.06-.45,0-.49.13.19.32.48S32,44.22,32.28,44.2Z"/><path class="cls-2" d="M32.91,45.27s-.06.47-.27.57-.29-.1-.29-.1c-.29-.56-.39-.5-.39-.5s-.06.33,0,.53c0,0,.09.45.31.57s.16,0,.35,0c.4,0,.42,0,.61-.07s.34-.35.31-.44-.53.26-.65,0S32.94,45.29,32.91,45.27Z"/><path class="cls-2" d="M33.61,43.48s-.17-.06-.39.15a.63.63,0,0,0-.27.56c0,.2.26.16.65.49s.44.68.63.63.27-.48.24-.57-.13.12-.28,0-.16-.41-.33-.51-.19,0-.26-.08S33.69,43.6,33.61,43.48Z"/><path class="cls-2" d="M31.26,46.31c.1.39.58.59.62.49s-.09-.12-.26-.5a2.37,2.37,0,0,1-.16-.53,3.35,3.35,0,0,0-.23-.49,3.26,3.26,0,0,1-.16-.51s.08.18.19.44a1.29,1.29,0,0,1,.15.59s-.23.07-.23.17S31.21,46.14,31.26,46.31Z"/><path class="cls-2" d="M30.14,47c.19.12.19.2.42.25a.64.64,0,0,1,.51.55c0,.3-.15.42-.1.63s.22.18.23.32-.14.15-.29.4-.25.12-.38.19,0,0,0,0c-.2.05-.3,0-.44,0s-.4.53-.54.45-.1-.26-.24-.27v-.05c-.19,0-.36.17-.54.22s-.16-.12-.41-.36-.39-.1-.42-.21c-.09-.29.18-.61.09-.7s-.23.14-.32.07,0-.46.07-.69a1.29,1.29,0,0,1,.19-.39c.24-.2.42,0,.62-.22s.08-.3.21-.37.35.13.53,0,.13-.24.23-.24,0,0,.2.28S30.05,46.89,30.14,47Z"/><path class="cls-3" d="M30.22,47.29c.19.12.19.2.41.25a.61.61,0,0,1,.51.55c0,.3-.14.42-.09.62s.22.19.23.33-.14.15-.3.4-.24.12-.37.19,0,0,0,0c-.2,0-.3-.05-.44-.05s-.4.53-.54.45-.1-.26-.24-.27v0c-.18,0-.35.17-.53.21s-.16-.11-.42-.35-.38-.1-.42-.21c-.08-.29.19-.61.1-.71s-.23.15-.32.08,0-.46.07-.69a1.29,1.29,0,0,1,.19-.39c.24-.2.42,0,.61-.23s.09-.29.22-.36.35.13.53,0,.13-.23.23-.23,0,0,.2.28S30.13,47.23,30.22,47.29Z"/><path class="cls-2" d="M30.82,49.34l0,0h0a.36.36,0,0,1-.27,0c-.15-.07-.1-.31-.24-.37s-.19.07-.26,0a.27.27,0,0,1,0-.31c.09-.07.22.25.52.27l.25,0c.18,0,.29,0,.3,0S31.05,49.12,30.82,49.34Z"/><path class="cls-2" d="M29,48.07c.28,0,.45-.44.54-.37s0,.23-.08.34a.5.5,0,0,1-.71.33c-.09-.07-.05-.1-.25-.32s-.22-.19-.26-.32-.05-.27,0-.29.1.1.26.28S28.8,48.09,29,48.07Z"/><path class="cls-2" d="M29.54,48.74s-.06.3-.23.36-.23-.09-.23-.09c-.23-.34-.31-.29-.31-.29s-.05.2,0,.33a.57.57,0,0,0,.25.36c.08,0,.12,0,.28,0,.32,0,.34,0,.49-.06s.27-.19.25-.25-.43.17-.53,0S29.56,48.75,29.54,48.74Z"/><path class="cls-2" d="M30.09,47.63s-.14-.07-.31.06-.27.31-.26.38.21.14.53.35.38.31.53.28.26-.24.23-.29-.08,0-.2-.06-.17-.18-.31-.24-.21,0-.26,0S30.15,47.7,30.09,47.63Z"/><path class="cls-2" d="M28.22,49.38c.08.24.47.37.5.3s-.08-.07-.22-.3-.1-.38-.25-.66a.87.87,0,0,0-.22-.3s.35.43.28.64c0,0-.06,0-.07.11A.28.28,0,0,0,28.22,49.38Z"/><path class="cls-4" d="M29.16,47.37a.32.32,0,0,1,0,.25c-.08.17-.57.06-.58.12s.21.15.25.12-.11-.15-.1-.3.06-.26.16-.29S29.13,47.34,29.16,47.37Z"/><path class="cls-4" d="M30.36,47.58s.31,0,.29.17-.18.14-.36.12a.64.64,0,0,1-.31-.09c-.15-.07-.24,0-.25-.08s.15-.15.25-.19A.39.39,0,0,1,30.36,47.58Z"/><path class="cls-4" d="M30.64,49.13a.3.3,0,0,1,0,.22c-.06.12-.38,0-.4.09s.13.11.16.09-.12-.13-.12-.24.07-.22.14-.24S30.63,49.11,30.64,49.13Z"/><path class="cls-4" d="M29.37,49s.23.07.21.18-.17.18-.29.16-.06,0-.22-.12-.17,0-.18-.07.12-.11.2-.14A.34.34,0,0,1,29.37,49Z"/><path class="cls-4" d="M30.82,48.49s.22,0,.2.13-.13.1-.26.09-.05,0-.21-.06-.17,0-.18-.06.11-.11.18-.15A.27.27,0,0,1,30.82,48.49Z"/><path class="cls-4" d="M28.45,48.18a.29.29,0,0,1-.09.33c-.08.06-.16.07-.2,0a.27.27,0,0,1,0-.23C28.27,48.12,28.39,48.08,28.45,48.18Z"/><path class="cls-2" d="M24.22,46.25c.19.12.2.19.42.25a.64.64,0,0,1,.51.55c0,.3-.14.41-.09.62s.21.18.22.32-.13.15-.29.41-.25.12-.38.19,0,0,0,0c-.2,0-.3-.05-.43-.05s-.4.52-.54.44-.11-.26-.24-.27v0c-.18,0-.36.18-.53.22s-.17-.12-.42-.36-.39-.09-.42-.21c-.09-.28.19-.61.1-.7s-.24.14-.33.07,0-.45.08-.69a.85.85,0,0,1,.19-.38c.23-.21.42,0,.61-.23s.09-.3.21-.36.35.12.53,0,.14-.24.24-.24,0,.05.19.28S24.13,46.19,24.22,46.25Z"/><path class="cls-3" d="M24.3,46.59c.19.12.2.19.42.25a.63.63,0,0,1,.51.55c0,.3-.15.41-.09.62s.21.18.22.32-.13.15-.29.41-.25.12-.38.18,0,0,0,0c-.2,0-.3,0-.43,0-.28,0-.4.52-.54.44s-.11-.26-.25-.27V49c-.18,0-.36.18-.53.22s-.17-.12-.42-.36-.39-.1-.42-.21c-.09-.29.18-.61.1-.7s-.24.14-.33.07,0-.46.07-.69a1,1,0,0,1,.2-.38c.23-.21.42,0,.61-.23s.09-.3.21-.36.35.12.53,0,.13-.24.24-.24,0,0,.19.28S24.21,46.53,24.3,46.59Z"/><path class="cls-2" d="M24.9,48.64l0,0h0a.35.35,0,0,1-.26,0c-.16-.06-.11-.31-.25-.37s-.19.08-.26,0-.06-.27,0-.31.21.25.51.27l.26,0c.17,0,.28,0,.3,0S25.14,48.42,24.9,48.64Z"/><path class="cls-2" d="M23.11,47.37c.28,0,.46-.44.54-.37s0,.22-.07.34a.5.5,0,0,1-.71.32c-.09-.06-.06-.1-.26-.32s-.21-.18-.26-.32,0-.27,0-.29.11.1.26.28S22.89,47.38,23.11,47.37Z"/><path class="cls-2" d="M23.62,48s-.06.31-.23.37-.23-.1-.23-.1c-.23-.34-.31-.29-.31-.29s-.05.2,0,.33a.52.52,0,0,0,.26.36c.07,0,.12,0,.27,0,.32,0,.34,0,.49-.06s.28-.2.25-.26-.42.17-.52,0S23.65,48.05,23.62,48Z"/><path class="cls-2" d="M24.17,46.92s-.13-.06-.31.07-.26.3-.26.37.22.14.53.35.38.32.53.28.26-.23.23-.29-.07,0-.2-.06-.17-.18-.3-.24-.22,0-.27,0S24.23,47,24.17,46.92Z"/><path class="cls-2" d="M22.3,48.68c.08.24.48.36.5.29s-.08-.06-.22-.3-.1-.37-.25-.66-.21-.3-.21-.29.34.42.27.64c0,0-.06,0-.06.11A.25.25,0,0,0,22.3,48.68Z"/><path class="cls-4" d="M23.24,46.66a.35.35,0,0,1,0,.26c-.08.16-.56,0-.58.12s.22.15.25.11-.11-.14-.1-.3a.33.33,0,0,1,.16-.29A.28.28,0,0,1,23.24,46.66Z"/><path class="cls-4" d="M24.45,46.87s.3,0,.29.17-.19.14-.37.12-.07,0-.3-.09-.25,0-.26-.07.15-.16.25-.2S24.38,46.85,24.45,46.87Z"/><path class="cls-4" d="M24.73,48.42a.37.37,0,0,1,0,.22c-.06.12-.39,0-.4.09s.13.12.15.09-.12-.12-.12-.24.07-.22.14-.24A.29.29,0,0,1,24.73,48.42Z"/><path class="cls-4" d="M23.45,48.31s.23.07.22.18-.18.18-.3.17-.05-.06-.21-.13-.18,0-.18-.07.12-.1.19-.13A.35.35,0,0,1,23.45,48.31Z"/><path class="cls-4" d="M24.9,47.78s.22,0,.21.13-.14.11-.26.1a.53.53,0,0,1-.22-.07c-.11,0-.17,0-.17,0s.1-.12.18-.15A.26.26,0,0,1,24.9,47.78Z"/><path class="cls-4" d="M22.53,47.47a.29.29,0,0,1-.08.33c-.08.07-.16.07-.21,0a.27.27,0,0,1,0-.23C22.35,47.42,22.47,47.38,22.53,47.47Z"/><path class="cls-2" d="M18.71,44.35c.19.12.2.19.42.25a.64.64,0,0,1,.51.55c0,.3-.15.41-.09.62s.21.19.22.33-.14.15-.29.4-.25.12-.38.19,0,0,0,0c-.2.05-.3,0-.44,0s-.4.52-.53.44-.11-.25-.25-.26v0c-.18,0-.36.17-.54.21s-.16-.11-.41-.35-.39-.1-.42-.22c-.09-.28.18-.6.1-.7s-.24.15-.33.08,0-.46.07-.7a1,1,0,0,1,.2-.38c.23-.21.42,0,.61-.23s.09-.29.21-.36.35.12.53,0,.13-.23.24-.23,0,0,.19.27S18.62,44.29,18.71,44.35Z"/><path class="cls-3" d="M18.75,44.67c.29,0,.43.27.59.35s.35.21.34.47a1.26,1.26,0,0,1-.06.68c.05.17.22.15.23.29s-.48.7-.69.77a1,1,0,0,0-.9.1c-.22-.48-.54-.19-.87,0-.27,0-.37-.19-.52-.46s-.31-.51-.24-.72c-.39.09-.46-.33-.31-.73s.56-.41.82-.64c.24-.47.47-.22.84-.26.2-.39.15-.32.26-.15S18.57,44.55,18.75,44.67Z"/><path class="cls-2" d="M19.39,46.74l0,0h0a.38.38,0,0,1-.27,0c-.15-.06-.1-.3-.24-.36s-.19.07-.26,0a.29.29,0,0,1,0-.32c.1-.06.22.26.52.27a1.19,1.19,0,0,0,.25,0c.18,0,.29,0,.3,0S19.62,46.52,19.39,46.74Z"/><path class="cls-2" d="M17.6,45.47c.28,0,.45-.44.54-.37s0,.22-.07.34a.49.49,0,0,1-.71.32c-.1-.06-.06-.09-.26-.32s-.21-.18-.26-.31,0-.27,0-.29.1.1.26.28S17.37,45.48,17.6,45.47Z"/><path class="cls-2" d="M18.11,46.13s-.06.31-.23.37-.23-.09-.23-.09c-.23-.35-.31-.3-.31-.3s-.05.21,0,.33a.56.56,0,0,0,.25.37c.08,0,.13,0,.28,0,.32,0,.34,0,.49-.06s.28-.19.25-.25-.43.16-.52,0S18.14,46.15,18.11,46.13Z"/><path class="cls-2" d="M18.66,45s-.13-.07-.31.06-.26.3-.26.37.21.14.53.35.38.32.53.28.26-.23.23-.29-.08,0-.2-.06-.17-.17-.3-.23-.22,0-.27,0S18.72,45.1,18.66,45Z"/><path class="cls-2" d="M16.79,46.78c.08.24.48.36.5.3s-.08-.07-.22-.31-.1-.37-.25-.65-.21-.31-.22-.3.35.43.28.64c0,0-.06,0-.06.11A.26.26,0,0,0,16.79,46.78Z"/><path class="cls-4" d="M17.73,44.77a.31.31,0,0,1,0,.25c-.08.16-.57,0-.58.12s.22.15.25.11-.11-.14-.1-.3a.3.3,0,0,1,.16-.28A.28.28,0,0,1,17.73,44.77Z"/><path class="cls-4" d="M18.93,45s.31,0,.3.18-.19.14-.37.12a.64.64,0,0,1-.31-.09c-.15-.07-.24,0-.25-.08s.15-.15.25-.2A.41.41,0,0,1,18.93,45Z"/><path class="cls-4" d="M19.22,46.52s.05.15,0,.22-.38,0-.39.09.12.12.15.09-.12-.12-.12-.24.07-.22.14-.24S19.2,46.5,19.22,46.52Z"/><path class="cls-4" d="M17.94,46.42s.23.07.22.17a.31.31,0,0,1-.3.17c-.07,0-.06-.06-.22-.13s-.17,0-.18-.07.13-.1.2-.13A.34.34,0,0,1,17.94,46.42Z"/><path class="cls-4" d="M19.39,45.88s.22,0,.2.13-.13.11-.25.1a.41.41,0,0,1-.22-.07c-.11,0-.17,0-.18,0s.11-.12.18-.15A.3.3,0,0,1,19.39,45.88Z"/><path class="cls-4" d="M17,45.57a.29.29,0,0,1-.09.34c-.07.06-.16.06-.2,0a.29.29,0,0,1,0-.24C16.84,45.52,17,45.48,17,45.57Z"/><path class="cls-2" d="M13.53,41.38c.29,0,.43.27.59.35s.35.21.33.46.09.45,0,.69c0,.16.22.15.23.29s-.48.69-.69.76A1,1,0,0,0,13,44c-.22-.49-.54-.19-.87,0-.27,0-.37-.19-.52-.46s-.31-.52-.25-.73c-.38.1-.45-.32-.3-.72s.56-.42.82-.64c.24-.47.47-.22.84-.26.2-.4.15-.32.26-.15S13.35,41.26,13.53,41.38Z"/><path class="cls-3" d="M13.6,41.72c.3,0,.44.27.6.35s.35.21.33.46.09.45,0,.69c0,.16.21.15.22.29s-.47.69-.68.76a1.08,1.08,0,0,0-.91.1c-.21-.48-.53-.18-.86,0-.27,0-.38-.19-.52-.46s-.31-.52-.25-.73c-.38.1-.45-.32-.31-.72s.57-.42.83-.64c.24-.48.47-.22.83-.27.21-.39.16-.32.27-.14S13.42,41.6,13.6,41.72Z"/><path class="cls-2" d="M14.24,43.78l0,0h0a.38.38,0,0,1-.27,0c-.15-.07-.1-.31-.24-.37s-.19.08-.26,0a.27.27,0,0,1,0-.31c.09-.06.22.25.52.27l.25,0c.18,0,.29,0,.3,0S14.48,43.56,14.24,43.78Z"/><path class="cls-2" d="M12.46,42.52c.27,0,.45-.44.54-.38s0,.23-.08.35a.5.5,0,0,1-.71.32c-.09-.06-.05-.1-.26-.32s-.21-.19-.25-.32,0-.27,0-.29.11.1.27.28S12.23,42.53,12.46,42.52Z"/><path class="cls-2" d="M13,43.18s-.05.3-.22.37-.23-.1-.23-.1c-.23-.34-.31-.29-.31-.29s0,.2,0,.33.07.29.25.36.12,0,.28,0c.32,0,.34,0,.49-.05s.27-.2.25-.26-.43.17-.53,0S13,43.19,13,43.18Z"/><path class="cls-2" d="M13.51,42.07s-.13-.07-.3.06-.27.31-.26.38.21.14.53.35.38.31.53.28.26-.24.23-.29-.08,0-.21-.06-.16-.18-.3-.24-.21,0-.26,0S13.58,42.14,13.51,42.07Z"/><path class="cls-2" d="M11.65,43.83c.08.24.47.36.5.29s-.08-.06-.22-.3-.1-.38-.25-.66-.21-.3-.22-.29.35.42.28.64a.17.17,0,0,0-.07.11A.27.27,0,0,0,11.65,43.83Z"/><path class="cls-4" d="M12.59,41.81a.34.34,0,0,1,0,.26c-.08.16-.57,0-.58.11s.21.16.25.12-.11-.14-.11-.3.07-.26.17-.29S12.56,41.78,12.59,41.81Z"/><path class="cls-4" d="M13.79,42s.31,0,.29.17-.19.14-.36.12a.64.64,0,0,1-.31-.09c-.15-.07-.25,0-.25-.08s.15-.15.25-.19A.41.41,0,0,1,13.79,42Z"/><path class="cls-4" d="M14.07,43.57a.3.3,0,0,1,0,.22c-.06.12-.38,0-.4.09s.13.12.16.09-.13-.13-.12-.24.07-.22.14-.24S14.06,43.55,14.07,43.57Z"/><path class="cls-4" d="M12.8,43.46s.23.07.21.18-.17.18-.3.17-.05-.06-.21-.13-.18,0-.18-.07.12-.1.2-.14A.34.34,0,0,1,12.8,43.46Z"/><path class="cls-4" d="M14.25,42.93s.22,0,.2.13-.13.11-.26.09,0,0-.21-.06-.17,0-.18-.06.11-.11.18-.15A.28.28,0,0,1,14.25,42.93Z"/><path class="cls-4" d="M11.87,42.62a.27.27,0,0,1-.08.33c-.08.06-.16.07-.2,0a.27.27,0,0,1,0-.23C11.7,42.56,11.82,42.52,11.87,42.62Z"/><path class="cls-8" d="M10.11,43.89v-1a38.41,38.41,0,0,0,9.61,5.68,28.58,28.58,0,0,0,13.86,1.94l-.41,1S17.66,53,10.11,43.89Z"/><path class="cls-13" d="M33.93,49.86S17.87,51,10.55,42.61l-.45.24s7.45,9.32,23.43,7.74Z"/></svg>