<svg width="60" height="60" viewBox="0 0 60 60" fill="none" xmlns="http://www.w3.org/2000/svg">
<path d="M40.8328 39.1942L40.8368 47.3053L42.1244 48.3199V40.2048L40.8328 39.1942Z" fill="#C7B299"/>
<path d="M43.4115 39.1973V47.3119L42.1244 48.3199V40.2052L43.4115 39.1973Z" fill="#998675"/>
<path d="M37.2488 40.4822L42.1244 44.3241V38.0426L39.6866 36.0854L37.2488 40.4822Z" fill="#53AA87"/>
<path d="M47 40.4822L42.1244 44.3241V38.0426L44.5622 36.0854L47 40.4822Z" fill="#328D6A"/>
<path d="M37.9201 36.8791L42.1244 40.1919V34.776L40.0222 33.0883L37.9201 36.8791Z" fill="#6CD3A7"/>
<path d="M46.3282 36.8791L42.1244 40.1919V34.776L44.2261 33.0883L46.3282 36.8791Z" fill="#389E74"/>
<path d="M38.8765 34.0096L42.127 36.571V26.4911" fill="#84F4C1"/>
<path d="M45.3772 34.0096L42.1271 36.571V26.4911" fill="#6CD3A7"/>
<path d="M29.3329 22.944L29.3253 27.7472V27.8494L29.3213 30.357V30.4598L29.3173 32.9669V33.0701L29.3133 35.5773L29.3129 35.6795L29.3093 38.1876L29.3089 38.2903L29.3053 40.7979L29.3049 40.9002L29.3009 43.4078V43.51L29.2969 46.0181V46.1204L29.2884 51.5393L26.7795 50.0868L26.6905 50.0352L25.3843 49.2789L25.2954 49.2273L23.9891 48.4715L23.9002 48.4199L22.5943 47.6636L22.5054 47.6125L19.996 46.1595L19.9956 45.9745V45.8718L19.9916 43.3602V43.2571L19.988 40.745L19.9876 40.6423L19.984 38.1302L19.9836 38.0275L19.98 35.5155L19.9795 35.4127L19.976 32.9007L19.9755 32.798L19.972 30.2859L19.9715 30.1832L19.968 27.6711V27.5684L19.964 25.0564V24.9537L19.96 22.4416V22.3389L19.9515 16.8595L22.5054 18.5157L22.5943 18.5735L23.9002 19.4204L23.9891 19.4782L25.2954 20.3252L25.3843 20.383L26.6905 21.23L26.7795 21.2878L29.3329 22.944Z" fill="#759ED8"/>
<g opacity="0.3">
<path d="M22.5944 18.5735V47.6637L22.5054 47.6125V18.5157L22.5944 18.5735Z" fill="#B3B3B3"/>
<path d="M23.9891 19.4783V48.4715L23.9002 48.42V19.4205L23.9891 19.4783Z" fill="#B3B3B3"/>
<path d="M25.3843 20.3831V49.2789L25.2953 49.2274V20.3253L25.3843 20.3831Z" fill="#B3B3B3"/>
<path d="M26.7795 21.2878V50.0868L26.6906 50.0352V21.23L26.7795 21.2878Z" fill="#B3B3B3"/>
</g>
<g opacity="0.3">
<path d="M29.3253 27.7472V27.8494L26.7794 26.3795L26.6905 26.328L25.3842 25.5739L25.2953 25.5223L23.9891 24.7683L23.9001 24.7167L22.5943 23.9626L22.5054 23.9115L19.96 22.4416V22.3389L22.5054 23.8088L22.5943 23.8604L23.9001 24.6144L23.9891 24.6656L25.2953 25.4201L25.3842 25.4712L26.6905 26.2257L26.7794 26.2768L29.3253 27.7472Z" fill="#B3B3B3"/>
</g>
<g opacity="0.3">
<path d="M29.3213 30.357V30.4597L26.7794 28.9921L26.6905 28.9405L25.3842 28.1864L25.2953 28.1349L23.989 27.3808L23.9001 27.3292L22.5943 26.5752L22.5053 26.524L19.9639 25.0563V24.9536L22.5053 26.4209L22.5943 26.4724L23.9001 27.2265L23.989 27.2776L25.2953 28.0321L25.3842 28.0837L26.6905 28.8378L26.7794 28.8894L29.3213 30.357Z" fill="#B3B3B3"/>
</g>
<g opacity="0.3">
<path d="M29.3174 32.9669V33.0701L26.7795 31.6047L26.6906 31.5531L25.3843 30.799L25.2954 30.7474L23.9891 29.9934L23.9002 29.9418L22.5943 29.1877L22.5054 29.1366L19.968 27.6712V27.5685L22.5054 29.0339L22.5943 29.085L23.9002 29.8391L23.9891 29.8902L25.2954 30.6447L25.3843 30.6959L26.6906 31.4504L26.7795 31.5015L29.3174 32.9669Z" fill="#B3B3B3"/>
</g>
<g opacity="0.3">
<path d="M29.3133 35.5773L29.3129 35.6795L26.7795 34.2168L26.6906 34.1656L25.3843 33.4111L25.2954 33.36L23.9891 32.6055L23.9002 32.5544L22.5943 31.8003L22.5054 31.7487L19.972 30.2859L19.9716 30.1832L22.5054 31.646L22.5943 31.6976L23.9002 32.4516L23.9891 32.5028L25.2954 33.2573L25.3843 33.3084L26.6906 34.0629L26.7795 34.1141L29.3133 35.5773Z" fill="#B3B3B3"/>
</g>
<g opacity="0.3">
<path d="M29.3093 38.1876L29.3089 38.2903L26.7794 36.8293L26.6905 36.7782L25.3843 36.0236L25.2953 35.9725L23.9891 35.218L23.9001 35.1669L22.5943 34.4128L22.5054 34.3617L19.976 32.9007L19.9755 32.798L22.5054 34.2585L22.5943 34.3101L23.9001 35.0642L23.9891 35.1153L25.2953 35.8698L25.3843 35.9209L26.6905 36.6754L26.7794 36.7266L29.3093 38.1876Z" fill="#B3B3B3"/>
</g>
<g opacity="0.3">
<path d="M29.3053 40.7979L29.3049 40.9002L26.7795 39.4418L26.6906 39.3907L25.3843 38.6362L25.2954 38.5851L23.9891 37.8306L23.9002 37.779L22.5943 37.0254L22.5054 36.9738L19.98 35.5155L19.9796 35.4128L22.5054 36.8711L22.5943 36.9227L23.9002 37.6767L23.9891 37.7279L25.2954 38.4824L25.3843 38.5335L26.6906 39.288L26.7795 39.3391L29.3053 40.7979Z" fill="#B3B3B3"/>
</g>
<g opacity="0.3">
<path d="M29.3009 43.4078V43.5101L26.7795 42.0544L26.6906 42.0028L25.3843 41.2488L25.2954 41.1972L23.9891 40.4431L23.9002 40.3916L22.5944 39.6375L22.5054 39.5864L19.984 38.1303L19.9836 38.0276L22.5054 39.4837L22.5944 39.5352L23.9002 40.2893L23.9891 40.3404L25.2954 41.0949L25.3843 41.1461L26.6906 41.9006L26.7795 41.9517L29.3009 43.4078Z" fill="#B3B3B3"/>
</g>
<g opacity="0.3">
<path d="M29.6108 46.1991L29.5664 46.276L29.2969 46.1204L26.7795 44.6669L26.6906 44.6154L25.3843 43.8613L25.2954 43.8097L23.9891 43.0557L23.9002 43.0041L22.5944 42.25L22.5055 42.1989L19.9881 40.745L19.9876 40.6423L22.5055 42.0962L22.5944 42.1478L23.9002 42.9014L23.9891 42.953L25.2954 43.707L25.3843 43.7586L26.6906 44.5127L26.7795 44.5642L29.2969 46.0181L29.6108 46.1991Z" fill="#B3B3B3"/>
</g>
<g opacity="0.3">
<path d="M29.1747 48.56L29.1302 48.6369L26.7796 47.2795L26.6906 47.2284L25.3844 46.4739L25.2954 46.4227L23.9892 45.6682L23.9002 45.6171L22.5944 44.863L22.5055 44.8114L19.9916 43.3602V43.2571L22.5055 44.7087L22.5944 44.7603L23.9002 45.5144L23.9892 45.5655L25.2954 46.32L25.3844 46.3712L26.6906 47.1257L26.7796 47.1768L29.1747 48.56Z" fill="#B3B3B3"/>
</g>
<g opacity="0.3">
<path d="M28.7389 50.9204L28.6945 50.9978L26.7795 49.892L26.6906 49.8405L25.3843 49.0864L25.2954 49.0348L23.9891 48.2808L23.9002 48.2292L22.5944 47.4751L22.5054 47.424L19.9956 45.9746V45.8719L22.5054 47.3209L22.5944 47.3724L23.9002 48.1265L23.9891 48.1776L25.2954 48.9321L25.3843 48.9833L26.6906 49.7378L26.7795 49.7889L28.7389 50.9204Z" fill="#B3B3B3"/>
</g>
<path d="M27.995 38.674L21.7944 35.2296V33.0598L27.995 36.5043V38.674Z" fill="white"/>
<path d="M27.995 36.7043L21.7944 33.2604V33.1265L27.995 36.5709V36.7043Z" fill="#DCDCE5"/>
<path d="M27.995 36.9382L21.7944 33.4938V33.3604L27.995 36.8049V36.9382Z" fill="#DCDCE5"/>
<path d="M27.995 37.1721L21.7944 33.7277V33.5938L27.995 37.0383V37.1721Z" fill="#DCDCE5"/>
<path d="M27.995 37.4055L21.7944 33.9611V33.8277L27.995 37.2721V37.4055Z" fill="#DCDCE5"/>
<path d="M27.995 37.6394L21.7944 34.195V34.0616L27.995 37.5056V37.6394Z" fill="#DCDCE5"/>
<path d="M27.995 37.8728L21.7944 34.4284V34.295L27.995 37.7394V37.8728Z" fill="#DCDCE5"/>
<path d="M27.995 38.1066L21.7944 34.6622V34.5288L27.995 37.9728V38.1066Z" fill="#DCDCE5"/>
<path d="M27.995 38.3401L21.7944 34.8961V34.7623L27.995 38.2067V38.3401Z" fill="#DCDCE5"/>
<path d="M27.995 38.574L21.7944 35.1295V34.9962L27.995 38.4406V38.574Z" fill="#DCDCE5"/>
<path d="M25.9832 37.5229L25.8738 37.4624V35.2922L25.9832 35.3531V37.5229Z" fill="white"/>
<path d="M23.8943 36.3962L23.785 36.3353V34.1656L23.8943 34.2265V36.3962Z" fill="white"/>
<path d="M21.8923 35.2838L21.7829 35.2234V33.0536L21.8923 33.1141V35.2838Z" fill="white"/>
<path d="M27.9853 38.6686L27.8759 38.6077V36.438L27.9853 36.4989V38.6686Z" fill="white"/>
<path d="M21.2854 20.9695L21.7745 21.1763L21.8189 47.3169L21.3299 47.6783L21.2854 20.9695Z" fill="#C7C7D3"/>
<path d="M21.3152 47.0932L21.7745 46.8358L28.5771 50.739L27.9768 50.9871L21.3152 47.0932Z" fill="#EDEEEF"/>
<path d="M38.6253 16.8595V46.3818L35.9647 47.8699L35.8758 47.9193L34.57 48.6498L34.4811 48.6996L33.1748 49.4301L33.0859 49.4799L31.7796 50.2104L31.6907 50.2597L29.244 51.6283L29.2457 51.1014V50.9987L29.2537 48.5177V48.4146L29.2617 45.9341V45.8309L29.2697 43.3495V43.2468L29.2777 40.7654V40.6627L29.2858 38.1818V38.0791L29.2938 35.5977V35.4946L29.3018 33.0141V32.9109L29.3098 30.4295V30.3268L29.3178 27.8459V27.7427L29.3329 22.9311L31.6907 21.3905L31.7796 21.3323L33.0859 20.4791L33.1748 20.4208L34.4811 19.5672L34.57 19.5094L35.8758 18.6562L35.9647 18.5979L38.6253 16.8595Z" fill="#3F7DDE"/>
<g opacity="0.3">
<path d="M31.7796 21.3323V50.2104L31.6907 50.2597V21.3905L31.7796 21.3323Z" fill="#B3B3B3"/>
<path d="M33.1748 20.4208V49.4301L33.0859 49.4799V20.4791L33.1748 20.4208Z" fill="#B3B3B3"/>
<path d="M34.5699 19.5094V48.6498L34.481 48.6996V19.5672L34.5699 19.5094Z" fill="#B3B3B3"/>
<path d="M35.9648 18.5979V47.87L35.8759 47.9193V18.6562L35.9648 18.5979Z" fill="#B3B3B3"/>
</g>
<g opacity="0.3">
<path d="M38.6253 22.3585V22.4612L35.9647 24.0004L35.8758 24.052L34.57 24.8074L34.481 24.8585L33.1748 25.6144L33.0858 25.6659L31.7796 26.4213L31.6907 26.4729L29.3177 27.8459V27.7427L31.6907 26.3702L31.7796 26.3186L33.0858 25.5632L33.1748 25.5117L34.481 24.7563L34.57 24.7047L35.8758 23.9493L35.9647 23.8977L38.6253 22.3585Z" fill="#B3B3B3"/>
</g>
<g opacity="0.3">
<path d="M38.6253 24.9377V25.0404L35.9647 26.5796L35.8758 26.6312L34.57 27.3866L34.4811 27.4377L33.1748 28.1936L33.0859 28.2451L31.7796 29.0005L31.6907 29.0521L29.3098 30.4295V30.3268L31.6907 28.9494L31.7796 28.8983L33.0859 28.1424L33.1748 28.0909L34.4811 27.3355L34.57 27.2839L35.8758 26.5285L35.9647 26.4769L38.6253 24.9377Z" fill="#B3B3B3"/>
</g>
<g opacity="0.3">
<path d="M38.6254 27.5173V27.62L35.9648 29.1588L35.8759 29.2104L34.57 29.9658L34.4811 30.0174L33.1748 30.7732L33.0859 30.8243L31.7796 31.5802L31.6907 31.6318L29.3018 33.0141V32.9109L31.6907 31.5291L31.7796 31.4775L33.0859 30.7221L33.1748 30.6705L34.4811 29.9147L34.57 29.8631L35.8759 29.1077L35.9648 29.0566L38.6254 27.5173Z" fill="#B3B3B3"/>
</g>
<g opacity="0.3">
<path d="M38.6254 30.0965V30.1992L35.9648 31.7385L35.8759 31.79L34.5701 32.5454L34.4811 32.5966L33.1749 33.3524L33.0859 33.404L31.7797 34.1594L31.6907 34.211L29.2938 35.5977V35.4946L31.6907 34.1082L31.7797 34.0567L33.0859 33.3013L33.1749 33.2497L34.4811 32.4939L34.5701 32.4427L35.8759 31.6873L35.9648 31.6357L38.6254 30.0965Z" fill="#B3B3B3"/>
</g>
<g opacity="0.3">
<path d="M38.6253 32.6757V32.7784L35.9648 34.3177L35.8758 34.3693L34.57 35.1247L34.4811 35.1762L33.1748 35.9316L33.0859 35.9832L31.7796 36.739L31.6907 36.7906L29.2858 38.1818V38.0791L31.6907 36.6879L31.7796 36.6363L33.0859 35.8805L33.1748 35.8294L34.4811 35.0735L34.57 35.0219L35.8758 34.2665L35.9648 34.215L38.6253 32.6757Z" fill="#B3B3B3"/>
</g>
<g opacity="0.3">
<path d="M38.6253 35.2549V35.3576L35.9648 36.8969L35.8758 36.9484L34.57 37.7038L34.4811 37.7554L33.1748 38.5108L33.0859 38.5624L31.7796 39.3182L31.6907 39.3698L29.2778 40.7655V40.6627L31.6907 39.2671L31.7796 39.2155L33.0859 38.4597L33.1748 38.4086L34.4811 37.6527L34.57 37.6011L35.8758 36.8457L35.9648 36.7942L38.6253 35.2549Z" fill="#B3B3B3"/>
</g>
<g opacity="0.3">
<path d="M38.6254 37.8346V37.9373L35.9648 39.4765L35.8759 39.5281L34.5701 40.2835L34.4812 40.3346L33.1749 41.0905L33.086 41.142L31.7797 41.8974L31.6908 41.949L29.2698 43.3496V43.2468L31.6908 41.8463L31.7797 41.7952L33.086 41.0393L33.1749 40.9878L34.4812 40.2324L34.5701 40.1808L35.8759 39.4254L35.9648 39.3738L38.6254 37.8346Z" fill="#B3B3B3"/>
</g>
<g opacity="0.3">
<path d="M38.6253 40.4138V40.5165L35.9647 42.0557L35.8758 42.1073L34.57 42.8627L34.481 42.9143L33.1748 43.6701L33.0858 43.7212L31.7796 44.4771L31.6906 44.5287L29.2617 45.9341V45.8309L31.6906 44.4259L31.7796 44.3744L33.0858 43.6185L33.1748 43.5674L34.481 42.8116L34.57 42.76L35.8758 42.0046L35.9647 41.953L38.6253 40.4138Z" fill="#B3B3B3"/>
</g>
<g opacity="0.3">
<path d="M38.6253 42.9934V43.0961L35.9647 44.6354L35.8758 44.6865L34.57 45.4423L34.481 45.4935L33.1748 46.2493L33.0858 46.3009L31.7796 47.0563L31.6906 47.1079L29.2537 48.5177V48.4146L31.6906 47.0052L31.7796 46.9536L33.0858 46.1982L33.1748 46.1466L34.481 45.3908L34.57 45.3396L35.8758 44.5838L35.9647 44.5327L38.6253 42.9934Z" fill="#B3B3B3"/>
</g>
<g opacity="0.3">
<path d="M38.6254 45.5726V45.6753L35.9648 47.2146L35.8759 47.2657L34.57 48.0211L34.4811 48.0727L33.1748 48.8285L33.0859 48.8797L31.7796 49.6355L31.6907 49.6871L29.2458 51.1014V50.9987L31.6907 49.5844L31.7796 49.5328L33.0859 48.7774L33.1748 48.7258L34.4811 47.97L34.57 47.9189L35.8759 47.1635L35.9648 47.1119L38.6254 45.5726Z" fill="#B3B3B3"/>
</g>
<path d="M38.6368 46.6032L37.2914 47.4889V21.0344L38.6253 20.2559V20.2785L38.6266 23.0298V23.0809L38.6275 25.8246L38.628 25.926L38.6288 28.6693V28.7707L38.6302 31.5144V31.6153L38.6315 34.359V34.4604L38.6328 37.2036V37.305L38.6342 40.0487V40.1501L38.6351 42.8934V42.9947L38.6364 45.7384V45.8398L38.6368 46.6032Z" fill="#CCCCCC"/>
<path d="M38.6364 45.7385V45.8398L37.2914 46.5886V46.4872L38.6364 45.7385Z" fill="#B3B3B3"/>
<path d="M38.6484 23.0689L38.6266 23.0809L37.2914 23.8243V23.7225L38.6048 22.9916L38.6266 23.0298V23.0303L38.6484 23.0689Z" fill="#B3B3B3"/>
<path d="M38.628 25.926L37.2914 26.6699V26.5685L38.6275 25.8246L38.628 25.926Z" fill="#B3B3B3"/>
<path d="M38.6288 28.6693V28.7707L37.2914 29.5154V29.414L38.6288 28.6693Z" fill="#B3B3B3"/>
<path d="M38.6315 34.359V34.4604L37.2914 35.2064V35.1051L38.6315 34.359Z" fill="#B3B3B3"/>
<path d="M38.6328 37.2036V37.305L37.2914 38.052V37.9506L38.6328 37.2036Z" fill="#B3B3B3"/>
<path d="M38.6342 40.0487V40.1501L37.2914 40.8975V40.7961L38.6342 40.0487Z" fill="#B3B3B3"/>
<path d="M38.6351 42.8933V42.9947L37.2914 43.743V43.6416L38.6351 42.8933Z" fill="#B3B3B3"/>
<path d="M36.7277 35.2193L30.6036 38.7647V36.5892L36.7277 33.0443V35.2193Z" fill="#999999"/>
<path d="M36.7277 33.2448L30.6036 36.7902V36.6564L36.7277 33.111V33.2448Z" fill="#DCDCE5"/>
<path d="M36.7277 33.4791L30.6036 37.0245V36.8907L36.7277 33.3453V33.4791Z" fill="#DCDCE5"/>
<path d="M36.7277 33.7134L30.6036 37.2588V37.1249L36.7277 33.5796V33.7134Z" fill="#DCDCE5"/>
<path d="M36.7277 33.9478L30.6036 37.4931V37.3593L36.7277 33.814V33.9478Z" fill="#DCDCE5"/>
<path d="M36.7277 34.182L30.6036 37.7274V37.5931L36.7277 34.0482V34.182Z" fill="#DCDCE5"/>
<path d="M36.7277 34.4164L30.6036 37.9617V37.8274L36.7277 34.2825V34.4164Z" fill="#DCDCE5"/>
<path d="M36.7277 34.6507L30.6036 38.1956V38.0617L36.7277 34.5168V34.6507Z" fill="#DCDCE5"/>
<path d="M36.7277 34.885L30.6036 38.4299V38.296L36.7277 34.7511V34.885Z" fill="#DCDCE5"/>
<path d="M36.7277 35.1193L30.6036 38.6642V38.5304L36.7277 34.985V35.1193Z" fill="#DCDCE5"/>
<path d="M34.7403 36.3367L34.6323 36.3989V34.2239L34.7403 34.1612V36.3367Z" fill="white"/>
<path d="M32.6777 37.5642L32.5697 37.6264V35.4509L32.6777 35.3887V37.5642Z" fill="white"/>
<path d="M30.7001 38.7087L30.592 38.7714V36.5959L30.7001 36.5336V38.7087Z" fill="white"/>
<path d="M36.718 35.2251L36.6099 35.2878V33.1123L36.718 33.0497V35.2251Z" fill="white"/>
<path d="M36.7135 20.6831L37.2915 20.997V47.7156L36.758 47.3155L36.7135 20.6831Z" fill="#B3B3B3"/>
<path d="M37.3284 47.035L36.7579 46.6931L30.5778 50.2597V50.9276L37.3284 47.035Z" fill="#C7C7D3"/>
<path d="M29.2884 25.5112L29.2835 28.407V28.5092L29.2791 31.3045V31.3419L29.2653 39.834V39.9367L29.2609 42.696L29.2604 42.7987L29.256 45.5575V45.6607L29.2515 48.4195L29.2511 48.5222L29.2466 51.281V51.3842L29.244 53.051L27.9528 52.1662L27.9546 50.6412V50.5381L27.9582 47.7788V47.6756L27.9613 44.9164V44.8132L27.9648 42.054V41.9508L27.9679 39.1911L27.9684 39.0884L27.9782 30.6594V30.5571L27.9817 27.7605V27.6583L27.9853 24.7514L29.2129 25.457L29.2884 25.5112Z" fill="white"/>
<path d="M29.2836 28.407V28.5092L27.9818 27.7605V27.6582L29.2836 28.407Z" fill="#E6E6E6"/>
<path d="M29.2951 31.3138L29.2791 31.3418L29.2506 31.3912L27.9781 30.6594V30.5571L29.2791 31.3045L29.2951 31.3138Z" fill="#E6E6E6"/>
<path d="M29.2653 39.834V39.9367L27.9679 39.1911L27.9683 39.0884L29.2653 39.834Z" fill="#E6E6E6"/>
<path d="M29.2609 42.696L29.2604 42.7987L27.9648 42.054V41.9508L29.2609 42.696Z" fill="#E6E6E6"/>
<path d="M29.256 45.5575V45.6606L27.9613 44.9164V44.8132L29.256 45.5575Z" fill="#E6E6E6"/>
<path d="M29.2515 48.4195L29.2511 48.5222L27.9581 47.7788V47.6757L29.2515 48.4195Z" fill="#E6E6E6"/>
<path d="M29.2466 51.281V51.3841L27.9546 50.6412V50.538L29.2466 51.281Z" fill="#E6E6E6"/>
<path d="M30.6338 52.1013L29.244 53.051L29.2466 51.325L29.2471 51.2232L29.2515 48.4768V48.375L29.256 45.6286V45.5268L29.2604 42.7809L29.2609 42.6786L29.2653 39.9327V39.8309L29.2697 37.0845V36.9827L29.2742 34.2363L29.2746 34.1345L29.2791 31.3885V31.2863L29.2835 28.5403V28.4385L29.288 25.6921L29.2884 25.5903V25.5112L30.6223 24.5988V24.9492L30.6236 27.6925V27.7943L30.6249 30.5371V30.6389L30.6258 33.3822V33.484L30.6271 36.2268V36.3286L30.6285 39.0719V39.1737L30.6294 41.917V42.0184L30.6307 44.7616V44.8634L30.632 47.6067V47.7081L30.6329 50.4514L30.6334 50.5532L30.6338 52.1013Z" fill="#CCCCCC"/>
<path d="M30.6236 27.6925V27.7943L29.2836 28.5404V28.4385L30.6236 27.6925Z" fill="#B3B3B3"/>
<path d="M30.6249 30.5371V30.639L29.2791 31.3886V31.2863L30.6249 30.5371Z" fill="#B3B3B3"/>
<path d="M30.6258 33.3822V33.484L29.2742 34.2363L29.2746 34.1345L30.6258 33.3822Z" fill="#B3B3B3"/>
<path d="M30.6272 36.2268V36.3287L29.2698 37.0845V36.9827L30.6272 36.2268Z" fill="#B3B3B3"/>
<path d="M30.6285 39.0719V39.1737L29.2653 39.9327V39.8309L30.6285 39.0719Z" fill="#B3B3B3"/>
<path d="M30.6294 41.917V42.0184L29.2604 42.7809L29.2609 42.6786L30.6294 41.917Z" fill="#B3B3B3"/>
<path d="M30.6307 44.7617V44.8635L29.2559 45.6287V45.5268L30.6307 44.7617Z" fill="#B3B3B3"/>
<path d="M30.6321 47.6067V47.7081L29.2515 48.4768V48.375L30.6321 47.6067Z" fill="#B3B3B3"/>
<path d="M30.6334 50.5532L29.2466 51.325L29.2471 51.2232L30.6329 50.4514L30.6334 50.5532Z" fill="#B3B3B3"/>
<path d="M21.3299 47.468L19.9516 46.5552L19.9502 45.7972V45.6945L19.9458 42.9299V42.8276L19.9413 40.063L19.9409 39.9603L19.9364 37.1957V37.0934L19.932 34.3288L19.9316 34.2261L19.9182 25.7842V25.6811L19.9133 22.8805V22.7773L19.9084 19.866V19.7637L19.9071 18.9047L21.2854 19.8749L21.2863 20.5556L21.2867 20.6583L21.2912 23.5696L21.2916 23.6728L21.2961 26.4734V26.5761L21.3099 35.0184V35.1211L21.3143 37.8857L21.3148 37.988V37.9884L21.3192 40.7526V40.8553L21.3236 43.6199V43.7222L21.3281 46.4868L21.3285 46.5895L21.3299 47.468Z" fill="white"/>
<path d="M21.2867 20.6582L19.9084 19.8659V19.7637L21.2863 20.5555L21.2867 20.6582Z" fill="#E6E6E6"/>
<path d="M21.2916 23.6727L19.9133 22.8804V22.7773L21.2912 23.5696L21.2916 23.6727Z" fill="#E6E6E6"/>
<path d="M21.2961 26.4734V26.5761L19.9182 25.7842V25.6811L21.2961 26.4734Z" fill="#E6E6E6"/>
<path d="M21.3099 35.0184V35.1211L19.932 34.3288L19.9316 34.2261L21.3099 35.0184Z" fill="#E6E6E6"/>
<path d="M21.3148 37.9879L19.9365 37.1956V37.0934L21.3143 37.8857L21.3148 37.9879Z" fill="#E6E6E6"/>
<path d="M21.3192 40.7526V40.8553L19.9413 40.063L19.9409 39.9603L21.3192 40.7526Z" fill="#E6E6E6"/>
<path d="M21.3236 43.6199V43.7221L19.9457 42.9298V42.8276L21.3236 43.6199Z" fill="#E6E6E6"/>
<path d="M21.3286 46.5895L19.9503 45.7972V45.6945L21.3281 46.4868L21.3286 46.5895Z" fill="#E6E6E6"/>
<path d="M39.9147 30.4646L29.2884 36.619L29.2444 36.6448L27.165 35.4354L27.0756 35.3834L25.415 34.4177L25.3256 34.3657L23.6645 33.3995L23.5756 33.3479L21.9145 32.3818L21.8252 32.3302L20.1645 31.3641L20.0752 31.3121L18.6622 30.4904V30.4646L19.105 30.181L19.5203 29.9391H19.5207L19.7728 29.7924L20.1845 29.5527L20.2183 29.5332L21.517 28.7773L24.7534 30.6714H24.7538L24.7543 30.6718L26.498 31.6926L26.587 31.7447L28.2423 32.7135L28.3316 32.7655L29.2435 33.2995L29.2444 33.299L29.2449 33.2986L37.0674 28.8138L38.3354 29.5487L38.3421 29.5527L38.833 29.8377L38.9975 29.9329L39.5163 30.2334L39.9147 30.4646Z" fill="#EDEEEF"/>
<path d="M22.6633 29.9489L20.1646 31.3641L20.0752 31.3121L22.6197 29.8711L22.6633 29.9489Z" fill="#CCCCCC"/>
<path d="M24.7974 30.7492L21.9145 32.3818L21.8251 32.3302L24.7534 30.6714H24.7538L24.7542 30.6718L24.7974 30.7492Z" fill="#CCCCCC"/>
<path d="M26.9316 31.5495L26.5871 31.7447L23.6646 33.3995L23.5757 33.3479L26.4981 31.6927L26.8881 31.4717L26.9316 31.5495Z" fill="#CCCCCC"/>
<path d="M28.3316 32.7655L25.4149 34.4177L25.3256 34.3657L28.2422 32.7135L28.3316 32.7655Z" fill="#CCCCCC"/>
<path d="M31.1999 33.1501L27.165 35.4354L27.0756 35.3834L31.1563 33.0723L31.1999 33.1501Z" fill="#CCCCCC"/>
<path d="M39.9147 30.4647L38.1655 31.4673L38.1211 31.4926L38.0766 31.5184L36.4453 32.4534L36.4004 32.4792L36.3564 32.5046L34.7251 33.4396L34.6802 33.4654L34.6358 33.4907L33.0045 34.4258L32.96 34.4515L32.9155 34.4769L31.2843 35.4119L31.2394 35.4377L31.1949 35.463L29.2884 36.5559V33.2658L37.0673 28.8138L38.3354 29.5488L38.3421 29.5528L38.8329 29.8378L38.9974 29.9329L39.5163 30.2335L39.9147 30.4647Z" fill="#C7C7D3"/>
<path d="M38.1656 31.4672L38.1211 31.4926L38.0767 31.5184L36.5797 30.6336L36.6023 30.5954L36.625 30.5567L38.1656 31.4672Z" fill="#B3B3B3"/>
<path d="M36.4454 32.4534L36.4005 32.4792L36.3565 32.5046L34.8457 31.6118L34.8684 31.5735L34.8911 31.5349L36.4454 32.4534Z" fill="#B3B3B3"/>
<path d="M34.7251 33.4395L34.6802 33.4653L34.6358 33.4907L33.1116 32.5899L33.1343 32.5517L33.157 32.513L34.7251 33.4395Z" fill="#B3B3B3"/>
<path d="M33.0045 34.4257L32.96 34.4515L32.9155 34.4769L31.3776 33.5681L31.4003 33.5298L31.423 33.4911L33.0045 34.4257Z" fill="#B3B3B3"/>
<path d="M31.2842 35.4119L31.2393 35.4376L31.1949 35.463L29.6436 34.5462L29.6663 34.5079L29.689 34.4693L31.2842 35.4119Z" fill="#B3B3B3"/>
<path d="M29.2884 36.5514V37.4006L27.9461 36.6257L27.2374 36.2166L27.1485 36.1651L25.4812 35.2029L25.3923 35.1513L23.725 34.1892L23.6361 34.1376L21.9688 33.1755L21.8798 33.1239L20.2125 32.1618L20.1236 32.1102L18.6622 31.2667V30.4647L20.1236 31.3019L20.2125 31.3526L21.8798 32.3076L21.9688 32.3587L23.6361 33.3137L23.725 33.3649L25.3923 34.3199L25.4812 34.3706L27.1485 35.3256L27.2374 35.3768L29.2884 36.5514Z" fill="white"/>
<path d="M20.2126 31.3525V32.1617L20.1237 32.1102V31.3018L20.2126 31.3525Z" fill="#CCCCCC"/>
<path d="M21.9687 32.3587V33.1755L21.8798 33.1239V32.3076L21.9687 32.3587Z" fill="#CCCCCC"/>
<path d="M23.725 33.3648V34.1892L23.636 34.1376V33.3137L23.725 33.3648Z" fill="#CCCCCC"/>
<path d="M25.4812 34.3706V35.2029L25.3923 35.1513V34.3199L25.4812 34.3706Z" fill="#CCCCCC"/>
<path d="M27.2374 35.3768V36.2166L27.1485 36.1651V35.3256L27.2374 35.3768Z" fill="#CCCCCC"/>
<path d="M39.9147 30.4647V31.2249L38.1807 32.2329L38.0917 32.2845L36.4578 33.2342L36.3689 33.2857L34.7349 34.2354L34.646 34.287L33.012 35.2367L32.9231 35.2883L31.2892 36.238L31.2011 36.2891L29.2884 37.4006V36.5559L31.2002 35.4599L31.2892 35.4092L32.9231 34.4724L33.012 34.4213L34.646 33.4849L34.7349 33.4338L36.3689 32.497L36.4578 32.4463L38.0917 31.5095L38.1807 31.4588L39.9147 30.4647Z" fill="#DDDDDD"/>
<path d="M38.1807 31.4588V32.2329L38.0917 32.2844V31.5095L38.1807 31.4588Z" fill="#B3B3B3"/>
<path d="M36.4578 32.4463V33.2341L36.3689 33.2857V32.497L36.4578 32.4463Z" fill="#B3B3B3"/>
<path d="M34.7349 33.4338V34.2354L34.646 34.287V33.4849L34.7349 33.4338Z" fill="#B3B3B3"/>
<path d="M33.0121 34.4213V35.2367L32.9232 35.2883V34.4724L33.0121 34.4213Z" fill="#B3B3B3"/>
<path d="M31.2892 35.4092V36.238L31.2012 36.2891H31.2003V35.4599L31.2892 35.4092Z" fill="#B3B3B3"/>
<path d="M19.105 29.3976V30.2005L29.2885 36.1557V35.3998L19.105 29.3976Z" fill="#CCCCCC"/>
<path d="M39.5163 29.442V30.2815L29.2884 36.1557V35.363L39.5163 29.442Z" fill="#B3B3B3"/>
<path d="M39.9143 28.6417L38.3417 29.5528L38.2759 29.5905L38.187 29.6412L36.5539 30.5758L36.465 30.6265L34.8319 31.5611L34.743 31.6118L33.1099 32.5463L33.021 32.597L31.3879 33.5316L31.299 33.5823L29.288 34.7329V33.2657L30.0376 32.8367L30.1266 32.786L30.3738 32.6446L30.4311 32.6117L30.5329 32.5535V32.5526L30.6232 32.5001V31.8416L31.1927 31.5166L31.2817 31.4659L32.9179 30.5331L33.0068 30.4824L34.643 29.5496L34.7319 29.499L36.3681 28.5662L36.457 28.5155L36.7037 28.375L37.2599 28.7031L38.648 27.9077L39.9143 28.6417Z" fill="#C7C7D3"/>
<path d="M29.2884 33.2657V34.7329L27.2526 33.5747L27.1623 33.5231L25.483 32.5676L25.3927 32.5165L23.7134 31.561L23.6236 31.5095L21.9439 30.554L21.8541 30.5029L20.1841 29.5527L20.1747 29.5474L20.0854 29.4954L18.6622 28.6675V28.6417L19.9551 27.8632L21.2792 28.6382L21.7327 28.3843L21.8892 28.4736L21.979 28.5252L23.6525 29.4843L23.7423 29.5354L25.4159 30.4944L25.5057 30.5455L27.1796 31.5046L27.2694 31.5562L27.9728 31.959L27.9733 32.5063L28.461 32.7877L28.5504 32.8393L29.2884 33.2657Z" fill="#EDEEEF"/>
<path d="M21.979 28.5252L20.1748 29.5474L20.0854 29.4954L21.8892 28.4737L21.979 28.5252Z" fill="#CCCCCC"/>
<path d="M23.7423 29.5354L21.9439 30.554L21.8541 30.5029L23.6525 29.4843L23.7423 29.5354Z" fill="#CCCCCC"/>
<path d="M25.5056 30.5456L23.7134 31.5611L23.6236 31.5095L25.4158 30.4944L25.5056 30.5456Z" fill="#CCCCCC"/>
<path d="M27.2694 31.5562L25.4829 32.5677L25.3926 32.5165L27.1795 31.5046L27.2694 31.5562Z" fill="#CCCCCC"/>
<path d="M28.5504 32.8393L27.2525 33.5747L27.1623 33.5231L28.461 32.7877L28.5504 32.8393Z" fill="#CCCCCC"/>
<path d="M38.2762 29.5905L38.1873 29.6412L36.3684 28.5662L36.4573 28.5155L38.2762 29.5905Z" fill="#B3B3B3"/>
<path d="M36.5544 30.5758L36.4655 30.6265L34.6434 29.5496L34.7324 29.4989L36.5544 30.5758Z" fill="#B3B3B3"/>
<path d="M34.8323 31.5611L34.7434 31.6117L32.9182 30.5331L33.0071 30.4824L34.8323 31.5611Z" fill="#B3B3B3"/>
<path d="M33.1104 32.5464L33.0214 32.597L31.1932 31.5166L31.2821 31.4659L33.1104 32.5464Z" fill="#B3B3B3"/>
<path d="M31.3883 33.5316L31.2994 33.5823L30.038 32.8367L30.1269 32.786L31.3883 33.5316Z" fill="#B3B3B3"/>
<path d="M29.2884 34.7285V35.5777L27.2432 34.3972L27.1543 34.3457L25.487 33.3835L25.3981 33.332L23.7308 32.3698L23.6418 32.3182L21.9745 31.3556L21.8856 31.3045L20.2183 30.3419L20.1294 30.2908L18.6622 29.4438V28.6417L20.1294 29.482L20.2183 29.5332L21.8856 30.4882L21.9745 30.5389L23.6418 31.4939L23.7308 31.5451L25.3981 32.5001L25.487 32.5512L27.1543 33.5062L27.2432 33.5569L29.2884 34.7285Z" fill="white"/>
<path d="M20.2183 29.5332V30.3419L20.1294 30.2908V29.4821L20.2183 29.5332Z" fill="#CCCCCC"/>
<path d="M21.9745 30.5389V31.3557L21.8856 31.3045V30.4882L21.9745 30.5389Z" fill="#CCCCCC"/>
<path d="M23.7308 31.5451V32.3698L23.6418 32.3182V31.4939L23.7308 31.5451Z" fill="#CCCCCC"/>
<path d="M25.487 32.5512V33.3835L25.3981 33.3319V32.5001L25.487 32.5512Z" fill="#CCCCCC"/>
<path d="M27.2433 33.5569V34.3972L27.1544 34.3457V33.5062L27.2433 33.5569Z" fill="#CCCCCC"/>
<path d="M29.2884 35.5777L39.9147 29.402V28.6417L29.2884 34.7329V35.5777Z" fill="#DDDDDD"/>
<path d="M38.2696 29.5754H38.1807V30.5158H38.2696V29.5754Z" fill="#B3B3B3"/>
<path d="M36.5467 30.5629H36.4578V31.5033H36.5467V30.5629Z" fill="#B3B3B3"/>
<path d="M34.8239 31.5504H34.735V32.4908H34.8239V31.5504Z" fill="#B3B3B3"/>
<path d="M33.101 32.5383H33.0121V33.4787H33.101V32.5383Z" fill="#B3B3B3"/>
<path d="M31.3781 33.5258H31.2892V34.4661H31.3781V33.5258Z" fill="#B3B3B3"/>
<path d="M39.9147 48.8272L29.2885 54.9815L29.244 55.0073L18.6622 48.853L18.6177 48.8272L19.105 48.5435L19.5203 48.3017H19.5207L19.7728 48.1549L20.1841 47.9153L20.2183 47.8957L21.5171 47.1399L29.2431 51.6621L29.244 51.6616L29.2444 51.6612L37.0674 47.1763L38.3355 47.9113L38.3421 47.9153L38.833 48.2003L38.9975 48.2954L39.5164 48.596L39.9147 48.8272Z" fill="#EDEEEF"/>
<path d="M39.9147 48.8272L29.2884 54.9815L29.244 55.0073V53.0657L29.2444 51.6611L37.0674 47.1763L38.3354 47.9113L38.3421 47.9153L38.8329 48.2003L38.9974 48.2954L39.5163 48.596L39.9147 48.8272Z" fill="#C7C7D3"/>
<path d="M18.6622 48.8271V49.6292L27.9461 54.9882L29.2884 55.7631V54.9139L18.6622 48.8271Z" fill="white"/>
<path d="M29.244 55.7631L39.9147 49.5874V48.8271L29.244 54.8886V55.7631Z" fill="#DDDDDD"/>
<path d="M19.105 47.7601V48.5631L29.244 54.5627V53.7531L19.105 47.7601Z" fill="#CCCCCC"/>
<path d="M39.5163 47.8046V48.644L29.244 54.5627L29.2466 53.8513L39.5163 47.8046Z" fill="#B3B3B3"/>
<path d="M39.9147 47.0043L38.3421 47.9153L29.2885 53.1586L29.244 53.1844L20.1841 47.9153L18.6622 47.0301L18.6177 47.0043L19.9556 46.2258L21.5171 47.1399L29.2431 51.6621L29.244 51.6616L29.2444 51.6612L37.0674 47.1764L38.6485 46.2702L39.9147 47.0043Z" fill="#EDEEEF"/>
<path d="M39.9147 47.0043L38.3421 47.9153L29.2884 53.1586L29.244 53.1844V51.6616L29.2444 51.6611L37.0674 47.1763L38.6484 46.2702L39.9147 47.0043Z" fill="#C7C7D3"/>
<path d="M18.6622 47.0043V47.8064L29.244 53.9402L29.2884 53.091L18.6622 47.0043Z" fill="white"/>
<path d="M29.244 53.9402L39.9147 47.7646V47.0043L29.244 53.0657V53.9402Z" fill="#DDDDDD"/>
<path d="M33.8729 24.393L33.3638 24.6892V23.6719L33.8729 23.3758V24.393Z" fill="white"/>
<path d="M33.6341 24.5322L33.6021 24.5504V23.5331L33.6341 23.5144V24.5322Z" fill="#DCDCE5"/>
<path d="M33.8729 29.5616L33.3638 29.8577V28.84L33.8729 28.5439V29.5616Z" fill="white"/>
<path d="M33.6341 29.7004L33.6021 29.7186V28.7013L33.6341 28.6831V29.7004Z" fill="#DCDCE5"/>
<path d="M35.2548 25.9816V25.3307L36.0506 24.8679V25.5192L35.2548 25.9816Z" fill="white"/>
<path d="M35.2548 25.6766V25.6357L36.0506 25.1733V25.2138L35.2548 25.6766Z" fill="#DCDCE5"/>
<path d="M31.2136 28.3323V27.6809L32.009 27.2185V27.8695L31.2136 28.3323Z" fill="white"/>
<path d="M31.2136 28.0268V27.9864L32.009 27.5235V27.5644L31.2136 28.0268Z" fill="#DCDCE5"/>
<path d="M32.9445 25.1093L32.6688 25.473L32.2709 24.8234L32.5465 24.4597L32.9445 25.1093Z" fill="white"/>
<path d="M32.2922 26.1737L32.133 26.6188L31.4443 26.5107L31.6031 26.0661L32.2922 26.1737Z" fill="white"/>
<path d="M32.133 28.3421L32.2922 28.6017L31.6031 29.511L31.4443 29.2513L32.133 28.3421Z" fill="white"/>
<path d="M32.6688 28.8645L32.9445 28.9076L32.5466 30.0201L32.2714 29.9769L32.6688 28.8645Z" fill="white"/>
<path d="M34.2917 28.1242L34.5673 27.7605L34.9653 28.4101L34.6896 28.7738L34.2917 28.1242Z" fill="white"/>
<path d="M34.9439 27.0593L35.1031 26.6143L35.7922 26.7223L35.6331 27.1674L34.9439 27.0593Z" fill="white"/>
<path d="M35.1031 24.8914L34.9439 24.6318L35.6331 23.7221L35.7922 23.9822L35.1031 24.8914Z" fill="white"/>
<path d="M34.5673 24.369L34.2917 24.3259L34.6896 23.2134L34.9653 23.2566L34.5673 24.369Z" fill="white"/>
<path d="M33.3007 26.2724L33.6506 26.0688L33.5923 28.0562L33.3882 28.1749C33.3589 27.5404 33.33 26.9064 33.3007 26.2724Z" fill="#999999"/>
<path d="M33.3945 26.1119L33.7444 25.9083L33.6862 27.8957L33.4821 28.0144C33.4532 27.3804 33.4239 26.7459 33.3945 26.1119Z" fill="white"/>
<path d="M33.201 27.1011L33.1766 26.669C33.6857 26.352 34.1952 26.0349 34.7043 25.7184C34.7092 25.8024 34.7136 25.8864 34.7185 25.9705C34.213 26.3471 33.707 26.7241 33.201 27.1011Z" fill="#999999"/>
<path d="M33.2633 26.9509L33.2389 26.5187C33.748 26.2017 34.2575 25.8847 34.7666 25.5681C34.7715 25.6521 34.7759 25.7362 34.7808 25.8202C34.2753 26.1968 33.7693 26.5738 33.2633 26.9509Z" fill="white"/>
<path d="M25.2483 24.746L24.7023 24.4526L24.6956 23.4255L25.2412 23.7194L25.2483 24.746Z" fill="white"/>
<path d="M24.9922 24.6087L24.958 24.59L24.9513 23.5634L24.9855 23.5816L24.9922 24.6087Z" fill="#DCDCE5"/>
<path d="M25.2825 29.9618L24.7365 29.6683L24.7298 28.6417L25.2753 28.9352L25.2825 29.9618Z" fill="white"/>
<path d="M25.0264 29.8244L24.9921 29.8062L24.9855 28.7791L25.0197 28.7978L25.0264 29.8244Z" fill="#DCDCE5"/>
<path d="M26.7461 27.9579L26.7416 27.3008L27.5944 27.7596L27.5989 28.4168L26.7461 27.9579Z" fill="white"/>
<path d="M26.7439 27.6498L26.7435 27.6089L27.5967 28.0677L27.5971 28.1086L26.7439 27.6498Z" fill="#DCDCE5"/>
<path d="M22.4124 25.6268L22.4084 24.9696L23.2612 25.4285L23.2657 26.0856L22.4124 25.6268Z" fill="white"/>
<path d="M22.4108 25.3187L22.4103 25.2778L23.2636 25.7366V25.7775L22.4108 25.3187Z" fill="#DCDCE5"/>
<path d="M24.254 24.3885L23.9597 24.4352L23.5275 23.3166L23.8214 23.2699L24.254 24.3885Z" fill="white"/>
<path d="M23.5591 24.7038L23.3906 24.9679L22.6486 24.0569L22.8171 23.7932L23.5591 24.7038Z" fill="white"/>
<path d="M23.4021 26.7068L23.5751 27.154L22.8397 27.2701L22.6667 26.8228L23.4021 26.7068Z" fill="white"/>
<path d="M23.9825 27.8575L24.279 28.222L23.8584 28.8818L23.5614 28.5173L23.9825 27.8575Z" fill="white"/>
<path d="M25.7235 28.9992L26.0178 28.9525L26.45 30.0712L26.1561 30.1178L25.7235 28.9992Z" fill="white"/>
<path d="M26.4185 28.684L26.587 28.4199L27.329 29.3309L27.1605 29.5946L26.4185 28.684Z" fill="white"/>
<path d="M26.5754 26.681L26.4024 26.2337L27.1378 26.1177L27.3108 26.565L26.5754 26.681Z" fill="white"/>
<path d="M25.9952 25.5303L25.6986 25.1657L26.1192 24.5059L26.4162 24.8705L25.9952 25.5303Z" fill="white"/>
<path d="M24.6449 25.9767L25.0202 26.1786C25.0037 26.8246 24.9873 27.4702 24.9704 28.1162C24.8974 28.0771 24.8245 28.0375 24.7516 27.9984C24.716 27.3248 24.6805 26.6508 24.6449 25.9767Z" fill="#999999"/>
<path d="M24.745 25.9242L25.1202 26.1261C25.1038 26.7721 25.0873 27.4177 25.0705 28.0637C24.9975 28.0246 24.9246 27.985 24.8517 27.9459C24.8161 27.2723 24.7806 26.5983 24.745 25.9242Z" fill="white"/>
<path d="M24.5435 26.6974L24.5142 26.2328C25.0601 26.5058 25.6061 26.7784 26.1521 27.0514L26.169 27.3226C25.627 27.114 25.085 26.9055 24.5435 26.6974Z" fill="#999999"/>
<path d="M24.6094 26.6183L24.58 26.1537C25.126 26.4266 25.672 26.6992 26.218 26.9722C26.2238 27.0624 26.2295 27.1531 26.2349 27.2434C25.6929 27.0344 25.1513 26.8264 24.6094 26.6183Z" fill="white"/>
<path d="M29.5107 1.45406C29.5107 1.55454 29.4556 1.6408 29.3773 1.67814V8.5452H29.1995V1.67814C29.1212 1.6408 29.0661 1.55454 29.0661 1.45406C29.0661 1.3189 29.1657 1.20908 29.2884 1.20908C29.4111 1.20908 29.5107 1.3189 29.5107 1.45406Z" fill="#DCDCE5"/>
<path d="M39.8613 18.7731L29.235 24.9275L29.191 24.9533L27.1116 23.7439L27.0222 23.6919L25.3616 22.7262L25.2722 22.6742L23.6111 21.708L23.5222 21.6564L21.8611 20.6903L21.7717 20.6387L20.1111 19.6726L20.0217 19.6206L18.6088 18.7989V18.7731L19.0516 18.4895L19.4669 18.2476H19.4673L19.7194 18.1009L20.1311 17.8612L20.1649 17.8417L21.4636 17.0858L24.7 18.9799H24.7004L24.7009 18.9803L26.4446 20.0011L26.5336 20.0532L28.1889 21.022L28.2782 21.074L29.1901 21.608L29.191 21.6075L29.1915 21.6071L37.014 17.1223L38.282 17.8572L38.2887 17.8612L38.7795 18.1462L38.9441 18.2414L39.4629 18.5419L39.8613 18.7731Z" fill="#EDEEEF"/>
<path d="M22.6099 18.2574L20.1112 19.6726L20.0219 19.6206L22.5664 18.1796L22.6099 18.2574Z" fill="#CCCCCC"/>
<path d="M24.744 19.0576L21.8611 20.6903L21.7717 20.6387L24.7 18.9798H24.7004L24.7008 18.9803L24.744 19.0576Z" fill="#CCCCCC"/>
<path d="M26.8782 19.8579L26.5336 20.0531L23.6112 21.708L23.5223 21.6564L26.4447 20.0011L26.8346 19.7801L26.8782 19.8579Z" fill="#CCCCCC"/>
<path d="M28.2782 21.074L25.3616 22.7261L25.2722 22.6741L28.1889 21.0219L28.2782 21.074Z" fill="#CCCCCC"/>
<path d="M31.1465 21.4586L27.1116 23.7439L27.0223 23.6919L31.1029 21.3808L31.1465 21.4586Z" fill="#CCCCCC"/>
<path d="M39.8614 18.7731L38.1123 19.7757L38.0678 19.8011L38.0233 19.8268L36.3921 20.7619L36.3471 20.7876L36.3031 20.813L34.6718 21.748L34.6269 21.7738L34.5825 21.7991L32.9512 22.7342L32.9067 22.76L32.8623 22.7853L31.231 23.7203L31.1861 23.7461L31.1416 23.7714L29.2351 24.8643V21.5742L37.0141 17.1223L38.2821 17.8572L38.2888 17.8612L38.7796 18.1462L38.9441 18.2413L39.463 18.5419L39.8614 18.7731Z" fill="#C7C7D3"/>
<path d="M38.1122 19.7757L38.0677 19.801L38.0233 19.8268L36.5262 18.942L36.5489 18.9038L36.5716 18.8651L38.1122 19.7757Z" fill="#B3B3B3"/>
<path d="M36.3921 20.7619L36.3472 20.7877L36.3032 20.813L34.7924 19.9202L34.815 19.882L34.8377 19.8433L36.3921 20.7619Z" fill="#B3B3B3"/>
<path d="M34.6719 21.748L34.6269 21.7738L34.5825 21.7991L33.0583 20.8983L33.081 20.8601L33.1037 20.8214L34.6719 21.748Z" fill="#B3B3B3"/>
<path d="M32.9512 22.7342L32.9068 22.76L32.8623 22.7853L31.3244 21.8765L31.3471 21.8383L31.3698 21.7996L32.9512 22.7342Z" fill="#B3B3B3"/>
<path d="M31.231 23.7203L31.1861 23.7461L31.1416 23.7714L29.5903 22.8546L29.613 22.8164L29.6357 22.7777L31.231 23.7203Z" fill="#B3B3B3"/>
<path d="M29.235 24.8598V25.709L27.8927 24.9341L27.184 24.525L27.0951 24.4735L25.4278 23.5113L25.3389 23.4597L23.6716 22.4976L23.5827 22.446L21.9154 21.4839L21.8264 21.4323L20.1591 20.4702L20.0702 20.4186L18.6088 19.5752V18.7731L20.0702 19.6103L20.1591 19.661L21.8264 20.616L21.9154 20.6671L23.5827 21.6222L23.6716 21.6733L25.3389 22.6283L25.4278 22.679L27.0951 23.634L27.184 23.6852L29.235 24.8598Z" fill="white"/>
<path d="M20.1592 19.661V20.4702L20.0703 20.4186V19.6103L20.1592 19.661Z" fill="#CCCCCC"/>
<path d="M21.9154 20.6671V21.4839L21.8265 21.4323V20.616L21.9154 20.6671Z" fill="#CCCCCC"/>
<path d="M23.6717 21.6733V22.4976L23.5828 22.4461V21.6222L23.6717 21.6733Z" fill="#CCCCCC"/>
<path d="M25.4279 22.679V23.5113L25.3389 23.4597V22.6283L25.4279 22.679Z" fill="#CCCCCC"/>
<path d="M27.1841 23.6852V24.5251L27.0952 24.4735V23.6341L27.1841 23.6852Z" fill="#CCCCCC"/>
<path d="M39.8614 18.7731V19.5334L38.1274 20.5413L38.0385 20.5929L36.4045 21.5426L36.3156 21.5941L34.6816 22.5438L34.5927 22.5954L32.9587 23.5451L32.8698 23.5967L31.2359 24.5464L31.1478 24.5975L29.2351 25.709V24.8643L31.1469 23.7683L31.2359 23.7176L32.8698 22.7808L32.9587 22.7297L34.5927 21.7933L34.6816 21.7422L36.3156 20.8054L36.4045 20.7547L38.0385 19.8179L38.1274 19.7672L39.8614 18.7731Z" fill="#DDDDDD"/>
<path d="M38.1273 19.7672V20.5413L38.0384 20.5929V19.8179L38.1273 19.7672Z" fill="#B3B3B3"/>
<path d="M36.4045 20.7547V21.5426L36.3156 21.5942V20.8054L36.4045 20.7547Z" fill="#B3B3B3"/>
<path d="M34.6816 21.7422V22.5438L34.5927 22.5954V21.7933L34.6816 21.7422Z" fill="#B3B3B3"/>
<path d="M32.9587 22.7297V23.5451L32.8698 23.5967V22.7808L32.9587 22.7297Z" fill="#B3B3B3"/>
<path d="M31.2359 23.7177V24.5464L31.1479 24.5975H31.147V23.7683L31.2359 23.7177Z" fill="#B3B3B3"/>
<path d="M19.0511 17.706V18.5094L29.235 24.4642V23.7083L19.0511 17.706Z" fill="#CCCCCC"/>
<path d="M39.463 17.7505V18.5899L29.2351 24.4641V23.6718L39.463 17.7505Z" fill="#B3B3B3"/>
<path d="M29.235 21.5742V23.0414L27.1991 21.8832L27.1089 21.8316L25.4296 20.8761L25.3393 20.825L23.66 19.8695L23.5702 19.8179L21.8905 18.8625L21.8006 18.8113L20.1307 17.8612L20.1213 17.8559L20.032 17.8038L18.6088 16.976V16.9502L19.9017 16.1717L21.2258 16.9466L21.6793 16.6927L21.8358 16.7821L21.9256 16.8337L23.5991 17.7927L23.6889 17.8439L25.3624 18.8029L25.4523 18.854L27.1262 19.813L27.216 19.8646L27.9194 20.2674L27.9199 20.8148L28.4076 21.0962L28.497 21.1478L29.235 21.5742Z" fill="#EDEEEF"/>
<path d="M21.9257 16.8336L20.1214 17.8558L20.032 17.8038L21.8358 16.7821L21.9257 16.8336Z" fill="#CCCCCC"/>
<path d="M23.6889 17.8438L21.8905 18.8624L21.8007 18.8113L23.5991 17.7927L23.6889 17.8438Z" fill="#CCCCCC"/>
<path d="M25.4523 18.854L23.6601 19.8695L23.5703 19.8179L25.3625 18.8029L25.4523 18.854Z" fill="#CCCCCC"/>
<path d="M27.2161 19.8646L25.4297 20.8761L25.3394 20.825L27.1263 19.813L27.2161 19.8646Z" fill="#CCCCCC"/>
<path d="M28.497 21.1478L27.1992 21.8832L27.1089 21.8316L28.4077 21.0962L28.497 21.1478Z" fill="#CCCCCC"/>
<path d="M39.8614 16.9502L38.2888 17.8612L38.223 17.899L38.134 17.9497L36.501 18.8842L36.4121 18.9349L34.779 19.8695L34.6901 19.9202L33.057 20.8548L32.9681 20.9055L31.335 21.84L31.2461 21.8907L29.2351 23.0414V21.5742L29.9847 21.1451L30.0736 21.0944L30.48 20.8619V20.2012L31.1398 19.8251L31.2288 19.7744L32.8649 18.8416L32.9539 18.7909L34.59 17.8581L34.679 17.8074L36.3151 16.8746L36.4041 16.8239L36.6508 16.6834L37.207 17.0115L35.8434 14.3279L39.8614 16.9502Z" fill="#C7C7D3"/>
<path d="M38.223 17.899L38.134 17.9497L36.3151 16.8746L36.404 16.8239L38.223 17.899Z" fill="#B3B3B3"/>
<path d="M36.501 18.8842L36.4121 18.9349L34.59 17.8581L34.6789 17.8074L36.501 18.8842Z" fill="#B3B3B3"/>
<path d="M34.7789 19.8695L34.69 19.9202L32.8649 18.8415L32.9538 18.7909L34.7789 19.8695Z" fill="#B3B3B3"/>
<path d="M33.0569 20.8548L32.968 20.9055L31.1398 19.825L31.2287 19.7744L33.0569 20.8548Z" fill="#B3B3B3"/>
<path d="M31.335 21.84L31.2461 21.8907L29.9847 21.1451L30.0737 21.0944L31.335 21.84Z" fill="#B3B3B3"/>
<path d="M29.235 23.0369V23.8861L27.1898 22.7057L27.1009 22.6541L25.4336 21.692L25.3447 21.6404L23.6774 20.6783L23.5884 20.6267L21.9211 19.6641L21.8322 19.613L20.1649 18.6504L20.076 18.5992L18.6088 17.7522V16.9502L20.076 17.7905L20.1649 17.8416L21.8322 18.7966L21.9211 18.8473L23.5884 19.8024L23.6774 19.8535L25.3447 20.8085L25.4336 20.8597L27.1009 21.8147L27.1898 21.8654L29.235 23.0369Z" fill="white"/>
<path d="M20.1649 17.8416V18.6504L20.076 18.5992V17.7905L20.1649 17.8416Z" fill="#CCCCCC"/>
<path d="M21.9212 18.8473V19.6641L21.8323 19.613V18.7967L21.9212 18.8473Z" fill="#CCCCCC"/>
<path d="M23.6774 19.8535V20.6783L23.5885 20.6267V19.8024L23.6774 19.8535Z" fill="#CCCCCC"/>
<path d="M25.4336 20.8596V21.692L25.3447 21.6404V20.8085L25.4336 20.8596Z" fill="#CCCCCC"/>
<path d="M27.1899 21.8654V22.7057L27.101 22.6541V21.8147L27.1899 21.8654Z" fill="#CCCCCC"/>
<path d="M29.2351 23.8861L39.8614 17.7105V16.9502L29.2351 23.0414V23.8861Z" fill="#DDDDDD"/>
<path d="M38.2163 17.8839H38.1274V18.8242H38.2163V17.8839Z" fill="#B3B3B3"/>
<path d="M36.4934 18.8718H36.4045V19.8121H36.4934V18.8718Z" fill="#B3B3B3"/>
<path d="M34.7706 19.8593H34.6816V20.7997H34.7706V19.8593Z" fill="#B3B3B3"/>
<path d="M33.0477 20.8468H32.9587V21.7871H33.0477V20.8468Z" fill="#B3B3B3"/>
<path d="M31.3248 21.8343H31.2358V22.7746H31.3248V21.8343Z" fill="#B3B3B3"/>
<path d="M19.7617 16.257L22.3546 14.7249L20.4606 16.5993L19.7617 16.257Z" fill="#EDEEEF"/>
<path d="M38.6697 16.8594L29.2884 22.3282V22.1948V8.45624L38.6697 16.8594Z" fill="#55BAF0"/>
<g opacity="0.6">
<path d="M31.2221 10.107L29.1771 11.308L29.2221 11.3846L31.2671 10.1837L31.2221 10.107Z" fill="#E6E6E6"/>
<path d="M33.0012 11.8407L29.1931 14.1166L29.2387 14.1929L33.0468 11.9171L33.0012 11.8407Z" fill="#E6E6E6"/>
<path d="M34.8225 13.5293L29.2659 16.7762L29.3107 16.853L34.8674 13.6061L34.8225 13.5293Z" fill="#E6E6E6"/>
<path d="M36.6913 15.1313L29.1771 19.4882L29.2217 19.5651L36.7359 15.2083L36.6913 15.1313Z" fill="#E6E6E6"/>
<path d="M29.2726 11.3142L29.2134 11.3805L36.6825 18.0495L36.7417 17.9832L29.2726 11.3142Z" fill="#E6E6E6"/>
<path d="M29.318 8.46666L29.2587 8.5329L38.6404 16.936L38.6997 16.8698L29.318 8.46666Z" fill="#E6E6E6"/>
<path d="M29.3329 8.5452H29.244V22.3727H29.3329V8.5452Z" fill="#E6E6E6"/>
<path d="M29.3173 13.9795L29.2574 14.0452L34.8154 19.1135L34.8753 19.0478L29.3173 13.9795Z" fill="#E6E6E6"/>
<path d="M29.273 16.6915L29.2137 16.7578L32.993 20.1366L33.0523 20.0703L29.273 16.6915Z" fill="#E6E6E6"/>
<path d="M29.3202 19.4508L29.2596 19.516L31.1269 21.25L31.1874 21.1848L29.3202 19.4508Z" fill="#E6E6E6"/>
<path d="M31.2003 10.2347H31.1113V21.2611H31.2003V10.2347Z" fill="#E6E6E6"/>
<path d="M33.0676 11.8798H32.9787V20.1496H33.0676V11.8798Z" fill="#E6E6E6"/>
<path d="M34.8905 13.5249H34.8016V19.127H34.8905V13.5249Z" fill="#E6E6E6"/>
<path d="M36.7579 15.17H36.669V18.0155H36.7579V15.17Z" fill="#E6E6E6"/>
</g>
<path d="M29.2884 8.45624V22.3282L29.2386 22.2988L27.3899 21.2162L25.5408 20.1331L25.4781 20.0962L23.6921 19.0505L23.6312 19.0145L21.8434 17.9674L21.7847 17.9332L21.7527 17.9145L19.9515 16.8594L21.7958 15.1997L21.8532 15.1481L22.0354 14.9841L23.6414 13.5386L23.7116 13.4755L25.4874 11.8771L25.5697 11.8033L27.3335 10.2156L27.4282 10.1307L29.1795 8.55405L29.2862 8.45846V8.45802L29.2884 8.45624Z" fill="#79C6E8"/>
<g opacity="0.6">
<path d="M29.263 8.65424L29.2603 8.65247L29.1569 8.59191L29.2015 8.51587L29.312 8.58085L29.263 8.65424Z" fill="#E6E6E6"/>
<path d="M29.2657 11.3956L29.195 11.3543L27.3112 10.2538L27.3557 10.1774L27.4499 10.2316L29.3111 11.3191L29.2657 11.3956Z" fill="#E6E6E6"/>
<path d="M29.2658 14.1353L29.1853 14.0882L25.4652 11.9158L25.5097 11.8384L25.5915 11.8865L29.3107 14.0584L29.2658 14.1353Z" fill="#E6E6E6"/>
<path d="M29.2663 16.875L29.1765 16.8226L23.6201 13.5778L23.6624 13.4995L23.673 13.5053L23.7335 13.5409L29.3107 16.7981L29.3023 16.8128V16.8186H29.2987L29.2663 16.875Z" fill="#E6E6E6"/>
<path d="M29.2658 19.6143L27.3175 18.4765L21.7731 15.2379L21.814 15.1592L21.818 15.1615L21.8749 15.1948L29.3107 19.5378L29.2658 19.6143Z" fill="#E6E6E6"/>
<path d="M29.2662 22.3545L29.2164 22.3256L19.9133 16.8915L19.9582 16.815L29.3107 22.2776L29.2662 22.3545Z" fill="#E6E6E6"/>
<path d="M29.2831 22.2989H29.1942V22.2869L29.2418 8.45848L29.3307 8.45804L29.3303 8.61677L29.2831 22.2989Z" fill="#E6E6E6"/>
<path d="M27.4344 21.2163H27.3455V21.2069L27.3837 10.1303L27.4726 10.1312L27.4722 10.2703L27.4344 21.2163Z" fill="#E6E6E6"/>
<path d="M25.5853 20.1332H25.4963L25.4968 20.0398L25.5252 11.8033H25.6142L25.6137 11.9251L25.5853 20.1332Z" fill="#E6E6E6"/>
<path d="M23.6476 19.0505L23.648 18.9598L23.6671 13.4755H23.7561L23.7556 13.5791L23.7365 19.0478L23.6476 19.0505Z" fill="#E6E6E6"/>
<path d="M21.8879 17.9679L21.799 17.9674L21.7994 17.8803L21.8087 15.1481L21.8977 15.1464L21.8972 15.2335L21.8879 17.9679Z" fill="#E6E6E6"/>
<path d="M19.9653 16.8864L19.9062 16.8197L29.2604 8.49207L29.316 8.56143L29.256 8.61478L19.9653 16.8864Z" fill="#E6E6E6"/>
<path d="M21.814 17.9661L21.7549 17.8999L21.814 17.847L29.2586 11.2195L29.3178 11.2862L29.2466 11.3494L21.814 17.9661Z" fill="#E6E6E6"/>
<path d="M23.6587 19.0492L23.6031 18.9798L23.6627 18.9269L29.2591 13.945L29.3178 14.0117L29.2373 14.0833L23.6587 19.0492Z" fill="#E6E6E6"/>
<path d="M25.5074 20.1296L25.4483 20.0629L25.5114 20.0065L29.2586 16.671L29.3182 16.7368L29.2284 16.8177L25.5074 20.1296Z" fill="#E6E6E6"/>
</g>
<path d="M30.4308 32.6117L30.3738 32.6448V32.6444L30.4308 32.6117Z" fill="#C7C7D3"/>
<path d="M43.5818 47.6632L43.5836 51.7226L44.2279 52.2303V48.1692L43.5818 47.6632Z" fill="#C7B299"/>
<path d="M44.8721 47.665V51.7261L44.2279 52.2303V48.1692L44.8721 47.665Z" fill="#998675"/>
<path d="M41.7883 48.3079L44.2279 50.2304V47.0875L43.0079 46.108L41.7883 48.3079Z" fill="#53AA87"/>
<path d="M46.6679 48.3079L44.2279 50.2304V47.0875L45.4479 46.108L46.6679 48.3079Z" fill="#328D6A"/>
<path d="M42.1245 46.505L44.2279 48.163V45.4526L43.176 44.6083L42.1245 46.505Z" fill="#6CD3A7"/>
<path d="M46.3318 46.505L44.2279 48.163V45.4526L45.2799 44.6083L46.3318 46.505Z" fill="#389E74"/>
<path d="M42.6028 45.0689L44.2292 46.3507V41.3066" fill="#84F4C1"/>
<path d="M45.8561 45.0689L44.2292 46.3507V41.3066" fill="#6CD3A7"/>
<path d="M16.4697 43.9702L16.4737 51.2063L17.72 52.1111V44.8719L16.4697 43.9702Z" fill="#C7B299"/>
<path d="M18.9663 43.9734V51.2121L17.7201 52.1111V44.8719L18.9663 43.9734Z" fill="#998675"/>
<path d="M13 45.1191L17.72 48.5467V42.9432L15.36 41.1972L13 45.1191Z" fill="#53AA87"/>
<path d="M22.4401 45.1191L17.7201 48.5467V42.9432L20.0801 41.1972L22.4401 45.1191Z" fill="#328D6A"/>
<path d="M13.6505 41.9054L17.7201 44.8603V40.0287L15.6851 38.5237L13.6505 41.9054Z" fill="#6CD3A7"/>
<path d="M21.7896 41.9054L17.7201 44.8603V40.0287L19.7551 38.5237L21.7896 41.9054Z" fill="#389E74"/>
<path d="M14.5762 39.3454L17.7227 41.6303V32.6384" fill="#84F4C1"/>
<path d="M20.8692 39.3454L17.7227 41.6303V32.6384" fill="#6CD3A7"/>
<path d="M21.039 49.8907L21.0417 54.7899L21.8855 55.4026V50.5011L21.039 49.8907Z" fill="#C7B299"/>
<path d="M22.7291 49.8925V54.7939L21.8856 55.4026V50.5012L22.7291 49.8925Z" fill="#998675"/>
<path d="M18.6897 50.6688L21.8856 52.9892V49.1953L20.2876 48.0131L18.6897 50.6688Z" fill="#53AA87"/>
<path d="M25.0811 50.6688L21.8856 52.9892V49.1953L23.4836 48.0131L25.0811 50.6688Z" fill="#328D6A"/>
<path d="M19.1298 48.4924L21.8855 50.4932V47.2221L20.5077 46.2026L19.1298 48.4924Z" fill="#6CD3A7"/>
<path d="M24.6409 48.4924L21.8856 50.4932V47.2221L23.263 46.2026L24.6409 48.4924Z" fill="#389E74"/>
<path d="M19.7568 46.7593L21.8874 48.3066V42.218" fill="#84F4C1"/>
<path d="M24.018 46.7593L21.8874 48.3066V42.218" fill="#6CD3A7"/>
</svg>
