<svg width="141" height="153" viewBox="0 0 141 153" fill="none" xmlns="http://www.w3.org/2000/svg">
<path d="M103.661 104.811L103.671 126.102L107.051 128.766V107.464L103.661 104.811Z" fill="#C7B299"/>
<path d="M110.43 104.819V126.12L107.051 128.766V107.465L110.43 104.819Z" fill="#998675"/>
<path d="M94.2528 108.192L107.051 118.277V101.788L100.652 96.6505L94.2528 108.192Z" fill="#53AA87"/>
<path d="M119.85 108.192L107.051 118.277V101.788L113.451 96.6505L119.85 108.192Z" fill="#328D6A"/>
<path d="M96.0153 98.7337L107.051 107.43V93.2132L101.533 88.7829L96.0153 98.7337Z" fill="#6CD3A7"/>
<path d="M118.086 98.7337L107.051 107.43V93.2132L112.568 88.7829L118.086 98.7337Z" fill="#389E74"/>
<path d="M98.5255 91.2012L107.058 97.9249V71.4653" fill="#84F4C1"/>
<path d="M115.59 91.2012L107.058 97.9249V71.4653" fill="#6CD3A7"/>
<path d="M73.4737 62.1543L73.4539 74.7625V75.031L73.4434 81.6135V81.8831L73.4329 88.4644V88.7352L73.4224 95.3165L73.4212 95.5849L73.4119 102.169L73.4107 102.438L73.4014 109.021L73.4002 109.289L73.3897 115.872V116.14L73.3792 122.724V122.992L73.357 137.217L66.771 133.404L66.5376 133.269L63.1086 131.283L62.8752 131.148L59.4462 129.164L59.2128 129.028L55.785 127.043L55.5516 126.909L48.9644 123.095L48.9633 122.609V122.34L48.9528 115.747V115.476L48.9434 108.882L48.9423 108.612L48.9329 102.018L48.9317 101.748L48.9224 95.1543L48.9212 94.8847L48.9119 88.2905L48.9107 88.0209L48.9014 81.4267L48.9002 81.1571L48.8909 74.563V74.2934L48.8804 67.6992V67.4296L48.8699 60.8354V60.5658L48.8477 46.1824L55.5516 50.5298L55.785 50.6816L59.2128 52.9049L59.4462 53.0566L62.8752 55.28L63.1086 55.4317L66.5376 57.655L66.771 57.8068L73.4737 62.1543Z" fill="#759ED8"/>
<g opacity="0.3">
<path d="M55.7848 50.6814V127.043L55.5514 126.909V50.5297L55.7848 50.6814Z" fill="#B3B3B3"/>
<path d="M59.4461 53.0565V129.164L59.2126 129.028V52.9048L59.4461 53.0565Z" fill="#B3B3B3"/>
<path d="M63.1086 55.4315V131.283L62.8752 131.148V55.2798L63.1086 55.4315Z" fill="#B3B3B3"/>
<path d="M66.7705 57.8066V133.404L66.537 133.268V57.6549L66.7705 57.8066Z" fill="#B3B3B3"/>
</g>
<g opacity="0.3">
<path d="M73.4535 74.7624V75.0308L66.7706 71.1723L66.5372 71.0369L63.1083 69.0575L62.8748 68.9221L59.4459 66.9427L59.2124 66.8073L55.7846 64.8279L55.5512 64.6937L48.8695 60.8352V60.5656L55.5512 64.4241L55.7846 64.5595L59.2124 66.5389L59.4459 66.6731L62.8748 68.6537L63.1083 68.7879L66.5372 70.7685L66.7706 70.9027L73.4535 74.7624Z" fill="#B3B3B3"/>
</g>
<g opacity="0.3">
<path d="M73.4431 81.6135V81.8831L66.7707 78.0305L66.5373 77.8951L63.1083 75.9157L62.8749 75.7803L59.4459 73.8009L59.2125 73.6655L55.7847 71.6861L55.5513 71.5519L48.8801 67.6993V67.4297L55.5513 71.2811L55.7847 71.4165L59.2125 73.3959L59.4459 73.5301L62.8749 75.5107L63.1083 75.6461L66.5373 77.6255L66.7707 77.7609L73.4431 81.6135Z" fill="#B3B3B3"/>
</g>
<g opacity="0.3">
<path d="M73.4326 88.4643V88.735L66.7707 84.8882L66.5373 84.7528L63.1084 82.7734L62.8749 82.638L59.446 80.6586L59.2125 80.5232L55.7847 78.5438L55.5513 78.4096L48.8906 74.5628V74.2932L55.5513 78.14L55.7847 78.2742L59.2125 80.2536L59.446 80.3879L62.8749 82.3684L63.1084 82.5027L66.5373 84.4832L66.7707 84.6175L73.4326 88.4643Z" fill="#B3B3B3"/>
</g>
<g opacity="0.3">
<path d="M73.4221 95.3164L73.4209 95.5849L66.7708 91.7451L66.5373 91.6109L63.1084 89.6303L62.8749 89.4961L59.446 87.5155L59.2125 87.3813L55.7847 85.4019L55.5513 85.2665L48.9011 81.4267L48.9 81.1571L55.5513 84.9969L55.7847 85.1322L59.2125 87.1117L59.446 87.2459L62.8749 89.2265L63.1084 89.3607L66.5373 91.3413L66.7708 91.4755L73.4221 95.3164Z" fill="#B3B3B3"/>
</g>
<g opacity="0.3">
<path d="M73.4117 102.168L73.4106 102.438L66.7709 98.603L66.5374 98.4688L63.1085 96.4882L62.8751 96.3539L59.4461 94.3734L59.2127 94.2391L55.7849 92.2597L55.5514 92.1255L48.9118 88.2904L48.9106 88.0208L55.5514 91.8547L55.7849 91.9901L59.2127 93.9695L59.4461 94.1038L62.8751 96.0843L63.1085 96.2186L66.5374 98.1991L66.7709 98.3334L73.4117 102.168Z" fill="#B3B3B3"/>
</g>
<g opacity="0.3">
<path d="M73.4013 109.021L73.4001 109.289L66.7709 105.461L66.5375 105.327L63.1085 103.346L62.8751 103.212L59.4461 101.231L59.2127 101.096L55.7849 99.1178L55.5515 98.9824L48.9223 95.1542L48.9211 94.8846L55.5515 98.7128L55.7849 98.8482L59.2127 100.828L59.4461 100.962L62.8751 102.942L63.1085 103.077L66.5375 105.057L66.7709 105.191L73.4013 109.021Z" fill="#B3B3B3"/>
</g>
<g opacity="0.3">
<path d="M73.3897 115.871V116.14L66.771 112.319L66.5376 112.183L63.1086 110.204L62.8752 110.069L59.4463 108.089L59.2128 107.954L55.785 105.974L55.5516 105.84L48.9329 102.018L48.9318 101.748L55.5516 105.57L55.785 105.706L59.2128 107.685L59.4463 107.82L62.8752 109.8L63.1086 109.934L66.5376 111.915L66.771 112.049L73.3897 115.871Z" fill="#B3B3B3"/>
</g>
<g opacity="0.3">
<path d="M74.2032 123.199L74.0865 123.401L73.3793 122.992L66.7711 119.177L66.5377 119.041L63.1087 117.062L62.8753 116.927L59.4463 114.947L59.2129 114.812L55.7851 112.832L55.5517 112.698L48.9435 108.882L48.9423 108.612L55.5517 112.429L55.7851 112.564L59.2129 114.542L59.4463 114.678L62.8753 116.657L63.1087 116.792L66.5377 118.772L66.7711 118.907L73.3793 122.724L74.2032 123.199Z" fill="#B3B3B3"/>
</g>
<g opacity="0.3">
<path d="M73.0578 129.396L72.941 129.598L66.7705 126.035L66.5371 125.901L63.1081 123.92L62.8747 123.786L59.4458 121.805L59.2123 121.671L55.7845 119.692L55.5511 119.556L48.9523 115.747V115.476L55.5511 119.287L55.7845 119.422L59.2123 121.401L59.4458 121.536L62.8747 123.516L63.1081 123.65L66.5371 125.631L66.7705 125.765L73.0578 129.396Z" fill="#B3B3B3"/>
</g>
<g opacity="0.3">
<path d="M71.9141 135.592L71.7974 135.795L66.7707 132.893L66.5372 132.757L63.1083 130.778L62.8748 130.642L59.4459 128.663L59.2124 128.528L55.7846 126.548L55.5512 126.414L48.9629 122.609V122.34L55.5512 126.143L55.7846 126.279L59.2124 128.258L59.4459 128.392L62.8748 130.373L63.1083 130.507L66.5372 132.488L66.7707 132.622L71.9141 135.592Z" fill="#B3B3B3"/>
</g>
<path d="M69.9615 103.445L53.685 94.4037V88.7083L69.9615 97.7498V103.445Z" fill="white"/>
<path d="M69.9615 98.2751L53.685 89.2346V88.8833L69.9615 97.9249V98.2751Z" fill="#DCDCE5"/>
<path d="M69.9615 98.8889L53.685 89.8473V89.4972L69.9615 98.5388V98.8889Z" fill="#DCDCE5"/>
<path d="M69.9615 99.5028L53.685 90.4612V90.1099L69.9615 99.1515V99.5028Z" fill="#DCDCE5"/>
<path d="M69.9615 100.116L53.685 91.0739V90.7238L69.9615 99.7654V100.116Z" fill="#DCDCE5"/>
<path d="M69.9615 100.729L53.685 91.6877V91.3376L69.9615 100.378V100.729Z" fill="#DCDCE5"/>
<path d="M69.9615 101.342L53.685 92.3007V91.9505L69.9615 100.992V101.342Z" fill="#DCDCE5"/>
<path d="M69.9615 101.956L53.685 92.9147V92.5645L69.9615 101.605V101.956Z" fill="#DCDCE5"/>
<path d="M69.9615 102.569L53.685 93.5284V93.1771L69.9615 102.219V102.569Z" fill="#DCDCE5"/>
<path d="M69.9615 103.183L53.685 94.1413V93.7911L69.9615 102.833V103.183Z" fill="#DCDCE5"/>
<path d="M64.6807 100.424L64.3936 100.265V94.5682L64.6807 94.7281V100.424Z" fill="white"/>
<path d="M59.1972 97.4662L58.9101 97.3063V91.6108L59.1972 91.7707V97.4662Z" fill="white"/>
<path d="M53.9416 94.5461L53.6545 94.3874V88.6919L53.9416 88.8506V94.5461Z" fill="white"/>
<path d="M69.9357 103.431L69.6486 103.271V97.576L69.9357 97.7359V103.431Z" fill="white"/>
<path d="M52.3489 56.971L53.6328 57.5137L53.7495 126.133L52.4656 127.082L52.3489 56.971Z" fill="#C7C7D3"/>
<path d="M52.4268 125.546L53.6324 124.87L71.4892 135.116L69.9136 135.767L52.4268 125.546Z" fill="#EDEEEF"/>
<path d="M97.8662 46.1824V123.678L90.8822 127.585L90.6488 127.714L87.221 129.632L86.9876 129.763L83.5586 131.68L83.3252 131.811L79.8962 133.728L79.6628 133.858L73.2402 137.45L73.2448 136.067V135.798L73.2658 129.285V129.014L73.2869 122.503V122.232L73.3079 115.719V115.449L73.3289 108.936V108.666L73.3499 102.153V101.884L73.3709 95.3702V95.0994L73.3919 88.5881V88.3174L73.4129 81.8037V81.5341L73.4339 75.0216V74.7509L73.4736 62.1204L79.6628 58.0764L79.8962 57.9235L83.3252 55.6838L83.5586 55.5309L86.9876 53.2901L87.221 53.1383L90.6488 50.8986L90.8822 50.7458L97.8662 46.1824Z" fill="#3F7DDE"/>
<g opacity="0.3">
<path d="M79.8959 57.9234V133.728L79.6625 133.858V58.0763L79.8959 57.9234Z" fill="#B3B3B3"/>
<path d="M83.5584 55.5307V131.68L83.325 131.811V55.6836L83.5584 55.5307Z" fill="#B3B3B3"/>
<path d="M87.2209 53.1382V129.632L86.9875 129.762V53.29L87.2209 53.1382Z" fill="#B3B3B3"/>
<path d="M90.8822 50.7457V127.585L90.6487 127.714V50.8986L90.8822 50.7457Z" fill="#B3B3B3"/>
</g>
<g opacity="0.3">
<path d="M97.8661 60.6172V60.8868L90.8821 64.9273L90.6486 65.0627L87.2208 67.0456L86.9874 67.1798L83.5585 69.1639L83.325 69.2993L79.8961 71.2822L79.6626 71.4176L73.4338 75.0216V74.7509L79.6626 71.148L79.8961 71.0126L83.325 69.0297L83.5585 68.8943L86.9874 66.9114L87.2208 66.776L90.6486 64.7931L90.8821 64.6577L97.8661 60.6172Z" fill="#B3B3B3"/>
</g>
<g opacity="0.3">
<path d="M97.8659 67.3875V67.6571L90.8819 71.6976L90.6485 71.833L87.2207 73.8159L86.9873 73.9501L83.5583 75.9342L83.3249 76.0696L79.8959 78.0525L79.6625 78.1879L73.4126 81.8036V81.534L79.6625 77.9183L79.8959 77.7841L83.3249 75.8L83.5583 75.6646L86.9873 73.6817L87.2207 73.5463L90.6485 71.5634L90.8819 71.428L97.8659 67.3875Z" fill="#B3B3B3"/>
</g>
<g opacity="0.3">
<path d="M97.8664 74.1591V74.4287L90.8824 78.468L90.649 78.6034L87.2212 80.5863L86.9878 80.7217L83.5588 82.7058L83.3254 82.84L79.8964 84.8241L79.663 84.9595L73.3921 88.588V88.3173L79.663 84.6899L79.8964 84.5545L83.3254 82.5716L83.5588 82.4362L86.9878 80.4521L87.2212 80.3167L90.649 78.3338L90.8824 78.1996L97.8664 74.1591Z" fill="#B3B3B3"/>
</g>
<g opacity="0.3">
<path d="M97.8662 80.9294V81.199L90.8822 85.2395L90.6488 85.3749L87.221 87.3578L86.9876 87.492L83.5586 89.4761L83.3252 89.6115L79.8962 91.5944L79.6628 91.7298L73.3709 95.37V95.0993L79.6628 91.4602L79.8962 91.3248L83.3252 89.3419L83.5586 89.2065L86.9876 87.2224L87.221 87.0882L90.6488 85.1053L90.8822 84.9699L97.8662 80.9294Z" fill="#B3B3B3"/>
</g>
<g opacity="0.3">
<path d="M97.866 87.6997V87.9693L90.8821 92.0098L90.6486 92.1452L87.2208 94.1281L86.9874 94.2635L83.5584 96.2464L83.325 96.3818L79.896 98.3659L79.6626 98.5013L73.3497 102.153V101.884L79.6626 98.2317L79.896 98.0963L83.325 96.1122L83.5584 95.978L86.9874 93.9939L87.2208 93.8585L90.6486 91.8756L90.8821 91.7402L97.866 87.6997Z" fill="#B3B3B3"/>
</g>
<g opacity="0.3">
<path d="M97.8659 94.4702V94.7398L90.8819 98.7803L90.6485 98.9157L87.2207 100.899L86.9872 101.034L83.5583 103.017L83.3248 103.152L79.8959 105.136L79.6625 105.272L73.3286 108.935V108.666L79.6625 105.002L79.8959 104.867L83.3248 102.883L83.5583 102.748L86.9872 100.764L87.2207 100.629L90.6485 98.6461L90.8819 98.5107L97.8659 94.4702Z" fill="#B3B3B3"/>
</g>
<g opacity="0.3">
<path d="M97.8664 101.242V101.511L90.8824 105.552L90.649 105.687L87.2212 107.67L86.9877 107.804L83.5588 109.789L83.3253 109.924L79.8964 111.907L79.663 112.042L73.308 115.719V115.449L79.663 111.773L79.8964 111.638L83.3253 109.654L83.5588 109.519L86.9877 107.536L87.2212 107.401L90.649 105.418L90.8824 105.282L97.8664 101.242Z" fill="#B3B3B3"/>
</g>
<g opacity="0.3">
<path d="M97.8662 108.012V108.282L90.8822 112.322L90.6488 112.458L87.221 114.441L86.9876 114.576L83.5586 116.56L83.3252 116.694L79.8962 118.678L79.6628 118.814L73.2869 122.503V122.232L79.6628 118.544L79.8962 118.409L83.3252 116.425L83.5586 116.291L86.9876 114.306L87.221 114.171L90.6488 112.188L90.8822 112.053L97.8662 108.012Z" fill="#B3B3B3"/>
</g>
<g opacity="0.3">
<path d="M97.866 114.784V115.054L90.882 119.094L90.6486 119.228L87.2208 121.212L86.9874 121.347L83.5584 123.331L83.325 123.466L79.896 125.449L79.6626 125.584L73.2657 129.285V129.015L79.6626 125.315L79.896 125.179L83.325 123.196L83.5584 123.061L86.9874 121.077L87.2208 120.943L90.6486 118.959L90.882 118.825L97.866 114.784Z" fill="#B3B3B3"/>
</g>
<g opacity="0.3">
<path d="M97.8659 121.554V121.824L90.8819 125.864L90.6484 125.999L87.2206 127.982L86.9872 128.117L83.5583 130.101L83.3248 130.235L79.8959 132.219L79.6624 132.355L73.2445 136.067V135.798L79.6624 132.085L79.8959 131.95L83.3248 129.967L83.5583 129.831L86.9872 127.847L87.2206 127.713L90.6484 125.73L90.8819 125.595L97.8659 121.554Z" fill="#B3B3B3"/>
</g>
<path d="M97.8965 124.26L94.3648 126.585V57.1415L97.8661 55.0979V55.1574L97.8696 62.3795V62.5137L97.872 69.7159L97.8731 69.982L97.8755 77.1831V77.4492L97.879 84.6514V84.9164L97.8825 92.1186V92.3847L97.886 99.5858V99.8519L97.8895 107.054V107.32L97.8918 114.521V114.787L97.8953 121.99V122.256L97.8965 124.26Z" fill="#CCCCCC"/>
<path d="M97.8953 121.989V122.256L94.3648 124.221V123.955L97.8953 121.989Z" fill="#B3B3B3"/>
<path d="M97.9268 62.482L97.8696 62.5135L94.3648 64.4649V64.1977L97.8124 62.2789L97.8696 62.3793V62.3805L97.9268 62.482Z" fill="#B3B3B3"/>
<path d="M97.8731 69.9819L94.3648 71.9345V71.6684L97.872 69.7159L97.8731 69.9819Z" fill="#B3B3B3"/>
<path d="M97.8755 77.1831V77.4492L94.3648 79.4041V79.138L97.8755 77.1831Z" fill="#B3B3B3"/>
<path d="M97.8825 92.1185V92.3846L94.3648 94.343V94.0769L97.8825 92.1185Z" fill="#B3B3B3"/>
<path d="M97.886 99.5858V99.8519L94.3648 101.813V101.546L97.886 99.5858Z" fill="#B3B3B3"/>
<path d="M97.8895 107.054V107.32L94.3648 109.282V109.016L97.8895 107.054Z" fill="#B3B3B3"/>
<path d="M97.8918 114.521V114.787L94.3648 116.752V116.485L97.8918 114.521Z" fill="#B3B3B3"/>
<path d="M92.885 94.3768L76.8093 103.683V97.9727L92.885 88.6673V94.3768Z" fill="#999999"/>
<path d="M92.885 89.1937L76.8093 98.5002V98.1489L92.885 88.8424V89.1937Z" fill="#DCDCE5"/>
<path d="M92.885 89.8089L76.8093 99.1155V98.7642L92.885 89.4576V89.8089Z" fill="#DCDCE5"/>
<path d="M92.885 90.4239L76.8093 99.7304V99.3791L92.885 90.0726V90.4239Z" fill="#DCDCE5"/>
<path d="M92.885 91.039L76.8093 100.346V99.9942L92.885 90.6877V91.039Z" fill="#DCDCE5"/>
<path d="M92.885 91.6541L76.8093 100.961V100.608L92.885 91.3028V91.6541Z" fill="#DCDCE5"/>
<path d="M92.885 92.269L76.8093 101.576V101.223L92.885 91.9177V92.269Z" fill="#DCDCE5"/>
<path d="M92.885 92.8842L76.8093 102.19V101.838L92.885 92.5329V92.8842Z" fill="#DCDCE5"/>
<path d="M92.885 93.4992L76.8093 102.805V102.453L92.885 93.1479V93.4992Z" fill="#DCDCE5"/>
<path d="M92.885 94.1142L76.8093 103.42V103.068L92.885 93.7617V94.1142Z" fill="#DCDCE5"/>
<path d="M87.6677 97.3098L87.3841 97.4731V91.7636L87.6677 91.5991V97.3098Z" fill="white"/>
<path d="M82.2539 100.532L81.9703 100.696V94.985L82.2539 94.8216V100.532Z" fill="white"/>
<path d="M77.0624 103.536L76.7788 103.701V97.9903L77.0624 97.8269V103.536Z" fill="white"/>
<path d="M92.8592 94.392L92.5756 94.5565V88.8459L92.8592 88.6813V94.392Z" fill="white"/>
<path d="M92.8477 56.2194L94.3649 57.0434V127.18L92.9644 126.129L92.8477 56.2194Z" fill="#B3B3B3"/>
<path d="M94.4617 125.393L92.9643 124.495L76.7415 133.858V135.611L94.4617 125.393Z" fill="#C7C7D3"/>
<path d="M73.357 68.8931L73.3441 76.4944V76.7629L73.3324 84.1005V84.1985L73.2963 106.49V106.76L73.2846 114.003L73.2834 114.273L73.2718 121.515V121.785L73.2601 129.027L73.2589 129.297L73.2472 136.539V136.81L73.2402 141.185L69.851 138.862L69.8556 134.859V134.589L69.865 127.345V127.075L69.8731 119.832V119.561L69.8825 112.318V112.047L69.8906 104.803L69.8918 104.533L69.9175 82.407V82.1386L69.9268 74.7975V74.529L69.9362 66.8985L73.1585 68.7507L73.357 68.8931Z" fill="white"/>
<path d="M73.3442 76.4944V76.7629L69.9269 74.7974V74.529L73.3442 76.4944Z" fill="#E6E6E6"/>
<path d="M73.3745 84.125L73.3325 84.1985L73.2578 84.328L69.9175 82.407V82.1385L73.3325 84.1005L73.3745 84.125Z" fill="#E6E6E6"/>
<path d="M73.2964 106.49V106.76L69.8908 104.803L69.892 104.533L73.2964 106.49Z" fill="#E6E6E6"/>
<path d="M73.2842 114.003L73.283 114.273L69.8821 112.318V112.047L73.2842 114.003Z" fill="#E6E6E6"/>
<path d="M73.2714 121.515V121.785L69.8727 119.832V119.561L73.2714 121.515Z" fill="#E6E6E6"/>
<path d="M73.2597 129.027L73.2586 129.297L69.8646 127.345V127.075L73.2597 129.027Z" fill="#E6E6E6"/>
<path d="M73.2469 136.539V136.809L69.8553 134.859V134.588L73.2469 136.539Z" fill="#E6E6E6"/>
<path d="M76.8886 138.692L73.2402 141.185L73.2472 136.654L73.2483 136.387L73.26 129.178V128.911L73.2717 121.701V121.434L73.2834 114.226L73.2845 113.958L73.2962 106.75V106.482L73.3079 99.2731V99.0058L73.3195 91.7966L73.3207 91.5293L73.3324 84.3213V84.0528L73.344 76.8447V76.5775L73.3557 69.3682L73.3569 69.101V68.8932L76.8582 66.4983V67.418L76.8617 74.6191V74.8863L76.8652 82.0862V82.3535L76.8675 89.5546V89.8218L76.8711 97.0217V97.289L76.8745 104.49V104.757L76.8769 111.958V112.225L76.8804 119.426V119.693L76.8839 126.894V127.16L76.8862 134.361L76.8874 134.628L76.8886 138.692Z" fill="#CCCCCC"/>
<path d="M76.8618 74.6188V74.8861L73.3441 76.8445V76.5772L76.8618 74.6188Z" fill="#B3B3B3"/>
<path d="M76.8651 82.0861V82.3534L73.3323 84.3211V84.0527L76.8651 82.0861Z" fill="#B3B3B3"/>
<path d="M76.8672 89.5543V89.8216L73.3192 91.7963L73.3204 91.5291L76.8672 89.5543Z" fill="#B3B3B3"/>
<path d="M76.8712 97.0216V97.2888L73.308 99.2729V99.0057L76.8712 97.0216Z" fill="#B3B3B3"/>
<path d="M76.8746 104.49V104.757L73.2962 106.749V106.482L76.8746 104.49Z" fill="#B3B3B3"/>
<path d="M76.8767 111.958V112.224L73.2831 114.226L73.2843 113.958L76.8767 111.958Z" fill="#B3B3B3"/>
<path d="M76.88 119.425V119.693L73.2713 121.701V121.434L76.88 119.425Z" fill="#B3B3B3"/>
<path d="M76.8839 126.894V127.16L73.2601 129.178V128.911L76.8839 126.894Z" fill="#B3B3B3"/>
<path d="M76.8872 134.628L73.247 136.654L73.2482 136.387L76.8861 134.361L76.8872 134.628Z" fill="#B3B3B3"/>
<path d="M52.4654 126.529L48.8474 124.133L48.8439 122.143V121.874L48.8322 114.617V114.348L48.8205 107.091L48.8194 106.822L48.8077 99.5646V99.2961L48.796 92.039L48.7948 91.7694L48.7598 69.6095V69.3388L48.747 61.9871V61.7164L48.7342 54.0741V53.8057L48.7307 51.5508L52.3487 54.0975L52.351 55.8843L52.3522 56.1539L52.3639 63.7962L52.365 64.0669L52.3767 71.4185V71.6882L52.4129 93.8492V94.1188L52.4246 101.376L52.4257 101.644V101.646L52.4374 108.901V109.171L52.4491 116.428V116.697L52.4607 123.954L52.4619 124.223L52.4654 126.529Z" fill="white"/>
<path d="M52.3518 56.154L48.7338 54.0742V53.8057L52.3506 55.8844L52.3518 56.154Z" fill="#E6E6E6"/>
<path d="M52.3655 64.0672L48.7474 61.9874V61.7166L52.3643 63.7964L52.3655 64.0672Z" fill="#E6E6E6"/>
<path d="M52.3768 71.4187V71.6883L48.7599 69.6097V69.3389L52.3768 71.4187Z" fill="#E6E6E6"/>
<path d="M52.4128 93.8493V94.1189L48.796 92.0391L48.7948 91.7695L52.4128 93.8493Z" fill="#E6E6E6"/>
<path d="M52.4259 101.644L48.8079 99.5647V99.2963L52.4247 101.376L52.4259 101.644Z" fill="#E6E6E6"/>
<path d="M52.4377 108.902V109.171L48.8209 107.091L48.8197 106.822L52.4377 108.902Z" fill="#E6E6E6"/>
<path d="M52.449 116.428V116.697L48.8322 114.617V114.348L52.449 116.428Z" fill="#E6E6E6"/>
<path d="M52.462 124.224L48.8439 122.144V121.874L52.4608 123.954L52.462 124.224Z" fill="#E6E6E6"/>
<path d="M101.251 81.8959L73.3568 98.051L73.2412 98.1187L67.7826 94.9442L67.548 94.8076L63.1889 92.2727L62.9543 92.1361L58.594 89.6L58.3606 89.4646L54.0002 86.9285L53.7656 86.7931L49.4065 84.2569L49.1719 84.1204L45.4628 81.9636V81.8959L46.6253 81.1513L47.7154 80.5164H47.7165L48.3783 80.1312L49.459 79.5021L49.5477 79.4508L52.9568 77.4667L61.4522 82.4386H61.4534L61.4546 82.4398L66.032 85.1194L66.2654 85.256L70.6105 87.7991L70.8451 87.9357L73.2389 89.3374L73.2412 89.3362L73.2424 89.335L93.7765 77.5624L97.1051 79.4916L97.1226 79.5021L98.4111 80.2503L98.8429 80.5L100.205 81.289L101.251 81.8959Z" fill="#EDEEEF"/>
<path d="M55.9658 80.542L49.4066 84.257L49.1721 84.1204L55.8514 80.3378L55.9658 80.542Z" fill="#CCCCCC"/>
<path d="M61.5681 82.6429L54.0005 86.9285L53.7659 86.7931L61.4525 82.4386H61.4537L61.4548 82.4398L61.5681 82.6429Z" fill="#CCCCCC"/>
<path d="M67.1698 84.7435L66.2652 85.2559L58.5938 89.5999L58.3604 89.4645L66.0318 85.1193L67.0554 84.5393L67.1698 84.7435Z" fill="#CCCCCC"/>
<path d="M70.8451 87.9356L63.1888 92.2725L62.9542 92.136L70.6105 87.799L70.8451 87.9356Z" fill="#CCCCCC"/>
<path d="M78.3742 88.9452L67.7827 94.9441L67.5481 94.8076L78.2598 88.7409L78.3742 88.9452Z" fill="#CCCCCC"/>
<path d="M101.25 81.8958L96.6591 84.5276L96.5424 84.5941L96.4257 84.6618L92.1435 87.1162L92.0257 87.1839L91.9101 87.2505L87.628 89.7049L87.5101 89.7726L87.3934 89.8391L83.1113 92.2935L82.9946 92.3612L82.8778 92.4277L78.5957 94.8822L78.4778 94.9499L78.3611 95.0164L73.3566 97.8852V89.2485L93.7763 77.5623L97.1049 79.4915L97.1224 79.502L98.4109 80.2501L98.8427 80.4999L100.205 81.2889L101.25 81.8958Z" fill="#C7C7D3"/>
<path d="M96.6596 84.5277L96.5429 84.5942L96.4262 84.6619L92.4965 82.3394L92.556 82.239L92.6156 82.1375L96.6596 84.5277Z" fill="#B3B3B3"/>
<path d="M92.1437 87.1164L92.0258 87.1841L91.9102 87.2507L87.9444 84.9071L88.0039 84.8067L88.0634 84.7052L92.1437 87.1164Z" fill="#B3B3B3"/>
<path d="M87.6283 89.7049L87.5104 89.7726L87.3937 89.8391L83.3928 87.4745L83.4523 87.3742L83.5119 87.2726L87.6283 89.7049Z" fill="#B3B3B3"/>
<path d="M83.1118 92.2936L82.995 92.3613L82.8783 92.4278L78.8413 90.0423L78.9008 89.9419L78.9604 89.8404L83.1118 92.2936Z" fill="#B3B3B3"/>
<path d="M78.5958 94.8824L78.4779 94.9501L78.3612 95.0166L74.2892 92.61L74.3487 92.5096L74.4082 92.4081L78.5958 94.8824Z" fill="#B3B3B3"/>
<path d="M73.3568 97.8735V100.103L69.8333 98.0684L67.9729 96.9947L67.7395 96.8593L63.3628 94.3336L63.1294 94.1983L58.7527 91.6726L58.5193 91.5372L54.1426 89.0116L53.9092 88.8762L49.5325 86.3506L49.2991 86.2152L45.4628 84.0012V81.8958L49.2991 84.0934L49.5325 84.2265L53.9092 86.7334L54.1426 86.8676L58.5193 89.3746L58.7527 89.5088L63.1294 92.0158L63.3628 92.1488L67.7395 94.6558L67.9729 94.79L73.3568 97.8735Z" fill="white"/>
<path d="M49.5325 84.2266V86.3507L49.2991 86.2153V84.0935L49.5325 84.2266Z" fill="#CCCCCC"/>
<path d="M54.1425 86.8677V89.0117L53.9091 88.8763V86.7335L54.1425 86.8677Z" fill="#CCCCCC"/>
<path d="M58.7526 89.5089V91.6727L58.5192 91.5373V89.3747L58.7526 89.5089Z" fill="#CCCCCC"/>
<path d="M63.3626 92.1488V94.3336L63.1292 94.1982V92.0157L63.3626 92.1488Z" fill="#CCCCCC"/>
<path d="M67.9733 94.7901V96.9947L67.7399 96.8593V94.6559L67.9733 94.7901Z" fill="#CCCCCC"/>
<path d="M101.25 81.8958V83.8915L96.6988 86.5374L96.4653 86.6727L92.1762 89.1657L91.9428 89.3011L87.6537 91.794L87.4202 91.9294L83.1311 94.4223L82.8977 94.5577L78.6086 97.0507L78.3775 97.1849L73.3566 100.103V97.8852L78.3751 95.0082L78.6086 94.8752L82.8977 92.4161L83.1311 92.2819L87.4202 89.8239L87.6537 89.6897L91.9428 87.2306L92.1762 87.0976L96.4653 84.6385L96.6988 84.5054L101.25 81.8958Z" fill="#DDDDDD"/>
<path d="M96.6988 84.5054V86.5373L96.4653 86.6727V84.6384L96.6988 84.5054Z" fill="#B3B3B3"/>
<path d="M92.1765 87.0978V89.166L91.9431 89.3013V87.2309L92.1765 87.0978Z" fill="#B3B3B3"/>
<path d="M87.6542 89.6899V91.7942L87.4208 91.9295V89.8241L87.6542 89.6899Z" fill="#B3B3B3"/>
<path d="M83.1313 92.282V94.4225L82.8979 94.5579V92.4163L83.1313 92.282Z" fill="#B3B3B3"/>
<path d="M78.6084 94.8752V97.0506L78.3773 97.1849H78.375V95.0082L78.6084 94.8752Z" fill="#B3B3B3"/>
<path d="M46.6252 79.0947V81.2025L73.3567 96.8348V94.8507L46.6252 79.0947Z" fill="#CCCCCC"/>
<path d="M100.205 79.2116V81.4151L73.3566 96.8349V94.754L100.205 79.2116Z" fill="#B3B3B3"/>
<path d="M101.25 77.1105L97.1218 79.5019L96.9491 79.6011L96.7157 79.7342L92.4289 82.1875L92.1954 82.3205L87.9086 84.7738L87.6752 84.9068L83.3884 87.3601L83.155 87.4931L78.8682 89.9464L78.6348 90.0794L73.356 93.0999V89.2485L75.3237 88.1222L75.5571 87.9892L76.206 87.618L76.3566 87.5316L76.6239 87.3788V87.3764L76.8608 87.2387V85.5102L78.3559 84.6571L78.5893 84.524L82.8842 82.0754L83.1177 81.9424L87.4126 79.4938L87.6461 79.3607L91.941 76.9121L92.1744 76.7791L92.8222 76.4103L94.2822 77.2716L97.926 75.1836L101.25 77.1105Z" fill="#C7C7D3"/>
<path d="M73.3568 89.2486V93.1001L68.0126 90.0597L67.7756 89.9244L63.3675 87.4162L63.1305 87.282L58.7224 84.7739L58.4866 84.6385L54.0773 82.1304L53.8415 81.9962L49.4578 79.5021L49.4333 79.4881L49.1987 79.3515L45.4628 77.1784V77.1107L48.8568 75.067L52.3324 77.1013L53.5229 76.4349L53.9337 76.6695L54.1695 76.8049L58.5625 79.3223L58.7982 79.4565L63.1912 81.974L63.427 82.1082L67.8212 84.6257L68.0569 84.7611L69.9033 85.8185L69.9044 87.2552L71.1848 87.994L71.4193 88.1293L73.3568 89.2486Z" fill="#EDEEEF"/>
<path d="M54.1695 76.8049L49.4334 79.4881L49.1988 79.3515L53.9338 76.6695L54.1695 76.8049Z" fill="#CCCCCC"/>
<path d="M58.798 79.4564L54.077 82.1303L53.8412 81.9961L58.5622 79.3222L58.798 79.4564Z" fill="#CCCCCC"/>
<path d="M63.4271 82.1081L58.7225 84.7738L58.4868 84.6384L63.1914 81.9739L63.4271 82.1081Z" fill="#CCCCCC"/>
<path d="M68.0568 84.7611L63.3674 87.4162L63.1304 87.282L67.821 84.6257L68.0568 84.7611Z" fill="#CCCCCC"/>
<path d="M71.4197 88.1294L68.0129 90.0598L67.7759 89.9244L71.1851 87.994L71.4197 88.1294Z" fill="#CCCCCC"/>
<path d="M96.9499 79.6013L96.7165 79.7344L91.9418 76.9123L92.1753 76.7792L96.9499 79.6013Z" fill="#B3B3B3"/>
<path d="M92.4296 82.1876L92.1961 82.3206L87.4133 79.4939L87.6468 79.3608L92.4296 82.1876Z" fill="#B3B3B3"/>
<path d="M87.9092 84.774L87.6758 84.9071L82.8848 82.0756L83.1182 81.9426L87.9092 84.774Z" fill="#B3B3B3"/>
<path d="M83.3896 87.3603L83.1561 87.4933L78.357 84.6572L78.5904 84.5242L83.3896 87.3603Z" fill="#B3B3B3"/>
<path d="M78.869 89.9466L78.6356 90.0796L75.3245 88.1224L75.5579 87.9893L78.869 89.9466Z" fill="#B3B3B3"/>
<path d="M73.3568 93.0885V95.3177L67.9881 92.219L67.7546 92.0836L63.378 89.558L63.1445 89.4226L58.7679 86.897L58.5345 86.7616L54.1578 84.2348L53.9244 84.1006L49.5477 81.5738L49.3143 81.4396L45.4628 79.2162V77.1107L49.3143 79.3166L49.5477 79.4508L53.9244 81.9578L54.1578 82.0908L58.5345 84.5978L58.7679 84.732L63.1445 87.2389L63.378 87.3731L67.7546 89.8801L67.9881 90.0131L73.3568 93.0885Z" fill="white"/>
<path d="M49.5474 79.4507V81.5737L49.314 81.4395V79.3165L49.5474 79.4507Z" fill="#CCCCCC"/>
<path d="M54.1581 82.0907V84.2347L53.9247 84.1005V81.9577L54.1581 82.0907Z" fill="#CCCCCC"/>
<path d="M58.7675 84.7319V86.8969L58.5341 86.7615V84.5977L58.7675 84.7319Z" fill="#CCCCCC"/>
<path d="M63.3782 87.3731V89.5579L63.1448 89.4225V87.2389L63.3782 87.3731Z" fill="#CCCCCC"/>
<path d="M67.9882 90.013V92.2188L67.7548 92.0834V89.8799L67.9882 90.013Z" fill="#CCCCCC"/>
<path d="M73.3566 95.3177L101.25 79.1065V77.1107L73.3566 93.1002V95.3177Z" fill="#DDDDDD"/>
<path d="M96.9322 79.5616H96.6988V82.03H96.9322V79.5616Z" fill="#B3B3B3"/>
<path d="M92.4099 82.1538H92.1765V84.6222H92.4099V82.1538Z" fill="#B3B3B3"/>
<path d="M87.887 84.7458H87.6536V87.2143H87.887V84.7458Z" fill="#B3B3B3"/>
<path d="M83.3648 87.3392H83.1313V89.8077H83.3648V87.3392Z" fill="#B3B3B3"/>
<path d="M78.8419 89.9313H78.6085V92.3997H78.8419V89.9313Z" fill="#B3B3B3"/>
<path d="M101.251 130.097L73.3571 146.253L73.2404 146.32L45.4631 130.165L45.3464 130.097L46.6256 129.353L47.7157 128.718H47.7168L48.3786 128.333L49.4582 127.704L49.548 127.652L52.9572 125.668L73.238 137.539L73.2404 137.538L73.2415 137.537L93.7768 125.764L97.1054 127.693L97.1229 127.704L98.4114 128.452L98.8433 128.702L100.205 129.491L101.251 130.097Z" fill="#EDEEEF"/>
<path d="M101.251 130.098L73.3569 146.253L73.2402 146.32V141.224L73.2413 137.537L93.7766 125.764L97.1052 127.693L97.1227 127.704L98.4112 128.452L98.8431 128.702L100.205 129.491L101.251 130.098Z" fill="#C7C7D3"/>
<path d="M45.4628 130.098V132.203L69.8333 146.27L73.3568 148.304V146.075L45.4628 130.098Z" fill="white"/>
<path d="M73.2402 148.304L101.251 132.093V130.098L73.2402 146.009V148.304Z" fill="#DDDDDD"/>
<path d="M46.6252 127.296V129.404L73.24 145.153V143.028L46.6252 127.296Z" fill="#CCCCCC"/>
<path d="M100.205 127.413V129.617L73.2402 145.153L73.2472 143.286L100.205 127.413Z" fill="#B3B3B3"/>
<path d="M101.251 125.312L97.1229 127.704L73.3571 141.468L73.2404 141.535L49.4582 127.704L45.4631 125.38L45.3464 125.312L48.8583 123.269L52.9572 125.668L73.238 137.539L73.2404 137.538L73.2415 137.537L93.7768 125.764L97.9271 123.386L101.251 125.312Z" fill="#EDEEEF"/>
<path d="M101.251 125.312L97.1227 127.704L73.3569 141.467L73.2402 141.535V137.538L73.2413 137.537L93.7766 125.764L97.9269 123.385L101.251 125.312Z" fill="#C7C7D3"/>
<path d="M45.4628 125.312V127.418L73.24 143.519L73.3568 141.29L45.4628 125.312Z" fill="white"/>
<path d="M73.2402 143.519L101.251 127.308V125.312L73.2402 141.224V143.519Z" fill="#DDDDDD"/>
<path d="M85.391 65.9578L84.0546 66.7351V64.0648L85.391 63.2875V65.9578Z" fill="white"/>
<path d="M84.7637 66.323L84.6797 66.3709V63.7005L84.7637 63.6515V66.323Z" fill="#DCDCE5"/>
<path d="M85.391 79.5253L84.0546 80.3026V77.6311L85.391 76.8538V79.5253Z" fill="white"/>
<path d="M84.7637 79.8896L84.6797 79.9374V77.2671L84.7637 77.2192V79.8896Z" fill="#DCDCE5"/>
<path d="M89.0183 70.1279V68.4193L91.1074 67.2043V68.9141L89.0183 70.1279Z" fill="white"/>
<path d="M89.0183 69.3273V69.2199L91.1074 68.0061V68.1124L89.0183 69.3273Z" fill="#DCDCE5"/>
<path d="M78.4105 76.2984V74.5886L80.4985 73.3748V75.0834L78.4105 76.2984Z" fill="white"/>
<path d="M78.4105 75.4966V75.3903L80.4985 74.1754V74.2828L78.4105 75.4966Z" fill="#DCDCE5"/>
<path d="M82.954 67.838L82.2304 68.7927L81.1859 67.0876L81.9095 66.1329L82.954 67.838Z" fill="white"/>
<path d="M81.2419 70.6322L80.8241 71.8005L79.0162 71.5169L79.4329 70.3498L81.2419 70.6322Z" fill="white"/>
<path d="M80.8241 76.324L81.2419 77.0056L79.4329 79.3923L79.0162 78.7107L80.8241 76.324Z" fill="white"/>
<path d="M82.2305 77.6953L82.9541 77.8085L81.9096 80.7287L81.1871 80.6154L82.2305 77.6953Z" fill="white"/>
<path d="M86.4901 75.7522L87.2137 74.7975L88.2582 76.5026L87.5346 77.4573L86.4901 75.7522Z" fill="white"/>
<path d="M88.2021 72.9569L88.6199 71.7887L90.4289 72.0723L90.0111 73.2406L88.2021 72.9569Z" fill="white"/>
<path d="M88.6199 67.2661L88.2021 66.5845L90.0111 64.1966L90.4289 64.8793L88.6199 67.2661Z" fill="white"/>
<path d="M87.2137 65.8948L86.4901 65.7816L87.5346 62.8615L88.2582 62.9747L87.2137 65.8948Z" fill="white"/>
<path d="M83.8884 70.8912L84.8069 70.3566L84.6541 75.5736L84.1183 75.8852C84.0413 74.2198 83.9655 72.5555 83.8884 70.8912Z" fill="#999999"/>
<path d="M84.1349 70.4698L85.0535 69.9353L84.9006 75.1523L84.3649 75.4639C84.289 73.7996 84.212 72.1341 84.1349 70.4698Z" fill="white"/>
<path d="M83.627 73.0667L83.5628 71.9322C84.8991 71.1001 86.2367 70.2679 87.573 69.437C87.5858 69.6575 87.5975 69.8781 87.6103 70.0987C86.2833 71.0872 84.9552 72.077 83.627 73.0667Z" fill="#999999"/>
<path d="M83.7908 72.6721L83.7266 71.5377C85.0629 70.7055 86.4004 69.8734 87.7368 69.0424C87.7496 69.263 87.7613 69.4836 87.7741 69.7042C86.4471 70.6927 85.1189 71.6824 83.7908 72.6721Z" fill="white"/>
<path d="M62.7514 66.8845L61.3182 66.1142L61.3007 63.4182L62.7328 64.1897L62.7514 66.8845Z" fill="white"/>
<path d="M62.0786 66.5238L61.9888 66.4748L61.9713 63.7799L62.0611 63.8278L62.0786 66.5238Z" fill="#DCDCE5"/>
<path d="M62.8411 80.5759L61.4079 79.8056L61.3904 77.1107L62.8224 77.881L62.8411 80.5759Z" fill="white"/>
<path d="M62.1689 80.2153L62.079 80.1674L62.0615 77.4714L62.1514 77.5204L62.1689 80.2153Z" fill="#DCDCE5"/>
<path d="M66.6832 75.3157L66.6716 73.5907L68.9101 74.7951L68.9218 76.5201L66.6832 75.3157Z" fill="white"/>
<path d="M66.6777 74.5069L66.6765 74.3995L68.9162 75.604L68.9174 75.7113L66.6777 74.5069Z" fill="#DCDCE5"/>
<path d="M55.3073 69.1965L55.2968 67.4715L57.5353 68.676L57.5469 70.401L55.3073 69.1965Z" fill="white"/>
<path d="M55.3029 68.3876L55.3018 68.2802L57.5414 69.4847V69.5921L55.3029 68.3876Z" fill="#DCDCE5"/>
<path d="M60.1417 65.9461L59.3691 66.0686L58.2346 63.1322L59.0061 63.0096L60.1417 65.9461Z" fill="white"/>
<path d="M58.3177 66.7736L57.8753 67.4668L55.9274 65.0754L56.3698 64.3833L58.3177 66.7736Z" fill="white"/>
<path d="M57.9057 72.0313L58.3597 73.2054L56.4293 73.51L55.9753 72.3359L57.9057 72.0313Z" fill="white"/>
<path d="M59.4283 75.052L60.2068 76.009L59.1027 77.741L58.3231 76.784L59.4283 75.052Z" fill="white"/>
<path d="M63.9989 78.049L64.7715 77.9265L65.906 80.8629L65.1345 80.9855L63.9989 78.049Z" fill="white"/>
<path d="M65.823 77.2216L66.2653 76.5284L68.2132 78.9198L67.7709 79.6119L65.823 77.2216Z" fill="white"/>
<path d="M66.2353 71.9637L65.7813 70.7896L67.7117 70.485L68.1657 71.6591L66.2353 71.9637Z" fill="white"/>
<path d="M64.712 68.9431L63.9335 67.9861L65.0376 66.2541L65.8172 67.2112L64.712 68.9431Z" fill="white"/>
<path d="M61.1675 70.1151L62.1525 70.6449C62.1093 72.3407 62.0662 74.0354 62.0218 75.7312C61.8304 75.6285 61.639 75.5246 61.4476 75.4219C61.3542 73.6537 61.2608 71.8844 61.1675 70.1151Z" fill="#999999"/>
<path d="M61.4302 69.9773L62.4153 70.5072C62.3721 72.203 62.3289 73.8976 62.2846 75.5935C62.0932 75.4908 61.9017 75.3869 61.7103 75.2842C61.617 73.516 61.5236 71.7467 61.4302 69.9773Z" fill="white"/>
<path d="M60.9015 72.0069L60.8245 70.7873C62.2577 71.5039 63.6909 72.2193 65.1241 72.9359L65.1684 73.6479C63.7457 73.1005 62.323 72.5531 60.9015 72.0069Z" fill="#999999"/>
<path d="M61.074 71.7991L60.9969 70.5795C62.4302 71.2961 63.8634 72.0115 65.2966 72.7282C65.3118 72.9651 65.3269 73.2032 65.3409 73.4401C63.9182 72.8915 62.4967 72.3453 61.074 71.7991Z" fill="white"/>
<path d="M73.9404 5.74311C73.9404 6.00688 73.7956 6.2333 73.5902 6.33134V24.3573H73.1234V6.33134C72.918 6.2333 72.7733 6.00688 72.7733 5.74311C72.7733 5.38831 73.0347 5.10004 73.3568 5.10004C73.6789 5.10004 73.9404 5.38831 73.9404 5.74311Z" fill="#DCDCE5"/>
<path d="M101.111 51.2055L73.2167 67.3606L73.1011 67.4283L67.6426 64.2537L67.408 64.1172L63.0488 61.5822L62.8142 61.4457L58.4539 58.9095L58.2205 58.7742L53.8602 56.238L53.6256 56.1026L49.2664 53.5665L49.0318 53.43L45.3228 51.2731V51.2055L46.4852 50.4608L47.5753 49.8259H47.5764L48.2382 49.4408L49.3189 48.8117L49.4076 48.7604L52.8168 46.7763L61.3122 51.7482H61.3133L61.3145 51.7493L65.8919 54.429L66.1253 54.5656L70.4705 57.1087L70.7051 57.2452L73.0988 58.6469L73.1011 58.6458L73.1023 58.6446L93.6364 46.872L96.965 48.8012L96.9825 48.8117L98.271 49.5598L98.7029 49.8096L100.065 50.5986L101.111 51.2055Z" fill="#EDEEEF"/>
<path d="M55.8257 49.8516L49.2666 53.5665L49.032 53.43L55.7114 49.6474L55.8257 49.8516Z" fill="#CCCCCC"/>
<path d="M61.428 51.9524L53.8604 56.2381L53.6259 56.1027L61.3124 51.7482H61.3136L61.3148 51.7493L61.428 51.9524Z" fill="#CCCCCC"/>
<path d="M67.0303 54.0533L66.1258 54.5656L58.4544 58.9096L58.2209 58.7742L65.8924 54.4291L66.9159 53.849L67.0303 54.0533Z" fill="#CCCCCC"/>
<path d="M70.705 57.2453L63.0487 61.5823L62.8141 61.4457L70.4704 57.1087L70.705 57.2453Z" fill="#CCCCCC"/>
<path d="M78.2341 58.2548L67.6426 64.2537L67.408 64.1171L78.1198 58.0505L78.2341 58.2548Z" fill="#CCCCCC"/>
<path d="M101.111 51.2055L96.5196 53.8373L96.4029 53.9038L96.2862 53.9715L92.0041 56.426L91.8862 56.4936L91.7706 56.5602L87.4885 59.0146L87.3706 59.0823L87.2539 59.1488L82.9718 61.6033L82.8551 61.6709L82.7384 61.7375L78.4563 64.1919L78.3384 64.2596L78.2217 64.3261L73.2171 67.1949V58.5583L93.6369 46.872L96.9655 48.8012L96.983 48.8117L98.2714 49.5598L98.7033 49.8096L100.065 50.5986L101.111 51.2055Z" fill="#C7C7D3"/>
<path d="M96.5189 53.8373L96.4022 53.9038L96.2855 53.9715L92.3558 51.6489L92.4154 51.5486L92.4749 51.447L96.5189 53.8373Z" fill="#B3B3B3"/>
<path d="M92.0036 56.426L91.8857 56.4937L91.7702 56.5602L87.8043 54.2167L87.8638 54.1163L87.9234 54.0148L92.0036 56.426Z" fill="#B3B3B3"/>
<path d="M87.4882 59.0148L87.3703 59.0825L87.2536 59.149L83.2527 56.7844L83.3123 56.6841L83.3718 56.5825L87.4882 59.0148Z" fill="#B3B3B3"/>
<path d="M82.9717 61.6032L82.855 61.6709L82.7383 61.7374L78.7012 59.3519L78.7608 59.2515L78.8203 59.1499L82.9717 61.6032Z" fill="#B3B3B3"/>
<path d="M78.4557 64.192L78.3379 64.2597L78.2212 64.3262L74.1491 61.9196L74.2086 61.8192L74.2682 61.7177L78.4557 64.192Z" fill="#B3B3B3"/>
<path d="M73.2167 67.1832V69.4124L69.6932 67.3781L67.8328 66.3044L67.5994 66.169L63.2227 63.6434L62.9893 63.508L58.6126 60.9824L58.3792 60.847L54.0025 58.3213L53.7691 58.186L49.3925 55.6603L49.159 55.5249L45.3228 53.3109V51.2055L49.159 53.4031L49.3925 53.5362L53.7691 56.0431L54.0025 56.1774L58.3792 58.6843L58.6126 58.8185L62.9893 61.3255L63.2227 61.4585L67.5994 63.9655L67.8328 64.0997L73.2167 67.1832Z" fill="white"/>
<path d="M49.3924 53.5363V55.6604L49.159 55.5251V53.4033L49.3924 53.5363Z" fill="#CCCCCC"/>
<path d="M54.0025 56.1773V58.3213L53.769 58.1859V56.0431L54.0025 56.1773Z" fill="#CCCCCC"/>
<path d="M58.6125 58.8186V60.9825L58.3791 60.8471V58.6844L58.6125 58.8186Z" fill="#CCCCCC"/>
<path d="M63.2226 61.4585V63.6433L62.9891 63.508V61.3255L63.2226 61.4585Z" fill="#CCCCCC"/>
<path d="M67.8332 64.0997V66.3043L67.5998 66.1689V63.9654L67.8332 64.0997Z" fill="#CCCCCC"/>
<path d="M101.111 51.2055V53.2012L96.5593 55.8471L96.3259 55.9825L92.0367 58.4754L91.8033 58.6108L87.5142 61.1037L87.2808 61.2391L82.9916 63.7321L82.7582 63.8674L78.4691 66.3604L78.238 66.4946L73.2171 69.4124V67.1949L78.2357 64.318L78.4691 64.1849L82.7582 61.7258L82.9916 61.5916L87.2808 59.1337L87.5142 58.9994L91.8033 56.5403L92.0367 56.4073L96.3259 53.9482L96.5593 53.8151L101.111 51.2055Z" fill="#DDDDDD"/>
<path d="M96.5587 53.8152V55.8472L96.3253 55.9826V53.9483L96.5587 53.8152Z" fill="#B3B3B3"/>
<path d="M92.0364 56.4073V58.4754L91.803 58.6108V56.5403L92.0364 56.4073Z" fill="#B3B3B3"/>
<path d="M87.5135 58.9994V61.1037L87.2801 61.2391V59.1336L87.5135 58.9994Z" fill="#B3B3B3"/>
<path d="M82.9912 61.5916V63.7321L82.7578 63.8675V61.7258L82.9912 61.5916Z" fill="#B3B3B3"/>
<path d="M78.4683 64.185V66.3605L78.2373 66.4948H78.2349V64.3181L78.4683 64.185Z" fill="#B3B3B3"/>
<path d="M46.4844 48.4044V50.5134L73.2171 66.1445V64.1604L46.4844 48.4044Z" fill="#CCCCCC"/>
<path d="M100.065 48.5211V50.7247L73.2171 66.1445V64.0647L100.065 48.5211Z" fill="#B3B3B3"/>
<path d="M73.2167 58.5583V62.4098L67.8725 59.3695L67.6356 59.2341L63.2274 56.726L62.9905 56.5918L58.5823 54.0836L58.3465 53.9482L53.9372 51.4401L53.7014 51.3059L49.3178 48.8118L49.2933 48.7978L49.0587 48.6612L45.3228 46.4881V46.4204L48.7167 44.3768L52.1924 46.4111L53.3828 45.7446L53.7936 45.9792L54.0294 46.1146L58.4224 48.6321L58.6582 48.7663L63.0512 51.2837L63.2869 51.418L67.6811 53.9354L67.9168 54.0708L69.7632 55.1282L69.7644 56.5649L71.0447 57.3037L71.2793 57.4391L73.2167 58.5583Z" fill="#EDEEEF"/>
<path d="M54.0294 46.1145L49.2933 48.7977L49.0587 48.6611L53.7937 45.9791L54.0294 46.1145Z" fill="#CCCCCC"/>
<path d="M58.6585 48.7662L53.9375 51.44L53.7018 51.3058L58.4227 48.632L58.6585 48.7662Z" fill="#CCCCCC"/>
<path d="M63.2871 51.418L58.5824 54.0836L58.3467 53.9483L63.0513 51.2838L63.2871 51.418Z" fill="#CCCCCC"/>
<path d="M67.9167 54.0708L63.2273 56.726L62.9904 56.5917L67.681 53.9354L67.9167 54.0708Z" fill="#CCCCCC"/>
<path d="M71.2796 57.4391L67.8728 59.3695L67.6359 59.2341L71.045 57.3037L71.2796 57.4391Z" fill="#CCCCCC"/>
<path d="M101.111 46.4203L96.983 48.8117L96.8102 48.9109L96.5768 49.044L92.29 51.4972L92.0566 51.6303L87.7698 54.0836L87.5364 54.2166L83.2496 56.6699L83.0162 56.8029L78.7294 59.2562L78.4959 59.3892L73.2171 62.4097V58.5583L75.1848 57.432L75.4183 57.2989L76.485 56.6885V54.9542L78.217 53.9668L78.4504 53.8338L82.7454 51.3852L82.9788 51.2521L87.2738 48.8035L87.5072 48.6705L91.8022 46.2219L92.0356 46.0889L92.6833 45.72L94.1434 46.5814L90.5639 39.5367L101.111 46.4203Z" fill="#C7C7D3"/>
<path d="M96.8098 48.911L96.5764 49.0441L91.8018 46.222L92.0352 46.089L96.8098 48.911Z" fill="#B3B3B3"/>
<path d="M92.2895 51.4973L92.0561 51.6304L87.2733 48.8036L87.5067 48.6706L92.2895 51.4973Z" fill="#B3B3B3"/>
<path d="M87.7698 54.0836L87.5363 54.2166L82.7454 51.3852L82.9788 51.2522L87.7698 54.0836Z" fill="#B3B3B3"/>
<path d="M83.2495 56.67L83.0161 56.8031L78.2169 53.967L78.4503 53.8339L83.2495 56.67Z" fill="#B3B3B3"/>
<path d="M78.7289 59.2562L78.4955 59.3892L75.1844 57.432L75.4178 57.2989L78.7289 59.2562Z" fill="#B3B3B3"/>
<path d="M73.2167 62.3981V64.6272L67.848 61.5286L67.6146 61.3932L63.2379 58.8676L63.0045 58.7322L58.6278 56.2066L58.3944 56.0712L54.0177 53.5444L53.7843 53.4102L49.4076 50.8834L49.1742 50.7491L45.3228 48.5258V46.4203L49.1742 48.6262L49.4076 48.7604L53.7843 51.2673L54.0177 51.4004L58.3944 53.9073L58.6278 54.0416L63.0045 56.5485L63.2379 56.6827L67.6146 59.1897L67.848 59.3227L73.2167 62.3981Z" fill="white"/>
<path d="M49.408 48.7604V50.8834L49.1746 50.7492V48.6262L49.408 48.7604Z" fill="#CCCCCC"/>
<path d="M54.018 51.4003V53.5443L53.7846 53.4101V51.2673L54.018 51.4003Z" fill="#CCCCCC"/>
<path d="M58.6274 54.0414V56.2064L58.394 56.071V53.9072L58.6274 54.0414Z" fill="#CCCCCC"/>
<path d="M63.2381 56.6828V58.8676L63.0047 58.7322V56.5486L63.2381 56.6828Z" fill="#CCCCCC"/>
<path d="M67.8475 59.3227V61.5285L67.6141 61.3931V59.1896L67.8475 59.3227Z" fill="#CCCCCC"/>
<path d="M73.2171 64.6272L101.111 48.4161V46.4203L73.2171 62.4097V64.6272Z" fill="#DDDDDD"/>
<path d="M96.7921 48.8713H96.5587V51.3398H96.7921V48.8713Z" fill="#B3B3B3"/>
<path d="M92.2699 51.4646H92.0364V53.9331H92.2699V51.4646Z" fill="#B3B3B3"/>
<path d="M87.747 54.0566H87.5135V56.5251H87.747V54.0566Z" fill="#B3B3B3"/>
<path d="M83.2247 56.649H82.9913V59.1174H83.2247V56.649Z" fill="#B3B3B3"/>
<path d="M78.7025 59.2411H78.4691V61.7096H78.7025V59.2411Z" fill="#B3B3B3"/>
<path d="M48.349 44.6007L55.1556 40.5789L50.1837 45.4994L48.349 44.6007Z" fill="#EDEEEF"/>
<path d="M97.9826 46.1822L73.3566 60.5377V60.1876V24.1239L97.9826 46.1822Z" fill="#55BAF0"/>
<g opacity="0.6">
<path d="M78.4327 28.4568L73.0646 31.6093L73.1828 31.8106L78.5509 28.6581L78.4327 28.4568Z" fill="#E6E6E6"/>
<path d="M83.1028 33.008L73.1063 38.9821L73.2261 39.1825L83.2225 33.2084L83.1028 33.008Z" fill="#E6E6E6"/>
<path d="M87.8842 37.4405L73.298 45.9635L73.4158 46.1651L88.002 37.6421L87.8842 37.4405Z" fill="#E6E6E6"/>
<path d="M92.7894 41.6458L73.0646 53.0826L73.1817 53.2846L92.9065 41.8478L92.7894 41.6458Z" fill="#E6E6E6"/>
<path d="M73.3153 31.6257L73.1599 31.7998L92.7663 49.3061L92.9218 49.132L73.3153 31.6257Z" fill="#E6E6E6"/>
<path d="M73.4351 24.1515L73.2794 24.3254L97.9063 46.3835L98.062 46.2096L73.4351 24.1515Z" fill="#E6E6E6"/>
<path d="M73.4736 24.3573H73.2402V60.6544H73.4736V24.3573Z" fill="#E6E6E6"/>
<path d="M73.4323 38.6221L73.275 38.7946L87.8647 52.0989L88.022 51.9264L73.4323 38.6221Z" fill="#E6E6E6"/>
<path d="M73.316 45.7413L73.1605 45.9153L83.0811 54.7846L83.2367 54.6106L73.316 45.7413Z" fill="#E6E6E6"/>
<path d="M73.4401 52.9846L73.2812 53.1556L78.1827 57.7073L78.3416 57.5362L73.4401 52.9846Z" fill="#E6E6E6"/>
<path d="M78.3756 28.7923H78.1422V57.7366H78.3756V28.7923Z" fill="#E6E6E6"/>
<path d="M83.277 33.1106H83.0436V54.8189H83.277V33.1106Z" fill="#E6E6E6"/>
<path d="M88.062 37.4289H87.8286V52.1344H88.062V37.4289Z" fill="#E6E6E6"/>
<path d="M92.964 41.7471H92.7306V49.2166H92.964V41.7471Z" fill="#E6E6E6"/>
</g>
<path d="M73.357 24.1239V60.5377L73.2263 60.4607L68.3735 57.6188L63.5195 54.7757L63.3549 54.6788L58.6666 51.9338L58.5067 51.8392L53.8138 49.0907L53.6597 49.0008L53.5757 48.9518L48.8477 46.1822L53.6889 41.8254L53.8394 41.69L54.318 41.2594L58.5336 37.4651L58.718 37.2994L63.3794 33.1036L63.5953 32.9099L68.2252 28.7421L68.4738 28.5192L73.0711 24.3806L73.3512 24.1297V24.1285L73.357 24.1239Z" fill="#79C6E8"/>
<g opacity="0.6">
<path d="M73.2912 24.6456L73.2842 24.6409L73.011 24.481L73.1289 24.2803L73.4207 24.4519L73.2912 24.6456Z" fill="#E6E6E6"/>
<path d="M73.2969 31.8396L73.1114 31.7311L68.1663 28.8425L68.283 28.6418L68.5305 28.7842L73.416 31.6389L73.2969 31.8396Z" fill="#E6E6E6"/>
<path d="M73.2968 39.0315L73.0855 38.9077L63.3203 33.2052L63.437 33.0022L63.6518 33.1282L73.4146 38.8295L73.2968 39.0315Z" fill="#E6E6E6"/>
<path d="M73.2985 46.2231L73.0628 46.0854L58.4774 37.5678L58.5883 37.3624L58.6163 37.3776L58.775 37.471L73.4153 46.0212L73.3931 46.0597V46.0749H73.3837L73.2985 46.2231Z" fill="#E6E6E6"/>
<path d="M73.2971 53.4137L68.1828 50.427L53.629 41.9258L53.7363 41.7192L53.7468 41.7251L53.8962 41.8126L73.415 53.2129L73.2971 53.4137Z" fill="#E6E6E6"/>
<path d="M73.2982 60.6066L73.1674 60.5308L48.7468 46.2664L48.8647 46.0656L73.4149 60.4047L73.2982 60.6066Z" fill="#E6E6E6"/>
<path d="M73.3422 60.4608H73.1088V60.4293L73.2337 24.1299L73.4671 24.1287L73.466 24.5453L73.3422 60.4608Z" fill="#E6E6E6"/>
<path d="M68.49 57.6188H68.2566V57.5942L68.357 28.518L68.5904 28.5204L68.5892 28.8857L68.49 57.6188Z" fill="#E6E6E6"/>
<path d="M63.6359 54.7757H63.4025L63.4036 54.5306L63.4783 32.9099H63.7118L63.7106 33.2297L63.6359 54.7757Z" fill="#E6E6E6"/>
<path d="M58.5496 51.9338L58.5508 51.6957L58.601 37.2994H58.8344L58.8332 37.5713L58.783 51.9268L58.5496 51.9338Z" fill="#E6E6E6"/>
<path d="M53.9302 49.0918L53.6968 49.0906L53.6979 48.8619L53.7225 41.69L53.9559 41.6853L53.9547 41.9141L53.9302 49.0918Z" fill="#E6E6E6"/>
<path d="M48.8834 46.2535L48.7281 46.0785L73.283 24.2185L73.4289 24.4006L73.2713 24.5406L48.8834 46.2535Z" fill="#E6E6E6"/>
<path d="M53.7362 49.0873L53.581 48.9134L53.7362 48.7745L73.2783 31.3776L73.4335 31.5527L73.2468 31.7184L53.7362 49.0873Z" fill="#E6E6E6"/>
<path d="M58.5785 51.9303L58.4326 51.7482L58.589 51.6094L73.2794 38.5319L73.4335 38.707L73.2222 38.8949L58.5785 51.9303Z" fill="#E6E6E6"/>
<path d="M63.4313 54.7664L63.2761 54.5913L63.4419 54.4431L73.2782 45.6874L73.4346 45.8602L73.1989 46.0726L63.4313 54.7664Z" fill="#E6E6E6"/>
</g>
<path d="M76.3598 87.5318L76.2061 87.6212V87.62L76.3598 87.5318Z" fill="#C7C7D3"/>
<path d="M110.878 127.042L110.882 137.698L112.574 139.031V128.37L110.878 127.042Z" fill="#C7B299"/>
<path d="M114.264 127.047V137.707L112.573 139.031V128.37L114.264 127.047Z" fill="#998675"/>
<path d="M106.169 128.734L112.573 133.781V125.531L109.371 122.96L106.169 128.734Z" fill="#53AA87"/>
<path d="M118.978 128.734L112.573 133.781V125.531L115.776 122.96L118.978 128.734Z" fill="#328D6A"/>
<path d="M107.052 124.002L112.573 128.354V121.239L109.812 119.023L107.052 124.002Z" fill="#6CD3A7"/>
<path d="M118.096 124.002L112.573 128.354V121.239L115.334 119.023L118.096 124.002Z" fill="#389E74"/>
<path d="M108.307 120.232L112.576 123.597V110.356" fill="#84F4C1"/>
<path d="M116.847 120.232L112.577 123.597V110.356" fill="#6CD3A7"/>
<path d="M97.5829 126.929L97.5923 143.421L100.209 145.483V128.984L97.5829 126.929Z" fill="#C7B299"/>
<path d="M102.827 126.936V143.435L100.21 145.483V128.984L102.827 126.936Z" fill="#998675"/>
<path d="M90.2959 129.548L100.21 137.359V124.587L95.2526 120.609L90.2959 129.548Z" fill="#53AA87"/>
<path d="M110.124 129.548L100.21 137.359V124.587L105.167 120.609L110.124 129.548Z" fill="#328D6A"/>
<path d="M91.6624 122.222L100.209 128.957V117.945L95.9364 114.514L91.6624 122.222Z" fill="#6CD3A7"/>
<path d="M108.757 122.222L100.21 128.957V117.945L104.483 114.514L108.757 122.222Z" fill="#389E74"/>
<path d="M93.6054 116.387L100.215 121.595V101.101" fill="#84F4C1"/>
<path d="M106.824 116.387L100.215 121.595V101.101" fill="#6CD3A7"/>
<path d="M39.7079 117.348L39.7184 136.342L42.9898 138.718V119.715L39.7079 117.348Z" fill="#C7B299"/>
<path d="M46.2615 117.356V136.358L42.9901 138.718V119.715L46.2615 117.356Z" fill="#998675"/>
<path d="M30.5999 120.364L42.9899 129.361V114.652L36.7949 110.069L30.5999 120.364Z" fill="#53AA87"/>
<path d="M55.3801 120.364L42.9901 129.361V114.652L49.1851 110.069L55.3801 120.364Z" fill="#328D6A"/>
<path d="M32.3076 111.928L42.9901 119.684V107.001L37.6483 103.051L32.3076 111.928Z" fill="#6CD3A7"/>
<path d="M53.6726 111.928L42.9901 119.684V107.001L48.3319 103.051L53.6726 111.928Z" fill="#389E74"/>
<path d="M34.7374 105.208L42.9971 111.205V87.6017" fill="#84F4C1"/>
<path d="M51.2565 105.208L42.9969 111.205V87.6017" fill="#6CD3A7"/>
<path d="M51.7028 132.889L51.7098 145.75L53.925 147.358V134.492L51.7028 132.889Z" fill="#C7B299"/>
<path d="M56.1388 132.894V145.76L53.9247 147.358V134.492L56.1388 132.894Z" fill="#998675"/>
<path d="M45.5358 134.932L53.9249 141.023V131.064L49.7304 127.96L45.5358 134.932Z" fill="#53AA87"/>
<path d="M62.3128 134.932L53.9247 141.023V131.064L58.1193 127.96L62.3128 134.932Z" fill="#328D6A"/>
<path d="M46.6912 129.219L53.925 134.471V125.884L50.3081 123.208L46.6912 129.219Z" fill="#6CD3A7"/>
<path d="M61.1573 129.219L53.9247 134.471V125.884L57.5405 123.208L61.1573 129.219Z" fill="#389E74"/>
<path d="M48.3366 124.669L53.9294 128.731V112.748" fill="#84F4C1"/>
<path d="M59.5225 124.669L53.9297 128.731V112.748" fill="#6CD3A7"/>
</svg>
